<svg width="286" height="265" viewBox="0 0 286 265" fill="none" xmlns="http://www.w3.org/2000/svg">
<path fill-rule="evenodd" clip-rule="evenodd" d="M41.4609 37.9102H122.979V113.73H41.4609V37.9102Z" fill="#F199BF"/>
<path fill-rule="evenodd" clip-rule="evenodd" d="M122.516 37.9102H204.033V113.73H122.516V37.9102Z" fill="#F6BED8"/>
<path fill-rule="evenodd" clip-rule="evenodd" d="M41.4609 113.298H122.979V189.119H41.4609V113.298Z" fill="#F3AACB"/>
<path fill-rule="evenodd" clip-rule="evenodd" d="M122.516 113.298H204.033V189.119H122.516V113.298Z" fill="#E995BB"/>
<path fill-rule="evenodd" clip-rule="evenodd" d="M159.013 87.982C164.303 87.982 168.592 83.9932 168.592 79.0724C168.592 74.1519 164.303 70.1631 159.013 70.1631C153.722 70.1631 149.434 74.1519 149.434 79.0724C149.434 83.9932 153.722 87.982 159.013 87.982Z" fill="#FEFEFE" fill-opacity="0.2"/>
<path fill-rule="evenodd" clip-rule="evenodd" d="M86.8959 155.77C92.186 155.77 96.475 151.781 96.475 146.861C96.475 141.94 92.186 137.952 86.8959 137.952C81.6054 137.952 77.3164 141.94 77.3164 146.861C77.3164 151.781 81.6054 155.77 86.8959 155.77Z" fill="#FEFEFE" fill-opacity="0.701961"/>
<path fill-rule="evenodd" clip-rule="evenodd" d="M173.654 122.423C178.943 122.423 183.233 118.434 183.233 113.514C183.233 108.593 178.943 104.604 173.654 104.604C168.363 104.604 164.074 108.593 164.074 113.514C164.074 118.434 168.363 122.423 173.654 122.423Z" fill="#FEFEFE" fill-opacity="0.4"/>
<path fill-rule="evenodd" clip-rule="evenodd" d="M71.8409 122.423C77.1313 122.423 81.42 118.434 81.42 113.514C81.42 108.593 77.1313 104.604 71.8409 104.604C66.5504 104.604 62.2617 108.593 62.2617 113.514C62.2617 118.434 66.5504 122.423 71.8409 122.423Z" fill="#FEFEFE" fill-opacity="0.8"/>
<path fill-rule="evenodd" clip-rule="evenodd" d="M158.602 155.77C163.893 155.77 168.182 151.781 168.182 146.861C168.182 141.94 163.893 137.952 158.602 137.952C153.312 137.952 149.023 141.94 149.023 146.861C149.023 151.781 153.312 155.77 158.602 155.77Z" fill="#FEFEFE" fill-opacity="0.501961"/>
<path fill-rule="evenodd" clip-rule="evenodd" d="M86.8959 89.078C92.186 89.078 96.475 85.0892 96.475 80.1686C96.475 75.2481 92.186 71.2593 86.8959 71.2593C81.6054 71.2593 77.3164 75.2481 77.3164 80.1686C77.3164 85.0892 81.6054 89.078 86.8959 89.078Z" fill="#FEFEFE" fill-opacity="0.8"/>
<path fill-rule="evenodd" clip-rule="evenodd" d="M122.747 169.772C128.038 169.772 132.327 165.783 132.327 160.863C132.327 155.942 128.038 151.953 122.747 151.953C117.457 151.953 113.168 155.942 113.168 160.863C113.168 165.783 117.457 169.772 122.747 169.772Z" fill="#FEFEFE" fill-opacity="0.6"/>
<path fill-rule="evenodd" clip-rule="evenodd" d="M122.747 75.0765C128.038 75.0765 132.327 71.0877 132.327 66.1672C132.327 61.2466 128.038 57.2578 122.747 57.2578C117.457 57.2578 113.168 61.2466 113.168 66.1672C113.168 71.0877 117.457 75.0765 122.747 75.0765Z" fill="#FEFEFE"/>
<path fill-rule="evenodd" clip-rule="evenodd" d="M144.833 97.7102C142.115 94.8967 138.386 93.3472 134.332 93.3472C131.302 93.3472 128.527 94.2618 126.083 96.0648C124.851 96.9752 123.734 98.0888 122.749 99.3887C121.764 98.0894 120.647 96.9752 119.414 96.0648C116.971 94.2618 114.195 93.3472 111.165 93.3472C107.111 93.3472 103.382 94.8967 100.664 97.7102C97.9793 100.49 96.5 104.289 96.5 108.406C96.5 112.644 98.1544 116.523 101.707 120.615C104.885 124.274 109.452 127.99 114.741 132.292C116.547 133.761 118.594 135.426 120.719 137.2C121.281 137.67 122.002 137.928 122.749 137.928C123.496 137.928 124.217 137.67 124.778 137.201C126.903 135.427 128.951 133.761 130.758 132.291C136.046 127.989 140.614 124.274 143.791 120.615C147.343 116.523 148.997 112.644 148.997 108.406C148.997 104.289 147.518 100.49 144.833 97.7102Z" fill="#FEFEFE"/>
<path fill-rule="evenodd" clip-rule="evenodd" d="M0.703125 0H41.4626V37.91H0.703125V0Z" fill="#F6BED8"/>
<path fill-rule="evenodd" clip-rule="evenodd" d="M81.7578 227.03H122.517V264.94H81.7578V227.03Z" fill="#F199BF"/>
<path fill-rule="evenodd" clip-rule="evenodd" d="M204.035 189.12H244.795V227.03H204.035V189.12Z" fill="#F199BF"/>
<path fill-rule="evenodd" clip-rule="evenodd" d="M204.035 75.3892H244.795V113.299H204.035V75.3892Z" fill="#F6BED8"/>
<path fill-rule="evenodd" clip-rule="evenodd" d="M265.174 37.479H285.554V56.434H265.174V37.479Z" fill="#E995BB"/>
<path fill-rule="evenodd" clip-rule="evenodd" d="M0.703125 170.166H21.0829V189.121H0.703125V170.166Z" fill="#E995BB"/>
</svg>
