<svg width="286" height="265" viewBox="0 0 286 265" fill="none" xmlns="http://www.w3.org/2000/svg">
<path fill-rule="evenodd" clip-rule="evenodd" d="M82.0234 75.8296H163.532V151.642H82.0234V75.8296Z" fill="#ED1C24"/>
<path fill-rule="evenodd" clip-rule="evenodd" d="M163.068 75.8296H244.577V151.642H163.068V75.8296Z" fill="#FC3239"/>
<path fill-rule="evenodd" clip-rule="evenodd" d="M82.0234 151.211H163.532V227.023H82.0234V151.211Z" fill="#DE1017"/>
<path fill-rule="evenodd" clip-rule="evenodd" d="M163.068 151.211H244.577V227.023H163.068V151.211Z" fill="#ED1C24"/>
<path fill-rule="evenodd" clip-rule="evenodd" d="M199.56 125.897C204.85 125.897 209.138 121.908 209.138 116.988C209.138 112.068 204.85 108.08 199.56 108.08C194.271 108.08 189.982 112.068 189.982 116.988C189.982 121.908 194.271 125.897 199.56 125.897Z" fill="#FEFEFE" fill-opacity="0.2"/>
<path fill-rule="evenodd" clip-rule="evenodd" d="M127.451 193.678C132.741 193.678 137.029 189.689 137.029 184.77C137.029 179.85 132.741 175.861 127.451 175.861C122.161 175.861 117.873 179.85 117.873 184.77C117.873 189.689 122.161 193.678 127.451 193.678Z" fill="#FEFEFE" fill-opacity="0.701961"/>
<path fill-rule="evenodd" clip-rule="evenodd" d="M214.199 160.334C219.489 160.334 223.777 156.346 223.777 151.426C223.777 146.506 219.489 142.517 214.199 142.517C208.91 142.517 204.621 146.506 204.621 151.426C204.621 156.346 208.91 160.334 214.199 160.334Z" fill="#FEFEFE" fill-opacity="0.4"/>
<path fill-rule="evenodd" clip-rule="evenodd" d="M112.4 160.334C117.69 160.334 121.978 156.346 121.978 151.426C121.978 146.506 117.69 142.517 112.4 142.517C107.11 142.517 102.822 146.506 102.822 151.426C102.822 156.346 107.11 160.334 112.4 160.334Z" fill="#FEFEFE" fill-opacity="0.8"/>
<path fill-rule="evenodd" clip-rule="evenodd" d="M199.149 193.678C204.439 193.678 208.727 189.689 208.727 184.77C208.727 179.85 204.439 175.861 199.149 175.861C193.859 175.861 189.57 179.85 189.57 184.77C189.57 189.689 193.859 193.678 199.149 193.678Z" fill="#FEFEFE" fill-opacity="0.501961"/>
<path fill-rule="evenodd" clip-rule="evenodd" d="M127.451 126.992C132.741 126.992 137.029 123.003 137.029 118.083C137.029 113.163 132.741 109.175 127.451 109.175C122.161 109.175 117.873 113.163 117.873 118.083C117.873 123.003 122.161 126.992 127.451 126.992Z" fill="#FEFEFE" fill-opacity="0.8"/>
<path fill-rule="evenodd" clip-rule="evenodd" d="M163.297 207.677C168.586 207.677 172.875 203.689 172.875 198.77C172.875 193.849 168.586 189.861 163.297 189.861C158.007 189.861 153.719 193.849 153.719 198.77C153.719 203.689 158.007 207.677 163.297 207.677Z" fill="#FEFEFE" fill-opacity="0.6"/>
<path fill-rule="evenodd" clip-rule="evenodd" d="M163.297 112.993C168.586 112.993 172.875 109.004 172.875 104.084C172.875 99.1642 168.586 95.1758 163.297 95.1758C158.007 95.1758 153.719 99.1642 153.719 104.084C153.719 109.004 158.007 112.993 163.297 112.993Z" fill="#FEFEFE"/>
<path fill-rule="evenodd" clip-rule="evenodd" d="M158.084 154.419H146.158L151.411 158.083L143.605 179.59L163.228 166.225L182.996 179.59L175.337 158.083L181.027 154.419H169.064L173.076 167.005L163.301 160.255L153.783 166.599L158.084 154.419V154.419ZM131.076 144.55L131.713 144.888L138.862 149.638H159.579L163.301 139.02L167.023 149.638H187.74L194.889 144.888L195.525 144.55H170.724L163.301 123.263V123.262V123.262L163.301 123.262V123.263L155.878 144.55H131.076Z" fill="white"/>
<path fill-rule="evenodd" clip-rule="evenodd" d="M285.353 264.94H244.594V227.03H285.353V264.94Z" fill="#ED1C24"/>
<path fill-rule="evenodd" clip-rule="evenodd" d="M204.298 37.91H163.539V0H204.298V37.91Z" fill="#FC3239"/>
<path fill-rule="evenodd" clip-rule="evenodd" d="M82.0211 75.8201H41.2617V37.9102H82.0211V75.8201Z" fill="#ED1C24"/>
<path fill-rule="evenodd" clip-rule="evenodd" d="M82.0211 189.551H41.2617V151.641H82.0211V189.551Z" fill="#FC3239"/>
<path fill-rule="evenodd" clip-rule="evenodd" d="M20.8836 227.461H0.503906V208.506H20.8836V227.461Z" fill="#FC3239"/>
<path fill-rule="evenodd" clip-rule="evenodd" d="M285.352 94.7753H264.973V75.8203H285.352V94.7753Z" fill="#DE1017"/>
</svg>
