<svg width="286" height="265" viewBox="0 0 286 265" fill="none" xmlns="http://www.w3.org/2000/svg">
<path fill-rule="evenodd" clip-rule="evenodd" d="M41.7109 37.9102H123.23V113.73H41.7109V37.9102Z" fill="#4490C7"/>
<path fill-rule="evenodd" clip-rule="evenodd" d="M122.766 37.9102H204.285V113.73H122.766V37.9102Z" fill="#52A0D8"/>
<path fill-rule="evenodd" clip-rule="evenodd" d="M41.7109 113.299H123.23V189.12H41.7109V113.299Z" fill="#52A0D8"/>
<path fill-rule="evenodd" clip-rule="evenodd" d="M122.766 113.299H204.285V189.12H122.766V113.299Z" fill="#6AB4E8"/>
<path fill-rule="evenodd" clip-rule="evenodd" d="M160.444 87.1498C165.907 87.1498 170.335 83.0309 170.335 77.9495C170.335 72.8685 165.907 68.7495 160.444 68.7495C154.981 68.7495 150.553 72.8685 150.553 77.9495C150.553 83.0309 154.981 87.1498 160.444 87.1498Z" fill="#FEFEFE" fill-opacity="0.2"/>
<path fill-rule="evenodd" clip-rule="evenodd" d="M85.9755 157.15C91.4384 157.15 95.8671 153.031 95.8671 147.95C95.8671 142.869 91.4384 138.75 85.9755 138.75C80.5125 138.75 76.084 142.869 76.084 147.95C76.084 153.031 80.5125 157.15 85.9755 157.15Z" fill="#FEFEFE" fill-opacity="0.701961"/>
<path fill-rule="evenodd" clip-rule="evenodd" d="M175.563 122.714C181.027 122.714 185.455 118.595 185.455 113.514C185.455 108.433 181.027 104.314 175.563 104.314C170.101 104.314 165.672 108.433 165.672 113.514C165.672 118.595 170.101 122.714 175.563 122.714Z" fill="#FEFEFE" fill-opacity="0.4"/>
<path fill-rule="evenodd" clip-rule="evenodd" d="M70.4306 122.714C75.8936 122.714 80.3222 118.595 80.3222 113.514C80.3222 108.433 75.8936 104.314 70.4306 104.314C64.9677 104.314 60.5391 108.433 60.5391 113.514C60.5391 118.595 64.9677 122.714 70.4306 122.714Z" fill="#FEFEFE" fill-opacity="0.8"/>
<path fill-rule="evenodd" clip-rule="evenodd" d="M160.021 157.15C165.484 157.15 169.913 153.031 169.913 147.95C169.913 142.869 165.484 138.75 160.021 138.75C154.557 138.75 150.129 142.869 150.129 147.95C150.129 153.031 154.557 157.15 160.021 157.15Z" fill="#FEFEFE" fill-opacity="0.501961"/>
<path fill-rule="evenodd" clip-rule="evenodd" d="M85.9755 88.2804C91.4384 88.2804 95.8671 84.1614 95.8671 79.0806C95.8671 73.9993 91.4384 69.8804 85.9755 69.8804C80.5125 69.8804 76.084 73.9993 76.084 79.0806C76.084 84.1614 80.5125 88.2804 85.9755 88.2804Z" fill="#FEFEFE" fill-opacity="0.8"/>
<path fill-rule="evenodd" clip-rule="evenodd" d="M122.995 171.607C128.458 171.607 132.887 167.488 132.887 162.408C132.887 157.327 128.458 153.208 122.995 153.208C117.532 153.208 113.104 157.327 113.104 162.408C113.104 167.488 117.532 171.607 122.995 171.607Z" fill="#FEFEFE" fill-opacity="0.6"/>
<path fill-rule="evenodd" clip-rule="evenodd" d="M122.995 73.8234C128.458 73.8234 132.887 69.7044 132.887 64.6233C132.887 59.5423 128.458 55.4233 122.995 55.4233C117.532 55.4233 113.104 59.5423 113.104 64.6233C113.104 69.7044 117.532 73.8234 122.995 73.8234Z" fill="#FEFEFE"/>
<path fill-rule="evenodd" clip-rule="evenodd" d="M148.445 106.092H145.723V98.0758C145.658 97.1111 144.816 96.3278 143.778 96.2675H125.18V85.1772H121.292V96.2675H102.694C101.657 96.3278 100.815 97.1111 100.75 98.0758V106.092H98.0283C96.9266 106.092 96.084 106.875 96.084 107.9V119.834C96.084 120.859 96.9266 121.642 98.0283 121.642H100.75V132.792C100.815 133.757 101.657 134.54 102.694 134.6H143.778C144.816 134.54 145.658 133.757 145.723 132.792V121.642H148.445C149.547 121.642 150.389 120.859 150.389 119.834V107.9C150.389 106.875 149.547 106.092 148.445 106.092ZM134.676 122.486C134.676 124.483 132.935 126.102 130.788 126.102H115.46C113.312 126.102 111.572 124.483 111.572 122.486V120.599H115.126C115.126 121.641 116.035 122.486 117.155 122.486H130.867V120.599H134.676V122.486ZM110.726 106.207C111.557 105.887 112.449 105.722 113.349 105.722C114.249 105.722 115.141 105.887 115.972 106.207C116.804 106.528 117.56 106.997 118.196 107.589C118.833 108.181 119.338 108.884 119.682 109.658C120.027 110.431 120.204 111.26 120.204 112.098H116.65C116.65 111.694 116.564 111.295 116.398 110.923C116.232 110.551 115.989 110.212 115.683 109.927C115.376 109.642 115.012 109.416 114.612 109.261C114.212 109.107 113.782 109.028 113.349 109.028C112.916 109.028 112.486 109.107 112.086 109.261C111.685 109.416 111.322 109.642 111.015 109.927C110.708 110.212 110.465 110.551 110.3 110.923C110.134 111.295 110.048 111.694 110.048 112.098H106.494C106.494 111.26 106.671 110.431 107.015 109.658C107.36 108.884 107.865 108.181 108.502 107.589C109.138 106.997 109.894 106.528 110.726 106.207ZM132.645 105.722C131.745 105.722 130.853 105.887 130.022 106.207C129.19 106.528 128.434 106.997 127.797 107.589C127.161 108.181 126.656 108.884 126.311 109.658C125.967 110.431 125.79 111.26 125.79 112.098H129.344C129.344 111.694 129.429 111.295 129.595 110.923C129.761 110.551 130.004 110.212 130.311 109.927C130.617 109.642 130.981 109.416 131.382 109.261C131.782 109.107 132.211 109.028 132.645 109.028C133.078 109.028 133.507 109.107 133.908 109.261C134.308 109.416 134.672 109.642 134.979 109.927C135.285 110.212 135.528 110.551 135.694 110.923C135.86 111.295 135.945 111.694 135.945 112.098H139.5C139.5 111.26 139.322 110.431 138.978 109.658C138.633 108.884 138.129 108.181 137.492 107.589C136.855 106.997 136.1 106.528 135.268 106.207C134.436 105.887 133.545 105.722 132.645 105.722Z" fill="#FEFEFE"/>
<path fill-rule="evenodd" clip-rule="evenodd" d="M0.953125 0H41.7126V37.91H0.953125V0Z" fill="#4490C7"/>
<path fill-rule="evenodd" clip-rule="evenodd" d="M82.0039 227.03H122.763V264.94H82.0039V227.03Z" fill="#4490C7"/>
<path fill-rule="evenodd" clip-rule="evenodd" d="M204.281 189.12H245.041V227.03H204.281V189.12Z" fill="#6AB4E8"/>
<path fill-rule="evenodd" clip-rule="evenodd" d="M204.281 75.3892H245.041V113.299H204.281V75.3892Z" fill="#52A0D8"/>
<path fill-rule="evenodd" clip-rule="evenodd" d="M265.424 37.479H285.804V56.434H265.424V37.479Z" fill="#4490C7"/>
<path fill-rule="evenodd" clip-rule="evenodd" d="M0.953125 170.166H21.3329V189.121H0.953125V170.166Z" fill="#4490C7"/>
</svg>
