<svg width="286" height="265" viewBox="0 0 286 265" fill="none" xmlns="http://www.w3.org/2000/svg">
<path fill-rule="evenodd" clip-rule="evenodd" d="M81.9199 75.8203H163.439V151.643H81.9199V75.8203Z" fill="#185494"/>
<path fill-rule="evenodd" clip-rule="evenodd" d="M162.975 75.8203H244.494V151.643H162.975V75.8203Z" fill="#1F62AB"/>
<path fill-rule="evenodd" clip-rule="evenodd" d="M81.9199 151.211H163.439V227.033H81.9199V151.211Z" fill="#1F62AB"/>
<path fill-rule="evenodd" clip-rule="evenodd" d="M162.975 151.211H244.494V227.033H162.975V151.211Z" fill="#2C73BF"/>
<path fill-rule="evenodd" clip-rule="evenodd" d="M199.363 125.971C204.637 125.971 208.913 121.994 208.913 117.088C208.913 112.182 204.637 108.205 199.363 108.205C194.088 108.205 189.812 112.182 189.812 117.088C189.812 121.994 194.088 125.971 199.363 125.971Z" fill="#FEFEFE" fill-opacity="0.2"/>
<path fill-rule="evenodd" clip-rule="evenodd" d="M127.462 193.556C132.737 193.556 137.013 189.579 137.013 184.674C137.013 179.768 132.737 175.791 127.462 175.791C122.188 175.791 117.912 179.768 117.912 184.674C117.912 189.579 122.188 193.556 127.462 193.556Z" fill="#FEFEFE" fill-opacity="0.701961"/>
<path fill-rule="evenodd" clip-rule="evenodd" d="M213.961 160.309C219.235 160.309 223.51 156.332 223.51 151.426C223.51 146.52 219.235 142.543 213.961 142.543C208.686 142.543 204.41 146.52 204.41 151.426C204.41 156.332 208.686 160.309 213.961 160.309Z" fill="#FEFEFE" fill-opacity="0.4"/>
<path fill-rule="evenodd" clip-rule="evenodd" d="M112.455 160.309C117.729 160.309 122.005 156.332 122.005 151.426C122.005 146.52 117.729 142.543 112.455 142.543C107.18 142.543 102.904 146.52 102.904 151.426C102.904 156.332 107.18 160.309 112.455 160.309Z" fill="#FEFEFE" fill-opacity="0.8"/>
<path fill-rule="evenodd" clip-rule="evenodd" d="M198.952 193.556C204.227 193.556 208.502 189.579 208.502 184.674C208.502 179.768 204.227 175.791 198.952 175.791C193.678 175.791 189.402 179.768 189.402 184.674C189.402 189.579 193.678 193.556 198.952 193.556Z" fill="#FEFEFE" fill-opacity="0.501961"/>
<path fill-rule="evenodd" clip-rule="evenodd" d="M127.462 127.063C132.737 127.063 137.013 123.086 137.013 118.18C137.013 113.274 132.737 109.297 127.462 109.297C122.188 109.297 117.912 113.274 117.912 118.18C117.912 123.086 122.188 127.063 127.462 127.063Z" fill="#FEFEFE" fill-opacity="0.8"/>
<path fill-rule="evenodd" clip-rule="evenodd" d="M163.205 207.516C168.479 207.516 172.755 203.538 172.755 198.633C172.755 193.727 168.479 189.75 163.205 189.75C157.93 189.75 153.654 193.727 153.654 198.633C153.654 203.538 157.93 207.516 163.205 207.516Z" fill="#FEFEFE" fill-opacity="0.6"/>
<path fill-rule="evenodd" clip-rule="evenodd" d="M163.205 113.104C168.479 113.104 172.755 109.127 172.755 104.221C172.755 99.3152 168.479 95.3384 163.205 95.3384C157.93 95.3384 153.654 99.3152 153.654 104.221C153.654 109.127 157.93 113.104 163.205 113.104Z" fill="#FEFEFE"/>
<path fill-rule="evenodd" clip-rule="evenodd" d="M156.972 162.809C152.545 149.285 161.899 144.348 161.899 144.348C161.244 151.564 165.667 157.186 165.667 157.186C167.294 156.731 170.399 154.604 170.399 154.604C170.399 157.186 168.761 162.805 168.761 162.805C168.761 162.805 174.496 158.694 176.302 151.865C178.105 145.036 172.868 138.181 172.868 138.181C173.183 143.014 171.419 147.768 167.964 151.399C168.137 151.214 168.282 151.009 168.393 150.786C169.014 149.635 170.011 146.643 169.427 139.716C168.606 129.991 159.101 125.89 159.101 125.89C159.687 130.126 158.599 132.031 155.829 136.881C154.723 138.816 153.351 141.22 151.71 144.427C145.956 155.672 156.972 162.809 156.972 162.809V162.809ZM152.475 162.885L138.919 169.07C136.873 170.003 137.59 172.858 139.87 172.858L154.52 171.71L159.159 165.478C156.188 165.066 153.62 164.231 152.475 162.885ZM158.62 172.923C158.027 172.267 157.21 171.837 156.323 171.69L160.811 165.661C161.837 165.748 162.888 165.79 163.926 165.79C164.762 165.79 165.608 165.763 166.445 165.707L171.082 171.937C170.581 172.139 170.124 172.439 169.747 172.826L166.917 175.723C165.334 177.344 162.577 177.296 161.061 175.62L158.62 172.923V172.923ZM172.65 171.64C172.761 171.641 172.872 171.646 172.983 171.656L187.033 172.858C189.267 172.858 190.025 170.096 188.063 169.107L175.724 162.885C174.26 164.318 171.355 165.172 168.119 165.553L172.65 171.64Z" fill="#FEFEFE"/>
<path fill-rule="evenodd" clip-rule="evenodd" d="M285.254 264.94H244.494V227.03H285.254V264.94Z" fill="#2C73BF"/>
<path fill-rule="evenodd" clip-rule="evenodd" d="M204.199 37.91H163.439V0H204.199V37.91Z" fill="#1F62AB"/>
<path fill-rule="evenodd" clip-rule="evenodd" d="M81.9213 75.8201H41.1621V37.9102H81.9213V75.8201Z" fill="#2C73BF"/>
<path fill-rule="evenodd" clip-rule="evenodd" d="M81.9213 189.551H41.1621V151.641H81.9213V189.551Z" fill="#185494"/>
<path fill-rule="evenodd" clip-rule="evenodd" d="M20.784 227.461H0.404297V208.506H20.784V227.461Z" fill="#185494"/>
<path fill-rule="evenodd" clip-rule="evenodd" d="M285.253 94.7753H264.873V75.8203H285.253V94.7753Z" fill="#2C73BF"/>
</svg>
