<svg width="285" height="265" viewBox="0 0 285 265" fill="none" xmlns="http://www.w3.org/2000/svg">
<path fill-rule="evenodd" clip-rule="evenodd" d="M40.7578 37.9102H122.278V113.733H40.7578V37.9102Z" fill="#F54F4C"/>
<path fill-rule="evenodd" clip-rule="evenodd" d="M121.814 37.9102H203.335V113.733H121.814V37.9102Z" fill="#F75D5A"/>
<path fill-rule="evenodd" clip-rule="evenodd" d="M40.7578 113.302H122.278V189.124H40.7578V113.302Z" fill="#FC7472"/>
<path fill-rule="evenodd" clip-rule="evenodd" d="M121.814 113.302H203.335V189.124H121.814V113.302Z" fill="#F54F4C"/>
<path fill-rule="evenodd" clip-rule="evenodd" d="M158.201 88.2838C163.475 88.2838 167.751 84.3417 167.751 79.4788C167.751 74.6159 163.475 70.6738 158.201 70.6738C152.926 70.6738 148.65 74.616 148.65 79.4788C148.65 84.3417 152.926 88.2838 158.201 88.2838Z" fill="#FEFEFE" fill-opacity="0.2"/>
<path fill-rule="evenodd" clip-rule="evenodd" d="M86.3002 155.278C91.5747 155.278 95.8505 151.336 95.8505 146.474C95.8505 141.61 91.5747 137.668 86.3002 137.668C81.0257 137.668 76.75 141.61 76.75 146.474C76.75 151.336 81.0257 155.278 86.3002 155.278Z" fill="#FEFEFE" fill-opacity="0.701961"/>
<path fill-rule="evenodd" clip-rule="evenodd" d="M172.798 122.321C178.073 122.321 182.348 118.379 182.348 113.516C182.348 108.653 178.073 104.71 172.798 104.71C167.524 104.71 163.248 108.653 163.248 113.516C163.248 118.379 167.524 122.321 172.798 122.321Z" fill="#FEFEFE" fill-opacity="0.4"/>
<path fill-rule="evenodd" clip-rule="evenodd" d="M71.2924 122.321C76.5669 122.321 80.8427 118.379 80.8427 113.516C80.8427 108.653 76.5669 104.71 71.2924 104.71C66.018 104.71 61.7422 108.653 61.7422 113.516C61.7422 118.379 66.018 122.321 71.2924 122.321Z" fill="#FEFEFE" fill-opacity="0.8"/>
<path fill-rule="evenodd" clip-rule="evenodd" d="M157.793 155.278C163.067 155.278 167.343 151.336 167.343 146.474C167.343 141.61 163.067 137.668 157.793 137.668C152.519 137.668 148.242 141.61 148.242 146.474C148.242 151.336 152.519 155.278 157.793 155.278Z" fill="#FEFEFE" fill-opacity="0.501961"/>
<path fill-rule="evenodd" clip-rule="evenodd" d="M86.3002 89.3648C91.5747 89.3648 95.8505 85.4227 95.8505 80.5599C95.8505 75.697 91.5747 71.7549 86.3002 71.7549C81.0257 71.7549 76.75 75.697 76.75 80.5599C76.75 85.4227 81.0257 89.3648 86.3002 89.3648Z" fill="#FEFEFE" fill-opacity="0.8"/>
<path fill-rule="evenodd" clip-rule="evenodd" d="M122.044 169.115C127.319 169.115 131.595 165.172 131.595 160.31C131.595 155.447 127.319 151.504 122.044 151.504C116.77 151.504 112.494 155.447 112.494 160.31C112.494 165.172 116.77 169.115 122.044 169.115Z" fill="#FEFEFE" fill-opacity="0.6"/>
<path fill-rule="evenodd" clip-rule="evenodd" d="M122.044 75.5289C127.319 75.5289 131.595 71.5868 131.595 66.7239C131.595 61.8611 127.319 57.9189 122.044 57.9189C116.77 57.9189 112.494 61.8611 112.494 66.7239C112.494 71.5868 116.77 75.5289 122.044 75.5289Z" fill="#FEFEFE"/>
<path fill-rule="evenodd" clip-rule="evenodd" d="M142.577 134.968L137.102 129.921C136.346 129.224 136.346 128.094 137.102 127.397C137.858 126.7 139.084 126.7 139.84 127.397L145.314 132.444C146.07 133.141 146.07 134.271 145.314 134.968C144.558 135.665 143.333 135.665 142.577 134.968V134.968Z" fill="#FEFEFE"/>
<path fill-rule="evenodd" clip-rule="evenodd" d="M104.253 99.6352L98.7778 94.5876C98.022 93.8906 98.022 92.7608 98.7778 92.0637C99.5338 91.3668 100.759 91.3668 101.515 92.0637L106.99 97.1114C107.746 97.8083 107.746 98.9381 106.99 99.6352C106.234 100.332 105.009 100.332 104.253 99.6352Z" fill="#FEFEFE"/>
<path fill-rule="evenodd" clip-rule="evenodd" d="M98.7778 134.968C98.022 134.271 98.022 133.141 98.7778 132.444L104.253 127.397C105.009 126.7 106.234 126.7 106.99 127.397C107.746 128.094 107.746 129.224 106.99 129.921L101.515 134.968C100.76 135.665 99.5338 135.665 98.7778 134.968Z" fill="#FEFEFE"/>
<path fill-rule="evenodd" clip-rule="evenodd" d="M137.102 99.6352C136.346 98.9381 136.346 97.8083 137.102 97.1114L142.577 92.0637C143.333 91.3668 144.558 91.3668 145.314 92.0637C146.07 92.7608 146.07 93.8906 145.314 94.5876L139.84 99.6352C139.084 100.332 137.858 100.332 137.102 99.6352V99.6352Z" fill="#FEFEFE"/>
<path fill-rule="evenodd" clip-rule="evenodd" d="M130.627 137.282L129.146 133.984C128.737 133.074 129.206 132.03 130.194 131.653C131.181 131.276 132.314 131.708 132.723 132.619L134.204 135.916C134.613 136.827 134.144 137.871 133.157 138.248C132.167 138.626 131.036 138.191 130.627 137.282Z" fill="#FEFEFE"/>
<path fill-rule="evenodd" clip-rule="evenodd" d="M111.369 94.4139L109.888 91.1166C109.479 90.2058 109.948 89.162 110.936 88.7848C111.924 88.4076 113.056 88.8398 113.465 89.7506L114.946 93.0479C115.355 93.9587 114.886 95.0026 113.899 95.3797C112.909 95.7577 111.778 95.3225 111.369 94.4139Z" fill="#FEFEFE"/>
<path fill-rule="evenodd" clip-rule="evenodd" d="M95.2201 123.76C94.811 122.849 95.2801 121.805 96.2676 121.428L99.8443 120.062C100.832 119.686 101.964 120.118 102.373 121.028C102.783 121.939 102.313 122.983 101.326 123.36L97.7492 124.726C96.7593 125.104 95.6283 124.669 95.2201 123.76Z" fill="#FEFEFE"/>
<path fill-rule="evenodd" clip-rule="evenodd" d="M141.718 106.003C141.309 105.093 141.778 104.049 142.766 103.672L146.343 102.306C147.33 101.929 148.462 102.361 148.871 103.272C149.281 104.182 148.812 105.226 147.824 105.603L144.247 106.969C143.257 107.347 142.126 106.912 141.718 106.003Z" fill="#FEFEFE"/>
<path fill-rule="evenodd" clip-rule="evenodd" d="M110.936 138.248C109.948 137.871 109.479 136.827 109.888 135.916L111.369 132.619C111.779 131.708 112.911 131.276 113.899 131.653C114.886 132.03 115.355 133.074 114.946 133.984L113.465 137.282C113.057 138.19 111.926 138.626 110.936 138.248Z" fill="#FEFEFE"/>
<path fill-rule="evenodd" clip-rule="evenodd" d="M130.194 95.3797C129.206 95.0026 128.737 93.9587 129.146 93.0479L130.628 89.7506C131.037 88.8398 132.169 88.4076 133.157 88.7848C134.144 89.162 134.613 90.2058 134.204 91.1166L132.723 94.4139C132.315 95.3217 131.184 95.758 130.194 95.3797Z" fill="#FEFEFE"/>
<path fill-rule="evenodd" clip-rule="evenodd" d="M99.8443 106.97L96.2676 105.604C95.2801 105.227 94.811 104.183 95.2201 103.272C95.6291 102.362 96.7613 101.93 97.7492 102.307L101.326 103.673C102.314 104.05 102.783 105.094 102.373 106.004C101.966 106.912 100.835 107.348 99.8443 106.97V106.97Z" fill="#FEFEFE"/>
<path fill-rule="evenodd" clip-rule="evenodd" d="M146.343 124.726L142.766 123.36C141.778 122.983 141.309 121.939 141.718 121.028C142.127 120.118 143.26 119.685 144.247 120.063L147.824 121.429C148.812 121.806 149.281 122.85 148.871 123.76C148.464 124.668 147.333 125.104 146.343 124.726V124.726Z" fill="#FEFEFE"/>
<path fill-rule="evenodd" clip-rule="evenodd" d="M122.045 143.973C120.976 143.973 120.109 143.174 120.109 142.188V134.931C120.109 133.946 120.976 133.146 122.045 133.146C123.114 133.146 123.981 133.946 123.981 134.931V142.188C123.981 143.174 123.114 143.973 122.045 143.973Z" fill="#FEFEFE"/>
<path fill-rule="evenodd" clip-rule="evenodd" d="M122.045 93.8852C120.976 93.8852 120.109 93.0861 120.109 92.1005V84.8432C120.109 83.8576 120.976 83.0586 122.045 83.0586C123.114 83.0586 123.981 83.8576 123.981 84.8432V92.1005C123.981 93.0861 123.114 93.8852 122.045 93.8852Z" fill="#FEFEFE"/>
<path fill-rule="evenodd" clip-rule="evenodd" d="M98.817 115.301H90.9454C89.8764 115.301 89.0098 114.502 89.0098 113.516C89.0098 112.531 89.8764 111.731 90.9454 111.731H98.817C99.8863 111.731 100.753 112.531 100.753 113.516C100.753 114.502 99.8863 115.301 98.817 115.301Z" fill="#FEFEFE"/>
<path fill-rule="evenodd" clip-rule="evenodd" d="M153.146 115.301H145.274C144.205 115.301 143.338 114.502 143.338 113.516C143.338 112.531 144.205 111.731 145.274 111.731H153.146C154.214 111.731 155.081 112.531 155.081 113.516C155.081 114.502 154.214 115.301 153.146 115.301Z" fill="#FEFEFE"/>
<path fill-rule="evenodd" clip-rule="evenodd" d="M122.046 129.577C112.44 129.577 104.625 122.372 104.625 113.516C104.625 104.66 112.44 97.4546 122.046 97.4546C131.652 97.4546 139.467 104.66 139.467 113.516C139.467 122.372 131.652 129.577 122.046 129.577Z" fill="#FEFEFE"/>
<path fill-rule="evenodd" clip-rule="evenodd" d="M0 0H40.7595V37.91H0V0Z" fill="#F54F4C"/>
<path fill-rule="evenodd" clip-rule="evenodd" d="M81.0508 227.03H121.81V264.94H81.0508V227.03Z" fill="#FC7472"/>
<path fill-rule="evenodd" clip-rule="evenodd" d="M203.328 189.12H244.088V227.03H203.328V189.12Z" fill="#F54F4C"/>
<path fill-rule="evenodd" clip-rule="evenodd" d="M203.328 75.3892H244.088V113.299H203.328V75.3892Z" fill="#FC7472"/>
<path fill-rule="evenodd" clip-rule="evenodd" d="M264.471 37.479H284.85V56.434H264.471V37.479Z" fill="#FC7472"/>
<path fill-rule="evenodd" clip-rule="evenodd" d="M0 170.166H20.3798V189.121H0V170.166Z" fill="#F54F4C"/>
</svg>
