<svg width="285" height="265" viewBox="0 0 285 265" fill="none" xmlns="http://www.w3.org/2000/svg">
<path fill-rule="evenodd" clip-rule="evenodd" d="M40.7578 61.6016H122.278V143.122H40.7578V61.6016Z" fill="#9B74B1"/>
<path fill-rule="evenodd" clip-rule="evenodd" d="M121.814 61.6016H203.334V143.122H121.814V61.6016Z" fill="#A584BB"/>
<path fill-rule="evenodd" clip-rule="evenodd" d="M40.7578 142.659H122.278V224.179H40.7578V142.659Z" fill="#A584BB"/>
<path fill-rule="evenodd" clip-rule="evenodd" d="M121.814 142.659H203.334V224.179H121.814V142.659Z" fill="#BD9DC9"/>
<path fill-rule="evenodd" clip-rule="evenodd" d="M158.2 115.521C163.475 115.521 167.751 111.245 167.751 105.97C167.751 100.696 163.475 96.4199 158.2 96.4199C152.926 96.4199 148.65 100.696 148.65 105.97C148.65 111.245 152.926 115.521 158.2 115.521Z" fill="#FEFEFE" fill-opacity="0.2"/>
<path fill-rule="evenodd" clip-rule="evenodd" d="M86.3003 188.185C91.5748 188.185 95.8504 183.909 95.8504 178.635C95.8504 173.361 91.5748 169.085 86.3003 169.085C81.0257 169.085 76.75 173.361 76.75 178.635C76.75 183.909 81.0257 188.185 86.3003 188.185Z" fill="#FEFEFE" fill-opacity="0.701961"/>
<path fill-rule="evenodd" clip-rule="evenodd" d="M172.798 152.439C178.073 152.439 182.349 148.163 182.349 142.889C182.349 137.614 178.073 133.338 172.798 133.338C167.524 133.338 163.248 137.614 163.248 142.889C163.248 148.163 167.524 152.439 172.798 152.439Z" fill="#FEFEFE" fill-opacity="0.4"/>
<path fill-rule="evenodd" clip-rule="evenodd" d="M71.2924 152.439C76.5669 152.439 80.8427 148.163 80.8427 142.889C80.8427 137.614 76.5669 133.338 71.2924 133.338C66.0179 133.338 61.7422 137.614 61.7422 142.889C61.7422 148.163 66.0179 152.439 71.2924 152.439Z" fill="#FEFEFE" fill-opacity="0.8"/>
<path fill-rule="evenodd" clip-rule="evenodd" d="M157.791 188.185C163.065 188.185 167.341 183.909 167.341 178.635C167.341 173.361 163.065 169.085 157.791 169.085C152.516 169.085 148.24 173.361 148.24 178.635C148.24 183.909 152.516 188.185 157.791 188.185Z" fill="#FEFEFE" fill-opacity="0.501961"/>
<path fill-rule="evenodd" clip-rule="evenodd" d="M86.3003 116.694C91.5748 116.694 95.8504 112.418 95.8504 107.144C95.8504 101.87 91.5748 97.5938 86.3003 97.5938C81.0257 97.5938 76.75 101.87 76.75 107.144C76.75 112.418 81.0257 116.694 86.3003 116.694Z" fill="#FEFEFE" fill-opacity="0.8"/>
<path fill-rule="evenodd" clip-rule="evenodd" d="M122.045 203.193C127.319 203.193 131.595 198.918 131.595 193.644C131.595 188.369 127.319 184.093 122.045 184.093C116.77 184.093 112.494 188.369 112.494 193.644C112.494 198.918 116.77 203.193 122.045 203.193Z" fill="#FEFEFE" fill-opacity="0.6"/>
<path fill-rule="evenodd" clip-rule="evenodd" d="M122.045 101.687C127.319 101.687 131.595 97.4112 131.595 92.1367C131.595 86.8622 127.319 82.5864 122.045 82.5864C116.77 82.5864 112.494 86.8622 112.494 92.1367C112.494 97.4112 116.77 101.687 122.045 101.687Z" fill="#FEFEFE"/>
<path fill-rule="evenodd" clip-rule="evenodd" d="M147.465 145.459H145.47V143.464C145.47 142.573 144.748 141.852 143.856 141.852C142.966 141.852 142.244 142.573 142.244 143.464V145.459H140.249C139.359 145.459 138.637 146.181 138.637 147.072C138.637 147.962 139.359 148.684 140.249 148.684H142.244V150.68C142.244 151.57 142.966 152.292 143.856 152.292C144.748 152.292 145.47 151.57 145.47 150.68V148.684H147.465C148.355 148.684 149.077 147.962 149.077 147.072C149.077 146.181 148.355 145.459 147.465 145.459Z" fill="#FEFEFE"/>
<path fill-rule="evenodd" clip-rule="evenodd" d="M98.519 135.411H100.514V137.406C100.514 138.297 101.236 139.019 102.126 139.019C103.017 139.019 103.739 138.297 103.739 137.406V135.411H105.734C106.624 135.411 107.346 134.689 107.346 133.798C107.346 132.908 106.624 132.186 105.734 132.186H103.739V130.191C103.739 129.3 103.017 128.578 102.126 128.578C101.236 128.578 100.514 129.3 100.514 130.191V132.186H98.519C97.6283 132.186 96.9062 132.908 96.9062 133.798C96.9062 134.689 97.6283 135.411 98.519 135.411Z" fill="#FEFEFE"/>
<path fill-rule="evenodd" clip-rule="evenodd" d="M117.95 133.566C118.794 133.566 119.602 132.824 119.563 131.953C119.523 131.08 118.854 130.341 117.95 130.341C117.107 130.341 116.298 131.082 116.337 131.953C116.376 132.827 117.046 133.566 117.95 133.566Z" fill="#FEFEFE"/>
<path fill-rule="evenodd" clip-rule="evenodd" d="M134.593 153.012C133.749 153.012 132.941 153.754 132.98 154.625C133.019 155.499 133.689 156.238 134.593 156.238C135.436 156.238 136.244 155.496 136.205 154.625C136.166 153.751 135.497 153.012 134.593 153.012Z" fill="#FEFEFE"/>
<path fill-rule="evenodd" clip-rule="evenodd" d="M150.334 159.49C149.491 159.49 148.683 160.232 148.722 161.102C148.761 161.977 149.431 162.716 150.334 162.716C151.178 162.716 151.986 161.974 151.947 161.102C151.908 160.229 151.239 159.49 150.334 159.49Z" fill="#FEFEFE"/>
<path fill-rule="evenodd" clip-rule="evenodd" d="M150.334 136.805C151.178 136.805 151.986 136.064 151.947 135.193C151.908 134.319 151.239 133.58 150.334 133.58C149.491 133.58 148.683 134.322 148.722 135.193C148.761 136.066 149.431 136.805 150.334 136.805Z" fill="#FEFEFE"/>
<path fill-rule="evenodd" clip-rule="evenodd" d="M101.759 120.725C102.602 120.725 103.41 119.983 103.371 119.112C103.332 118.239 102.663 117.5 101.759 117.5C100.915 117.5 100.107 118.241 100.146 119.112C100.185 119.986 100.855 120.725 101.759 120.725Z" fill="#FEFEFE"/>
<path fill-rule="evenodd" clip-rule="evenodd" d="M124.426 123.82C126.07 123.82 127.402 122.488 127.402 120.845C127.402 119.202 126.07 117.87 124.426 117.87C122.783 117.87 121.451 119.202 121.451 120.845C121.451 122.488 122.783 123.82 124.426 123.82Z" fill="#FEFEFE"/>
<path fill-rule="evenodd" clip-rule="evenodd" d="M101.353 165.773C100.569 164.988 100.13 163.944 100.118 162.836C100.117 162.819 100.117 162.803 100.117 162.786C100.117 161.696 100.532 160.661 101.287 159.871L123.789 136.338C124.431 138.857 126.048 141.008 128.412 142.415C129.133 142.844 129.895 143.185 130.683 143.439L107.255 165.839C106.466 166.594 105.431 167.009 104.339 167.009C103.212 167.009 102.152 166.571 101.353 165.773V165.773Z" fill="#FEFEFE"/>
<path fill-rule="evenodd" clip-rule="evenodd" d="M126.421 134.154C126.416 134.036 126.414 133.918 126.414 133.799C126.414 131.813 127.105 129.844 128.26 128.237C129.654 126.3 131.655 125.528 133.478 124.106C135.764 122.323 136.882 119.58 137.644 116.857C141.835 118.443 143.551 124.333 143.643 128.195C143.647 128.334 143.648 128.473 143.648 128.614C143.648 132.987 142.023 138.138 137.72 140.246C132.996 142.56 126.654 139.708 126.421 134.154Z" fill="#FEFEFE"/>
<path fill-rule="evenodd" clip-rule="evenodd" d="M121.814 20.3798H142.194V0H121.814V20.3798Z" fill="#9B74B1"/>
<path fill-rule="evenodd" clip-rule="evenodd" d="M81.0566 61.139H121.817V20.3794H81.0566V61.139Z" fill="#BD9DC9"/>
<path fill-rule="evenodd" clip-rule="evenodd" d="M203.332 61.1396H223.712V40.7598H203.332V61.1396Z" fill="#BD9DC9"/>
<path fill-rule="evenodd" clip-rule="evenodd" d="M203.336 224.179H244.096V183.419H203.336V224.179Z" fill="#A584BB"/>
<path fill-rule="evenodd" clip-rule="evenodd" d="M264.475 264.939H284.855V244.559H264.475V264.939Z" fill="#9B74B1"/>
<path fill-rule="evenodd" clip-rule="evenodd" d="M0 122.279H20.38V101.899H0V122.279Z" fill="#BD9DC9"/>
<path fill-rule="evenodd" clip-rule="evenodd" d="M20.3789 244.096H40.7589V223.716H20.3789V244.096Z" fill="#BD9DC9"/>
<path fill-rule="evenodd" clip-rule="evenodd" d="M162.572 264.476H203.332V223.716H162.572V264.476Z" fill="#9B74B1"/>
</svg>
