<svg width="286" height="265" viewBox="0 0 286 265" fill="none" xmlns="http://www.w3.org/2000/svg">
<path fill-rule="evenodd" clip-rule="evenodd" d="M41.1152 37.9082H122.634V113.731H41.1152V37.9082Z" fill="#6D296E"/>
<path fill-rule="evenodd" clip-rule="evenodd" d="M122.17 37.9082H203.689V113.731H122.17V37.9082Z" fill="#863685"/>
<path fill-rule="evenodd" clip-rule="evenodd" d="M41.1152 113.299H122.634V189.122H41.1152V113.299Z" fill="#7D2D7D"/>
<path fill-rule="evenodd" clip-rule="evenodd" d="M122.17 113.299H203.689V189.122H122.17V113.299Z" fill="#6D296E"/>
<path fill-rule="evenodd" clip-rule="evenodd" d="M158.666 87.9818C163.957 87.9818 168.246 83.9928 168.246 79.0719C168.246 74.1511 163.957 70.1621 158.666 70.1621C153.377 70.1621 149.088 74.1511 149.088 79.0719C149.088 83.9928 153.377 87.9818 158.666 87.9818Z" fill="#FEFEFE" fill-opacity="0.2"/>
<path fill-rule="evenodd" clip-rule="evenodd" d="M86.5499 155.773C91.8404 155.773 96.1291 151.784 96.1291 146.864C96.1291 141.943 91.8404 137.954 86.5499 137.954C81.2595 137.954 76.9707 141.943 76.9707 146.864C76.9707 151.784 81.2595 155.773 86.5499 155.773Z" fill="#FEFEFE" fill-opacity="0.701961"/>
<path fill-rule="evenodd" clip-rule="evenodd" d="M173.308 122.424C178.599 122.424 182.887 118.435 182.887 113.514C182.887 108.594 178.599 104.604 173.308 104.604C168.018 104.604 163.729 108.594 163.729 113.514C163.729 118.435 168.018 122.424 173.308 122.424Z" fill="#FEFEFE" fill-opacity="0.4"/>
<path fill-rule="evenodd" clip-rule="evenodd" d="M71.495 122.424C76.7855 122.424 81.0743 118.435 81.0743 113.514C81.0743 108.594 76.7855 104.604 71.495 104.604C66.2047 104.604 61.916 108.594 61.916 113.514C61.916 118.435 66.2047 122.424 71.495 122.424Z" fill="#FEFEFE" fill-opacity="0.8"/>
<path fill-rule="evenodd" clip-rule="evenodd" d="M158.255 155.773C163.546 155.773 167.835 151.784 167.835 146.864C167.835 141.943 163.546 137.954 158.255 137.954C152.964 137.954 148.676 141.943 148.676 146.864C148.676 151.784 152.964 155.773 158.255 155.773Z" fill="#FEFEFE" fill-opacity="0.501961"/>
<path fill-rule="evenodd" clip-rule="evenodd" d="M86.5499 89.0767C91.8404 89.0767 96.1291 85.0877 96.1291 80.1673C96.1291 75.2463 91.8404 71.2573 86.5499 71.2573C81.2595 71.2573 76.9707 75.2463 76.9707 80.1673C76.9707 85.0877 81.2595 89.0767 86.5499 89.0767Z" fill="#FEFEFE" fill-opacity="0.8"/>
<path fill-rule="evenodd" clip-rule="evenodd" d="M122.4 169.774C127.69 169.774 131.979 165.785 131.979 160.865C131.979 155.944 127.69 151.955 122.4 151.955C117.109 151.955 112.82 155.944 112.82 160.865C112.82 165.785 117.109 169.774 122.4 169.774Z" fill="#FEFEFE" fill-opacity="0.6"/>
<path fill-rule="evenodd" clip-rule="evenodd" d="M122.4 75.0761C127.69 75.0761 131.979 71.0872 131.979 66.1665C131.979 61.2458 127.69 57.2568 122.4 57.2568C117.109 57.2568 112.82 61.2458 112.82 66.1665C112.82 71.0872 117.109 75.0761 122.4 75.0761Z" fill="#FEFEFE"/>
<path fill-rule="evenodd" clip-rule="evenodd" d="M120.991 97.7052C123.916 101.868 125.85 108.264 130.028 112.939L112.83 119.915C111.868 118.094 116.344 114.316 117.431 113.194C117.076 112.345 116.189 112.516 115.453 112.783C111.828 113.722 108.107 113.016 104.668 111.798L121.729 107.479C122.043 107.811 124.261 112.407 125.396 111.637C123.306 110.447 120.526 100.859 115.981 100.759L90.806 103.908L85.9043 100.215C89.9899 98.7986 118.757 96.0203 120.991 97.7052H120.991Z" fill="white"/>
<path fill-rule="evenodd" clip-rule="evenodd" d="M131.885 114.101L141.715 120.627C140.435 121.857 133.972 129.587 133.972 129.587C124.725 126.991 115.566 127.814 114.063 127.704C113.398 126.849 112.755 122.636 112.851 122.116L131.885 114.101Z" fill="white"/>
<path fill-rule="evenodd" clip-rule="evenodd" d="M155.285 126.954C156.114 126.858 163.651 126.334 160.923 128.775C157.278 132.037 138.836 135.505 135.779 130.213L143.443 121.842C147.819 125.068 149.674 127.299 155.285 126.954Z" fill="white"/>
<path fill-rule="evenodd" clip-rule="evenodd" d="M120.07 104.786L121.397 106.913C118.842 107.643 108.25 110.009 103.383 111.309C101.531 110.562 99.5779 109.595 97.5254 108.408L120.07 104.786Z" fill="white"/>
<path fill-rule="evenodd" clip-rule="evenodd" d="M119.658 104.187C119.614 104.227 100.437 107.019 96.2847 107.671C94.8776 106.813 93.4251 105.856 91.9277 104.8L114.863 101.594C115.404 101.574 117.494 101.096 119.658 104.187Z" fill="white"/>
<path fill-rule="evenodd" clip-rule="evenodd" d="M0.353516 0H41.1124V37.91H0.353516V0Z" fill="#863685"/>
<path fill-rule="evenodd" clip-rule="evenodd" d="M81.4062 227.03H122.165V264.94H81.4062V227.03Z" fill="#863685"/>
<path fill-rule="evenodd" clip-rule="evenodd" d="M203.684 189.12H244.443V227.03H203.684V189.12Z" fill="#6D296E"/>
<path fill-rule="evenodd" clip-rule="evenodd" d="M203.684 75.3892H244.443V113.299H203.684V75.3892Z" fill="#6D296E"/>
<path fill-rule="evenodd" clip-rule="evenodd" d="M264.824 37.479H285.204V56.434H264.824V37.479Z" fill="#863685"/>
<path fill-rule="evenodd" clip-rule="evenodd" d="M0.353516 170.166H20.733V189.121H0.353516V170.166Z" fill="#6D296E"/>
</svg>
