<svg width="286" height="265" viewBox="0 0 286 265" fill="none" xmlns="http://www.w3.org/2000/svg">
<path fill-rule="evenodd" clip-rule="evenodd" d="M41.4121 37.9053H122.932V113.728H41.4121V37.9053Z" fill="#43AFB7"/>
<path fill-rule="evenodd" clip-rule="evenodd" d="M122.469 37.9053H203.989V113.728H122.469V37.9053Z" fill="#4EBCC3"/>
<path fill-rule="evenodd" clip-rule="evenodd" d="M41.4121 113.297H122.932V189.12H41.4121V113.297Z" fill="#4EBCC3"/>
<path fill-rule="evenodd" clip-rule="evenodd" d="M122.469 113.297H203.989V189.12H122.469V113.297Z" fill="#91D0D7"/>
<path fill-rule="evenodd" clip-rule="evenodd" d="M158.852 88.0583C164.126 88.0583 168.402 84.0819 168.402 79.1762C168.402 74.2712 164.126 70.2944 158.852 70.2944C153.578 70.2944 149.303 74.2712 149.303 79.1762C149.303 84.0819 153.578 88.0583 158.852 88.0583Z" fill="#FEFEFE" fill-opacity="0.2"/>
<path fill-rule="evenodd" clip-rule="evenodd" d="M86.9595 155.637C92.2335 155.637 96.5088 151.661 96.5088 146.756C96.5088 141.851 92.2335 137.874 86.9595 137.874C81.6855 137.874 77.4102 141.851 77.4102 146.756C77.4102 151.661 81.6855 155.637 86.9595 155.637Z" fill="#FEFEFE" fill-opacity="0.701961"/>
<path fill-rule="evenodd" clip-rule="evenodd" d="M173.448 122.393C178.722 122.393 182.997 118.417 182.997 113.512C182.997 108.606 178.722 104.63 173.448 104.63C168.174 104.63 163.898 108.606 163.898 113.512C163.898 118.417 168.174 122.393 173.448 122.393Z" fill="#FEFEFE" fill-opacity="0.4"/>
<path fill-rule="evenodd" clip-rule="evenodd" d="M71.9516 122.393C77.2255 122.393 81.5009 118.417 81.5009 113.512C81.5009 108.606 77.2255 104.63 71.9516 104.63C66.6776 104.63 62.4023 108.606 62.4023 113.512C62.4023 118.417 66.6776 122.393 71.9516 122.393Z" fill="#FEFEFE" fill-opacity="0.8"/>
<path fill-rule="evenodd" clip-rule="evenodd" d="M158.443 155.637C163.717 155.637 167.993 151.661 167.993 146.756C167.993 141.851 163.718 137.874 158.443 137.874C153.17 137.874 148.895 141.851 148.895 146.756C148.895 151.661 153.17 155.637 158.443 155.637Z" fill="#FEFEFE" fill-opacity="0.501961"/>
<path fill-rule="evenodd" clip-rule="evenodd" d="M86.9595 89.1501C92.2335 89.1501 96.5088 85.1737 96.5088 80.2683C96.5088 75.3628 92.2335 71.3862 86.9595 71.3862C81.6855 71.3862 77.4102 75.3628 77.4102 80.2683C77.4102 85.1737 81.6855 89.1501 86.9595 89.1501Z" fill="#FEFEFE" fill-opacity="0.8"/>
<path fill-rule="evenodd" clip-rule="evenodd" d="M122.698 169.596C127.972 169.596 132.247 165.618 132.247 160.714C132.247 155.808 127.972 151.832 122.698 151.832C117.424 151.832 113.148 155.808 113.148 160.714C113.148 165.618 117.424 169.596 122.698 169.596Z" fill="#FEFEFE" fill-opacity="0.6"/>
<path fill-rule="evenodd" clip-rule="evenodd" d="M122.698 75.1933C127.972 75.1933 132.247 71.2168 132.247 66.3115C132.247 61.4061 127.972 57.4297 122.698 57.4297C117.424 57.4297 113.148 61.4061 113.148 66.3115C113.148 71.2168 117.424 75.1933 122.698 75.1933Z" fill="#FEFEFE"/>
<path fill-rule="evenodd" clip-rule="evenodd" d="M115.814 133.196H129.768V136.481C129.768 138.288 128.179 139.767 126.236 139.767H119.346C117.403 139.767 115.814 138.288 115.814 136.481V133.196ZM143.046 132.305C142.338 132.964 141.179 132.964 140.471 132.305L137.415 129.463C136.706 128.804 136.706 127.726 137.415 127.067C138.123 126.409 139.282 126.409 139.99 127.067L143.046 129.91C143.755 130.569 143.755 131.647 143.046 132.305ZM102.354 132.305C103.062 132.964 104.221 132.964 104.929 132.305L107.986 129.463C108.694 128.804 108.694 127.726 107.986 127.067C107.277 126.409 106.119 126.409 105.411 127.067L102.354 129.91C101.646 130.569 101.646 131.647 102.354 132.305ZM143.18 113.53C143.18 112.599 143.999 111.836 145.001 111.836H149.324C150.325 111.836 151.145 112.599 151.145 113.53C151.145 114.462 150.325 115.224 149.324 115.224H145.001C143.999 115.224 143.18 114.462 143.18 113.53ZM94.2559 113.53C94.2559 112.599 95.0753 111.836 96.077 111.836H100.4C101.401 111.836 102.221 112.599 102.221 113.53C102.221 114.462 101.401 115.224 100.4 115.224H96.077C95.0753 115.224 94.2559 114.462 94.2559 113.53ZM143.046 94.7551C142.338 94.0962 141.179 94.0962 140.471 94.7551L137.415 97.5978C136.706 98.2566 136.706 99.3344 137.415 99.9931C138.123 100.652 139.282 100.652 139.99 99.9931L143.046 97.1503C143.755 96.4916 143.755 95.4137 143.046 94.7551ZM102.354 94.7551C103.062 94.0962 104.221 94.0962 104.929 94.7551L107.986 97.5978C108.694 98.2566 108.694 99.3344 107.986 99.9931C107.277 100.652 106.119 100.652 105.411 99.9931L102.354 97.1503C101.646 96.4916 101.646 95.4137 102.354 94.7551ZM122.7 87.2583C123.702 87.2583 124.521 88.0204 124.521 88.9521V92.9725C124.521 93.9042 123.702 94.6664 122.7 94.6664C121.699 94.6664 120.879 93.9042 120.879 92.9725V88.9521C120.879 88.0204 121.699 87.2583 122.7 87.2583ZM122.7 98.2114C113.782 98.2114 106.552 104.936 106.552 113.231C106.552 118.178 109.123 122.566 113.09 125.302C113.138 125.335 113.148 125.351 113.191 125.371C113.49 125.574 113.797 125.767 114.111 125.951C114.841 126.565 115.326 127.426 115.413 128.392C115.423 128.497 115.428 128.603 115.428 128.709C115.428 128.816 115.423 128.922 115.413 129.026V129.627H122.466H122.935H129.967V128.392H129.988C130.076 127.424 130.562 126.562 131.294 125.948C131.606 125.765 131.911 125.573 132.208 125.372L132.311 125.3C136.277 122.564 138.849 118.178 138.849 113.231C138.849 104.936 131.619 98.2115 122.7 98.2115V98.2114ZM122.7 106.772C121.77 106.772 121.015 106.07 121.015 105.205C121.015 104.339 121.77 103.637 122.7 103.637C125.548 103.637 128.127 104.712 129.994 106.448C131.86 108.184 133.015 110.583 133.015 113.231L132.987 113.914C132.921 114.776 132.117 115.426 131.19 115.365C130.263 115.305 129.565 114.556 129.63 113.694C129.642 113.525 129.646 113.401 129.645 113.231C129.645 111.448 128.867 109.832 127.611 108.664C126.355 107.495 124.618 106.772 122.7 106.772Z" fill="white"/>
<path fill-rule="evenodd" clip-rule="evenodd" d="M0.654297 0H41.4138V37.91H0.654297V0Z" fill="#43AFB7"/>
<path fill-rule="evenodd" clip-rule="evenodd" d="M81.709 227.03H122.468V264.94H81.709V227.03Z" fill="#4EBCC3"/>
<path fill-rule="evenodd" clip-rule="evenodd" d="M203.988 189.12H244.748V227.03H203.988V189.12Z" fill="#91D0D7"/>
<path fill-rule="evenodd" clip-rule="evenodd" d="M203.988 75.3887H244.748V113.299H203.988V75.3887Z" fill="#4EBCC3"/>
<path fill-rule="evenodd" clip-rule="evenodd" d="M265.125 37.479H285.505V56.434H265.125V37.479Z" fill="#4EBCC3"/>
<path fill-rule="evenodd" clip-rule="evenodd" d="M0.654297 170.166H21.034V189.121H0.654297V170.166Z" fill="#4EBCC3"/>
</svg>
