<svg width="286" height="265" viewBox="0 0 286 265" fill="none" xmlns="http://www.w3.org/2000/svg">
<path fill-rule="evenodd" clip-rule="evenodd" d="M41.0117 37.9082H122.531V113.73H41.0117V37.9082Z" fill="#60CC8F"/>
<path fill-rule="evenodd" clip-rule="evenodd" d="M122.066 37.9082H203.586V113.73H122.066V37.9082Z" fill="#6EDD9E"/>
<path fill-rule="evenodd" clip-rule="evenodd" d="M41.0117 113.298H122.531V189.12H41.0117V113.298Z" fill="#6EDD9E"/>
<path fill-rule="evenodd" clip-rule="evenodd" d="M122.066 113.298H203.586V189.12H122.066V113.298Z" fill="#7FEBAE"/>
<path fill-rule="evenodd" clip-rule="evenodd" d="M158.455 88.0587C163.729 88.0587 168.004 84.0819 168.004 79.176C168.004 74.2703 163.729 70.2935 158.455 70.2935C153.18 70.2935 148.904 74.2703 148.904 79.176C148.904 84.0819 153.18 88.0587 158.455 88.0587Z" fill="#FEFEFE" fill-opacity="0.2"/>
<path fill-rule="evenodd" clip-rule="evenodd" d="M86.5542 155.643C91.8286 155.643 96.1044 151.667 96.1044 146.761C96.1044 141.855 91.8286 137.878 86.5542 137.878C81.2796 137.878 77.0039 141.855 77.0039 146.761C77.0039 151.667 81.2796 155.643 86.5542 155.643Z" fill="#FEFEFE" fill-opacity="0.701961"/>
<path fill-rule="evenodd" clip-rule="evenodd" d="M173.05 122.396C178.325 122.396 182.601 118.419 182.601 113.513C182.601 108.607 178.325 104.63 173.05 104.63C167.776 104.63 163.5 108.607 163.5 113.513C163.5 118.419 167.776 122.396 173.05 122.396Z" fill="#FEFEFE" fill-opacity="0.4"/>
<path fill-rule="evenodd" clip-rule="evenodd" d="M71.5462 122.396C76.8207 122.396 81.0965 118.419 81.0965 113.513C81.0965 108.607 76.8207 104.63 71.5462 104.63C66.2718 104.63 61.9961 108.607 61.9961 113.513C61.9961 118.419 66.2718 122.396 71.5462 122.396Z" fill="#FEFEFE" fill-opacity="0.8"/>
<path fill-rule="evenodd" clip-rule="evenodd" d="M158.045 155.643C163.319 155.643 167.594 151.667 167.594 146.761C167.594 141.855 163.319 137.878 158.045 137.878C152.77 137.878 148.494 141.855 148.494 146.761C148.494 151.667 152.77 155.643 158.045 155.643Z" fill="#FEFEFE" fill-opacity="0.501961"/>
<path fill-rule="evenodd" clip-rule="evenodd" d="M86.5542 89.1504C91.8286 89.1504 96.1044 85.1736 96.1044 80.2677C96.1044 75.3617 91.8286 71.3848 86.5542 71.3848C81.2796 71.3848 77.0039 75.3617 77.0039 80.2677C77.0039 85.1736 81.2796 89.1504 86.5542 89.1504Z" fill="#FEFEFE" fill-opacity="0.8"/>
<path fill-rule="evenodd" clip-rule="evenodd" d="M122.296 169.602C127.571 169.602 131.847 165.626 131.847 160.72C131.847 155.814 127.571 151.837 122.296 151.837C117.022 151.837 112.746 155.814 112.746 160.72C112.746 165.626 117.022 169.602 122.296 169.602Z" fill="#FEFEFE" fill-opacity="0.6"/>
<path fill-rule="evenodd" clip-rule="evenodd" d="M122.296 75.1915C127.571 75.1915 131.847 71.2147 131.847 66.3088C131.847 61.4031 127.571 57.4263 122.296 57.4263C117.022 57.4263 112.746 61.4031 112.746 66.3088C112.746 71.2147 117.022 75.1915 122.296 75.1915Z" fill="#FEFEFE"/>
<path fill-rule="evenodd" clip-rule="evenodd" d="M122.258 124.999C121.689 125.386 121.094 125.736 120.48 126.05V141.733H124.036V126.05C123.422 125.736 122.828 125.386 122.258 124.999Z" fill="#FEFEFE"/>
<path fill-rule="evenodd" clip-rule="evenodd" d="M138.632 98.4636C138.095 95.0058 136.309 91.8261 133.532 89.4203C130.461 86.76 126.457 85.2949 122.258 85.2949C118.06 85.2949 114.056 86.76 110.985 89.4203C108.207 91.8261 106.422 95.0058 105.884 98.4636C99.9023 100.893 95.957 106.435 95.957 112.571C95.957 121.056 103.379 127.959 112.502 127.959C115.314 127.959 118.054 127.293 120.48 126.05V119.319L112.507 115.42L114.161 112.493L120.481 115.583V101.745H124.036V108.254L130.355 105.164L132.01 108.09L124.036 111.99V126.05C126.462 127.293 129.202 127.959 132.014 127.959C141.137 127.959 148.559 121.056 148.559 112.571C148.56 106.435 144.614 100.893 138.632 98.4636Z" fill="#FEFEFE"/>
<path fill-rule="evenodd" clip-rule="evenodd" d="M0.253906 0H41.0134V37.91H0.253906V0Z" fill="#60CC8F"/>
<path fill-rule="evenodd" clip-rule="evenodd" d="M81.3086 227.03H122.068V264.94H81.3086V227.03Z" fill="#7FEBAE"/>
<path fill-rule="evenodd" clip-rule="evenodd" d="M203.588 189.12H244.347V227.03H203.588V189.12Z" fill="#60CC8F"/>
<path fill-rule="evenodd" clip-rule="evenodd" d="M203.588 75.3887H244.347V113.299H203.588V75.3887Z" fill="#7FEBAE"/>
<path fill-rule="evenodd" clip-rule="evenodd" d="M264.725 37.479H285.104V56.434H264.725V37.479Z" fill="#6EDD9E"/>
<path fill-rule="evenodd" clip-rule="evenodd" d="M0.253906 170.166H20.6337V189.121H0.253906V170.166Z" fill="#7FEBAE"/>
</svg>
