<svg width="286" height="265" viewBox="0 0 286 265" fill="none" xmlns="http://www.w3.org/2000/svg">
<path fill-rule="evenodd" clip-rule="evenodd" d="M41.5625 61.1401H123.08V142.661H41.5625V61.1401Z" fill="#EF7D38"/>
<path fill-rule="evenodd" clip-rule="evenodd" d="M122.615 61.1401H204.133V142.661H122.615V61.1401Z" fill="#F1884B"/>
<path fill-rule="evenodd" clip-rule="evenodd" d="M41.5625 142.198H123.08V223.717H41.5625V142.198Z" fill="#F1884B"/>
<path fill-rule="evenodd" clip-rule="evenodd" d="M122.615 142.198H204.133V223.717H122.615V142.198Z" fill="#F5A26B"/>
<path fill-rule="evenodd" clip-rule="evenodd" d="M159.112 114.992C164.402 114.992 168.691 110.703 168.691 105.412C168.691 100.121 164.402 95.8315 159.112 95.8315C153.822 95.8315 149.533 100.121 149.533 105.412C149.533 110.703 153.822 114.992 159.112 114.992Z" fill="#FEFEFE" fill-opacity="0.2"/>
<path fill-rule="evenodd" clip-rule="evenodd" d="M86.9951 187.884C92.2854 187.884 96.5741 183.595 96.5741 178.304C96.5741 173.013 92.2854 168.724 86.9951 168.724C81.7047 168.724 77.416 173.013 77.416 178.304C77.416 183.595 81.7047 187.884 86.9951 187.884Z" fill="#FEFEFE" fill-opacity="0.701961"/>
<path fill-rule="evenodd" clip-rule="evenodd" d="M173.753 152.025C179.044 152.025 183.332 147.736 183.332 142.446C183.332 137.154 179.044 132.865 173.753 132.865C168.463 132.865 164.174 137.154 164.174 142.446C164.174 147.736 168.463 152.025 173.753 152.025Z" fill="#FEFEFE" fill-opacity="0.4"/>
<path fill-rule="evenodd" clip-rule="evenodd" d="M71.9423 152.025C77.2327 152.025 81.5214 147.736 81.5214 142.446C81.5214 137.154 77.2327 132.865 71.9423 132.865C66.6519 132.865 62.3633 137.154 62.3633 142.446C62.3633 147.736 66.6519 152.025 71.9423 152.025Z" fill="#FEFEFE" fill-opacity="0.8"/>
<path fill-rule="evenodd" clip-rule="evenodd" d="M158.702 187.884C163.993 187.884 168.282 183.595 168.282 178.304C168.282 173.013 163.993 168.724 158.702 168.724C153.412 168.724 149.123 173.013 149.123 178.304C149.123 183.595 153.412 187.884 158.702 187.884Z" fill="#FEFEFE" fill-opacity="0.501961"/>
<path fill-rule="evenodd" clip-rule="evenodd" d="M86.9951 116.17C92.2854 116.17 96.5741 111.88 96.5741 106.59C96.5741 101.298 92.2854 97.0093 86.9951 97.0093C81.7047 97.0093 77.416 101.298 77.416 106.59C77.416 111.88 81.7047 116.17 86.9951 116.17Z" fill="#FEFEFE" fill-opacity="0.8"/>
<path fill-rule="evenodd" clip-rule="evenodd" d="M122.847 202.939C128.137 202.939 132.426 198.65 132.426 193.36C132.426 188.068 128.137 183.779 122.847 183.779C117.557 183.779 113.268 188.068 113.268 193.36C113.268 198.65 117.557 202.939 122.847 202.939Z" fill="#FEFEFE" fill-opacity="0.6"/>
<path fill-rule="evenodd" clip-rule="evenodd" d="M122.847 101.115C128.137 101.115 132.426 96.8262 132.426 91.5351C132.426 86.2442 128.137 81.9551 122.847 81.9551C117.557 81.9551 113.268 86.2442 113.268 91.5351C113.268 96.8262 117.557 101.115 122.847 101.115Z" fill="#FEFEFE"/>
<path fill-rule="evenodd" clip-rule="evenodd" d="M136.102 125.75H139.113V132.376H136.102V125.75Z" fill="#FEFEFE"/>
<path fill-rule="evenodd" clip-rule="evenodd" d="M144.338 160.278V135.395H136.119V140.714H138.848V144.73H136.119V160.278H133.295V126.082L129.279 124.074V119.518H124.259V114.905H121.435V119.518H116.416V124.074L112.4 126.082V160.278H109.576V149.672H106.846V145.655H109.576V141.639H106.846V137.623H109.576V130.563H101.356V160.278H98.752V163.102H146.943V160.278H144.338ZM121.247 144.73H118.424V140.713H121.247V144.73ZM121.247 132.681V136.697H118.424V132.681H121.247V132.681ZM118.424 148.746H121.247V152.763H118.424V148.746ZM127.271 152.763H124.447V148.746H127.271V152.763ZM124.447 144.73V140.713H127.271V144.73H124.447ZM127.271 136.697H124.447V132.681H127.271V136.697Z" fill="#FEFEFE"/>
<path fill-rule="evenodd" clip-rule="evenodd" d="M122.617 20.3799H142.997V0H122.617V20.3799Z" fill="#F5A26B"/>
<path fill-rule="evenodd" clip-rule="evenodd" d="M81.8594 61.1402H122.619V20.3804H81.8594V61.1402Z" fill="#EF7D38"/>
<path fill-rule="evenodd" clip-rule="evenodd" d="M204.133 61.1397H224.513V40.7598H204.133V61.1397Z" fill="#F1884B"/>
<path fill-rule="evenodd" clip-rule="evenodd" d="M204.139 224.181H244.898V183.421H204.139V224.181Z" fill="#F1884B"/>
<path fill-rule="evenodd" clip-rule="evenodd" d="M265.275 264.94H285.655V244.56H265.275V264.94Z" fill="#F5A26B"/>
<path fill-rule="evenodd" clip-rule="evenodd" d="M0.804688 122.28H21.1844V101.9H0.804688V122.28Z" fill="#F5A26B"/>
<path fill-rule="evenodd" clip-rule="evenodd" d="M21.1836 244.097H41.5633V223.717H21.1836V244.097Z" fill="#F1884B"/>
<path fill-rule="evenodd" clip-rule="evenodd" d="M163.375 264.477H204.135V223.717H163.375V264.477Z" fill="#F1884B"/>
</svg>
