<svg width="286" height="265" viewBox="0 0 286 265" fill="none" xmlns="http://www.w3.org/2000/svg">
<path fill-rule="evenodd" clip-rule="evenodd" d="M82.0742 75.8203H163.592V151.642H82.0742V75.8203Z" fill="#1E2943"/>
<path fill-rule="evenodd" clip-rule="evenodd" d="M163.127 75.8203H244.645V151.642H163.127V75.8203Z" fill="#2D456E"/>
<path fill-rule="evenodd" clip-rule="evenodd" d="M82.0742 151.211H163.592V227.033H82.0742V151.211Z" fill="#1E2F4E"/>
<path fill-rule="evenodd" clip-rule="evenodd" d="M163.127 151.211H244.645V227.033H163.127V151.211Z" fill="#1E2943"/>
<path fill-rule="evenodd" clip-rule="evenodd" d="M199.515 126.088C204.79 126.088 209.065 122.111 209.065 117.206C209.065 112.3 204.79 108.323 199.515 108.323C194.241 108.323 189.965 112.3 189.965 117.206C189.965 122.111 194.241 126.088 199.515 126.088Z" fill="#FEFEFE" fill-opacity="0.2"/>
<path fill-rule="evenodd" clip-rule="evenodd" d="M127.617 193.673C132.891 193.673 137.167 189.697 137.167 184.791C137.167 179.885 132.891 175.908 127.617 175.908C122.342 175.908 118.066 179.885 118.066 184.791C118.066 189.697 122.342 193.673 127.617 193.673Z" fill="#FEFEFE" fill-opacity="0.701961"/>
<path fill-rule="evenodd" clip-rule="evenodd" d="M214.112 160.425C219.387 160.425 223.663 156.448 223.663 151.543C223.663 146.637 219.387 142.66 214.112 142.66C208.838 142.66 204.562 146.637 204.562 151.543C204.562 156.448 208.838 160.425 214.112 160.425Z" fill="#FEFEFE" fill-opacity="0.4"/>
<path fill-rule="evenodd" clip-rule="evenodd" d="M112.609 160.425C117.883 160.425 122.159 156.448 122.159 151.543C122.159 146.637 117.883 142.66 112.609 142.66C107.334 142.66 103.059 146.637 103.059 151.543C103.059 156.448 107.334 160.425 112.609 160.425Z" fill="#FEFEFE" fill-opacity="0.8"/>
<path fill-rule="evenodd" clip-rule="evenodd" d="M199.107 193.673C204.381 193.673 208.657 189.697 208.657 184.791C208.657 179.885 204.381 175.908 199.107 175.908C193.832 175.908 189.557 179.885 189.557 184.791C189.557 189.697 193.832 193.673 199.107 193.673Z" fill="#FEFEFE" fill-opacity="0.501961"/>
<path fill-rule="evenodd" clip-rule="evenodd" d="M127.617 127.179C132.891 127.179 137.167 123.202 137.167 118.297C137.167 113.391 132.891 109.414 127.617 109.414C122.342 109.414 118.066 113.391 118.066 118.297C118.066 123.202 122.342 127.179 127.617 127.179Z" fill="#FEFEFE" fill-opacity="0.8"/>
<path fill-rule="evenodd" clip-rule="evenodd" d="M163.361 207.632C168.635 207.632 172.911 203.655 172.911 198.75C172.911 193.844 168.635 189.867 163.361 189.867C158.086 189.867 153.811 193.844 153.811 198.75C153.811 203.655 158.086 207.632 163.361 207.632Z" fill="#FEFEFE" fill-opacity="0.6"/>
<path fill-rule="evenodd" clip-rule="evenodd" d="M163.361 113.221C168.635 113.221 172.911 109.244 172.911 104.338C172.911 99.432 168.635 95.4551 163.361 95.4551C158.086 95.4551 153.811 99.432 153.811 104.338C153.811 109.244 158.086 113.221 163.361 113.221Z" fill="#FEFEFE"/>
<path fill-rule="evenodd" clip-rule="evenodd" d="M184.979 151.544L149.139 170.79V132.297L184.979 151.544Z" fill="#FEFEFE"/>
<path fill-rule="evenodd" clip-rule="evenodd" d="M285.405 264.94H244.646V227.03H285.405V264.94Z" fill="#1E2943"/>
<path fill-rule="evenodd" clip-rule="evenodd" d="M204.351 37.91H163.592V0H204.351V37.91Z" fill="#1E2943"/>
<path fill-rule="evenodd" clip-rule="evenodd" d="M82.0752 75.8201H41.3164V37.9102H82.0752V75.8201Z" fill="#2D456E"/>
<path fill-rule="evenodd" clip-rule="evenodd" d="M82.0752 189.551H41.3164V151.641H82.0752V189.551Z" fill="#1E2943"/>
<path fill-rule="evenodd" clip-rule="evenodd" d="M20.9341 227.461H0.554688V208.506H20.9341V227.461Z" fill="#2D456E"/>
<path fill-rule="evenodd" clip-rule="evenodd" d="M285.405 94.7753H265.025V75.8203H285.405V94.7753Z" fill="#2D456E"/>
</svg>
