<svg width="286" height="265" viewBox="0 0 286 265" fill="none" xmlns="http://www.w3.org/2000/svg">
<path fill-rule="evenodd" clip-rule="evenodd" d="M82.3691 75.8184H163.888V151.64H82.3691V75.8184Z" fill="#F0DF46"/>
<path fill-rule="evenodd" clip-rule="evenodd" d="M163.424 75.8184H244.943V151.64H163.424V75.8184Z" fill="#F8E95F"/>
<path fill-rule="evenodd" clip-rule="evenodd" d="M82.3691 151.208H163.888V227.03H82.3691V151.208Z" fill="#F8E95F"/>
<path fill-rule="evenodd" clip-rule="evenodd" d="M163.424 151.208H244.943V227.03H163.424V151.208Z" fill="#F0DF46"/>
<path fill-rule="evenodd" clip-rule="evenodd" d="M199.812 125.97C205.086 125.97 209.362 121.993 209.362 117.087C209.362 112.181 205.086 108.205 199.812 108.205C194.537 108.205 190.262 112.181 190.262 117.087C190.262 121.993 194.537 125.97 199.812 125.97Z" fill="#FEFEFE" fill-opacity="0.2"/>
<path fill-rule="evenodd" clip-rule="evenodd" d="M127.912 193.553C133.186 193.553 137.462 189.576 137.462 184.67C137.462 179.764 133.186 175.788 127.912 175.788C122.637 175.788 118.361 179.764 118.361 184.67C118.361 189.576 122.637 193.553 127.912 193.553Z" fill="#FEFEFE" fill-opacity="0.701961"/>
<path fill-rule="evenodd" clip-rule="evenodd" d="M214.41 160.306C219.684 160.306 223.959 156.329 223.959 151.423C223.959 146.517 219.684 142.541 214.41 142.541C209.135 142.541 204.859 146.517 204.859 151.423C204.859 156.329 209.135 160.306 214.41 160.306Z" fill="#FEFEFE" fill-opacity="0.4"/>
<path fill-rule="evenodd" clip-rule="evenodd" d="M112.904 160.306C118.178 160.306 122.454 156.329 122.454 151.423C122.454 146.517 118.178 142.541 112.904 142.541C107.629 142.541 103.354 146.517 103.354 151.423C103.354 156.329 107.629 160.306 112.904 160.306Z" fill="#FEFEFE" fill-opacity="0.8"/>
<path fill-rule="evenodd" clip-rule="evenodd" d="M199.401 193.553C204.676 193.553 208.951 189.576 208.951 184.67C208.951 179.764 204.676 175.788 199.401 175.788C194.127 175.788 189.852 179.764 189.852 184.67C189.852 189.576 194.127 193.553 199.401 193.553Z" fill="#FEFEFE" fill-opacity="0.501961"/>
<path fill-rule="evenodd" clip-rule="evenodd" d="M127.912 127.06C133.186 127.06 137.462 123.083 137.462 118.178C137.462 113.272 133.186 109.295 127.912 109.295C122.637 109.295 118.361 113.272 118.361 118.178C118.361 123.083 122.637 127.06 127.912 127.06Z" fill="#FEFEFE" fill-opacity="0.8"/>
<path fill-rule="evenodd" clip-rule="evenodd" d="M163.656 207.512C168.93 207.512 173.206 203.535 173.206 198.63C173.206 193.724 168.93 189.747 163.656 189.747C158.381 189.747 154.105 193.724 154.105 198.63C154.105 203.535 158.381 207.512 163.656 207.512Z" fill="#FEFEFE" fill-opacity="0.6"/>
<path fill-rule="evenodd" clip-rule="evenodd" d="M163.656 113.102C168.93 113.102 173.206 109.125 173.206 104.219C173.206 99.3133 168.93 95.3364 163.656 95.3364C158.381 95.3364 154.105 99.3133 154.105 104.219C154.105 109.125 158.381 113.102 163.656 113.102Z" fill="#FEFEFE"/>
<path fill-rule="evenodd" clip-rule="evenodd" d="M185.854 130.774C184.055 129.101 181.13 129.129 179.368 130.836L169.727 140.181L146.198 132.938L141.259 137.532L160.871 148.764L150.947 158.382L144.583 157.41L140.119 161.562L149.475 164.61L152.752 173.313L157.216 169.16L156.172 163.241L166.512 154.011L178.588 172.252L183.527 167.658L175.741 145.774L185.787 136.806C187.623 135.168 187.653 132.447 185.854 130.774Z" fill="#FEFEFE"/>
<path fill-rule="evenodd" clip-rule="evenodd" d="M285.703 264.94H244.943V227.03H285.703V264.94Z" fill="#F8E95F"/>
<path fill-rule="evenodd" clip-rule="evenodd" d="M204.648 37.91H163.889V0H204.648V37.91Z" fill="#F0DF46"/>
<path fill-rule="evenodd" clip-rule="evenodd" d="M82.3707 75.8201H41.6113V37.9102H82.3707V75.8201Z" fill="#F8E95F"/>
<path fill-rule="evenodd" clip-rule="evenodd" d="M82.3707 189.551H41.6113V151.641H82.3707V189.551Z" fill="#F0DF46"/>
<path fill-rule="evenodd" clip-rule="evenodd" d="M21.2332 227.461H0.853516V208.506H21.2332V227.461Z" fill="#F8E95F"/>
<path fill-rule="evenodd" clip-rule="evenodd" d="M285.702 94.7753H265.322V75.8203H285.702V94.7753Z" fill="#F8E95F"/>
</svg>
