<svg width="526" height="300" viewBox="0 0 526 300" fill="none" xmlns="http://www.w3.org/2000/svg">
<path d="M49.3687 224.365H0.226562V300.001H49.3687V224.365Z" fill="#C4E1FF"/>
<path d="M24.8672 125.219H0V150.086H24.8672V125.219Z" fill="#4490C7"/>
<path d="M49.5937 125.219H24.7266V150.086H49.5937V125.219Z" fill="#52A0D8"/>
<path d="M24.8672 149.945H0V174.812H24.8672V149.945Z" fill="#52A0D8"/>
<path d="M49.5937 149.945H24.7266V174.812H49.5937V149.945Z" fill="#6AB4E8"/>
<path fill-rule="evenodd" clip-rule="evenodd" d="M36.2203 141.368C37.8868 141.368 39.2374 140.018 39.2374 138.351C39.2374 136.685 37.8868 135.334 36.2203 135.334C34.5538 135.334 33.2031 136.685 33.2031 138.351C33.2031 140.018 34.5538 141.368 36.2203 141.368Z" fill="#FEFEFE" fill-opacity="0.2"/>
<path fill-rule="evenodd" clip-rule="evenodd" d="M13.5054 164.325C15.1719 164.325 16.5226 162.975 16.5226 161.308C16.5226 159.642 15.1719 158.291 13.5054 158.291C11.8389 158.291 10.4883 159.642 10.4883 161.308C10.4883 162.975 11.8389 164.325 13.5054 164.325Z" fill="#FEFEFE" fill-opacity="0.701961"/>
<path fill-rule="evenodd" clip-rule="evenodd" d="M40.8336 153.032C42.5001 153.032 43.8507 151.682 43.8507 150.015C43.8507 148.349 42.5001 146.998 40.8336 146.998C39.1671 146.998 37.8164 148.349 37.8164 150.015C37.8164 151.682 39.1671 153.032 40.8336 153.032Z" fill="#FEFEFE" fill-opacity="0.4"/>
<path fill-rule="evenodd" clip-rule="evenodd" d="M8.76324 153.032C10.4297 153.032 11.7804 151.682 11.7804 150.015C11.7804 148.349 10.4297 146.998 8.76324 146.998C7.09674 146.998 5.74609 148.349 5.74609 150.015C5.74609 151.682 7.09674 153.032 8.76324 153.032Z" fill="#FEFEFE" fill-opacity="0.8"/>
<path fill-rule="evenodd" clip-rule="evenodd" d="M36.0914 164.325C37.7579 164.325 39.1085 162.975 39.1085 161.308C39.1085 159.642 37.7579 158.291 36.0914 158.291C34.4249 158.291 33.0742 159.642 33.0742 161.308C33.0742 162.975 34.4249 164.325 36.0914 164.325Z" fill="#FEFEFE" fill-opacity="0.501961"/>
<path fill-rule="evenodd" clip-rule="evenodd" d="M13.5054 141.739C15.1719 141.739 16.5226 140.389 16.5226 138.722C16.5226 137.056 15.1719 135.705 13.5054 135.705C11.8389 135.705 10.4883 137.056 10.4883 138.722C10.4883 140.389 11.8389 141.739 13.5054 141.739Z" fill="#FEFEFE" fill-opacity="0.8"/>
<path fill-rule="evenodd" clip-rule="evenodd" d="M24.7984 169.068C26.4649 169.068 27.8156 167.717 27.8156 166.05C27.8156 164.384 26.4649 163.033 24.7984 163.033C23.1319 163.033 21.7812 164.384 21.7812 166.05C21.7812 167.717 23.1319 169.068 24.7984 169.068Z" fill="#FEFEFE" fill-opacity="0.6"/>
<path fill-rule="evenodd" clip-rule="evenodd" d="M24.7984 136.997C26.4649 136.997 27.8156 135.647 27.8156 133.98C27.8156 132.314 26.4649 130.963 24.7984 130.963C23.1319 130.963 21.7812 132.314 21.7812 133.98C21.7812 135.647 23.1319 136.997 24.7984 136.997Z" fill="#FEFEFE"/>
<path fill-rule="evenodd" clip-rule="evenodd" d="M32.5626 147.58H31.7325V144.951C31.7123 144.635 31.4552 144.378 31.1394 144.358H25.4659V140.721H24.2796V144.358H18.6062C18.2903 144.378 18.0332 144.635 18.013 144.951V147.58H17.183C16.8469 147.58 16.5898 147.837 16.5898 148.173V152.087C16.5898 152.423 16.8469 152.68 17.183 152.68H18.013V156.337C18.0332 156.654 18.2903 156.91 18.6062 156.93H31.1385C31.4552 156.911 31.7123 156.654 31.7316 156.337V152.68H32.5616C32.8977 152.68 33.1548 152.423 33.1548 152.087V148.173C33.1548 147.837 32.8977 147.58 32.5616 147.58H32.5626ZM28.3628 152.956C28.3628 153.611 27.8321 154.143 27.1765 154.143H22.5011C21.8464 154.143 21.3148 153.612 21.3148 152.956V152.338H22.3992C22.3992 152.679 22.6765 152.956 23.018 152.956H27.2013V152.338H28.3628V152.956ZM21.0568 147.617C21.3102 147.512 21.5829 147.458 21.8575 147.458C22.132 147.458 22.4038 147.513 22.6572 147.617C22.9106 147.723 23.1411 147.876 23.3357 148.071C23.5304 148.265 23.6837 148.495 23.7893 148.749C23.894 149.003 23.9482 149.275 23.9482 149.549H22.8638C22.8638 149.417 22.8381 149.286 22.7867 149.163C22.7362 149.041 22.6618 148.93 22.5681 148.837C22.4745 148.743 22.3634 148.669 22.2413 148.618C22.1191 148.568 21.9888 148.542 21.8556 148.542C21.7234 148.542 21.5921 148.568 21.47 148.618C21.3479 148.669 21.2368 148.743 21.1431 148.837C21.0495 148.93 20.9751 149.041 20.9246 149.163C20.8741 149.286 20.8475 149.417 20.8475 149.549H19.7631C19.7631 149.275 19.8173 149.003 19.9219 148.749C20.0275 148.496 20.1809 148.265 20.3755 148.071C20.5702 147.876 20.7997 147.723 21.0541 147.617H21.0568ZM27.743 147.458C27.4685 147.458 27.1967 147.513 26.9424 147.617C26.6889 147.723 26.4585 147.876 26.2638 148.071C26.0701 148.265 25.9158 148.495 25.8102 148.749C25.7047 149.003 25.6514 149.275 25.6514 149.549H26.7358C26.7358 149.417 26.7615 149.286 26.812 149.163C26.8625 149.041 26.9369 148.93 27.0305 148.837C27.1242 148.743 27.2353 148.669 27.3574 148.618C27.4795 148.568 27.6108 148.542 27.743 148.542C27.8752 148.542 28.0065 148.568 28.1287 148.618C28.2508 148.669 28.3619 148.743 28.4555 148.837C28.5492 148.93 28.6236 149.041 28.6741 149.163C28.7246 149.286 28.7503 149.417 28.7503 149.549H29.8346C29.8346 149.275 29.7805 149.003 29.6758 148.749C29.5702 148.496 29.4169 148.265 29.2222 148.071C29.0276 147.876 28.7971 147.723 28.5437 147.617C28.2903 147.512 28.0176 147.458 27.7439 147.458H27.743Z" fill="#FEFEFE"/>
<path d="M24.8662 75.627H0V100.494H24.8662V75.627Z" fill="#43AFB7"/>
<path d="M49.5928 75.627H24.7266V100.494H49.5928V75.627Z" fill="#4EBCC3"/>
<path d="M24.8662 100.354H0V125.221H24.8662V100.354Z" fill="#4EBCC3"/>
<path d="M49.5928 100.354H24.7266V125.221H49.5928V100.354Z" fill="#91D0D7"/>
<path fill-rule="evenodd" clip-rule="evenodd" d="M35.8236 92.0759C37.4322 92.0759 38.737 90.7721 38.737 89.1625C38.737 87.5538 37.4322 86.25 35.8236 86.25C34.2149 86.25 32.9102 87.5538 32.9102 89.1625C32.9102 90.7711 34.214 92.0759 35.8236 92.0759Z" fill="#FEFEFE" fill-opacity="0.2"/>
<path fill-rule="evenodd" clip-rule="evenodd" d="M13.8939 114.24C15.5025 114.24 16.8063 112.936 16.8063 111.327C16.8063 109.719 15.5025 108.414 13.8939 108.414C12.2852 108.414 10.9805 109.718 10.9805 111.327C10.9805 112.936 12.2843 114.24 13.8939 114.24Z" fill="#FEFEFE" fill-opacity="0.701961"/>
<path fill-rule="evenodd" clip-rule="evenodd" d="M40.2767 103.338C41.8853 103.338 43.1892 102.034 43.1892 100.424C43.1892 98.8155 41.8853 97.5117 40.2767 97.5117C38.668 97.5117 37.3633 98.8155 37.3633 100.424C37.3633 102.033 38.6671 103.338 40.2767 103.338Z" fill="#FEFEFE" fill-opacity="0.4"/>
<path fill-rule="evenodd" clip-rule="evenodd" d="M9.31574 103.338C10.9244 103.338 12.2282 102.034 12.2282 100.424C12.2282 98.8155 10.9244 97.5117 9.31574 97.5117C7.70709 97.5117 6.40234 98.8155 6.40234 100.424C6.40234 102.033 7.70617 103.338 9.31574 103.338Z" fill="#FEFEFE" fill-opacity="0.8"/>
<path fill-rule="evenodd" clip-rule="evenodd" d="M35.6976 114.24C37.3063 114.24 38.611 112.936 38.611 111.327C38.611 109.719 37.3072 108.414 35.6976 108.414C34.089 108.414 32.7852 109.718 32.7852 111.327C32.7852 112.936 34.089 114.24 35.6976 114.24Z" fill="#FEFEFE" fill-opacity="0.501961"/>
<path fill-rule="evenodd" clip-rule="evenodd" d="M13.8939 92.4333C15.5025 92.4333 16.8063 91.1295 16.8063 89.5208C16.8063 87.9122 15.5025 86.6074 13.8939 86.6074C12.2852 86.6074 10.9805 87.9112 10.9805 89.5208C10.9805 91.1295 12.2843 92.4333 13.8939 92.4333Z" fill="#FEFEFE" fill-opacity="0.8"/>
<path fill-rule="evenodd" clip-rule="evenodd" d="M24.7953 118.817C26.4039 118.817 27.7087 117.512 27.7087 115.904C27.7087 114.295 26.4049 112.99 24.7953 112.99C23.1866 112.99 21.8828 114.294 21.8828 115.904C21.8828 117.512 23.1866 118.817 24.7953 118.817Z" fill="#FEFEFE" fill-opacity="0.6"/>
<path fill-rule="evenodd" clip-rule="evenodd" d="M24.7953 87.8571C26.4039 87.8571 27.7087 86.5533 27.7087 84.9446C27.7087 83.336 26.4049 82.0312 24.7953 82.0312C23.1866 82.0312 21.8828 83.3351 21.8828 84.9446C21.8828 86.5533 23.1866 87.8571 24.7953 87.8571Z" fill="#FEFEFE"/>
<path fill-rule="evenodd" clip-rule="evenodd" d="M22.6923 106.879H26.949V107.957C26.949 108.549 26.4642 109.034 25.8711 109.034H23.7694C23.1762 109.034 22.6914 108.549 22.6914 107.957V106.879H22.6923Z" fill="#FEFEFE"/>
<path fill-rule="evenodd" clip-rule="evenodd" d="M24.7932 95.4052C22.0727 95.4052 19.8672 97.6107 19.8672 100.331C19.8672 101.954 20.6513 103.392 21.8615 104.29C21.8762 104.301 21.8789 104.306 21.8927 104.313C21.9836 104.38 22.0773 104.443 22.1727 104.503C22.3959 104.704 22.5437 104.986 22.5703 105.303C22.5731 105.337 22.5749 105.372 22.5749 105.407C22.5749 105.442 22.5731 105.477 22.5703 105.511V105.707H24.7216H24.8649H27.0097V105.302H27.0162C27.0428 104.985 27.1915 104.702 27.4147 104.501C27.5101 104.441 27.6029 104.378 27.6938 104.312L27.725 104.289C28.9352 103.392 29.7193 101.953 29.7193 100.33C29.7193 97.6098 27.5138 95.4043 24.7932 95.4043V95.4052ZM24.7932 98.213C24.5095 98.213 24.2791 97.9826 24.2791 97.6988C24.2791 97.4151 24.5095 97.1846 24.7932 97.1846C25.6618 97.1846 26.4487 97.5372 27.018 98.1065C27.5873 98.6758 27.9399 99.4627 27.9399 100.331L27.9307 100.555C27.9105 100.838 27.6653 101.051 27.3825 101.031C27.0997 101.011 26.8867 100.766 26.9069 100.483C26.9106 100.428 26.9115 100.386 26.9115 100.331C26.9115 99.7464 26.6746 99.2166 26.2908 98.8337C25.9079 98.4508 25.3781 98.213 24.7932 98.213V98.213Z" fill="#FEFEFE"/>
<path fill-rule="evenodd" clip-rule="evenodd" d="M24.7938 91.8125C25.0995 91.8125 25.3493 92.0622 25.3493 92.368V93.6865C25.3493 93.9923 25.0995 94.242 24.7938 94.242C24.488 94.242 24.2383 93.9923 24.2383 93.6865V92.368C24.2383 92.0622 24.488 91.8125 24.7938 91.8125Z" fill="#FEFEFE"/>
<path fill-rule="evenodd" clip-rule="evenodd" d="M18.5876 94.2712C18.8034 94.0554 19.1569 94.0554 19.3736 94.2712L20.3055 95.2032C20.5213 95.4189 20.5213 95.7724 20.3055 95.9891C20.0898 96.2049 19.7363 96.2049 19.5196 95.9891L18.5876 95.0563C18.3718 94.8405 18.3718 94.487 18.5876 94.2703V94.2712Z" fill="#FEFEFE"/>
<path fill-rule="evenodd" clip-rule="evenodd" d="M31.0008 94.2712C30.7851 94.0554 30.4316 94.0554 30.2149 94.2712L29.2829 95.2032C29.0672 95.4189 29.0672 95.7724 29.2829 95.9891C29.4987 96.2049 29.8522 96.2049 30.0689 95.9891L31.0018 95.0563C31.2175 94.8405 31.2175 94.487 31.0018 94.2703L31.0008 94.2712Z" fill="#FEFEFE"/>
<path fill-rule="evenodd" clip-rule="evenodd" d="M16.1172 100.429C16.1172 100.123 16.3669 99.873 16.6727 99.873H17.9912C18.297 99.873 18.5467 100.123 18.5467 100.429C18.5467 100.734 18.297 100.984 17.9912 100.984H16.6727C16.3669 100.984 16.1172 100.734 16.1172 100.429Z" fill="#FEFEFE"/>
<path fill-rule="evenodd" clip-rule="evenodd" d="M31.0391 100.429C31.0391 100.123 31.2888 99.873 31.5946 99.873H32.9131C33.2188 99.873 33.4686 100.123 33.4686 100.429C33.4686 100.734 33.2188 100.984 32.9131 100.984H31.5946C31.2888 100.984 31.0391 100.734 31.0391 100.429Z" fill="#FEFEFE"/>
<path fill-rule="evenodd" clip-rule="evenodd" d="M18.5876 106.587C18.8034 106.803 19.1569 106.803 19.3736 106.587L20.3055 105.655C20.5213 105.439 20.5213 105.086 20.3055 104.869C20.0898 104.653 19.7363 104.653 19.5196 104.869L18.5876 105.801C18.3718 106.017 18.3718 106.37 18.5876 106.587Z" fill="#FEFEFE"/>
<path fill-rule="evenodd" clip-rule="evenodd" d="M31.0008 106.587C30.7851 106.803 30.4316 106.803 30.2149 106.587L29.2829 105.655C29.0672 105.439 29.0672 105.086 29.2829 104.869C29.4987 104.653 29.8522 104.653 30.0689 104.869L31.0018 105.801C31.2175 106.017 31.2175 106.37 31.0018 106.587H31.0008Z" fill="#FEFEFE"/>
<path d="M74.8663 26H50V50.8672H74.8663V26Z" fill="#EF7D38"/>
<path d="M99.5928 26H74.7266V50.8672H99.5928V26Z" fill="#F1884B"/>
<path d="M74.8663 50.7266H50V75.5937H74.8663V50.7266Z" fill="#F1884B"/>
<path d="M99.5928 50.7266H74.7266V75.5937H99.5928V50.7266Z" fill="#F5A26B"/>
<path fill-rule="evenodd" clip-rule="evenodd" d="M85.8592 42.4272C87.4733 42.4272 88.7808 41.1188 88.7808 39.5046C88.7808 37.8904 87.4724 36.582 85.8592 36.582C84.2459 36.582 82.9375 37.8904 82.9375 39.5046C82.9375 41.1188 84.2459 42.4272 85.8592 42.4272Z" fill="#FEFEFE" fill-opacity="0.2"/>
<path fill-rule="evenodd" clip-rule="evenodd" d="M63.8631 64.6626C65.4772 64.6626 66.7847 63.3542 66.7847 61.7409C66.7847 60.1268 65.4763 58.8184 63.8631 58.8184C62.2489 58.8184 60.9414 60.1268 60.9414 61.7409C60.9414 63.3551 62.2498 64.6626 63.8631 64.6626Z" fill="#FEFEFE" fill-opacity="0.701961"/>
<path fill-rule="evenodd" clip-rule="evenodd" d="M90.3279 53.7241C91.9421 53.7241 93.2496 52.4157 93.2496 50.8015C93.2496 49.1873 91.9412 47.8789 90.3279 47.8789C88.7147 47.8789 87.4062 49.1873 87.4062 50.8015C87.4062 52.4157 88.7147 53.7241 90.3279 53.7241Z" fill="#FEFEFE" fill-opacity="0.4"/>
<path fill-rule="evenodd" clip-rule="evenodd" d="M59.2693 53.7241C60.8835 53.7241 62.191 52.4157 62.191 50.8015C62.191 49.1873 60.8826 47.8789 59.2693 47.8789C57.6552 47.8789 56.3477 49.1873 56.3477 50.8015C56.3477 52.4157 57.6561 53.7241 59.2693 53.7241Z" fill="#FEFEFE" fill-opacity="0.8"/>
<path fill-rule="evenodd" clip-rule="evenodd" d="M85.7342 64.6626C87.3483 64.6626 88.6558 63.3542 88.6558 61.7409C88.6558 60.1268 87.3474 58.8184 85.7342 58.8184C84.12 58.8184 82.8125 60.1268 82.8125 61.7409C82.8125 63.3551 84.1209 64.6626 85.7342 64.6626Z" fill="#FEFEFE" fill-opacity="0.501961"/>
<path fill-rule="evenodd" clip-rule="evenodd" d="M63.8631 42.7876C65.4772 42.7876 66.7847 41.4792 66.7847 39.8659C66.7847 38.2518 65.4763 36.9434 63.8631 36.9434C62.2489 36.9434 60.9414 38.2518 60.9414 39.8659C60.9414 41.4801 62.2498 42.7876 63.8631 42.7876Z" fill="#FEFEFE" fill-opacity="0.8"/>
<path fill-rule="evenodd" clip-rule="evenodd" d="M74.7967 69.2544C76.4108 69.2544 77.7183 67.946 77.7183 66.3327C77.7183 64.7186 76.4099 63.4102 74.7967 63.4102C73.1825 63.4102 71.875 64.7186 71.875 66.3327C71.875 67.9469 73.1834 69.2544 74.7967 69.2544Z" fill="#FEFEFE" fill-opacity="0.6"/>
<path fill-rule="evenodd" clip-rule="evenodd" d="M74.7967 38.1948C76.4108 38.1948 77.7183 36.8864 77.7183 35.2722C77.7183 33.658 76.4099 32.3496 74.7967 32.3496C73.1825 32.3496 71.875 33.658 71.875 35.2722C71.875 36.8864 73.1834 38.1948 74.7967 38.1948Z" fill="#FEFEFE"/>
<path fill-rule="evenodd" clip-rule="evenodd" d="M78.8398 45.709H79.7589V47.7299H78.8398V45.709Z" fill="#FEFEFE"/>
<path fill-rule="evenodd" clip-rule="evenodd" d="M81.3551 56.2421V48.6524H78.8476V50.2748H79.6803V51.4997H78.8476V56.2421H77.9863V45.8115L76.7614 45.1991V43.809H75.2299V42.4023H74.3686V43.809H72.8371V45.1982L71.6123 45.8106V56.2412H70.751V53.0064H69.9182V51.7816H70.751V50.5567H69.9182V49.3319H70.751V47.1778H68.2434V56.2421H67.4492V57.1034H82.1493V56.2421H81.3551V56.2421ZM74.3108 51.4997H73.4495V50.2748H74.3108V51.4997ZM74.3108 47.8242V49.0491H73.4495V47.8242H74.3108ZM73.4495 52.7246H74.3108V53.9494H73.4495V52.7246ZM76.1481 53.9494H75.2868V52.7246H76.1481V53.9494ZM75.2868 51.4988V50.2739H76.1481V51.4988H75.2868ZM76.1481 49.0491H75.2868V47.8242H76.1481V49.0491Z" fill="#FEFEFE"/>
<path d="M74.46 174.811H49.5938V199.678H74.46V174.811Z" fill="#9B74B1"/>
<path d="M99.1866 174.811H74.3203V199.678H99.1866V174.811Z" fill="#A584BB"/>
<path d="M74.46 199.537H49.5938V224.404H74.46V199.537Z" fill="#A584BB"/>
<path d="M99.1866 199.537H74.3203V224.404H99.1866V199.537Z" fill="#BD9DC9"/>
<path fill-rule="evenodd" clip-rule="evenodd" d="M85.4212 191.258C87.0299 191.258 88.3346 189.955 88.3346 188.345C88.3346 186.736 87.0308 185.432 85.4212 185.432C83.8125 185.432 82.5078 186.735 82.5078 188.345C82.5078 189.954 83.8116 191.258 85.4212 191.258Z" fill="#FEFEFE" fill-opacity="0.2"/>
<path fill-rule="evenodd" clip-rule="evenodd" d="M63.4876 213.424C65.0963 213.424 66.401 212.12 66.401 210.511C66.401 208.902 65.0972 207.598 63.4876 207.598C61.879 207.598 60.5742 208.901 60.5742 210.511C60.5742 212.12 61.878 213.424 63.4876 213.424Z" fill="#FEFEFE" fill-opacity="0.701961"/>
<path fill-rule="evenodd" clip-rule="evenodd" d="M89.8743 202.52C91.483 202.52 92.7877 201.216 92.7877 199.607C92.7877 197.998 91.4839 196.693 89.8743 196.693C88.2657 196.693 86.9609 197.997 86.9609 199.607C86.9609 201.215 88.2657 202.52 89.8743 202.52Z" fill="#FEFEFE" fill-opacity="0.4"/>
<path fill-rule="evenodd" clip-rule="evenodd" d="M58.9095 202.52C60.5181 202.52 61.8229 201.216 61.8229 199.607C61.8229 197.998 60.5191 196.693 58.9095 196.693C57.3008 196.693 55.9961 197.997 55.9961 199.607C55.9961 201.215 57.3008 202.52 58.9095 202.52Z" fill="#FEFEFE" fill-opacity="0.8"/>
<path fill-rule="evenodd" clip-rule="evenodd" d="M85.2962 213.424C86.9049 213.424 88.2096 212.12 88.2096 210.511C88.2096 208.902 86.9058 207.598 85.2962 207.598C83.6875 207.598 82.3828 208.901 82.3828 210.511C82.3828 212.12 83.6875 213.424 85.2962 213.424Z" fill="#FEFEFE" fill-opacity="0.501961"/>
<path fill-rule="evenodd" clip-rule="evenodd" d="M63.4876 191.616C65.0963 191.616 66.401 190.311 66.401 188.702C66.401 187.094 65.0972 185.789 63.4876 185.789C61.879 185.789 60.5742 187.094 60.5742 188.702C60.5742 190.311 61.878 191.616 63.4876 191.616Z" fill="#FEFEFE" fill-opacity="0.8"/>
<path fill-rule="evenodd" clip-rule="evenodd" d="M74.39 218.001C75.9986 218.001 77.3034 216.697 77.3034 215.087C77.3034 213.479 75.9995 212.174 74.39 212.174C72.7813 212.174 71.4766 213.478 71.4766 215.087C71.4766 216.696 72.7804 218.001 74.39 218.001Z" fill="#FEFEFE" fill-opacity="0.6"/>
<path fill-rule="evenodd" clip-rule="evenodd" d="M74.39 187.038C75.9986 187.038 77.3034 185.734 77.3034 184.124C77.3034 182.516 75.9995 181.211 74.39 181.211C72.7813 181.211 71.4766 182.515 71.4766 184.124C71.4766 185.733 72.7804 187.038 74.39 187.038Z" fill="#FEFEFE"/>
<path fill-rule="evenodd" clip-rule="evenodd" d="M82.1432 200.39H81.5344V199.781C81.5344 199.509 81.314 199.289 81.0423 199.289C80.7705 199.289 80.5501 199.509 80.5501 199.781V200.39H79.9414C79.6696 200.39 79.4492 200.61 79.4492 200.882C79.4492 201.154 79.6696 201.374 79.9414 201.374H80.5501V201.983C80.5501 202.255 80.7705 202.475 81.0423 202.475C81.314 202.475 81.5344 202.255 81.5344 201.983V201.374H82.1432C82.4149 201.374 82.6353 201.154 82.6353 200.882C82.6353 200.61 82.4149 200.39 82.1432 200.39Z" fill="#FEFEFE"/>
<path fill-rule="evenodd" clip-rule="evenodd" d="M67.2148 197.325H67.8236V197.934C67.8236 198.206 68.0439 198.426 68.3157 198.426C68.5875 198.426 68.8078 198.206 68.8078 197.934V197.325H69.4166C69.6884 197.325 69.9087 197.105 69.9087 196.833C69.9087 196.562 69.6884 196.341 69.4166 196.341H68.8078V195.732C68.8078 195.461 68.5875 195.24 68.3157 195.24C68.0439 195.24 67.8236 195.461 67.8236 195.732V196.341H67.2148C66.943 196.341 66.7227 196.562 66.7227 196.833C66.7227 197.105 66.943 197.325 67.2148 197.325Z" fill="#FEFEFE"/>
<path fill-rule="evenodd" clip-rule="evenodd" d="M73.141 196.762C73.3981 196.762 73.6451 196.536 73.6331 196.27C73.6212 196.003 73.4174 195.777 73.141 195.777C72.8839 195.777 72.6369 196.003 72.6489 196.27C72.6608 196.536 72.8646 196.762 73.141 196.762Z" fill="#FEFEFE"/>
<path fill-rule="evenodd" clip-rule="evenodd" d="M78.2191 202.695C77.962 202.695 77.715 202.921 77.727 203.187C77.7389 203.454 77.9437 203.68 78.2191 203.68C78.4762 203.68 78.7232 203.454 78.7113 203.187C78.6993 202.921 78.4955 202.695 78.2191 202.695Z" fill="#FEFEFE"/>
<path fill-rule="evenodd" clip-rule="evenodd" d="M83.0199 204.67C82.7628 204.67 82.5167 204.896 82.5277 205.162C82.5396 205.428 82.7435 205.654 83.0199 205.654C83.2769 205.654 83.5239 205.428 83.512 205.162C83.5001 204.896 83.2962 204.67 83.0199 204.67Z" fill="#FEFEFE"/>
<path fill-rule="evenodd" clip-rule="evenodd" d="M83.0199 197.75C83.2769 197.75 83.5239 197.524 83.512 197.258C83.5001 196.992 83.2962 196.766 83.0199 196.766C82.7628 196.766 82.5167 196.992 82.5277 197.258C82.5396 197.524 82.7435 197.75 83.0199 197.75Z" fill="#FEFEFE"/>
<path fill-rule="evenodd" clip-rule="evenodd" d="M68.2035 192.846C68.4606 192.846 68.7076 192.62 68.6956 192.353C68.6837 192.087 68.4799 191.861 68.2035 191.861C67.9464 191.861 67.6994 192.087 67.7114 192.353C67.7233 192.62 67.9271 192.846 68.2035 192.846Z" fill="#FEFEFE"/>
<path fill-rule="evenodd" clip-rule="evenodd" d="M75.1151 193.789C75.6164 193.789 76.0232 193.382 76.0232 192.881C76.0232 192.379 75.6164 191.973 75.1151 191.973C74.6138 191.973 74.207 192.379 74.207 192.881C74.207 193.382 74.6138 193.789 75.1151 193.789Z" fill="#FEFEFE"/>
<path fill-rule="evenodd" clip-rule="evenodd" d="M68.0796 206.586C67.8409 206.347 67.7068 206.029 67.7031 205.69C67.7031 205.686 67.7031 205.68 67.7031 205.676C67.7031 205.343 67.8298 205.027 68.0603 204.786L74.9246 197.607C75.1202 198.376 75.6133 199.032 76.335 199.461C76.5544 199.592 76.7876 199.696 77.0273 199.773L69.8811 206.607C69.6405 206.837 69.3246 206.964 68.9913 206.964C68.6479 206.964 68.3238 206.83 68.0805 206.586H68.0796Z" fill="#FEFEFE"/>
<path fill-rule="evenodd" clip-rule="evenodd" d="M75.7254 196.942C75.7236 196.906 75.7227 196.869 75.7227 196.834C75.7227 196.228 75.9329 195.627 76.2855 195.137C76.7106 194.546 77.3212 194.31 77.8776 193.877C78.5755 193.333 78.9161 192.496 79.1484 191.666C80.4265 192.15 80.9499 193.946 80.9783 195.125C80.9793 195.167 80.9802 195.209 80.9802 195.252C80.9802 196.587 80.4844 198.158 79.1723 198.8C77.7316 199.506 75.797 198.636 75.7254 196.942V196.942Z" fill="#FEFEFE"/>
<path d="M24.8662 224.402H0V249.27H24.8662V224.402Z" fill="#185494"/>
<path d="M49.5928 224.402H24.7266V249.27H49.5928V224.402Z" fill="#1F62AB"/>
<path d="M24.8662 249.129H0V273.996H24.8662V249.129Z" fill="#1F62AB"/>
<path d="M49.5928 249.129H24.7266V273.996H49.5928V249.129Z" fill="#2C73BF"/>
<path fill-rule="evenodd" clip-rule="evenodd" d="M35.8275 240.85C37.4361 240.85 38.7409 239.545 38.7409 237.937C38.7409 236.328 37.4361 235.023 35.8275 235.023C34.2188 235.023 32.9141 236.327 32.9141 237.937C32.9141 239.545 34.2179 240.85 35.8275 240.85Z" fill="#FEFEFE" fill-opacity="0.2"/>
<path fill-rule="evenodd" clip-rule="evenodd" d="M13.8939 263.016C15.5025 263.016 16.8073 261.712 16.8073 260.103C16.8073 258.494 15.5034 257.189 13.8939 257.189C12.2852 257.189 10.9805 258.493 10.9805 260.103C10.9805 261.712 12.2843 263.016 13.8939 263.016Z" fill="#FEFEFE" fill-opacity="0.701961"/>
<path fill-rule="evenodd" clip-rule="evenodd" d="M40.2806 252.112C41.8892 252.112 43.194 250.808 43.194 249.199C43.194 247.59 41.8902 246.285 40.2806 246.285C38.6719 246.285 37.3672 247.589 37.3672 249.199C37.3672 250.807 38.6719 252.112 40.2806 252.112Z" fill="#FEFEFE" fill-opacity="0.4"/>
<path fill-rule="evenodd" clip-rule="evenodd" d="M9.31574 252.112C10.9244 252.112 12.2291 250.808 12.2291 249.199C12.2291 247.59 10.9253 246.285 9.31574 246.285C7.70708 246.285 6.40234 247.589 6.40234 249.199C6.40234 250.807 7.70616 252.112 9.31574 252.112V252.112Z" fill="#FEFEFE" fill-opacity="0.8"/>
<path fill-rule="evenodd" clip-rule="evenodd" d="M35.7025 263.016C37.3111 263.016 38.6159 261.712 38.6159 260.103C38.6159 258.494 37.312 257.189 35.7025 257.189C34.0938 257.189 32.7891 258.493 32.7891 260.103C32.7891 261.712 34.0929 263.016 35.7025 263.016Z" fill="#FEFEFE" fill-opacity="0.501961"/>
<path fill-rule="evenodd" clip-rule="evenodd" d="M13.8939 241.208C15.5025 241.208 16.8073 239.904 16.8073 238.294C16.8073 236.686 15.5034 235.381 13.8939 235.381C12.2852 235.381 10.9805 236.685 10.9805 238.294C10.9805 239.903 12.2843 241.208 13.8939 241.208Z" fill="#FEFEFE" fill-opacity="0.8"/>
<path fill-rule="evenodd" clip-rule="evenodd" d="M24.7962 267.592C26.4049 267.592 27.7096 266.288 27.7096 264.679C27.7096 263.07 26.4049 261.766 24.7962 261.766C23.1875 261.766 21.8828 263.069 21.8828 264.679C21.8828 266.288 23.1866 267.592 24.7962 267.592Z" fill="#FEFEFE" fill-opacity="0.6"/>
<path fill-rule="evenodd" clip-rule="evenodd" d="M24.7962 236.63C26.4049 236.63 27.7096 235.326 27.7096 233.716C27.7096 232.107 26.4049 230.803 24.7962 230.803C23.1875 230.803 21.8828 232.107 21.8828 233.716C21.8828 235.325 23.1866 236.63 24.7962 236.63Z" fill="#FEFEFE"/>
<path fill-rule="evenodd" clip-rule="evenodd" d="M22.894 252.93C21.5433 248.496 24.3971 246.876 24.3971 246.876C24.1978 249.243 25.5466 251.086 25.5466 251.086C26.0424 250.936 26.99 250.239 26.99 250.239C26.99 251.086 26.4905 252.929 26.4905 252.929C26.4905 252.929 28.2397 251.581 28.7906 249.34C29.3406 247.101 27.7429 244.852 27.7429 244.852C27.8393 246.437 27.3013 247.997 26.2472 249.188C26.2995 249.127 26.3445 249.06 26.3776 248.987C26.5667 248.609 26.8716 247.628 26.6934 245.356C26.4428 242.167 23.5441 240.822 23.5441 240.822C23.7222 242.211 23.3907 242.836 22.546 244.427C22.209 245.062 21.7903 245.85 21.2899 246.902C19.5344 250.589 22.8949 252.93 22.8949 252.93H22.894ZM21.5222 252.955L17.3876 254.983C16.7633 255.289 16.9818 256.226 17.6778 256.226L22.1466 255.849L23.5615 253.805C22.6553 253.67 21.8721 253.396 21.5222 252.955ZM23.3972 256.247C23.2163 256.032 22.9674 255.891 22.6966 255.843L24.0656 253.865C24.3787 253.894 24.6991 253.907 25.0159 253.907C25.2712 253.907 25.5292 253.898 25.7844 253.88L27.1994 255.923C27.046 255.989 26.9074 256.087 26.7917 256.214L25.9286 257.164C25.4456 257.696 24.6046 257.68 24.1418 257.13L23.3972 256.246V256.247ZM27.6768 255.826C27.7108 255.826 27.7448 255.828 27.7787 255.831L32.0648 256.226C32.7461 256.226 32.9775 255.319 32.3788 254.995L28.6152 252.955C28.169 253.425 27.2829 253.705 26.2959 253.83L27.6777 255.826H27.6768Z" fill="#FEFEFE"/>
<path d="M148.773 249.27H123.906V274.137H148.773V249.27Z" fill="#F0DF46"/>
<path fill-rule="evenodd" clip-rule="evenodd" d="M123.91 274.06V249.27L148.701 274.06H123.91Z" fill="#6EDD9E"/>
<path d="M281 274H149V300H281V274Z" fill="#F54F4C"/>
<path d="M49.5938 224.404L49.5938 273.996L74.4605 273.996L74.4605 224.404L49.5938 224.404Z" fill="#FC7472"/>
<path d="M99.375 224.414H74.5078V249.281H99.375V224.414Z" fill="#F54F4C"/>
<path d="M49.4855 26.1133H0V50.9272H49.4855V26.1133Z" fill="#FC7472"/>
<path d="M49.4846 0H24.6523V26.0342H49.4846V0Z" fill="#F54F4C"/>
<path d="M148.691 0H99.2734V26.0424H148.691V0Z" fill="#F3AACB"/>
<path d="M49 51H0V76H49V51Z" fill="#D3E9F8"/>
<path fill-rule="evenodd" clip-rule="evenodd" d="M52.0078 227.398H53.5136V228.903H52.0078V227.398Z" fill="#FEFEFE" fill-opacity="0.431373"/>
<path fill-rule="evenodd" clip-rule="evenodd" d="M58.1836 227.398H59.6885V228.903H58.1836V227.398Z" fill="#FEFEFE" fill-opacity="0.431373"/>
<path fill-rule="evenodd" clip-rule="evenodd" d="M64.3594 227.398H65.8643V228.903H64.3594V227.398Z" fill="#FEFEFE" fill-opacity="0.431373"/>
<path fill-rule="evenodd" clip-rule="evenodd" d="M70.5039 227.398H72.0097V228.903H70.5039V227.398Z" fill="#FEFEFE" fill-opacity="0.431373"/>
<path fill-rule="evenodd" clip-rule="evenodd" d="M52.0078 233.541H53.5136V235.046H52.0078V233.541Z" fill="#FEFEFE" fill-opacity="0.431373"/>
<path fill-rule="evenodd" clip-rule="evenodd" d="M58.1836 233.541H59.6885V235.046H58.1836V233.541Z" fill="#FEFEFE" fill-opacity="0.431373"/>
<path fill-rule="evenodd" clip-rule="evenodd" d="M64.3594 233.541H65.8643V235.046H64.3594V233.541Z" fill="#FEFEFE" fill-opacity="0.431373"/>
<path fill-rule="evenodd" clip-rule="evenodd" d="M70.5039 233.541H72.0097V235.046H70.5039V233.541Z" fill="#FEFEFE" fill-opacity="0.431373"/>
<path fill-rule="evenodd" clip-rule="evenodd" d="M52.0078 239.869H53.5136V241.374H52.0078V239.869Z" fill="#FEFEFE" fill-opacity="0.431373"/>
<path fill-rule="evenodd" clip-rule="evenodd" d="M58.1836 239.869H59.6885V241.374H58.1836V239.869Z" fill="#FEFEFE" fill-opacity="0.431373"/>
<path fill-rule="evenodd" clip-rule="evenodd" d="M64.3594 239.869H65.8643V241.374H64.3594V239.869Z" fill="#FEFEFE" fill-opacity="0.431373"/>
<path fill-rule="evenodd" clip-rule="evenodd" d="M70.5039 239.869H72.0097V241.374H70.5039V239.869Z" fill="#FEFEFE" fill-opacity="0.431373"/>
<path fill-rule="evenodd" clip-rule="evenodd" d="M52.0078 245.977H53.5136V247.482H52.0078V245.977Z" fill="#FEFEFE" fill-opacity="0.431373"/>
<path fill-rule="evenodd" clip-rule="evenodd" d="M58.1836 245.977H59.6885V247.482H58.1836V245.977Z" fill="#FEFEFE" fill-opacity="0.431373"/>
<path fill-rule="evenodd" clip-rule="evenodd" d="M64.3594 245.977H65.8643V247.482H64.3594V245.977Z" fill="#FEFEFE" fill-opacity="0.431373"/>
<path fill-rule="evenodd" clip-rule="evenodd" d="M70.5039 245.977H72.0097V247.482H70.5039V245.977Z" fill="#FEFEFE" fill-opacity="0.431373"/>
<path fill-rule="evenodd" clip-rule="evenodd" d="M52.0078 252.061H53.5136V253.565H52.0078V252.061Z" fill="#FEFEFE" fill-opacity="0.431373"/>
<path fill-rule="evenodd" clip-rule="evenodd" d="M58.1836 252.061H59.6885V253.565H58.1836V252.061Z" fill="#FEFEFE" fill-opacity="0.431373"/>
<path fill-rule="evenodd" clip-rule="evenodd" d="M64.3594 252.061H65.8643V253.565H64.3594V252.061Z" fill="#FEFEFE" fill-opacity="0.431373"/>
<path fill-rule="evenodd" clip-rule="evenodd" d="M70.5039 252.061H72.0097V253.565H70.5039V252.061Z" fill="#FEFEFE" fill-opacity="0.431373"/>
<path fill-rule="evenodd" clip-rule="evenodd" d="M52.0078 258.203H53.5136V259.708H52.0078V258.203Z" fill="#FEFEFE" fill-opacity="0.431373"/>
<path fill-rule="evenodd" clip-rule="evenodd" d="M58.1836 258.203H59.6885V259.708H58.1836V258.203Z" fill="#FEFEFE" fill-opacity="0.431373"/>
<path fill-rule="evenodd" clip-rule="evenodd" d="M64.3594 258.203H65.8643V259.708H64.3594V258.203Z" fill="#FEFEFE" fill-opacity="0.431373"/>
<path fill-rule="evenodd" clip-rule="evenodd" d="M70.5039 258.203H72.0097V259.708H70.5039V258.203Z" fill="#FEFEFE" fill-opacity="0.431373"/>
<path fill-rule="evenodd" clip-rule="evenodd" d="M52.0078 264.531H53.5136V266.036H52.0078V264.531Z" fill="#FEFEFE" fill-opacity="0.431373"/>
<path fill-rule="evenodd" clip-rule="evenodd" d="M58.1836 264.531H59.6885V266.036H58.1836V264.531Z" fill="#FEFEFE" fill-opacity="0.431373"/>
<path fill-rule="evenodd" clip-rule="evenodd" d="M64.3594 264.531H65.8643V266.036H64.3594V264.531Z" fill="#FEFEFE" fill-opacity="0.431373"/>
<path fill-rule="evenodd" clip-rule="evenodd" d="M70.5039 264.531H72.0097V266.036H70.5039V264.531Z" fill="#FEFEFE" fill-opacity="0.431373"/>
<path fill-rule="evenodd" clip-rule="evenodd" d="M52.0078 270.639H53.5136V272.144H52.0078V270.639Z" fill="#FEFEFE" fill-opacity="0.431373"/>
<path fill-rule="evenodd" clip-rule="evenodd" d="M58.1836 270.639H59.6885V272.144H58.1836V270.639Z" fill="#FEFEFE" fill-opacity="0.431373"/>
<path fill-rule="evenodd" clip-rule="evenodd" d="M64.3594 270.639H65.8643V272.144H64.3594V270.639Z" fill="#FEFEFE" fill-opacity="0.431373"/>
<path fill-rule="evenodd" clip-rule="evenodd" d="M70.5039 270.639H72.0097V272.144H70.5039V270.639Z" fill="#FEFEFE" fill-opacity="0.431373"/>
<path d="M501 223H451V300H501V223Z" fill="#E6D2E8"/>
<path d="M376.592 224.365H327V273.957H376.592V224.365Z" fill="#ED6E6B"/>
<path fill-rule="evenodd" clip-rule="evenodd" d="M362.827 240.885C364.436 240.885 365.741 239.592 365.741 237.997C365.741 236.402 364.437 235.109 362.827 235.109C361.219 235.109 359.914 236.402 359.914 237.997C359.914 239.592 361.219 240.885 362.827 240.885Z" fill="#FEFEFE" fill-opacity="0.2"/>
<path fill-rule="evenodd" clip-rule="evenodd" d="M340.894 262.857C342.503 262.857 343.807 261.565 343.807 259.97C343.807 258.375 342.503 257.082 340.894 257.082C339.285 257.082 337.98 258.375 337.98 259.97C337.98 261.565 339.285 262.857 340.894 262.857Z" fill="#FEFEFE" fill-opacity="0.701961"/>
<path fill-rule="evenodd" clip-rule="evenodd" d="M367.281 252.047C368.889 252.047 370.194 250.754 370.194 249.159C370.194 247.564 368.89 246.271 367.281 246.271C365.672 246.271 364.367 247.564 364.367 249.159C364.367 250.754 365.671 252.047 367.281 252.047Z" fill="#FEFEFE" fill-opacity="0.4"/>
<path fill-rule="evenodd" clip-rule="evenodd" d="M336.316 252.047C337.924 252.047 339.229 250.754 339.229 249.159C339.229 247.564 337.925 246.271 336.316 246.271C334.707 246.271 333.402 247.564 333.402 249.159C333.402 250.754 334.706 252.047 336.316 252.047Z" fill="#FEFEFE" fill-opacity="0.8"/>
<path fill-rule="evenodd" clip-rule="evenodd" d="M362.702 262.857C364.311 262.857 365.616 261.565 365.616 259.97C365.616 258.375 364.311 257.082 362.702 257.082C361.094 257.082 359.789 258.375 359.789 259.97C359.789 261.565 361.094 262.857 362.702 262.857Z" fill="#FEFEFE" fill-opacity="0.501961"/>
<path fill-rule="evenodd" clip-rule="evenodd" d="M340.894 241.238C342.503 241.238 343.807 239.945 343.807 238.351C343.807 236.756 342.503 235.463 340.894 235.463C339.285 235.463 337.98 236.756 337.98 238.351C337.98 239.945 339.285 241.238 340.894 241.238Z" fill="#FEFEFE" fill-opacity="0.8"/>
<path fill-rule="evenodd" clip-rule="evenodd" d="M351.796 267.395C353.405 267.395 354.71 266.102 354.71 264.507C354.71 262.912 353.405 261.619 351.796 261.619C350.188 261.619 348.883 262.912 348.883 264.507C348.883 266.102 350.188 267.395 351.796 267.395Z" fill="#FEFEFE" fill-opacity="0.6"/>
<path fill-rule="evenodd" clip-rule="evenodd" d="M351.796 236.701C353.405 236.701 354.71 235.408 354.71 233.813C354.71 232.219 353.405 230.926 351.796 230.926C350.188 230.926 348.883 232.219 348.883 233.813C348.883 235.408 350.188 236.701 351.796 236.701Z" fill="#FEFEFE"/>
<path fill-rule="evenodd" clip-rule="evenodd" d="M358.058 256.194L356.388 254.539C356.157 254.31 356.157 253.939 356.388 253.711C356.618 253.482 356.992 253.482 357.223 253.711L358.893 255.366C359.124 255.595 359.124 255.965 358.893 256.193C358.663 256.422 358.289 256.422 358.059 256.193L358.058 256.194Z" fill="#FEFEFE"/>
<path fill-rule="evenodd" clip-rule="evenodd" d="M346.37 244.608L344.7 242.953C344.47 242.724 344.47 242.353 344.7 242.125C344.931 241.896 345.304 241.896 345.536 242.125L347.206 243.78C347.436 244.009 347.436 244.379 347.206 244.607C346.975 244.836 346.602 244.836 346.371 244.607L346.37 244.608Z" fill="#FEFEFE"/>
<path fill-rule="evenodd" clip-rule="evenodd" d="M344.7 256.195C344.47 255.967 344.47 255.596 344.7 255.368L346.37 253.712C346.601 253.484 346.975 253.484 347.205 253.712C347.435 253.941 347.435 254.312 347.205 254.541L345.535 256.196C345.304 256.425 344.931 256.425 344.699 256.196L344.7 256.195Z" fill="#FEFEFE"/>
<path fill-rule="evenodd" clip-rule="evenodd" d="M356.388 244.607C356.157 244.379 356.157 244.008 356.388 243.78L358.058 242.125C358.288 241.896 358.662 241.896 358.892 242.125C359.123 242.353 359.123 242.724 358.892 242.953L357.222 244.608C356.992 244.837 356.618 244.837 356.387 244.608L356.388 244.607Z" fill="#FEFEFE"/>
<path fill-rule="evenodd" clip-rule="evenodd" d="M354.415 256.954L353.963 255.872C353.838 255.574 353.981 255.231 354.283 255.107C354.584 254.983 354.929 255.126 355.054 255.424L355.506 256.506C355.631 256.804 355.487 257.147 355.186 257.271C354.884 257.394 354.54 257.251 354.415 256.954Z" fill="#FEFEFE"/>
<path fill-rule="evenodd" clip-rule="evenodd" d="M348.54 242.895L348.088 241.814C347.963 241.515 348.106 241.173 348.408 241.049C348.709 240.925 349.054 241.067 349.179 241.365L349.631 242.447C349.756 242.745 349.612 243.088 349.311 243.212C349.009 243.336 348.665 243.194 348.54 242.895Z" fill="#FEFEFE"/>
<path fill-rule="evenodd" clip-rule="evenodd" d="M343.615 252.519C343.491 252.221 343.634 251.879 343.935 251.755L345.026 251.306C345.327 251.183 345.672 251.325 345.797 251.623C345.922 251.922 345.779 252.264 345.478 252.388L344.387 252.836C344.085 252.96 343.74 252.818 343.615 252.519Z" fill="#FEFEFE"/>
<path fill-rule="evenodd" clip-rule="evenodd" d="M357.799 246.697C357.674 246.399 357.817 246.056 358.119 245.932L359.209 245.484C359.511 245.36 359.856 245.503 359.981 245.801C360.106 246.099 359.962 246.442 359.661 246.566L358.57 247.014C358.268 247.138 357.923 246.996 357.799 246.697Z" fill="#FEFEFE"/>
<path fill-rule="evenodd" clip-rule="evenodd" d="M348.408 257.271C348.106 257.147 347.963 256.804 348.088 256.506L348.54 255.424C348.665 255.126 349.01 254.983 349.311 255.107C349.612 255.231 349.756 255.574 349.631 255.872L349.179 256.954C349.055 257.251 348.71 257.394 348.408 257.271Z" fill="#FEFEFE"/>
<path fill-rule="evenodd" clip-rule="evenodd" d="M354.283 243.212C353.981 243.088 353.838 242.745 353.963 242.447L354.415 241.365C354.54 241.067 354.885 240.925 355.186 241.049C355.487 241.173 355.631 241.515 355.506 241.814L355.054 242.895C354.929 243.193 354.585 243.336 354.283 243.212Z" fill="#FEFEFE"/>
<path fill-rule="evenodd" clip-rule="evenodd" d="M345.026 247.014L343.935 246.566C343.634 246.442 343.491 246.099 343.615 245.801C343.74 245.503 344.086 245.36 344.387 245.484L345.478 245.932C345.779 246.056 345.922 246.399 345.797 246.697C345.673 246.995 345.328 247.138 345.026 247.014Z" fill="#FEFEFE"/>
<path fill-rule="evenodd" clip-rule="evenodd" d="M359.209 252.836L358.119 252.388C357.817 252.264 357.674 251.922 357.799 251.623C357.924 251.325 358.269 251.183 358.57 251.306L359.661 251.755C359.962 251.879 360.106 252.221 359.981 252.519C359.857 252.817 359.511 252.96 359.209 252.836Z" fill="#FEFEFE"/>
<path fill-rule="evenodd" clip-rule="evenodd" d="M351.797 259.149C351.471 259.149 351.207 258.887 351.207 258.563V256.183C351.207 255.86 351.471 255.598 351.797 255.598C352.123 255.598 352.388 255.86 352.388 256.183V258.563C352.388 258.887 352.123 259.149 351.797 259.149Z" fill="#FEFEFE"/>
<path fill-rule="evenodd" clip-rule="evenodd" d="M351.797 242.722C351.471 242.722 351.207 242.46 351.207 242.137V239.757C351.207 239.434 351.471 239.172 351.797 239.172C352.123 239.172 352.388 239.434 352.388 239.757V242.137C352.388 242.46 352.123 242.722 351.797 242.722Z" fill="#FEFEFE"/>
<path fill-rule="evenodd" clip-rule="evenodd" d="M344.71 249.744H342.309C341.983 249.744 341.719 249.482 341.719 249.159C341.719 248.836 341.983 248.574 342.309 248.574H344.71C345.036 248.574 345.301 248.836 345.301 249.159C345.301 249.482 345.036 249.744 344.71 249.744Z" fill="#FEFEFE"/>
<path fill-rule="evenodd" clip-rule="evenodd" d="M361.284 249.744H358.883C358.557 249.744 358.293 249.482 358.293 249.159C358.293 248.836 358.557 248.574 358.883 248.574H361.284C361.61 248.574 361.875 248.836 361.875 249.159C361.875 249.482 361.61 249.744 361.284 249.744Z" fill="#FEFEFE"/>
<path fill-rule="evenodd" clip-rule="evenodd" d="M351.799 254.428C348.869 254.428 346.484 252.064 346.484 249.16C346.484 246.256 348.868 243.893 351.799 243.893C354.729 243.893 357.113 246.256 357.113 249.16C357.113 252.064 354.73 254.428 351.799 254.428Z" fill="#FEFEFE"/>
<path d="M413.859 125.219H401.461V137.617H413.859V125.219Z" fill="#F54F4C"/>
<path d="M426.187 125.219H413.789V137.617H426.187V125.219Z" fill="#F75D5A"/>
<path d="M413.859 137.547H401.461V149.945H413.859V137.547Z" fill="#FEFEFE"/>
<path d="M426.187 137.547H413.789V149.945H426.187V137.547Z" fill="#E64340"/>
<path d="M401.461 50.7598H376.594V75.6269H401.461V50.7598Z" fill="#F0DF46"/>
<path fill-rule="evenodd" clip-rule="evenodd" d="M376.598 75.5507V50.7598L401.389 75.5507H376.598Z" fill="#6EDD9E"/>
<path d="M376.733 125.219H351.867V150.086H376.733V125.219Z" fill="#60CC8F"/>
<path d="M401.46 125.219H376.594V150.086H401.46V125.219Z" fill="#6EDD9E"/>
<path d="M376.733 149.945H351.867V174.812H376.733V149.945Z" fill="#6EDD9E"/>
<path d="M401.46 149.945H376.594V174.812H401.46V149.945Z" fill="#7FEBAE"/>
<path fill-rule="evenodd" clip-rule="evenodd" d="M387.695 141.669C389.303 141.669 390.608 140.365 390.608 138.755C390.608 137.147 389.304 135.842 387.695 135.842C386.086 135.842 384.781 137.146 384.781 138.755C384.781 140.364 386.086 141.669 387.695 141.669Z" fill="#FEFEFE" fill-opacity="0.2"/>
<path fill-rule="evenodd" clip-rule="evenodd" d="M365.761 163.833C367.37 163.833 368.674 162.529 368.674 160.919C368.674 159.311 367.37 158.006 365.761 158.006C364.152 158.006 362.848 159.31 362.848 160.919C362.848 162.528 364.152 163.833 365.761 163.833Z" fill="#FEFEFE" fill-opacity="0.701961"/>
<path fill-rule="evenodd" clip-rule="evenodd" d="M392.148 152.93C393.756 152.93 395.061 151.626 395.061 150.017C395.061 148.408 393.757 147.104 392.148 147.104C390.539 147.104 389.234 148.407 389.234 150.017C389.234 151.626 390.538 152.93 392.148 152.93Z" fill="#FEFEFE" fill-opacity="0.4"/>
<path fill-rule="evenodd" clip-rule="evenodd" d="M361.183 152.93C362.792 152.93 364.096 151.626 364.096 150.017C364.096 148.408 362.793 147.104 361.183 147.104C359.574 147.104 358.27 148.407 358.27 150.017C358.27 151.626 359.573 152.93 361.183 152.93Z" fill="#FEFEFE" fill-opacity="0.8"/>
<path fill-rule="evenodd" clip-rule="evenodd" d="M387.57 163.833C389.178 163.833 390.483 162.529 390.483 160.919C390.483 159.311 389.179 158.006 387.57 158.006C385.961 158.006 384.656 159.31 384.656 160.919C384.656 162.528 385.96 163.833 387.57 163.833Z" fill="#FEFEFE" fill-opacity="0.501961"/>
<path fill-rule="evenodd" clip-rule="evenodd" d="M365.761 142.026C367.37 142.026 368.674 140.722 368.674 139.113C368.674 137.504 367.37 136.199 365.761 136.199C364.152 136.199 362.848 137.504 362.848 139.113C362.848 140.721 364.152 142.026 365.761 142.026Z" fill="#FEFEFE" fill-opacity="0.8"/>
<path fill-rule="evenodd" clip-rule="evenodd" d="M376.663 168.411C378.272 168.411 379.577 167.107 379.577 165.497C379.577 163.889 378.272 162.584 376.663 162.584C375.055 162.584 373.75 163.888 373.75 165.497C373.75 167.106 375.054 168.411 376.663 168.411Z" fill="#FEFEFE" fill-opacity="0.6"/>
<path fill-rule="evenodd" clip-rule="evenodd" d="M376.663 137.448C378.272 137.448 379.577 136.143 379.577 134.534C379.577 132.926 378.272 131.621 376.663 131.621C375.055 131.621 373.75 132.925 373.75 134.534C373.75 136.143 375.054 137.448 376.663 137.448Z" fill="#FEFEFE"/>
<path fill-rule="evenodd" clip-rule="evenodd" d="M376.652 153.783C376.478 153.91 376.297 154.025 376.109 154.128V159.271H377.194V154.128C377.006 154.025 376.826 153.91 376.652 153.783Z" fill="#FEFEFE"/>
<path fill-rule="evenodd" clip-rule="evenodd" d="M381.647 145.081C381.483 143.947 380.938 142.904 380.091 142.115C379.154 141.243 377.933 140.762 376.652 140.762C375.371 140.762 374.15 141.242 373.213 142.115C372.366 142.904 371.821 143.947 371.657 145.081C369.833 145.878 368.629 147.695 368.629 149.708C368.629 152.491 370.893 154.754 373.676 154.754C374.534 154.754 375.369 154.535 376.109 154.128V151.92L373.677 150.641L374.182 149.682L376.109 150.696V146.157H377.194V148.292L379.121 147.278L379.626 148.238L377.194 149.517V154.128C377.934 154.535 378.769 154.754 379.628 154.754C382.411 154.754 384.674 152.49 384.674 149.708C384.674 147.695 383.471 145.878 381.646 145.081H381.647Z" fill="#FEFEFE"/>
<path d="M401.866 174.811H377V199.678H401.866V174.811Z" fill="#1E2943"/>
<path d="M426.593 174.811H401.727V199.678H426.593V174.811Z" fill="#2D456E"/>
<path d="M401.866 199.535H377V224.402H401.866V199.535Z" fill="#1E2F4E"/>
<path d="M426.593 199.535H401.727V224.402H426.593V199.535Z" fill="#1E2943"/>
<path fill-rule="evenodd" clip-rule="evenodd" d="M412.827 191.297C414.436 191.297 415.741 189.994 415.741 188.384C415.741 186.775 414.437 185.471 412.827 185.471C411.219 185.471 409.914 186.775 409.914 188.384C409.914 189.993 411.218 191.297 412.827 191.297Z" fill="#FEFEFE" fill-opacity="0.2"/>
<path fill-rule="evenodd" clip-rule="evenodd" d="M390.894 213.464C392.503 213.464 393.807 212.16 393.807 210.55C393.807 208.941 392.503 207.637 390.894 207.637C389.285 207.637 387.98 208.941 387.98 210.55C387.98 212.159 389.284 213.464 390.894 213.464Z" fill="#FEFEFE" fill-opacity="0.701961"/>
<path fill-rule="evenodd" clip-rule="evenodd" d="M417.281 202.559C418.889 202.559 420.194 201.255 420.194 199.646C420.194 198.037 418.89 196.732 417.281 196.732C415.672 196.732 414.367 198.037 414.367 199.646C414.367 201.254 415.671 202.559 417.281 202.559Z" fill="#FEFEFE" fill-opacity="0.4"/>
<path fill-rule="evenodd" clip-rule="evenodd" d="M386.316 202.559C387.924 202.559 389.229 201.255 389.229 199.646C389.229 198.037 387.925 196.732 386.316 196.732C384.707 196.732 383.402 198.037 383.402 199.646C383.402 201.254 384.706 202.559 386.316 202.559Z" fill="#FEFEFE" fill-opacity="0.8"/>
<path fill-rule="evenodd" clip-rule="evenodd" d="M412.702 213.464C414.311 213.464 415.616 212.16 415.616 210.55C415.616 208.941 414.312 207.637 412.702 207.637C411.093 207.637 409.789 208.941 409.789 210.55C409.789 212.159 411.093 213.464 412.702 213.464Z" fill="#FEFEFE" fill-opacity="0.501961"/>
<path fill-rule="evenodd" clip-rule="evenodd" d="M390.894 191.655C392.503 191.655 393.807 190.351 393.807 188.742C393.807 187.133 392.503 185.828 390.894 185.828C389.285 185.828 387.98 187.133 387.98 188.742C387.98 190.35 389.284 191.655 390.894 191.655Z" fill="#FEFEFE" fill-opacity="0.8"/>
<path fill-rule="evenodd" clip-rule="evenodd" d="M401.796 218.04C403.405 218.04 404.71 216.736 404.71 215.126C404.71 213.518 403.406 212.213 401.796 212.213C400.188 212.213 398.883 213.517 398.883 215.126C398.883 216.735 400.187 218.04 401.796 218.04Z" fill="#FEFEFE" fill-opacity="0.6"/>
<path fill-rule="evenodd" clip-rule="evenodd" d="M401.796 187.077C403.405 187.077 404.71 185.773 404.71 184.163C404.71 182.555 403.406 181.25 401.796 181.25C400.188 181.25 398.883 182.554 398.883 184.163C398.883 185.772 400.187 187.077 401.796 187.077Z" fill="#FEFEFE"/>
<path fill-rule="evenodd" clip-rule="evenodd" d="M408.39 199.646L397.457 205.958V193.334L408.39 199.646Z" fill="#FEFEFE"/>
<path d="M351.867 224.365H327V249.232H351.867V224.365Z" fill="#F54F4C"/>
<path d="M376.594 224.365H351.727V249.232H376.594V224.365Z" fill="#F75D5A"/>
<path d="M351.867 249.092H327V273.959H351.867V249.092Z" fill="#FC7472"/>
<path d="M376.594 249.092H351.727V273.959H376.594V249.092Z" fill="#F54F4C"/>
<path fill-rule="evenodd" clip-rule="evenodd" d="M362.827 240.887C364.436 240.887 365.741 239.594 365.741 237.999C365.741 236.404 364.437 235.111 362.827 235.111C361.219 235.111 359.914 236.404 359.914 237.999C359.914 239.594 361.219 240.887 362.827 240.887Z" fill="#FEFEFE" fill-opacity="0.2"/>
<path fill-rule="evenodd" clip-rule="evenodd" d="M340.894 262.859C342.503 262.859 343.807 261.567 343.807 259.972C343.807 258.377 342.503 257.084 340.894 257.084C339.285 257.084 337.98 258.377 337.98 259.972C337.98 261.567 339.285 262.859 340.894 262.859Z" fill="#FEFEFE" fill-opacity="0.701961"/>
<path fill-rule="evenodd" clip-rule="evenodd" d="M367.281 252.049C368.889 252.049 370.194 250.756 370.194 249.161C370.194 247.566 368.89 246.273 367.281 246.273C365.672 246.273 364.367 247.566 364.367 249.161C364.367 250.756 365.671 252.049 367.281 252.049Z" fill="#FEFEFE" fill-opacity="0.4"/>
<path fill-rule="evenodd" clip-rule="evenodd" d="M336.316 252.049C337.924 252.049 339.229 250.756 339.229 249.161C339.229 247.566 337.925 246.273 336.316 246.273C334.707 246.273 333.402 247.566 333.402 249.161C333.402 250.756 334.706 252.049 336.316 252.049Z" fill="#FEFEFE" fill-opacity="0.8"/>
<path fill-rule="evenodd" clip-rule="evenodd" d="M362.702 262.859C364.311 262.859 365.616 261.567 365.616 259.972C365.616 258.377 364.311 257.084 362.702 257.084C361.094 257.084 359.789 258.377 359.789 259.972C359.789 261.567 361.094 262.859 362.702 262.859Z" fill="#FEFEFE" fill-opacity="0.501961"/>
<path fill-rule="evenodd" clip-rule="evenodd" d="M340.894 241.24C342.503 241.24 343.807 239.947 343.807 238.353C343.807 236.758 342.503 235.465 340.894 235.465C339.285 235.465 337.98 236.758 337.98 238.353C337.98 239.947 339.285 241.24 340.894 241.24Z" fill="#FEFEFE" fill-opacity="0.8"/>
<path fill-rule="evenodd" clip-rule="evenodd" d="M351.796 267.396C353.405 267.396 354.71 266.104 354.71 264.509C354.71 262.914 353.405 261.621 351.796 261.621C350.188 261.621 348.883 262.914 348.883 264.509C348.883 266.104 350.188 267.396 351.796 267.396Z" fill="#FEFEFE" fill-opacity="0.6"/>
<path fill-rule="evenodd" clip-rule="evenodd" d="M351.796 236.703C353.405 236.703 354.71 235.41 354.71 233.815C354.71 232.221 353.405 230.928 351.796 230.928C350.188 230.928 348.883 232.221 348.883 233.815C348.883 235.41 350.188 236.703 351.796 236.703Z" fill="#FEFEFE"/>
<path fill-rule="evenodd" clip-rule="evenodd" d="M358.058 256.196L356.388 254.541C356.157 254.312 356.157 253.941 356.388 253.712C356.618 253.484 356.992 253.484 357.223 253.712L358.893 255.368C359.124 255.597 359.124 255.967 358.893 256.196C358.663 256.425 358.289 256.425 358.059 256.196H358.058Z" fill="#FEFEFE"/>
<path fill-rule="evenodd" clip-rule="evenodd" d="M346.37 244.61L344.7 242.955C344.47 242.726 344.47 242.355 344.7 242.127C344.931 241.898 345.304 241.898 345.536 242.127L347.206 243.782C347.436 244.011 347.436 244.381 347.206 244.609C346.975 244.838 346.602 244.838 346.371 244.609L346.37 244.61Z" fill="#FEFEFE"/>
<path fill-rule="evenodd" clip-rule="evenodd" d="M344.7 256.196C344.47 255.968 344.47 255.597 344.7 255.368L346.37 253.712C346.601 253.484 346.975 253.484 347.205 253.712C347.435 253.941 347.435 254.312 347.205 254.541L345.535 256.196C345.304 256.425 344.931 256.425 344.699 256.196H344.7Z" fill="#FEFEFE"/>
<path fill-rule="evenodd" clip-rule="evenodd" d="M356.388 244.609C356.157 244.381 356.157 244.01 356.388 243.782L358.058 242.127C358.288 241.898 358.662 241.898 358.892 242.127C359.123 242.355 359.123 242.726 358.892 242.955L357.222 244.61C356.992 244.839 356.618 244.839 356.387 244.61L356.388 244.609Z" fill="#FEFEFE"/>
<path fill-rule="evenodd" clip-rule="evenodd" d="M354.415 256.956L353.963 255.874C353.838 255.576 353.981 255.233 354.283 255.109C354.584 254.985 354.929 255.128 355.054 255.426L355.506 256.508C355.631 256.806 355.487 257.149 355.186 257.272C354.884 257.396 354.54 257.254 354.415 256.956Z" fill="#FEFEFE"/>
<path fill-rule="evenodd" clip-rule="evenodd" d="M348.54 242.897L348.088 241.815C347.963 241.517 348.106 241.175 348.408 241.051C348.709 240.927 349.054 241.069 349.179 241.367L349.631 242.449C349.756 242.747 349.612 243.09 349.311 243.214C349.009 243.338 348.665 243.196 348.54 242.897Z" fill="#FEFEFE"/>
<path fill-rule="evenodd" clip-rule="evenodd" d="M343.615 252.521C343.491 252.223 343.634 251.88 343.935 251.757L345.026 251.308C345.327 251.184 345.672 251.327 345.797 251.625C345.922 251.924 345.779 252.266 345.478 252.39L344.387 252.838C344.085 252.962 343.74 252.82 343.615 252.521Z" fill="#FEFEFE"/>
<path fill-rule="evenodd" clip-rule="evenodd" d="M357.799 246.697C357.674 246.399 357.817 246.056 358.119 245.932L359.209 245.484C359.511 245.36 359.856 245.503 359.981 245.801C360.106 246.099 359.962 246.442 359.661 246.566L358.57 247.014C358.268 247.138 357.923 246.996 357.799 246.697Z" fill="#FEFEFE"/>
<path fill-rule="evenodd" clip-rule="evenodd" d="M348.408 257.272C348.106 257.149 347.963 256.806 348.088 256.508L348.54 255.426C348.665 255.128 349.01 254.985 349.311 255.109C349.612 255.233 349.756 255.576 349.631 255.874L349.179 256.956C349.055 257.253 348.71 257.396 348.408 257.272Z" fill="#FEFEFE"/>
<path fill-rule="evenodd" clip-rule="evenodd" d="M354.283 243.214C353.981 243.09 353.838 242.747 353.963 242.449L354.415 241.367C354.54 241.069 354.885 240.927 355.186 241.051C355.487 241.175 355.631 241.517 355.506 241.815L355.054 242.897C354.929 243.195 354.585 243.338 354.283 243.214Z" fill="#FEFEFE"/>
<path fill-rule="evenodd" clip-rule="evenodd" d="M345.026 247.016L343.935 246.568C343.634 246.444 343.491 246.101 343.615 245.803C343.74 245.505 344.086 245.362 344.387 245.486L345.478 245.934C345.779 246.058 345.922 246.401 345.797 246.699C345.673 246.997 345.328 247.14 345.026 247.016Z" fill="#FEFEFE"/>
<path fill-rule="evenodd" clip-rule="evenodd" d="M359.209 252.838L358.119 252.39C357.817 252.266 357.674 251.924 357.799 251.625C357.924 251.327 358.269 251.184 358.57 251.308L359.661 251.757C359.962 251.88 360.106 252.223 359.981 252.521C359.857 252.819 359.511 252.962 359.209 252.838Z" fill="#FEFEFE"/>
<path fill-rule="evenodd" clip-rule="evenodd" d="M351.797 259.15C351.471 259.15 351.207 258.888 351.207 258.564V256.185C351.207 255.861 351.471 255.6 351.797 255.6C352.123 255.6 352.388 255.861 352.388 256.185V258.564C352.388 258.888 352.123 259.15 351.797 259.15Z" fill="#FEFEFE"/>
<path fill-rule="evenodd" clip-rule="evenodd" d="M351.797 242.724C351.471 242.724 351.207 242.462 351.207 242.139V239.759C351.207 239.435 351.471 239.174 351.797 239.174C352.123 239.174 352.388 239.435 352.388 239.759V242.139C352.388 242.462 352.123 242.724 351.797 242.724Z" fill="#FEFEFE"/>
<path fill-rule="evenodd" clip-rule="evenodd" d="M344.71 249.746H342.309C341.983 249.746 341.719 249.484 341.719 249.161C341.719 248.838 341.983 248.576 342.309 248.576H344.71C345.036 248.576 345.301 248.838 345.301 249.161C345.301 249.484 345.036 249.746 344.71 249.746Z" fill="#FEFEFE"/>
<path fill-rule="evenodd" clip-rule="evenodd" d="M361.284 249.746H358.883C358.557 249.746 358.293 249.484 358.293 249.161C358.293 248.838 358.557 248.576 358.883 248.576H361.284C361.61 248.576 361.875 248.838 361.875 249.161C361.875 249.484 361.61 249.746 361.284 249.746Z" fill="#FEFEFE"/>
<path fill-rule="evenodd" clip-rule="evenodd" d="M351.799 254.43C348.869 254.43 346.484 252.066 346.484 249.162C346.484 246.258 348.868 243.895 351.799 243.895C354.729 243.895 357.113 246.258 357.113 249.162C357.113 252.066 354.73 254.43 351.799 254.43Z" fill="#FEFEFE"/>
<path d="M376.594 174.811H351.727V199.678H376.594V174.811Z" fill="#F75D5A"/>
<path d="M351.867 199.537H327V224.404H351.867V199.537Z" fill="#FC7472"/>
<path d="M376.594 199.537H351.727V224.404H376.594V199.537Z" fill="#FEFEFE"/>
<path d="M351.866 0H327V24.8672H351.866V0Z" fill="#F0DF46"/>
<path d="M376.593 0H351.727V24.8672H376.593V0Z" fill="#F8E95F"/>
<path d="M351.866 24.7266H327V49.5937H351.866V24.7266Z" fill="#F8E95F"/>
<path d="M376.593 24.7266H351.727V49.5937H376.593V24.7266Z" fill="#F0DF46"/>
<path fill-rule="evenodd" clip-rule="evenodd" d="M362.827 16.4479C364.436 16.4479 365.741 15.1441 365.741 13.5345C365.741 11.9258 364.437 10.6211 362.827 10.6211C361.219 10.6211 359.914 11.9249 359.914 13.5345C359.914 15.1431 361.218 16.4479 362.827 16.4479Z" fill="#FEFEFE" fill-opacity="0.2"/>
<path fill-rule="evenodd" clip-rule="evenodd" d="M340.894 38.612C342.503 38.612 343.807 37.3081 343.807 35.6986C343.807 34.0899 342.503 32.7852 340.894 32.7852C339.285 32.7852 337.98 34.089 337.98 35.6986C337.98 37.3072 339.284 38.612 340.894 38.612Z" fill="#FEFEFE" fill-opacity="0.701961"/>
<path fill-rule="evenodd" clip-rule="evenodd" d="M367.281 27.7077C368.889 27.7077 370.194 26.4029 370.194 24.7943C370.194 23.1856 368.89 21.8809 367.281 21.8809C365.672 21.8809 364.367 23.1856 364.367 24.7943C364.367 26.4029 365.671 27.7077 367.281 27.7077Z" fill="#FEFEFE" fill-opacity="0.4"/>
<path fill-rule="evenodd" clip-rule="evenodd" d="M336.316 27.7077C337.924 27.7077 339.229 26.4029 339.229 24.7943C339.229 23.1856 337.925 21.8809 336.316 21.8809C334.707 21.8809 333.402 23.1856 333.402 24.7943C333.402 26.4029 334.707 27.7077 336.316 27.7077Z" fill="#FEFEFE" fill-opacity="0.8"/>
<path fill-rule="evenodd" clip-rule="evenodd" d="M362.702 38.612C364.311 38.612 365.616 37.3081 365.616 35.6986C365.616 34.0899 364.312 32.7852 362.702 32.7852C361.094 32.7852 359.789 34.089 359.789 35.6986C359.789 37.3072 361.093 38.612 362.702 38.612Z" fill="#FEFEFE" fill-opacity="0.501961"/>
<path fill-rule="evenodd" clip-rule="evenodd" d="M340.894 16.8053C342.503 16.8053 343.807 15.5006 343.807 13.8919C343.807 12.2833 342.503 10.9785 340.894 10.9785C339.285 10.9785 337.98 12.2823 337.98 13.8919C337.98 15.5006 339.284 16.8053 340.894 16.8053Z" fill="#FEFEFE" fill-opacity="0.8"/>
<path fill-rule="evenodd" clip-rule="evenodd" d="M351.796 43.1901C353.405 43.1901 354.71 41.8853 354.71 40.2767C354.71 38.668 353.406 37.3633 351.796 37.3633C350.188 37.3633 348.883 38.6671 348.883 40.2767C348.883 41.8853 350.187 43.1901 351.796 43.1901Z" fill="#FEFEFE" fill-opacity="0.6"/>
<path fill-rule="evenodd" clip-rule="evenodd" d="M351.796 12.2272C353.405 12.2272 354.71 10.9224 354.71 9.31379C354.71 7.70513 353.406 6.40039 351.796 6.40039C350.188 6.40039 348.883 7.70513 348.883 9.31379C348.883 10.9224 350.187 12.2272 351.796 12.2272Z" fill="#FEFEFE"/>
<path fill-rule="evenodd" clip-rule="evenodd" d="M358.568 18.0228C358.019 17.4737 357.127 17.4838 356.589 18.043L353.648 21.1079L346.471 18.7325L344.964 20.2393L350.947 23.923L347.92 27.077L345.979 26.7584L344.617 28.12L347.471 29.1199L348.471 31.9736L349.832 30.612L349.514 28.6709L352.668 25.6437L356.352 31.6266L357.858 30.1198L355.483 22.9424L358.548 20.0014C359.108 19.4643 359.117 18.5718 358.568 18.0228Z" fill="#FEFEFE"/>
<path d="M401.316 125.219L401.316 174.811L426.183 174.811L426.183 125.219L401.316 125.219Z" fill="#F54F4C"/>
<path d="M450.603 100.352H376.594V125.219H450.603V100.352Z" fill="#FC7472"/>
<path d="M475.866 125H451V149.867H475.866V125Z" fill="#F199BF"/>
<path d="M500.593 125H475.727V149.867H500.593V125Z" fill="#F6BED8"/>
<path d="M475.866 149.725H451V174.592H475.866V149.725Z" fill="#F3AACB"/>
<path d="M500.593 149.725H475.727V174.592H500.593V149.725Z" fill="#E995BB"/>
<path fill-rule="evenodd" clip-rule="evenodd" d="M486.855 141.421C488.469 141.421 489.777 140.113 489.777 138.5C489.777 136.886 488.469 135.578 486.855 135.578C485.241 135.578 483.934 136.887 483.934 138.5C483.934 140.114 485.242 141.421 486.855 141.421Z" fill="#FEFEFE" fill-opacity="0.2"/>
<path fill-rule="evenodd" clip-rule="evenodd" d="M464.859 163.654C466.473 163.654 467.781 162.345 467.781 160.732C467.781 159.118 466.472 157.811 464.859 157.811C463.245 157.811 461.938 159.119 461.938 160.732C461.938 162.345 463.246 163.654 464.859 163.654Z" fill="#FEFEFE" fill-opacity="0.701961"/>
<path fill-rule="evenodd" clip-rule="evenodd" d="M491.324 152.716C492.938 152.716 494.247 151.408 494.247 149.795C494.247 148.181 492.938 146.873 491.324 146.873C489.71 146.873 488.402 148.181 488.402 149.795C488.402 151.409 489.711 152.716 491.324 152.716Z" fill="#FEFEFE" fill-opacity="0.4"/>
<path fill-rule="evenodd" clip-rule="evenodd" d="M460.265 152.716C461.88 152.716 463.187 151.408 463.187 149.795C463.187 148.181 461.879 146.873 460.265 146.873C458.651 146.873 457.344 148.181 457.344 149.795C457.344 151.409 458.652 152.716 460.265 152.716Z" fill="#FEFEFE" fill-opacity="0.8"/>
<path fill-rule="evenodd" clip-rule="evenodd" d="M486.73 163.654C488.344 163.654 489.652 162.345 489.652 160.732C489.652 159.118 488.344 157.811 486.73 157.811C485.116 157.811 483.809 159.119 483.809 160.732C483.809 162.345 485.117 163.654 486.73 163.654Z" fill="#FEFEFE" fill-opacity="0.501961"/>
<path fill-rule="evenodd" clip-rule="evenodd" d="M464.859 141.781C466.473 141.781 467.781 140.472 467.781 138.859C467.781 137.245 466.472 135.938 464.859 135.938C463.245 135.938 461.938 137.246 461.938 138.859C461.938 140.473 463.246 141.781 464.859 141.781Z" fill="#FEFEFE" fill-opacity="0.8"/>
<path fill-rule="evenodd" clip-rule="evenodd" d="M475.793 168.246C477.407 168.246 478.714 166.937 478.714 165.324C478.714 163.71 477.406 162.402 475.793 162.402C474.179 162.402 472.871 163.711 472.871 165.324C472.871 166.938 474.18 168.246 475.793 168.246Z" fill="#FEFEFE" fill-opacity="0.6"/>
<path fill-rule="evenodd" clip-rule="evenodd" d="M475.793 137.189C477.407 137.189 478.714 135.881 478.714 134.267C478.714 132.653 477.406 131.346 475.793 131.346C474.179 131.346 472.871 132.654 472.871 134.267C472.871 135.882 474.18 137.189 475.793 137.189Z" fill="#FEFEFE"/>
<path fill-rule="evenodd" clip-rule="evenodd" d="M482.533 144.612C481.704 143.689 480.567 143.182 479.33 143.182C478.405 143.182 477.559 143.482 476.814 144.073C476.437 144.372 476.097 144.737 475.797 145.163C475.496 144.737 475.156 144.372 474.779 144.073C474.034 143.482 473.187 143.182 472.263 143.182C471.027 143.182 469.889 143.689 469.06 144.612C468.241 145.524 467.789 146.77 467.789 148.121C467.789 149.511 468.294 150.782 469.378 152.125C470.347 153.325 471.74 154.543 473.353 155.954C473.904 156.437 474.529 156.983 475.177 157.564C475.348 157.718 475.568 157.803 475.796 157.803C476.023 157.803 476.244 157.718 476.414 157.564C477.063 156.982 477.688 156.436 478.239 155.954C479.852 154.542 481.245 153.325 482.215 152.124C483.298 150.782 483.803 149.51 483.803 148.12C483.803 146.769 483.352 145.523 482.532 144.611L482.533 144.612Z" fill="#FEFEFE"/>
<path d="M501 249.232L501 273.957L525.725 273.957L525.725 249.232L501 249.232Z" fill="#A584BB"/>
<path d="M509.191 273.952L509.191 249.232L517.531 249.232L517.531 273.952L509.191 273.952Z" fill="#F3AACB"/>
<path d="M376.593 273.957H327.176V299.999H376.593V273.957Z" fill="#FFB6B5"/>
<path d="M450.601 75.627H401.184V100.353H450.601V75.627Z" fill="#FFB6B5"/>
<path d="M450.603 0H401.461V50.759H450.603V0Z" fill="#FFF8BA"/>
<path fill-rule="evenodd" clip-rule="evenodd" d="M379.387 102.744H380.892V104.249H379.387V102.744Z" fill="#FEFEFE" fill-opacity="0.431373"/>
<path fill-rule="evenodd" clip-rule="evenodd" d="M385.562 102.744H387.067V104.249H385.562V102.744Z" fill="#FEFEFE" fill-opacity="0.431373"/>
<path fill-rule="evenodd" clip-rule="evenodd" d="M391.738 102.744H393.243V104.249H391.738V102.744Z" fill="#FEFEFE" fill-opacity="0.431373"/>
<path fill-rule="evenodd" clip-rule="evenodd" d="M397.879 102.744H399.384V104.249H397.879V102.744Z" fill="#FEFEFE" fill-opacity="0.431373"/>
<path fill-rule="evenodd" clip-rule="evenodd" d="M379.387 108.887H380.892V110.392H379.387V108.887Z" fill="#FEFEFE" fill-opacity="0.431373"/>
<path fill-rule="evenodd" clip-rule="evenodd" d="M385.562 108.887H387.067V110.392H385.562V108.887Z" fill="#FEFEFE" fill-opacity="0.431373"/>
<path fill-rule="evenodd" clip-rule="evenodd" d="M391.738 108.887H393.243V110.392H391.738V108.887Z" fill="#FEFEFE" fill-opacity="0.431373"/>
<path fill-rule="evenodd" clip-rule="evenodd" d="M397.879 108.887H399.384V110.392H397.879V108.887Z" fill="#FEFEFE" fill-opacity="0.431373"/>
<path fill-rule="evenodd" clip-rule="evenodd" d="M379.387 115.215H380.892V116.72H379.387V115.215Z" fill="#FEFEFE" fill-opacity="0.431373"/>
<path fill-rule="evenodd" clip-rule="evenodd" d="M385.562 115.215H387.067V116.72H385.562V115.215Z" fill="#FEFEFE" fill-opacity="0.431373"/>
<path fill-rule="evenodd" clip-rule="evenodd" d="M391.738 115.215H393.243V116.72H391.738V115.215Z" fill="#FEFEFE" fill-opacity="0.431373"/>
<path fill-rule="evenodd" clip-rule="evenodd" d="M397.879 115.215H399.384V116.72H397.879V115.215Z" fill="#FEFEFE" fill-opacity="0.431373"/>
<path fill-rule="evenodd" clip-rule="evenodd" d="M379.387 121.322H380.892V122.827H379.387V121.322Z" fill="#FEFEFE" fill-opacity="0.431373"/>
<path fill-rule="evenodd" clip-rule="evenodd" d="M385.562 121.322H387.067V122.827H385.562V121.322Z" fill="#FEFEFE" fill-opacity="0.431373"/>
<path fill-rule="evenodd" clip-rule="evenodd" d="M391.738 121.322H393.243V122.827H391.738V121.322Z" fill="#FEFEFE" fill-opacity="0.431373"/>
<path fill-rule="evenodd" clip-rule="evenodd" d="M397.879 121.322H399.384V122.827H397.879V121.322Z" fill="#FEFEFE" fill-opacity="0.431373"/>
<path fill-rule="evenodd" clip-rule="evenodd" d="M403.734 102.744H405.239V104.249H403.734V102.744Z" fill="#FEFEFE" fill-opacity="0.431373"/>
<path fill-rule="evenodd" clip-rule="evenodd" d="M409.91 102.744H411.415V104.249H409.91V102.744Z" fill="#FEFEFE" fill-opacity="0.431373"/>
<path fill-rule="evenodd" clip-rule="evenodd" d="M416.086 102.744H417.591V104.249H416.086V102.744Z" fill="#FEFEFE" fill-opacity="0.431373"/>
<path fill-rule="evenodd" clip-rule="evenodd" d="M422.227 102.744H423.731V104.249H422.227V102.744Z" fill="#FEFEFE" fill-opacity="0.431373"/>
<path fill-rule="evenodd" clip-rule="evenodd" d="M403.734 108.887H405.239V110.392H403.734V108.887Z" fill="#FEFEFE" fill-opacity="0.431373"/>
<path fill-rule="evenodd" clip-rule="evenodd" d="M409.91 108.887H411.415V110.392H409.91V108.887Z" fill="#FEFEFE" fill-opacity="0.431373"/>
<path fill-rule="evenodd" clip-rule="evenodd" d="M416.086 108.887H417.591V110.392H416.086V108.887Z" fill="#FEFEFE" fill-opacity="0.431373"/>
<path fill-rule="evenodd" clip-rule="evenodd" d="M422.227 108.887H423.731V110.392H422.227V108.887Z" fill="#FEFEFE" fill-opacity="0.431373"/>
<path fill-rule="evenodd" clip-rule="evenodd" d="M403.734 115.215H405.239V116.72H403.734V115.215Z" fill="#FEFEFE" fill-opacity="0.431373"/>
<path fill-rule="evenodd" clip-rule="evenodd" d="M409.91 115.215H411.415V116.72H409.91V115.215Z" fill="#FEFEFE" fill-opacity="0.431373"/>
<path fill-rule="evenodd" clip-rule="evenodd" d="M416.086 115.215H417.591V116.72H416.086V115.215Z" fill="#FEFEFE" fill-opacity="0.431373"/>
<path fill-rule="evenodd" clip-rule="evenodd" d="M422.227 115.215H423.731V116.72H422.227V115.215Z" fill="#FEFEFE" fill-opacity="0.431373"/>
<path fill-rule="evenodd" clip-rule="evenodd" d="M403.734 121.322H405.239V122.827H403.734V121.322Z" fill="#FEFEFE" fill-opacity="0.431373"/>
<path fill-rule="evenodd" clip-rule="evenodd" d="M409.91 121.322H411.415V122.827H409.91V121.322Z" fill="#FEFEFE" fill-opacity="0.431373"/>
<path fill-rule="evenodd" clip-rule="evenodd" d="M416.086 121.322H417.591V122.827H416.086V121.322Z" fill="#FEFEFE" fill-opacity="0.431373"/>
<path fill-rule="evenodd" clip-rule="evenodd" d="M422.227 121.322H423.731V122.827H422.227V121.322Z" fill="#FEFEFE" fill-opacity="0.431373"/>
<path fill-rule="evenodd" clip-rule="evenodd" d="M354.145 177.797H355.649V179.302H354.145V177.797Z" fill="#FEFEFE" fill-opacity="0.431373"/>
<path fill-rule="evenodd" clip-rule="evenodd" d="M360.32 177.797H361.825V179.302H360.32V177.797Z" fill="#FEFEFE" fill-opacity="0.431373"/>
<path fill-rule="evenodd" clip-rule="evenodd" d="M366.496 177.797H368.001V179.302H366.496V177.797Z" fill="#FEFEFE" fill-opacity="0.431373"/>
<path fill-rule="evenodd" clip-rule="evenodd" d="M372.637 177.797H374.142V179.302H372.637V177.797Z" fill="#FEFEFE" fill-opacity="0.431373"/>
<path fill-rule="evenodd" clip-rule="evenodd" d="M354.145 183.939H355.649V185.444H354.145V183.939Z" fill="#FEFEFE" fill-opacity="0.431373"/>
<path fill-rule="evenodd" clip-rule="evenodd" d="M360.32 183.939H361.825V185.444H360.32V183.939Z" fill="#FEFEFE" fill-opacity="0.431373"/>
<path fill-rule="evenodd" clip-rule="evenodd" d="M366.496 183.939H368.001V185.444H366.496V183.939Z" fill="#FEFEFE" fill-opacity="0.431373"/>
<path fill-rule="evenodd" clip-rule="evenodd" d="M372.637 183.939H374.142V185.444H372.637V183.939Z" fill="#FEFEFE" fill-opacity="0.431373"/>
<path fill-rule="evenodd" clip-rule="evenodd" d="M354.145 190.268H355.649V191.772H354.145V190.268Z" fill="#FEFEFE" fill-opacity="0.431373"/>
<path fill-rule="evenodd" clip-rule="evenodd" d="M360.32 190.268H361.825V191.772H360.32V190.268Z" fill="#FEFEFE" fill-opacity="0.431373"/>
<path fill-rule="evenodd" clip-rule="evenodd" d="M366.496 190.268H368.001V191.772H366.496V190.268Z" fill="#FEFEFE" fill-opacity="0.431373"/>
<path fill-rule="evenodd" clip-rule="evenodd" d="M372.637 190.268H374.142V191.772H372.637V190.268Z" fill="#FEFEFE" fill-opacity="0.431373"/>
<path fill-rule="evenodd" clip-rule="evenodd" d="M354.145 196.375H355.649V197.88H354.145V196.375Z" fill="#FEFEFE" fill-opacity="0.431373"/>
<path fill-rule="evenodd" clip-rule="evenodd" d="M360.32 196.375H361.825V197.88H360.32V196.375Z" fill="#FEFEFE" fill-opacity="0.431373"/>
<path fill-rule="evenodd" clip-rule="evenodd" d="M366.496 196.375H368.001V197.88H366.496V196.375Z" fill="#FEFEFE" fill-opacity="0.431373"/>
<path fill-rule="evenodd" clip-rule="evenodd" d="M372.637 196.375H374.142V197.88H372.637V196.375Z" fill="#FEFEFE" fill-opacity="0.431373"/>
<path d="M475.866 26.0352H451V50.9023H475.866V26.0352Z" fill="#6D296E"/>
<path d="M500.593 26.0352H475.727V50.9023H500.593V26.0352Z" fill="#863685"/>
<path d="M475.866 50.7598H451V75.6269H475.866V50.7598Z" fill="#7D2D7D"/>
<path d="M500.593 50.7598H475.727V75.6269H500.593V50.7598Z" fill="#6D296E"/>
<path fill-rule="evenodd" clip-rule="evenodd" d="M486.855 42.4566C488.469 42.4566 489.777 41.1482 489.777 39.5349C489.777 37.9208 488.469 36.6133 486.855 36.6133C485.242 36.6133 483.934 37.9217 483.934 39.5349C483.934 41.1491 485.242 42.4566 486.855 42.4566Z" fill="#FEFEFE" fill-opacity="0.2"/>
<path fill-rule="evenodd" clip-rule="evenodd" d="M464.859 64.688C466.473 64.688 467.781 63.3796 467.781 61.7663C467.781 60.1522 466.472 58.8438 464.859 58.8438C463.245 58.8438 461.938 60.1522 461.938 61.7663C461.938 63.3796 463.246 64.688 464.859 64.688Z" fill="#FEFEFE" fill-opacity="0.701961"/>
<path fill-rule="evenodd" clip-rule="evenodd" d="M491.32 53.7515C492.934 53.7515 494.243 52.4431 494.243 50.8299C494.243 49.2157 492.934 47.9082 491.32 47.9082C489.707 47.9082 488.398 49.2166 488.398 50.8299C488.398 52.444 489.707 53.7515 491.32 53.7515Z" fill="#FEFEFE" fill-opacity="0.4"/>
<path fill-rule="evenodd" clip-rule="evenodd" d="M460.265 53.7515C461.88 53.7515 463.187 52.4431 463.187 50.8299C463.187 49.2157 461.879 47.9082 460.265 47.9082C458.651 47.9082 457.344 49.2166 457.344 50.8299C457.344 52.444 458.652 53.7515 460.265 53.7515Z" fill="#FEFEFE" fill-opacity="0.8"/>
<path fill-rule="evenodd" clip-rule="evenodd" d="M486.73 64.688C488.344 64.688 489.652 63.3796 489.652 61.7663C489.652 60.1522 488.344 58.8438 486.73 58.8438C485.116 58.8438 483.809 60.1522 483.809 61.7663C483.809 63.3796 485.117 64.688 486.73 64.688Z" fill="#FEFEFE" fill-opacity="0.501961"/>
<path fill-rule="evenodd" clip-rule="evenodd" d="M464.859 42.816C466.473 42.816 467.781 41.5076 467.781 39.8943C467.781 38.2802 466.472 36.9727 464.859 36.9727C463.245 36.9727 461.938 38.2811 461.938 39.8943C461.938 41.5076 463.246 42.816 464.859 42.816Z" fill="#FEFEFE" fill-opacity="0.8"/>
<path fill-rule="evenodd" clip-rule="evenodd" d="M475.793 69.2808C477.407 69.2808 478.714 67.9724 478.714 66.3592C478.714 64.745 477.406 63.4375 475.793 63.4375C474.179 63.4375 472.871 64.7459 472.871 66.3592C472.871 67.9724 474.18 69.2808 475.793 69.2808Z" fill="#FEFEFE" fill-opacity="0.6"/>
<path fill-rule="evenodd" clip-rule="evenodd" d="M475.793 38.2242C477.407 38.2242 478.714 36.9158 478.714 35.3025C478.714 33.6884 477.406 32.3809 475.793 32.3809C474.179 32.3809 472.871 33.6893 472.871 35.3025C472.871 36.9167 474.18 38.2242 475.793 38.2242Z" fill="#FEFEFE"/>
<path fill-rule="evenodd" clip-rule="evenodd" d="M475.364 45.6457C476.257 47.0111 476.846 49.1091 478.121 50.6416L472.874 52.9297C472.58 52.3329 473.946 51.0933 474.277 50.7251C474.169 50.4469 473.899 50.5029 473.674 50.5901C472.568 50.8987 471.433 50.6664 470.384 50.2669L475.588 48.8502C475.684 48.9585 476.361 50.4662 476.707 50.2137C476.07 49.8235 475.221 46.6787 473.835 46.6465L466.155 47.6795L464.66 46.4684C465.906 46.0038 474.681 45.093 475.362 45.6448L475.364 45.6457Z" fill="#FEFEFE"/>
<path fill-rule="evenodd" clip-rule="evenodd" d="M478.688 51.0234L481.686 53.1637C481.296 53.5677 479.325 56.1019 479.325 56.1019C476.504 55.2508 473.71 55.5207 473.252 55.4849C473.049 55.2039 472.853 53.823 472.882 53.6522L478.688 51.0234V51.0234Z" fill="#FEFEFE"/>
<path fill-rule="evenodd" clip-rule="evenodd" d="M485.825 55.2391C486.077 55.2079 488.376 55.0353 487.545 55.8359C486.433 56.9056 480.807 58.0432 479.875 56.3079L482.213 53.5625C483.548 54.6202 484.113 55.352 485.825 55.2391Z" fill="#FEFEFE"/>
<path fill-rule="evenodd" clip-rule="evenodd" d="M475.083 47.9688L475.488 48.6666C474.709 48.9062 471.478 49.6821 469.994 50.1081C469.428 49.863 468.833 49.5462 468.207 49.1569L475.084 47.9688H475.083Z" fill="#FEFEFE"/>
<path fill-rule="evenodd" clip-rule="evenodd" d="M474.958 47.7728C474.945 47.7857 469.095 48.702 467.829 48.915C467.4 48.6341 466.956 48.32 466.5 47.9739L473.497 46.9226C473.662 46.9161 474.299 46.7591 474.959 47.7728H474.958Z" fill="#FEFEFE"/>
<path d="M476.071 174H451V199.071H476.071V174Z" fill="#ED1C24"/>
<path d="M500.997 174H475.926V199.071H500.997V174Z" fill="#FC3239"/>
<path d="M476.071 198.93H451V224.001H476.071V198.93Z" fill="#DE1017"/>
<path d="M500.997 198.93H475.926V224.001H500.997V198.93Z" fill="#ED1C24"/>
<path fill-rule="evenodd" clip-rule="evenodd" d="M487.153 190.558C488.781 190.558 490.099 189.24 490.099 187.612C490.099 185.984 488.781 184.666 487.153 184.666C485.527 184.666 484.207 185.984 484.207 187.612C484.207 189.238 485.525 190.558 487.153 190.558Z" fill="#FEFEFE" fill-opacity="0.2"/>
<path fill-rule="evenodd" clip-rule="evenodd" d="M464.973 212.972C466.599 212.972 467.92 211.654 467.92 210.026C467.92 208.398 466.602 207.08 464.973 207.08C463.345 207.08 462.027 208.398 462.027 210.026C462.027 211.652 463.345 212.972 464.973 212.972Z" fill="#FEFEFE" fill-opacity="0.701961"/>
<path fill-rule="evenodd" clip-rule="evenodd" d="M491.653 201.947C493.281 201.947 494.599 200.629 494.599 199.001C494.599 197.373 493.281 196.055 491.653 196.055C490.027 196.055 488.707 197.373 488.707 199.001C488.707 200.627 490.025 201.947 491.653 201.947Z" fill="#FEFEFE" fill-opacity="0.4"/>
<path fill-rule="evenodd" clip-rule="evenodd" d="M460.345 201.947C461.97 201.947 463.291 200.629 463.291 199.001C463.291 197.373 461.973 196.055 460.345 196.055C458.719 196.055 457.398 197.373 457.398 199.001C457.398 200.627 458.716 201.947 460.345 201.947V201.947Z" fill="#FEFEFE" fill-opacity="0.8"/>
<path fill-rule="evenodd" clip-rule="evenodd" d="M487.024 212.972C488.652 212.972 489.97 211.654 489.97 210.026C489.97 208.398 488.652 207.08 487.024 207.08C485.396 207.08 484.078 208.398 484.078 210.026C484.078 211.652 485.396 212.972 487.024 212.972Z" fill="#FEFEFE" fill-opacity="0.501961"/>
<path fill-rule="evenodd" clip-rule="evenodd" d="M464.973 190.92C466.599 190.92 467.92 189.602 467.92 187.973C467.92 186.345 466.602 185.027 464.973 185.027C463.345 185.027 462.027 186.345 462.027 187.973C462.027 189.599 463.345 190.92 464.973 190.92Z" fill="#FEFEFE" fill-opacity="0.8"/>
<path fill-rule="evenodd" clip-rule="evenodd" d="M475.997 217.603C477.623 217.603 478.943 216.285 478.943 214.657C478.943 213.029 477.625 211.711 475.997 211.711C474.369 211.711 473.051 213.029 473.051 214.657C473.051 216.283 474.369 217.603 475.997 217.603Z" fill="#FEFEFE" fill-opacity="0.6"/>
<path fill-rule="evenodd" clip-rule="evenodd" d="M475.997 186.291C477.623 186.291 478.943 184.973 478.943 183.345C478.943 181.719 477.625 180.398 475.997 180.398C474.369 180.398 473.051 181.716 473.051 183.345C473.051 184.97 474.369 186.291 475.997 186.291V186.291Z" fill="#FEFEFE"/>
<path fill-rule="evenodd" clip-rule="evenodd" d="M474.398 199.99H470.729L472.347 201.202L469.945 208.313L475.982 203.893L482.06 208.313L479.705 201.202L481.455 199.99H477.776L479.01 204.152L476.004 201.92L473.075 204.017L474.398 199.99Z" fill="#FEFEFE"/>
<path fill-rule="evenodd" clip-rule="evenodd" d="M466.09 196.725L466.287 196.838L468.484 198.409H474.857L476.003 194.898L477.146 198.409H483.519L485.718 196.838L485.913 196.725H478.284L476.003 189.686L473.719 196.725H466.09Z" fill="#FEFEFE"/>
<path d="M170.934 239.068H156.893V225.027H170.934V239.068Z" fill="#F8B02D"/>
<path d="M184.973 239.068H170.932V225.027H184.973V239.068Z" fill="#F8B02D"/>
<path d="M199.02 239.068H184.979V225.027H199.02V239.068Z" fill="#FDE659"/>
<path d="M213.059 239.068H199.018V225.027H213.059V239.068Z" fill="#FDE659"/>
<path d="M227.098 239.068H213.057V225.027H227.098V239.068Z" fill="#D97641"/>
<path d="M241.137 239.068H227.096V225.027H241.137V239.068Z" fill="#D97641"/>
<path d="M255.18 239.068H241.139V225.027H255.18V239.068Z" fill="#D97641"/>
<path d="M269.219 239.068H255.178V225.027H269.219V239.068Z" fill="#D97641"/>
<path d="M283.258 239.068H269.217V225.027H283.258V239.068Z" fill="#D97641"/>
<path d="M199.02 225.029H184.979V210.988H199.02V225.029Z" fill="#F8B02D"/>
<path d="M213.059 225.029H199.018V210.988H213.059V225.029Z" fill="#FDE659"/>
<path d="M227.098 225.029H213.057V210.988H227.098V225.029Z" fill="#D97641"/>
<path d="M241.137 225.029H227.096V210.988H241.137V225.029Z" fill="#D97641"/>
<path d="M255.18 225.029H241.139V210.988H255.18V225.029Z" fill="#D97641"/>
<path d="M213.059 210.986H199.018V196.945H213.059V210.986Z" fill="#F8B02D"/>
<path d="M227.098 210.986H213.057V196.945H227.098V210.986Z" fill="#D97641"/>
<path d="M241.137 210.986H227.096V196.945H241.137V210.986Z" fill="#D97641"/>
<path d="M213.059 196.947H199.018V182.906H213.059V196.947Z" fill="#F8B02D"/>
<path d="M227.098 196.947H213.057V182.906H227.098V196.947Z" fill="#D97641"/>
<path d="M241.137 196.947H227.096V182.906H241.137V196.947Z" fill="#D97641"/>
<path d="M213.059 182.906H199.018V168.865H213.059V182.906Z" fill="#D97641"/>
<path d="M227.098 182.906H213.057V168.865H227.098V182.906Z" fill="#D97641"/>
<path d="M241.137 182.906H227.096V168.865H241.137V182.906Z" fill="#D97641"/>
<path d="M184.973 168.867H170.932V154.826H184.973V168.867Z" fill="#C1472F"/>
<path d="M199.02 168.867H184.979V154.826H199.02V168.867Z" fill="#C1472F"/>
<path d="M213.059 168.867H199.018V154.826H213.059V168.867Z" fill="#C1472F"/>
<path d="M227.098 168.867H213.057V154.826H227.098V168.867Z" fill="#C1472F"/>
<path d="M241.137 168.867H227.096V154.826H241.137V168.867Z" fill="#C1472F"/>
<path d="M255.18 168.867H241.139V154.826H255.18V168.867Z" fill="#C1472F"/>
<path d="M269.219 168.867H255.178V154.826H269.219V168.867Z" fill="#C1472F"/>
<path d="M142.855 154.824H128.815V140.783H142.855V154.824Z" fill="#F8B02D"/>
<path d="M156.895 154.824H142.854V140.783H156.895V154.824Z" fill="#F8B02D"/>
<path d="M170.934 154.824H156.893V140.783H170.934V154.824Z" fill="#F8B02D"/>
<path d="M184.973 154.824H170.932V140.783H184.973V154.824Z" fill="#F8B02D"/>
<path d="M199.02 154.824H184.979V140.783H199.02V154.824Z" fill="#F8B02D"/>
<path d="M213.059 154.824H199.018V140.783H213.059V154.824Z" fill="#F8B02D"/>
<path d="M227.098 154.824H213.057V140.783H227.098V154.824Z" fill="#D97641"/>
<path d="M241.137 154.824H227.096V140.783H241.137V154.824Z" fill="#D97641"/>
<path d="M255.18 154.824H241.139V140.783H255.18V154.824Z" fill="#C1472F"/>
<path d="M269.219 154.824H255.178V140.783H269.219V154.824Z" fill="#C1472F"/>
<path d="M283.258 154.824H269.217V140.783H283.258V154.824Z" fill="#C1472F"/>
<path d="M297.297 154.824H283.256V140.783H297.297V154.824Z" fill="#F8B02D"/>
<path d="M311.344 154.824H297.303V140.783H311.344V154.824Z" fill="#F8B02D"/>
<path d="M128.812 140.785H114.772V126.744H128.812V140.785Z" fill="#F8B02D"/>
<path d="M170.934 140.785H156.893V126.744H170.934V140.785Z" fill="#F8B02D"/>
<path d="M184.973 140.785H170.932V126.744H184.973V140.785Z" fill="#FDE659"/>
<path d="M199.02 140.785H184.979V126.744H199.02V140.785Z" fill="#FDE659"/>
<path d="M213.059 140.785H199.018V126.744H213.059V140.785Z" fill="#F8B02D"/>
<path d="M227.098 140.785H213.057V126.744H227.098V140.785Z" fill="#D97641"/>
<path d="M241.137 140.785H227.096V126.744H241.137V140.785Z" fill="#D97641"/>
<path d="M255.18 140.785H241.139V126.744H255.18V140.785Z" fill="#D97641"/>
<path d="M269.219 140.785H255.178V126.744H269.219V140.785Z" fill="#C1472F"/>
<path d="M283.258 140.785H269.217V126.744H283.258V140.785Z" fill="#D97641"/>
<path d="M325.383 140.785H311.342V126.744H325.383V140.785Z" fill="#F8B02D"/>
<path d="M114.77 126.744H100.999V112.703H114.77V126.744Z" fill="#F8B02D"/>
<path d="M170.934 126.744H156.893V112.703H170.934V126.744Z" fill="#F8B02D"/>
<path d="M184.973 126.744H170.932V112.703H184.973V126.744Z" fill="#FDE659"/>
<path d="M199.02 126.744H184.979V112.703H199.02V126.744Z" fill="#FDE659"/>
<path d="M213.059 126.744H199.018V112.703H213.059V126.744Z" fill="#F8B02D"/>
<path d="M227.098 126.744H213.057V112.703H227.098V126.744Z" fill="#D97641"/>
<path d="M241.137 126.744H227.096V112.703H241.137V126.744Z" fill="#D97641"/>
<path d="M255.18 126.744H241.139V112.703H255.18V126.744Z" fill="#D97641"/>
<path d="M269.219 126.744H255.178V112.703H269.219V126.744Z" fill="#C1472F"/>
<path d="M283.258 126.744H269.217V112.703H283.258V126.744Z" fill="#D97641"/>
<path d="M339.422 126.744H325.381V112.703H339.422V126.744Z" fill="#F8B02D"/>
<path d="M114.77 112.705H100.999V98.6641H114.77V112.705Z" fill="#FDE659"/>
<path d="M156.895 112.705H142.854V98.6641H156.895V112.705Z" fill="#F8B02D"/>
<path d="M170.934 112.705H156.893V98.6641H170.934V112.705Z" fill="#F8B02D"/>
<path d="M184.973 112.705H170.932V98.6641H184.973V112.705Z" fill="#FDE659"/>
<path d="M199.02 112.705H184.979V98.6641H199.02V112.705Z" fill="#FDE659"/>
<path d="M213.059 112.705H199.018V98.6641H213.059V112.705Z" fill="#F8B02D"/>
<path d="M227.098 112.705H213.057V98.6641H227.098V112.705Z" fill="#D97641"/>
<path d="M241.137 112.705H227.096V98.6641H241.137V112.705Z" fill="#D97641"/>
<path d="M255.18 112.705H241.139V98.6641H255.18V112.705Z" fill="#D97641"/>
<path d="M269.219 112.705H255.178V98.6641H269.219V112.705Z" fill="#C1472F"/>
<path d="M283.258 112.705H269.217V98.6641H283.258V112.705Z" fill="#D97641"/>
<path d="M297.297 112.705H283.256V98.6641H297.297V112.705Z" fill="#F8B02D"/>
<path d="M339.422 112.705H325.381V98.6641H339.422V112.705Z" fill="#FDE659"/>
<path d="M128.812 98.6617H114.772V84.6211H128.812V98.6617Z" fill="#FDE659"/>
<path d="M142.855 98.6617H128.815V84.6211H142.855V98.6617Z" fill="#F8B02D"/>
<path d="M170.934 98.6617H156.893V84.6211H170.934V98.6617Z" fill="#F8B02D"/>
<path d="M184.973 98.6617H170.932V84.6211H184.973V98.6617Z" fill="#FDE659"/>
<path d="M199.02 98.6617H184.979V84.6211H199.02V98.6617Z" fill="#FDE659"/>
<path d="M213.059 98.6617H199.018V84.6211H213.059V98.6617Z" fill="#F8B02D"/>
<path d="M227.098 98.6617H213.057V84.6211H227.098V98.6617Z" fill="#D97641"/>
<path d="M241.137 98.6617H227.096V84.6211H241.137V98.6617Z" fill="#D97641"/>
<path d="M255.18 98.6617H241.139V84.6211H255.18V98.6617Z" fill="#D97641"/>
<path d="M269.219 98.6617H255.178V84.6211H269.219V98.6617Z" fill="#C1472F"/>
<path d="M283.258 98.6617H269.217V84.6211H283.258V98.6617Z" fill="#D97641"/>
<path d="M311.344 98.6617H297.303V84.6211H311.344V98.6617Z" fill="#F8B02D"/>
<path d="M325.383 98.6617H311.342V84.6211H325.383V98.6617Z" fill="#FDE659"/>
<path d="M170.934 84.6226H156.893V70.582H170.934V84.6226Z" fill="#F8B02D"/>
<path d="M184.973 84.6226H170.932V70.582H184.973V84.6226Z" fill="#FDE659"/>
<path d="M199.02 84.6226H184.979V70.582H199.02V84.6226Z" fill="#FDE659"/>
<path d="M213.059 84.6226H199.018V70.582H213.059V84.6226Z" fill="#F8B02D"/>
<path d="M227.098 84.6226H213.057V70.582H227.098V84.6226Z" fill="#D97641"/>
<path d="M241.137 84.6226H227.096V70.582H241.137V84.6226Z" fill="#D97641"/>
<path d="M255.18 84.6226H241.139V70.582H255.18V84.6226Z" fill="#D97641"/>
<path d="M269.219 84.6226H255.178V70.582H269.219V84.6226Z" fill="#C1472F"/>
<path d="M283.258 84.6226H269.217V70.582H283.258V84.6226Z" fill="#D97641"/>
<path d="M184.212 60.8721V54.0117H180.782V60.8721H173.922V64.3022H180.782V71.1626H184.212V64.3022H191.146V60.8721H184.212Z" fill="#ECF0F1"/>
<path d="M184.214 64.3017V71.1621H180.784V64.3017H173.924V60.8716H180.784V54.0112H184.214V60.8716H191.075V64.3017H184.214V64.3017ZM194.505 60.8716V57.4414H187.645V50.581H184.214V43.7207H180.784V50.581H177.354V57.4414H170.494V60.8716H160.203V64.3017H170.494V67.7319H177.354V74.5923H180.784V84.8828H184.214V74.5923H187.645V67.7319H194.505V64.3017H204.795V60.8716H194.505Z" fill="#FEE761"/>
<path d="M194.577 64.3017V67.7319H187.717V74.5923H184.287V84.8828H180.856V74.5923H177.426V67.7319H170.566V64.3017H160.275V60.8716H170.566V57.4414H177.426V50.581H180.856V43.7207H184.287V50.581H187.717V57.4414H194.577V60.8716H204.868V64.3017H194.577ZM208.298 60.8716V57.4414H198.007V54.0112H191.147V47.1509H187.717V40.2905H184.287V30H180.856V40.2905H177.426V47.1509H173.996V54.0112H167.136V57.4414H156.845V60.8716H146.555V64.3017H156.845V67.7319H167.136V71.1621H173.996V78.0224H177.426V88.3129H180.856V98.6035H184.287V88.3129H187.717V78.0224H191.147V71.1621H198.007V67.7319H208.298V64.3017H218.588V60.8716H208.298V60.8716Z" fill="#FEAE34"/>
</svg>
