<svg width="274" height="50" viewBox="0 0 274 50" fill="none" xmlns="http://www.w3.org/2000/svg">
<path d="M12.5305 0H261.47V50H12.5305V0Z" fill="white"/>
<path d="M8.35366 5H12.5305V10H8.35366V5Z" fill="white"/>
<path d="M265.646 5H261.47V10H265.646V5Z" fill="white"/>
<path d="M8.35366 10H12.5305V15H8.35366V10Z" fill="white"/>
<path d="M265.646 10H261.47V15H265.646V10Z" fill="white"/>
<path d="M4.17683 10H8.35366V15H4.17683V10Z" fill="white"/>
<path d="M269.823 10H265.646V15H269.823V10Z" fill="white"/>
<path d="M8.35366 15H12.5305V20H8.35366V15Z" fill="white"/>
<path d="M265.646 15H261.47V20H265.646V15Z" fill="white"/>
<path d="M4.17683 15H8.35366V20H4.17683V15Z" fill="white"/>
<path d="M269.823 15H265.646V20H269.823V15Z" fill="white"/>
<path d="M0 15H4.17683V20H0V15Z" fill="white"/>
<path d="M274 15H269.823V20H274V15Z" fill="white"/>
<path d="M8.35366 20H12.5305V25H8.35366V20Z" fill="white"/>
<path d="M265.646 20H261.47V25H265.646V20Z" fill="white"/>
<path d="M4.17683 20H8.35366V25H4.17683V20Z" fill="white"/>
<path d="M269.823 20H265.646V25H269.823V20Z" fill="white"/>
<path d="M0 20H4.17683V25H0V20Z" fill="white"/>
<path d="M274 20H269.823V25H274V20Z" fill="white"/>
<path d="M8.35366 25H12.5305V30H8.35366V25Z" fill="white"/>
<path d="M265.646 25H261.47V30H265.646V25Z" fill="white"/>
<path d="M4.17683 25H8.35366V30H4.17683V25Z" fill="white"/>
<path d="M269.823 25H265.646V30H269.823V25Z" fill="white"/>
<path d="M0 25H4.17683V30H0V25Z" fill="white"/>
<path d="M274 25H269.823V30H274V25Z" fill="white"/>
<path d="M8.35366 30H12.5305V35H8.35366V30Z" fill="white"/>
<path d="M265.646 30H261.47V35H265.646V30Z" fill="white"/>
<path d="M4.17683 30H8.35366V35H4.17683V30Z" fill="white"/>
<path d="M269.823 30H265.646V35H269.823V30Z" fill="white"/>
<path d="M0 30H4.17683V35H0V30Z" fill="white"/>
<path d="M274 30H269.823V35H274V30Z" fill="white"/>
<path d="M8.35366 35H12.5305V40H8.35366V35Z" fill="white"/>
<path d="M265.646 35H261.47V40H265.646V35Z" fill="white"/>
<path d="M4.17683 35H8.35366V40H4.17683V35Z" fill="white"/>
<path d="M269.823 35H265.646V40H269.823V35Z" fill="white"/>
<path d="M8.35366 40H12.5305V45H8.35366V40Z" fill="white"/>
<path d="M265.646 40H261.47V45H265.646V40Z" fill="white"/>
</svg>
