<svg width="328" height="50" viewBox="0 0 328 50" fill="none" xmlns="http://www.w3.org/2000/svg">
<path d="M15 0H313V50H15V0Z" fill="white"/>
<path d="M10 5H15V10H10V5Z" fill="white"/>
<path d="M318 5H313V10H318V5Z" fill="white"/>
<path d="M10 10H15V15H10V10Z" fill="white"/>
<path d="M318 10H313V15H318V10Z" fill="white"/>
<path d="M5 10H10V15H5V10Z" fill="white"/>
<path d="M323 10H318V15H323V10Z" fill="white"/>
<path d="M10 15H15V20H10V15Z" fill="white"/>
<path d="M318 15H313V20H318V15Z" fill="white"/>
<path d="M5 15H10V20H5V15Z" fill="white"/>
<path d="M323 15H318V20H323V15Z" fill="white"/>
<path d="M0 15H5V20H0V15Z" fill="white"/>
<path d="M328 15H323V20H328V15Z" fill="white"/>
<path d="M10 20H15V25H10V20Z" fill="white"/>
<path d="M318 20H313V25H318V20Z" fill="white"/>
<path d="M5 20H10V25H5V20Z" fill="white"/>
<path d="M323 20H318V25H323V20Z" fill="white"/>
<path d="M0 20H5V25H0V20Z" fill="white"/>
<path d="M328 20H323V25H328V20Z" fill="white"/>
<path d="M10 25H15V30H10V25Z" fill="white"/>
<path d="M318 25H313V30H318V25Z" fill="white"/>
<path d="M5 25H10V30H5V25Z" fill="white"/>
<path d="M323 25H318V30H323V25Z" fill="white"/>
<path d="M0 25H5V30H0V25Z" fill="white"/>
<path d="M328 25H323V30H328V25Z" fill="white"/>
<path d="M10 30H15V35H10V30Z" fill="white"/>
<path d="M318 30H313V35H318V30Z" fill="white"/>
<path d="M5 30H10V35H5V30Z" fill="white"/>
<path d="M323 30H318V35H323V30Z" fill="white"/>
<path d="M0 30H5V35H0V30Z" fill="white"/>
<path d="M328 30H323V35H328V30Z" fill="white"/>
<path d="M10 35H15V40H10V35Z" fill="white"/>
<path d="M318 35H313V40H318V35Z" fill="white"/>
<path d="M5 35H10V40H5V35Z" fill="white"/>
<path d="M323 35H318V40H323V35Z" fill="white"/>
<path d="M10 40H15V45H10V40Z" fill="white"/>
<path d="M318 40H313V45H318V40Z" fill="white"/>
</svg>
