<svg width="123" height="146" viewBox="0 0 123 146" fill="none" xmlns="http://www.w3.org/2000/svg">
<path d="M104.564 18.5654H18.1836V127.676H104.564V18.5654Z" fill="#FEFEFE"/>
<path d="M40.9141 4.92591H45.4596V0.380371H40.9141V4.92591Z" fill="#F77622"/>
<path d="M109.11 136.767V132.221H13.6384V14.0195H9.08984V136.767H109.11Z" fill="#E4A672"/>
<path d="M18.1862 127.676V18.5654H13.6406V132.222H104.566V127.676H18.1862Z" fill="#D77643"/>
<path d="M18.1836 14.0195V18.5651H104.564V127.676H109.109V14.0195H18.1836Z" fill="#D77643"/>
<path d="M4.54554 141.313V118.582H0V145.861H27.2762V141.313H4.54554Z" fill="#FEAE34"/>
<path d="M118.203 141.313H95.4724V136.767H27.2773V141.313H40.9169V145.861H54.5565V141.313H59.1021V145.861H68.1961V141.313H72.7417V145.861H77.2872V141.313H90.9268V145.861H122.752V118.582H118.203V141.313Z" fill="#FEAE34"/>
<path d="M4.54554 114.037H9.09108V45.8416H4.54554V50.3871H0V109.491H4.54554V114.037Z" fill="#FEAE34"/>
<path d="M4.54554 41.2961H9.09108V27.6565H4.54554V32.205H0V36.7506H4.54554V41.2961Z" fill="#FEAE34"/>
<path d="M113.656 32.2048V118.582H118.202V109.491H122.75V45.8415H118.202V36.7504H122.75V32.2048H113.656Z" fill="#FEAE34"/>
<path d="M0 23.1108H4.54554V9.47119H0V23.1108Z" fill="#FEAE34"/>
<path d="M86.3789 9.47132H90.9244V4.92578H86.3789V9.47132Z" fill="#FEAE34"/>
<path d="M81.8305 9.47121V4.92567H77.285V0.380127H72.7394V4.92567H68.1939V0.380127H59.0998V4.92567H54.5543V0.380127H45.4602V4.92567H36.3691V9.47121H81.8305Z" fill="#FEAE34"/>
<path d="M90.9258 0.380127V4.92567H118.202V23.1108H122.751V0.380127H90.9258Z" fill="#FEAE34"/>
<path d="M22.7305 4.92567H27.276V0.380127H22.7305V4.92567Z" fill="#FEAE34"/>
<path d="M4.54688 4.92591H18.1865V0.380371H4.54688V4.92591Z" fill="#FEAE34"/>
<path d="M68.1953 145.861H72.7409V141.316H68.1953V145.861Z" fill="#FEE761"/>
<path d="M54.5547 145.861H59.1002V141.316H54.5547V145.861Z" fill="#FEE761"/>
<path d="M9.09242 136.767V114.037H4.54688V141.313H27.2776V136.767H9.09242Z" fill="#FEE761"/>
<path d="M113.658 136.767H95.4727V141.313H118.203V118.582H113.658V136.767Z" fill="#FEE761"/>
<path d="M4.54554 45.8416H9.09108V41.296H4.54554V36.7505H0V50.3871H4.54554V45.8416Z" fill="#FEE761"/>
<path d="M118.203 45.8416H122.749V36.7505H118.203V45.8416Z" fill="#FEE761"/>
<path d="M113.656 9.47132V32.205H118.202V4.92578H90.9258V9.47132H113.656Z" fill="#FEE761"/>
<path d="M81.832 9.47132H86.3776V4.92578H81.832V9.47132Z" fill="#FEE761"/>
<path d="M36.3703 9.47097V4.92543H22.7307V0.379883H18.1851V4.92543H4.54554V0.379883H0V9.47097H4.54554V27.6561H9.09108V9.47097H36.3703Z" fill="#FEE761"/>
<path d="M68.1953 4.92567H72.7409V0.380127H68.1953V4.92567Z" fill="#FEE761"/>
<path d="M54.5547 4.92567H59.1002V0.380127H54.5547V4.92567Z" fill="#FEE761"/>
<path d="M109.11 14.0197V127.676H104.564V132.222H109.11V136.767H113.655V9.47119H9.08984V14.0197H13.6384V18.5653H18.1839V14.0197H109.11Z" fill="#BE4A2F"/>
<path d="M91.3824 62.3799H31.3711V66.9254H91.3824V62.3799Z" fill="#FF7271"/>
<path d="M91.3824 76.7959H31.3711V81.3414H91.3824V76.7959Z" fill="#FF7271"/>
<path d="M91.3824 91.2119H31.3711V95.7575H91.3824V91.2119Z" fill="#FF7271"/>
<path d="M91.3824 105.628H31.3711V110.173H91.3824V105.628Z" fill="#FF7271"/>
<path opacity="0.2" d="M68.7178 34.8005C70.5134 34.8005 71.9689 33.362 71.9689 31.5876C71.9689 29.8132 70.5134 28.3748 68.7178 28.3748C66.9223 28.3748 65.4668 29.8132 65.4668 31.5876C65.4668 33.362 66.9223 34.8005 68.7178 34.8005Z" fill="#FF7271"/>
<path opacity="0.7" d="M54.2823 49.068C56.0779 49.068 57.5334 47.6296 57.5334 45.8552C57.5334 44.0808 56.0779 42.6423 54.2823 42.6423C52.4867 42.6423 51.0312 44.0808 51.0312 45.8552C51.0312 47.6296 52.4867 49.068 54.2823 49.068Z" fill="#FF7271"/>
<path opacity="0.4" d="M71.7472 41.9345C73.5427 41.9345 74.9982 40.4961 74.9982 38.7217C74.9982 36.9472 73.5427 35.5088 71.7472 35.5088C69.9516 35.5088 68.4961 36.9472 68.4961 38.7217C68.4961 40.4961 69.9516 41.9345 71.7472 41.9345Z" fill="#FF7271"/>
<path opacity="0.8" d="M51.2511 41.9343C53.0466 41.9343 54.5021 40.4958 54.5021 38.7214C54.5021 36.947 53.0466 35.5085 51.2511 35.5085C49.4555 35.5085 48 36.947 48 38.7214C48 40.4958 49.4555 41.9343 51.2511 41.9343Z" fill="#FF7271"/>
<path opacity="0.5" d="M68.7178 49.068C70.5134 49.068 71.9689 47.6296 71.9689 45.8552C71.9689 44.0808 70.5134 42.6423 68.7178 42.6423C66.9223 42.6423 65.4668 44.0808 65.4668 45.8552C65.4668 47.6296 66.9223 49.068 68.7178 49.068Z" fill="#FF7271"/>
<path opacity="0.8" d="M54.2823 34.8005C56.0779 34.8005 57.5334 33.362 57.5334 31.5876C57.5334 29.8132 56.0779 28.3748 54.2823 28.3748C52.4867 28.3748 51.0312 29.8132 51.0312 31.5876C51.0312 33.362 52.4867 34.8005 54.2823 34.8005Z" fill="#FF7271"/>
<path opacity="0.6" d="M61.501 52.0629C63.2966 52.0629 64.7521 50.6245 64.7521 48.8501C64.7521 47.0757 63.2966 45.6372 61.501 45.6372C59.7058 45.6372 58.25 47.0757 58.25 48.8501C58.25 50.6245 59.7058 52.0629 61.501 52.0629Z" fill="#FF7271"/>
<path d="M61.501 31.8056C63.2966 31.8056 64.7521 30.3671 64.7521 28.5928C64.7521 26.8183 63.2966 25.3799 61.501 25.3799C59.7058 25.3799 58.25 26.8183 58.25 28.5928C58.25 30.3671 59.7058 31.8056 61.501 31.8056Z" fill="#FF7271"/>
</svg>
