<svg width="189" height="181" viewBox="0 0 189 181" fill="none" xmlns="http://www.w3.org/2000/svg">
<path d="M174.703 180.448H179.228V171.294H174.703V180.448Z" fill="#C0CBDC"/>
<path d="M170.177 162.242H174.703V157.717H170.177V162.242Z" fill="#C0CBDC"/>
<path d="M165.653 157.718H170.178V139.513H165.653V157.718Z" fill="#C0CBDC"/>
<path d="M165.653 125.935H170.178V116.781H165.653V125.935Z" fill="#C0CBDC"/>
<path d="M170.177 112.257H174.703V107.732H170.177V112.257Z" fill="#C0CBDC"/>
<path d="M170.177 94.0511H174.703V85H170.177V94.0511Z" fill="#C0CBDC"/>
<path d="M174.703 171.295H179.228V162.244H174.703V171.295Z" fill="#E9E5E1"/>
<path d="M165.653 139.512H170.178V125.936H165.653V139.512Z" fill="#E9E5E1"/>
<path d="M170.177 107.732H174.703V94.0522H170.177V107.732Z" fill="#E9E5E1"/>
<path d="M179.228 180.447H188.382V162.242H183.857V157.717H174.703V162.242H179.228V180.447Z" fill="#8B9BB4"/>
<path d="M170.179 157.717H165.654V116.781H156.603V157.717H161.128V162.242H165.654V180.447H174.705V162.242H170.179V157.717Z" fill="#8B9BB4"/>
<path d="M170.177 157.717H174.703V116.781H170.177V157.717Z" fill="#8B9BB4"/>
<path d="M174.703 112.256H183.857V85H174.703V112.256Z" fill="#8B9BB4"/>
<path d="M161.128 85H156.603V112.256H170.179V85H165.654V94.0511H161.128V85Z" fill="#8B9BB4"/>
<path d="M165.651 162.242H161.125V157.717H156.6V116.781H151.971V162.242H147.446V180.447H165.651V162.242Z" fill="#5A6988"/>
<path d="M120.191 157.717V162.242H115.665V180.447H124.716V162.242H129.345V157.717H120.191Z" fill="#5A6988"/>
<path d="M129.347 157.717H133.872V116.781H129.347V157.717Z" fill="#5A6988"/>
<path d="M147.446 112.256H156.6V85H147.446V112.256Z" fill="#5A6988"/>
<path d="M120.19 112.256H124.715V85H120.19V112.256Z" fill="#5A6988"/>
<path d="M147.446 112.256V85H142.92V94.0511H138.394V85H124.715V116.782H133.869V157.717H129.343V162.243H124.715V180.448H147.446V162.243H151.971V116.782H179.227V112.256H147.446Z" fill="#3A4466"/>
<path d="M59.8247 171.068H55.6203V162.484H51.3282V179.565H64.1168V162.484H59.8247V171.068Z" fill="#C0CBDC"/>
<path d="M55.6217 158.192H59.8262V149.696H55.6217V158.192Z" fill="#C0CBDC"/>
<path d="M51.3282 149.697H55.6203V145.405H51.3282V149.697Z" fill="#C0CBDC"/>
<path d="M47.0391 141.112H51.3311V136.82H47.0391V141.112Z" fill="#C0CBDC"/>
<path d="M42.7457 132.527H47.0378V115.447H42.7457V132.527Z" fill="#C0CBDC"/>
<path d="M42.7457 102.66H47.0378V85.4917H42.7457V102.66Z" fill="#C0CBDC"/>
<path d="M47.0391 76.9932H55.6232V72.7012H47.0391V76.9932Z" fill="#C0CBDC"/>
<path d="M42.7457 68.4105H51.3298V64.1184H42.7457V68.4105Z" fill="#C0CBDC"/>
<path d="M42.7457 59.826H51.3298V55.6216H42.7457V59.826Z" fill="#C0CBDC"/>
<path d="M47.0391 51.3302H55.6232V29.9575H47.0391V51.3302Z" fill="#C0CBDC"/>
<path d="M42.7457 25.6649H51.3298V21.3728H42.7457V25.6649Z" fill="#C0CBDC"/>
<path d="M55.6217 171.068H59.8262V162.484H55.6217V171.068Z" fill="#E9E5E1"/>
<path d="M51.3282 145.403H55.6203V141.111H51.3282V145.403Z" fill="#E9E5E1"/>
<path d="M47.0391 136.821H51.3311V132.529H47.0391V136.821Z" fill="#E9E5E1"/>
<path d="M42.7457 115.447H47.0378V102.659H42.7457V115.447Z" fill="#E9E5E1"/>
<path d="M47.0391 72.702H55.6232V68.4099H47.0391V72.702Z" fill="#E9E5E1"/>
<path d="M47.0391 29.9561H55.6232V25.6641H47.0391V29.9561Z" fill="#E9E5E1"/>
<path d="M38.4523 179.565H51.3284V162.484H38.4523V179.565Z" fill="#8B9BB4"/>
<path d="M64.1165 179.565H76.9926V162.484H64.1165V179.565Z" fill="#8B9BB4"/>
<path d="M55.6205 158.194V149.697H51.3284V141.113H47.0364V132.529H42.7443V85.4917H38.4523V158.194H55.6205Z" fill="#8B9BB4"/>
<path d="M51.3311 141.113H55.6232V149.697H59.8276V158.194H72.7038V145.405H68.4117V141.113H64.1197V136.821H59.8276V132.529H55.6232V128.325H51.3311V85.4917H47.0391V132.529H51.3311V141.113Z" fill="#8B9BB4"/>
<path d="M55.6217 76.994H59.8262V68.4099H55.6217V76.994Z" fill="#8B9BB4"/>
<path d="M47.0364 76.9946V68.4105H42.7443V64.1184H38.4523V76.9946H47.0364Z" fill="#8B9BB4"/>
<path d="M51.3282 68.4105H55.6203V64.1184H51.3282V68.4105Z" fill="#8B9BB4"/>
<path d="M51.3282 59.826H55.6203V55.6216H51.3282V59.826Z" fill="#8B9BB4"/>
<path d="M38.4523 59.826H42.7443V55.6216H38.4523V59.826Z" fill="#8B9BB4"/>
<path d="M47.0364 51.3295V25.6649H42.7443V21.3728H38.4523V51.3295H47.0364Z" fill="#8B9BB4"/>
<path d="M55.6217 51.3288H59.8262V42.7447H64.1182V25.6641H55.6217V51.3288Z" fill="#8B9BB4"/>
<path d="M51.3282 25.6649H55.6203V21.3728H51.3282V25.6649Z" fill="#8B9BB4"/>
<path d="M38.4523 8.58331H42.7443V4.29126H38.4523V8.58331Z" fill="#8B9BB4"/>
<path d="M25.6642 179.565H38.4527V162.484H25.6642V179.565Z" fill="#5A6988"/>
<path d="M0 179.565H4.29205V162.484H0V179.565Z" fill="#5A6988"/>
<path d="M4.29346 158.193H8.58551V145.405H4.29346V158.193Z" fill="#5A6988"/>
<path d="M8.58264 145.403H12.7871V141.111H8.58264V145.403Z" fill="#5A6988"/>
<path d="M12.7881 141.112H17.0801V136.82H12.7881V141.112Z" fill="#5A6988"/>
<path d="M29.9548 136.819H25.6628V141.111H21.3707V158.192H38.4513V128.323H34.2469V132.527H29.9548V136.819Z" fill="#5A6988"/>
<path d="M17.0815 136.821H21.3736V132.529H17.0815V136.821Z" fill="#5A6988"/>
<path d="M21.3707 132.527H25.6628V128.323H21.3707V132.527Z" fill="#5A6988"/>
<path d="M25.6642 128.325H29.9562V85.4917H25.6642V128.325Z" fill="#5A6988"/>
<path d="M38.454 76.9946V64.1184H29.9575V81.2866H55.6222V76.9946H38.454Z" fill="#5A6988"/>
<path d="M21.3707 81.2867H25.6628V76.9946H21.3707V81.2867Z" fill="#5A6988"/>
<path d="M17.0815 76.994H21.3736V68.4099H17.0815V76.994Z" fill="#5A6988"/>
<path d="M21.3707 68.4105H25.6628V64.1184H21.3707V68.4105Z" fill="#5A6988"/>
<path d="M21.3707 59.826H38.4513V55.6216H21.3707V59.826Z" fill="#5A6988"/>
<path d="M38.454 51.3303V21.3736H47.0381V17.0815H29.9575V51.3303H38.454Z" fill="#5A6988"/>
<path d="M17.0815 51.3297H25.6656V47.0377H21.3736V42.7456H17.0815V51.3297Z" fill="#5A6988"/>
<path d="M12.7881 42.7447H17.0801V25.6641H12.7881V42.7447Z" fill="#5A6988"/>
<path d="M21.3707 25.6649H25.6628V21.3728H21.3707V25.6649Z" fill="#5A6988"/>
<path d="M42.7457 8.58331H47.0378V4.29126H42.7457V8.58331Z" fill="#5A6988"/>
<path d="M38.454 8.5841V4.29205H42.7461V0H34.2496V4.29205H29.9575V8.5841H38.454Z" fill="#5A6988"/>
<path d="M21.3741 158.192V141.111H25.6661V136.819H29.9582V132.527H34.2502V128.323H38.4547V85.4899H51.3308V81.2854H29.9582V64.1172H51.3308V59.8252H25.6661V68.4093H21.3741V76.9934H25.6661V85.4899H29.9582V128.323H25.6661V132.527H21.3741V136.819H17.082V141.111H12.79V145.403H8.58551V162.484H4.29346V179.565H25.6661V162.484H68.4114V158.192H21.3741Z" fill="#3A4466"/>
<path d="M21.3736 47.0375H25.6656V51.3296H21.3736V55.6216H55.6224V51.3296H29.9577V21.3728H25.6656V25.6649H17.0815V42.7455H21.3736V47.0375Z" fill="#3A4466"/>
<path d="M34.2496 17.0812H42.7461V12.7892H47.0381V8.58472H29.9575V12.7892H34.2496V17.0812Z" fill="#3A4466"/>
</svg>
