<svg width="15" height="20" viewBox="0 0 15 20" fill="none" xmlns="http://www.w3.org/2000/svg">
<rect x="4.2981" y="6.44824" width="2.14927" height="2.14927" fill="#9D9FA1"/>
<rect x="2.14941" y="2.14941" width="2.14927" height="2.14927" fill="#9D9FA1"/>
<rect y="17.1943" width="15" height="2.14927" fill="#9D9FA1"/>
<rect width="15" height="2.14927" fill="#9D9FA1"/>
<rect x="2.14941" y="4.29883" width="2.14927" height="2.14927" fill="#9D9FA1"/>
<rect x="10.6311" y="2.14941" width="2.14927" height="2.14927" fill="#9D9FA1"/>
<rect x="10.6311" y="4.29883" width="2.14927" height="2.14927" fill="#9D9FA1"/>
<rect x="6.44824" y="8.59692" width="2.14927" height="2.14927" fill="#9D9FA1"/>
<rect x="8.59741" y="2.14941" width="2.14927" height="2.14927" fill="#9D9FA1"/>
<rect x="4.2981" y="15.0452" width="2.14927" height="2.14927" fill="#9D9FA1"/>
<rect x="8.48169" y="6.44824" width="2.14927" height="2.14927" fill="#9D9FA1"/>
<rect width="2.14927" height="2.14927" transform="matrix(1 0 0 -1 4.2981 12.8958)" fill="#9D9FA1"/>
<rect width="2.14927" height="2.14927" transform="matrix(1 0 0 -1 2.14941 15.0452)" fill="#9D9FA1"/>
<rect width="2.14927" height="2.14927" transform="matrix(1 0 0 -1 2.14941 17.1943)" fill="#9D9FA1"/>
<rect width="2.14927" height="2.14927" transform="matrix(1 0 0 -1 10.7476 15.0452)" fill="#9D9FA1"/>
<rect width="2.14927" height="2.14927" transform="matrix(1 0 0 -1 10.7476 17.1943)" fill="#9D9FA1"/>
<rect width="2.14927" height="2.14927" transform="matrix(1 0 0 -1 8.59741 12.8958)" fill="#9D9FA1"/>
</svg>
