<svg width="98" height="98" viewBox="0 0 98 98" fill="none" xmlns="http://www.w3.org/2000/svg">
<path d="M91.1729 38.2573H6.79785C5.14025 38.2573 3.55054 38.9158 2.37843 40.0879C1.20633 41.26 0.547852 42.8497 0.547852 44.5073V85.1323C0.547852 86.7899 1.20633 88.3796 2.37843 89.5517C3.55054 90.7238 5.14025 91.3823 6.79785 91.3823V96.0698C6.79785 96.4842 6.96247 96.8817 7.2555 97.1747C7.54852 97.4677 7.94595 97.6323 8.36035 97.6323H20.8604C21.2748 97.6323 21.6722 97.4677 21.9652 97.1747C22.2582 96.8817 22.4229 96.4842 22.4229 96.0698V91.3823H75.5479V96.0698C75.5479 96.4842 75.7125 96.8817 76.0055 97.1747C76.2985 97.4677 76.696 97.6323 77.1104 97.6323H89.6104C90.0247 97.6323 90.4222 97.4677 90.7152 97.1747C91.0082 96.8817 91.1729 96.4842 91.1729 96.0698V91.3823C92.8305 91.3823 94.4202 90.7238 95.5923 89.5517C96.7644 88.3796 97.4229 86.7899 97.4229 85.1323V44.5073C97.4229 42.8497 96.7644 41.26 95.5923 40.0879C94.4202 38.9158 92.8305 38.2573 91.1729 38.2573ZM19.2979 94.5073H9.92285V91.3823H19.2979V94.5073ZM88.0479 94.5073H78.6729V91.3823H88.0479V94.5073ZM94.2979 85.1323C94.2979 85.9611 93.9686 86.756 93.3826 87.342C92.7965 87.9281 92.0017 88.2573 91.1729 88.2573H6.79785C5.96905 88.2573 5.17419 87.9281 4.58814 87.342C4.00209 86.756 3.67285 85.9611 3.67285 85.1323V44.5073C3.67285 43.6785 4.00209 42.8837 4.58814 42.2976C5.17419 41.7116 5.96905 41.3823 6.79785 41.3823H91.1729C92.0017 41.3823 92.7965 41.7116 93.3826 42.2976C93.9686 42.8837 94.2979 43.6785 94.2979 44.5073V85.1323Z" fill="#3F3F3F"/>
<path d="M89.6104 44.5073H8.36035C7.94595 44.5073 7.54852 44.6719 7.2555 44.965C6.96247 45.258 6.79785 45.6554 6.79785 46.0698V83.5698C6.79785 83.9842 6.96247 84.3817 7.2555 84.6747C7.54852 84.9677 7.94595 85.1323 8.36035 85.1323H89.6104C90.0247 85.1323 90.4222 84.9677 90.7152 84.6747C91.0082 84.3817 91.1729 83.9842 91.1729 83.5698V46.0698C91.1729 45.6554 91.0082 45.258 90.7152 44.965C90.4222 44.6719 90.0247 44.5073 89.6104 44.5073ZM72.4229 47.6323H81.7979V52.3198C81.7979 53.563 81.304 54.7553 80.4249 55.6344C79.5458 56.5135 78.3536 57.0073 77.1104 57.0073C75.8671 57.0073 74.6749 56.5135 73.7958 55.6344C72.9167 54.7553 72.4229 53.563 72.4229 52.3198V47.6323ZM88.0479 82.0073H78.6729V64.8198C78.6728 64.5108 78.5811 64.2088 78.4094 63.9519C78.2377 63.695 77.9937 63.4948 77.7083 63.3766C77.4228 63.2583 77.1087 63.2274 76.8056 63.2877C76.5026 63.3479 76.2242 63.4967 76.0057 63.7151L69.7557 69.9651L71.965 72.1745L75.5479 68.5917V82.0073H9.92285V47.6323H69.2979V52.3198C69.2979 54.3918 70.121 56.379 71.5861 57.8441C73.0512 59.3092 75.0383 60.1323 77.1104 60.1323C79.1824 60.1323 81.1695 59.3092 82.6346 57.8441C84.0998 56.379 84.9229 54.3918 84.9229 52.3198V47.6323H88.0479V82.0073Z" fill="#3F3F3F"/>
<path d="M20.8604 50.7573C18.7891 50.7598 16.8034 51.5837 15.3388 53.0483C13.8742 54.5129 13.0503 56.4986 13.0479 58.5698V71.0698C13.0479 73.1418 13.871 75.129 15.3361 76.5941C16.8012 78.0592 18.7883 78.8823 20.8604 78.8823C22.9324 78.8823 24.9195 78.0592 26.3846 76.5941C27.8498 75.129 28.6729 73.1418 28.6729 71.0698V58.5698C28.6704 56.4986 27.8465 54.5129 26.3819 53.0483C24.9173 51.5837 22.9316 50.7598 20.8604 50.7573ZM25.5479 71.0698C25.5479 72.313 25.054 73.5053 24.1749 74.3844C23.2958 75.2635 22.1036 75.7573 20.8604 75.7573C19.6171 75.7573 18.4249 75.2635 17.5458 74.3844C16.6667 73.5053 16.1729 72.313 16.1729 71.0698V58.5698C16.1729 57.3266 16.6667 56.1343 17.5458 55.2553C18.4249 54.3762 19.6171 53.8823 20.8604 53.8823C22.1036 53.8823 23.2958 54.3762 24.1749 55.2553C25.054 56.1343 25.5479 57.3266 25.5479 58.5698V71.0698Z" fill="#3F3F3F"/>
<path d="M38.0479 50.7573C35.9766 50.7598 33.9909 51.5837 32.5263 53.0483C31.0617 54.5129 30.2378 56.4986 30.2354 58.5698V71.0698C30.2354 73.1418 31.0585 75.129 32.5236 76.5941C33.9887 78.0592 35.9758 78.8823 38.0479 78.8823C40.1199 78.8823 42.107 78.0592 43.5721 76.5941C45.0373 75.129 45.8604 73.1418 45.8604 71.0698V58.5698C45.8579 56.4986 45.034 54.5129 43.5694 53.0483C42.1048 51.5837 40.1191 50.7598 38.0479 50.7573ZM42.7354 71.0698C42.7354 72.313 42.2415 73.5053 41.3624 74.3844C40.4833 75.2635 39.2911 75.7573 38.0479 75.7573C36.8046 75.7573 35.6124 75.2635 34.7333 74.3844C33.8542 73.5053 33.3604 72.313 33.3604 71.0698V58.5698C33.3604 57.3266 33.8542 56.1343 34.7333 55.2553C35.6124 54.3762 36.8046 53.8823 38.0479 53.8823C39.2911 53.8823 40.4833 54.3762 41.3624 55.2553C42.2415 56.1343 42.7354 57.3266 42.7354 58.5698V71.0698Z" fill="#3F3F3F"/>
<path d="M59.9229 50.7573C57.8516 50.7598 55.8659 51.5837 54.4013 53.0483C52.9367 54.5129 52.1128 56.4986 52.1104 58.5698V71.0698C52.1104 73.1418 52.9335 75.129 54.3986 76.5941C55.8637 78.0592 57.8508 78.8823 59.9229 78.8823C61.9949 78.8823 63.982 78.0592 65.4471 76.5941C66.9123 75.129 67.7354 73.1418 67.7354 71.0698V58.5698C67.7329 56.4986 66.909 54.5129 65.4444 53.0483C63.9798 51.5837 61.9941 50.7598 59.9229 50.7573ZM64.6104 71.0698C64.6104 72.313 64.1165 73.5053 63.2374 74.3844C62.3583 75.2635 61.1661 75.7573 59.9229 75.7573C58.6796 75.7573 57.4874 75.2635 56.6083 74.3844C55.7292 73.5053 55.2354 72.313 55.2354 71.0698V58.5698C55.2354 57.3266 55.7292 56.1343 56.6083 55.2553C57.4874 54.3762 58.6796 53.8823 59.9229 53.8823C61.1661 53.8823 62.3583 54.3762 63.2374 55.2553C64.1165 56.1343 64.6104 57.3266 64.6104 58.5698V71.0698Z" fill="#3F3F3F"/>
<path d="M47.4229 75.7573H50.5479V78.8823H47.4229V75.7573Z" fill="#3F3F3F"/>
<path d="M48.9854 17.9448C49.9125 17.9448 50.8187 17.6699 51.5896 17.1548C52.3604 16.6398 52.9613 15.9077 53.316 15.0512C53.6708 14.1946 53.7637 13.2521 53.5828 12.3428C53.4019 11.4336 52.9555 10.5983 52.2999 9.94276C51.6444 9.2872 50.8091 8.84076 49.8998 8.6599C48.9906 8.47903 48.0481 8.57186 47.1915 8.92664C46.335 9.28143 45.6029 9.88224 45.0878 10.6531C44.5728 11.4239 44.2979 12.3302 44.2979 13.2573C44.2979 14.5005 44.7917 15.6928 45.6708 16.5719C46.5499 17.451 47.7422 17.9448 48.9854 17.9448ZM48.9854 11.6948C49.2944 11.6948 49.5965 11.7865 49.8534 11.9582C50.1104 12.1298 50.3107 12.3739 50.4289 12.6594C50.5472 12.9449 50.5781 13.2591 50.5178 13.5622C50.4575 13.8653 50.3087 14.1437 50.0902 14.3622C49.8717 14.5807 49.5933 14.7295 49.2902 14.7898C48.9871 14.8501 48.6729 14.8192 48.3874 14.7009C48.1019 14.5826 47.8579 14.3824 47.6862 14.1254C47.5145 13.8685 47.4229 13.5664 47.4229 13.2573C47.4229 12.8429 47.5875 12.4455 47.8805 12.1525C48.1735 11.8594 48.571 11.6948 48.9854 11.6948Z" fill="#3F3F3F"/>
<path d="M47.4229 0.757324H50.5479V7.00732H47.4229V0.757324Z" fill="#3F3F3F"/>
<path d="M47.4229 19.5073H50.5479V25.7573H47.4229V19.5073Z" fill="#3F3F3F"/>
<path d="M36.4854 11.6948H42.7354V14.8198H36.4854V11.6948Z" fill="#3F3F3F"/>
<path d="M55.2354 11.6948H61.4854V14.8198H55.2354V11.6948Z" fill="#3F3F3F"/>
<path d="M52.5625 7.46924L57.2504 2.78134L59.4601 4.99105L54.7722 9.67895L52.5625 7.46924Z" fill="#3F3F3F"/>
<path d="M38.5015 4.99072L40.7112 2.78101L45.3991 7.46891L43.1894 9.67862L38.5015 4.99072Z" fill="#3F3F3F"/>
<path d="M52.561 19.0532L54.7707 16.8435L59.4586 21.5314L57.2489 23.7411L52.561 19.0532Z" fill="#3F3F3F"/>
<path d="M38.5 21.5288L43.1879 16.8409L45.3976 19.0506L40.7097 23.7385L38.5 21.5288Z" fill="#3F3F3F"/>
<path d="M47.4229 27.3198H50.5479V30.4448H47.4229V27.3198Z" fill="#3F3F3F"/>
<path d="M47.4229 32.0073H50.5479V35.1323H47.4229V32.0073Z" fill="#3F3F3F"/>
<path d="M84.9229 11.6948H88.0479V17.9448H84.9229V11.6948Z" fill="#3F3F3F"/>
<path d="M84.9229 27.3198H88.0479V33.5698H84.9229V27.3198Z" fill="#3F3F3F"/>
<path d="M75.5479 21.0698H81.7979V24.1948H75.5479V21.0698Z" fill="#3F3F3F"/>
<path d="M91.1729 21.0698H97.4229V24.1948H91.1729V21.0698Z" fill="#3F3F3F"/>
<path d="M84.9229 21.0698H88.0479V24.1948H84.9229V21.0698Z" fill="#3F3F3F"/>
<path d="M11.4854 5.44482H14.6104V11.6948H11.4854V5.44482Z" fill="#3F3F3F"/>
<path d="M11.4854 21.0698H14.6104V27.3198H11.4854V21.0698Z" fill="#3F3F3F"/>
<path d="M2.11035 14.8198H8.36035V17.9448H2.11035V14.8198Z" fill="#3F3F3F"/>
<path d="M17.7354 14.8198H23.9854V17.9448H17.7354V14.8198Z" fill="#3F3F3F"/>
<path d="M11.4854 14.8198H14.6104V17.9448H11.4854V14.8198Z" fill="#3F3F3F"/>
<path d="M64.6104 25.7573H67.7354V28.8823H64.6104V25.7573Z" fill="#3F3F3F"/>
<path d="M64.6104 32.0073H67.7354V35.1323H64.6104V32.0073Z" fill="#3F3F3F"/>
<path d="M61.4854 28.8823H64.6104V32.0073H61.4854V28.8823Z" fill="#3F3F3F"/>
<path d="M67.7354 28.8823H70.8604V32.0073H67.7354V28.8823Z" fill="#3F3F3F"/>
<path d="M25.5479 22.6323H28.6729V25.7573H25.5479V22.6323Z" fill="#3F3F3F"/>
<path d="M25.5479 28.8823H28.6729V32.0073H25.5479V28.8823Z" fill="#3F3F3F"/>
<path d="M22.4229 25.7573H25.5479V28.8823H22.4229V25.7573Z" fill="#3F3F3F"/>
<path d="M28.6729 25.7573H31.7979V28.8823H28.6729V25.7573Z" fill="#3F3F3F"/>
</svg>
