<svg width="214" height="112" viewBox="0 0 214 112" fill="none" xmlns="http://www.w3.org/2000/svg">
<path d="M123.402 19.1001H118.602V23.9001H123.402V19.1001Z" fill="#AA70CF"/>
<path d="M194.402 81.4751H189.602V86.2751H194.402V81.4751Z" fill="#AA70CF"/>
<path d="M128.198 28.6001H123.398V33.4001H128.198V28.6001Z" fill="#AA70CF"/>
<path d="M199.198 90.9751H194.398V95.7751H199.198V90.9751Z" fill="#AA70CF"/>
<path d="M128.198 23.7998H123.398V28.5998H128.198V23.7998Z" fill="#AA70CF"/>
<path d="M199.198 86.1748H194.398V90.9748H199.198V86.1748Z" fill="#AA70CF"/>
<path d="M128.198 19.1001H123.398V23.9001H128.198V19.1001Z" fill="#E0FFFB"/>
<path d="M199.198 81.4751H194.398V86.2751H199.198V81.4751Z" fill="#E0FFFB"/>
<path d="M188.198 36.6001H183.398V41.4001H188.198V36.6001Z" fill="#E0FFFB"/>
<path d="M9.49921 106.39H4.69922V111.19H9.49921V106.39Z" fill="#E0FFFB"/>
<path d="M142.499 14.3H137.699V19.1H142.499V14.3Z" fill="#AA70CF"/>
<path d="M213.499 76.675H208.699V81.475H213.499V76.675Z" fill="#AA70CF"/>
<path d="M137.698 14.2998H132.898V19.0998H137.698V14.2998Z" fill="#AA70CF"/>
<path d="M208.698 76.6748H203.898V81.4748H208.698V76.6748Z" fill="#AA70CF"/>
<path d="M204.101 81.375H199.301V86.175H204.101V81.375Z" fill="#AA70CF"/>
<path d="M132.999 14.3H128.199V19.1H132.999V14.3Z" fill="#E0FFFB"/>
<path d="M203.999 76.675H199.199V81.475H203.999V76.675Z" fill="#E0FFFB"/>
<path d="M192.999 31.8H188.199V36.6H192.999V31.8Z" fill="#E0FFFB"/>
<path d="M14.3 101.59H9.5V106.39H14.3V101.59Z" fill="#E0FFFB"/>
<path d="M128.198 14.2998H123.398V19.0998H128.198V14.2998Z" fill="#E0FFFB"/>
<path d="M71.4484 58H66.6484V62.8H71.4484V58Z" fill="#E0FFFB"/>
<path d="M199.198 76.6748H194.398V81.4748H199.198V76.6748Z" fill="#E0FFFB"/>
<path d="M123.499 14.3H118.699V19.1H123.499V14.3Z" fill="#E0FFFB"/>
<path d="M194.499 76.675H189.699V81.475H194.499V76.675Z" fill="#E0FFFB"/>
<path d="M183.499 31.8H178.699V36.6H183.499V31.8Z" fill="#E0FFFB"/>
<path d="M4.79999 101.59H0V106.39H4.79999V101.59Z" fill="#E0FFFB"/>
<path d="M118.601 14.3H113.801V19.1H118.601V14.3Z" fill="#AA70CF"/>
<path d="M189.601 76.675H184.801V81.475H189.601V76.675Z" fill="#AA70CF"/>
<path d="M113.8 14.3H109V19.1H113.8V14.3Z" fill="#AA70CF"/>
<path d="M184.8 76.675H180V81.475H184.8V76.675Z" fill="#AA70CF"/>
<path d="M132.999 9.5H128.199V14.3H132.999V9.5Z" fill="#AA70CF"/>
<path d="M203.999 71.875H199.199V76.675H203.999V71.875Z" fill="#AA70CF"/>
<path d="M132.999 19.1001H128.199V23.9001H132.999V19.1001Z" fill="#AA70CF"/>
<path d="M123.402 9.5H118.602V14.3H123.402V9.5Z" fill="#AA70CF"/>
<path d="M194.402 71.875H189.602V76.675H194.402V71.875Z" fill="#AA70CF"/>
<path d="M128.198 9.5H123.398V14.3H128.198V9.5Z" fill="#E0FFFB"/>
<path d="M199.198 71.875H194.398V76.675H199.198V71.875Z" fill="#E0FFFB"/>
<path d="M188.198 27H183.398V31.8H188.198V27Z" fill="#E0FFFB"/>
<path d="M9.49921 96.79H4.69922V101.59H9.49921V96.79Z" fill="#E0FFFB"/>
<path d="M128.198 4.7002H123.398V9.50021H128.198V4.7002Z" fill="#AA70CF"/>
<path d="M199.198 67.0752H194.398V71.8752H199.198V67.0752Z" fill="#AA70CF"/>
<path d="M128.198 0H123.398V4.79999H128.198V0Z" fill="#AA70CF"/>
<path d="M199.198 62.375H194.398V67.175H199.198V62.375Z" fill="#AA70CF"/>
</svg>
