<svg width="108" height="113" viewBox="0 0 108 113" fill="none" xmlns="http://www.w3.org/2000/svg">
<path d="M42.9492 79.6365V106.178H54.7455V109.127H60.6436V106.178H66.5418V109.127H84.2478V106.178H87.1968V109.127H90.1459V106.178H96.044V109.127H98.9931V106.178H104.891V79.6365H42.9492Z" fill="#FDAE35"/>
<path d="M101.942 73.739H45.8981V53.0956H101.942V73.739ZM40 50.1465V76.6881H107.84V50.1465H40Z" fill="#FDAE35"/>
<path d="M78.3516 14.7455H107.842V11.7964H78.3516V14.7455Z" fill="#FDAE35"/>
<path d="M40 14.7459H69.4907V11.7969H40V14.7459Z" fill="#FDAE35"/>
<path d="M48.8477 79.6367V82.5858H51.7967V88.4839H48.8477V94.3821H51.7967V103.229H60.6439V100.28H63.593V103.229H69.4911V100.28H75.3893V103.229H84.2481V100.28H87.1971V103.229H96.0443V97.3311H98.9934V91.433H96.0443V82.5858H98.9934V79.6367H48.8477Z" fill="#733D3B"/>
<path d="M87.1971 35.3998H69.5027V32.4507H87.1971V35.3998ZM66.5536 35.3998H60.6555V32.4507H66.5536V35.3998ZM101.942 32.4507V26.5526H96.0443V23.6035H90.1462V26.5526H81.299V23.6035H78.3499V26.5526H72.4518V23.6035H63.6046V26.5526H54.7574V23.6035H48.8592V26.5526H45.9102V32.4507H51.8083V35.3998H45.9102V41.2979H51.8083V38.3489H63.6046V41.2979H69.5027V38.3489H84.248V41.2979H90.1462V38.3489H96.0443V41.2979H98.9934V44.247H101.942V35.3998H96.0443V32.4507H101.942Z" fill="#733D3B"/>
<path d="M87.1992 50.1463H96.0464V47.1973H87.1992V50.1463Z" fill="#BF4830"/>
<path d="M87.1992 47.1971H96.0464V44.248H87.1992V47.1971Z" fill="#BF4830"/>
<path d="M51.7969 47.1966H60.6441V44.2476H51.7969V47.1966Z" fill="#BF4830"/>
<path d="M51.7969 50.1456H60.6441V47.1965H51.7969V50.1456Z" fill="#BF4830"/>
<path d="M45.8984 20.6426V26.5407H48.8475V23.5916H54.7456V26.5407H63.5928V23.5916H72.44V26.5407H78.3498V23.5916H81.2989V26.5407H90.1461V23.5916H96.0442V26.5407H101.942V20.6426H45.8984Z" fill="#422632"/>
<path d="M96.043 35.4001H101.941V32.4395H96.043V35.4001Z" fill="#422632"/>
<path d="M96.043 91.4331H98.992V82.5859H96.043V91.4331Z" fill="#422632"/>
<path d="M96.043 103.228H98.992V97.3301H96.043V103.228Z" fill="#422632"/>
<path d="M84.2461 88.4839H87.1952V79.6367H84.2461V88.4839Z" fill="#422632"/>
<path d="M84.2461 103.23H87.1952V91.4336H84.2461V103.23Z" fill="#422632"/>
<path d="M96.0442 38.3496H90.1461V41.2987H84.2479V38.3496H69.491V41.2987H63.5928V38.3496H51.7966V41.2987H45.8984V47.1968H51.7966V44.2477H60.6438V47.1968H87.197V44.2477H96.0442V47.1968H101.942V41.2987H96.0442V38.3496Z" fill="#422632"/>
<path d="M69.4922 35.4006H87.1982V32.4399H69.4922V35.4006Z" fill="#422632"/>
<path d="M72.4413 100.28H69.4922V103.229H75.3903V94.3818H72.4413V100.28Z" fill="#422632"/>
<path d="M60.6445 35.4006H66.5427V32.4399H60.6445V35.4006Z" fill="#422632"/>
<path d="M60.6445 94.3818H63.5936V79.6365H60.6445V94.3818Z" fill="#422632"/>
<path d="M60.6445 103.229H63.5936V97.3308H60.6445V103.229Z" fill="#422632"/>
<path d="M45.8984 35.4001H51.7966V32.4395H45.8984V35.4001Z" fill="#422632"/>
<path d="M48.8477 88.4841H51.7967V82.5859H48.8477V88.4841Z" fill="#422632"/>
<path d="M48.8477 103.228H51.7967V94.3809H48.8477V103.228Z" fill="#422632"/>
<path d="M104.891 91.4331H107.84V82.5859H104.891V91.4331Z" fill="#F77622"/>
<path d="M40 79.6366H107.84V76.6875H40V79.6366Z" fill="#F77622"/>
<path d="M40 112.088H107.84V109.127H40V112.088Z" fill="#F77622"/>
<path d="M72.4414 94.3818H75.3905V88.4836H72.4414V94.3818Z" fill="#F77622"/>
<path d="M45.8984 73.7392H101.942V53.0957H45.8984V73.7392Z" fill="#BF4830"/>
<path d="M75.3888 11.7963H72.4397V5.89814H75.3888V11.7963ZM78.3379 14.7453V2.94907H75.3888V0H72.4397V2.94907H69.4907V14.7453H40V47.1851H45.8981V20.6435H101.942V47.1851H107.84V14.7453H78.3495H78.3379Z" fill="#F77622"/>
<path d="M40 91.4331H42.9491V82.5859H40V91.4331Z" fill="#F77622"/>
<path d="M104.894 103.229V106.178H98.9961V109.127H107.843V103.229H104.894Z" fill="#FEE861"/>
<path d="M72.4414 88.4837H75.3905V85.5347H72.4414V88.4837Z" fill="#FEE861"/>
<path d="M90.1484 109.127H96.0466V106.178H90.1484V109.127Z" fill="#FEE861"/>
<path d="M84.2461 109.127H87.1952V106.178H84.2461V109.127Z" fill="#FEE861"/>
<path d="M60.6445 109.127H66.5427V106.178H60.6445V109.127Z" fill="#FEE861"/>
<path d="M42.9491 103.229H40V109.127H54.7453V106.178H42.9491V103.229Z" fill="#FEE861"/>
<path d="M51.7964 73.7382H45.8983V67.8401H42.9492V76.6873H51.7964V73.7382Z" fill="#FEE861"/>
<path d="M107.843 67.8398H104.894V73.738H98.9961V76.687H107.843V67.8398Z" fill="#FEE861"/>
<path d="M45.8984 50.1463H51.7966V47.1973H45.8984V50.1463Z" fill="#F77622"/>
<path d="M96.043 50.1463H101.941V47.1973H96.043V50.1463Z" fill="#F77622"/>
<path d="M60.6445 50.1456H87.1978V47.1965H60.6445V50.1456Z" fill="#F77622"/>
<path d="M42.9492 82.5855H48.8474V79.6365H42.9492V82.5855Z" fill="#D77643"/>
<path d="M98.9961 82.5858H104.894V79.6367H98.9961V82.5858Z" fill="#D77643"/>
<path d="M48.8477 82.5858H98.9934V79.6367H48.8477V82.5858Z" fill="#422632"/>
<path d="M75.3905 44.2476H72.4414V56.0438H78.3511V47.1966H75.3905V44.2476Z" fill="#FDAE35"/>
<path d="M66.543 56.0438H69.492V44.2476H66.543V56.0438Z" fill="#F77622"/>
<path d="M69.4922 58.993H72.4413V56.0439H69.4922V58.993Z" fill="#F77622"/>
<path d="M69.4922 44.2477H72.4413V41.2986H69.4922V44.2477Z" fill="#F77622"/>
<path d="M75.3906 47.1966H78.3513V56.0438H81.3004V44.2476H75.3906V47.1966Z" fill="#F77622"/>
<path d="M69.4922 56.0438H72.4413V44.2476H69.4922V56.0438Z" fill="#FEE861"/>
<path d="M72.4414 58.993H81.3002V56.0439H72.4414V58.993Z" fill="#FEE861"/>
<path d="M72.4414 44.2477H81.3002V41.2986H72.4414V44.2477Z" fill="#FEE861"/>
<path d="M81.3008 56.0438H84.2499V44.2476H81.3008V56.0438Z" fill="#FEE861"/>
<path d="M20.3913 73H2.26682V75.2668H0V97.9216H2.26682V100.185H4.53029V102.452H18.1245V100.185H20.3913V97.9216H22.6548V75.2668H20.3913V73Z" fill="#2C73BF"/>
<path d="M2.26758 82.0606V91.1245H13.595V95.6548H9.06134V93.3913H2.26758V97.9216H4.53105V100.185H18.1253V97.9216H20.3921V88.8577H18.1253V86.5942H9.06134V84.3274H20.3921V79.7971H2.26758V82.0606Z" fill="#2C73BF"/>
<path d="M2.26758 77.5303V86.5942H13.595V91.1245H9.06134V88.8577H2.26758V93.3914H4.53105V95.6548H18.1253V93.3914H20.3921V84.3274H18.1253V82.0606H9.06134V79.7971H20.3921V75.2668H2.26758V77.5303Z" fill="#FFDA40"/>
</svg>
