<svg width="23" height="30" viewBox="0 0 23 30" fill="none" xmlns="http://www.w3.org/2000/svg">
<path d="M20.3913 0H2.26682V2.26682H0V24.9216H2.26682V27.1851H4.53029V29.4519H18.1245V27.1851H20.3913V24.9216H22.6548V2.26682H20.3913V0Z" fill="#2C73BF"/>
<path d="M2.26758 9.06059V18.1245H13.595V22.6548H9.06134V20.3913H2.26758V24.9216H4.53105V27.1851H18.1253V24.9216H20.3921V15.8577H18.1253V13.5942H9.06134V11.3274H20.3921V6.79712H2.26758V9.06059Z" fill="#2C73BF"/>
<path d="M2.26758 4.53031V13.5942H13.595V18.1245H9.06134V15.8577H2.26758V20.3914H4.53105V22.6548H18.1253V20.3914H20.3921V11.3274H18.1253V9.0606H9.06134V6.79714H20.3921V2.26685H2.26758V4.53031Z" fill="#FFDA40"/>
</svg>
