<svg width="658" height="346" viewBox="0 0 658 346" fill="none" xmlns="http://www.w3.org/2000/svg">
<g clip-path="url(#clip0)">
<path d="M332.777 233.242L332.777 212.387L330.589 212.387L330.589 233.242L332.777 233.242Z" fill="#9896FF"/>
<path d="M324.299 233.242L324.299 212.387L322.111 212.387L322.111 233.242L324.299 233.242Z" fill="#9896FF"/>
<path d="M315.753 233.242L315.753 212.387L313.566 212.387L313.566 233.242L315.753 233.242Z" fill="#9896FF"/>
<path d="M307.207 233.242L307.207 212.387L305.02 212.387L305.02 233.242L307.207 233.242Z" fill="#9896FF"/>
<path d="M298.73 233.242L298.73 212.387L296.542 212.387L296.542 233.242L298.73 233.242Z" fill="#9896FF"/>
<path d="M290.184 233.242L290.184 212.387L287.996 212.387L287.996 233.242L290.184 233.242Z" fill="#9896FF"/>
<path d="M281.638 233.242L281.638 212.387L279.45 212.387L279.45 233.242L281.638 233.242Z" fill="#9896FF"/>
<path d="M31.6867 70.2935L31.6867 68.1054L10.8347 68.1054L10.8347 70.2935L31.6867 70.2935Z" fill="#5552E1"/>
<path d="M31.6867 61.7461L31.6867 59.558L10.8347 59.558L10.8347 61.7461L31.6867 61.7461Z" fill="#5552E1"/>
<path d="M31.6867 53.2672L31.6867 51.079L10.8347 51.079L10.8347 53.2672L31.6867 53.2672Z" fill="#5552E1"/>
<path d="M31.6867 44.7197L31.6867 42.5316L10.8347 42.5316L10.8347 44.7197L31.6867 44.7197Z" fill="#5552E1"/>
<path d="M31.6867 36.1723L31.6867 33.9842L10.8347 33.9842L10.8347 36.1723L31.6867 36.1723Z" fill="#5552E1"/>
<path d="M31.6867 27.6249L31.6867 25.4367L10.8347 25.4367L10.8347 27.6249L31.6867 27.6249Z" fill="#5552E1"/>
<path d="M31.6867 19.146L31.6867 16.9578L10.8347 16.9578L10.8347 19.146L31.6867 19.146Z" fill="#5552E1"/>
<path d="M622.107 44.3096L622.107 23.4539L619.919 23.4539L619.919 44.3096L622.107 44.3096Z" fill="#9896FF"/>
<path d="M613.561 44.3096L613.561 23.4539L611.373 23.4539L611.373 44.3096L613.561 44.3096Z" fill="#9896FF"/>
<path d="M605.084 44.3096L605.084 23.4539L602.896 23.4539L602.896 44.3096L605.084 44.3096Z" fill="#9896FF"/>
<path d="M596.538 44.3096L596.538 23.4539L594.35 23.4539L594.35 44.3096L596.538 44.3096Z" fill="#9896FF"/>
<path d="M587.992 44.3096L587.992 23.4539L585.804 23.4539L585.804 44.3096L587.992 44.3096Z" fill="#9896FF"/>
<path d="M579.514 44.3096L579.514 23.4539L577.327 23.4539L577.327 44.3096L579.514 44.3096Z" fill="#9896FF"/>
<path d="M570.968 44.3096L570.968 23.4539L568.781 23.4539L568.781 44.3096L570.968 44.3096Z" fill="#9896FF"/>
<path d="M282.936 303.81L282.936 286.852L265.981 286.852L265.981 303.81L282.936 303.81Z" fill="#9896FF"/>
<path d="M255.18 303.81L255.18 286.852L238.225 286.852L238.225 303.81L255.18 303.81Z" fill="#9896FF"/>
<path d="M227.354 303.81L227.354 286.852L210.399 286.852L210.399 303.81L227.354 303.81Z" fill="#5552E1"/>
<path d="M516.138 37.5404L516.138 20.5823L499.182 20.5823L499.182 37.5404L516.138 37.5404Z" fill="#5552E1"/>
<path d="M516.138 62.4304L516.138 45.4723L499.182 45.4723L499.182 62.4304L516.138 62.4304Z" fill="#5552E1"/>
<path d="M516.138 87.2519L516.138 70.2938L499.182 70.2938L499.182 87.2519L516.138 87.2519Z" fill="#9896FF"/>
<path d="M516.138 112.074L516.138 95.1159L499.182 95.1159L499.182 112.074L516.138 112.074Z" fill="#9896FF"/>
<path d="M516.138 136.896L516.138 119.937L499.182 119.937L499.182 136.896L516.138 136.896Z" fill="#9896FF"/>
<path d="M502.874 181.761L501.666 180.552L494.801 187.418L496.01 188.626L502.874 181.761Z" fill="#9896FF"/>
<path d="M487.083 197.561L485.874 196.353L479.01 203.218L480.218 204.427L487.083 197.561Z" fill="#9896FF"/>
<path d="M502.832 203.21L495.968 196.344L494.759 197.553L501.624 204.419L502.832 203.21Z" fill="#9896FF"/>
<path d="M487.084 187.377L480.219 180.511L479.01 181.72L485.875 188.586L487.084 187.377Z" fill="#9896FF"/>
<path d="M473.808 181.74L472.6 180.531L465.735 187.397L466.944 188.606L473.808 181.74Z" fill="#5552E1"/>
<path d="M458.026 197.54L456.817 196.331L449.953 203.197L451.161 204.406L458.026 197.54Z" fill="#5552E1"/>
<path d="M473.768 203.19L466.903 196.324L465.695 197.533L472.559 204.398L473.768 203.19Z" fill="#5552E1"/>
<path d="M457.971 187.405L451.106 180.539L449.897 181.748L456.762 188.614L457.971 187.405Z" fill="#5552E1"/>
<path d="M444.697 181.768L443.488 180.559L436.624 187.425L437.832 188.634L444.697 181.768Z" fill="#9896FF"/>
<path d="M428.953 197.519L427.744 196.31L420.88 203.176L422.088 204.384L428.953 197.519Z" fill="#9896FF"/>
<path d="M444.703 203.169L437.838 196.303L436.63 197.512L443.494 204.378L444.703 203.169Z" fill="#9896FF"/>
<path d="M428.906 187.384L422.041 180.518L420.833 181.727L427.697 188.592L428.906 187.384Z" fill="#9896FF"/>
<path d="M85.0063 136.357L83.7977 135.148L76.9331 142.014L78.1416 143.223L85.0063 136.357Z" fill="#9896FF"/>
<path d="M69.2267 152.158L68.0182 150.949L61.1536 157.815L62.3621 159.024L69.2267 152.158Z" fill="#9896FF"/>
<path d="M84.968 157.808L78.1033 150.942L76.8947 152.151L83.7594 159.017L84.968 157.808Z" fill="#9896FF"/>
<path d="M69.2194 141.974L62.3547 135.109L61.1461 136.317L68.0108 143.183L69.2194 141.974Z" fill="#9896FF"/>
<path d="M235.558 171.359L255.18 160.008L255.18 182.641L235.558 171.359ZM251.556 166.367L242.874 171.427L251.556 176.419L251.556 166.367Z" fill="#9896FF"/>
<path d="M207.937 171.359L229.268 159.051L229.268 183.736L207.937 171.359ZM228.106 161.034L210.262 171.359L228.106 181.684L228.106 161.034ZM215.184 171.359L225.644 165.342L225.644 177.376L215.184 171.359ZM224.482 167.325L217.509 171.359L224.482 175.393L224.482 167.325Z" fill="#5552E1"/>
<path d="M50.351 318.512L49.8725 318.033L45.0184 318.033L50.351 323.366L50.351 318.512Z" fill="#5552E1"/>
<path d="M50.351 328.153L40.2327 318.033L35.3786 318.033L50.351 333.008L50.351 328.153Z" fill="#5552E1"/>
<path d="M50.351 359.402L50.351 356.941L11.4501 318.033L8.98886 318.033L8.98886 320.426L47.9582 359.402L50.351 359.402Z" fill="#5552E1"/>
<path d="M23.9611 359.403L8.98865 344.427L8.98865 349.282L19.107 359.403L23.9611 359.403Z" fill="#5552E1"/>
<path d="M33.6011 359.402L8.98883 334.786L8.98883 339.641L28.747 359.402L33.6011 359.402Z" fill="#5552E1"/>
<path d="M50.351 347.368L21.0215 318.033L16.1674 318.033L50.351 352.223L50.351 347.368Z" fill="#5552E1"/>
<path d="M43.1725 359.402L8.98883 325.213L8.98883 330.068L38.3184 359.402L43.1725 359.402Z" fill="#5552E1"/>
<path d="M50.351 337.726L30.6613 318.033L25.8072 318.033L50.351 342.581L50.351 337.726Z" fill="#5552E1"/>
<path d="M50.351 318.033L49.8725 318.033L50.351 318.512L50.351 318.033Z" fill="#5552E1"/>
<path d="M351.304 0.547017L350.757 -1.90974e-05L345.903 -1.93096e-05L351.304 5.33358L351.304 0.547017Z" fill="#5552E1"/>
<path d="M351.304 10.1201L341.185 -1.95158e-05L336.331 -1.9728e-05L351.304 14.9751L351.304 10.1201Z" fill="#5552E1"/>
<path d="M351.304 41.3695L351.304 38.9763L312.334 -2.07769e-05L309.941 -2.08815e-05L309.941 2.39326L348.842 41.3695L351.304 41.3695Z" fill="#5552E1"/>
<path d="M324.914 41.3697L309.941 26.3946L309.941 31.2495L320.06 41.3697L324.914 41.3697Z" fill="#5552E1"/>
<path d="M315.274 41.3698L309.941 36.0362L309.941 40.8911L310.42 41.3698L315.274 41.3698Z" fill="#5552E1"/>
<path d="M334.485 41.3697L309.941 16.8214L309.941 21.6764L329.631 41.3697L334.485 41.3697Z" fill="#5552E1"/>
<path d="M351.304 29.3348L321.974 -2.03555e-05L317.12 -2.05677e-05L351.304 34.1897L351.304 29.3348Z" fill="#5552E1"/>
<path d="M344.125 41.3695L309.941 7.17982L309.941 12.0348L339.271 41.3695L344.125 41.3695Z" fill="#5552E1"/>
<path d="M351.304 19.7616L331.546 -1.99371e-05L326.691 -2.01493e-05L351.304 24.6166L351.304 19.7616Z" fill="#5552E1"/>
<path d="M351.304 -1.90735e-05L350.757 -1.90974e-05L351.304 0.547017L351.304 -1.90735e-05Z" fill="#5552E1"/>
<path d="M310.42 41.3693L309.942 40.8906L309.942 41.3693L310.42 41.3693Z" fill="#5552E1"/>
<path d="M465.888 274.954C465.819 274.612 465.751 274.27 465.614 273.928C465.546 274.065 465.546 274.202 465.546 274.27C465.546 274.544 465.682 274.749 465.888 274.954Z" fill="#5552E1"/>
<path d="M465.546 280.287C465.546 280.766 465.956 281.176 466.435 281.176C466.503 281.176 466.64 281.176 466.708 281.108C466.64 280.492 466.64 279.945 466.571 279.33C466.503 279.33 466.503 279.33 466.435 279.33C465.956 279.33 465.546 279.74 465.546 280.287Z" fill="#5552E1"/>
<path d="M465.546 286.305C465.546 286.784 465.956 287.194 466.435 287.194C466.503 287.194 466.503 287.194 466.571 287.194C466.64 286.647 466.708 286.032 466.708 285.416C466.64 285.348 466.503 285.348 466.435 285.348C465.956 285.416 465.546 285.758 465.546 286.305Z" fill="#5552E1"/>
<path d="M465.614 292.664C465.682 292.322 465.819 291.98 465.888 291.57C465.682 291.707 465.546 291.98 465.546 292.254C465.546 292.459 465.614 292.595 465.614 292.664Z" fill="#5552E1"/>
<path d="M462.743 266.133C462.538 265.654 462.265 265.244 461.991 264.765C461.923 264.902 461.854 265.039 461.854 265.244C461.854 265.723 462.265 266.065 462.743 266.133Z" fill="#5552E1"/>
<path d="M463.7 271.261C463.7 270.782 463.29 270.372 462.811 270.372C462.333 270.372 461.923 270.782 461.923 271.261C461.923 271.74 462.333 272.15 462.811 272.15C463.29 272.15 463.7 271.74 463.7 271.261Z" fill="#5552E1"/>
<path d="M463.7 277.279C463.7 276.8 463.29 276.39 462.811 276.39C462.333 276.39 461.923 276.8 461.923 277.279C461.923 277.758 462.333 278.168 462.811 278.168C463.29 278.168 463.7 277.758 463.7 277.279Z" fill="#5552E1"/>
<path d="M463.7 283.296C463.7 282.817 463.29 282.407 462.811 282.407C462.333 282.407 461.923 282.817 461.923 283.296C461.923 283.775 462.333 284.185 462.811 284.185C463.29 284.185 463.7 283.775 463.7 283.296Z" fill="#5552E1"/>
<path d="M463.7 289.314C463.7 288.835 463.29 288.425 462.811 288.425C462.333 288.425 461.923 288.835 461.923 289.314C461.923 289.792 462.333 290.203 462.811 290.203C463.29 290.203 463.7 289.792 463.7 289.314Z" fill="#5552E1"/>
<path d="M463.7 295.331C463.7 294.852 463.29 294.442 462.811 294.442C462.333 294.442 461.923 294.852 461.923 295.331C461.923 295.81 462.333 296.22 462.811 296.22C463.29 296.22 463.7 295.81 463.7 295.331Z" fill="#5552E1"/>
<path d="M461.854 301.348C461.854 301.485 461.923 301.69 461.991 301.827C462.265 301.348 462.47 300.938 462.743 300.459C462.265 300.459 461.854 300.869 461.854 301.348Z" fill="#5552E1"/>
<path d="M459.461 262.235C459.461 261.757 459.051 261.346 458.572 261.346C458.094 261.346 457.684 261.757 457.684 262.235C457.684 262.714 458.094 263.124 458.572 263.124C459.051 263.124 459.461 262.714 459.461 262.235Z" fill="#5552E1"/>
<path d="M459.461 268.253C459.461 267.774 459.051 267.364 458.572 267.364C458.094 267.364 457.684 267.774 457.684 268.253C457.684 268.731 458.094 269.141 458.572 269.141C459.051 269.141 459.461 268.731 459.461 268.253Z" fill="#5552E1"/>
<path d="M459.461 274.27C459.461 273.792 459.051 273.381 458.572 273.381C458.094 273.381 457.684 273.792 457.684 274.27C457.684 274.749 458.094 275.159 458.572 275.159C459.051 275.159 459.461 274.749 459.461 274.27Z" fill="#5552E1"/>
<path d="M458.513 281.171C459.004 281.177 459.406 280.783 459.412 280.292C459.417 279.801 459.023 279.399 458.533 279.393C458.042 279.388 457.64 279.782 457.634 280.272C457.629 280.763 458.022 281.166 458.513 281.171Z" fill="#5552E1"/>
<path d="M457.624 286.302C457.629 286.793 458.031 287.187 458.522 287.182C459.013 287.176 459.407 286.774 459.401 286.283C459.396 285.793 458.994 285.399 458.503 285.404C458.013 285.409 457.619 285.811 457.624 286.302Z" fill="#5552E1"/>
<path d="M459.461 292.322C459.461 291.844 459.051 291.433 458.572 291.433C458.094 291.433 457.684 291.844 457.684 292.322C457.684 292.801 458.094 293.211 458.572 293.211C459.051 293.211 459.461 292.801 459.461 292.322Z" fill="#5552E1"/>
<path d="M459.461 298.339C459.461 297.861 459.051 297.451 458.572 297.451C458.094 297.451 457.684 297.861 457.684 298.339C457.684 298.818 458.094 299.228 458.572 299.228C459.051 299.228 459.461 298.818 459.461 298.339Z" fill="#5552E1"/>
<path d="M457.615 304.357C457.615 304.848 458.013 305.246 458.504 305.246C458.995 305.246 459.393 304.848 459.393 304.357C459.393 303.866 458.995 303.468 458.504 303.468C458.013 303.468 457.615 303.866 457.615 304.357Z" fill="#5552E1"/>
<path d="M455.701 259.158C455.701 258.68 455.291 258.269 454.812 258.269C454.334 258.269 453.923 258.68 453.923 259.158C453.923 259.637 454.334 260.047 454.812 260.047C455.359 260.116 455.701 259.705 455.701 259.158Z" fill="#5552E1"/>
<path d="M455.701 265.244C455.701 264.765 455.291 264.355 454.812 264.355C454.334 264.355 453.923 264.765 453.923 265.244C453.923 265.723 454.334 266.133 454.812 266.133C455.359 266.133 455.701 265.723 455.701 265.244Z" fill="#5552E1"/>
<path d="M455.701 271.261C455.701 270.782 455.291 270.372 454.812 270.372C454.334 270.372 453.923 270.782 453.923 271.261C453.923 271.74 454.334 272.15 454.812 272.15C455.359 272.15 455.701 271.74 455.701 271.261Z" fill="#5552E1"/>
<path d="M455.701 277.279C455.701 276.8 455.291 276.39 454.812 276.39C454.334 276.39 453.923 276.8 453.923 277.279C453.923 277.758 454.334 278.168 454.812 278.168C455.359 278.168 455.701 277.758 455.701 277.279Z" fill="#5552E1"/>
<path d="M455.701 283.296C455.701 282.817 455.291 282.407 454.812 282.407C454.334 282.407 453.923 282.817 453.923 283.296C453.923 283.775 454.334 284.185 454.812 284.185C455.359 284.185 455.701 283.775 455.701 283.296Z" fill="#5552E1"/>
<path d="M455.701 289.314C455.701 288.835 455.291 288.425 454.812 288.425C454.334 288.425 453.923 288.835 453.923 289.314C453.923 289.792 454.334 290.203 454.812 290.203C455.359 290.203 455.701 289.792 455.701 289.314Z" fill="#5552E1"/>
<path d="M455.701 295.331C455.701 294.852 455.291 294.442 454.812 294.442C454.334 294.442 453.923 294.852 453.923 295.331C453.923 295.81 454.334 296.22 454.812 296.22C455.359 296.22 455.701 295.81 455.701 295.331Z" fill="#5552E1"/>
<path d="M455.701 301.348C455.701 300.869 455.291 300.459 454.812 300.459C454.334 300.459 453.923 300.869 453.923 301.348C453.923 301.827 454.334 302.237 454.812 302.237C455.359 302.237 455.701 301.827 455.701 301.348Z" fill="#5552E1"/>
<path d="M455.701 307.366C455.701 306.887 455.291 306.477 454.812 306.477C454.334 306.477 453.923 306.887 453.923 307.366C453.923 307.844 454.334 308.255 454.812 308.255C455.359 308.323 455.701 307.913 455.701 307.366Z" fill="#5552E1"/>
<path d="M451.462 256.15C451.462 255.671 451.052 255.261 450.574 255.261C450.095 255.261 449.685 255.671 449.685 256.15C449.685 256.628 450.095 257.039 450.574 257.039C451.052 257.107 451.462 256.697 451.462 256.15Z" fill="#5552E1"/>
<path d="M451.462 262.235C451.462 261.757 451.052 261.346 450.574 261.346C450.095 261.346 449.685 261.757 449.685 262.235C449.685 262.714 450.095 263.124 450.574 263.124C451.052 263.124 451.462 262.714 451.462 262.235Z" fill="#5552E1"/>
<path d="M451.462 268.253C451.462 267.774 451.052 267.364 450.574 267.364C450.095 267.364 449.685 267.774 449.685 268.253C449.685 268.731 450.095 269.141 450.574 269.141C451.052 269.141 451.462 268.731 451.462 268.253Z" fill="#5552E1"/>
<path d="M451.462 274.27C451.462 273.792 451.052 273.381 450.574 273.381C450.095 273.381 449.685 273.792 449.685 274.27C449.685 274.749 450.095 275.159 450.574 275.159C451.052 275.159 451.462 274.749 451.462 274.27Z" fill="#5552E1"/>
<path d="M449.684 280.301C449.691 280.792 450.095 281.184 450.586 281.177C451.077 281.17 451.469 280.766 451.462 280.275C451.455 279.784 451.051 279.392 450.56 279.399C450.07 279.406 449.677 279.81 449.684 280.301Z" fill="#5552E1"/>
<path d="M450.571 287.188C451.062 287.196 451.465 286.804 451.473 286.313C451.48 285.822 451.088 285.418 450.598 285.411C450.107 285.403 449.703 285.795 449.696 286.286C449.688 286.777 450.08 287.181 450.571 287.188Z" fill="#5552E1"/>
<path d="M451.462 292.322C451.462 291.844 451.052 291.433 450.574 291.433C450.095 291.433 449.685 291.844 449.685 292.322C449.685 292.801 450.095 293.211 450.574 293.211C451.052 293.211 451.462 292.801 451.462 292.322Z" fill="#5552E1"/>
<path d="M451.462 298.339C451.462 297.861 451.052 297.451 450.574 297.451C450.095 297.451 449.685 297.861 449.685 298.339C449.685 298.818 450.095 299.228 450.574 299.228C451.052 299.228 451.462 298.818 451.462 298.339Z" fill="#5552E1"/>
<path d="M449.685 304.357C449.685 304.848 450.083 305.246 450.574 305.246C451.065 305.246 451.462 304.848 451.462 304.357C451.462 303.866 451.065 303.468 450.574 303.468C450.083 303.468 449.685 303.866 449.685 304.357Z" fill="#5552E1"/>
<path d="M451.462 310.374C451.462 309.896 451.052 309.485 450.574 309.485C450.095 309.485 449.685 309.896 449.685 310.374C449.685 310.853 450.095 311.263 450.574 311.263C451.052 311.332 451.462 310.921 451.462 310.374Z" fill="#5552E1"/>
<path d="M447.77 253.141C447.77 252.662 447.36 252.252 446.881 252.252C446.403 252.252 445.993 252.662 445.993 253.141C445.993 253.619 446.403 254.03 446.881 254.03C447.36 254.098 447.77 253.688 447.77 253.141Z" fill="#5552E1"/>
<path d="M447.77 259.158C447.77 258.68 447.36 258.269 446.881 258.269C446.403 258.269 445.993 258.68 445.993 259.158C445.993 259.637 446.403 260.047 446.881 260.047C447.36 260.116 447.77 259.705 447.77 259.158Z" fill="#5552E1"/>
<path d="M447.77 265.244C447.77 264.765 447.36 264.355 446.881 264.355C446.403 264.355 445.993 264.765 445.993 265.244C445.993 265.723 446.403 266.133 446.881 266.133C447.36 266.133 447.77 265.723 447.77 265.244Z" fill="#5552E1"/>
<path d="M447.77 271.261C447.77 270.782 447.36 270.372 446.881 270.372C446.403 270.372 445.993 270.782 445.993 271.261C445.993 271.74 446.403 272.15 446.881 272.15C447.36 272.15 447.77 271.74 447.77 271.261Z" fill="#5552E1"/>
<path d="M447.77 277.279C447.77 276.8 447.36 276.39 446.881 276.39C446.403 276.39 445.993 276.8 445.993 277.279C445.993 277.758 446.403 278.168 446.881 278.168C447.36 278.168 447.77 277.758 447.77 277.279Z" fill="#5552E1"/>
<path d="M447.77 283.296C447.77 282.817 447.36 282.407 446.881 282.407C446.403 282.407 445.993 282.817 445.993 283.296C445.993 283.775 446.403 284.185 446.881 284.185C447.36 284.185 447.77 283.775 447.77 283.296Z" fill="#5552E1"/>
<path d="M447.77 289.314C447.77 288.835 447.36 288.425 446.881 288.425C446.403 288.425 445.993 288.835 445.993 289.314C445.993 289.792 446.403 290.203 446.881 290.203C447.36 290.203 447.77 289.792 447.77 289.314Z" fill="#5552E1"/>
<path d="M447.77 295.331C447.77 294.852 447.36 294.442 446.881 294.442C446.403 294.442 445.993 294.852 445.993 295.331C445.993 295.81 446.403 296.22 446.881 296.22C447.36 296.22 447.77 295.81 447.77 295.331Z" fill="#5552E1"/>
<path d="M447.77 301.348C447.77 300.869 447.36 300.459 446.881 300.459C446.403 300.459 445.993 300.869 445.993 301.348C445.993 301.827 446.403 302.237 446.881 302.237C447.36 302.237 447.77 301.827 447.77 301.348Z" fill="#5552E1"/>
<path d="M447.77 307.366C447.77 306.887 447.36 306.477 446.881 306.477C446.403 306.477 445.993 306.887 445.993 307.366C445.993 307.844 446.403 308.255 446.881 308.255C447.36 308.323 447.77 307.913 447.77 307.366Z" fill="#5552E1"/>
<path d="M447.77 313.383C447.77 312.904 447.36 312.494 446.881 312.494C446.403 312.494 445.993 312.904 445.993 313.383C445.993 313.862 446.403 314.272 446.881 314.272C447.36 314.34 447.77 313.93 447.77 313.383Z" fill="#5552E1"/>
<path d="M443.532 250.132C443.532 249.653 443.122 249.243 442.643 249.243C442.164 249.243 441.754 249.653 441.754 250.132C441.754 250.611 442.164 251.021 442.643 251.021C443.122 251.089 443.532 250.679 443.532 250.132Z" fill="#5552E1"/>
<path d="M443.532 256.15C443.532 255.671 443.122 255.261 442.643 255.261C442.164 255.261 441.754 255.671 441.754 256.15C441.754 256.628 442.164 257.039 442.643 257.039C443.122 257.107 443.532 256.697 443.532 256.15Z" fill="#5552E1"/>
<path d="M443.532 262.235C443.532 261.757 443.122 261.346 442.643 261.346C442.164 261.346 441.754 261.757 441.754 262.235C441.754 262.714 442.164 263.124 442.643 263.124C443.122 263.124 443.532 262.714 443.532 262.235Z" fill="#5552E1"/>
<path d="M443.532 268.253C443.532 267.774 443.122 267.364 442.643 267.364C442.164 267.364 441.754 267.774 441.754 268.253C441.754 268.731 442.164 269.141 442.643 269.141C443.122 269.141 443.532 268.731 443.532 268.253Z" fill="#5552E1"/>
<path d="M443.532 274.27C443.532 273.792 443.122 273.381 442.643 273.381C442.164 273.381 441.754 273.792 441.754 274.27C441.754 274.749 442.164 275.159 442.643 275.159C443.122 275.159 443.532 274.749 443.532 274.27Z" fill="#5552E1"/>
<path d="M443.532 280.287C443.532 279.809 443.122 279.399 442.643 279.399C442.164 279.399 441.754 279.809 441.754 280.287C441.754 280.766 442.164 281.176 442.643 281.176C443.122 281.176 443.532 280.766 443.532 280.287Z" fill="#5552E1"/>
<path d="M443.532 286.305C443.532 285.826 443.122 285.416 442.643 285.416C442.164 285.416 441.754 285.826 441.754 286.305C441.754 286.783 442.164 287.194 442.643 287.194C443.122 287.194 443.532 286.783 443.532 286.305Z" fill="#5552E1"/>
<path d="M443.532 292.322C443.532 291.844 443.122 291.433 442.643 291.433C442.164 291.433 441.754 291.844 441.754 292.322C441.754 292.801 442.164 293.211 442.643 293.211C443.122 293.211 443.532 292.801 443.532 292.322Z" fill="#5552E1"/>
<path d="M443.532 298.339C443.532 297.861 443.122 297.451 442.643 297.451C442.164 297.451 441.754 297.861 441.754 298.339C441.754 298.818 442.164 299.228 442.643 299.228C443.122 299.228 443.532 298.818 443.532 298.339Z" fill="#5552E1"/>
<path d="M443.532 304.357C443.532 303.879 443.122 303.468 442.643 303.468C442.164 303.468 441.754 303.879 441.754 304.357C441.754 304.836 442.164 305.246 442.643 305.246C443.122 305.246 443.532 304.904 443.532 304.357Z" fill="#5552E1"/>
<path d="M443.532 310.374C443.532 309.896 443.122 309.485 442.643 309.485C442.164 309.485 441.754 309.896 441.754 310.374C441.754 310.853 442.164 311.263 442.643 311.263C443.122 311.332 443.532 310.921 443.532 310.374Z" fill="#5552E1"/>
<path d="M443.532 316.392C443.532 315.913 443.122 315.503 442.643 315.503C442.164 315.503 441.754 315.913 441.754 316.392C441.754 316.87 442.164 317.28 442.643 317.28C443.122 317.349 443.532 316.939 443.532 316.392Z" fill="#5552E1"/>
<path d="M438.951 248.081C439.43 248.081 439.84 247.67 439.84 247.192C439.84 247.123 439.84 247.055 439.772 246.987C439.293 246.85 438.746 246.713 438.268 246.576C438.131 246.713 437.994 246.987 437.994 247.192C437.994 247.67 438.404 248.081 438.951 248.081Z" fill="#5552E1"/>
<path d="M439.84 253.141C439.84 252.662 439.43 252.252 438.951 252.252C438.473 252.252 438.062 252.662 438.062 253.141C438.062 253.619 438.473 254.03 438.951 254.03C439.43 254.098 439.84 253.688 439.84 253.141Z" fill="#5552E1"/>
<path d="M439.84 259.158C439.84 258.68 439.43 258.269 438.951 258.269C438.473 258.269 438.062 258.68 438.062 259.158C438.062 259.637 438.473 260.047 438.951 260.047C439.43 260.116 439.84 259.705 439.84 259.158Z" fill="#5552E1"/>
<path d="M439.84 265.244C439.84 264.765 439.43 264.355 438.951 264.355C438.473 264.355 438.062 264.765 438.062 265.244C438.062 265.723 438.473 266.133 438.951 266.133C439.43 266.133 439.84 265.723 439.84 265.244Z" fill="#5552E1"/>
<path d="M439.84 271.261C439.84 270.782 439.43 270.372 438.951 270.372C438.473 270.372 438.062 270.782 438.062 271.261C438.062 271.74 438.473 272.15 438.951 272.15C439.43 272.15 439.84 271.74 439.84 271.261Z" fill="#5552E1"/>
<path d="M439.84 277.279C439.84 276.8 439.43 276.39 438.951 276.39C438.473 276.39 438.062 276.8 438.062 277.279C438.062 277.758 438.473 278.168 438.951 278.168C439.43 278.168 439.84 277.758 439.84 277.279Z" fill="#5552E1"/>
<path d="M439.84 283.296C439.84 282.817 439.43 282.407 438.951 282.407C438.473 282.407 438.062 282.817 438.062 283.296C438.062 283.775 438.473 284.185 438.951 284.185C439.43 284.185 439.84 283.775 439.84 283.296Z" fill="#5552E1"/>
<path d="M439.84 289.314C439.84 288.835 439.43 288.425 438.951 288.425C438.473 288.425 438.062 288.835 438.062 289.314C438.062 289.792 438.473 290.203 438.951 290.203C439.43 290.203 439.84 289.792 439.84 289.314Z" fill="#5552E1"/>
<path d="M439.84 295.331C439.84 294.852 439.43 294.442 438.951 294.442C438.473 294.442 438.062 294.852 438.062 295.331C438.062 295.81 438.473 296.22 438.951 296.22C439.43 296.22 439.84 295.81 439.84 295.331Z" fill="#5552E1"/>
<path d="M439.84 301.348C439.84 300.869 439.43 300.459 438.951 300.459C438.473 300.459 438.062 300.869 438.062 301.348C438.062 301.827 438.473 302.237 438.951 302.237C439.43 302.237 439.84 301.827 439.84 301.348Z" fill="#5552E1"/>
<path d="M439.84 307.366C439.84 306.887 439.43 306.477 438.951 306.477C438.473 306.477 438.062 306.887 438.062 307.366C438.062 307.844 438.473 308.255 438.951 308.255C439.43 308.323 439.84 307.913 439.84 307.366Z" fill="#5552E1"/>
<path d="M439.84 313.383C439.84 312.904 439.43 312.494 438.951 312.494C438.473 312.494 438.062 312.904 438.062 313.383C438.062 313.862 438.473 314.272 438.951 314.272C439.43 314.34 439.84 313.93 439.84 313.383Z" fill="#5552E1"/>
<path d="M437.994 319.401C437.994 319.674 438.062 319.879 438.268 320.016C438.815 319.879 439.293 319.743 439.772 319.606C439.772 319.538 439.84 319.469 439.84 319.401C439.84 318.922 439.43 318.512 438.951 318.512C438.404 318.512 437.994 318.922 437.994 319.401Z" fill="#5552E1"/>
<path d="M435.601 250.132C435.601 249.653 435.191 249.243 434.712 249.243C434.234 249.243 433.823 249.653 433.823 250.132C433.823 250.611 434.234 251.021 434.712 251.021C435.191 251.089 435.601 250.679 435.601 250.132Z" fill="#5552E1"/>
<path d="M435.601 256.15C435.601 255.671 435.191 255.261 434.712 255.261C434.234 255.261 433.823 255.671 433.823 256.15C433.823 256.628 434.234 257.039 434.712 257.039C435.191 257.107 435.601 256.697 435.601 256.15Z" fill="#5552E1"/>
<path d="M435.601 262.235C435.601 261.757 435.191 261.346 434.712 261.346C434.234 261.346 433.823 261.757 433.823 262.235C433.823 262.714 434.234 263.124 434.712 263.124C435.191 263.124 435.601 262.714 435.601 262.235Z" fill="#5552E1"/>
<path d="M435.601 268.253C435.601 267.774 435.191 267.364 434.712 267.364C434.234 267.364 433.823 267.774 433.823 268.253C433.823 268.731 434.234 269.141 434.712 269.141C435.191 269.141 435.601 268.731 435.601 268.253Z" fill="#5552E1"/>
<path d="M435.601 274.27C435.601 273.792 435.191 273.381 434.712 273.381C434.234 273.381 433.823 273.792 433.823 274.27C433.823 274.749 434.234 275.159 434.712 275.159C435.191 275.159 435.601 274.749 435.601 274.27Z" fill="#5552E1"/>
<path d="M435.601 280.287C435.601 279.809 435.191 279.399 434.712 279.399C434.234 279.399 433.823 279.809 433.823 280.287C433.823 280.766 434.234 281.176 434.712 281.176C435.191 281.176 435.601 280.766 435.601 280.287Z" fill="#5552E1"/>
<path d="M435.601 286.305C435.601 285.826 435.191 285.416 434.712 285.416C434.234 285.416 433.823 285.826 433.823 286.305C433.823 286.783 434.234 287.194 434.712 287.194C435.191 287.194 435.601 286.783 435.601 286.305Z" fill="#5552E1"/>
<path d="M435.601 292.322C435.601 291.844 435.191 291.433 434.712 291.433C434.234 291.433 433.823 291.844 433.823 292.322C433.823 292.801 434.234 293.211 434.712 293.211C435.191 293.211 435.601 292.801 435.601 292.322Z" fill="#5552E1"/>
<path d="M435.601 298.339C435.601 297.861 435.191 297.451 434.712 297.451C434.234 297.451 433.823 297.861 433.823 298.339C433.823 298.818 434.234 299.228 434.712 299.228C435.191 299.228 435.601 298.818 435.601 298.339Z" fill="#5552E1"/>
<path d="M435.601 304.357C435.601 303.879 435.191 303.468 434.712 303.468C434.234 303.468 433.823 303.879 433.823 304.357C433.823 304.836 434.234 305.246 434.712 305.246C435.191 305.246 435.601 304.904 435.601 304.357Z" fill="#5552E1"/>
<path d="M435.601 310.374C435.601 309.896 435.191 309.485 434.712 309.485C434.234 309.485 433.823 309.896 433.823 310.374C433.823 310.853 434.234 311.263 434.712 311.263C435.191 311.332 435.601 310.921 435.601 310.374Z" fill="#5552E1"/>
<path d="M435.601 316.392C435.601 315.913 435.191 315.503 434.712 315.503C434.234 315.503 433.823 315.913 433.823 316.392C433.823 316.87 434.234 317.28 434.712 317.28C435.191 317.349 435.601 316.939 435.601 316.392Z" fill="#5552E1"/>
<path d="M431.909 247.123C431.909 246.645 431.499 246.234 431.021 246.234C430.542 246.234 430.132 246.645 430.132 247.123C430.132 247.602 430.542 248.012 431.021 248.012C431.499 248.081 431.909 247.67 431.909 247.123Z" fill="#5552E1"/>
<path d="M431.909 253.141C431.909 252.662 431.499 252.252 431.021 252.252C430.542 252.252 430.132 252.662 430.132 253.141C430.132 253.619 430.542 254.03 431.021 254.03C431.499 254.098 431.909 253.688 431.909 253.141Z" fill="#5552E1"/>
<path d="M431.909 259.158C431.909 258.68 431.499 258.269 431.021 258.269C430.542 258.269 430.132 258.68 430.132 259.158C430.132 259.637 430.542 260.047 431.021 260.047C431.499 260.116 431.909 259.705 431.909 259.158Z" fill="#5552E1"/>
<path d="M431.909 265.244C431.909 264.765 431.499 264.355 431.021 264.355C430.542 264.355 430.132 264.765 430.132 265.244C430.132 265.723 430.542 266.133 431.021 266.133C431.499 266.133 431.909 265.723 431.909 265.244Z" fill="#5552E1"/>
<path d="M431.909 271.261C431.909 270.782 431.499 270.372 431.021 270.372C430.542 270.372 430.132 270.782 430.132 271.261C430.132 271.74 430.542 272.15 431.021 272.15C431.499 272.15 431.909 271.74 431.909 271.261Z" fill="#5552E1"/>
<path d="M431.909 277.279C431.909 276.8 431.499 276.39 431.021 276.39C430.542 276.39 430.132 276.8 430.132 277.279C430.132 277.758 430.542 278.168 431.021 278.168C431.499 278.168 431.909 277.758 431.909 277.279Z" fill="#5552E1"/>
<path d="M431.909 283.296C431.909 282.817 431.499 282.407 431.021 282.407C430.542 282.407 430.132 282.817 430.132 283.296C430.132 283.775 430.542 284.185 431.021 284.185C431.499 284.185 431.909 283.775 431.909 283.296Z" fill="#5552E1"/>
<path d="M431.909 289.314C431.909 288.835 431.499 288.425 431.021 288.425C430.542 288.425 430.132 288.835 430.132 289.314C430.132 289.792 430.542 290.203 431.021 290.203C431.499 290.203 431.909 289.792 431.909 289.314Z" fill="#5552E1"/>
<path d="M431.909 295.331C431.909 294.852 431.499 294.442 431.021 294.442C430.542 294.442 430.132 294.852 430.132 295.331C430.132 295.81 430.542 296.22 431.021 296.22C431.499 296.22 431.909 295.81 431.909 295.331Z" fill="#5552E1"/>
<path d="M431.909 301.348C431.909 300.869 431.499 300.459 431.021 300.459C430.542 300.459 430.132 300.869 430.132 301.348C430.132 301.827 430.542 302.237 431.021 302.237C431.499 302.237 431.909 301.827 431.909 301.348Z" fill="#5552E1"/>
<path d="M431.909 307.366C431.909 306.887 431.499 306.477 431.021 306.477C430.542 306.477 430.132 306.887 430.132 307.366C430.132 307.844 430.542 308.255 431.021 308.255C431.499 308.323 431.909 307.913 431.909 307.366Z" fill="#5552E1"/>
<path d="M431.909 313.383C431.909 312.904 431.499 312.494 431.021 312.494C430.542 312.494 430.132 312.904 430.132 313.383C430.132 313.862 430.542 314.272 431.021 314.272C431.499 314.34 431.909 313.93 431.909 313.383Z" fill="#5552E1"/>
<path d="M430.063 319.401C430.063 319.879 430.473 320.29 430.952 320.29C431.431 320.29 431.841 319.879 431.841 319.401C431.841 318.922 431.431 318.512 430.952 318.512C430.473 318.512 430.063 318.922 430.063 319.401Z" fill="#5552E1"/>
<path d="M427.67 250.132C427.67 249.653 427.26 249.243 426.782 249.243C426.303 249.243 425.893 249.653 425.893 250.132C425.893 250.611 426.303 251.021 426.782 251.021C427.26 251.021 427.67 250.679 427.67 250.132Z" fill="#5552E1"/>
<path d="M427.67 256.15C427.67 255.671 427.26 255.261 426.782 255.261C426.303 255.261 425.893 255.671 425.893 256.15C425.893 256.628 426.303 257.039 426.782 257.039C427.26 257.039 427.67 256.697 427.67 256.15Z" fill="#5552E1"/>
<path d="M427.67 262.235C427.67 261.757 427.26 261.346 426.782 261.346C426.303 261.346 425.893 261.757 425.893 262.235C425.893 262.714 426.303 263.124 426.782 263.124C427.26 263.124 427.67 262.714 427.67 262.235Z" fill="#5552E1"/>
<path d="M427.67 268.253C427.67 267.774 427.26 267.364 426.782 267.364C426.303 267.364 425.893 267.774 425.893 268.253C425.893 268.731 426.303 269.141 426.782 269.141C427.26 269.141 427.67 268.731 427.67 268.253Z" fill="#5552E1"/>
<path d="M427.67 274.27C427.67 273.792 427.26 273.381 426.782 273.381C426.303 273.381 425.893 273.792 425.893 274.27C425.893 274.749 426.303 275.159 426.782 275.159C427.26 275.159 427.67 274.749 427.67 274.27Z" fill="#5552E1"/>
<path d="M427.67 280.287C427.67 279.809 427.26 279.399 426.782 279.399C426.303 279.399 425.893 279.809 425.893 280.287C425.893 280.766 426.303 281.176 426.782 281.176C427.26 281.176 427.67 280.766 427.67 280.287Z" fill="#5552E1"/>
<path d="M427.67 286.305C427.67 285.826 427.26 285.416 426.782 285.416C426.303 285.416 425.893 285.826 425.893 286.305C425.893 286.783 426.303 287.194 426.782 287.194C427.26 287.194 427.67 286.783 427.67 286.305Z" fill="#5552E1"/>
<path d="M427.67 292.322C427.67 291.844 427.26 291.433 426.782 291.433C426.303 291.433 425.893 291.844 425.893 292.322C425.893 292.801 426.303 293.211 426.782 293.211C427.26 293.211 427.67 292.801 427.67 292.322Z" fill="#5552E1"/>
<path d="M427.67 298.339C427.67 297.861 427.26 297.451 426.782 297.451C426.303 297.451 425.893 297.861 425.893 298.339C425.893 298.818 426.303 299.228 426.782 299.228C427.26 299.228 427.67 298.818 427.67 298.339Z" fill="#5552E1"/>
<path d="M427.67 304.357C427.67 303.879 427.26 303.468 426.782 303.468C426.303 303.468 425.893 303.879 425.893 304.357C425.893 304.836 426.303 305.246 426.782 305.246C427.26 305.246 427.67 304.904 427.67 304.357Z" fill="#5552E1"/>
<path d="M427.67 310.374C427.67 309.896 427.26 309.485 426.782 309.485C426.303 309.485 425.893 309.896 425.893 310.374C425.893 310.853 426.303 311.263 426.782 311.263C427.26 311.263 427.67 310.921 427.67 310.374Z" fill="#5552E1"/>
<path d="M427.67 316.392C427.67 315.913 427.26 315.503 426.782 315.503C426.303 315.503 425.893 315.913 425.893 316.392C425.893 316.87 426.303 317.28 426.782 317.28C427.26 317.28 427.67 316.939 427.67 316.392Z" fill="#5552E1"/>
<path d="M423.91 247.123C423.91 246.645 423.5 246.234 423.021 246.234C422.543 246.234 422.133 246.645 422.133 247.123C422.133 247.602 422.543 248.012 423.021 248.012C423.568 248.081 423.91 247.67 423.91 247.123Z" fill="#5552E1"/>
<path d="M423.91 253.141C423.91 252.662 423.5 252.252 423.021 252.252C422.543 252.252 422.133 252.662 422.133 253.141C422.133 253.619 422.543 254.03 423.021 254.03C423.568 254.098 423.91 253.688 423.91 253.141Z" fill="#5552E1"/>
<path d="M423.91 259.158C423.91 258.68 423.5 258.269 423.021 258.269C422.543 258.269 422.133 258.68 422.133 259.158C422.133 259.637 422.543 260.047 423.021 260.047C423.568 260.116 423.91 259.705 423.91 259.158Z" fill="#5552E1"/>
<path d="M423.91 265.244C423.91 264.765 423.5 264.355 423.021 264.355C422.543 264.355 422.133 264.765 422.133 265.244C422.133 265.723 422.543 266.133 423.021 266.133C423.568 266.133 423.91 265.723 423.91 265.244Z" fill="#5552E1"/>
<path d="M423.91 271.261C423.91 270.782 423.5 270.372 423.021 270.372C422.543 270.372 422.133 270.782 422.133 271.261C422.133 271.74 422.543 272.15 423.021 272.15C423.568 272.15 423.91 271.74 423.91 271.261Z" fill="#5552E1"/>
<path d="M423.91 277.279C423.91 276.8 423.5 276.39 423.021 276.39C422.543 276.39 422.133 276.8 422.133 277.279C422.133 277.758 422.543 278.168 423.021 278.168C423.568 278.168 423.91 277.758 423.91 277.279Z" fill="#5552E1"/>
<path d="M423.91 283.296C423.91 282.817 423.5 282.407 423.021 282.407C422.543 282.407 422.133 282.817 422.133 283.296C422.133 283.775 422.543 284.185 423.021 284.185C423.568 284.185 423.91 283.775 423.91 283.296Z" fill="#5552E1"/>
<path d="M423.91 289.314C423.91 288.835 423.5 288.425 423.021 288.425C422.543 288.425 422.133 288.835 422.133 289.314C422.133 289.792 422.543 290.203 423.021 290.203C423.568 290.203 423.91 289.792 423.91 289.314Z" fill="#5552E1"/>
<path d="M423.91 295.331C423.91 294.852 423.5 294.442 423.021 294.442C422.543 294.442 422.133 294.852 422.133 295.331C422.133 295.81 422.543 296.22 423.021 296.22C423.568 296.22 423.91 295.81 423.91 295.331Z" fill="#5552E1"/>
<path d="M423.91 301.348C423.91 300.869 423.5 300.459 423.021 300.459C422.543 300.459 422.133 300.869 422.133 301.348C422.133 301.827 422.543 302.237 423.021 302.237C423.568 302.237 423.91 301.827 423.91 301.348Z" fill="#5552E1"/>
<path d="M423.91 307.366C423.91 306.887 423.5 306.477 423.021 306.477C422.543 306.477 422.133 306.887 422.133 307.366C422.133 307.844 422.543 308.255 423.021 308.255C423.568 308.323 423.91 307.913 423.91 307.366Z" fill="#5552E1"/>
<path d="M423.91 313.383C423.91 312.904 423.5 312.494 423.021 312.494C422.543 312.494 422.133 312.904 422.133 313.383C422.133 313.862 422.543 314.272 423.021 314.272C423.568 314.34 423.91 313.93 423.91 313.383Z" fill="#5552E1"/>
<path d="M423.91 319.401C423.91 318.922 423.5 318.512 423.021 318.512C422.543 318.512 422.133 318.922 422.133 319.401C422.133 319.879 422.543 320.29 423.021 320.29C423.568 320.358 423.91 319.948 423.91 319.401Z" fill="#5552E1"/>
<path d="M419.672 250.132C419.672 249.653 419.261 249.243 418.783 249.243C418.304 249.243 417.894 249.653 417.894 250.132C417.894 250.611 418.304 251.021 418.783 251.021C419.261 251.089 419.672 250.679 419.672 250.132Z" fill="#5552E1"/>
<path d="M419.672 256.15C419.672 255.671 419.261 255.261 418.783 255.261C418.304 255.261 417.894 255.671 417.894 256.15C417.894 256.628 418.304 257.039 418.783 257.039C419.261 257.107 419.672 256.697 419.672 256.15Z" fill="#5552E1"/>
<path d="M419.672 262.235C419.672 261.757 419.261 261.346 418.783 261.346C418.304 261.346 417.894 261.757 417.894 262.235C417.894 262.714 418.304 263.124 418.783 263.124C419.261 263.124 419.672 262.714 419.672 262.235Z" fill="#5552E1"/>
<path d="M419.672 268.253C419.672 267.774 419.261 267.364 418.783 267.364C418.304 267.364 417.894 267.774 417.894 268.253C417.894 268.731 418.304 269.141 418.783 269.141C419.261 269.141 419.672 268.731 419.672 268.253Z" fill="#5552E1"/>
<path d="M419.672 274.27C419.672 273.792 419.261 273.381 418.783 273.381C418.304 273.381 417.894 273.792 417.894 274.27C417.894 274.749 418.304 275.159 418.783 275.159C419.261 275.159 419.672 274.749 419.672 274.27Z" fill="#5552E1"/>
<path d="M419.672 280.287C419.672 279.809 419.261 279.399 418.783 279.399C418.304 279.399 417.894 279.809 417.894 280.287C417.894 280.766 418.304 281.176 418.783 281.176C419.261 281.176 419.672 280.766 419.672 280.287Z" fill="#5552E1"/>
<path d="M419.672 286.305C419.672 285.826 419.261 285.416 418.783 285.416C418.304 285.416 417.894 285.826 417.894 286.305C417.894 286.783 418.304 287.194 418.783 287.194C419.261 287.194 419.672 286.783 419.672 286.305Z" fill="#5552E1"/>
<path d="M419.672 292.322C419.672 291.844 419.261 291.433 418.783 291.433C418.304 291.433 417.894 291.844 417.894 292.322C417.894 292.801 418.304 293.211 418.783 293.211C419.261 293.211 419.672 292.801 419.672 292.322Z" fill="#5552E1"/>
<path d="M419.672 298.339C419.672 297.861 419.261 297.451 418.783 297.451C418.304 297.451 417.894 297.861 417.894 298.339C417.894 298.818 418.304 299.228 418.783 299.228C419.261 299.228 419.672 298.818 419.672 298.339Z" fill="#5552E1"/>
<path d="M419.672 304.357C419.672 303.879 419.261 303.468 418.783 303.468C418.304 303.468 417.894 303.879 417.894 304.357C417.894 304.836 418.304 305.246 418.783 305.246C419.261 305.246 419.672 304.904 419.672 304.357Z" fill="#5552E1"/>
<path d="M419.672 310.374C419.672 309.896 419.261 309.485 418.783 309.485C418.304 309.485 417.894 309.896 417.894 310.374C417.894 310.853 418.304 311.263 418.783 311.263C419.261 311.332 419.672 310.921 419.672 310.374Z" fill="#5552E1"/>
<path d="M419.672 316.392C419.672 315.913 419.261 315.503 418.783 315.503C418.304 315.503 417.894 315.913 417.894 316.392C417.894 316.87 418.304 317.28 418.783 317.28C419.261 317.349 419.672 316.939 419.672 316.392Z" fill="#5552E1"/>
<path d="M414.817 248.012C414.886 248.081 415.023 248.081 415.091 248.081C415.433 248.081 415.706 247.876 415.843 247.671C415.501 247.739 415.159 247.876 414.817 248.012Z" fill="#5552E1"/>
<path d="M415.979 253.141C415.979 252.662 415.569 252.252 415.091 252.252C414.612 252.252 414.202 252.662 414.202 253.141C414.202 253.619 414.612 254.03 415.091 254.03C415.569 254.098 415.979 253.688 415.979 253.141Z" fill="#5552E1"/>
<path d="M415.979 259.158C415.979 258.68 415.569 258.269 415.091 258.269C414.612 258.269 414.202 258.68 414.202 259.158C414.202 259.637 414.612 260.047 415.091 260.047C415.569 260.116 415.979 259.705 415.979 259.158Z" fill="#5552E1"/>
<path d="M415.979 265.244C415.979 264.765 415.569 264.355 415.091 264.355C414.612 264.355 414.202 264.765 414.202 265.244C414.202 265.723 414.612 266.133 415.091 266.133C415.569 266.133 415.979 265.723 415.979 265.244Z" fill="#5552E1"/>
<path d="M415.979 271.261C415.979 270.782 415.569 270.372 415.091 270.372C414.612 270.372 414.202 270.782 414.202 271.261C414.202 271.74 414.612 272.15 415.091 272.15C415.569 272.15 415.979 271.74 415.979 271.261Z" fill="#5552E1"/>
<path d="M415.979 277.279C415.979 276.8 415.569 276.39 415.091 276.39C414.612 276.39 414.202 276.8 414.202 277.279C414.202 277.758 414.612 278.168 415.091 278.168C415.569 278.168 415.979 277.758 415.979 277.279Z" fill="#5552E1"/>
<path d="M415.979 283.296C415.979 282.817 415.569 282.407 415.091 282.407C414.612 282.407 414.202 282.817 414.202 283.296C414.202 283.775 414.612 284.185 415.091 284.185C415.569 284.185 415.979 283.775 415.979 283.296Z" fill="#5552E1"/>
<path d="M415.979 289.314C415.979 288.835 415.569 288.425 415.091 288.425C414.612 288.425 414.202 288.835 414.202 289.314C414.202 289.792 414.612 290.203 415.091 290.203C415.569 290.203 415.979 289.792 415.979 289.314Z" fill="#5552E1"/>
<path d="M414.202 295.331C414.202 295.822 414.6 296.22 415.091 296.22C415.581 296.22 415.979 295.822 415.979 295.331C415.979 294.84 415.581 294.442 415.091 294.442C414.6 294.442 414.202 294.84 414.202 295.331Z" fill="#5552E1"/>
<path d="M415.979 301.348C415.979 300.869 415.569 300.459 415.091 300.459C414.612 300.459 414.202 300.869 414.202 301.348C414.202 301.827 414.612 302.237 415.091 302.237C415.569 302.237 415.979 301.827 415.979 301.348Z" fill="#5552E1"/>
<path d="M415.979 307.366C415.979 306.887 415.569 306.477 415.091 306.477C414.612 306.477 414.202 306.887 414.202 307.366C414.202 307.844 414.612 308.255 415.091 308.255C415.569 308.323 415.979 307.913 415.979 307.366Z" fill="#5552E1"/>
<path d="M415.979 313.383C415.979 312.904 415.569 312.494 415.091 312.494C414.612 312.494 414.202 312.904 414.202 313.383C414.202 313.862 414.612 314.272 415.091 314.272C415.569 314.34 415.979 313.93 415.979 313.383Z" fill="#5552E1"/>
<path d="M414.817 318.58C415.159 318.717 415.501 318.854 415.843 318.99C415.706 318.717 415.364 318.58 415.091 318.58C415.023 318.512 414.886 318.512 414.817 318.58Z" fill="#5552E1"/>
<path d="M411.741 250.132C411.741 249.858 411.673 249.653 411.467 249.516C410.921 249.79 410.442 250.064 409.895 250.337C409.963 250.747 410.305 251.021 410.784 251.021C411.331 251.089 411.741 250.679 411.741 250.132Z" fill="#5552E1"/>
<path d="M411.741 256.15C411.741 255.671 411.331 255.261 410.852 255.261C410.374 255.261 409.963 255.671 409.963 256.15C409.963 256.628 410.374 257.039 410.852 257.039C411.331 257.107 411.741 256.697 411.741 256.15Z" fill="#5552E1"/>
<path d="M411.741 262.235C411.741 261.757 411.331 261.346 410.852 261.346C410.374 261.346 409.963 261.757 409.963 262.235C409.963 262.714 410.374 263.124 410.852 263.124C411.331 263.124 411.741 262.714 411.741 262.235Z" fill="#5552E1"/>
<path d="M411.741 268.253C411.741 267.774 411.331 267.364 410.852 267.364C410.374 267.364 409.963 267.774 409.963 268.253C409.963 268.731 410.374 269.141 410.852 269.141C411.331 269.141 411.741 268.731 411.741 268.253Z" fill="#5552E1"/>
<path d="M411.741 274.27C411.741 273.792 411.331 273.381 410.852 273.381C410.374 273.381 409.963 273.792 409.963 274.27C409.963 274.749 410.374 275.159 410.852 275.159C411.331 275.159 411.741 274.749 411.741 274.27Z" fill="#5552E1"/>
<path d="M411.741 280.287C411.741 279.809 411.331 279.399 410.852 279.399C410.374 279.399 409.963 279.809 409.963 280.287C409.963 280.766 410.374 281.176 410.852 281.176C411.331 281.176 411.741 280.766 411.741 280.287Z" fill="#5552E1"/>
<path d="M411.741 286.305C411.741 285.826 411.331 285.416 410.852 285.416C410.374 285.416 409.963 285.826 409.963 286.305C409.963 286.783 410.374 287.194 410.852 287.194C411.331 287.194 411.741 286.783 411.741 286.305Z" fill="#5552E1"/>
<path d="M411.741 292.322C411.741 291.844 411.331 291.433 410.852 291.433C410.374 291.433 409.963 291.844 409.963 292.322C409.963 292.801 410.374 293.211 410.852 293.211C411.331 293.211 411.741 292.801 411.741 292.322Z" fill="#5552E1"/>
<path d="M411.741 298.339C411.741 297.861 411.331 297.451 410.852 297.451C410.374 297.451 409.963 297.861 409.963 298.339C409.963 298.818 410.374 299.228 410.852 299.228C411.331 299.228 411.741 298.818 411.741 298.339Z" fill="#5552E1"/>
<path d="M411.741 304.357C411.741 303.879 411.331 303.468 410.852 303.468C410.374 303.468 409.963 303.879 409.963 304.357C409.963 304.836 410.374 305.246 410.852 305.246C411.331 305.246 411.741 304.904 411.741 304.357Z" fill="#5552E1"/>
<path d="M411.741 310.374C411.741 309.896 411.331 309.485 410.852 309.485C410.374 309.485 409.963 309.896 409.963 310.374C409.963 310.853 410.374 311.263 410.852 311.263C411.331 311.332 411.741 310.921 411.741 310.374Z" fill="#5552E1"/>
<path d="M410.852 315.503C410.442 315.503 410.032 315.776 409.964 316.186C410.442 316.46 410.989 316.733 411.536 317.007C411.673 316.87 411.809 316.597 411.809 316.392C411.741 315.913 411.331 315.503 410.852 315.503Z" fill="#5552E1"/>
<path d="M408.049 253.141C408.049 252.662 407.639 252.252 407.16 252.252C407.092 252.252 407.024 252.252 406.955 252.252C406.75 252.388 406.545 252.525 406.34 252.73C406.272 252.867 406.203 253.004 406.203 253.141C406.203 253.619 406.614 254.03 407.092 254.03C407.639 254.098 408.049 253.688 408.049 253.141Z" fill="#5552E1"/>
<path d="M408.049 259.158C408.049 258.68 407.639 258.269 407.16 258.269C406.682 258.269 406.272 258.68 406.272 259.158C406.272 259.637 406.682 260.047 407.16 260.047C407.639 260.116 408.049 259.705 408.049 259.158Z" fill="#5552E1"/>
<path d="M408.049 265.244C408.049 264.765 407.639 264.355 407.16 264.355C406.682 264.355 406.272 264.765 406.272 265.244C406.272 265.723 406.682 266.133 407.16 266.133C407.639 266.133 408.049 265.723 408.049 265.244Z" fill="#5552E1"/>
<path d="M408.049 271.261C408.049 270.782 407.639 270.372 407.16 270.372C406.682 270.372 406.272 270.782 406.272 271.261C406.272 271.74 406.682 272.15 407.16 272.15C407.639 272.15 408.049 271.74 408.049 271.261Z" fill="#5552E1"/>
<path d="M408.049 277.279C408.049 276.8 407.639 276.39 407.16 276.39C406.682 276.39 406.272 276.8 406.272 277.279C406.272 277.758 406.682 278.168 407.16 278.168C407.639 278.168 408.049 277.758 408.049 277.279Z" fill="#5552E1"/>
<path d="M408.049 283.296C408.049 282.817 407.639 282.407 407.16 282.407C406.682 282.407 406.272 282.817 406.272 283.296C406.272 283.775 406.682 284.185 407.16 284.185C407.639 284.185 408.049 283.775 408.049 283.296Z" fill="#5552E1"/>
<path d="M408.049 289.314C408.049 288.835 407.639 288.425 407.16 288.425C406.682 288.425 406.272 288.835 406.272 289.314C406.272 289.792 406.682 290.203 407.16 290.203C407.639 290.203 408.049 289.792 408.049 289.314Z" fill="#5552E1"/>
<path d="M408.049 295.331C408.049 294.852 407.639 294.442 407.16 294.442C406.682 294.442 406.272 294.852 406.272 295.331C406.272 295.81 406.682 296.22 407.16 296.22C407.639 296.22 408.049 295.81 408.049 295.331Z" fill="#5552E1"/>
<path d="M408.049 301.348C408.049 300.869 407.639 300.459 407.16 300.459C406.682 300.459 406.272 300.869 406.272 301.348C406.272 301.827 406.682 302.237 407.16 302.237C407.639 302.237 408.049 301.827 408.049 301.348Z" fill="#5552E1"/>
<path d="M408.049 307.366C408.049 306.887 407.639 306.477 407.16 306.477C406.682 306.477 406.272 306.887 406.272 307.366C406.272 307.844 406.682 308.255 407.16 308.255C407.639 308.323 408.049 307.913 408.049 307.366Z" fill="#5552E1"/>
<path d="M408.049 313.383C408.049 312.904 407.639 312.494 407.16 312.494C406.682 312.494 406.272 312.904 406.272 313.383C406.272 313.52 406.34 313.725 406.408 313.793C406.614 313.93 406.819 314.067 407.024 314.204C407.092 314.204 407.16 314.204 407.229 314.204C407.639 314.34 408.049 313.93 408.049 313.383Z" fill="#5552E1"/>
<path d="M403.81 256.15C403.81 255.739 403.537 255.398 403.195 255.261C402.785 255.603 402.374 256.013 402.033 256.355C402.169 256.697 402.511 256.97 402.921 256.97C403.4 257.107 403.81 256.697 403.81 256.15Z" fill="#5552E1"/>
<path d="M403.81 262.235C403.81 261.757 403.4 261.346 402.921 261.346C402.443 261.346 402.033 261.757 402.033 262.235C402.033 262.714 402.443 263.124 402.921 263.124C403.4 263.124 403.81 262.714 403.81 262.235Z" fill="#5552E1"/>
<path d="M403.81 268.253C403.81 267.774 403.4 267.364 402.921 267.364C402.443 267.364 402.033 267.774 402.033 268.253C402.033 268.731 402.443 269.141 402.921 269.141C403.4 269.141 403.81 268.731 403.81 268.253Z" fill="#5552E1"/>
<path d="M403.81 274.27C403.81 273.792 403.4 273.381 402.921 273.381C402.443 273.381 402.033 273.792 402.033 274.27C402.033 274.749 402.443 275.159 402.921 275.159C403.4 275.159 403.81 274.749 403.81 274.27Z" fill="#5552E1"/>
<path d="M403.81 280.287C403.81 279.809 403.4 279.399 402.921 279.399C402.443 279.399 402.033 279.809 402.033 280.287C402.033 280.766 402.443 281.176 402.921 281.176C403.4 281.176 403.81 280.766 403.81 280.287Z" fill="#5552E1"/>
<path d="M403.81 286.305C403.81 285.826 403.4 285.416 402.921 285.416C402.443 285.416 402.033 285.826 402.033 286.305C402.033 286.783 402.443 287.194 402.921 287.194C403.4 287.194 403.81 286.783 403.81 286.305Z" fill="#5552E1"/>
<path d="M403.81 292.322C403.81 291.844 403.4 291.433 402.921 291.433C402.443 291.433 402.033 291.844 402.033 292.322C402.033 292.801 402.443 293.211 402.921 293.211C403.4 293.211 403.81 292.801 403.81 292.322Z" fill="#5552E1"/>
<path d="M403.81 298.339C403.81 297.861 403.4 297.451 402.921 297.451C402.443 297.451 402.033 297.861 402.033 298.339C402.033 298.818 402.443 299.228 402.921 299.228C403.4 299.228 403.81 298.818 403.81 298.339Z" fill="#5552E1"/>
<path d="M403.81 304.357C403.81 303.879 403.4 303.468 402.921 303.468C402.443 303.468 402.033 303.879 402.033 304.357C402.033 304.836 402.443 305.246 402.921 305.246C403.4 305.246 403.81 304.904 403.81 304.357Z" fill="#5552E1"/>
<path d="M403.81 310.374C403.81 309.896 403.4 309.485 402.921 309.485C402.511 309.485 402.169 309.759 402.033 310.101C402.443 310.511 402.785 310.853 403.195 311.195C403.537 311.127 403.81 310.785 403.81 310.374Z" fill="#5552E1"/>
<path d="M400.119 259.226C400.119 259.021 400.05 258.884 399.982 258.748C399.64 259.158 399.23 259.637 398.888 260.115C398.956 260.184 399.093 260.184 399.23 260.184C399.708 260.115 400.119 259.705 400.119 259.226Z" fill="#5552E1"/>
<path d="M400.119 265.244C400.119 264.765 399.708 264.355 399.23 264.355C398.751 264.355 398.341 264.765 398.341 265.244C398.341 265.723 398.751 266.133 399.23 266.133C399.708 266.133 400.119 265.723 400.119 265.244Z" fill="#5552E1"/>
<path d="M400.119 271.261C400.119 270.782 399.708 270.372 399.23 270.372C398.751 270.372 398.341 270.782 398.341 271.261C398.341 271.74 398.751 272.15 399.23 272.15C399.708 272.15 400.119 271.74 400.119 271.261Z" fill="#5552E1"/>
<path d="M400.119 277.279C400.119 276.8 399.708 276.39 399.23 276.39C398.751 276.39 398.341 276.8 398.341 277.279C398.341 277.758 398.751 278.168 399.23 278.168C399.708 278.168 400.119 277.758 400.119 277.279Z" fill="#5552E1"/>
<path d="M400.119 283.296C400.119 282.817 399.708 282.407 399.23 282.407C398.751 282.407 398.341 282.817 398.341 283.296C398.341 283.775 398.751 284.185 399.23 284.185C399.708 284.185 400.119 283.775 400.119 283.296Z" fill="#5552E1"/>
<path d="M400.119 289.314C400.119 288.835 399.708 288.425 399.23 288.425C398.751 288.425 398.341 288.835 398.341 289.314C398.341 289.792 398.751 290.203 399.23 290.203C399.708 290.203 400.119 289.792 400.119 289.314Z" fill="#5552E1"/>
<path d="M400.119 295.331C400.119 294.852 399.708 294.442 399.23 294.442C398.751 294.442 398.341 294.852 398.341 295.331C398.341 295.81 398.751 296.22 399.23 296.22C399.708 296.22 400.119 295.81 400.119 295.331Z" fill="#5552E1"/>
<path d="M400.119 301.348C400.119 300.869 399.708 300.459 399.23 300.459C398.751 300.459 398.341 300.869 398.341 301.348C398.341 301.827 398.751 302.237 399.23 302.237C399.708 302.237 400.119 301.827 400.119 301.348Z" fill="#5552E1"/>
<path d="M399.161 306.477C399.024 306.477 398.956 306.477 398.819 306.545C399.161 307.024 399.571 307.434 399.913 307.913C399.981 307.776 400.05 307.571 400.05 307.434C400.118 306.887 399.708 306.477 399.161 306.477Z" fill="#5552E1"/>
<path d="M395.879 268.253C395.879 267.774 395.469 267.364 394.991 267.364C394.717 267.364 394.512 267.5 394.375 267.637C394.307 267.842 394.17 268.047 394.102 268.253L394.102 268.321C394.102 268.8 394.512 269.21 394.991 269.21C395.469 269.141 395.879 268.731 395.879 268.253Z" fill="#5552E1"/>
<path d="M395.879 274.27C395.879 273.792 395.469 273.381 394.991 273.381C394.512 273.381 394.102 273.792 394.102 274.27C394.102 274.749 394.512 275.159 394.991 275.159C395.469 275.159 395.879 274.749 395.879 274.27Z" fill="#5552E1"/>
<path d="M395.879 280.287C395.879 279.809 395.469 279.399 394.991 279.399C394.512 279.399 394.102 279.809 394.102 280.287C394.102 280.766 394.512 281.176 394.991 281.176C395.469 281.176 395.879 280.766 395.879 280.287Z" fill="#5552E1"/>
<path d="M395.879 286.305C395.879 285.826 395.469 285.416 394.991 285.416C394.512 285.416 394.102 285.826 394.102 286.305C394.102 286.783 394.512 287.194 394.991 287.194C395.469 287.194 395.879 286.783 395.879 286.305Z" fill="#5552E1"/>
<path d="M395.879 292.322C395.879 291.844 395.469 291.433 394.991 291.433C394.512 291.433 394.102 291.844 394.102 292.322C394.102 292.801 394.512 293.211 394.991 293.211C395.469 293.211 395.879 292.801 395.879 292.322Z" fill="#5552E1"/>
<path d="M395.879 298.339C395.879 297.861 395.469 297.451 394.991 297.451C394.512 297.451 394.102 297.861 394.102 298.339L394.102 298.408C394.17 298.613 394.239 298.75 394.375 298.955C394.512 299.092 394.786 299.228 394.991 299.228C395.469 299.228 395.879 298.818 395.879 298.339Z" fill="#5552E1"/>
<path d="M392.188 277.279C392.188 276.869 391.914 276.527 391.572 276.39C391.436 276.937 391.367 277.552 391.299 278.168C391.778 278.168 392.188 277.758 392.188 277.279Z" fill="#5552E1"/>
<path d="M392.188 283.296C392.188 282.817 391.778 282.407 391.299 282.407C391.162 282.407 391.094 282.407 390.957 282.475C390.957 282.749 390.957 283.023 390.957 283.364C390.957 283.638 390.957 283.911 390.957 284.185C391.026 284.253 391.162 284.253 391.299 284.253C391.709 284.185 392.188 283.775 392.188 283.296Z" fill="#5552E1"/>
<path d="M392.188 289.314C392.188 288.835 391.778 288.425 391.299 288.425C391.367 289.04 391.436 289.587 391.572 290.203C391.914 290.066 392.188 289.724 392.188 289.314Z" fill="#5552E1"/>
<path d="M499.525 275.296C499.525 235.499 531.931 203.087 571.721 203.087L571.721 204.249C532.546 204.249 500.687 236.114 500.687 275.296L499.525 275.296Z" fill="#5552E1"/>
<path d="M347.886 350.65L349.048 350.65C349.048 389.831 380.907 421.696 420.082 421.696C459.256 421.696 491.115 389.831 491.115 350.65C491.115 311.469 459.256 279.604 420.082 279.604L420.082 278.441C459.871 278.441 492.277 310.853 492.277 350.65C492.277 390.447 459.871 422.859 420.082 422.859C380.292 422.859 347.886 390.447 347.886 350.65Z" fill="#5552E1"/>
<path d="M119.88 179.496L119.88 178.333C159.055 178.333 190.914 146.468 190.914 107.287C190.914 68.1056 159.055 36.2408 119.88 36.2408C80.7059 36.2408 48.8467 68.1056 48.8467 107.287L47.6844 107.287C47.6844 67.4902 80.0906 35.0784 119.88 35.0784C159.67 35.0784 192.076 67.4902 192.076 107.287C192.076 147.084 159.67 179.496 119.88 179.496Z" fill="#5552E1"/>
<path d="M283.894 118.16C283.894 101.817 297.157 88.5514 313.497 88.5514C329.837 88.5514 343.1 101.817 343.1 118.16C343.1 134.502 329.837 147.768 313.497 147.768C297.226 147.836 283.894 134.502 283.894 118.16ZM342.417 118.16C342.417 102.227 329.427 89.2352 313.497 89.2352C297.568 89.2352 284.578 102.227 284.578 118.16C284.578 134.092 297.568 147.084 313.497 147.084C329.495 147.084 342.417 134.16 342.417 118.16Z" fill="#9896FF"/>
<path d="M310.995 133.701C319.567 135.093 327.645 129.27 329.036 120.697C330.427 112.123 324.606 104.044 316.033 102.653C307.461 101.261 299.384 107.084 297.993 115.658C296.601 124.231 302.423 132.31 310.995 133.701Z" fill="#9896FF"/>
<path d="M350.038 82.2297L349.506 81.6979L277.041 154.176L277.572 154.708L350.038 82.2297Z" fill="#5552E1"/>
<path d="M602.964 300.869C586.625 300.869 573.361 287.604 573.361 271.261C573.361 254.918 586.625 241.653 602.964 241.653C619.304 241.653 632.567 254.918 632.567 271.261C632.567 287.604 619.304 300.869 602.964 300.869ZM602.964 242.337C587.035 242.337 574.045 255.329 574.045 271.261C574.045 287.194 587.035 300.186 602.964 300.186C618.894 300.186 631.884 287.194 631.884 271.261C631.815 255.329 618.894 242.337 602.964 242.337Z" fill="#9896FF"/>
<path d="M600.455 286.754C609.027 288.145 617.105 282.323 618.496 273.749C619.887 265.175 614.066 257.096 605.493 255.705C596.921 254.314 588.844 260.136 587.452 268.71C586.061 277.284 591.883 285.362 600.455 286.754Z" fill="#9896FF"/>
<path d="M639.425 307.212L566.959 234.734L566.427 235.266L638.893 307.744L639.425 307.212Z" fill="#5552E1"/>
<path d="M553.261 314.545C553.261 317.554 550.732 319.059 548.544 320.358C546.425 321.657 544.579 322.751 544.579 324.871C544.579 326.991 546.425 328.085 548.544 329.384C550.732 330.683 553.261 332.187 553.261 335.196C553.261 338.205 550.732 339.709 548.544 341.008C546.425 342.308 544.579 343.402 544.579 345.521C544.579 347.641 546.425 348.735 548.544 350.034C550.732 351.334 553.261 352.838 553.261 355.847C553.261 358.855 550.732 360.36 548.544 361.659C546.425 362.89 544.579 363.984 544.579 366.172C544.579 368.292 546.425 369.386 548.544 370.685C550.732 371.984 553.261 373.489 553.261 376.497C553.261 379.506 550.732 381.01 548.544 382.31C546.425 383.54 544.579 384.634 544.579 386.823L543.075 386.823C543.075 383.814 545.604 382.31 547.792 381.01C549.911 379.779 551.757 378.685 551.757 376.497C551.757 374.377 549.911 373.283 547.792 371.984C545.604 370.685 543.075 369.181 543.075 366.172C543.075 363.163 545.604 361.659 547.792 360.36C549.911 359.129 551.757 358.035 551.757 355.847C551.757 353.727 549.911 352.633 547.792 351.334C545.604 350.034 543.075 348.53 543.075 345.521C543.075 342.513 545.604 341.008 547.792 339.709C549.911 338.41 551.757 337.316 551.757 335.196C551.757 333.076 549.911 331.982 547.792 330.683C545.604 329.384 543.075 327.879 543.075 324.871C543.075 321.862 545.604 320.358 547.792 319.059C549.911 317.759 551.757 316.665 551.757 314.545L553.261 314.545Z" fill="#5552E1"/>
<path d="M22.7304 169.102C22.7304 172.111 20.2009 173.615 18.0131 174.914C15.8937 176.214 14.0478 177.308 14.0478 179.427C14.0478 181.547 15.8937 182.641 18.0131 183.94C20.2009 185.24 22.7304 186.744 22.7304 189.753C22.7304 192.761 20.2009 194.266 18.0131 195.565C15.8937 196.864 14.0478 197.958 14.0478 200.078C14.0478 202.198 15.8937 203.292 18.0131 204.591C20.2009 205.89 22.7304 207.395 22.7304 210.403C22.7304 213.412 20.2009 214.916 18.0131 216.216C15.8937 217.446 14.0478 218.54 14.0478 220.729C14.0478 222.848 15.8937 223.942 18.0131 225.242C20.2009 226.541 22.7304 228.045 22.7304 231.054C22.7304 234.063 20.2009 235.567 18.0131 236.866C15.8937 238.097 14.0478 239.191 14.0478 241.379L12.5437 241.379C12.5437 238.37 15.0733 236.866 17.261 235.567C19.3804 234.336 21.2263 233.242 21.2263 231.054C21.2263 228.934 19.3804 227.84 17.261 226.541C15.0733 225.242 12.5437 223.737 12.5437 220.729C12.5437 217.72 15.0733 216.216 17.2611 214.916C19.3804 213.685 21.2263 212.591 21.2263 210.403C21.2263 208.284 19.3804 207.189 17.2611 205.89C15.0733 204.591 12.5437 203.087 12.5437 200.078C12.5437 197.069 15.0733 195.565 17.2611 194.266C19.3804 192.967 21.2263 191.872 21.2263 189.753C21.2263 187.633 19.3804 186.539 17.2611 185.24C15.0733 183.94 12.5437 182.436 12.5437 179.427C12.5437 176.419 15.0733 174.914 17.2611 173.615C19.3804 172.316 21.2263 171.222 21.2263 169.102L22.7304 169.102V169.102Z" fill="#9896FF"/>
<path d="M256.615 2.53026C256.615 5.53896 254.085 7.04331 251.898 8.34252C249.778 9.64172 247.932 10.7358 247.932 12.8556C247.932 14.9753 249.778 16.0694 251.898 17.3686C254.085 18.6678 256.615 20.1722 256.615 23.1809C256.615 26.1896 254.085 27.6939 251.898 28.9931C249.778 30.2923 247.932 31.3864 247.932 33.5062C247.932 35.6259 249.778 36.72 251.898 38.0192C254.085 39.3184 256.615 40.8228 256.615 43.8314C256.615 46.8401 254.085 48.3445 251.898 49.6437C249.778 50.8745 247.932 51.9686 247.932 54.1567C247.932 56.2765 249.778 57.3706 251.898 58.6698C254.085 59.969 256.615 61.4734 256.615 64.482C256.615 67.4907 254.085 68.9951 251.898 70.2943C249.778 71.5251 247.932 72.6192 247.932 74.8073L246.428 74.8073C246.428 71.7986 248.958 70.2943 251.146 68.9951C253.265 67.7643 255.111 66.6702 255.111 64.482C255.111 62.3623 253.265 61.2682 251.146 59.969C248.958 58.6698 246.428 57.1654 246.428 54.1567C246.428 51.1481 248.958 49.6437 251.146 48.3445C253.265 47.1137 255.111 46.0196 255.111 43.8314C255.111 41.7117 253.265 40.6176 251.146 39.3184C248.958 38.0192 246.428 36.5148 246.428 33.5062C246.428 30.4975 248.958 28.9931 251.146 27.6939C253.265 26.3947 255.111 25.3006 255.111 23.1809C255.111 21.0611 253.265 19.967 251.146 18.6678C248.958 17.3686 246.428 15.8643 246.428 12.8556C246.428 9.84686 248.958 8.34252 251.146 7.04331C253.265 5.7441 255.111 4.65002 255.111 2.53026L256.615 2.53026V2.53026Z" fill="#5552E1"/>
<path d="M545.809 314.545C545.809 317.554 543.279 319.059 541.091 320.358C538.972 321.657 537.126 322.751 537.126 324.871C537.126 326.991 538.972 328.085 541.091 329.384C543.279 330.683 545.809 332.187 545.809 335.196C545.809 338.205 543.279 339.709 541.091 341.008C538.972 342.308 537.126 343.402 537.126 345.521C537.126 347.641 538.972 348.735 541.091 350.034C543.279 351.334 545.809 352.838 545.809 355.847C545.809 358.855 543.279 360.36 541.091 361.659C538.972 362.89 537.126 363.984 537.126 366.172C537.126 368.292 538.972 369.386 541.091 370.685C543.279 371.984 545.809 373.489 545.809 376.497C545.809 379.506 543.279 381.01 541.091 382.31C538.972 383.54 537.126 384.634 537.126 386.823L535.622 386.823C535.622 383.814 538.152 382.31 540.339 381.01C542.459 379.779 544.305 378.685 544.305 376.497C544.305 374.377 542.459 373.283 540.339 371.984C538.152 370.685 535.622 369.181 535.622 366.172C535.622 363.163 538.152 361.659 540.339 360.36C542.459 359.129 544.305 358.035 544.305 355.847C544.305 353.727 542.459 352.633 540.339 351.334C538.152 350.034 535.622 348.53 535.622 345.521C535.622 342.513 538.152 341.008 540.339 339.709C542.459 338.41 544.305 337.316 544.305 335.196C544.305 333.076 542.459 331.982 540.339 330.683C538.152 329.384 535.622 327.879 535.622 324.871C535.622 321.862 538.152 320.358 540.339 319.059C542.459 317.759 544.305 316.665 544.305 314.545L545.809 314.545Z" fill="#9896FF"/>
<path d="M538.357 314.545C538.357 317.554 535.827 319.059 533.64 320.358C531.52 321.657 529.674 322.751 529.674 324.871C529.674 326.991 531.52 328.085 533.64 329.384C535.827 330.683 538.357 332.187 538.357 335.196C538.357 338.205 535.827 339.709 533.64 341.008C531.52 342.308 529.674 343.402 529.674 345.521C529.674 347.641 531.52 348.735 533.64 350.034C535.827 351.334 538.357 352.838 538.357 355.847C538.357 358.855 535.827 360.36 533.64 361.659C531.52 362.89 529.674 363.984 529.674 366.172C529.674 368.292 531.52 369.386 533.64 370.685C535.827 371.984 538.357 373.489 538.357 376.497C538.357 379.506 535.827 381.01 533.64 382.31C531.52 383.54 529.674 384.634 529.674 386.823L528.17 386.823C528.17 383.814 530.7 382.31 532.888 381.01C535.007 379.779 536.853 378.685 536.853 376.497C536.853 374.377 535.007 373.283 532.888 371.984C530.7 370.685 528.17 369.181 528.17 366.172C528.17 363.163 530.7 361.659 532.888 360.36C535.007 359.129 536.853 358.035 536.853 355.847C536.853 353.727 535.007 352.633 532.888 351.334C530.7 350.034 528.17 348.53 528.17 345.521C528.17 342.513 530.7 341.008 532.888 339.709C535.007 338.41 536.853 337.316 536.853 335.196C536.853 333.076 535.007 331.982 532.888 330.683C530.7 329.384 528.17 327.879 528.17 324.871C528.17 321.862 530.7 320.358 532.888 319.059C535.007 317.759 536.853 316.665 536.853 314.545L538.357 314.545Z" fill="#5552E1"/>
<path d="M382.206 135.254C382.206 138.263 379.676 139.767 377.489 141.067C375.369 142.366 373.523 143.46 373.523 145.58C373.523 147.699 375.369 148.793 377.489 150.093C379.676 151.392 382.206 152.896 382.206 155.905C382.206 158.914 379.676 160.418 377.489 161.717C375.369 163.016 373.523 164.11 373.523 166.23C373.523 168.35 375.369 169.444 377.489 170.743C379.676 172.042 382.206 173.547 382.206 176.555C382.206 179.564 379.676 181.069 377.489 182.368C375.369 183.599 373.523 184.693 373.523 186.881C373.523 189.001 375.369 190.095 377.489 191.394C379.676 192.693 382.206 194.197 382.206 197.206C382.206 200.215 379.676 201.719 377.489 203.018C375.369 204.249 373.523 205.343 373.523 207.531L372.019 207.531C372.019 204.523 374.549 203.018 376.737 201.719C378.856 200.488 380.702 199.394 380.702 197.206C380.702 195.086 378.856 193.992 376.737 192.693C374.549 191.394 372.019 189.889 372.019 186.881C372.019 183.872 374.549 182.368 376.737 181.069C378.856 179.838 380.702 178.744 380.702 176.555C380.702 174.436 378.856 173.342 376.737 172.042C374.549 170.743 372.019 169.239 372.019 166.23C372.019 163.221 374.549 161.717 376.737 160.418C378.856 159.119 380.702 158.025 380.702 155.905C380.702 153.785 378.856 152.691 376.737 151.392C374.549 150.093 372.019 148.588 372.019 145.58C372.019 142.571 374.549 141.067 376.737 139.767C378.856 138.468 380.702 137.374 380.702 135.254L382.206 135.254Z" fill="#9896FF"/>
<path d="M374.754 135.254C374.754 138.263 372.224 139.767 370.037 141.067C367.917 142.366 366.071 143.46 366.071 145.58C366.071 147.699 367.917 148.793 370.037 150.093C372.224 151.392 374.754 152.896 374.754 155.905C374.754 158.914 372.224 160.418 370.037 161.717C367.917 163.016 366.071 164.11 366.071 166.23C366.071 168.35 367.917 169.444 370.037 170.743C372.224 172.042 374.754 173.547 374.754 176.555C374.754 179.564 372.224 181.069 370.037 182.368C367.917 183.599 366.071 184.693 366.071 186.881C366.071 189.001 367.917 190.095 370.037 191.394C372.224 192.693 374.754 194.197 374.754 197.206C374.754 200.215 372.224 201.719 370.037 203.018C367.917 204.249 366.071 205.343 366.071 207.531L364.567 207.531C364.567 204.523 367.097 203.018 369.285 201.719C371.404 200.488 373.25 199.394 373.25 197.206C373.25 195.086 371.404 193.992 369.285 192.693C367.097 191.394 364.567 189.889 364.567 186.881C364.567 183.872 367.097 182.368 369.285 181.069C371.404 179.838 373.25 178.744 373.25 176.555C373.25 174.436 371.404 173.342 369.285 172.042C367.097 170.743 364.567 169.239 364.567 166.23C364.567 163.221 367.097 161.717 369.285 160.418C371.404 159.119 373.25 158.025 373.25 155.905C373.25 153.785 371.404 152.691 369.285 151.392C367.097 150.093 364.567 148.588 364.567 145.58C364.567 142.571 367.097 141.067 369.285 139.767C371.404 138.468 373.25 137.374 373.25 135.254L374.754 135.254Z" fill="#5552E1"/>
<path d="M624.021 202.95L626.346 205.275L630.379 201.241L634.481 205.275L636.806 202.95L632.772 198.847L636.806 194.813L634.481 192.488L630.379 196.523L626.346 192.488L624.021 194.813L628.055 198.847L624.021 202.95Z" fill="#5552E1"/>
<path d="M626.346 188.112L630.379 184.01L634.481 188.112L636.806 185.719L632.772 181.685L636.806 177.65L634.481 175.325L630.379 179.36L626.346 175.325L624.021 177.65L628.055 181.685L624.021 185.719L626.346 188.112Z" fill="#5552E1"/>
<path d="M626.346 170.88L630.379 166.846L634.481 170.88L636.806 168.556L632.772 164.521L636.806 160.487L634.481 158.094L630.379 162.196L626.346 158.094L624.021 160.487L628.055 164.521L624.021 168.556L626.346 170.88Z" fill="#5552E1"/>
<path d="M206.091 80.9615L208.416 78.6366L204.382 74.5338L208.416 70.4994L206.091 68.1745L202.058 72.2089L197.956 68.1745L195.631 70.4994L199.733 74.5338L195.631 78.6366L197.956 80.9615L202.058 76.8587L206.091 80.9615Z" fill="#9896FF"/>
<path d="M191.256 78.6366L187.222 74.5338L191.256 70.4994L188.931 68.1745L184.897 72.2089L180.795 68.1745L178.471 70.4994L182.505 74.5338L178.471 78.6366L180.795 80.9615L184.897 76.8587L188.931 80.9615L191.256 78.6366Z" fill="#9896FF"/>
<path d="M174.095 78.6366L169.993 74.5338L174.095 70.4994L171.771 68.1745L167.669 72.2089L163.635 68.1745L161.311 70.4994L165.344 74.5338L161.311 78.6366L163.635 80.9615L167.669 76.8587L171.771 80.9615L174.095 78.6366Z" fill="#9896FF"/>
<path d="M50.1083 288.215C51.0852 288.311 51.9556 287.598 52.0523 286.621C52.149 285.644 51.4355 284.773 50.4586 284.676C49.4817 284.58 48.6113 285.293 48.5146 286.27C48.4179 287.247 49.1314 288.118 50.1083 288.215Z" fill="#5552E1"/>
<path d="M48.5047 270.099C48.5047 271.081 49.3005 271.877 50.2822 271.877C51.2639 271.877 52.0598 271.081 52.0598 270.099C52.0598 269.117 51.2639 268.321 50.2822 268.321C49.3005 268.321 48.5047 269.117 48.5047 270.099Z" fill="#5552E1"/>
<path d="M48.5047 253.756C48.5047 254.738 49.3005 255.534 50.2822 255.534C51.2639 255.534 52.0598 254.738 52.0598 253.756C52.0598 252.774 51.2639 251.978 50.2822 251.978C49.3005 251.978 48.5047 252.774 48.5047 253.756Z" fill="#5552E1"/>
<path d="M48.4369 237.413C48.4369 238.439 49.2572 239.191 50.2144 239.191C51.2399 239.191 51.9919 238.37 51.9919 237.413C51.9919 236.387 51.1715 235.635 50.2144 235.635C49.2572 235.567 48.4369 236.387 48.4369 237.413Z" fill="#5552E1"/>
<path d="M48.5047 221.002C48.5047 221.984 49.3005 222.78 50.2822 222.78C51.2639 222.78 52.0598 221.984 52.0598 221.002C52.0598 220.02 51.2639 219.224 50.2822 219.224C49.3005 219.224 48.5047 220.02 48.5047 221.002Z" fill="#5552E1"/>
<path d="M48.5047 204.659C48.5047 205.641 49.3005 206.437 50.2822 206.437C51.2639 206.437 52.0598 205.641 52.0598 204.659C52.0598 203.677 51.2639 202.881 50.2822 202.881C49.3005 202.881 48.5047 203.677 48.5047 204.659Z" fill="#5552E1"/>
<path d="M48.5047 188.317C48.5047 189.299 49.3005 190.095 50.2822 190.095C51.2639 190.095 52.0598 189.299 52.0598 188.317C52.0598 187.335 51.2639 186.539 50.2822 186.539C49.3005 186.539 48.5047 187.335 48.5047 188.317Z" fill="#5552E1"/>
<path d="M64.7425 288.219C65.7194 288.316 66.5897 287.602 66.6865 286.625C66.7832 285.648 66.0697 284.777 65.0928 284.68C64.1159 284.584 63.2455 285.297 63.1488 286.274C63.052 287.252 63.7655 288.122 64.7425 288.219Z" fill="#5552E1"/>
<path d="M63.1358 270.099C63.1358 271.081 63.9317 271.877 64.9134 271.877C65.8951 271.877 66.6909 271.081 66.6909 270.099C66.6909 269.117 65.8951 268.321 64.9134 268.321C63.9317 268.321 63.1358 269.117 63.1358 270.099Z" fill="#5552E1"/>
<path d="M63.1358 253.756C63.1358 254.738 63.9317 255.534 64.9134 255.534C65.8951 255.534 66.6909 254.738 66.6909 253.756C66.6909 252.774 65.8951 251.978 64.9134 251.978C63.9317 251.978 63.1358 252.774 63.1358 253.756Z" fill="#5552E1"/>
<path d="M63.0674 237.413C63.0674 238.439 63.8878 239.191 64.8449 239.191C65.8704 239.191 66.6224 238.37 66.6224 237.413C66.6224 236.387 65.802 235.635 64.8449 235.635C63.8878 235.567 63.0674 236.387 63.0674 237.413Z" fill="#5552E1"/>
<path d="M63.1358 221.002C63.1358 221.984 63.9317 222.78 64.9134 222.78C65.8951 222.78 66.6909 221.984 66.6909 221.002C66.6909 220.02 65.8951 219.224 64.9134 219.224C63.9317 219.224 63.1358 220.02 63.1358 221.002Z" fill="#5552E1"/>
<path d="M63.1358 204.659C63.1358 205.641 63.9317 206.437 64.9134 206.437C65.8951 206.437 66.6909 205.641 66.6909 204.659C66.6909 203.677 65.8951 202.881 64.9134 202.881C63.9317 202.881 63.1358 203.677 63.1358 204.659Z" fill="#5552E1"/>
<path d="M63.1358 188.317C63.1358 189.299 63.9317 190.095 64.9134 190.095C65.8951 190.095 66.6909 189.299 66.6909 188.317C66.6909 187.335 65.8951 186.539 64.9134 186.539C63.9317 186.539 63.1358 187.335 63.1358 188.317Z" fill="#5552E1"/>
<path d="M79.3764 288.223C80.3534 288.32 81.2237 287.606 81.3205 286.629C81.4172 285.652 80.7037 284.781 79.7268 284.685C78.7498 284.588 77.8795 285.301 77.7827 286.278C77.686 287.256 78.3995 288.126 79.3764 288.223Z" fill="#5552E1"/>
<path d="M77.7663 270.099C77.7663 271.081 78.5621 271.877 79.5439 271.877C80.5256 271.877 81.3214 271.081 81.3214 270.099C81.3214 269.117 80.5256 268.321 79.5439 268.321C78.5621 268.321 77.7663 269.117 77.7663 270.099Z" fill="#5552E1"/>
<path d="M77.7663 253.756C77.7663 254.738 78.5621 255.534 79.5439 255.534C80.5256 255.534 81.3214 254.738 81.3214 253.756C81.3214 252.774 80.5256 251.978 79.5439 251.978C78.5621 251.978 77.7663 252.774 77.7663 253.756Z" fill="#5552E1"/>
<path d="M77.6978 237.413C77.6978 238.439 78.5182 239.191 79.4754 239.191C80.4325 239.191 81.2529 238.37 81.2529 237.413C81.2529 236.387 80.4325 235.635 79.4754 235.635C78.5182 235.635 77.6978 236.387 77.6978 237.413Z" fill="#5552E1"/>
<path d="M77.7663 221.002C77.7663 221.984 78.5621 222.78 79.5439 222.78C80.5256 222.78 81.3214 221.984 81.3214 221.002C81.3214 220.02 80.5256 219.224 79.5439 219.224C78.5621 219.224 77.7663 220.02 77.7663 221.002Z" fill="#5552E1"/>
<path d="M77.7663 204.659C77.7663 205.641 78.5621 206.437 79.5439 206.437C80.5256 206.437 81.3214 205.641 81.3214 204.659C81.3214 203.677 80.5256 202.881 79.5439 202.881C78.5621 202.881 77.7663 203.677 77.7663 204.659Z" fill="#5552E1"/>
<path d="M77.7663 188.317C77.7663 189.299 78.5621 190.095 79.5439 190.095C80.5256 190.095 81.3214 189.299 81.3214 188.317C81.3214 187.335 80.5256 186.539 79.5439 186.539C78.5621 186.539 77.7663 187.335 77.7663 188.317Z" fill="#5552E1"/>
<path d="M94.0104 288.226C94.9873 288.323 95.8577 287.609 95.9544 286.632C96.0511 285.655 95.3376 284.785 94.3607 284.688C93.3838 284.591 92.5134 285.305 92.4167 286.282C92.32 287.259 93.0335 288.13 94.0104 288.226Z" fill="#5552E1"/>
<path d="M92.3968 270.099C92.3968 271.081 93.1926 271.877 94.1744 271.877C95.1561 271.877 95.9519 271.081 95.9519 270.099C95.9519 269.117 95.1561 268.321 94.1744 268.321C93.1926 268.321 92.3968 269.117 92.3968 270.099Z" fill="#5552E1"/>
<path d="M92.3968 253.756C92.3968 254.738 93.1926 255.534 94.1744 255.534C95.1561 255.534 95.9519 254.738 95.9519 253.756C95.9519 252.774 95.1561 251.978 94.1744 251.978C93.1926 251.978 92.3968 252.774 92.3968 253.756Z" fill="#5552E1"/>
<path d="M92.3282 237.413C92.3282 238.439 93.1487 239.191 94.1058 239.191C95.063 239.191 95.8834 238.37 95.8834 237.413C95.8834 236.387 95.063 235.635 94.1058 235.635C93.1487 235.635 92.3282 236.387 92.3282 237.413Z" fill="#5552E1"/>
<path d="M92.3968 221.002C92.3968 221.984 93.1926 222.78 94.1744 222.78C95.1561 222.78 95.9519 221.984 95.9519 221.002C95.9519 220.02 95.1561 219.224 94.1744 219.224C93.1926 219.224 92.3968 220.02 92.3968 221.002Z" fill="#5552E1"/>
<path d="M92.3968 204.659C92.3968 205.641 93.1926 206.437 94.1744 206.437C95.1561 206.437 95.9519 205.641 95.9519 204.659C95.9519 203.677 95.1561 202.881 94.1744 202.881C93.1926 202.881 92.3968 203.677 92.3968 204.659Z" fill="#5552E1"/>
<path d="M92.3968 188.317C92.3968 189.299 93.1926 190.095 94.1744 190.095C95.1561 190.095 95.9519 189.299 95.9519 188.317C95.9519 187.335 95.1561 186.539 94.1744 186.539C93.1926 186.539 92.3968 187.335 92.3968 188.317Z" fill="#5552E1"/>
<path d="M108.644 288.23C109.621 288.327 110.491 287.613 110.588 286.636C110.684 285.659 109.971 284.789 108.994 284.692C108.017 284.595 107.147 285.309 107.05 286.286C106.953 287.263 107.667 288.134 108.644 288.23Z" fill="#5552E1"/>
<path d="M107.027 270.099C107.027 271.081 107.823 271.877 108.805 271.877C109.787 271.877 110.582 271.081 110.582 270.099C110.582 269.117 109.787 268.321 108.805 268.321C107.823 268.321 107.027 269.117 107.027 270.099Z" fill="#5552E1"/>
<path d="M107.027 253.756C107.027 254.738 107.823 255.534 108.805 255.534C109.787 255.534 110.582 254.738 110.582 253.756C110.582 252.774 109.787 251.978 108.805 251.978C107.823 251.978 107.027 252.774 107.027 253.756Z" fill="#5552E1"/>
<path d="M106.959 237.413C106.959 238.439 107.779 239.191 108.736 239.191C109.762 239.191 110.514 238.37 110.514 237.413C110.514 236.387 109.693 235.635 108.736 235.635C107.779 235.567 106.959 236.387 106.959 237.413Z" fill="#5552E1"/>
<path d="M107.027 221.002C107.027 221.984 107.823 222.78 108.805 222.78C109.787 222.78 110.582 221.984 110.582 221.002C110.582 220.02 109.787 219.224 108.805 219.224C107.823 219.224 107.027 220.02 107.027 221.002Z" fill="#5552E1"/>
<path d="M107.027 204.659C107.027 205.641 107.823 206.437 108.805 206.437C109.787 206.437 110.582 205.641 110.582 204.659C110.582 203.677 109.787 202.881 108.805 202.881C107.823 202.881 107.027 203.677 107.027 204.659Z" fill="#5552E1"/>
<path d="M107.027 188.317C107.027 189.299 107.823 190.095 108.805 190.095C109.787 190.095 110.582 189.299 110.582 188.317C110.582 187.335 109.787 186.539 108.805 186.539C107.823 186.539 107.027 187.335 107.027 188.317Z" fill="#5552E1"/>
<path d="M570.079 345.18C570.079 346.162 570.875 346.958 571.857 346.958C572.839 346.958 573.635 346.162 573.635 345.18C573.635 344.198 572.839 343.402 571.857 343.402C570.875 343.402 570.079 344.198 570.079 345.18Z" fill="#5552E1"/>
<path d="M584.71 345.18C584.71 346.162 585.506 346.958 586.488 346.958C587.469 346.958 588.265 346.162 588.265 345.18C588.265 344.198 587.469 343.402 586.488 343.402C585.506 343.402 584.71 344.198 584.71 345.18Z" fill="#5552E1"/>
<path d="M599.341 345.18C599.341 346.205 600.161 346.958 601.119 346.958C602.144 346.958 602.896 346.137 602.896 345.18C602.896 344.154 602.076 343.402 601.119 343.402C600.161 343.402 599.341 344.222 599.341 345.18Z" fill="#5552E1"/>
<path d="M613.972 345.18C613.972 346.205 614.792 346.958 615.749 346.958C616.775 346.958 617.527 346.137 617.527 345.18C617.527 344.154 616.706 343.402 615.749 343.402C614.792 343.402 613.972 344.222 613.972 345.18Z" fill="#5552E1"/>
<path d="M628.602 345.18C628.602 346.162 629.398 346.958 630.38 346.958C631.361 346.958 632.157 346.162 632.157 345.18C632.157 344.198 631.361 343.402 630.38 343.402C629.398 343.402 628.602 344.198 628.602 345.18Z" fill="#5552E1"/>
<path d="M409.621 117.271C409.621 118.296 410.441 119.048 411.399 119.048C412.424 119.048 413.176 118.228 413.176 117.271C413.176 116.245 412.356 115.493 411.399 115.493C410.373 115.424 409.621 116.245 409.621 117.271Z" fill="#5552E1"/>
<path d="M409.621 100.928C409.621 101.954 410.441 102.706 411.399 102.706C412.424 102.706 413.176 101.885 413.176 100.928C413.176 99.9024 412.356 99.1502 411.399 99.1502C410.373 99.0818 409.621 99.9024 409.621 100.928Z" fill="#5552E1"/>
<path d="M409.621 84.517C409.621 85.5427 410.441 86.2949 411.399 86.2949C412.424 86.2949 413.176 85.4743 413.176 84.517C413.176 83.4913 412.356 82.7391 411.399 82.7391C410.373 82.7391 409.621 83.5597 409.621 84.517Z" fill="#5552E1"/>
<path d="M409.621 68.1738C409.621 69.1995 410.441 69.9517 411.399 69.9517C412.424 69.9517 413.176 69.1311 413.176 68.1738C413.176 67.2165 412.356 66.3959 411.399 66.3959C410.373 66.3276 409.621 67.1481 409.621 68.1738Z" fill="#5552E1"/>
<path d="M409.621 51.8312C409.621 52.8569 410.441 53.6091 411.399 53.6091C412.424 53.6091 413.176 52.7886 413.176 51.8312C413.176 50.8056 412.356 50.0534 411.399 50.0534C410.373 49.985 409.621 50.8056 409.621 51.8312Z" fill="#5552E1"/>
<path d="M409.621 35.4202C409.621 36.4459 410.441 37.198 411.399 37.198C412.424 37.198 413.176 36.3775 413.176 35.4202C413.176 34.3945 412.356 33.6423 411.399 33.6423C410.373 33.6423 409.621 34.4629 409.621 35.4202Z" fill="#5552E1"/>
<path d="M413.176 19.0776C413.176 18.0519 412.356 17.2997 411.399 17.2997C410.373 17.2997 409.621 18.1203 409.621 19.0776C409.621 20.1033 410.441 20.8555 411.399 20.8555C412.424 20.8555 413.176 20.0349 413.176 19.0776Z" fill="#5552E1"/>
<path d="M424.252 117.271C424.252 118.296 425.072 119.048 426.029 119.048C427.055 119.048 427.807 118.228 427.807 117.271C427.807 116.245 426.986 115.493 426.029 115.493C425.004 115.424 424.252 116.245 424.252 117.271Z" fill="#5552E1"/>
<path d="M424.252 100.928C424.252 101.954 425.072 102.706 426.029 102.706C427.055 102.706 427.807 101.885 427.807 100.928C427.807 99.9024 426.986 99.1502 426.029 99.1502C425.004 99.0818 424.252 99.9024 424.252 100.928Z" fill="#5552E1"/>
<path d="M424.252 84.517C424.252 85.5427 425.072 86.2949 426.029 86.2949C427.055 86.2949 427.807 85.4743 427.807 84.517C427.807 83.4913 426.986 82.7391 426.029 82.7391C425.004 82.7391 424.252 83.5597 424.252 84.517Z" fill="#5552E1"/>
<path d="M424.252 68.1738C424.252 69.1995 425.072 69.9517 426.029 69.9517C427.055 69.9517 427.807 69.1311 427.807 68.1738C427.807 67.2165 426.986 66.3959 426.029 66.3959C425.004 66.3276 424.252 67.1481 424.252 68.1738Z" fill="#5552E1"/>
<path d="M424.252 51.8312C424.252 52.8569 425.072 53.6091 426.029 53.6091C427.055 53.6091 427.807 52.7886 427.807 51.8312C427.807 50.8056 426.986 50.0534 426.029 50.0534C425.004 49.985 424.252 50.8056 424.252 51.8312Z" fill="#5552E1"/>
<path d="M424.252 35.4202C424.252 36.4459 425.072 37.198 426.029 37.198C427.055 37.198 427.807 36.3775 427.807 35.4202C427.807 34.3945 426.986 33.6423 426.029 33.6423C425.004 33.6423 424.252 34.4629 424.252 35.4202Z" fill="#5552E1"/>
<path d="M424.252 19.0776C424.252 20.1033 425.072 20.8555 426.029 20.8555C427.055 20.8555 427.807 20.0349 427.807 19.0776C427.807 18.0519 426.986 17.2998 426.029 17.2998C425.004 17.2314 424.252 18.0519 424.252 19.0776Z" fill="#5552E1"/>
<path d="M438.883 117.271C438.883 118.252 439.679 119.048 440.66 119.048C441.642 119.048 442.438 118.252 442.438 117.271C442.438 116.289 441.642 115.493 440.66 115.493C439.679 115.493 438.883 116.289 438.883 117.271Z" fill="#5552E1"/>
<path d="M438.883 100.928C438.883 101.91 439.679 102.706 440.66 102.706C441.642 102.706 442.438 101.91 442.438 100.928C442.438 99.9462 441.642 99.1502 440.66 99.1502C439.679 99.1502 438.883 99.9462 438.883 100.928Z" fill="#5552E1"/>
<path d="M438.883 84.517C438.883 85.5427 439.703 86.2949 440.66 86.2949C441.686 86.2949 442.438 85.4743 442.438 84.517C442.438 83.4913 441.617 82.7391 440.66 82.7391C439.703 82.7391 438.883 83.5597 438.883 84.517Z" fill="#5552E1"/>
<path d="M438.883 68.1738C438.883 69.1557 439.679 69.9517 440.66 69.9517C441.642 69.9517 442.438 69.1557 442.438 68.1738C442.438 67.1919 441.642 66.3959 440.66 66.3959C439.679 66.3959 438.883 67.1919 438.883 68.1738Z" fill="#5552E1"/>
<path d="M438.883 51.8312C438.883 52.8131 439.679 53.6091 440.66 53.6091C441.642 53.6091 442.438 52.8131 442.438 51.8312C442.438 50.8494 441.642 50.0534 440.66 50.0534C439.679 50.0534 438.883 50.8494 438.883 51.8312Z" fill="#5552E1"/>
<path d="M438.883 35.4202C438.883 36.4021 439.679 37.198 440.66 37.198C441.642 37.198 442.438 36.4021 442.438 35.4202C442.438 34.4383 441.642 33.6423 440.66 33.6423C439.679 33.6423 438.883 34.4383 438.883 35.4202Z" fill="#5552E1"/>
<path d="M438.883 19.0776C438.883 20.1033 439.703 20.8555 440.66 20.8555C441.686 20.8555 442.438 20.0349 442.438 19.0776C442.438 18.0519 441.617 17.2998 440.66 17.2998C439.703 17.2314 438.883 18.0519 438.883 19.0776Z" fill="#5552E1"/>
<path d="M453.513 117.271C453.513 118.252 454.309 119.048 455.291 119.048C456.272 119.048 457.068 118.252 457.068 117.271C457.068 116.289 456.272 115.493 455.291 115.493C454.309 115.493 453.513 116.289 453.513 117.271Z" fill="#5552E1"/>
<path d="M453.513 100.928C453.513 101.91 454.309 102.706 455.291 102.706C456.272 102.706 457.068 101.91 457.068 100.928C457.068 99.9462 456.272 99.1502 455.291 99.1502C454.309 99.1502 453.513 99.9462 453.513 100.928Z" fill="#5552E1"/>
<path d="M453.513 84.517C453.513 85.5427 454.334 86.2949 455.291 86.2949C456.316 86.2949 457.068 85.4743 457.068 84.517C457.068 83.4913 456.248 82.7391 455.291 82.7391C454.334 82.7391 453.513 83.5597 453.513 84.517Z" fill="#5552E1"/>
<path d="M453.513 68.1738C453.513 69.1557 454.309 69.9517 455.291 69.9517C456.272 69.9517 457.068 69.1557 457.068 68.1738C457.068 67.1919 456.272 66.3959 455.291 66.3959C454.309 66.3959 453.513 67.1919 453.513 68.1738Z" fill="#5552E1"/>
<path d="M453.513 51.8312C453.513 52.8131 454.309 53.6091 455.291 53.6091C456.272 53.6091 457.068 52.8131 457.068 51.8312C457.068 50.8494 456.272 50.0534 455.291 50.0534C454.309 50.0534 453.513 50.8494 453.513 51.8312Z" fill="#5552E1"/>
<path d="M453.513 35.4202C453.513 36.4021 454.309 37.198 455.291 37.198C456.272 37.198 457.068 36.4021 457.068 35.4202C457.068 34.4383 456.272 33.6423 455.291 33.6423C454.309 33.6423 453.513 34.4383 453.513 35.4202Z" fill="#5552E1"/>
<path d="M453.513 19.0776C453.513 20.1033 454.334 20.8555 455.291 20.8555C456.316 20.8555 457.068 20.0349 457.068 19.0776C457.068 18.0519 456.248 17.2998 455.291 17.2998C454.334 17.2314 453.513 18.0519 453.513 19.0776Z" fill="#5552E1"/>
<path d="M468.144 117.271C468.144 118.296 468.964 119.048 469.921 119.048C470.947 119.048 471.699 118.228 471.699 117.271C471.699 116.245 470.878 115.493 469.921 115.493C468.964 115.424 468.144 116.245 468.144 117.271Z" fill="#5552E1"/>
<path d="M468.144 100.928C468.144 101.954 468.964 102.706 469.921 102.706C470.947 102.706 471.699 101.885 471.699 100.928C471.699 99.9024 470.878 99.1502 469.921 99.1502C468.964 99.0818 468.144 99.9024 468.144 100.928Z" fill="#5552E1"/>
<path d="M468.144 84.517C468.144 85.5427 468.964 86.2949 469.921 86.2949C470.947 86.2949 471.699 85.4743 471.699 84.517C471.699 83.4913 470.878 82.7391 469.921 82.7391C468.964 82.7391 468.144 83.5597 468.144 84.517Z" fill="#5552E1"/>
<path d="M468.144 68.1738C468.144 69.1995 468.964 69.9517 469.921 69.9517C470.947 69.9517 471.699 69.1311 471.699 68.1738C471.699 67.2165 470.878 66.396 469.921 66.396C468.964 66.3276 468.144 67.1481 468.144 68.1738Z" fill="#5552E1"/>
<path d="M468.144 51.8313C468.144 52.8569 468.964 53.6091 469.921 53.6091C470.947 53.6091 471.699 52.7886 471.699 51.8313C471.699 50.8056 470.878 50.0534 469.921 50.0534C468.964 49.985 468.144 50.8056 468.144 51.8313Z" fill="#5552E1"/>
<path d="M468.144 35.4202C468.144 36.4459 468.964 37.198 469.921 37.198C470.947 37.198 471.699 36.3775 471.699 35.4202C471.699 34.3945 470.878 33.6423 469.921 33.6423C468.964 33.6423 468.144 34.4629 468.144 35.4202Z" fill="#5552E1"/>
<path d="M468.144 19.0776C468.144 20.1033 468.964 20.8555 469.921 20.8555C470.947 20.8555 471.699 20.0349 471.699 19.0776C471.699 18.0519 470.878 17.2998 469.921 17.2998C468.964 17.2314 468.144 18.0519 468.144 19.0776Z" fill="#5552E1"/>
<path d="M309.463 295.331L337.015 267.774L364.567 295.331L337.015 322.888L309.463 295.331ZM337.015 269.415L311.104 295.331L337.015 321.247L362.927 295.331L337.015 269.415Z" fill="#5552E1"/>
<path d="M567.892 102.432L595.444 74.8755L622.996 102.432L595.444 129.989L567.892 102.432ZM595.444 76.5166L569.533 102.432L595.444 128.348L621.355 102.432L595.444 76.5166Z" fill="#5552E1"/>
<path d="M567.892 113.305L595.444 85.7477L622.996 113.305L595.444 140.862L567.892 113.305ZM595.444 87.3888L569.533 113.305L595.444 139.22L621.355 113.305L595.444 87.3888Z" fill="#9896FF"/>
<path d="M134.785 230.37L162.337 202.814L189.889 230.37L162.337 257.927L134.785 230.37ZM162.337 204.455L136.426 230.37L162.337 256.286L188.248 230.37L162.337 204.455Z" fill="#5552E1"/>
<path d="M146.612 230.37L174.164 202.814L201.716 230.37L174.164 257.927L146.612 230.37ZM174.164 204.455L148.253 230.37L174.164 256.286L200.075 230.37L174.164 204.455Z" fill="#9896FF"/>
<path d="M158.372 230.37L185.924 202.814L213.476 230.37L185.924 257.927L158.372 230.37ZM185.924 204.455L160.012 230.37L185.924 256.286L211.835 230.37L185.924 204.455Z" fill="#9896FF"/>
</g>
<defs>
<clipPath id="clip0">
<rect width="346" height="658" fill="white" transform="translate(658) rotate(90)"/>
</clipPath>
</defs>
</svg>
