<svg width="288" height="68" viewBox="0 0 288 68" fill="none" xmlns="http://www.w3.org/2000/svg">
<path d="M290.7 62.4001H285.9V67.2001H290.7V62.4001Z" fill="#43508E"/>
<path d="M281.1 62.4001H276.3V67.2001H281.1V62.4001Z" fill="#43508E"/>
<path d="M271.6 62.4001H266.8V67.2001H271.6V62.4001Z" fill="#43508E"/>
<path d="M262 62.4001H257.2V67.2001H262V62.4001Z" fill="#43508E"/>
<path d="M252.5 62.4001H247.7V67.2001H252.5V62.4001Z" fill="#43508E"/>
<path d="M242.9 62.4001H238.1V67.2001H242.9V62.4001Z" fill="#43508E"/>
<path d="M233.4 62.4001H228.6V67.2001H233.4V62.4001Z" fill="#43508E"/>
<path d="M223.8 62.4001H219V67.2001H223.8V62.4001Z" fill="#43508E"/>
<path d="M214.2 62.4001H209.4V67.2001H214.2V62.4001Z" fill="#43508E"/>
<path d="M204.7 62.4001H199.9V67.2001H204.7V62.4001Z" fill="#43508E"/>
<path d="M195.1 62.4001H190.3V67.2001H195.1V62.4001Z" fill="#43508E"/>
<path d="M185.6 62.4001H180.8V67.2001H185.6V62.4001Z" fill="#43508E"/>
<path d="M176 62.4001H171.2V67.2001H176V62.4001Z" fill="#43508E"/>
<path d="M166.5 62.4001H161.7V67.2001H166.5V62.4001Z" fill="#43508E"/>
<path d="M156.9 62.4001H152.1V67.2001H156.9V62.4001Z" fill="#43508E"/>
<path d="M147.3 62.4001H142.5V67.2001H147.3V62.4001Z" fill="#43508E"/>
<path d="M137.8 62.4001H133V67.2001H137.8V62.4001Z" fill="#43508E"/>
<path d="M128.2 62.4001H123.4V67.2001H128.2V62.4001Z" fill="#43508E"/>
<path d="M118.7 62.4001H113.9V67.2001H118.7V62.4001Z" fill="#43508E"/>
<path d="M109.1 62.4001H104.3V67.2001H109.1V62.4001Z" fill="#43508E"/>
<path d="M99.5998 62.4001H94.7998V67.2001H99.5998V62.4001Z" fill="#43508E"/>
<path d="M90.0002 62.4001H85.2002V67.2001H90.0002V62.4001Z" fill="#43508E"/>
<path d="M80.3997 62.4001H75.5996V67.2001H80.3997V62.4001Z" fill="#43508E"/>
<path d="M70.8997 62.4001H66.0996V67.2001H70.8997V62.4001Z" fill="#43508E"/>
<path d="M61.3 62.4001H56.5V67.2001H61.3V62.4001Z" fill="#43508E"/>
<path d="M51.8 62.4001H47V67.2001H51.8V62.4001Z" fill="#43508E"/>
<path d="M42.2004 62.4001H37.4004V67.2001H42.2004V62.4001Z" fill="#43508E"/>
<path d="M32.7004 62.4001H27.9004V67.2001H32.7004V62.4001Z" fill="#43508E"/>
<path d="M23.0998 62.4001H18.2998V67.2001H23.0998V62.4001Z" fill="#43508E"/>
<path d="M13.5002 62.4001H8.7002V67.2001H13.5002V62.4001Z" fill="#43508E"/>
<path d="M4.00018 62.4001H-0.799805V67.2001H4.00018V62.4001Z" fill="#43508E"/>
<path d="M285.9 57.7001H281.1V62.5001H285.9V57.7001Z" fill="#43508E"/>
<path d="M276.4 57.7001H271.6V62.5001H276.4V57.7001Z" fill="#43508E"/>
<path d="M266.8 57.7001H262V62.5001H266.8V57.7001Z" fill="#43508E"/>
<path d="M257.2 57.7001H252.4V62.5001H257.2V57.7001Z" fill="#43508E"/>
<path d="M247.7 57.7001H242.9V62.5001H247.7V57.7001Z" fill="#43508E"/>
<path d="M238.1 57.7001H233.3V62.5001H238.1V57.7001Z" fill="#43508E"/>
<path d="M228.6 57.7001H223.8V62.5001H228.6V57.7001Z" fill="#43508E"/>
<path d="M219 57.7001H214.2V62.5001H219V57.7001Z" fill="#43508E"/>
<path d="M209.5 57.7001H204.7V62.5001H209.5V57.7001Z" fill="#43508E"/>
<path d="M199.9 57.7001H195.1V62.5001H199.9V57.7001Z" fill="#43508E"/>
<path d="M190.3 57.7001H185.5V62.5001H190.3V57.7001Z" fill="#43508E"/>
<path d="M180.8 57.7001H176V62.5001H180.8V57.7001Z" fill="#43508E"/>
<path d="M171.2 57.7001H166.4V62.5001H171.2V57.7001Z" fill="#43508E"/>
<path d="M161.7 57.7001H156.9V62.5001H161.7V57.7001Z" fill="#43508E"/>
<path d="M152.1 57.7001H147.3V62.5001H152.1V57.7001Z" fill="#43508E"/>
<path d="M142.6 57.7001H137.8V62.5001H142.6V57.7001Z" fill="#43508E"/>
<path d="M133 57.7001H128.2V62.5001H133V57.7001Z" fill="#43508E"/>
<path d="M123.4 57.7001H118.6V62.5001H123.4V57.7001Z" fill="#43508E"/>
<path d="M113.9 57.7001H109.1V62.5001H113.9V57.7001Z" fill="#43508E"/>
<path d="M104.3 57.7001H99.5V62.5001H104.3V57.7001Z" fill="#43508E"/>
<path d="M94.8 57.7001H90V62.5001H94.8V57.7001Z" fill="#43508E"/>
<path d="M85.2004 57.7001H80.4004V62.5001H85.2004V57.7001Z" fill="#43508E"/>
<path d="M75.7004 57.7001H70.9004V62.5001H75.7004V57.7001Z" fill="#43508E"/>
<path d="M66.0998 57.7001H61.2998V62.5001H66.0998V57.7001Z" fill="#43508E"/>
<path d="M56.5002 57.7001H51.7002V62.5001H56.5002V57.7001Z" fill="#43508E"/>
<path d="M47.0002 57.7001H42.2002V62.5001H47.0002V57.7001Z" fill="#43508E"/>
<path d="M37.3996 57.7001H32.5996V62.5001H37.3996V57.7001Z" fill="#43508E"/>
<path d="M27.8996 57.7001H23.0996V62.5001H27.8996V57.7001Z" fill="#43508E"/>
<path d="M18.3 57.7001H13.5V62.5001H18.3V57.7001Z" fill="#43508E"/>
<path d="M8.79999 57.7001H4V62.5001H8.79999V57.7001Z" fill="#43508E"/>
<path d="M290.7 52.9001H285.9V57.7001H290.7V52.9001Z" fill="#43508E"/>
<path d="M281.1 52.9001H276.3V57.7001H281.1V52.9001Z" fill="#43508E"/>
<path d="M271.6 52.9001H266.8V57.7001H271.6V52.9001Z" fill="#43508E"/>
<path d="M262 52.9001H257.2V57.7001H262V52.9001Z" fill="#43508E"/>
<path d="M252.5 52.9001H247.7V57.7001H252.5V52.9001Z" fill="#43508E"/>
<path d="M242.9 52.9001H238.1V57.7001H242.9V52.9001Z" fill="#43508E"/>
<path d="M233.4 52.9001H228.6V57.7001H233.4V52.9001Z" fill="#43508E"/>
<path d="M223.8 52.9001H219V57.7001H223.8V52.9001Z" fill="#43508E"/>
<path d="M214.2 52.9001H209.4V57.7001H214.2V52.9001Z" fill="#43508E"/>
<path d="M204.7 52.9001H199.9V57.7001H204.7V52.9001Z" fill="#43508E"/>
<path d="M195.1 52.9001H190.3V57.7001H195.1V52.9001Z" fill="#43508E"/>
<path d="M185.6 52.9001H180.8V57.7001H185.6V52.9001Z" fill="#43508E"/>
<path d="M176 52.9001H171.2V57.7001H176V52.9001Z" fill="#43508E"/>
<path d="M166.5 52.9001H161.7V57.7001H166.5V52.9001Z" fill="#43508E"/>
<path d="M156.9 52.9001H152.1V57.7001H156.9V52.9001Z" fill="#43508E"/>
<path d="M147.3 52.9001H142.5V57.7001H147.3V52.9001Z" fill="#43508E"/>
<path d="M137.8 52.9001H133V57.7001H137.8V52.9001Z" fill="#43508E"/>
<path d="M128.2 52.9001H123.4V57.7001H128.2V52.9001Z" fill="#43508E"/>
<path d="M118.7 52.9001H113.9V57.7001H118.7V52.9001Z" fill="#43508E"/>
<path d="M109.1 52.9001H104.3V57.7001H109.1V52.9001Z" fill="#43508E"/>
<path d="M99.5998 52.9001H94.7998V57.7001H99.5998V52.9001Z" fill="#43508E"/>
<path d="M90.0002 52.9001H85.2002V57.7001H90.0002V52.9001Z" fill="#43508E"/>
<path d="M80.3997 52.9001H75.5996V57.7001H80.3997V52.9001Z" fill="#43508E"/>
<path d="M70.8997 52.9001H66.0996V57.7001H70.8997V52.9001Z" fill="#43508E"/>
<path d="M61.3 52.9001H56.5V57.7001H61.3V52.9001Z" fill="#43508E"/>
<path d="M51.8 52.9001H47V57.7001H51.8V52.9001Z" fill="#43508E"/>
<path d="M42.2004 52.9001H37.4004V57.7001H42.2004V52.9001Z" fill="#43508E"/>
<path d="M32.7004 52.9001H27.9004V57.7001H32.7004V52.9001Z" fill="#43508E"/>
<path d="M23.0998 52.9001H18.2998V57.7001H23.0998V52.9001Z" fill="#43508E"/>
<path d="M13.5002 52.9001H8.7002V57.7001H13.5002V52.9001Z" fill="#43508E"/>
<path d="M4.00018 52.9001H-0.799805V57.7001H4.00018V52.9001Z" fill="#43508E"/>
<path d="M285.9 48.1001H281.1V52.9001H285.9V48.1001Z" fill="#43508E"/>
<path d="M276.4 48.1001H271.6V52.9001H276.4V48.1001Z" fill="#43508E"/>
<path d="M266.8 48.1001H262V52.9001H266.8V48.1001Z" fill="#43508E"/>
<path d="M257.2 48.1001H252.4V52.9001H257.2V48.1001Z" fill="#43508E"/>
<path d="M247.7 48.1001H242.9V52.9001H247.7V48.1001Z" fill="#43508E"/>
<path d="M238.1 48.1001H233.3V52.9001H238.1V48.1001Z" fill="#43508E"/>
<path d="M228.6 48.1001H223.8V52.9001H228.6V48.1001Z" fill="#43508E"/>
<path d="M219 48.1001H214.2V52.9001H219V48.1001Z" fill="#43508E"/>
<path d="M209.5 48.1001H204.7V52.9001H209.5V48.1001Z" fill="#43508E"/>
<path d="M199.9 48.1001H195.1V52.9001H199.9V48.1001Z" fill="#43508E"/>
<path d="M190.3 48.1001H185.5V52.9001H190.3V48.1001Z" fill="#43508E"/>
<path d="M180.8 48.1001H176V52.9001H180.8V48.1001Z" fill="#43508E"/>
<path d="M171.2 48.1001H166.4V52.9001H171.2V48.1001Z" fill="#43508E"/>
<path d="M161.7 48.1001H156.9V52.9001H161.7V48.1001Z" fill="#43508E"/>
<path d="M152.1 48.1001H147.3V52.9001H152.1V48.1001Z" fill="#43508E"/>
<path d="M142.6 48.1001H137.8V52.9001H142.6V48.1001Z" fill="#43508E"/>
<path d="M133 48.1001H128.2V52.9001H133V48.1001Z" fill="#43508E"/>
<path d="M123.4 48.1001H118.6V52.9001H123.4V48.1001Z" fill="#43508E"/>
<path d="M113.9 48.1001H109.1V52.9001H113.9V48.1001Z" fill="#43508E"/>
<path d="M104.3 48.1001H99.5V52.9001H104.3V48.1001Z" fill="#43508E"/>
<path d="M94.8 48.1001H90V52.9001H94.8V48.1001Z" fill="#43508E"/>
<path d="M85.2004 48.1001H80.4004V52.9001H85.2004V48.1001Z" fill="#43508E"/>
<path d="M75.7004 48.1001H70.9004V52.9001H75.7004V48.1001Z" fill="#43508E"/>
<path d="M66.0998 48.1001H61.2998V52.9001H66.0998V48.1001Z" fill="#43508E"/>
<path d="M56.5002 48.1001H51.7002V52.9001H56.5002V48.1001Z" fill="#43508E"/>
<path d="M47.0002 48.1001H42.2002V52.9001H47.0002V48.1001Z" fill="#43508E"/>
<path d="M37.3996 48.1001H32.5996V52.9001H37.3996V48.1001Z" fill="#43508E"/>
<path d="M27.8996 48.1001H23.0996V52.9001H27.8996V48.1001Z" fill="#43508E"/>
<path d="M18.3 48.1001H13.5V52.9001H18.3V48.1001Z" fill="#43508E"/>
<path d="M8.79999 48.1001H4V52.9001H8.79999V48.1001Z" fill="#43508E"/>
<path d="M290.7 43.3H285.9V48.1H290.7V43.3Z" fill="#43508E"/>
<path d="M281.1 43.3H276.3V48.1H281.1V43.3Z" fill="#43508E"/>
<path d="M271.6 43.3H266.8V48.1H271.6V43.3Z" fill="#43508E"/>
<path d="M262 43.3H257.2V48.1H262V43.3Z" fill="#43508E"/>
<path d="M252.5 43.3H247.7V48.1H252.5V43.3Z" fill="#43508E"/>
<path d="M242.9 43.3H238.1V48.1H242.9V43.3Z" fill="#43508E"/>
<path d="M233.4 43.3H228.6V48.1H233.4V43.3Z" fill="#43508E"/>
<path d="M223.8 43.3H219V48.1H223.8V43.3Z" fill="#43508E"/>
<path d="M214.2 43.3H209.4V48.1H214.2V43.3Z" fill="#43508E"/>
<path d="M204.7 43.3H199.9V48.1H204.7V43.3Z" fill="#43508E"/>
<path d="M195.1 43.3H190.3V48.1H195.1V43.3Z" fill="#43508E"/>
<path d="M185.6 43.3H180.8V48.1H185.6V43.3Z" fill="#43508E"/>
<path d="M176 43.3H171.2V48.1H176V43.3Z" fill="#43508E"/>
<path d="M166.5 43.3H161.7V48.1H166.5V43.3Z" fill="#43508E"/>
<path d="M156.9 43.3H152.1V48.1H156.9V43.3Z" fill="#43508E"/>
<path d="M147.3 43.3H142.5V48.1H147.3V43.3Z" fill="#43508E"/>
<path d="M137.8 43.3H133V48.1H137.8V43.3Z" fill="#43508E"/>
<path d="M128.2 43.3H123.4V48.1H128.2V43.3Z" fill="#43508E"/>
<path d="M118.7 43.3H113.9V48.1H118.7V43.3Z" fill="#43508E"/>
<path d="M109.1 43.3H104.3V48.1H109.1V43.3Z" fill="#43508E"/>
<path d="M99.5998 43.3H94.7998V48.1H99.5998V43.3Z" fill="#43508E"/>
<path d="M90.0002 43.3H85.2002V48.1H90.0002V43.3Z" fill="#43508E"/>
<path d="M80.3997 43.3H75.5996V48.1H80.3997V43.3Z" fill="#43508E"/>
<path d="M70.8997 43.3H66.0996V48.1H70.8997V43.3Z" fill="#43508E"/>
<path d="M61.3 43.3H56.5V48.1H61.3V43.3Z" fill="#43508E"/>
<path d="M51.8 43.3H47V48.1H51.8V43.3Z" fill="#43508E"/>
<path d="M42.2004 43.3H37.4004V48.1H42.2004V43.3Z" fill="#43508E"/>
<path d="M32.7004 43.3H27.9004V48.1H32.7004V43.3Z" fill="#43508E"/>
<path d="M23.0998 43.3H18.2998V48.1H23.0998V43.3Z" fill="#43508E"/>
<path d="M13.5002 43.3H8.7002V48.1H13.5002V43.3Z" fill="#43508E"/>
<path d="M4.00018 43.3H-0.799805V48.1H4.00018V43.3Z" fill="#43508E"/>
<path d="M285.9 38.5H281.1V43.3H285.9V38.5Z" fill="#43508E"/>
<path d="M276.4 38.5H271.6V43.3H276.4V38.5Z" fill="#43508E"/>
<path d="M266.8 38.5H262V43.3H266.8V38.5Z" fill="#43508E"/>
<path d="M257.2 38.5H252.4V43.3H257.2V38.5Z" fill="#43508E"/>
<path d="M247.7 38.5H242.9V43.3H247.7V38.5Z" fill="#43508E"/>
<path d="M238.1 38.5H233.3V43.3H238.1V38.5Z" fill="#43508E"/>
<path d="M228.6 38.5H223.8V43.3H228.6V38.5Z" fill="#43508E"/>
<path d="M219 38.5H214.2V43.3H219V38.5Z" fill="#43508E"/>
<path d="M209.5 38.5H204.7V43.3H209.5V38.5Z" fill="#43508E"/>
<path d="M199.9 38.5H195.1V43.3H199.9V38.5Z" fill="#43508E"/>
<path d="M190.3 38.5H185.5V43.3H190.3V38.5Z" fill="#43508E"/>
<path d="M180.8 38.5H176V43.3H180.8V38.5Z" fill="#43508E"/>
<path d="M171.2 38.5H166.4V43.3H171.2V38.5Z" fill="#43508E"/>
<path d="M161.7 38.5H156.9V43.3H161.7V38.5Z" fill="#43508E"/>
<path d="M152.1 38.5H147.3V43.3H152.1V38.5Z" fill="#43508E"/>
<path d="M142.6 38.5H137.8V43.3H142.6V38.5Z" fill="#43508E"/>
<path d="M133 38.5H128.2V43.3H133V38.5Z" fill="#43508E"/>
<path d="M123.4 38.5H118.6V43.3H123.4V38.5Z" fill="#43508E"/>
<path d="M113.9 38.5H109.1V43.3H113.9V38.5Z" fill="#43508E"/>
<path d="M104.3 38.5H99.5V43.3H104.3V38.5Z" fill="#43508E"/>
<path d="M94.8 38.5H90V43.3H94.8V38.5Z" fill="#43508E"/>
<path d="M85.2004 38.5H80.4004V43.3H85.2004V38.5Z" fill="#43508E"/>
<path d="M75.7004 38.5H70.9004V43.3H75.7004V38.5Z" fill="#43508E"/>
<path d="M66.0998 38.5H61.2998V43.3H66.0998V38.5Z" fill="#43508E"/>
<path d="M56.5002 38.5H51.7002V43.3H56.5002V38.5Z" fill="#43508E"/>
<path d="M47.0002 38.5H42.2002V43.3H47.0002V38.5Z" fill="#43508E"/>
<path d="M37.3996 38.5H32.5996V43.3H37.3996V38.5Z" fill="#43508E"/>
<path d="M27.8996 38.5H23.0996V43.3H27.8996V38.5Z" fill="#43508E"/>
<path d="M18.3 38.5H13.5V43.3H18.3V38.5Z" fill="#43508E"/>
<path d="M8.79999 38.5H4V43.3H8.79999V38.5Z" fill="#43508E"/>
<path d="M290.7 33.8H285.9V38.6H290.7V33.8Z" fill="#43508E"/>
<path d="M281.1 33.8H276.3V38.6H281.1V33.8Z" fill="#43508E"/>
<path d="M271.6 33.8H266.8V38.6H271.6V33.8Z" fill="#43508E"/>
<path d="M262 33.8H257.2V38.6H262V33.8Z" fill="#43508E"/>
<path d="M252.5 33.8H247.7V38.6H252.5V33.8Z" fill="#43508E"/>
<path d="M242.9 33.8H238.1V38.6H242.9V33.8Z" fill="#43508E"/>
<path d="M233.4 33.8H228.6V38.6H233.4V33.8Z" fill="#43508E"/>
<path d="M223.8 33.8H219V38.6H223.8V33.8Z" fill="#43508E"/>
<path d="M214.2 33.8H209.4V38.6H214.2V33.8Z" fill="#43508E"/>
<path d="M204.7 33.8H199.9V38.6H204.7V33.8Z" fill="#43508E"/>
<path d="M195.1 33.8H190.3V38.6H195.1V33.8Z" fill="#43508E"/>
<path d="M185.6 33.8H180.8V38.6H185.6V33.8Z" fill="#43508E"/>
<path d="M176 33.8H171.2V38.6H176V33.8Z" fill="#43508E"/>
<path d="M166.5 33.8H161.7V38.6H166.5V33.8Z" fill="#43508E"/>
<path d="M156.9 33.8H152.1V38.6H156.9V33.8Z" fill="#43508E"/>
<path d="M147.3 33.8H142.5V38.6H147.3V33.8Z" fill="#43508E"/>
<path d="M137.8 33.8H133V38.6H137.8V33.8Z" fill="#43508E"/>
<path d="M128.2 33.8H123.4V38.6H128.2V33.8Z" fill="#43508E"/>
<path d="M118.7 33.8H113.9V38.6H118.7V33.8Z" fill="#43508E"/>
<path d="M109.1 33.8H104.3V38.6H109.1V33.8Z" fill="#43508E"/>
<path d="M99.5998 33.8H94.7998V38.6H99.5998V33.8Z" fill="#43508E"/>
<path d="M90.0002 33.8H85.2002V38.6H90.0002V33.8Z" fill="#43508E"/>
<path d="M80.3997 33.8H75.5996V38.6H80.3997V33.8Z" fill="#43508E"/>
<path d="M70.8997 33.8H66.0996V38.6H70.8997V33.8Z" fill="#43508E"/>
<path d="M61.3 33.8H56.5V38.6H61.3V33.8Z" fill="#43508E"/>
<path d="M51.8 33.8H47V38.6H51.8V33.8Z" fill="#43508E"/>
<path d="M42.2004 33.8H37.4004V38.6H42.2004V33.8Z" fill="#43508E"/>
<path d="M32.7004 33.8H27.9004V38.6H32.7004V33.8Z" fill="#43508E"/>
<path d="M23.0998 33.8H18.2998V38.6H23.0998V33.8Z" fill="#43508E"/>
<path d="M13.5002 33.8H8.7002V38.6H13.5002V33.8Z" fill="#43508E"/>
<path d="M4.00018 33.8H-0.799805V38.6H4.00018V33.8Z" fill="#43508E"/>
<path d="M290.7 29H285.9V33.8H290.7V29Z" fill="#604391"/>
<path d="M281.1 29H276.3V33.8H281.1V29Z" fill="#604391"/>
<path d="M271.6 29H266.8V33.8H271.6V29Z" fill="#604391"/>
<path d="M262 29H257.2V33.8H262V29Z" fill="#604391"/>
<path d="M252.5 29H247.7V33.8H252.5V29Z" fill="#604391"/>
<path d="M242.9 29H238.1V33.8H242.9V29Z" fill="#604391"/>
<path d="M233.4 29H228.6V33.8H233.4V29Z" fill="#604391"/>
<path d="M223.8 29H219V33.8H223.8V29Z" fill="#604391"/>
<path d="M214.2 29H209.4V33.8H214.2V29Z" fill="#604391"/>
<path d="M204.7 29H199.9V33.8H204.7V29Z" fill="#604391"/>
<path d="M195.1 29H190.3V33.8H195.1V29Z" fill="#604391"/>
<path d="M185.6 29H180.8V33.8H185.6V29Z" fill="#604391"/>
<path d="M176 29H171.2V33.8H176V29Z" fill="#604391"/>
<path d="M166.5 29H161.7V33.8H166.5V29Z" fill="#604391"/>
<path d="M156.9 29H152.1V33.8H156.9V29Z" fill="#604391"/>
<path d="M147.3 29H142.5V33.8H147.3V29Z" fill="#604391"/>
<path d="M137.8 29H133V33.8H137.8V29Z" fill="#604391"/>
<path d="M128.2 29H123.4V33.8H128.2V29Z" fill="#604391"/>
<path d="M118.7 29H113.9V33.8H118.7V29Z" fill="#604391"/>
<path d="M109.1 29H104.3V33.8H109.1V29Z" fill="#604391"/>
<path d="M99.5998 29H94.7998V33.8H99.5998V29Z" fill="#604391"/>
<path d="M90.0002 29H85.2002V33.8H90.0002V29Z" fill="#604391"/>
<path d="M80.3997 29H75.5996V33.8H80.3997V29Z" fill="#604391"/>
<path d="M70.8997 29H66.0996V33.8H70.8997V29Z" fill="#604391"/>
<path d="M61.3 29H56.5V33.8H61.3V29Z" fill="#604391"/>
<path d="M51.8 29H47V33.8H51.8V29Z" fill="#604391"/>
<path d="M42.2004 29H37.4004V33.8H42.2004V29Z" fill="#604391"/>
<path d="M32.7004 29H27.9004V33.8H32.7004V29Z" fill="#604391"/>
<path d="M23.0998 29H18.2998V33.8H23.0998V29Z" fill="#604391"/>
<path d="M13.5002 29H8.7002V33.8H13.5002V29Z" fill="#604391"/>
<path d="M4.00018 29H-0.799805V33.8H4.00018V29Z" fill="#604391"/>
<path d="M285.9 24.2001H281.1V29.0001H285.9V24.2001Z" fill="#604391"/>
<path d="M276.4 24.2001H271.6V29.0001H276.4V24.2001Z" fill="#604391"/>
<path d="M266.8 24.2001H262V29.0001H266.8V24.2001Z" fill="#604391"/>
<path d="M257.2 24.2001H252.4V29.0001H257.2V24.2001Z" fill="#604391"/>
<path d="M247.7 24.2001H242.9V29.0001H247.7V24.2001Z" fill="#604391"/>
<path d="M238.1 24.2001H233.3V29.0001H238.1V24.2001Z" fill="#604391"/>
<path d="M228.6 24.2001H223.8V29.0001H228.6V24.2001Z" fill="#604391"/>
<path d="M219 24.2001H214.2V29.0001H219V24.2001Z" fill="#604391"/>
<path d="M209.5 24.2001H204.7V29.0001H209.5V24.2001Z" fill="#604391"/>
<path d="M199.9 24.2001H195.1V29.0001H199.9V24.2001Z" fill="#604391"/>
<path d="M190.3 24.2001H185.5V29.0001H190.3V24.2001Z" fill="#604391"/>
<path d="M180.8 24.2001H176V29.0001H180.8V24.2001Z" fill="#604391"/>
<path d="M171.2 24.2001H166.4V29.0001H171.2V24.2001Z" fill="#604391"/>
<path d="M161.7 24.2001H156.9V29.0001H161.7V24.2001Z" fill="#604391"/>
<path d="M152.1 24.2001H147.3V29.0001H152.1V24.2001Z" fill="#604391"/>
<path d="M142.6 24.2001H137.8V29.0001H142.6V24.2001Z" fill="#604391"/>
<path d="M133 24.2001H128.2V29.0001H133V24.2001Z" fill="#604391"/>
<path d="M123.4 24.2001H118.6V29.0001H123.4V24.2001Z" fill="#604391"/>
<path d="M113.9 24.2001H109.1V29.0001H113.9V24.2001Z" fill="#604391"/>
<path d="M104.3 24.2001H99.5V29.0001H104.3V24.2001Z" fill="#604391"/>
<path d="M94.8 24.2001H90V29.0001H94.8V24.2001Z" fill="#604391"/>
<path d="M85.2004 24.2001H80.4004V29.0001H85.2004V24.2001Z" fill="#604391"/>
<path d="M75.7004 24.2001H70.9004V29.0001H75.7004V24.2001Z" fill="#604391"/>
<path d="M66.0998 24.2001H61.2998V29.0001H66.0998V24.2001Z" fill="#604391"/>
<path d="M56.5002 24.2001H51.7002V29.0001H56.5002V24.2001Z" fill="#604391"/>
<path d="M47.0002 24.2001H42.2002V29.0001H47.0002V24.2001Z" fill="#604391"/>
<path d="M37.3996 24.2001H32.5996V29.0001H37.3996V24.2001Z" fill="#604391"/>
<path d="M27.8996 24.2001H23.0996V29.0001H27.8996V24.2001Z" fill="#604391"/>
<path d="M18.3 24.2001H13.5V29.0001H18.3V24.2001Z" fill="#604391"/>
<path d="M8.79999 24.2001H4V29.0001H8.79999V24.2001Z" fill="#604391"/>
<path d="M290.7 19.4001H285.9V24.2001H290.7V19.4001Z" fill="#604391"/>
<path d="M281.1 19.4001H276.3V24.2001H281.1V19.4001Z" fill="#604391"/>
<path d="M271.6 19.4001H266.8V24.2001H271.6V19.4001Z" fill="#604391"/>
<path d="M262 19.4001H257.2V24.2001H262V19.4001Z" fill="#604391"/>
<path d="M252.5 19.4001H247.7V24.2001H252.5V19.4001Z" fill="#604391"/>
<path d="M242.9 19.4001H238.1V24.2001H242.9V19.4001Z" fill="#604391"/>
<path d="M233.4 19.4001H228.6V24.2001H233.4V19.4001Z" fill="#604391"/>
<path d="M223.8 19.4001H219V24.2001H223.8V19.4001Z" fill="#604391"/>
<path d="M214.2 19.4001H209.4V24.2001H214.2V19.4001Z" fill="#604391"/>
<path d="M204.7 19.4001H199.9V24.2001H204.7V19.4001Z" fill="#604391"/>
<path d="M195.1 19.4001H190.3V24.2001H195.1V19.4001Z" fill="#604391"/>
<path d="M185.6 19.4001H180.8V24.2001H185.6V19.4001Z" fill="#604391"/>
<path d="M176 19.4001H171.2V24.2001H176V19.4001Z" fill="#604391"/>
<path d="M166.5 19.4001H161.7V24.2001H166.5V19.4001Z" fill="#604391"/>
<path d="M156.9 19.4001H152.1V24.2001H156.9V19.4001Z" fill="#604391"/>
<path d="M147.3 19.4001H142.5V24.2001H147.3V19.4001Z" fill="#604391"/>
<path d="M137.8 19.4001H133V24.2001H137.8V19.4001Z" fill="#604391"/>
<path d="M128.2 19.4001H123.4V24.2001H128.2V19.4001Z" fill="#604391"/>
<path d="M118.7 19.4001H113.9V24.2001H118.7V19.4001Z" fill="#604391"/>
<path d="M109.1 19.4001H104.3V24.2001H109.1V19.4001Z" fill="#604391"/>
<path d="M99.5998 19.4001H94.7998V24.2001H99.5998V19.4001Z" fill="#604391"/>
<path d="M90.0002 19.4001H85.2002V24.2001H90.0002V19.4001Z" fill="#604391"/>
<path d="M80.3997 19.4001H75.5996V24.2001H80.3997V19.4001Z" fill="#604391"/>
<path d="M70.8997 19.4001H66.0996V24.2001H70.8997V19.4001Z" fill="#604391"/>
<path d="M61.3 19.4001H56.5V24.2001H61.3V19.4001Z" fill="#604391"/>
<path d="M51.8 19.4001H47V24.2001H51.8V19.4001Z" fill="#604391"/>
<path d="M42.2004 19.4001H37.4004V24.2001H42.2004V19.4001Z" fill="#604391"/>
<path d="M32.7004 19.4001H27.9004V24.2001H32.7004V19.4001Z" fill="#604391"/>
<path d="M23.0998 19.4001H18.2998V24.2001H23.0998V19.4001Z" fill="#604391"/>
<path d="M13.5002 19.4001H8.7002V24.2001H13.5002V19.4001Z" fill="#604391"/>
<path d="M4.00018 19.4001H-0.799805V24.2001H4.00018V19.4001Z" fill="#604391"/>
<path d="M285.9 14.7001H281.1V19.5001H285.9V14.7001Z" fill="#604391"/>
<path d="M276.4 14.7001H271.6V19.5001H276.4V14.7001Z" fill="#604391"/>
<path d="M266.8 14.7001H262V19.5001H266.8V14.7001Z" fill="#604391"/>
<path d="M257.2 14.7001H252.4V19.5001H257.2V14.7001Z" fill="#604391"/>
<path d="M247.7 14.7001H242.9V19.5001H247.7V14.7001Z" fill="#604391"/>
<path d="M238.1 14.7001H233.3V19.5001H238.1V14.7001Z" fill="#604391"/>
<path d="M228.6 14.7001H223.8V19.5001H228.6V14.7001Z" fill="#604391"/>
<path d="M219 14.7001H214.2V19.5001H219V14.7001Z" fill="#604391"/>
<path d="M209.5 14.7001H204.7V19.5001H209.5V14.7001Z" fill="#604391"/>
<path d="M199.9 14.7001H195.1V19.5001H199.9V14.7001Z" fill="#604391"/>
<path d="M190.3 14.7001H185.5V19.5001H190.3V14.7001Z" fill="#604391"/>
<path d="M180.8 14.7001H176V19.5001H180.8V14.7001Z" fill="#604391"/>
<path d="M171.2 14.7001H166.4V19.5001H171.2V14.7001Z" fill="#604391"/>
<path d="M161.7 14.7001H156.9V19.5001H161.7V14.7001Z" fill="#604391"/>
<path d="M152.1 14.7001H147.3V19.5001H152.1V14.7001Z" fill="#604391"/>
<path d="M142.6 14.7001H137.8V19.5001H142.6V14.7001Z" fill="#604391"/>
<path d="M133 14.7001H128.2V19.5001H133V14.7001Z" fill="#604391"/>
<path d="M123.4 14.7001H118.6V19.5001H123.4V14.7001Z" fill="#604391"/>
<path d="M113.9 14.7001H109.1V19.5001H113.9V14.7001Z" fill="#604391"/>
<path d="M104.3 14.7001H99.5V19.5001H104.3V14.7001Z" fill="#604391"/>
<path d="M94.8 14.7001H90V19.5001H94.8V14.7001Z" fill="#604391"/>
<path d="M85.2004 14.7001H80.4004V19.5001H85.2004V14.7001Z" fill="#604391"/>
<path d="M75.7004 14.7001H70.9004V19.5001H75.7004V14.7001Z" fill="#604391"/>
<path d="M66.0998 14.7001H61.2998V19.5001H66.0998V14.7001Z" fill="#604391"/>
<path d="M56.5002 14.7001H51.7002V19.5001H56.5002V14.7001Z" fill="#604391"/>
<path d="M47.0002 14.7001H42.2002V19.5001H47.0002V14.7001Z" fill="#604391"/>
<path d="M37.3996 14.7001H32.5996V19.5001H37.3996V14.7001Z" fill="#604391"/>
<path d="M27.8996 14.7001H23.0996V19.5001H27.8996V14.7001Z" fill="#604391"/>
<path d="M18.3 14.7001H13.5V19.5001H18.3V14.7001Z" fill="#604391"/>
<path d="M8.79999 14.7001H4V19.5001H8.79999V14.7001Z" fill="#604391"/>
<path d="M290.7 9.90015H285.9V14.7001H290.7V9.90015Z" fill="#604391"/>
<path d="M281.1 9.90015H276.3V14.7001H281.1V9.90015Z" fill="#604391"/>
<path d="M271.6 9.90015H266.8V14.7001H271.6V9.90015Z" fill="#604391"/>
<path d="M262 9.90015H257.2V14.7001H262V9.90015Z" fill="#604391"/>
<path d="M252.5 9.90015H247.7V14.7001H252.5V9.90015Z" fill="#604391"/>
<path d="M242.9 9.90015H238.1V14.7001H242.9V9.90015Z" fill="#604391"/>
<path d="M233.4 9.90015H228.6V14.7001H233.4V9.90015Z" fill="#604391"/>
<path d="M223.8 9.90015H219V14.7001H223.8V9.90015Z" fill="#604391"/>
<path d="M214.2 9.90015H209.4V14.7001H214.2V9.90015Z" fill="#604391"/>
<path d="M204.7 9.90015H199.9V14.7001H204.7V9.90015Z" fill="#604391"/>
<path d="M195.1 9.90015H190.3V14.7001H195.1V9.90015Z" fill="#604391"/>
<path d="M185.6 9.90015H180.8V14.7001H185.6V9.90015Z" fill="#604391"/>
<path d="M176 9.90015H171.2V14.7001H176V9.90015Z" fill="#604391"/>
<path d="M166.5 9.90015H161.7V14.7001H166.5V9.90015Z" fill="#604391"/>
<path d="M156.9 9.90015H152.1V14.7001H156.9V9.90015Z" fill="#604391"/>
<path d="M147.3 9.90015H142.5V14.7001H147.3V9.90015Z" fill="#604391"/>
<path d="M137.8 9.90015H133V14.7001H137.8V9.90015Z" fill="#604391"/>
<path d="M128.2 9.90015H123.4V14.7001H128.2V9.90015Z" fill="#604391"/>
<path d="M118.7 9.90015H113.9V14.7001H118.7V9.90015Z" fill="#604391"/>
<path d="M109.1 9.90015H104.3V14.7001H109.1V9.90015Z" fill="#604391"/>
<path d="M99.5998 9.90015H94.7998V14.7001H99.5998V9.90015Z" fill="#604391"/>
<path d="M90.0002 9.90015H85.2002V14.7001H90.0002V9.90015Z" fill="#604391"/>
<path d="M80.3997 9.90015H75.5996V14.7001H80.3997V9.90015Z" fill="#604391"/>
<path d="M70.8997 9.90015H66.0996V14.7001H70.8997V9.90015Z" fill="#604391"/>
<path d="M61.3 9.90015H56.5V14.7001H61.3V9.90015Z" fill="#604391"/>
<path d="M51.8 9.90015H47V14.7001H51.8V9.90015Z" fill="#604391"/>
<path d="M42.2004 9.90015H37.4004V14.7001H42.2004V9.90015Z" fill="#604391"/>
<path d="M32.7004 9.90015H27.9004V14.7001H32.7004V9.90015Z" fill="#604391"/>
<path d="M23.0998 9.90015H18.2998V14.7001H23.0998V9.90015Z" fill="#604391"/>
<path d="M13.5002 9.90015H8.7002V14.7001H13.5002V9.90015Z" fill="#604391"/>
<path d="M4.00018 9.90015H-0.799805V14.7001H4.00018V9.90015Z" fill="#604391"/>
<path d="M285.9 5.1001H281.1V9.90015H285.9V5.1001Z" fill="#604391"/>
<path d="M276.4 5.1001H271.6V9.90015H276.4V5.1001Z" fill="#604391"/>
<path d="M266.8 5.1001H262V9.90015H266.8V5.1001Z" fill="#604391"/>
<path d="M257.2 5.1001H252.4V9.90015H257.2V5.1001Z" fill="#604391"/>
<path d="M247.7 5.1001H242.9V9.90015H247.7V5.1001Z" fill="#604391"/>
<path d="M238.1 5.1001H233.3V9.90015H238.1V5.1001Z" fill="#604391"/>
<path d="M228.6 5.1001H223.8V9.90015H228.6V5.1001Z" fill="#604391"/>
<path d="M219 5.1001H214.2V9.90015H219V5.1001Z" fill="#604391"/>
<path d="M209.5 5.1001H204.7V9.90015H209.5V5.1001Z" fill="#604391"/>
<path d="M199.9 5.1001H195.1V9.90015H199.9V5.1001Z" fill="#604391"/>
<path d="M190.3 5.1001H185.5V9.90015H190.3V5.1001Z" fill="#604391"/>
<path d="M180.8 5.1001H176V9.90015H180.8V5.1001Z" fill="#604391"/>
<path d="M171.2 5.1001H166.4V9.90015H171.2V5.1001Z" fill="#604391"/>
<path d="M161.7 5.1001H156.9V9.90015H161.7V5.1001Z" fill="#604391"/>
<path d="M152.1 5.1001H147.3V9.90015H152.1V5.1001Z" fill="#604391"/>
<path d="M142.6 5.1001H137.8V9.90015H142.6V5.1001Z" fill="#604391"/>
<path d="M133 5.1001H128.2V9.90015H133V5.1001Z" fill="#604391"/>
<path d="M123.4 5.1001H118.6V9.90015H123.4V5.1001Z" fill="#604391"/>
<path d="M113.9 5.1001H109.1V9.90015H113.9V5.1001Z" fill="#604391"/>
<path d="M104.3 5.1001H99.5V9.90015H104.3V5.1001Z" fill="#604391"/>
<path d="M94.8 5.1001H90V9.90015H94.8V5.1001Z" fill="#604391"/>
<path d="M85.2004 5.1001H80.4004V9.90015H85.2004V5.1001Z" fill="#604391"/>
<path d="M75.7004 5.1001H70.9004V9.90015H75.7004V5.1001Z" fill="#604391"/>
<path d="M66.0998 5.1001H61.2998V9.90015H66.0998V5.1001Z" fill="#604391"/>
<path d="M56.5002 5.1001H51.7002V9.90015H56.5002V5.1001Z" fill="#604391"/>
<path d="M47.0002 5.1001H42.2002V9.90015H47.0002V5.1001Z" fill="#604391"/>
<path d="M37.3996 5.1001H32.5996V9.90015H37.3996V5.1001Z" fill="#604391"/>
<path d="M27.8996 5.1001H23.0996V9.90015H27.8996V5.1001Z" fill="#604391"/>
<path d="M18.3 5.1001H13.5V9.90015H18.3V5.1001Z" fill="#604391"/>
<path d="M8.79999 5.1001H4V9.90015H8.79999V5.1001Z" fill="#604391"/>
<path d="M290.7 0.300049H285.9V5.10004H290.7V0.300049Z" fill="#604391"/>
<path d="M281.1 0.300049H276.3V5.10004H281.1V0.300049Z" fill="#604391"/>
<path d="M271.6 0.300049H266.8V5.10004H271.6V0.300049Z" fill="#604391"/>
<path d="M262 0.300049H257.2V5.10004H262V0.300049Z" fill="#604391"/>
<path d="M252.5 0.300049H247.7V5.10004H252.5V0.300049Z" fill="#604391"/>
<path d="M242.9 0.300049H238.1V5.10004H242.9V0.300049Z" fill="#604391"/>
<path d="M233.4 0.300049H228.6V5.10004H233.4V0.300049Z" fill="#604391"/>
<path d="M223.8 0.300049H219V5.10004H223.8V0.300049Z" fill="#604391"/>
<path d="M214.2 0.300049H209.4V5.10004H214.2V0.300049Z" fill="#604391"/>
<path d="M204.7 0.300049H199.9V5.10004H204.7V0.300049Z" fill="#604391"/>
<path d="M195.1 0.300049H190.3V5.10004H195.1V0.300049Z" fill="#604391"/>
<path d="M185.6 0.300049H180.8V5.10004H185.6V0.300049Z" fill="#604391"/>
<path d="M176 0.300049H171.2V5.10004H176V0.300049Z" fill="#604391"/>
<path d="M166.5 0.300049H161.7V5.10004H166.5V0.300049Z" fill="#604391"/>
<path d="M156.9 0.300049H152.1V5.10004H156.9V0.300049Z" fill="#604391"/>
<path d="M147.3 0.300049H142.5V5.10004H147.3V0.300049Z" fill="#604391"/>
<path d="M137.8 0.300049H133V5.10004H137.8V0.300049Z" fill="#604391"/>
<path d="M128.2 0.300049H123.4V5.10004H128.2V0.300049Z" fill="#604391"/>
<path d="M118.7 0.300049H113.9V5.10004H118.7V0.300049Z" fill="#604391"/>
<path d="M109.1 0.300049H104.3V5.10004H109.1V0.300049Z" fill="#604391"/>
<path d="M99.5998 0.300049H94.7998V5.10004H99.5998V0.300049Z" fill="#604391"/>
<path d="M90.0002 0.300049H85.2002V5.10004H90.0002V0.300049Z" fill="#604391"/>
<path d="M80.3997 0.300049H75.5996V5.10004H80.3997V0.300049Z" fill="#604391"/>
<path d="M70.8997 0.300049H66.0996V5.10004H70.8997V0.300049Z" fill="#604391"/>
<path d="M61.3 0.300049H56.5V5.10004H61.3V0.300049Z" fill="#604391"/>
<path d="M51.8 0.300049H47V5.10004H51.8V0.300049Z" fill="#604391"/>
<path d="M42.2004 0.300049H37.4004V5.10004H42.2004V0.300049Z" fill="#604391"/>
<path d="M32.7004 0.300049H27.9004V5.10004H32.7004V0.300049Z" fill="#604391"/>
<path d="M23.0998 0.300049H18.2998V5.10004H23.0998V0.300049Z" fill="#604391"/>
<path d="M13.5002 0.300049H8.7002V5.10004H13.5002V0.300049Z" fill="#604391"/>
<path d="M4.00018 0.300049H-0.799805V5.10004H4.00018V0.300049Z" fill="#604391"/>
</svg>
