<svg width="288" height="68" viewBox="0 0 288 68" fill="none" xmlns="http://www.w3.org/2000/svg">
<path d="M290.7 62.8999H285.9V67.6999H290.7V62.8999Z" fill="#3A4699"/>
<path d="M281.1 62.8999H276.3V67.6999H281.1V62.8999Z" fill="#3A4699"/>
<path d="M271.6 62.8999H266.8V67.6999H271.6V62.8999Z" fill="#3A4699"/>
<path d="M262 62.8999H257.2V67.6999H262V62.8999Z" fill="#3A4699"/>
<path d="M252.5 62.8999H247.7V67.6999H252.5V62.8999Z" fill="#3A4699"/>
<path d="M242.9 62.8999H238.1V67.6999H242.9V62.8999Z" fill="#3A4699"/>
<path d="M233.4 62.8999H228.6V67.6999H233.4V62.8999Z" fill="#3A4699"/>
<path d="M223.8 62.8999H219V67.6999H223.8V62.8999Z" fill="#3A4699"/>
<path d="M214.2 62.8999H209.4V67.6999H214.2V62.8999Z" fill="#3A4699"/>
<path d="M204.7 62.8999H199.9V67.6999H204.7V62.8999Z" fill="#3A4699"/>
<path d="M195.1 62.8999H190.3V67.6999H195.1V62.8999Z" fill="#3A4699"/>
<path d="M185.6 62.8999H180.8V67.6999H185.6V62.8999Z" fill="#3A4699"/>
<path d="M176 62.8999H171.2V67.6999H176V62.8999Z" fill="#3A4699"/>
<path d="M166.5 62.8999H161.7V67.6999H166.5V62.8999Z" fill="#3A4699"/>
<path d="M156.9 62.8999H152.1V67.6999H156.9V62.8999Z" fill="#3A4699"/>
<path d="M147.3 62.8999H142.5V67.6999H147.3V62.8999Z" fill="#3A4699"/>
<path d="M137.8 62.8999H133V67.6999H137.8V62.8999Z" fill="#3A4699"/>
<path d="M128.2 62.8999H123.4V67.6999H128.2V62.8999Z" fill="#3A4699"/>
<path d="M118.7 62.8999H113.9V67.6999H118.7V62.8999Z" fill="#3A4699"/>
<path d="M109.1 62.8999H104.3V67.6999H109.1V62.8999Z" fill="#3A4699"/>
<path d="M99.5998 62.8999H94.7998V67.6999H99.5998V62.8999Z" fill="#3A4699"/>
<path d="M90.0002 62.8999H85.2002V67.6999H90.0002V62.8999Z" fill="#3A4699"/>
<path d="M80.3997 62.8999H75.5996V67.6999H80.3997V62.8999Z" fill="#3A4699"/>
<path d="M70.8997 62.8999H66.0996V67.6999H70.8997V62.8999Z" fill="#3A4699"/>
<path d="M61.3 62.8999H56.5V67.6999H61.3V62.8999Z" fill="#3A4699"/>
<path d="M51.8 62.8999H47V67.6999H51.8V62.8999Z" fill="#3A4699"/>
<path d="M42.2004 62.8999H37.4004V67.6999H42.2004V62.8999Z" fill="#3A4699"/>
<path d="M32.7004 62.8999H27.9004V67.6999H32.7004V62.8999Z" fill="#3A4699"/>
<path d="M23.0998 62.8999H18.2998V67.6999H23.0998V62.8999Z" fill="#3A4699"/>
<path d="M13.5002 62.8999H8.7002V67.6999H13.5002V62.8999Z" fill="#3A4699"/>
<path d="M4.00018 62.8999H-0.799805V67.6999H4.00018V62.8999Z" fill="#3A4699"/>
<path d="M285.9 58.0999H281.1V62.8999H285.9V58.0999Z" fill="#3A4699"/>
<path d="M276.4 58.0999H271.6V62.8999H276.4V58.0999Z" fill="#3A4699"/>
<path d="M266.8 58.0999H262V62.8999H266.8V58.0999Z" fill="#3A4699"/>
<path d="M257.2 58.0999H252.4V62.8999H257.2V58.0999Z" fill="#3A4699"/>
<path d="M247.7 58.0999H242.9V62.8999H247.7V58.0999Z" fill="#3A4699"/>
<path d="M238.1 58.0999H233.3V62.8999H238.1V58.0999Z" fill="#3A4699"/>
<path d="M228.6 58.0999H223.8V62.8999H228.6V58.0999Z" fill="#3A4699"/>
<path d="M219 58.0999H214.2V62.8999H219V58.0999Z" fill="#3A4699"/>
<path d="M209.5 58.0999H204.7V62.8999H209.5V58.0999Z" fill="#3A4699"/>
<path d="M199.9 58.0999H195.1V62.8999H199.9V58.0999Z" fill="#3A4699"/>
<path d="M190.3 58.0999H185.5V62.8999H190.3V58.0999Z" fill="#3A4699"/>
<path d="M180.8 58.0999H176V62.8999H180.8V58.0999Z" fill="#3A4699"/>
<path d="M171.2 58.0999H166.4V62.8999H171.2V58.0999Z" fill="#3A4699"/>
<path d="M161.7 58.0999H156.9V62.8999H161.7V58.0999Z" fill="#3A4699"/>
<path d="M152.1 58.0999H147.3V62.8999H152.1V58.0999Z" fill="#3A4699"/>
<path d="M142.6 58.0999H137.8V62.8999H142.6V58.0999Z" fill="#3A4699"/>
<path d="M133 58.0999H128.2V62.8999H133V58.0999Z" fill="#3A4699"/>
<path d="M123.4 58.0999H118.6V62.8999H123.4V58.0999Z" fill="#3A4699"/>
<path d="M113.9 58.0999H109.1V62.8999H113.9V58.0999Z" fill="#3A4699"/>
<path d="M104.3 58.0999H99.5V62.8999H104.3V58.0999Z" fill="#3A4699"/>
<path d="M94.8 58.0999H90V62.8999H94.8V58.0999Z" fill="#3A4699"/>
<path d="M85.2004 58.0999H80.4004V62.8999H85.2004V58.0999Z" fill="#3A4699"/>
<path d="M75.7004 58.0999H70.9004V62.8999H75.7004V58.0999Z" fill="#3A4699"/>
<path d="M66.0998 58.0999H61.2998V62.8999H66.0998V58.0999Z" fill="#3A4699"/>
<path d="M56.5002 58.0999H51.7002V62.8999H56.5002V58.0999Z" fill="#3A4699"/>
<path d="M47.0002 58.0999H42.2002V62.8999H47.0002V58.0999Z" fill="#3A4699"/>
<path d="M37.3996 58.0999H32.5996V62.8999H37.3996V58.0999Z" fill="#3A4699"/>
<path d="M27.8996 58.0999H23.0996V62.8999H27.8996V58.0999Z" fill="#3A4699"/>
<path d="M18.3 58.0999H13.5V62.8999H18.3V58.0999Z" fill="#3A4699"/>
<path d="M8.79999 58.0999H4V62.8999H8.79999V58.0999Z" fill="#3A4699"/>
<path d="M290.7 53.2999H285.9V58.0999H290.7V53.2999Z" fill="#3A4699"/>
<path d="M281.1 53.2999H276.3V58.0999H281.1V53.2999Z" fill="#3A4699"/>
<path d="M271.6 53.2999H266.8V58.0999H271.6V53.2999Z" fill="#3A4699"/>
<path d="M262 53.2999H257.2V58.0999H262V53.2999Z" fill="#3A4699"/>
<path d="M252.5 53.2999H247.7V58.0999H252.5V53.2999Z" fill="#3A4699"/>
<path d="M242.9 53.2999H238.1V58.0999H242.9V53.2999Z" fill="#3A4699"/>
<path d="M233.4 53.2999H228.6V58.0999H233.4V53.2999Z" fill="#3A4699"/>
<path d="M223.8 53.2999H219V58.0999H223.8V53.2999Z" fill="#3A4699"/>
<path d="M214.2 53.2999H209.4V58.0999H214.2V53.2999Z" fill="#3A4699"/>
<path d="M204.7 53.2999H199.9V58.0999H204.7V53.2999Z" fill="#3A4699"/>
<path d="M195.1 53.2999H190.3V58.0999H195.1V53.2999Z" fill="#3A4699"/>
<path d="M185.6 53.2999H180.8V58.0999H185.6V53.2999Z" fill="#3A4699"/>
<path d="M176 53.2999H171.2V58.0999H176V53.2999Z" fill="#3A4699"/>
<path d="M166.5 53.2999H161.7V58.0999H166.5V53.2999Z" fill="#3A4699"/>
<path d="M156.9 53.2999H152.1V58.0999H156.9V53.2999Z" fill="#3A4699"/>
<path d="M147.3 53.2999H142.5V58.0999H147.3V53.2999Z" fill="#3A4699"/>
<path d="M137.8 53.2999H133V58.0999H137.8V53.2999Z" fill="#3A4699"/>
<path d="M128.2 53.2999H123.4V58.0999H128.2V53.2999Z" fill="#3A4699"/>
<path d="M118.7 53.2999H113.9V58.0999H118.7V53.2999Z" fill="#3A4699"/>
<path d="M109.1 53.2999H104.3V58.0999H109.1V53.2999Z" fill="#3A4699"/>
<path d="M99.5998 53.2999H94.7998V58.0999H99.5998V53.2999Z" fill="#3A4699"/>
<path d="M90.0002 53.2999H85.2002V58.0999H90.0002V53.2999Z" fill="#3A4699"/>
<path d="M80.3997 53.2999H75.5996V58.0999H80.3997V53.2999Z" fill="#3A4699"/>
<path d="M70.8997 53.2999H66.0996V58.0999H70.8997V53.2999Z" fill="#3A4699"/>
<path d="M61.3 53.2999H56.5V58.0999H61.3V53.2999Z" fill="#3A4699"/>
<path d="M51.8 53.2999H47V58.0999H51.8V53.2999Z" fill="#3A4699"/>
<path d="M42.2004 53.2999H37.4004V58.0999H42.2004V53.2999Z" fill="#3A4699"/>
<path d="M32.7004 53.2999H27.9004V58.0999H32.7004V53.2999Z" fill="#3A4699"/>
<path d="M23.0998 53.2999H18.2998V58.0999H23.0998V53.2999Z" fill="#3A4699"/>
<path d="M13.5002 53.2999H8.7002V58.0999H13.5002V53.2999Z" fill="#3A4699"/>
<path d="M4.00018 53.2999H-0.799805V58.0999H4.00018V53.2999Z" fill="#3A4699"/>
<path d="M285.9 48.5H281.1V53.3H285.9V48.5Z" fill="#3A4699"/>
<path d="M276.4 48.5H271.6V53.3H276.4V48.5Z" fill="#3A4699"/>
<path d="M266.8 48.5H262V53.3H266.8V48.5Z" fill="#3A4699"/>
<path d="M257.2 48.5H252.4V53.3H257.2V48.5Z" fill="#3A4699"/>
<path d="M247.7 48.5H242.9V53.3H247.7V48.5Z" fill="#3A4699"/>
<path d="M238.1 48.5H233.3V53.3H238.1V48.5Z" fill="#3A4699"/>
<path d="M228.6 48.5H223.8V53.3H228.6V48.5Z" fill="#3A4699"/>
<path d="M219 48.5H214.2V53.3H219V48.5Z" fill="#3A4699"/>
<path d="M209.5 48.5H204.7V53.3H209.5V48.5Z" fill="#3A4699"/>
<path d="M199.9 48.5H195.1V53.3H199.9V48.5Z" fill="#3A4699"/>
<path d="M190.3 48.5H185.5V53.3H190.3V48.5Z" fill="#3A4699"/>
<path d="M180.8 48.5H176V53.3H180.8V48.5Z" fill="#3A4699"/>
<path d="M171.2 48.5H166.4V53.3H171.2V48.5Z" fill="#3A4699"/>
<path d="M161.7 48.5H156.9V53.3H161.7V48.5Z" fill="#3A4699"/>
<path d="M152.1 48.5H147.3V53.3H152.1V48.5Z" fill="#3A4699"/>
<path d="M142.6 48.5H137.8V53.3H142.6V48.5Z" fill="#3A4699"/>
<path d="M133 48.5H128.2V53.3H133V48.5Z" fill="#3A4699"/>
<path d="M123.4 48.5H118.6V53.3H123.4V48.5Z" fill="#3A4699"/>
<path d="M113.9 48.5H109.1V53.3H113.9V48.5Z" fill="#3A4699"/>
<path d="M104.3 48.5H99.5V53.3H104.3V48.5Z" fill="#3A4699"/>
<path d="M94.8 48.5H90V53.3H94.8V48.5Z" fill="#3A4699"/>
<path d="M85.2004 48.5H80.4004V53.3H85.2004V48.5Z" fill="#3A4699"/>
<path d="M75.7004 48.5H70.9004V53.3H75.7004V48.5Z" fill="#3A4699"/>
<path d="M66.0998 48.5H61.2998V53.3H66.0998V48.5Z" fill="#3A4699"/>
<path d="M56.5002 48.5H51.7002V53.3H56.5002V48.5Z" fill="#3A4699"/>
<path d="M47.0002 48.5H42.2002V53.3H47.0002V48.5Z" fill="#3A4699"/>
<path d="M37.3996 48.5H32.5996V53.3H37.3996V48.5Z" fill="#3A4699"/>
<path d="M27.8996 48.5H23.0996V53.3H27.8996V48.5Z" fill="#3A4699"/>
<path d="M18.3 48.5H13.5V53.3H18.3V48.5Z" fill="#3A4699"/>
<path d="M8.79999 48.5H4V53.3H8.79999V48.5Z" fill="#3A4699"/>
<path d="M290.7 43.7H285.9V48.4999H290.7V43.7Z" fill="#3A4699"/>
<path d="M281.1 43.7H276.3V48.4999H281.1V43.7Z" fill="#3A4699"/>
<path d="M271.6 43.7H266.8V48.4999H271.6V43.7Z" fill="#3A4699"/>
<path d="M262 43.7H257.2V48.4999H262V43.7Z" fill="#3A4699"/>
<path d="M252.5 43.7H247.7V48.4999H252.5V43.7Z" fill="#3A4699"/>
<path d="M242.9 43.7H238.1V48.4999H242.9V43.7Z" fill="#3A4699"/>
<path d="M233.4 43.7H228.6V48.4999H233.4V43.7Z" fill="#3A4699"/>
<path d="M223.8 43.7H219V48.4999H223.8V43.7Z" fill="#3A4699"/>
<path d="M214.2 43.7H209.4V48.4999H214.2V43.7Z" fill="#3A4699"/>
<path d="M204.7 43.7H199.9V48.4999H204.7V43.7Z" fill="#3A4699"/>
<path d="M195.1 43.7H190.3V48.4999H195.1V43.7Z" fill="#3A4699"/>
<path d="M185.6 43.7H180.8V48.4999H185.6V43.7Z" fill="#3A4699"/>
<path d="M176 43.7H171.2V48.4999H176V43.7Z" fill="#3A4699"/>
<path d="M166.5 43.7H161.7V48.4999H166.5V43.7Z" fill="#3A4699"/>
<path d="M156.9 43.7H152.1V48.4999H156.9V43.7Z" fill="#3A4699"/>
<path d="M147.3 43.7H142.5V48.4999H147.3V43.7Z" fill="#3A4699"/>
<path d="M137.8 43.7H133V48.4999H137.8V43.7Z" fill="#3A4699"/>
<path d="M128.2 43.7H123.4V48.4999H128.2V43.7Z" fill="#3A4699"/>
<path d="M118.7 43.7H113.9V48.4999H118.7V43.7Z" fill="#3A4699"/>
<path d="M109.1 43.7H104.3V48.4999H109.1V43.7Z" fill="#3A4699"/>
<path d="M99.5998 43.7H94.7998V48.4999H99.5998V43.7Z" fill="#3A4699"/>
<path d="M90.0002 43.7H85.2002V48.4999H90.0002V43.7Z" fill="#3A4699"/>
<path d="M80.3997 43.7H75.5996V48.4999H80.3997V43.7Z" fill="#3A4699"/>
<path d="M70.8997 43.7H66.0996V48.4999H70.8997V43.7Z" fill="#3A4699"/>
<path d="M61.3 43.7H56.5V48.4999H61.3V43.7Z" fill="#3A4699"/>
<path d="M51.8 43.7H47V48.4999H51.8V43.7Z" fill="#3A4699"/>
<path d="M42.2004 43.7H37.4004V48.4999H42.2004V43.7Z" fill="#3A4699"/>
<path d="M32.7004 43.7H27.9004V48.4999H32.7004V43.7Z" fill="#3A4699"/>
<path d="M23.0998 43.7H18.2998V48.4999H23.0998V43.7Z" fill="#3A4699"/>
<path d="M13.5002 43.7H8.7002V48.4999H13.5002V43.7Z" fill="#3A4699"/>
<path d="M4.00018 43.7H-0.799805V48.4999H4.00018V43.7Z" fill="#3A4699"/>
<path d="M285.9 39H281.1V43.8H285.9V39Z" fill="#3A4699"/>
<path d="M276.4 39H271.6V43.8H276.4V39Z" fill="#3A4699"/>
<path d="M266.8 39H262V43.8H266.8V39Z" fill="#3A4699"/>
<path d="M257.2 39H252.4V43.8H257.2V39Z" fill="#3A4699"/>
<path d="M247.7 39H242.9V43.8H247.7V39Z" fill="#3A4699"/>
<path d="M238.1 39H233.3V43.8H238.1V39Z" fill="#3A4699"/>
<path d="M228.6 39H223.8V43.8H228.6V39Z" fill="#3A4699"/>
<path d="M219 39H214.2V43.8H219V39Z" fill="#3A4699"/>
<path d="M209.5 39H204.7V43.8H209.5V39Z" fill="#3A4699"/>
<path d="M199.9 39H195.1V43.8H199.9V39Z" fill="#3A4699"/>
<path d="M190.3 39H185.5V43.8H190.3V39Z" fill="#3A4699"/>
<path d="M180.8 39H176V43.8H180.8V39Z" fill="#3A4699"/>
<path d="M171.2 39H166.4V43.8H171.2V39Z" fill="#3A4699"/>
<path d="M161.7 39H156.9V43.8H161.7V39Z" fill="#3A4699"/>
<path d="M152.1 39H147.3V43.8H152.1V39Z" fill="#3A4699"/>
<path d="M142.6 39H137.8V43.8H142.6V39Z" fill="#3A4699"/>
<path d="M133 39H128.2V43.8H133V39Z" fill="#3A4699"/>
<path d="M123.4 39H118.6V43.8H123.4V39Z" fill="#3A4699"/>
<path d="M113.9 39H109.1V43.8H113.9V39Z" fill="#3A4699"/>
<path d="M104.3 39H99.5V43.8H104.3V39Z" fill="#3A4699"/>
<path d="M94.8 39H90V43.8H94.8V39Z" fill="#3A4699"/>
<path d="M85.2004 39H80.4004V43.8H85.2004V39Z" fill="#3A4699"/>
<path d="M75.7004 39H70.9004V43.8H75.7004V39Z" fill="#3A4699"/>
<path d="M66.0998 39H61.2998V43.8H66.0998V39Z" fill="#3A4699"/>
<path d="M56.5002 39H51.7002V43.8H56.5002V39Z" fill="#3A4699"/>
<path d="M47.0002 39H42.2002V43.8H47.0002V39Z" fill="#3A4699"/>
<path d="M37.3996 39H32.5996V43.8H37.3996V39Z" fill="#3A4699"/>
<path d="M27.8996 39H23.0996V43.8H27.8996V39Z" fill="#3A4699"/>
<path d="M18.3 39H13.5V43.8H18.3V39Z" fill="#3A4699"/>
<path d="M8.79999 39H4V43.8H8.79999V39Z" fill="#3A4699"/>
<path d="M290.7 34.2H285.9V38.9999H290.7V34.2Z" fill="#3A4699"/>
<path d="M281.1 34.2H276.3V38.9999H281.1V34.2Z" fill="#3A4699"/>
<path d="M271.6 34.2H266.8V38.9999H271.6V34.2Z" fill="#3A4699"/>
<path d="M262 34.2H257.2V38.9999H262V34.2Z" fill="#3A4699"/>
<path d="M252.5 34.2H247.7V38.9999H252.5V34.2Z" fill="#3A4699"/>
<path d="M242.9 34.2H238.1V38.9999H242.9V34.2Z" fill="#3A4699"/>
<path d="M233.4 34.2H228.6V38.9999H233.4V34.2Z" fill="#3A4699"/>
<path d="M223.8 34.2H219V38.9999H223.8V34.2Z" fill="#3A4699"/>
<path d="M214.2 34.2H209.4V38.9999H214.2V34.2Z" fill="#3A4699"/>
<path d="M204.7 34.2H199.9V38.9999H204.7V34.2Z" fill="#3A4699"/>
<path d="M195.1 34.2H190.3V38.9999H195.1V34.2Z" fill="#3A4699"/>
<path d="M185.6 34.2H180.8V38.9999H185.6V34.2Z" fill="#3A4699"/>
<path d="M176 34.2H171.2V38.9999H176V34.2Z" fill="#3A4699"/>
<path d="M166.5 34.2H161.7V38.9999H166.5V34.2Z" fill="#3A4699"/>
<path d="M156.9 34.2H152.1V38.9999H156.9V34.2Z" fill="#3A4699"/>
<path d="M147.3 34.2H142.5V38.9999H147.3V34.2Z" fill="#3A4699"/>
<path d="M137.8 34.2H133V38.9999H137.8V34.2Z" fill="#3A4699"/>
<path d="M128.2 34.2H123.4V38.9999H128.2V34.2Z" fill="#3A4699"/>
<path d="M118.7 34.2H113.9V38.9999H118.7V34.2Z" fill="#3A4699"/>
<path d="M109.1 34.2H104.3V38.9999H109.1V34.2Z" fill="#3A4699"/>
<path d="M99.5998 34.2H94.7998V38.9999H99.5998V34.2Z" fill="#3A4699"/>
<path d="M90.0002 34.2H85.2002V38.9999H90.0002V34.2Z" fill="#3A4699"/>
<path d="M80.3997 34.2H75.5996V38.9999H80.3997V34.2Z" fill="#3A4699"/>
<path d="M70.8997 34.2H66.0996V38.9999H70.8997V34.2Z" fill="#3A4699"/>
<path d="M61.3 34.2H56.5V38.9999H61.3V34.2Z" fill="#3A4699"/>
<path d="M51.8 34.2H47V38.9999H51.8V34.2Z" fill="#3A4699"/>
<path d="M42.2004 34.2H37.4004V38.9999H42.2004V34.2Z" fill="#3A4699"/>
<path d="M32.7004 34.2H27.9004V38.9999H32.7004V34.2Z" fill="#3A4699"/>
<path d="M23.0998 34.2H18.2998V38.9999H23.0998V34.2Z" fill="#3A4699"/>
<path d="M13.5002 34.2H8.7002V38.9999H13.5002V34.2Z" fill="#3A4699"/>
<path d="M4.00018 34.2H-0.799805V38.9999H4.00018V34.2Z" fill="#3A4699"/>
<path d="M290.7 29.3999H285.9V34.1999H290.7V29.3999Z" fill="#4A5B99"/>
<path d="M281.1 29.3999H276.3V34.1999H281.1V29.3999Z" fill="#4A5B99"/>
<path d="M271.6 29.3999H266.8V34.1999H271.6V29.3999Z" fill="#4A5B99"/>
<path d="M262 29.3999H257.2V34.1999H262V29.3999Z" fill="#4A5B99"/>
<path d="M252.5 29.3999H247.7V34.1999H252.5V29.3999Z" fill="#4A5B99"/>
<path d="M242.9 29.3999H238.1V34.1999H242.9V29.3999Z" fill="#4A5B99"/>
<path d="M233.4 29.3999H228.6V34.1999H233.4V29.3999Z" fill="#4A5B99"/>
<path d="M223.8 29.3999H219V34.1999H223.8V29.3999Z" fill="#4A5B99"/>
<path d="M214.2 29.3999H209.4V34.1999H214.2V29.3999Z" fill="#4A5B99"/>
<path d="M204.7 29.3999H199.9V34.1999H204.7V29.3999Z" fill="#4A5B99"/>
<path d="M195.1 29.3999H190.3V34.1999H195.1V29.3999Z" fill="#4A5B99"/>
<path d="M185.6 29.3999H180.8V34.1999H185.6V29.3999Z" fill="#4A5B99"/>
<path d="M176 29.3999H171.2V34.1999H176V29.3999Z" fill="#4A5B99"/>
<path d="M166.5 29.3999H161.7V34.1999H166.5V29.3999Z" fill="#4A5B99"/>
<path d="M156.9 29.3999H152.1V34.1999H156.9V29.3999Z" fill="#4A5B99"/>
<path d="M147.3 29.3999H142.5V34.1999H147.3V29.3999Z" fill="#4A5B99"/>
<path d="M137.8 29.3999H133V34.1999H137.8V29.3999Z" fill="#4A5B99"/>
<path d="M128.2 29.3999H123.4V34.1999H128.2V29.3999Z" fill="#4A5B99"/>
<path d="M118.7 29.3999H113.9V34.1999H118.7V29.3999Z" fill="#4A5B99"/>
<path d="M109.1 29.3999H104.3V34.1999H109.1V29.3999Z" fill="#4A5B99"/>
<path d="M99.5998 29.3999H94.7998V34.1999H99.5998V29.3999Z" fill="#4A5B99"/>
<path d="M90.0002 29.3999H85.2002V34.1999H90.0002V29.3999Z" fill="#4A5B99"/>
<path d="M80.3997 29.3999H75.5996V34.1999H80.3997V29.3999Z" fill="#4A5B99"/>
<path d="M70.8997 29.3999H66.0996V34.1999H70.8997V29.3999Z" fill="#4A5B99"/>
<path d="M61.3 29.3999H56.5V34.1999H61.3V29.3999Z" fill="#4A5B99"/>
<path d="M51.8 29.3999H47V34.1999H51.8V29.3999Z" fill="#4A5B99"/>
<path d="M42.2004 29.3999H37.4004V34.1999H42.2004V29.3999Z" fill="#4A5B99"/>
<path d="M32.7004 29.3999H27.9004V34.1999H32.7004V29.3999Z" fill="#4A5B99"/>
<path d="M23.0998 29.3999H18.2998V34.1999H23.0998V29.3999Z" fill="#4A5B99"/>
<path d="M13.5002 29.3999H8.7002V34.1999H13.5002V29.3999Z" fill="#4A5B99"/>
<path d="M4.00018 29.3999H-0.799805V34.1999H4.00018V29.3999Z" fill="#4A5B99"/>
<path d="M285.9 24.6H281.1V29.4H285.9V24.6Z" fill="#4A5B99"/>
<path d="M276.4 24.6H271.6V29.4H276.4V24.6Z" fill="#4A5B99"/>
<path d="M266.8 24.6H262V29.4H266.8V24.6Z" fill="#4A5B99"/>
<path d="M257.2 24.6H252.4V29.4H257.2V24.6Z" fill="#4A5B99"/>
<path d="M247.7 24.6H242.9V29.4H247.7V24.6Z" fill="#4A5B99"/>
<path d="M238.1 24.6H233.3V29.4H238.1V24.6Z" fill="#4A5B99"/>
<path d="M228.6 24.6H223.8V29.4H228.6V24.6Z" fill="#4A5B99"/>
<path d="M219 24.6H214.2V29.4H219V24.6Z" fill="#4A5B99"/>
<path d="M209.5 24.6H204.7V29.4H209.5V24.6Z" fill="#4A5B99"/>
<path d="M199.9 24.6H195.1V29.4H199.9V24.6Z" fill="#4A5B99"/>
<path d="M190.3 24.6H185.5V29.4H190.3V24.6Z" fill="#4A5B99"/>
<path d="M180.8 24.6H176V29.4H180.8V24.6Z" fill="#4A5B99"/>
<path d="M171.2 24.6H166.4V29.4H171.2V24.6Z" fill="#4A5B99"/>
<path d="M161.7 24.6H156.9V29.4H161.7V24.6Z" fill="#4A5B99"/>
<path d="M152.1 24.6H147.3V29.4H152.1V24.6Z" fill="#4A5B99"/>
<path d="M142.6 24.6H137.8V29.4H142.6V24.6Z" fill="#4A5B99"/>
<path d="M133 24.6H128.2V29.4H133V24.6Z" fill="#4A5B99"/>
<path d="M123.4 24.6H118.6V29.4H123.4V24.6Z" fill="#4A5B99"/>
<path d="M113.9 24.6H109.1V29.4H113.9V24.6Z" fill="#4A5B99"/>
<path d="M104.3 24.6H99.5V29.4H104.3V24.6Z" fill="#4A5B99"/>
<path d="M94.8 24.6H90V29.4H94.8V24.6Z" fill="#4A5B99"/>
<path d="M85.2004 24.6H80.4004V29.4H85.2004V24.6Z" fill="#4A5B99"/>
<path d="M75.7004 24.6H70.9004V29.4H75.7004V24.6Z" fill="#4A5B99"/>
<path d="M66.0998 24.6H61.2998V29.4H66.0998V24.6Z" fill="#4A5B99"/>
<path d="M56.5002 24.6H51.7002V29.4H56.5002V24.6Z" fill="#4A5B99"/>
<path d="M47.0002 24.6H42.2002V29.4H47.0002V24.6Z" fill="#4A5B99"/>
<path d="M37.3996 24.6H32.5996V29.4H37.3996V24.6Z" fill="#4A5B99"/>
<path d="M27.8996 24.6H23.0996V29.4H27.8996V24.6Z" fill="#4A5B99"/>
<path d="M18.3 24.6H13.5V29.4H18.3V24.6Z" fill="#4A5B99"/>
<path d="M8.79999 24.6H4V29.4H8.79999V24.6Z" fill="#4A5B99"/>
<path d="M290.7 19.8999H285.9V24.6999H290.7V19.8999Z" fill="#4A5B99"/>
<path d="M281.1 19.8999H276.3V24.6999H281.1V19.8999Z" fill="#4A5B99"/>
<path d="M271.6 19.8999H266.8V24.6999H271.6V19.8999Z" fill="#4A5B99"/>
<path d="M262 19.8999H257.2V24.6999H262V19.8999Z" fill="#4A5B99"/>
<path d="M252.5 19.8999H247.7V24.6999H252.5V19.8999Z" fill="#4A5B99"/>
<path d="M242.9 19.8999H238.1V24.6999H242.9V19.8999Z" fill="#4A5B99"/>
<path d="M233.4 19.8999H228.6V24.6999H233.4V19.8999Z" fill="#4A5B99"/>
<path d="M223.8 19.8999H219V24.6999H223.8V19.8999Z" fill="#4A5B99"/>
<path d="M214.2 19.8999H209.4V24.6999H214.2V19.8999Z" fill="#4A5B99"/>
<path d="M204.7 19.8999H199.9V24.6999H204.7V19.8999Z" fill="#4A5B99"/>
<path d="M195.1 19.8999H190.3V24.6999H195.1V19.8999Z" fill="#4A5B99"/>
<path d="M185.6 19.8999H180.8V24.6999H185.6V19.8999Z" fill="#4A5B99"/>
<path d="M176 19.8999H171.2V24.6999H176V19.8999Z" fill="#4A5B99"/>
<path d="M166.5 19.8999H161.7V24.6999H166.5V19.8999Z" fill="#4A5B99"/>
<path d="M156.9 19.8999H152.1V24.6999H156.9V19.8999Z" fill="#4A5B99"/>
<path d="M147.3 19.8999H142.5V24.6999H147.3V19.8999Z" fill="#4A5B99"/>
<path d="M137.8 19.8999H133V24.6999H137.8V19.8999Z" fill="#4A5B99"/>
<path d="M128.2 19.8999H123.4V24.6999H128.2V19.8999Z" fill="#4A5B99"/>
<path d="M118.7 19.8999H113.9V24.6999H118.7V19.8999Z" fill="#4A5B99"/>
<path d="M109.1 19.8999H104.3V24.6999H109.1V19.8999Z" fill="#4A5B99"/>
<path d="M99.5998 19.8999H94.7998V24.6999H99.5998V19.8999Z" fill="#4A5B99"/>
<path d="M90.0002 19.8999H85.2002V24.6999H90.0002V19.8999Z" fill="#4A5B99"/>
<path d="M80.3997 19.8999H75.5996V24.6999H80.3997V19.8999Z" fill="#4A5B99"/>
<path d="M70.8997 19.8999H66.0996V24.6999H70.8997V19.8999Z" fill="#4A5B99"/>
<path d="M61.3 19.8999H56.5V24.6999H61.3V19.8999Z" fill="#4A5B99"/>
<path d="M51.8 19.8999H47V24.6999H51.8V19.8999Z" fill="#4A5B99"/>
<path d="M42.2004 19.8999H37.4004V24.6999H42.2004V19.8999Z" fill="#4A5B99"/>
<path d="M32.7004 19.8999H27.9004V24.6999H32.7004V19.8999Z" fill="#4A5B99"/>
<path d="M23.0998 19.8999H18.2998V24.6999H23.0998V19.8999Z" fill="#4A5B99"/>
<path d="M13.5002 19.8999H8.7002V24.6999H13.5002V19.8999Z" fill="#4A5B99"/>
<path d="M4.00018 19.8999H-0.799805V24.6999H4.00018V19.8999Z" fill="#4A5B99"/>
<path d="M285.9 15.1H281.1V19.9H285.9V15.1Z" fill="#4A5B99"/>
<path d="M276.4 15.1H271.6V19.9H276.4V15.1Z" fill="#4A5B99"/>
<path d="M266.8 15.1H262V19.9H266.8V15.1Z" fill="#4A5B99"/>
<path d="M257.2 15.1H252.4V19.9H257.2V15.1Z" fill="#4A5B99"/>
<path d="M247.7 15.1H242.9V19.9H247.7V15.1Z" fill="#4A5B99"/>
<path d="M238.1 15.1H233.3V19.9H238.1V15.1Z" fill="#4A5B99"/>
<path d="M228.6 15.1H223.8V19.9H228.6V15.1Z" fill="#4A5B99"/>
<path d="M219 15.1H214.2V19.9H219V15.1Z" fill="#4A5B99"/>
<path d="M209.5 15.1H204.7V19.9H209.5V15.1Z" fill="#4A5B99"/>
<path d="M199.9 15.1H195.1V19.9H199.9V15.1Z" fill="#4A5B99"/>
<path d="M190.3 15.1H185.5V19.9H190.3V15.1Z" fill="#4A5B99"/>
<path d="M180.8 15.1H176V19.9H180.8V15.1Z" fill="#4A5B99"/>
<path d="M171.2 15.1H166.4V19.9H171.2V15.1Z" fill="#4A5B99"/>
<path d="M161.7 15.1H156.9V19.9H161.7V15.1Z" fill="#4A5B99"/>
<path d="M152.1 15.1H147.3V19.9H152.1V15.1Z" fill="#4A5B99"/>
<path d="M142.6 15.1H137.8V19.9H142.6V15.1Z" fill="#4A5B99"/>
<path d="M133 15.1H128.2V19.9H133V15.1Z" fill="#4A5B99"/>
<path d="M123.4 15.1H118.6V19.9H123.4V15.1Z" fill="#4A5B99"/>
<path d="M113.9 15.1H109.1V19.9H113.9V15.1Z" fill="#4A5B99"/>
<path d="M104.3 15.1H99.5V19.9H104.3V15.1Z" fill="#4A5B99"/>
<path d="M94.8 15.1H90V19.9H94.8V15.1Z" fill="#4A5B99"/>
<path d="M85.2004 15.1H80.4004V19.9H85.2004V15.1Z" fill="#4A5B99"/>
<path d="M75.7004 15.1H70.9004V19.9H75.7004V15.1Z" fill="#4A5B99"/>
<path d="M66.0998 15.1H61.2998V19.9H66.0998V15.1Z" fill="#4A5B99"/>
<path d="M56.5002 15.1H51.7002V19.9H56.5002V15.1Z" fill="#4A5B99"/>
<path d="M47.0002 15.1H42.2002V19.9H47.0002V15.1Z" fill="#4A5B99"/>
<path d="M37.3996 15.1H32.5996V19.9H37.3996V15.1Z" fill="#4A5B99"/>
<path d="M27.8996 15.1H23.0996V19.9H27.8996V15.1Z" fill="#4A5B99"/>
<path d="M18.3 15.1H13.5V19.9H18.3V15.1Z" fill="#4A5B99"/>
<path d="M8.79999 15.1H4V19.9H8.79999V15.1Z" fill="#4A5B99"/>
<path d="M290.7 10.2999H285.9V15.0999H290.7V10.2999Z" fill="#4A5B99"/>
<path d="M281.1 10.2999H276.3V15.0999H281.1V10.2999Z" fill="#4A5B99"/>
<path d="M271.6 10.2999H266.8V15.0999H271.6V10.2999Z" fill="#4A5B99"/>
<path d="M262 10.2999H257.2V15.0999H262V10.2999Z" fill="#4A5B99"/>
<path d="M252.5 10.2999H247.7V15.0999H252.5V10.2999Z" fill="#4A5B99"/>
<path d="M242.9 10.2999H238.1V15.0999H242.9V10.2999Z" fill="#4A5B99"/>
<path d="M233.4 10.2999H228.6V15.0999H233.4V10.2999Z" fill="#4A5B99"/>
<path d="M223.8 10.2999H219V15.0999H223.8V10.2999Z" fill="#4A5B99"/>
<path d="M214.2 10.2999H209.4V15.0999H214.2V10.2999Z" fill="#4A5B99"/>
<path d="M204.7 10.2999H199.9V15.0999H204.7V10.2999Z" fill="#4A5B99"/>
<path d="M195.1 10.2999H190.3V15.0999H195.1V10.2999Z" fill="#4A5B99"/>
<path d="M185.6 10.2999H180.8V15.0999H185.6V10.2999Z" fill="#4A5B99"/>
<path d="M176 10.2999H171.2V15.0999H176V10.2999Z" fill="#4A5B99"/>
<path d="M166.5 10.2999H161.7V15.0999H166.5V10.2999Z" fill="#4A5B99"/>
<path d="M156.9 10.2999H152.1V15.0999H156.9V10.2999Z" fill="#4A5B99"/>
<path d="M147.3 10.2999H142.5V15.0999H147.3V10.2999Z" fill="#4A5B99"/>
<path d="M137.8 10.2999H133V15.0999H137.8V10.2999Z" fill="#4A5B99"/>
<path d="M128.2 10.2999H123.4V15.0999H128.2V10.2999Z" fill="#4A5B99"/>
<path d="M118.7 10.2999H113.9V15.0999H118.7V10.2999Z" fill="#4A5B99"/>
<path d="M109.1 10.2999H104.3V15.0999H109.1V10.2999Z" fill="#4A5B99"/>
<path d="M99.5998 10.2999H94.7998V15.0999H99.5998V10.2999Z" fill="#4A5B99"/>
<path d="M90.0002 10.2999H85.2002V15.0999H90.0002V10.2999Z" fill="#4A5B99"/>
<path d="M80.3997 10.2999H75.5996V15.0999H80.3997V10.2999Z" fill="#4A5B99"/>
<path d="M70.8997 10.2999H66.0996V15.0999H70.8997V10.2999Z" fill="#4A5B99"/>
<path d="M61.3 10.2999H56.5V15.0999H61.3V10.2999Z" fill="#4A5B99"/>
<path d="M51.8 10.2999H47V15.0999H51.8V10.2999Z" fill="#4A5B99"/>
<path d="M42.2004 10.2999H37.4004V15.0999H42.2004V10.2999Z" fill="#4A5B99"/>
<path d="M32.7004 10.2999H27.9004V15.0999H32.7004V10.2999Z" fill="#4A5B99"/>
<path d="M23.0998 10.2999H18.2998V15.0999H23.0998V10.2999Z" fill="#4A5B99"/>
<path d="M13.5002 10.2999H8.7002V15.0999H13.5002V10.2999Z" fill="#4A5B99"/>
<path d="M4.00018 10.2999H-0.799805V15.0999H4.00018V10.2999Z" fill="#4A5B99"/>
<path d="M285.9 5.5H281.1V10.3H285.9V5.5Z" fill="#4A5B99"/>
<path d="M276.4 5.5H271.6V10.3H276.4V5.5Z" fill="#4A5B99"/>
<path d="M266.8 5.5H262V10.3H266.8V5.5Z" fill="#4A5B99"/>
<path d="M257.2 5.5H252.4V10.3H257.2V5.5Z" fill="#4A5B99"/>
<path d="M247.7 5.5H242.9V10.3H247.7V5.5Z" fill="#4A5B99"/>
<path d="M238.1 5.5H233.3V10.3H238.1V5.5Z" fill="#4A5B99"/>
<path d="M228.6 5.5H223.8V10.3H228.6V5.5Z" fill="#4A5B99"/>
<path d="M219 5.5H214.2V10.3H219V5.5Z" fill="#4A5B99"/>
<path d="M209.5 5.5H204.7V10.3H209.5V5.5Z" fill="#4A5B99"/>
<path d="M199.9 5.5H195.1V10.3H199.9V5.5Z" fill="#4A5B99"/>
<path d="M190.3 5.5H185.5V10.3H190.3V5.5Z" fill="#4A5B99"/>
<path d="M180.8 5.5H176V10.3H180.8V5.5Z" fill="#4A5B99"/>
<path d="M171.2 5.5H166.4V10.3H171.2V5.5Z" fill="#4A5B99"/>
<path d="M161.7 5.5H156.9V10.3H161.7V5.5Z" fill="#4A5B99"/>
<path d="M152.1 5.5H147.3V10.3H152.1V5.5Z" fill="#4A5B99"/>
<path d="M142.6 5.5H137.8V10.3H142.6V5.5Z" fill="#4A5B99"/>
<path d="M133 5.5H128.2V10.3H133V5.5Z" fill="#4A5B99"/>
<path d="M123.4 5.5H118.6V10.3H123.4V5.5Z" fill="#4A5B99"/>
<path d="M113.9 5.5H109.1V10.3H113.9V5.5Z" fill="#4A5B99"/>
<path d="M104.3 5.5H99.5V10.3H104.3V5.5Z" fill="#4A5B99"/>
<path d="M94.8 5.5H90V10.3H94.8V5.5Z" fill="#4A5B99"/>
<path d="M85.2004 5.5H80.4004V10.3H85.2004V5.5Z" fill="#4A5B99"/>
<path d="M75.7004 5.5H70.9004V10.3H75.7004V5.5Z" fill="#4A5B99"/>
<path d="M66.0998 5.5H61.2998V10.3H66.0998V5.5Z" fill="#4A5B99"/>
<path d="M56.5002 5.5H51.7002V10.3H56.5002V5.5Z" fill="#4A5B99"/>
<path d="M47.0002 5.5H42.2002V10.3H47.0002V5.5Z" fill="#4A5B99"/>
<path d="M37.3996 5.5H32.5996V10.3H37.3996V5.5Z" fill="#4A5B99"/>
<path d="M27.8996 5.5H23.0996V10.3H27.8996V5.5Z" fill="#4A5B99"/>
<path d="M18.3 5.5H13.5V10.3H18.3V5.5Z" fill="#4A5B99"/>
<path d="M8.79999 5.5H4V10.3H8.79999V5.5Z" fill="#4A5B99"/>
<path d="M290.7 0.699951H285.9V5.49994H290.7V0.699951Z" fill="#4A5B99"/>
<path d="M281.1 0.699951H276.3V5.49994H281.1V0.699951Z" fill="#4A5B99"/>
<path d="M271.6 0.699951H266.8V5.49994H271.6V0.699951Z" fill="#4A5B99"/>
<path d="M262 0.699951H257.2V5.49994H262V0.699951Z" fill="#4A5B99"/>
<path d="M252.5 0.699951H247.7V5.49994H252.5V0.699951Z" fill="#4A5B99"/>
<path d="M242.9 0.699951H238.1V5.49994H242.9V0.699951Z" fill="#4A5B99"/>
<path d="M233.4 0.699951H228.6V5.49994H233.4V0.699951Z" fill="#4A5B99"/>
<path d="M223.8 0.699951H219V5.49994H223.8V0.699951Z" fill="#4A5B99"/>
<path d="M214.2 0.699951H209.4V5.49994H214.2V0.699951Z" fill="#4A5B99"/>
<path d="M204.7 0.699951H199.9V5.49994H204.7V0.699951Z" fill="#4A5B99"/>
<path d="M195.1 0.699951H190.3V5.49994H195.1V0.699951Z" fill="#4A5B99"/>
<path d="M185.6 0.699951H180.8V5.49994H185.6V0.699951Z" fill="#4A5B99"/>
<path d="M176 0.699951H171.2V5.49994H176V0.699951Z" fill="#4A5B99"/>
<path d="M166.5 0.699951H161.7V5.49994H166.5V0.699951Z" fill="#4A5B99"/>
<path d="M156.9 0.699951H152.1V5.49994H156.9V0.699951Z" fill="#4A5B99"/>
<path d="M147.3 0.699951H142.5V5.49994H147.3V0.699951Z" fill="#4A5B99"/>
<path d="M137.8 0.699951H133V5.49994H137.8V0.699951Z" fill="#4A5B99"/>
<path d="M128.2 0.699951H123.4V5.49994H128.2V0.699951Z" fill="#4A5B99"/>
<path d="M118.7 0.699951H113.9V5.49994H118.7V0.699951Z" fill="#4A5B99"/>
<path d="M109.1 0.699951H104.3V5.49994H109.1V0.699951Z" fill="#4A5B99"/>
<path d="M99.5998 0.699951H94.7998V5.49994H99.5998V0.699951Z" fill="#4A5B99"/>
<path d="M90.0002 0.699951H85.2002V5.49994H90.0002V0.699951Z" fill="#4A5B99"/>
<path d="M80.3997 0.699951H75.5996V5.49994H80.3997V0.699951Z" fill="#4A5B99"/>
<path d="M70.8997 0.699951H66.0996V5.49994H70.8997V0.699951Z" fill="#4A5B99"/>
<path d="M61.3 0.699951H56.5V5.49994H61.3V0.699951Z" fill="#4A5B99"/>
<path d="M51.8 0.699951H47V5.49994H51.8V0.699951Z" fill="#4A5B99"/>
<path d="M42.2004 0.699951H37.4004V5.49994H42.2004V0.699951Z" fill="#4A5B99"/>
<path d="M32.7004 0.699951H27.9004V5.49994H32.7004V0.699951Z" fill="#4A5B99"/>
<path d="M23.0998 0.699951H18.2998V5.49994H23.0998V0.699951Z" fill="#4A5B99"/>
<path d="M13.5002 0.699951H8.7002V5.49994H13.5002V0.699951Z" fill="#4A5B99"/>
<path d="M4.00018 0.699951H-0.799805V5.49994H4.00018V0.699951Z" fill="#4A5B99"/>
<path d="M190.3 39H185.5V43.8H190.3V39Z" fill="#3A4699"/>
<path d="M219 24.6H214.2V29.4H219V24.6Z" fill="#4A5B99"/>
</svg>
