<svg width="773" height="428" viewBox="0 0 773 428" fill="none" xmlns="http://www.w3.org/2000/svg">
<g opacity="0.2" clip-path="url(#clip0)">
<path d="M450.112 294.483L450.112 266.274L447.153 266.274L447.153 294.483L450.112 294.483Z" fill="#3D567C"/>
<path d="M438.647 294.483L438.647 266.274L435.688 266.274L435.688 294.483L438.647 294.483Z" fill="#3D567C"/>
<path d="M427.086 294.483L427.086 266.274L424.127 266.274L424.127 294.483L427.086 294.483Z" fill="#3D567C"/>
<path d="M415.529 294.483L415.529 266.274L412.569 266.274L412.569 294.483L415.529 294.483Z" fill="#3D567C"/>
<path d="M404.061 294.483L404.061 266.274L401.101 266.274L401.101 294.483L404.061 294.483Z" fill="#3D567C"/>
<path d="M392.503 294.483L392.503 266.274L389.543 266.274L389.543 294.483L392.503 294.483Z" fill="#3D567C"/>
<path d="M380.942 294.483L380.942 266.274L377.983 266.274L377.983 294.483L380.942 294.483Z" fill="#3D567C"/>
<path d="M42.8591 74.0798L42.8591 71.1201L14.6546 71.1201L14.6546 74.0798L42.8591 74.0798Z" fill="white" fill-opacity="0.08"/>
<path d="M42.8591 62.5166L42.8591 59.5569L14.6546 59.5569L14.6546 62.5166L42.8591 62.5166Z" fill="white" fill-opacity="0.08"/>
<path d="M42.8591 51.0485L42.8591 48.0889L14.6546 48.0889L14.6546 51.0485L42.8591 51.0485Z" fill="white" fill-opacity="0.08"/>
<path d="M42.8591 39.488L42.8591 36.5283L14.6546 36.5283L14.6546 39.488L42.8591 39.488Z" fill="white" fill-opacity="0.08"/>
<path d="M42.8591 27.9248L42.8591 24.9651L14.6546 24.9651L14.6546 27.9248L42.8591 27.9248Z" fill="white" fill-opacity="0.08"/>
<path d="M42.8591 16.3642L42.8591 13.4045L14.6546 13.4045L14.6546 16.3642L42.8591 16.3642Z" fill="white" fill-opacity="0.08"/>
<path d="M42.8584 4.89572L42.8584 1.93604L14.6539 1.93603L14.6539 4.89572L42.8584 4.89572Z" fill="white" fill-opacity="0.08"/>
<path d="M772.291 38.9321L772.291 10.7227L769.332 10.7227L769.332 38.9321L772.291 38.9321Z" fill="#3D567C"/>
<path d="M382.7 389.933L382.7 366.996L359.766 366.996L359.766 389.933L382.7 389.933Z" fill="#3D567C"/>
<path d="M345.157 389.933L345.157 366.996L322.223 366.996L322.223 389.933L345.157 389.933Z" fill="#3D567C"/>
<path d="M307.519 389.933L307.519 366.996L284.586 366.996L284.586 389.933L307.519 389.933Z" fill="white" fill-opacity="0.08"/>
<path d="M698.128 29.7769L698.128 6.83936L675.194 6.83935L675.194 29.7769L698.128 29.7769Z" fill="white" fill-opacity="0.08"/>
<path d="M698.128 63.4439L698.128 40.5063L675.194 40.5063L675.194 63.4439L698.128 63.4439Z" fill="white" fill-opacity="0.08"/>
<path d="M698.128 97.0159L698.128 74.0784L675.194 74.0784L675.194 97.0159L698.128 97.0159Z" fill="#3D567C"/>
<path d="M698.128 130.591L698.128 107.653L675.194 107.653L675.194 130.591L698.128 130.591Z" fill="#3D567C"/>
<path d="M698.128 164.165L698.128 141.228L675.194 141.228L675.194 164.165L698.128 164.165Z" fill="#3D567C"/>
<path d="M680.186 224.851L678.551 223.216L669.266 232.503L670.901 234.138L680.186 224.851Z" fill="#3D567C"/>
<path d="M658.827 246.223L657.192 244.588L647.907 253.875L649.542 255.51L658.827 246.223Z" fill="#3D567C"/>
<path d="M680.13 253.864L670.845 244.577L669.211 246.212L678.496 255.499L680.13 253.864Z" fill="#3D567C"/>
<path d="M658.827 232.447L649.542 223.16L647.907 224.795L657.192 234.082L658.827 232.447Z" fill="#3D567C"/>
<path d="M640.873 224.821L639.239 223.186L629.953 232.473L631.588 234.108L640.873 224.821Z" fill="white" fill-opacity="0.08"/>
<path d="M619.525 246.193L617.89 244.558L608.605 253.845L610.24 255.48L619.525 246.193Z" fill="white" fill-opacity="0.08"/>
<path d="M640.818 253.834L631.532 244.548L629.898 246.183L639.183 255.469L640.818 253.834Z" fill="white" fill-opacity="0.08"/>
<path d="M619.451 232.483L610.166 223.197L608.531 224.832L617.816 234.118L619.451 232.483Z" fill="white" fill-opacity="0.08"/>
<path d="M601.498 224.859L599.864 223.224L590.579 232.511L592.213 234.146L601.498 224.859Z" fill="#3D567C"/>
<path d="M580.203 246.165L578.568 244.53L569.283 253.817L570.918 255.452L580.203 246.165Z" fill="#3D567C"/>
<path d="M601.506 253.806L592.221 244.52L590.586 246.155L599.871 255.441L601.506 253.806Z" fill="#3D567C"/>
<path d="M580.139 232.455L570.854 223.168L569.219 224.803L578.504 234.09L580.139 232.455Z" fill="#3D567C"/>
<path d="M114.98 163.436L113.345 161.801L104.06 171.088L105.695 172.722L114.98 163.436Z" fill="#3D567C"/>
<path d="M93.6369 184.811L92.0022 183.176L82.7171 192.463L84.3518 194.098L93.6369 184.811Z" fill="#3D567C"/>
<path d="M114.93 192.452L105.645 183.165L104.01 184.8L113.295 194.087L114.93 192.452Z" fill="#3D567C"/>
<path d="M93.6262 171.035L84.3411 161.748L82.7064 163.383L91.9915 172.67L93.6262 171.035Z" fill="#3D567C"/>
<path d="M318.617 210.78L345.157 195.427L345.157 226.041L318.617 210.78ZM340.256 204.028L328.512 210.873L340.256 217.624L340.256 204.028Z" fill="#3D567C"/>
<path d="M281.256 210.781L310.108 194.132L310.108 227.521L281.256 210.781ZM308.536 196.815L284.4 210.781L308.536 224.747L308.536 196.815ZM291.059 210.781L305.207 202.641L305.207 218.92L291.059 210.781ZM303.635 205.324L294.203 210.781L303.635 216.237L303.635 205.324Z" fill="white" fill-opacity="0.08"/>
<path d="M68.1035 409.819L67.4562 409.172L60.8906 409.172L68.1035 416.386L68.1035 409.819Z" fill="white" fill-opacity="0.08"/>
<path d="M68.1035 422.861L54.4174 409.172L47.8517 409.172L68.1035 429.427L68.1035 422.861Z" fill="white" fill-opacity="0.08"/>
<path d="M68.1035 465.128L68.1035 461.799L15.486 409.172L12.157 409.172L12.157 412.409L64.8669 465.128L68.1035 465.128Z" fill="white" fill-opacity="0.08"/>
<path d="M68.1035 448.85L28.4323 409.172L21.8667 409.172L68.1035 455.417L68.1035 448.85Z" fill="white" fill-opacity="0.08"/>
<path d="M58.3945 465.128L12.1577 418.883L12.1577 425.45L51.8289 465.128L58.3945 465.128Z" fill="white" fill-opacity="0.08"/>
<path d="M68.1035 435.809L41.4712 409.172L34.9055 409.172L68.1035 442.376L68.1035 435.809Z" fill="white" fill-opacity="0.08"/>
<path d="M68.1035 409.172L67.4562 409.172L68.1035 409.819L68.1035 409.172Z" fill="white" fill-opacity="0.08"/>
<path d="M475.173 34.9565L475.173 31.7194L422.463 -21L419.226 -21L419.226 -17.7628L471.844 34.9565L475.173 34.9565Z" fill="white" fill-opacity="0.08"/>
<path d="M439.478 34.9565L419.226 14.7012L419.226 21.268L432.912 34.9565L439.478 34.9565Z" fill="white" fill-opacity="0.08"/>
<path d="M426.441 34.9581L419.228 27.7439L419.228 34.3107L419.875 34.9581L426.441 34.9581Z" fill="white" fill-opacity="0.08"/>
<path d="M452.425 34.9579L419.227 1.7539L419.227 8.3207L445.86 34.9579L452.425 34.9579Z" fill="white" fill-opacity="0.08"/>
<path d="M475.173 18.6783L435.502 -21L428.936 -21L475.173 25.2451L475.173 18.6783Z" fill="white" fill-opacity="0.08"/>
<path d="M465.465 34.9562L419.228 -11.2888L419.228 -4.72202L458.9 34.9562L465.465 34.9562Z" fill="white" fill-opacity="0.08"/>
<path d="M475.173 5.72964L448.448 -21L441.883 -21L475.173 12.2964L475.173 5.72964Z" fill="white" fill-opacity="0.08"/>
<path d="M419.876 34.956L419.228 34.3086L419.228 34.956L419.876 34.956Z" fill="white" fill-opacity="0.08"/>
<path d="M630.159 350.902C630.066 350.44 629.974 349.978 629.789 349.515C629.696 349.7 629.696 349.885 629.696 349.978C629.696 350.348 629.881 350.625 630.159 350.902Z" fill="white" fill-opacity="0.08"/>
<path d="M629.696 358.117C629.696 358.765 630.251 359.32 630.898 359.32C630.991 359.32 631.176 359.32 631.268 359.227C631.176 358.395 631.176 357.655 631.083 356.822C630.991 356.822 630.991 356.822 630.898 356.822C630.251 356.822 629.696 357.377 629.696 358.117Z" fill="white" fill-opacity="0.08"/>
<path d="M629.696 366.257C629.696 366.904 630.251 367.459 630.898 367.459C630.991 367.459 630.991 367.459 631.083 367.459C631.176 366.719 631.268 365.887 631.268 365.054C631.176 364.962 630.991 364.962 630.898 364.962C630.251 365.054 629.696 365.517 629.696 366.257Z" fill="white" fill-opacity="0.08"/>
<path d="M629.789 374.858C629.881 374.396 630.066 373.933 630.159 373.379C629.881 373.564 629.696 373.933 629.696 374.303C629.696 374.581 629.789 374.766 629.789 374.858Z" fill="white" fill-opacity="0.08"/>
<path d="M625.906 338.972C625.628 338.325 625.258 337.77 624.888 337.123C624.796 337.308 624.703 337.493 624.703 337.77C624.703 338.417 625.258 338.88 625.906 338.972Z" fill="white" fill-opacity="0.08"/>
<path d="M627.2 345.907C627.2 345.259 626.645 344.704 625.998 344.704C625.35 344.704 624.796 345.259 624.796 345.907C624.796 346.554 625.35 347.109 625.998 347.109C626.645 347.109 627.2 346.554 627.2 345.907Z" fill="white" fill-opacity="0.08"/>
<path d="M627.2 354.049C627.2 353.401 626.645 352.847 625.998 352.847C625.35 352.847 624.796 353.401 624.796 354.049C624.796 354.696 625.35 355.251 625.998 355.251C626.645 355.251 627.2 354.696 627.2 354.049Z" fill="white" fill-opacity="0.08"/>
<path d="M627.2 362.186C627.2 361.538 626.645 360.983 625.998 360.983C625.35 360.983 624.796 361.538 624.796 362.186C624.796 362.833 625.35 363.388 625.998 363.388C626.645 363.388 627.2 362.833 627.2 362.186Z" fill="white" fill-opacity="0.08"/>
<path d="M627.2 370.325C627.2 369.678 626.645 369.123 625.998 369.123C625.35 369.123 624.796 369.678 624.796 370.325C624.796 370.972 625.35 371.527 625.998 371.527C626.645 371.527 627.2 370.972 627.2 370.325Z" fill="white" fill-opacity="0.08"/>
<path d="M627.2 378.464C627.2 377.817 626.645 377.262 625.998 377.262C625.35 377.262 624.796 377.817 624.796 378.464C624.796 379.112 625.35 379.667 625.998 379.667C626.645 379.667 627.2 379.112 627.2 378.464Z" fill="white" fill-opacity="0.08"/>
<path d="M624.703 386.604C624.703 386.789 624.796 387.066 624.888 387.251C625.258 386.604 625.536 386.049 625.906 385.401C625.258 385.401 624.703 385.956 624.703 386.604Z" fill="white" fill-opacity="0.08"/>
<path d="M621.465 333.699C621.465 333.052 620.91 332.497 620.262 332.497C619.615 332.497 619.06 333.052 619.06 333.699C619.06 334.347 619.615 334.901 620.262 334.901C620.91 334.901 621.465 334.347 621.465 333.699Z" fill="white" fill-opacity="0.08"/>
<path d="M621.465 341.838C621.465 341.191 620.91 340.636 620.262 340.636C619.615 340.636 619.06 341.191 619.06 341.838C619.06 342.486 619.615 343.041 620.262 343.041C620.91 343.041 621.465 342.486 621.465 341.838Z" fill="white" fill-opacity="0.08"/>
<path d="M621.465 349.978C621.465 349.33 620.91 348.776 620.262 348.776C619.615 348.776 619.06 349.33 619.06 349.978C619.06 350.625 619.615 351.18 620.262 351.18C620.91 351.18 621.465 350.625 621.465 349.978Z" fill="white" fill-opacity="0.08"/>
<path d="M620.183 359.312C620.847 359.319 621.391 358.787 621.399 358.123C621.406 357.459 620.874 356.915 620.21 356.907C619.546 356.9 619.002 357.432 618.994 358.096C618.987 358.76 619.519 359.304 620.183 359.312Z" fill="white" fill-opacity="0.08"/>
<path d="M618.981 366.253C618.988 366.917 619.532 367.449 620.196 367.442C620.859 367.435 621.392 366.891 621.385 366.227C621.378 365.563 620.834 365.031 620.17 365.038C619.506 365.045 618.974 365.589 618.981 366.253Z" fill="white" fill-opacity="0.08"/>
<path d="M621.465 374.396C621.465 373.749 620.91 373.194 620.262 373.194C619.615 373.194 619.06 373.749 619.06 374.396C619.06 375.043 619.615 375.598 620.262 375.598C620.91 375.598 621.465 375.043 621.465 374.396Z" fill="white" fill-opacity="0.08"/>
<path d="M621.465 382.535C621.465 381.888 620.91 381.333 620.262 381.333C619.615 381.333 619.06 381.888 619.06 382.535C619.06 383.183 619.615 383.738 620.262 383.738C620.91 383.738 621.465 383.183 621.465 382.535Z" fill="white" fill-opacity="0.08"/>
<path d="M618.968 390.675C618.968 391.339 619.506 391.877 620.17 391.877C620.834 391.877 621.372 391.339 621.372 390.675C621.372 390.011 620.834 389.472 620.17 389.472C619.506 389.472 618.968 390.011 618.968 390.675Z" fill="white" fill-opacity="0.08"/>
<path d="M616.379 329.538C616.379 328.891 615.824 328.336 615.177 328.336C614.53 328.336 613.975 328.891 613.975 329.538C613.975 330.186 614.53 330.741 615.177 330.741C615.917 330.833 616.379 330.278 616.379 329.538Z" fill="white" fill-opacity="0.08"/>
<path d="M616.379 337.77C616.379 337.123 615.824 336.568 615.177 336.568C614.53 336.568 613.975 337.123 613.975 337.77C613.975 338.418 614.53 338.972 615.177 338.972C615.917 338.972 616.379 338.418 616.379 337.77Z" fill="white" fill-opacity="0.08"/>
<path d="M616.379 345.907C616.379 345.259 615.824 344.704 615.177 344.704C614.53 344.704 613.975 345.259 613.975 345.907C613.975 346.554 614.53 347.109 615.177 347.109C615.917 347.109 616.379 346.554 616.379 345.907Z" fill="white" fill-opacity="0.08"/>
<path d="M616.379 354.049C616.379 353.401 615.824 352.847 615.177 352.847C614.53 352.847 613.975 353.401 613.975 354.049C613.975 354.696 614.53 355.251 615.177 355.251C615.917 355.251 616.379 354.696 616.379 354.049Z" fill="white" fill-opacity="0.08"/>
<path d="M616.379 362.186C616.379 361.538 615.824 360.983 615.177 360.983C614.53 360.983 613.975 361.538 613.975 362.186C613.975 362.833 614.53 363.388 615.177 363.388C615.917 363.388 616.379 362.833 616.379 362.186Z" fill="white" fill-opacity="0.08"/>
<path d="M616.379 370.325C616.379 369.678 615.824 369.123 615.177 369.123C614.53 369.123 613.975 369.678 613.975 370.325C613.975 370.972 614.53 371.527 615.177 371.527C615.917 371.527 616.379 370.972 616.379 370.325Z" fill="white" fill-opacity="0.08"/>
<path d="M616.379 378.464C616.379 377.817 615.824 377.262 615.177 377.262C614.53 377.262 613.975 377.817 613.975 378.464C613.975 379.112 614.53 379.667 615.177 379.667C615.917 379.667 616.379 379.112 616.379 378.464Z" fill="white" fill-opacity="0.08"/>
<path d="M616.379 386.604C616.379 385.956 615.824 385.401 615.177 385.401C614.53 385.401 613.975 385.956 613.975 386.604C613.975 387.251 614.53 387.806 615.177 387.806C615.917 387.806 616.379 387.251 616.379 386.604Z" fill="white" fill-opacity="0.08"/>
<path d="M616.379 394.743C616.379 394.096 615.824 393.541 615.177 393.541C614.53 393.541 613.975 394.096 613.975 394.743C613.975 395.391 614.53 395.945 615.177 395.945C615.917 396.038 616.379 395.483 616.379 394.743Z" fill="white" fill-opacity="0.08"/>
<path d="M610.646 325.467C610.646 324.82 610.092 324.265 609.444 324.265C608.797 324.265 608.242 324.82 608.242 325.467C608.242 326.115 608.797 326.67 609.444 326.67C610.092 326.762 610.646 326.207 610.646 325.467Z" fill="white" fill-opacity="0.08"/>
<path d="M610.646 333.699C610.646 333.052 610.092 332.497 609.444 332.497C608.797 332.497 608.242 333.052 608.242 333.699C608.242 334.347 608.797 334.901 609.444 334.901C610.092 334.901 610.646 334.347 610.646 333.699Z" fill="white" fill-opacity="0.08"/>
<path d="M610.646 341.838C610.646 341.191 610.092 340.636 609.444 340.636C608.797 340.636 608.242 341.191 608.242 341.838C608.242 342.486 608.797 343.041 609.444 343.041C610.092 343.041 610.646 342.486 610.646 341.838Z" fill="white" fill-opacity="0.08"/>
<path d="M610.646 349.978C610.646 349.33 610.092 348.776 609.444 348.776C608.797 348.776 608.242 349.33 608.242 349.978C608.242 350.625 608.797 351.18 609.444 351.18C610.092 351.18 610.646 350.625 610.646 349.978Z" fill="white" fill-opacity="0.08"/>
<path d="M608.241 358.136C608.25 358.8 608.796 359.33 609.46 359.321C610.124 359.311 610.655 358.765 610.645 358.101C610.636 357.437 610.09 356.907 609.426 356.916C608.762 356.926 608.232 357.472 608.241 358.136Z" fill="white" fill-opacity="0.08"/>
<path d="M609.44 367.451C610.104 367.461 610.65 366.93 610.66 366.266C610.67 365.603 610.14 365.056 609.476 365.046C608.812 365.036 608.266 365.566 608.256 366.23C608.246 366.894 608.776 367.44 609.44 367.451Z" fill="white" fill-opacity="0.08"/>
<path d="M610.646 374.396C610.646 373.749 610.092 373.194 609.444 373.194C608.797 373.194 608.242 373.749 608.242 374.396C608.242 375.043 608.797 375.598 609.444 375.598C610.092 375.598 610.646 375.043 610.646 374.396Z" fill="white" fill-opacity="0.08"/>
<path d="M610.646 382.535C610.646 381.888 610.092 381.333 609.444 381.333C608.797 381.333 608.242 381.888 608.242 382.535C608.242 383.183 608.797 383.738 609.444 383.738C610.092 383.738 610.646 383.183 610.646 382.535Z" fill="white" fill-opacity="0.08"/>
<path d="M608.242 390.675C608.242 391.339 608.78 391.877 609.444 391.877C610.108 391.877 610.646 391.339 610.646 390.675C610.646 390.011 610.108 389.472 609.444 389.472C608.78 389.472 608.242 390.011 608.242 390.675Z" fill="white" fill-opacity="0.08"/>
<path d="M610.646 398.814C610.646 398.167 610.092 397.612 609.444 397.612C608.797 397.612 608.242 398.167 608.242 398.814C608.242 399.462 608.797 400.017 609.444 400.017C610.092 400.109 610.646 399.554 610.646 398.814Z" fill="white" fill-opacity="0.08"/>
<path d="M605.653 321.399C605.653 320.751 605.098 320.197 604.451 320.197C603.804 320.197 603.249 320.751 603.249 321.399C603.249 322.046 603.804 322.601 604.451 322.601C605.098 322.694 605.653 322.139 605.653 321.399Z" fill="white" fill-opacity="0.08"/>
<path d="M605.653 329.538C605.653 328.891 605.098 328.336 604.451 328.336C603.804 328.336 603.249 328.891 603.249 329.538C603.249 330.186 603.804 330.741 604.451 330.741C605.098 330.833 605.653 330.278 605.653 329.538Z" fill="white" fill-opacity="0.08"/>
<path d="M605.653 337.77C605.653 337.123 605.098 336.568 604.451 336.568C603.804 336.568 603.249 337.123 603.249 337.77C603.249 338.418 603.804 338.972 604.451 338.972C605.098 338.972 605.653 338.418 605.653 337.77Z" fill="white" fill-opacity="0.08"/>
<path d="M605.653 345.907C605.653 345.259 605.098 344.704 604.451 344.704C603.804 344.704 603.249 345.259 603.249 345.907C603.249 346.554 603.804 347.109 604.451 347.109C605.098 347.109 605.653 346.554 605.653 345.907Z" fill="white" fill-opacity="0.08"/>
<path d="M605.653 354.049C605.653 353.401 605.098 352.847 604.451 352.847C603.804 352.847 603.249 353.401 603.249 354.049C603.249 354.696 603.804 355.251 604.451 355.251C605.098 355.251 605.653 354.696 605.653 354.049Z" fill="white" fill-opacity="0.08"/>
<path d="M605.653 362.186C605.653 361.538 605.098 360.983 604.451 360.983C603.804 360.983 603.249 361.538 603.249 362.186C603.249 362.833 603.804 363.388 604.451 363.388C605.098 363.388 605.653 362.833 605.653 362.186Z" fill="white" fill-opacity="0.08"/>
<path d="M605.653 370.325C605.653 369.678 605.098 369.123 604.451 369.123C603.804 369.123 603.249 369.678 603.249 370.325C603.249 370.972 603.804 371.527 604.451 371.527C605.098 371.527 605.653 370.972 605.653 370.325Z" fill="white" fill-opacity="0.08"/>
<path d="M605.653 378.464C605.653 377.817 605.098 377.262 604.451 377.262C603.804 377.262 603.249 377.817 603.249 378.464C603.249 379.112 603.804 379.667 604.451 379.667C605.098 379.667 605.653 379.112 605.653 378.464Z" fill="white" fill-opacity="0.08"/>
<path d="M605.653 386.604C605.653 385.956 605.098 385.401 604.451 385.401C603.804 385.401 603.249 385.956 603.249 386.604C603.249 387.251 603.804 387.806 604.451 387.806C605.098 387.806 605.653 387.251 605.653 386.604Z" fill="white" fill-opacity="0.08"/>
<path d="M605.653 394.743C605.653 394.096 605.098 393.541 604.451 393.541C603.804 393.541 603.249 394.096 603.249 394.743C603.249 395.391 603.804 395.945 604.451 395.945C605.098 396.038 605.653 395.483 605.653 394.743Z" fill="white" fill-opacity="0.08"/>
<path d="M605.653 402.883C605.653 402.235 605.098 401.68 604.451 401.68C603.804 401.68 603.249 402.235 603.249 402.883C603.249 403.53 603.804 404.085 604.451 404.085C605.098 404.177 605.653 403.622 605.653 402.883Z" fill="white" fill-opacity="0.08"/>
<path d="M599.921 317.328C599.921 316.68 599.366 316.125 598.719 316.125C598.071 316.125 597.516 316.68 597.516 317.328C597.516 317.975 598.071 318.53 598.719 318.53C599.366 318.623 599.921 318.068 599.921 317.328Z" fill="white" fill-opacity="0.08"/>
<path d="M599.921 325.467C599.921 324.82 599.366 324.265 598.719 324.265C598.071 324.265 597.516 324.82 597.516 325.467C597.516 326.115 598.071 326.67 598.719 326.67C599.366 326.762 599.921 326.207 599.921 325.467Z" fill="white" fill-opacity="0.08"/>
<path d="M599.921 333.699C599.921 333.052 599.366 332.497 598.719 332.497C598.071 332.497 597.516 333.052 597.516 333.699C597.516 334.347 598.071 334.901 598.719 334.901C599.366 334.901 599.921 334.347 599.921 333.699Z" fill="white" fill-opacity="0.08"/>
<path d="M599.921 341.838C599.921 341.191 599.366 340.636 598.719 340.636C598.071 340.636 597.516 341.191 597.516 341.838C597.516 342.486 598.071 343.041 598.719 343.041C599.366 343.041 599.921 342.486 599.921 341.838Z" fill="white" fill-opacity="0.08"/>
<path d="M599.921 349.978C599.921 349.33 599.366 348.776 598.719 348.776C598.071 348.776 597.516 349.33 597.516 349.978C597.516 350.625 598.071 351.18 598.719 351.18C599.366 351.18 599.921 350.625 599.921 349.978Z" fill="white" fill-opacity="0.08"/>
<path d="M599.921 358.117C599.921 357.47 599.366 356.915 598.719 356.915C598.071 356.915 597.516 357.47 597.516 358.117C597.516 358.765 598.071 359.32 598.719 359.32C599.366 359.32 599.921 358.765 599.921 358.117Z" fill="white" fill-opacity="0.08"/>
<path d="M599.921 366.257C599.921 365.609 599.366 365.054 598.719 365.054C598.071 365.054 597.516 365.609 597.516 366.257C597.516 366.904 598.071 367.459 598.719 367.459C599.366 367.459 599.921 366.904 599.921 366.257Z" fill="white" fill-opacity="0.08"/>
<path d="M599.921 374.396C599.921 373.749 599.366 373.194 598.719 373.194C598.071 373.194 597.516 373.749 597.516 374.396C597.516 375.043 598.071 375.598 598.719 375.598C599.366 375.598 599.921 375.043 599.921 374.396Z" fill="white" fill-opacity="0.08"/>
<path d="M599.921 382.535C599.921 381.888 599.366 381.333 598.719 381.333C598.071 381.333 597.516 381.888 597.516 382.535C597.516 383.183 598.071 383.738 598.719 383.738C599.366 383.738 599.921 383.183 599.921 382.535Z" fill="white" fill-opacity="0.08"/>
<path d="M599.921 390.675C599.921 390.027 599.366 389.472 598.719 389.472C598.071 389.472 597.516 390.027 597.516 390.675C597.516 391.322 598.071 391.877 598.719 391.877C599.366 391.877 599.921 391.415 599.921 390.675Z" fill="white" fill-opacity="0.08"/>
<path d="M599.921 398.814C599.921 398.167 599.366 397.612 598.719 397.612C598.071 397.612 597.516 398.167 597.516 398.814C597.516 399.462 598.071 400.017 598.719 400.017C599.366 400.109 599.921 399.554 599.921 398.814Z" fill="white" fill-opacity="0.08"/>
<path d="M599.921 406.951C599.921 406.303 599.366 405.749 598.719 405.749C598.071 405.749 597.516 406.303 597.516 406.951C597.516 407.598 598.071 408.153 598.719 408.153C599.366 408.246 599.921 407.691 599.921 406.951Z" fill="white" fill-opacity="0.08"/>
<path d="M593.726 314.554C594.373 314.554 594.928 313.999 594.928 313.352C594.928 313.259 594.928 313.167 594.835 313.074C594.188 312.889 593.448 312.704 592.801 312.519C592.616 312.704 592.431 313.074 592.431 313.352C592.431 313.999 592.986 314.554 593.726 314.554Z" fill="white" fill-opacity="0.08"/>
<path d="M594.928 321.399C594.928 320.751 594.373 320.197 593.726 320.197C593.078 320.197 592.523 320.751 592.523 321.399C592.523 322.046 593.078 322.601 593.726 322.601C594.373 322.694 594.928 322.139 594.928 321.399Z" fill="white" fill-opacity="0.08"/>
<path d="M594.928 329.538C594.928 328.891 594.373 328.336 593.726 328.336C593.078 328.336 592.523 328.891 592.523 329.538C592.523 330.186 593.078 330.741 593.726 330.741C594.373 330.833 594.928 330.278 594.928 329.538Z" fill="white" fill-opacity="0.08"/>
<path d="M594.928 337.77C594.928 337.123 594.373 336.568 593.726 336.568C593.078 336.568 592.523 337.123 592.523 337.77C592.523 338.418 593.078 338.972 593.726 338.972C594.373 338.972 594.928 338.418 594.928 337.77Z" fill="white" fill-opacity="0.08"/>
<path d="M594.928 345.907C594.928 345.259 594.373 344.704 593.726 344.704C593.078 344.704 592.523 345.259 592.523 345.907C592.523 346.554 593.078 347.109 593.726 347.109C594.373 347.109 594.928 346.554 594.928 345.907Z" fill="white" fill-opacity="0.08"/>
<path d="M594.928 354.049C594.928 353.401 594.373 352.847 593.726 352.847C593.078 352.847 592.523 353.401 592.523 354.049C592.523 354.696 593.078 355.251 593.726 355.251C594.373 355.251 594.928 354.696 594.928 354.049Z" fill="white" fill-opacity="0.08"/>
<path d="M594.928 362.186C594.928 361.538 594.373 360.983 593.726 360.983C593.078 360.983 592.523 361.538 592.523 362.186C592.523 362.833 593.078 363.388 593.726 363.388C594.373 363.388 594.928 362.833 594.928 362.186Z" fill="white" fill-opacity="0.08"/>
<path d="M594.928 370.325C594.928 369.678 594.373 369.123 593.726 369.123C593.078 369.123 592.523 369.678 592.523 370.325C592.523 370.972 593.078 371.527 593.726 371.527C594.373 371.527 594.928 370.972 594.928 370.325Z" fill="white" fill-opacity="0.08"/>
<path d="M594.928 378.464C594.928 377.817 594.373 377.262 593.726 377.262C593.078 377.262 592.523 377.817 592.523 378.464C592.523 379.112 593.078 379.667 593.726 379.667C594.373 379.667 594.928 379.112 594.928 378.464Z" fill="white" fill-opacity="0.08"/>
<path d="M594.928 386.604C594.928 385.956 594.373 385.401 593.726 385.401C593.078 385.401 592.523 385.956 592.523 386.604C592.523 387.251 593.078 387.806 593.726 387.806C594.373 387.806 594.928 387.251 594.928 386.604Z" fill="white" fill-opacity="0.08"/>
<path d="M594.928 394.743C594.928 394.096 594.373 393.541 593.726 393.541C593.078 393.541 592.523 394.096 592.523 394.743C592.523 395.391 593.078 395.945 593.726 395.945C594.373 396.038 594.928 395.483 594.928 394.743Z" fill="white" fill-opacity="0.08"/>
<path d="M594.928 402.883C594.928 402.235 594.373 401.68 593.726 401.68C593.078 401.68 592.523 402.235 592.523 402.883C592.523 403.53 593.078 404.085 593.726 404.085C594.373 404.177 594.928 403.622 594.928 402.883Z" fill="white" fill-opacity="0.08"/>
<path d="M592.431 411.022C592.431 411.392 592.523 411.669 592.801 411.854C593.541 411.669 594.188 411.484 594.835 411.299C594.835 411.207 594.928 411.114 594.928 411.022C594.928 410.375 594.373 409.82 593.726 409.82C592.986 409.82 592.431 410.375 592.431 411.022Z" fill="white" fill-opacity="0.08"/>
<path d="M589.192 317.328C589.192 316.68 588.638 316.125 587.99 316.125C587.343 316.125 586.788 316.68 586.788 317.328C586.788 317.975 587.343 318.53 587.99 318.53C588.638 318.623 589.192 318.068 589.192 317.328Z" fill="white" fill-opacity="0.08"/>
<path d="M589.192 325.467C589.192 324.82 588.638 324.265 587.99 324.265C587.343 324.265 586.788 324.82 586.788 325.467C586.788 326.115 587.343 326.67 587.99 326.67C588.638 326.762 589.192 326.207 589.192 325.467Z" fill="white" fill-opacity="0.08"/>
<path d="M589.192 333.699C589.192 333.052 588.638 332.497 587.99 332.497C587.343 332.497 586.788 333.052 586.788 333.699C586.788 334.347 587.343 334.901 587.99 334.901C588.638 334.901 589.192 334.347 589.192 333.699Z" fill="white" fill-opacity="0.08"/>
<path d="M589.192 341.838C589.192 341.191 588.638 340.636 587.99 340.636C587.343 340.636 586.788 341.191 586.788 341.838C586.788 342.486 587.343 343.041 587.99 343.041C588.638 343.041 589.192 342.486 589.192 341.838Z" fill="white" fill-opacity="0.08"/>
<path d="M589.192 349.978C589.192 349.33 588.638 348.776 587.99 348.776C587.343 348.776 586.788 349.33 586.788 349.978C586.788 350.625 587.343 351.18 587.99 351.18C588.638 351.18 589.192 350.625 589.192 349.978Z" fill="white" fill-opacity="0.08"/>
<path d="M589.192 358.117C589.192 357.47 588.638 356.915 587.99 356.915C587.343 356.915 586.788 357.47 586.788 358.117C586.788 358.765 587.343 359.32 587.99 359.32C588.638 359.32 589.192 358.765 589.192 358.117Z" fill="white" fill-opacity="0.08"/>
<path d="M589.192 366.257C589.192 365.609 588.638 365.054 587.99 365.054C587.343 365.054 586.788 365.609 586.788 366.257C586.788 366.904 587.343 367.459 587.99 367.459C588.638 367.459 589.192 366.904 589.192 366.257Z" fill="white" fill-opacity="0.08"/>
<path d="M589.192 374.396C589.192 373.749 588.638 373.194 587.99 373.194C587.343 373.194 586.788 373.749 586.788 374.396C586.788 375.043 587.343 375.598 587.99 375.598C588.638 375.598 589.192 375.043 589.192 374.396Z" fill="white" fill-opacity="0.08"/>
<path d="M589.192 382.535C589.192 381.888 588.638 381.333 587.99 381.333C587.343 381.333 586.788 381.888 586.788 382.535C586.788 383.183 587.343 383.738 587.99 383.738C588.638 383.738 589.192 383.183 589.192 382.535Z" fill="white" fill-opacity="0.08"/>
<path d="M589.192 390.675C589.192 390.027 588.638 389.472 587.99 389.472C587.343 389.472 586.788 390.027 586.788 390.675C586.788 391.322 587.343 391.877 587.99 391.877C588.638 391.877 589.192 391.415 589.192 390.675Z" fill="white" fill-opacity="0.08"/>
<path d="M589.192 398.814C589.192 398.167 588.638 397.612 587.99 397.612C587.343 397.612 586.788 398.167 586.788 398.814C586.788 399.462 587.343 400.017 587.99 400.017C588.638 400.109 589.192 399.554 589.192 398.814Z" fill="white" fill-opacity="0.08"/>
<path d="M589.192 406.951C589.192 406.303 588.638 405.749 587.99 405.749C587.343 405.749 586.788 406.303 586.788 406.951C586.788 407.598 587.343 408.153 587.99 408.153C588.638 408.246 589.192 407.691 589.192 406.951Z" fill="white" fill-opacity="0.08"/>
<path d="M584.199 313.26C584.199 312.612 583.645 312.057 582.997 312.057C582.35 312.057 581.795 312.612 581.795 313.26C581.795 313.907 582.35 314.462 582.997 314.462C583.645 314.554 584.199 313.999 584.199 313.26Z" fill="white" fill-opacity="0.08"/>
<path d="M584.199 321.399C584.199 320.751 583.645 320.197 582.997 320.197C582.35 320.197 581.795 320.751 581.795 321.399C581.795 322.046 582.35 322.601 582.997 322.601C583.645 322.694 584.199 322.139 584.199 321.399Z" fill="white" fill-opacity="0.08"/>
<path d="M584.199 329.538C584.199 328.891 583.645 328.336 582.997 328.336C582.35 328.336 581.795 328.891 581.795 329.538C581.795 330.186 582.35 330.741 582.997 330.741C583.645 330.833 584.199 330.278 584.199 329.538Z" fill="white" fill-opacity="0.08"/>
<path d="M584.199 337.77C584.199 337.123 583.645 336.568 582.997 336.568C582.35 336.568 581.795 337.123 581.795 337.77C581.795 338.418 582.35 338.972 582.997 338.972C583.645 338.972 584.199 338.418 584.199 337.77Z" fill="white" fill-opacity="0.08"/>
<path d="M584.199 345.907C584.199 345.259 583.645 344.704 582.997 344.704C582.35 344.704 581.795 345.259 581.795 345.907C581.795 346.554 582.35 347.109 582.997 347.109C583.645 347.109 584.199 346.554 584.199 345.907Z" fill="white" fill-opacity="0.08"/>
<path d="M584.199 354.049C584.199 353.401 583.645 352.847 582.997 352.847C582.35 352.847 581.795 353.401 581.795 354.049C581.795 354.696 582.35 355.251 582.997 355.251C583.645 355.251 584.199 354.696 584.199 354.049Z" fill="white" fill-opacity="0.08"/>
<path d="M584.199 362.186C584.199 361.538 583.645 360.983 582.997 360.983C582.35 360.983 581.795 361.538 581.795 362.186C581.795 362.833 582.35 363.388 582.997 363.388C583.645 363.388 584.199 362.833 584.199 362.186Z" fill="white" fill-opacity="0.08"/>
<path d="M584.199 370.325C584.199 369.678 583.645 369.123 582.997 369.123C582.35 369.123 581.795 369.678 581.795 370.325C581.795 370.972 582.35 371.527 582.997 371.527C583.645 371.527 584.199 370.972 584.199 370.325Z" fill="white" fill-opacity="0.08"/>
<path d="M584.199 378.464C584.199 377.817 583.645 377.262 582.997 377.262C582.35 377.262 581.795 377.817 581.795 378.464C581.795 379.112 582.35 379.667 582.997 379.667C583.645 379.667 584.199 379.112 584.199 378.464Z" fill="white" fill-opacity="0.08"/>
<path d="M584.199 386.604C584.199 385.956 583.645 385.401 582.997 385.401C582.35 385.401 581.795 385.956 581.795 386.604C581.795 387.251 582.35 387.806 582.997 387.806C583.645 387.806 584.199 387.251 584.199 386.604Z" fill="white" fill-opacity="0.08"/>
<path d="M584.199 394.743C584.199 394.096 583.645 393.541 582.997 393.541C582.35 393.541 581.795 394.096 581.795 394.743C581.795 395.391 582.35 395.945 582.997 395.945C583.645 396.038 584.199 395.483 584.199 394.743Z" fill="white" fill-opacity="0.08"/>
<path d="M584.199 402.883C584.199 402.235 583.645 401.68 582.997 401.68C582.35 401.68 581.795 402.235 581.795 402.883C581.795 403.53 582.35 404.085 582.997 404.085C583.645 404.177 584.199 403.622 584.199 402.883Z" fill="white" fill-opacity="0.08"/>
<path d="M581.703 411.022C581.703 411.669 582.257 412.224 582.905 412.224C583.552 412.224 584.107 411.669 584.107 411.022C584.107 410.375 583.552 409.82 582.905 409.82C582.257 409.82 581.703 410.375 581.703 411.022Z" fill="white" fill-opacity="0.08"/>
<path d="M578.467 317.328C578.467 316.68 577.912 316.125 577.264 316.125C576.617 316.125 576.062 316.68 576.062 317.328C576.062 317.975 576.617 318.53 577.264 318.53C577.912 318.53 578.467 318.068 578.467 317.328Z" fill="white" fill-opacity="0.08"/>
<path d="M578.467 325.467C578.467 324.82 577.912 324.265 577.264 324.265C576.617 324.265 576.062 324.82 576.062 325.467C576.062 326.115 576.617 326.67 577.264 326.67C577.912 326.67 578.467 326.207 578.467 325.467Z" fill="white" fill-opacity="0.08"/>
<path d="M578.467 333.699C578.467 333.052 577.912 332.497 577.264 332.497C576.617 332.497 576.062 333.052 576.062 333.699C576.062 334.347 576.617 334.901 577.264 334.901C577.912 334.901 578.467 334.347 578.467 333.699Z" fill="white" fill-opacity="0.08"/>
<path d="M578.467 341.838C578.467 341.191 577.912 340.636 577.264 340.636C576.617 340.636 576.062 341.191 576.062 341.838C576.062 342.486 576.617 343.041 577.264 343.041C577.912 343.041 578.467 342.486 578.467 341.838Z" fill="white" fill-opacity="0.08"/>
<path d="M578.467 349.978C578.467 349.33 577.912 348.776 577.264 348.776C576.617 348.776 576.062 349.33 576.062 349.978C576.062 350.625 576.617 351.18 577.264 351.18C577.912 351.18 578.467 350.625 578.467 349.978Z" fill="white" fill-opacity="0.08"/>
<path d="M578.467 358.117C578.467 357.47 577.912 356.915 577.264 356.915C576.617 356.915 576.062 357.47 576.062 358.117C576.062 358.765 576.617 359.32 577.264 359.32C577.912 359.32 578.467 358.765 578.467 358.117Z" fill="white" fill-opacity="0.08"/>
<path d="M578.467 366.257C578.467 365.609 577.912 365.054 577.264 365.054C576.617 365.054 576.062 365.609 576.062 366.257C576.062 366.904 576.617 367.459 577.264 367.459C577.912 367.459 578.467 366.904 578.467 366.257Z" fill="white" fill-opacity="0.08"/>
<path d="M578.467 374.396C578.467 373.749 577.912 373.194 577.264 373.194C576.617 373.194 576.062 373.749 576.062 374.396C576.062 375.043 576.617 375.598 577.264 375.598C577.912 375.598 578.467 375.043 578.467 374.396Z" fill="white" fill-opacity="0.08"/>
<path d="M578.467 382.535C578.467 381.888 577.912 381.333 577.264 381.333C576.617 381.333 576.062 381.888 576.062 382.535C576.062 383.183 576.617 383.738 577.264 383.738C577.912 383.738 578.467 383.183 578.467 382.535Z" fill="white" fill-opacity="0.08"/>
<path d="M578.467 390.675C578.467 390.027 577.912 389.472 577.264 389.472C576.617 389.472 576.062 390.027 576.062 390.675C576.062 391.322 576.617 391.877 577.264 391.877C577.912 391.877 578.467 391.415 578.467 390.675Z" fill="white" fill-opacity="0.08"/>
<path d="M578.467 398.814C578.467 398.167 577.912 397.612 577.264 397.612C576.617 397.612 576.062 398.167 576.062 398.814C576.062 399.462 576.617 400.017 577.264 400.017C577.912 400.017 578.467 399.554 578.467 398.814Z" fill="white" fill-opacity="0.08"/>
<path d="M578.467 406.951C578.467 406.303 577.912 405.749 577.264 405.749C576.617 405.749 576.062 406.303 576.062 406.951C576.062 407.598 576.617 408.153 577.264 408.153C577.912 408.153 578.467 407.691 578.467 406.951Z" fill="white" fill-opacity="0.08"/>
<path d="M573.379 313.26C573.379 312.612 572.824 312.057 572.176 312.057C571.529 312.057 570.974 312.612 570.974 313.26C570.974 313.907 571.529 314.462 572.176 314.462C572.916 314.554 573.379 313.999 573.379 313.26Z" fill="white" fill-opacity="0.08"/>
<path d="M573.379 321.399C573.379 320.751 572.824 320.197 572.176 320.197C571.529 320.197 570.974 320.751 570.974 321.399C570.974 322.046 571.529 322.601 572.176 322.601C572.916 322.694 573.379 322.139 573.379 321.399Z" fill="white" fill-opacity="0.08"/>
<path d="M573.379 329.538C573.379 328.891 572.824 328.336 572.176 328.336C571.529 328.336 570.974 328.891 570.974 329.538C570.974 330.186 571.529 330.741 572.176 330.741C572.916 330.833 573.379 330.278 573.379 329.538Z" fill="white" fill-opacity="0.08"/>
<path d="M573.379 337.77C573.379 337.123 572.824 336.568 572.176 336.568C571.529 336.568 570.974 337.123 570.974 337.77C570.974 338.418 571.529 338.972 572.176 338.972C572.916 338.972 573.379 338.418 573.379 337.77Z" fill="white" fill-opacity="0.08"/>
<path d="M573.379 345.907C573.379 345.259 572.824 344.704 572.176 344.704C571.529 344.704 570.974 345.259 570.974 345.907C570.974 346.554 571.529 347.109 572.176 347.109C572.916 347.109 573.379 346.554 573.379 345.907Z" fill="white" fill-opacity="0.08"/>
<path d="M573.379 354.049C573.379 353.401 572.824 352.847 572.176 352.847C571.529 352.847 570.974 353.401 570.974 354.049C570.974 354.696 571.529 355.251 572.176 355.251C572.916 355.251 573.379 354.696 573.379 354.049Z" fill="white" fill-opacity="0.08"/>
<path d="M573.379 362.186C573.379 361.538 572.824 360.983 572.176 360.983C571.529 360.983 570.974 361.538 570.974 362.186C570.974 362.833 571.529 363.388 572.176 363.388C572.916 363.388 573.379 362.833 573.379 362.186Z" fill="white" fill-opacity="0.08"/>
<path d="M573.379 370.325C573.379 369.678 572.824 369.123 572.176 369.123C571.529 369.123 570.974 369.678 570.974 370.325C570.974 370.972 571.529 371.527 572.176 371.527C572.916 371.527 573.379 370.972 573.379 370.325Z" fill="white" fill-opacity="0.08"/>
<path d="M573.379 378.464C573.379 377.817 572.824 377.262 572.176 377.262C571.529 377.262 570.974 377.817 570.974 378.464C570.974 379.112 571.529 379.667 572.176 379.667C572.916 379.667 573.379 379.112 573.379 378.464Z" fill="white" fill-opacity="0.08"/>
<path d="M573.379 386.604C573.379 385.956 572.824 385.401 572.176 385.401C571.529 385.401 570.974 385.956 570.974 386.604C570.974 387.251 571.529 387.806 572.176 387.806C572.916 387.806 573.379 387.251 573.379 386.604Z" fill="white" fill-opacity="0.08"/>
<path d="M573.379 394.743C573.379 394.096 572.824 393.541 572.176 393.541C571.529 393.541 570.974 394.096 570.974 394.743C570.974 395.391 571.529 395.945 572.176 395.945C572.916 396.038 573.379 395.483 573.379 394.743Z" fill="white" fill-opacity="0.08"/>
<path d="M573.379 402.883C573.379 402.235 572.824 401.68 572.176 401.68C571.529 401.68 570.974 402.235 570.974 402.883C570.974 403.53 571.529 404.085 572.176 404.085C572.916 404.177 573.379 403.622 573.379 402.883Z" fill="white" fill-opacity="0.08"/>
<path d="M573.379 411.022C573.379 410.375 572.824 409.82 572.176 409.82C571.529 409.82 570.974 410.375 570.974 411.022C570.974 411.669 571.529 412.224 572.176 412.224C572.916 412.317 573.379 411.762 573.379 411.022Z" fill="white" fill-opacity="0.08"/>
<path d="M567.646 317.328C567.646 316.68 567.091 316.125 566.444 316.125C565.796 316.125 565.241 316.68 565.241 317.328C565.241 317.975 565.796 318.53 566.444 318.53C567.091 318.623 567.646 318.068 567.646 317.328Z" fill="white" fill-opacity="0.08"/>
<path d="M567.646 325.467C567.646 324.82 567.091 324.265 566.444 324.265C565.796 324.265 565.241 324.82 565.241 325.467C565.241 326.115 565.796 326.67 566.444 326.67C567.091 326.762 567.646 326.207 567.646 325.467Z" fill="white" fill-opacity="0.08"/>
<path d="M567.646 333.699C567.646 333.052 567.091 332.497 566.444 332.497C565.796 332.497 565.241 333.052 565.241 333.699C565.241 334.347 565.796 334.901 566.444 334.901C567.091 334.901 567.646 334.347 567.646 333.699Z" fill="white" fill-opacity="0.08"/>
<path d="M567.646 341.838C567.646 341.191 567.091 340.636 566.444 340.636C565.796 340.636 565.241 341.191 565.241 341.838C565.241 342.486 565.796 343.041 566.444 343.041C567.091 343.041 567.646 342.486 567.646 341.838Z" fill="white" fill-opacity="0.08"/>
<path d="M567.646 349.978C567.646 349.33 567.091 348.776 566.444 348.776C565.796 348.776 565.241 349.33 565.241 349.978C565.241 350.625 565.796 351.18 566.444 351.18C567.091 351.18 567.646 350.625 567.646 349.978Z" fill="white" fill-opacity="0.08"/>
<path d="M567.646 358.117C567.646 357.47 567.091 356.915 566.444 356.915C565.796 356.915 565.241 357.47 565.241 358.117C565.241 358.765 565.796 359.32 566.444 359.32C567.091 359.32 567.646 358.765 567.646 358.117Z" fill="white" fill-opacity="0.08"/>
<path d="M567.646 366.257C567.646 365.609 567.091 365.054 566.444 365.054C565.796 365.054 565.241 365.609 565.241 366.257C565.241 366.904 565.796 367.459 566.444 367.459C567.091 367.459 567.646 366.904 567.646 366.257Z" fill="white" fill-opacity="0.08"/>
<path d="M567.646 374.396C567.646 373.749 567.091 373.194 566.444 373.194C565.796 373.194 565.241 373.749 565.241 374.396C565.241 375.043 565.796 375.598 566.444 375.598C567.091 375.598 567.646 375.043 567.646 374.396Z" fill="white" fill-opacity="0.08"/>
<path d="M567.646 382.535C567.646 381.888 567.091 381.333 566.444 381.333C565.796 381.333 565.241 381.888 565.241 382.535C565.241 383.183 565.796 383.738 566.444 383.738C567.091 383.738 567.646 383.183 567.646 382.535Z" fill="white" fill-opacity="0.08"/>
<path d="M567.646 390.675C567.646 390.027 567.091 389.472 566.444 389.472C565.796 389.472 565.241 390.027 565.241 390.675C565.241 391.322 565.796 391.877 566.444 391.877C567.091 391.877 567.646 391.415 567.646 390.675Z" fill="white" fill-opacity="0.08"/>
<path d="M567.646 398.814C567.646 398.167 567.091 397.612 566.444 397.612C565.796 397.612 565.241 398.167 565.241 398.814C565.241 399.462 565.796 400.017 566.444 400.017C567.091 400.109 567.646 399.554 567.646 398.814Z" fill="white" fill-opacity="0.08"/>
<path d="M567.646 406.951C567.646 406.303 567.091 405.749 566.444 405.749C565.796 405.749 565.241 406.303 565.241 406.951C565.241 407.598 565.796 408.153 566.444 408.153C567.091 408.246 567.646 407.691 567.646 406.951Z" fill="white" fill-opacity="0.08"/>
<path d="M561.081 314.461C561.173 314.554 561.358 314.554 561.451 314.554C561.913 314.554 562.283 314.276 562.468 313.999C562.006 314.091 561.543 314.276 561.081 314.461Z" fill="white" fill-opacity="0.08"/>
<path d="M562.653 321.399C562.653 320.751 562.098 320.197 561.451 320.197C560.803 320.197 560.249 320.751 560.249 321.399C560.249 322.046 560.803 322.601 561.451 322.601C562.098 322.694 562.653 322.139 562.653 321.399Z" fill="white" fill-opacity="0.08"/>
<path d="M562.653 329.538C562.653 328.891 562.098 328.336 561.451 328.336C560.803 328.336 560.249 328.891 560.249 329.538C560.249 330.186 560.803 330.741 561.451 330.741C562.098 330.833 562.653 330.278 562.653 329.538Z" fill="white" fill-opacity="0.08"/>
<path d="M562.653 337.77C562.653 337.123 562.098 336.568 561.451 336.568C560.803 336.568 560.249 337.123 560.249 337.77C560.249 338.418 560.803 338.972 561.451 338.972C562.098 338.972 562.653 338.418 562.653 337.77Z" fill="white" fill-opacity="0.08"/>
<path d="M562.653 345.907C562.653 345.259 562.098 344.704 561.451 344.704C560.803 344.704 560.249 345.259 560.249 345.907C560.249 346.554 560.803 347.109 561.451 347.109C562.098 347.109 562.653 346.554 562.653 345.907Z" fill="white" fill-opacity="0.08"/>
<path d="M562.653 354.049C562.653 353.401 562.098 352.847 561.451 352.847C560.803 352.847 560.249 353.401 560.249 354.049C560.249 354.696 560.803 355.251 561.451 355.251C562.098 355.251 562.653 354.696 562.653 354.049Z" fill="white" fill-opacity="0.08"/>
<path d="M562.653 362.186C562.653 361.538 562.098 360.983 561.451 360.983C560.803 360.983 560.249 361.538 560.249 362.186C560.249 362.833 560.803 363.388 561.451 363.388C562.098 363.388 562.653 362.833 562.653 362.186Z" fill="white" fill-opacity="0.08"/>
<path d="M562.653 370.325C562.653 369.678 562.098 369.123 561.451 369.123C560.803 369.123 560.249 369.678 560.249 370.325C560.249 370.972 560.803 371.527 561.451 371.527C562.098 371.527 562.653 370.972 562.653 370.325Z" fill="white" fill-opacity="0.08"/>
<path d="M560.249 378.464C560.249 379.128 560.787 379.667 561.451 379.667C562.115 379.667 562.653 379.128 562.653 378.464C562.653 377.8 562.115 377.262 561.451 377.262C560.787 377.262 560.249 377.8 560.249 378.464Z" fill="white" fill-opacity="0.08"/>
<path d="M562.653 386.604C562.653 385.956 562.098 385.401 561.451 385.401C560.803 385.401 560.249 385.956 560.249 386.604C560.249 387.251 560.803 387.806 561.451 387.806C562.098 387.806 562.653 387.251 562.653 386.604Z" fill="white" fill-opacity="0.08"/>
<path d="M562.653 394.743C562.653 394.096 562.098 393.541 561.451 393.541C560.803 393.541 560.249 394.096 560.249 394.743C560.249 395.391 560.803 395.945 561.451 395.945C562.098 396.038 562.653 395.483 562.653 394.743Z" fill="white" fill-opacity="0.08"/>
<path d="M562.653 402.883C562.653 402.235 562.098 401.68 561.451 401.68C560.803 401.68 560.249 402.235 560.249 402.883C560.249 403.53 560.803 404.085 561.451 404.085C562.098 404.177 562.653 403.622 562.653 402.883Z" fill="white" fill-opacity="0.08"/>
<path d="M561.081 409.913C561.543 410.098 562.006 410.283 562.468 410.468C562.283 410.098 561.821 409.913 561.451 409.913C561.358 409.82 561.173 409.82 561.081 409.913Z" fill="white" fill-opacity="0.08"/>
<path d="M556.92 317.328C556.92 316.958 556.828 316.68 556.55 316.495C555.81 316.865 555.163 317.235 554.423 317.605C554.516 318.16 554.978 318.53 555.626 318.53C556.365 318.623 556.92 318.068 556.92 317.328Z" fill="white" fill-opacity="0.08"/>
<path d="M556.92 325.467C556.92 324.82 556.365 324.265 555.718 324.265C555.071 324.265 554.516 324.82 554.516 325.467C554.516 326.115 555.071 326.67 555.718 326.67C556.365 326.762 556.92 326.207 556.92 325.467Z" fill="white" fill-opacity="0.08"/>
<path d="M556.92 333.699C556.92 333.052 556.365 332.497 555.718 332.497C555.071 332.497 554.516 333.052 554.516 333.699C554.516 334.347 555.071 334.901 555.718 334.901C556.365 334.901 556.92 334.347 556.92 333.699Z" fill="white" fill-opacity="0.08"/>
<path d="M556.92 341.838C556.92 341.191 556.365 340.636 555.718 340.636C555.071 340.636 554.516 341.191 554.516 341.838C554.516 342.486 555.071 343.041 555.718 343.041C556.365 343.041 556.92 342.486 556.92 341.838Z" fill="white" fill-opacity="0.08"/>
<path d="M556.92 349.978C556.92 349.33 556.365 348.776 555.718 348.776C555.071 348.776 554.516 349.33 554.516 349.978C554.516 350.625 555.071 351.18 555.718 351.18C556.365 351.18 556.92 350.625 556.92 349.978Z" fill="white" fill-opacity="0.08"/>
<path d="M556.92 358.117C556.92 357.47 556.365 356.915 555.718 356.915C555.071 356.915 554.516 357.47 554.516 358.117C554.516 358.765 555.071 359.32 555.718 359.32C556.365 359.32 556.92 358.765 556.92 358.117Z" fill="white" fill-opacity="0.08"/>
<path d="M556.92 366.257C556.92 365.609 556.365 365.054 555.718 365.054C555.071 365.054 554.516 365.609 554.516 366.257C554.516 366.904 555.071 367.459 555.718 367.459C556.365 367.459 556.92 366.904 556.92 366.257Z" fill="white" fill-opacity="0.08"/>
<path d="M556.92 374.396C556.92 373.749 556.365 373.194 555.718 373.194C555.071 373.194 554.516 373.749 554.516 374.396C554.516 375.043 555.071 375.598 555.718 375.598C556.365 375.598 556.92 375.043 556.92 374.396Z" fill="white" fill-opacity="0.08"/>
<path d="M556.92 382.535C556.92 381.888 556.365 381.333 555.718 381.333C555.071 381.333 554.516 381.888 554.516 382.535C554.516 383.183 555.071 383.738 555.718 383.738C556.365 383.738 556.92 383.183 556.92 382.535Z" fill="white" fill-opacity="0.08"/>
<path d="M556.92 390.675C556.92 390.027 556.365 389.472 555.718 389.472C555.071 389.472 554.516 390.027 554.516 390.675C554.516 391.322 555.071 391.877 555.718 391.877C556.365 391.877 556.92 391.415 556.92 390.675Z" fill="white" fill-opacity="0.08"/>
<path d="M556.92 398.814C556.92 398.167 556.365 397.612 555.718 397.612C555.071 397.612 554.516 398.167 554.516 398.814C554.516 399.462 555.071 400.017 555.718 400.017C556.365 400.109 556.92 399.554 556.92 398.814Z" fill="white" fill-opacity="0.08"/>
<path d="M555.718 405.749C555.163 405.749 554.608 406.118 554.516 406.673C555.163 407.043 555.903 407.413 556.643 407.783C556.828 407.598 557.013 407.228 557.013 406.951C556.92 406.303 556.365 405.749 555.718 405.749Z" fill="white" fill-opacity="0.08"/>
<path d="M551.927 321.399C551.927 320.751 551.372 320.197 550.725 320.197C550.633 320.197 550.54 320.197 550.448 320.197C550.17 320.382 549.893 320.567 549.615 320.844C549.523 321.029 549.43 321.214 549.43 321.399C549.43 322.046 549.985 322.601 550.633 322.601C551.372 322.694 551.927 322.139 551.927 321.399Z" fill="white" fill-opacity="0.08"/>
<path d="M551.927 329.538C551.927 328.891 551.372 328.336 550.725 328.336C550.078 328.336 549.523 328.891 549.523 329.538C549.523 330.186 550.078 330.741 550.725 330.741C551.372 330.833 551.927 330.278 551.927 329.538Z" fill="white" fill-opacity="0.08"/>
<path d="M551.927 337.77C551.927 337.123 551.372 336.568 550.725 336.568C550.078 336.568 549.523 337.123 549.523 337.77C549.523 338.418 550.078 338.972 550.725 338.972C551.372 338.972 551.927 338.418 551.927 337.77Z" fill="white" fill-opacity="0.08"/>
<path d="M551.927 345.907C551.927 345.259 551.372 344.704 550.725 344.704C550.078 344.704 549.523 345.259 549.523 345.907C549.523 346.554 550.078 347.109 550.725 347.109C551.372 347.109 551.927 346.554 551.927 345.907Z" fill="white" fill-opacity="0.08"/>
<path d="M551.927 354.049C551.927 353.401 551.372 352.847 550.725 352.847C550.078 352.847 549.523 353.401 549.523 354.049C549.523 354.696 550.078 355.251 550.725 355.251C551.372 355.251 551.927 354.696 551.927 354.049Z" fill="white" fill-opacity="0.08"/>
<path d="M551.927 362.186C551.927 361.538 551.372 360.983 550.725 360.983C550.078 360.983 549.523 361.538 549.523 362.186C549.523 362.833 550.078 363.388 550.725 363.388C551.372 363.388 551.927 362.833 551.927 362.186Z" fill="white" fill-opacity="0.08"/>
<path d="M551.927 370.325C551.927 369.678 551.372 369.123 550.725 369.123C550.078 369.123 549.523 369.678 549.523 370.325C549.523 370.972 550.078 371.527 550.725 371.527C551.372 371.527 551.927 370.972 551.927 370.325Z" fill="white" fill-opacity="0.08"/>
<path d="M551.927 378.464C551.927 377.817 551.372 377.262 550.725 377.262C550.078 377.262 549.523 377.817 549.523 378.464C549.523 379.112 550.078 379.667 550.725 379.667C551.372 379.667 551.927 379.112 551.927 378.464Z" fill="white" fill-opacity="0.08"/>
<path d="M551.927 386.604C551.927 385.956 551.372 385.401 550.725 385.401C550.078 385.401 549.523 385.956 549.523 386.604C549.523 387.251 550.078 387.806 550.725 387.806C551.372 387.806 551.927 387.251 551.927 386.604Z" fill="white" fill-opacity="0.08"/>
<path d="M551.927 394.743C551.927 394.096 551.372 393.541 550.725 393.541C550.078 393.541 549.523 394.096 549.523 394.743C549.523 395.391 550.078 395.945 550.725 395.945C551.372 396.038 551.927 395.483 551.927 394.743Z" fill="white" fill-opacity="0.08"/>
<path d="M551.927 402.883C551.927 402.235 551.372 401.68 550.725 401.68C550.078 401.68 549.523 402.235 549.523 402.883C549.523 403.067 549.615 403.345 549.708 403.437C549.985 403.622 550.263 403.807 550.54 403.992C550.633 403.992 550.725 403.992 550.818 403.992C551.372 404.177 551.927 403.622 551.927 402.883Z" fill="white" fill-opacity="0.08"/>
<path d="M546.192 325.467C546.192 324.912 545.822 324.45 545.36 324.265C544.805 324.727 544.25 325.282 543.788 325.745C543.972 326.207 544.435 326.577 544.99 326.577C545.637 326.762 546.192 326.207 546.192 325.467Z" fill="white" fill-opacity="0.08"/>
<path d="M546.192 333.699C546.192 333.052 545.637 332.497 544.99 332.497C544.342 332.497 543.788 333.052 543.788 333.699C543.788 334.347 544.342 334.901 544.99 334.901C545.637 334.901 546.192 334.347 546.192 333.699Z" fill="white" fill-opacity="0.08"/>
<path d="M546.192 341.838C546.192 341.191 545.637 340.636 544.99 340.636C544.342 340.636 543.788 341.191 543.788 341.838C543.788 342.486 544.342 343.041 544.99 343.041C545.637 343.041 546.192 342.486 546.192 341.838Z" fill="white" fill-opacity="0.08"/>
<path d="M546.192 349.978C546.192 349.33 545.637 348.776 544.99 348.776C544.342 348.776 543.788 349.33 543.788 349.978C543.788 350.625 544.342 351.18 544.99 351.18C545.637 351.18 546.192 350.625 546.192 349.978Z" fill="white" fill-opacity="0.08"/>
<path d="M546.192 358.117C546.192 357.47 545.637 356.915 544.99 356.915C544.342 356.915 543.788 357.47 543.788 358.117C543.788 358.765 544.342 359.32 544.99 359.32C545.637 359.32 546.192 358.765 546.192 358.117Z" fill="white" fill-opacity="0.08"/>
<path d="M546.192 366.257C546.192 365.609 545.637 365.054 544.99 365.054C544.342 365.054 543.788 365.609 543.788 366.257C543.788 366.904 544.342 367.459 544.99 367.459C545.637 367.459 546.192 366.904 546.192 366.257Z" fill="white" fill-opacity="0.08"/>
<path d="M546.192 374.396C546.192 373.749 545.637 373.194 544.99 373.194C544.342 373.194 543.788 373.749 543.788 374.396C543.788 375.043 544.342 375.598 544.99 375.598C545.637 375.598 546.192 375.043 546.192 374.396Z" fill="white" fill-opacity="0.08"/>
<path d="M546.192 382.535C546.192 381.888 545.637 381.333 544.99 381.333C544.342 381.333 543.788 381.888 543.788 382.535C543.788 383.183 544.342 383.738 544.99 383.738C545.637 383.738 546.192 383.183 546.192 382.535Z" fill="white" fill-opacity="0.08"/>
<path d="M546.192 390.675C546.192 390.027 545.637 389.472 544.99 389.472C544.342 389.472 543.788 390.027 543.788 390.675C543.788 391.322 544.342 391.877 544.99 391.877C545.637 391.877 546.192 391.415 546.192 390.675Z" fill="white" fill-opacity="0.08"/>
<path d="M546.192 398.814C546.192 398.167 545.637 397.612 544.99 397.612C544.435 397.612 543.972 397.982 543.788 398.444C544.342 398.999 544.805 399.462 545.36 399.924C545.822 399.832 546.192 399.369 546.192 398.814Z" fill="white" fill-opacity="0.08"/>
<path d="M541.199 329.631C541.199 329.353 541.106 329.168 541.014 328.983C540.551 329.538 539.997 330.186 539.534 330.833C539.627 330.925 539.812 330.925 539.997 330.925C540.644 330.833 541.199 330.278 541.199 329.631Z" fill="white" fill-opacity="0.08"/>
<path d="M541.199 337.77C541.199 337.123 540.644 336.568 539.997 336.568C539.349 336.568 538.794 337.123 538.794 337.77C538.794 338.418 539.349 338.972 539.997 338.972C540.644 338.972 541.199 338.418 541.199 337.77Z" fill="white" fill-opacity="0.08"/>
<path d="M541.199 345.907C541.199 345.259 540.644 344.704 539.997 344.704C539.349 344.704 538.794 345.259 538.794 345.907C538.794 346.554 539.349 347.109 539.997 347.109C540.644 347.109 541.199 346.554 541.199 345.907Z" fill="white" fill-opacity="0.08"/>
<path d="M541.199 354.049C541.199 353.401 540.644 352.847 539.997 352.847C539.349 352.847 538.794 353.401 538.794 354.049C538.794 354.696 539.349 355.251 539.997 355.251C540.644 355.251 541.199 354.696 541.199 354.049Z" fill="white" fill-opacity="0.08"/>
<path d="M541.199 362.186C541.199 361.538 540.644 360.983 539.997 360.983C539.349 360.983 538.794 361.538 538.794 362.186C538.794 362.833 539.349 363.388 539.997 363.388C540.644 363.388 541.199 362.833 541.199 362.186Z" fill="white" fill-opacity="0.08"/>
<path d="M541.199 370.325C541.199 369.678 540.644 369.123 539.997 369.123C539.349 369.123 538.794 369.678 538.794 370.325C538.794 370.972 539.349 371.527 539.997 371.527C540.644 371.527 541.199 370.972 541.199 370.325Z" fill="white" fill-opacity="0.08"/>
<path d="M541.199 378.464C541.199 377.817 540.644 377.262 539.997 377.262C539.349 377.262 538.794 377.817 538.794 378.464C538.794 379.112 539.349 379.667 539.997 379.667C540.644 379.667 541.199 379.112 541.199 378.464Z" fill="white" fill-opacity="0.08"/>
<path d="M541.199 386.604C541.199 385.956 540.644 385.401 539.997 385.401C539.349 385.401 538.794 385.956 538.794 386.604C538.794 387.251 539.349 387.806 539.997 387.806C540.644 387.806 541.199 387.251 541.199 386.604Z" fill="white" fill-opacity="0.08"/>
<path d="M539.905 393.541C539.72 393.541 539.627 393.541 539.442 393.633C539.905 394.281 540.46 394.836 540.922 395.483C541.014 395.298 541.107 395.021 541.107 394.836C541.199 394.096 540.644 393.541 539.905 393.541Z" fill="white" fill-opacity="0.08"/>
<path d="M535.466 341.838C535.466 341.191 534.911 340.636 534.264 340.636C533.894 340.636 533.617 340.821 533.432 341.006C533.339 341.284 533.154 341.561 533.062 341.838L533.062 341.931C533.062 342.578 533.617 343.133 534.264 343.133C534.911 343.041 535.466 342.486 535.466 341.838Z" fill="white" fill-opacity="0.08"/>
<path d="M535.466 349.978C535.466 349.33 534.911 348.776 534.264 348.776C533.617 348.776 533.062 349.33 533.062 349.978C533.062 350.625 533.617 351.18 534.264 351.18C534.911 351.18 535.466 350.625 535.466 349.978Z" fill="white" fill-opacity="0.08"/>
<path d="M535.466 358.117C535.466 357.47 534.911 356.915 534.264 356.915C533.617 356.915 533.062 357.47 533.062 358.117C533.062 358.765 533.617 359.32 534.264 359.32C534.911 359.32 535.466 358.765 535.466 358.117Z" fill="white" fill-opacity="0.08"/>
<path d="M535.466 366.257C535.466 365.609 534.911 365.054 534.264 365.054C533.617 365.054 533.062 365.609 533.062 366.257C533.062 366.904 533.617 367.459 534.264 367.459C534.911 367.459 535.466 366.904 535.466 366.257Z" fill="white" fill-opacity="0.08"/>
<path d="M535.466 374.396C535.466 373.749 534.911 373.194 534.264 373.194C533.617 373.194 533.062 373.749 533.062 374.396C533.062 375.043 533.617 375.598 534.264 375.598C534.911 375.598 535.466 375.043 535.466 374.396Z" fill="white" fill-opacity="0.08"/>
<path d="M535.466 382.535C535.466 381.888 534.911 381.333 534.264 381.333C533.617 381.333 533.062 381.888 533.062 382.535L533.062 382.628C533.154 382.905 533.247 383.09 533.432 383.368C533.617 383.553 533.986 383.738 534.264 383.738C534.911 383.738 535.466 383.183 535.466 382.535Z" fill="white" fill-opacity="0.08"/>
<path d="M530.473 354.049C530.473 353.494 530.103 353.032 529.641 352.847C529.456 353.586 529.363 354.419 529.271 355.251C529.918 355.251 530.473 354.696 530.473 354.049Z" fill="white" fill-opacity="0.08"/>
<path d="M530.473 362.186C530.473 361.538 529.918 360.983 529.271 360.983C529.086 360.983 528.994 360.983 528.809 361.076C528.809 361.446 528.809 361.816 528.809 362.278C528.809 362.648 528.809 363.018 528.809 363.388C528.901 363.481 529.086 363.481 529.271 363.481C529.826 363.388 530.473 362.833 530.473 362.186Z" fill="white" fill-opacity="0.08"/>
<path d="M530.473 370.325C530.473 369.678 529.918 369.123 529.271 369.123C529.363 369.955 529.456 370.695 529.641 371.527C530.103 371.342 530.473 370.88 530.473 370.325Z" fill="white" fill-opacity="0.08"/>
<path d="M675.659 351.366C675.659 297.537 719.491 253.697 773.311 253.697L773.311 255.269C720.323 255.269 677.231 298.37 677.231 351.366L675.659 351.366Z" fill="white" fill-opacity="0.08"/>
<path d="M470.551 453.29L472.123 453.29C472.123 506.287 515.216 549.387 568.203 549.387C621.191 549.387 664.283 506.287 664.283 453.29C664.283 400.293 621.191 357.192 568.203 357.192L568.203 355.62C622.023 355.62 665.855 399.46 665.855 453.29C665.855 507.119 622.023 550.959 568.203 550.959C514.383 550.959 470.551 507.119 470.551 453.29Z" fill="white" fill-opacity="0.08"/>
<path d="M162.151 221.786L162.151 220.214C215.138 220.214 258.231 177.113 258.231 124.116C258.231 71.1195 215.138 28.0191 162.151 28.0191C109.164 28.0191 66.0707 71.1195 66.0707 124.116L64.4987 124.116C64.4987 70.2871 108.331 26.4468 162.151 26.4468C215.971 26.4468 259.803 70.2871 259.803 124.116C259.803 177.946 215.971 221.786 162.151 221.786Z" fill="white" fill-opacity="0.08"/>
<path d="M383.995 138.822C383.995 116.717 401.935 98.7737 424.036 98.7737C446.138 98.7737 464.077 116.717 464.077 138.822C464.077 160.927 446.137 178.87 424.036 178.87C402.028 178.963 383.995 160.927 383.995 138.822ZM463.153 138.822C463.153 117.272 445.583 99.6986 424.036 99.6986C402.49 99.6986 384.92 117.272 384.92 138.822C384.92 160.372 402.49 177.945 424.036 177.945C445.675 177.945 463.153 160.465 463.153 138.822Z" fill="#3D567C"/>
<path d="M420.65 159.844C432.245 161.726 443.17 153.851 445.052 142.254C446.934 130.657 439.06 119.73 427.465 117.848C415.87 115.965 404.945 123.841 403.063 135.438C401.181 147.035 409.055 157.962 420.65 159.844Z" fill="#3D567C"/>
<path d="M473.462 90.2231L472.742 89.5037L374.725 187.538L375.445 188.257L473.462 90.2231Z" fill="white" fill-opacity="0.08"/>
<path d="M864.888 394.536L766.871 296.502L766.152 297.221L864.168 395.256L864.888 394.536Z" fill="white" fill-opacity="0.08"/>
<path d="M748.34 404.454C748.34 408.523 744.919 410.558 741.96 412.315C739.093 414.073 736.596 415.553 736.596 418.42C736.596 421.287 739.093 422.767 741.96 424.524C744.919 426.281 748.34 428.316 748.34 432.386C748.34 436.455 744.919 438.49 741.96 440.247C739.093 442.005 736.596 443.485 736.596 446.352C736.596 449.219 739.093 450.699 741.96 452.456C744.919 454.213 748.34 456.248 748.34 460.318C748.34 464.387 744.919 466.422 741.96 468.179C739.093 469.844 736.596 471.324 736.596 474.284C736.596 477.151 739.093 478.631 741.96 480.388C744.919 482.145 748.34 484.18 748.34 488.25C748.34 492.319 744.919 494.354 741.96 496.111C739.093 497.776 736.596 499.256 736.596 502.216L734.562 502.216C734.562 498.146 737.983 496.111 740.942 494.354C743.809 492.689 746.306 491.209 746.306 488.25C746.306 485.383 743.809 483.903 740.942 482.145C737.983 480.388 734.562 478.353 734.562 474.284C734.562 470.214 737.983 468.179 740.942 466.422C743.809 464.757 746.306 463.277 746.306 460.318C746.306 457.451 743.809 455.971 740.942 454.213C737.983 452.456 734.562 450.421 734.562 446.352C734.562 442.282 737.983 440.247 740.942 438.49C743.809 436.733 746.306 435.253 746.306 432.386C746.306 429.519 743.809 428.039 740.942 426.281C737.983 424.524 734.562 422.489 734.562 418.42C734.562 414.35 737.983 412.315 740.942 410.558C743.809 408.801 746.306 407.321 746.306 404.454L748.34 404.454Z" fill="white" fill-opacity="0.08"/>
<path d="M30.746 207.727C30.746 211.796 27.3245 213.831 24.3653 215.588C21.4986 217.346 19.0018 218.826 19.0018 221.693C19.0018 224.56 21.4986 226.04 24.3653 227.797C27.3245 229.554 30.746 231.589 30.746 235.659C30.746 239.728 27.3245 241.763 24.3653 243.52C21.4986 245.278 19.0018 246.758 19.0018 249.625C19.0018 252.492 21.4986 253.972 24.3653 255.729C27.3245 257.487 30.746 259.521 30.746 263.591C30.746 267.66 27.3245 269.695 24.3653 271.453C21.4986 273.117 19.0018 274.597 19.0018 277.557C19.0018 280.424 21.4986 281.904 24.3653 283.661C27.3245 285.419 30.746 287.453 30.746 291.523C30.746 295.592 27.3245 297.627 24.3653 299.385C21.4986 301.049 19.0018 302.529 19.0018 305.489L16.9674 305.489C16.9674 301.419 20.3889 299.385 23.3481 297.627C26.2148 295.962 28.7115 294.483 28.7115 291.523C28.7115 288.656 26.2148 287.176 23.3481 285.418C20.3889 283.661 16.9674 281.626 16.9674 277.557C16.9674 273.487 20.3889 271.452 23.3481 269.695C26.2148 268.03 28.7115 266.551 28.7115 263.591C28.7115 260.724 26.2148 259.244 23.3481 257.486C20.3889 255.729 16.9674 253.694 16.9674 249.625C16.9674 245.555 20.3889 243.52 23.3481 241.763C26.2148 240.006 28.7115 238.526 28.7115 235.659C28.7115 232.792 26.2148 231.312 23.3481 229.554C20.3889 227.797 16.9674 225.762 16.9674 221.693C16.9674 217.623 20.3889 215.588 23.3481 213.831C26.2148 212.074 28.7115 210.594 28.7115 207.727L30.746 207.727Z" fill="#3D567C"/>
<path d="M347.096 -17.5762C347.096 -13.5066 343.675 -11.4718 340.715 -9.71451C337.849 -7.9572 335.352 -6.47736 335.352 -3.61017C335.352 -0.742972 337.849 0.736869 340.715 2.49418C343.675 4.2515 347.096 6.28628 347.096 10.3558C347.096 14.4254 343.675 16.4602 340.715 18.2175C337.849 19.9748 335.352 21.4547 335.352 24.3218C335.352 27.189 337.849 28.6689 340.715 30.4262C343.675 32.1835 347.096 34.2183 347.096 38.2879C347.096 42.3574 343.675 44.3922 340.715 46.1495C337.849 47.8143 335.352 49.2942 335.352 52.2539C335.352 55.1211 337.849 56.6009 340.715 58.3582C343.675 60.1155 347.096 62.1503 347.096 66.2199C347.096 70.2894 343.675 72.3242 340.715 74.0815C337.849 75.7464 335.352 77.2262 335.352 80.1859L333.318 80.1859C333.318 76.1163 336.739 74.0815 339.698 72.3242C342.565 70.6594 345.062 69.1796 345.062 66.2199C345.062 63.3527 342.565 61.8728 339.698 60.1155C336.739 58.3582 333.318 56.3234 333.318 52.2539C333.318 48.1843 336.739 46.1495 339.698 44.3922C342.565 42.7274 345.062 41.2475 345.062 38.2879C345.062 35.4207 342.565 33.9408 339.698 32.1835C336.739 30.4262 333.318 28.3914 333.318 24.3218C333.318 20.2523 336.739 18.2175 339.698 16.4602C342.565 14.7029 345.062 13.223 345.062 10.3558C345.062 7.48865 342.565 6.00881 339.698 4.2515C336.739 2.49418 333.318 0.4594 333.318 -3.61017C333.318 -7.67973 336.739 -9.71451 339.698 -11.4718C342.565 -13.2291 345.062 -14.709 345.062 -17.5762L347.096 -17.5762Z" fill="white" fill-opacity="0.08"/>
<path d="M738.262 404.454C738.262 408.523 734.84 410.558 731.881 412.315C729.015 414.073 726.518 415.553 726.518 418.42C726.518 421.287 729.015 422.767 731.881 424.524C734.84 426.281 738.262 428.316 738.262 432.386C738.262 436.455 734.84 438.49 731.881 440.247C729.015 442.005 726.518 443.485 726.518 446.352C726.518 449.219 729.015 450.699 731.881 452.456C734.84 454.213 738.262 456.248 738.262 460.318C738.262 464.387 734.84 466.422 731.881 468.179C729.015 469.844 726.518 471.324 726.518 474.284C726.518 477.151 729.015 478.631 731.881 480.388C734.84 482.145 738.262 484.18 738.262 488.25C738.262 492.319 734.84 494.354 731.881 496.111C729.015 497.776 726.518 499.256 726.518 502.216L724.483 502.216C724.483 498.146 727.905 496.111 730.864 494.354C733.731 492.689 736.228 491.209 736.228 488.25C736.228 485.383 733.731 483.903 730.864 482.145C727.905 480.388 724.483 478.353 724.483 474.284C724.483 470.214 727.905 468.179 730.864 466.422C733.731 464.757 736.228 463.277 736.228 460.318C736.228 457.451 733.731 455.971 730.864 454.213C727.905 452.456 724.483 450.421 724.483 446.352C724.483 442.282 727.905 440.247 730.864 438.49C733.731 436.733 736.228 435.253 736.228 432.386C736.228 429.519 733.731 428.039 730.864 426.281C727.905 424.524 724.483 422.489 724.483 418.42C724.483 414.35 727.905 412.315 730.864 410.558C733.731 408.801 736.228 407.321 736.228 404.454L738.262 404.454Z" fill="#3D567C"/>
<path d="M728.181 404.454C728.181 408.523 724.759 410.558 721.8 412.315C718.934 414.073 716.437 415.553 716.437 418.42C716.437 421.287 718.934 422.767 721.8 424.524C724.759 426.281 728.181 428.316 728.181 432.386C728.181 436.455 724.759 438.49 721.8 440.247C718.934 442.005 716.437 443.485 716.437 446.352C716.437 449.219 718.934 450.699 721.8 452.456C724.759 454.213 728.181 456.248 728.181 460.318C728.181 464.387 724.759 466.422 721.8 468.179C718.934 469.844 716.437 471.324 716.437 474.284C716.437 477.151 718.934 478.631 721.8 480.388C724.759 482.145 728.181 484.18 728.181 488.25C728.181 492.319 724.759 494.354 721.8 496.111C718.934 497.776 716.437 499.256 716.437 502.216L714.402 502.216C714.402 498.146 717.824 496.111 720.783 494.354C723.65 492.689 726.146 491.209 726.146 488.25C726.146 485.383 723.65 483.903 720.783 482.145C717.824 480.388 714.402 478.353 714.402 474.284C714.402 470.214 717.824 468.179 720.783 466.422C723.65 464.757 726.146 463.277 726.146 460.318C726.146 457.451 723.65 455.971 720.783 454.213C717.824 452.456 714.402 450.421 714.402 446.352C714.402 442.282 717.824 440.247 720.783 438.49C723.65 436.733 726.146 435.253 726.146 432.386C726.146 429.519 723.65 428.039 720.783 426.281C717.824 424.524 714.402 422.489 714.402 418.42C714.402 414.35 717.824 412.315 720.783 410.558C723.65 408.801 726.146 407.321 726.146 404.454L728.181 404.454Z" fill="white" fill-opacity="0.08"/>
<path d="M516.972 161.945C516.972 166.014 513.55 168.049 510.591 169.806C507.724 171.564 505.227 173.043 505.227 175.911C505.227 178.778 507.724 180.258 510.591 182.015C513.55 183.772 516.972 185.807 516.972 189.877C516.972 193.946 513.55 195.981 510.591 197.738C507.724 199.496 505.227 200.975 505.227 203.843C505.227 206.71 507.724 208.19 510.591 209.947C513.55 211.704 516.972 213.739 516.972 217.809C516.972 221.878 513.55 223.913 510.591 225.67C507.724 227.335 505.227 228.815 505.227 231.775C505.227 234.642 507.724 236.122 510.591 237.879C513.55 239.636 516.972 241.671 516.972 245.741C516.972 249.81 513.55 251.845 510.591 253.602C507.724 255.267 505.227 256.747 505.227 259.707L503.193 259.707C503.193 255.637 506.615 253.602 509.574 251.845C512.44 250.18 514.937 248.7 514.937 245.741C514.937 242.873 512.44 241.394 509.574 239.636C506.615 237.879 503.193 235.844 503.193 231.775C503.193 227.705 506.615 225.67 509.574 223.913C512.44 222.248 514.937 220.768 514.937 217.809C514.937 214.941 512.44 213.462 509.574 211.704C506.615 209.947 503.193 207.912 503.193 203.843C503.193 199.773 506.615 197.738 509.574 195.981C512.44 194.224 514.937 192.744 514.937 189.877C514.937 187.009 512.44 185.53 509.574 183.772C506.615 182.015 503.193 179.98 503.193 175.911C503.193 171.841 506.615 169.806 509.574 168.049C512.44 166.292 514.937 164.812 514.937 161.945L516.972 161.945Z" fill="#3D567C"/>
<path d="M506.893 161.945C506.893 166.014 503.472 168.049 500.513 169.806C497.646 171.564 495.149 173.043 495.149 175.911C495.149 178.778 497.646 180.258 500.513 182.015C503.472 183.772 506.893 185.807 506.893 189.877C506.893 193.946 503.472 195.981 500.513 197.738C497.646 199.496 495.149 200.975 495.149 203.843C495.149 206.71 497.646 208.19 500.513 209.947C503.472 211.704 506.893 213.739 506.893 217.809C506.893 221.878 503.472 223.913 500.513 225.67C497.646 227.335 495.149 228.815 495.149 231.775C495.149 234.642 497.646 236.122 500.513 237.879C503.472 239.636 506.893 241.671 506.893 245.741C506.893 249.81 503.472 251.845 500.513 253.602C497.646 255.267 495.149 256.747 495.149 259.707L493.115 259.707C493.115 255.637 496.536 253.602 499.495 251.845C502.362 250.18 504.859 248.7 504.859 245.741C504.859 242.873 502.362 241.394 499.495 239.636C496.536 237.879 493.115 235.844 493.115 231.775C493.115 227.705 496.536 225.67 499.495 223.913C502.362 222.248 504.859 220.768 504.859 217.809C504.859 214.941 502.362 213.462 499.495 211.704C496.536 209.947 493.115 207.912 493.115 203.843C493.115 199.773 496.536 197.738 499.495 195.981C502.362 194.224 504.859 192.744 504.859 189.877C504.859 187.009 502.362 185.53 499.495 183.772C496.536 182.015 493.115 179.98 493.115 175.911C493.115 171.841 496.536 169.806 499.495 168.049C502.362 166.292 504.859 164.812 504.859 161.945L506.893 161.945Z" fill="white" fill-opacity="0.08"/>
<path d="M278.76 88.5068L281.904 85.3622L276.448 79.8128L281.904 74.3558L278.76 71.2112L273.304 76.6681L267.755 71.2112L264.611 74.3558L270.16 79.8128L264.611 85.3622L267.755 88.5068L273.304 82.9574L278.76 88.5068Z" fill="#3D567C"/>
<path d="M258.693 85.3622L253.237 79.8128L258.693 74.3558L255.549 71.2112L250.093 76.6681L244.545 71.2112L241.401 74.3558L246.856 79.8128L241.401 85.3622L244.545 88.5068L250.093 82.9574L255.549 88.5068L258.693 85.3622Z" fill="#3D567C"/>
<path d="M235.482 85.3622L229.934 79.8128L235.482 74.3558L232.338 71.2112L226.79 76.6681L221.334 71.2112L218.19 74.3558L223.646 79.8128L218.19 85.3622L221.334 88.5068L226.79 82.9574L232.338 88.5068L235.482 85.3622Z" fill="#3D567C"/>
<path d="M67.7769 368.841C69.0982 368.972 70.2755 368.006 70.4063 366.685C70.5372 365.363 69.5721 364.186 68.2507 364.055C66.9293 363.924 65.7521 364.889 65.6212 366.211C65.4904 367.533 66.4555 368.71 67.7769 368.841Z" fill="white" fill-opacity="0.08"/>
<path d="M65.6067 344.335C65.6067 345.663 66.6831 346.74 68.011 346.74C69.3388 346.74 70.4153 345.664 70.4153 344.335C70.4153 343.007 69.3388 341.931 68.011 341.931C66.6831 341.931 65.6067 343.007 65.6067 344.335Z" fill="white" fill-opacity="0.08"/>
<path d="M65.6067 322.231C65.6067 323.56 66.6831 324.636 68.011 324.636C69.3388 324.636 70.4153 323.56 70.4153 322.231C70.4153 320.903 69.3388 319.827 68.011 319.827C66.6831 319.827 65.6067 320.903 65.6067 322.231Z" fill="white" fill-opacity="0.08"/>
<path d="M65.5144 300.125C65.5144 301.512 66.6241 302.53 67.9187 302.53C69.3058 302.53 70.323 301.42 70.323 300.125C70.323 298.738 69.2133 297.72 67.9187 297.72C66.6241 297.628 65.5144 298.738 65.5144 300.125Z" fill="white" fill-opacity="0.08"/>
<path d="M65.6067 277.928C65.6067 279.257 66.6831 280.333 68.011 280.333C69.3388 280.333 70.4153 279.257 70.4153 277.928C70.4153 276.6 69.3388 275.524 68.011 275.524C66.6831 275.524 65.6067 276.6 65.6067 277.928Z" fill="white" fill-opacity="0.08"/>
<path d="M65.6067 255.822C65.6067 257.15 66.6831 258.227 68.011 258.227C69.3388 258.227 70.4153 257.15 70.4153 255.822C70.4153 254.494 69.3388 253.417 68.011 253.417C66.6831 253.417 65.6067 254.494 65.6067 255.822Z" fill="white" fill-opacity="0.08"/>
<path d="M65.6067 233.718C65.6067 235.046 66.6831 236.123 68.011 236.123C69.3388 236.123 70.4153 235.046 70.4153 233.718C70.4153 232.39 69.3388 231.313 68.011 231.313C66.6831 231.313 65.6067 232.39 65.6067 233.718Z" fill="white" fill-opacity="0.08"/>
<path d="M87.5694 368.846C88.8907 368.977 90.068 368.012 90.1988 366.69C90.3297 365.368 89.3645 364.191 88.0432 364.06C86.7218 363.929 85.5446 364.895 85.4137 366.216C85.2829 367.538 86.248 368.715 87.5694 368.846Z" fill="white" fill-opacity="0.08"/>
<path d="M85.3965 344.335C85.3965 345.663 86.4729 346.74 87.8008 346.74C89.1287 346.74 90.2051 345.664 90.2051 344.335C90.2051 343.007 89.1287 341.931 87.8008 341.931C86.4729 341.931 85.3965 343.007 85.3965 344.335Z" fill="white" fill-opacity="0.08"/>
<path d="M85.3965 322.231C85.3965 323.56 86.4729 324.636 87.8008 324.636C89.1287 324.636 90.2051 323.56 90.2051 322.231C90.2051 320.903 89.1287 319.827 87.8008 319.827C86.4729 319.827 85.3965 320.903 85.3965 322.231Z" fill="white" fill-opacity="0.08"/>
<path d="M85.304 300.125C85.304 301.512 86.4137 302.53 87.7083 302.53C89.0954 302.53 90.1125 301.42 90.1125 300.125C90.1125 298.738 89.0029 297.72 87.7083 297.72C86.4137 297.628 85.304 298.738 85.304 300.125Z" fill="white" fill-opacity="0.08"/>
<path d="M85.3965 277.928C85.3965 279.257 86.4729 280.333 87.8008 280.333C89.1287 280.333 90.2051 279.257 90.2051 277.928C90.2051 276.6 89.1287 275.524 87.8008 275.524C86.4729 275.524 85.3965 276.6 85.3965 277.928Z" fill="white" fill-opacity="0.08"/>
<path d="M85.3965 255.822C85.3965 257.15 86.4729 258.227 87.8008 258.227C89.1287 258.227 90.2051 257.15 90.2051 255.822C90.2051 254.494 89.1287 253.417 87.8008 253.417C86.4729 253.417 85.3965 254.494 85.3965 255.822Z" fill="white" fill-opacity="0.08"/>
<path d="M85.3965 233.718C85.3965 235.046 86.4729 236.123 87.8008 236.123C89.1287 236.123 90.2051 235.046 90.2051 233.718C90.2051 232.39 89.1287 231.313 87.8008 231.313C86.4729 231.313 85.3965 232.39 85.3965 233.718Z" fill="white" fill-opacity="0.08"/>
<path d="M107.364 368.851C108.686 368.982 109.863 368.017 109.994 366.695C110.125 365.374 109.16 364.196 107.838 364.065C106.517 363.935 105.339 364.9 105.209 366.221C105.078 367.543 106.043 368.72 107.364 368.851Z" fill="white" fill-opacity="0.08"/>
<path d="M105.186 344.335C105.186 345.663 106.263 346.74 107.591 346.74C108.918 346.74 109.995 345.664 109.995 344.335C109.995 343.007 108.918 341.931 107.591 341.931C106.263 341.931 105.186 343.007 105.186 344.335Z" fill="white" fill-opacity="0.08"/>
<path d="M105.186 322.231C105.186 323.56 106.263 324.636 107.591 324.636C108.918 324.636 109.995 323.56 109.995 322.231C109.995 320.903 108.918 319.827 107.591 319.827C106.263 319.827 105.186 320.903 105.186 322.231Z" fill="white" fill-opacity="0.08"/>
<path d="M105.094 300.125C105.094 301.512 106.203 302.53 107.498 302.53C108.793 302.53 109.902 301.42 109.902 300.125C109.902 298.737 108.793 297.72 107.498 297.72C106.203 297.72 105.094 298.737 105.094 300.125Z" fill="white" fill-opacity="0.08"/>
<path d="M105.186 277.928C105.186 279.257 106.263 280.333 107.591 280.333C108.918 280.333 109.995 279.257 109.995 277.928C109.995 276.6 108.918 275.524 107.591 275.524C106.263 275.524 105.186 276.6 105.186 277.928Z" fill="white" fill-opacity="0.08"/>
<path d="M105.186 255.822C105.186 257.15 106.263 258.227 107.591 258.227C108.918 258.227 109.995 257.15 109.995 255.822C109.995 254.494 108.918 253.417 107.591 253.417C106.263 253.417 105.186 254.494 105.186 255.822Z" fill="white" fill-opacity="0.08"/>
<path d="M105.186 233.718C105.186 235.046 106.263 236.123 107.591 236.123C108.918 236.123 109.995 235.046 109.995 233.718C109.995 232.39 108.918 231.313 107.591 231.313C106.263 231.313 105.186 232.39 105.186 233.718Z" fill="white" fill-opacity="0.08"/>
<path d="M127.157 368.857C128.478 368.988 129.655 368.022 129.786 366.701C129.917 365.379 128.952 364.202 127.631 364.071C126.309 363.94 125.132 364.905 125.001 366.227C124.87 367.548 125.835 368.726 127.157 368.857Z" fill="white" fill-opacity="0.08"/>
<path d="M124.976 344.335C124.976 345.663 126.052 346.74 127.38 346.74C128.708 346.74 129.784 345.664 129.784 344.335C129.784 343.007 128.708 341.931 127.38 341.931C126.052 341.931 124.976 343.007 124.976 344.335Z" fill="white" fill-opacity="0.08"/>
<path d="M124.976 322.231C124.976 323.56 126.052 324.636 127.38 324.636C128.708 324.636 129.784 323.56 129.784 322.231C129.784 320.903 128.708 319.827 127.38 319.827C126.052 319.827 124.976 320.903 124.976 322.231Z" fill="white" fill-opacity="0.08"/>
<path d="M124.883 300.125C124.883 301.512 125.993 302.53 127.288 302.53C128.582 302.53 129.692 301.42 129.692 300.125C129.692 298.737 128.582 297.72 127.288 297.72C125.993 297.72 124.883 298.737 124.883 300.125Z" fill="white" fill-opacity="0.08"/>
<path d="M124.976 277.928C124.976 279.257 126.052 280.333 127.38 280.333C128.708 280.333 129.784 279.257 129.784 277.928C129.784 276.6 128.708 275.524 127.38 275.524C126.052 275.524 124.976 276.6 124.976 277.928Z" fill="white" fill-opacity="0.08"/>
<path d="M124.976 255.822C124.976 257.15 126.052 258.227 127.38 258.227C128.708 258.227 129.784 257.15 129.784 255.822C129.784 254.494 128.708 253.417 127.38 253.417C126.052 253.417 124.976 254.494 124.976 255.822Z" fill="white" fill-opacity="0.08"/>
<path d="M124.976 233.718C124.976 235.046 126.052 236.123 127.38 236.123C128.708 236.123 129.784 235.046 129.784 233.718C129.784 232.39 128.708 231.313 127.38 231.313C126.052 231.313 124.976 232.39 124.976 233.718Z" fill="white" fill-opacity="0.08"/>
<path d="M146.952 368.862C148.273 368.993 149.45 368.028 149.581 366.706C149.712 365.384 148.747 364.207 147.426 364.076C146.104 363.945 144.927 364.91 144.796 366.232C144.665 367.554 145.63 368.731 146.952 368.862Z" fill="white" fill-opacity="0.08"/>
<path d="M144.766 344.335C144.766 345.663 145.842 346.74 147.17 346.74C148.498 346.74 149.574 345.664 149.574 344.335C149.574 343.007 148.498 341.931 147.17 341.931C145.842 341.931 144.766 343.007 144.766 344.335Z" fill="white" fill-opacity="0.08"/>
<path d="M144.766 322.231C144.766 323.56 145.842 324.636 147.17 324.636C148.498 324.636 149.574 323.56 149.574 322.231C149.574 320.903 148.498 319.827 147.17 319.827C145.842 319.827 144.766 320.903 144.766 322.231Z" fill="white" fill-opacity="0.08"/>
<path d="M144.67 300.125C144.67 301.512 145.78 302.53 147.075 302.53C148.462 302.53 149.479 301.42 149.479 300.125C149.479 298.738 148.369 297.72 147.075 297.72C145.78 297.628 144.67 298.738 144.67 300.125Z" fill="white" fill-opacity="0.08"/>
<path d="M144.766 277.928C144.766 279.257 145.842 280.333 147.17 280.333C148.498 280.333 149.574 279.257 149.574 277.928C149.574 276.6 148.498 275.524 147.17 275.524C145.842 275.524 144.766 276.6 144.766 277.928Z" fill="white" fill-opacity="0.08"/>
<path d="M144.766 255.822C144.766 257.15 145.842 258.227 147.17 258.227C148.498 258.227 149.574 257.15 149.574 255.822C149.574 254.494 148.498 253.417 147.17 253.417C145.842 253.417 144.766 254.494 144.766 255.822Z" fill="white" fill-opacity="0.08"/>
<path d="M144.766 233.718C144.766 235.046 145.842 236.123 147.17 236.123C148.498 236.123 149.574 235.046 149.574 233.718C149.574 232.39 148.498 231.313 147.17 231.313C145.842 231.313 144.766 232.39 144.766 233.718Z" fill="white" fill-opacity="0.08"/>
<path d="M554.052 137.62C554.052 139.007 555.162 140.025 556.457 140.025C557.844 140.025 558.861 138.915 558.861 137.62C558.861 136.233 557.751 135.215 556.457 135.215C555.069 135.123 554.052 136.233 554.052 137.62Z" fill="white" fill-opacity="0.08"/>
<path d="M554.052 115.514C554.052 116.901 555.162 117.918 556.457 117.918C557.844 117.918 558.861 116.809 558.861 115.514C558.861 114.126 557.751 113.109 556.457 113.109C555.069 113.016 554.052 114.126 554.052 115.514Z" fill="white" fill-opacity="0.08"/>
<path d="M554.052 93.3171C554.052 94.7045 555.162 95.7218 556.457 95.7218C557.844 95.7218 558.861 94.612 558.861 93.3171C558.861 91.9297 557.751 90.9124 556.457 90.9124C555.069 90.9124 554.052 92.0222 554.052 93.3171Z" fill="white" fill-opacity="0.08"/>
<path d="M554.052 71.2107C554.052 72.598 555.162 73.6154 556.457 73.6154C557.844 73.6154 558.861 72.5055 558.861 71.2107C558.861 69.9158 557.751 68.8059 556.457 68.8059C555.069 68.7134 554.052 69.8233 554.052 71.2107Z" fill="white" fill-opacity="0.08"/>
<path d="M554.052 49.1067C554.052 50.494 555.162 51.5114 556.457 51.5114C557.844 51.5114 558.861 50.4015 558.861 49.1067C558.861 47.7193 557.751 46.7019 556.457 46.7019C555.069 46.6094 554.052 47.7193 554.052 49.1067Z" fill="white" fill-opacity="0.08"/>
<path d="M554.052 26.9077C554.052 28.295 555.162 29.3124 556.457 29.3124C557.844 29.3124 558.861 28.2025 558.861 26.9077C558.861 25.5203 557.751 24.5029 556.457 24.5029C555.069 24.5029 554.052 25.6128 554.052 26.9077Z" fill="white" fill-opacity="0.08"/>
<path d="M558.861 4.80367C558.861 3.41632 557.751 2.39893 556.457 2.39893C555.069 2.39893 554.052 3.50881 554.052 4.80367C554.052 6.19102 555.162 7.20841 556.457 7.20841C557.844 7.20841 558.861 6.09853 558.861 4.80367Z" fill="white" fill-opacity="0.08"/>
<path d="M573.842 137.62C573.842 139.007 574.952 140.025 576.246 140.025C577.633 140.025 578.651 138.915 578.651 137.62C578.651 136.233 577.541 135.215 576.246 135.215C574.859 135.123 573.842 136.233 573.842 137.62Z" fill="white" fill-opacity="0.08"/>
<path d="M573.842 115.514C573.842 116.901 574.952 117.918 576.246 117.918C577.633 117.918 578.651 116.809 578.651 115.514C578.651 114.126 577.541 113.109 576.246 113.109C574.859 113.016 573.842 114.126 573.842 115.514Z" fill="white" fill-opacity="0.08"/>
<path d="M573.842 93.3171C573.842 94.7045 574.952 95.7218 576.246 95.7218C577.633 95.7218 578.651 94.612 578.651 93.3171C578.651 91.9297 577.541 90.9124 576.246 90.9124C574.859 90.9124 573.842 92.0222 573.842 93.3171Z" fill="white" fill-opacity="0.08"/>
<path d="M573.842 71.2107C573.842 72.598 574.952 73.6154 576.246 73.6154C577.633 73.6154 578.651 72.5055 578.651 71.2107C578.651 69.9158 577.541 68.8059 576.246 68.8059C574.859 68.7134 573.842 69.8233 573.842 71.2107Z" fill="white" fill-opacity="0.08"/>
<path d="M573.842 49.1067C573.842 50.494 574.952 51.5114 576.246 51.5114C577.633 51.5114 578.651 50.4015 578.651 49.1067C578.651 47.7193 577.541 46.7019 576.246 46.7019C574.859 46.6094 573.842 47.7193 573.842 49.1067Z" fill="white" fill-opacity="0.08"/>
<path d="M573.842 26.9077C573.842 28.295 574.952 29.3124 576.246 29.3124C577.633 29.3124 578.651 28.2025 578.651 26.9077C578.651 25.5203 577.541 24.5029 576.246 24.5029C574.859 24.5029 573.842 25.6128 573.842 26.9077Z" fill="white" fill-opacity="0.08"/>
<path d="M573.842 4.80369C573.842 6.19104 574.952 7.20843 576.246 7.20843C577.633 7.20843 578.651 6.09855 578.651 4.80369C578.651 3.41634 577.541 2.39894 576.246 2.39894C574.859 2.30645 573.842 3.41634 573.842 4.80369Z" fill="white" fill-opacity="0.08"/>
<path d="M593.632 137.62C593.632 138.948 594.708 140.025 596.036 140.025C597.364 140.025 598.44 138.948 598.44 137.62C598.44 136.292 597.364 135.215 596.036 135.215C594.708 135.215 593.632 136.292 593.632 137.62Z" fill="white" fill-opacity="0.08"/>
<path d="M593.632 115.514C593.632 116.842 594.708 117.918 596.036 117.918C597.364 117.918 598.44 116.842 598.44 115.514C598.44 114.186 597.364 113.109 596.036 113.109C594.708 113.109 593.632 114.186 593.632 115.514Z" fill="white" fill-opacity="0.08"/>
<path d="M593.632 93.3171C593.632 94.7045 594.741 95.7218 596.036 95.7218C597.423 95.7218 598.44 94.612 598.44 93.3171C598.44 91.9297 597.331 90.9124 596.036 90.9124C594.741 90.9124 593.632 92.0222 593.632 93.3171Z" fill="white" fill-opacity="0.08"/>
<path d="M593.632 71.2107C593.632 72.5388 594.708 73.6154 596.036 73.6154C597.364 73.6154 598.44 72.5388 598.44 71.2107C598.44 69.8825 597.364 68.8059 596.036 68.8059C594.708 68.8059 593.632 69.8825 593.632 71.2107Z" fill="white" fill-opacity="0.08"/>
<path d="M593.632 49.1067C593.632 50.4348 594.708 51.5114 596.036 51.5114C597.364 51.5114 598.44 50.4348 598.44 49.1067C598.44 47.7785 597.364 46.7019 596.036 46.7019C594.708 46.7019 593.632 47.7785 593.632 49.1067Z" fill="white" fill-opacity="0.08"/>
<path d="M593.632 26.9077C593.632 28.2358 594.708 29.3124 596.036 29.3124C597.364 29.3124 598.44 28.2358 598.44 26.9077C598.44 25.5796 597.364 24.5029 596.036 24.5029C594.708 24.5029 593.632 25.5796 593.632 26.9077Z" fill="white" fill-opacity="0.08"/>
<path d="M593.632 4.80369C593.632 6.19104 594.741 7.20843 596.036 7.20843C597.423 7.20843 598.44 6.09855 598.44 4.80369C598.44 3.41634 597.331 2.39894 596.036 2.39894C594.741 2.30645 593.632 3.41634 593.632 4.80369Z" fill="white" fill-opacity="0.08"/>
<path d="M613.421 137.62C613.421 138.948 614.498 140.025 615.826 140.025C617.154 140.025 618.23 138.948 618.23 137.62C618.23 136.292 617.154 135.215 615.826 135.215C614.498 135.215 613.421 136.292 613.421 137.62Z" fill="white" fill-opacity="0.08"/>
<path d="M613.421 115.514C613.421 116.842 614.498 117.918 615.826 117.918C617.154 117.918 618.23 116.842 618.23 115.514C618.23 114.186 617.154 113.109 615.826 113.109C614.498 113.109 613.421 114.186 613.421 115.514Z" fill="white" fill-opacity="0.08"/>
<path d="M613.421 93.3171C613.421 94.7045 614.531 95.7218 615.826 95.7218C617.213 95.7218 618.23 94.612 618.23 93.3171C618.23 91.9297 617.12 90.9124 615.826 90.9124C614.531 90.9124 613.421 92.0222 613.421 93.3171Z" fill="white" fill-opacity="0.08"/>
<path d="M613.421 71.2106C613.421 72.5388 614.498 73.6154 615.826 73.6154C617.154 73.6154 618.23 72.5388 618.23 71.2106C618.23 69.8825 617.154 68.8059 615.826 68.8059C614.498 68.8059 613.421 69.8825 613.421 71.2106Z" fill="white" fill-opacity="0.08"/>
<path d="M613.421 49.1067C613.421 50.4348 614.498 51.5114 615.826 51.5114C617.154 51.5114 618.23 50.4348 618.23 49.1067C618.23 47.7785 617.154 46.7019 615.826 46.7019C614.498 46.7019 613.421 47.7785 613.421 49.1067Z" fill="white" fill-opacity="0.08"/>
<path d="M613.421 26.9077C613.421 28.2358 614.498 29.3124 615.826 29.3124C617.154 29.3124 618.23 28.2358 618.23 26.9077C618.23 25.5796 617.154 24.5029 615.826 24.5029C614.498 24.5029 613.421 25.5796 613.421 26.9077Z" fill="white" fill-opacity="0.08"/>
<path d="M613.421 4.80369C613.421 6.19104 614.531 7.20843 615.826 7.20843C617.213 7.20843 618.23 6.09855 618.23 4.80369C618.23 3.41634 617.12 2.39894 615.826 2.39894C614.531 2.30645 613.421 3.41634 613.421 4.80369Z" fill="white" fill-opacity="0.08"/>
<path d="M633.211 137.62C633.211 139.007 634.321 140.025 635.615 140.025C637.003 140.025 638.02 138.915 638.02 137.62C638.02 136.233 636.91 135.215 635.615 135.215C634.321 135.123 633.211 136.233 633.211 137.62Z" fill="white" fill-opacity="0.08"/>
<path d="M633.211 115.514C633.211 116.901 634.321 117.918 635.615 117.918C637.003 117.918 638.02 116.809 638.02 115.514C638.02 114.126 636.91 113.109 635.615 113.109C634.321 113.016 633.211 114.126 633.211 115.514Z" fill="white" fill-opacity="0.08"/>
<path d="M633.211 93.3171C633.211 94.7045 634.321 95.7218 635.615 95.7218C637.003 95.7218 638.02 94.612 638.02 93.3171C638.02 91.9297 636.91 90.9124 635.615 90.9124C634.321 90.9124 633.211 92.0222 633.211 93.3171Z" fill="white" fill-opacity="0.08"/>
<path d="M633.211 71.2107C633.211 72.598 634.321 73.6154 635.615 73.6154C637.003 73.6154 638.02 72.5055 638.02 71.2107C638.02 69.9158 636.91 68.8059 635.615 68.8059C634.321 68.7134 633.211 69.8233 633.211 71.2107Z" fill="white" fill-opacity="0.08"/>
<path d="M633.211 49.1067C633.211 50.494 634.321 51.5114 635.615 51.5114C637.003 51.5114 638.02 50.4015 638.02 49.1067C638.02 47.7193 636.91 46.7019 635.615 46.7019C634.321 46.6094 633.211 47.7193 633.211 49.1067Z" fill="white" fill-opacity="0.08"/>
<path d="M633.211 26.9077C633.211 28.295 634.321 29.3124 635.615 29.3124C637.003 29.3124 638.02 28.2025 638.02 26.9077C638.02 25.5203 636.91 24.5029 635.615 24.5029C634.321 24.5029 633.211 25.6128 633.211 26.9077Z" fill="white" fill-opacity="0.08"/>
<path d="M633.21 4.8032C633.21 6.19055 634.32 7.20794 635.614 7.20794C637.002 7.20794 638.019 6.09806 638.019 4.8032C638.019 3.41585 636.909 2.39846 635.614 2.39846C634.32 2.30597 633.21 3.41585 633.21 4.8032Z" fill="white" fill-opacity="0.08"/>
<path d="M418.58 378.464L455.847 341.191L493.114 378.464L455.847 415.738L418.58 378.464ZM455.847 343.41L420.799 378.464L455.847 413.518L490.894 378.464L455.847 343.41Z" fill="white" fill-opacity="0.08"/>
<path d="M768.132 117.549L805.399 80.2759L842.666 117.549L805.399 154.823L768.132 117.549ZM805.399 82.4956L770.351 117.549L805.399 152.603L840.446 117.549L805.399 82.4956Z" fill="white" fill-opacity="0.08"/>
<path d="M768.132 132.256L805.399 94.9829L842.666 132.256L805.399 169.53L768.132 132.256ZM805.399 97.2027L770.351 132.256L805.399 167.31L840.446 132.256L805.399 97.2027Z" fill="#3D567C"/>
<path d="M182.31 290.601L219.577 253.327L256.844 290.601L219.577 327.874L182.31 290.601ZM219.577 255.547L184.53 290.601L219.577 325.654L254.625 290.601L219.577 255.547Z" fill="white" fill-opacity="0.08"/>
<path d="M198.307 290.601L235.573 253.327L272.84 290.601L235.573 327.874L198.307 290.601ZM235.573 255.547L200.526 290.601L235.573 325.654L270.621 290.601L235.573 255.547Z" fill="#3D567C"/>
<path d="M214.213 290.601L251.48 253.327L288.747 290.601L251.48 327.874L214.213 290.601ZM251.48 255.547L216.432 290.601L251.48 325.654L286.527 290.601L251.48 255.547Z" fill="#3D567C"/>
</g>
<defs>
<clipPath id="clip0">
<rect width="468" height="890.011" fill="white" transform="translate(890.011 -21) rotate(90)"/>
</clipPath>
</defs>
</svg>
