<svg width="60" height="34" viewBox="0 0 60 34" fill="none" xmlns="http://www.w3.org/2000/svg">
<path d="M59.8 28H55V32.8H59.8V28Z" fill="#A1FFF4"/>
<path d="M19.2004 28.6001H14.4004V33.4001H19.2004V28.6001Z" fill="#A1FFF4"/>
<path d="M19.2004 23.8H14.4004V28.6H19.2004V23.8Z" fill="#A1FFF4"/>
<path d="M24.0002 19.1001H19.2002V23.9001H24.0002V19.1001Z" fill="#A1FFF4"/>
<path d="M19.2004 19.1001H14.4004V23.9001H19.2004V19.1001Z" fill="#E0FFFB"/>
<path d="M14.4001 19.1001H9.6001V23.9001H14.4001V19.1001Z" fill="#A1FFF4"/>
<path d="M28.7004 14.3H23.9004V19.1H28.7004V14.3Z" fill="#A1FFF4"/>
<path d="M33.5002 14.3H28.7002V19.1H33.5002V14.3Z" fill="#A1FFF4"/>
<path d="M24.0002 14.3H19.2002V19.1H24.0002V14.3Z" fill="#E0FFFB"/>
<path d="M19.2004 14.3H14.4004V19.1H19.2004V14.3Z" fill="#E0FFFB"/>
<path d="M14.4001 14.3H9.6001V19.1H14.4001V14.3Z" fill="#E0FFFB"/>
<path d="M9.60028 14.3H4.80029V19.1H9.60028V14.3Z" fill="#A1FFF4"/>
<path d="M4.80002 14.3H0V19.1H4.80002V14.3Z" fill="#A1FFF4"/>
<path d="M24.0002 9.5H19.2002V14.3H24.0002V9.5Z" fill="#A1FFF4"/>
<path d="M19.2004 9.5H14.4004V14.3H19.2004V9.5Z" fill="#E0FFFB"/>
<path d="M14.4001 9.5H9.6001V14.3H14.4001V9.5Z" fill="#A1FFF4"/>
<path d="M19.2004 4.70007H14.4004V9.50009H19.2004V4.70007Z" fill="#A1FFF4"/>
<path d="M19.2004 0H14.4004V4.79999H19.2004V0Z" fill="#A1FFF4"/>
</svg>
