<svg width="317" height="190" viewBox="0 0 317 190" fill="none" xmlns="http://www.w3.org/2000/svg">
<path fill-rule="evenodd" clip-rule="evenodd" d="M174.619 40.0811H210.047V43.0334H218.905V51.8906H221.857V60.7477H224.809V69.6049L227.762 69.6049V78.462H230.714V87.3191H233.666V96.1763H241.047V105.033H248.428V96.1763H251.381V66.6525L248.428 66.6525V57.7953H241.047V48.9382H242.524V40.0811H292.714V48.9382H295.666V96.1763H300.095V93.2239H304.524V84.3668H308.952V75.5096H313.381V66.6525L317.809 66.6525V57.7953H322.238V48.9382H326.666V40.0811H372.428V48.9382H376.857V57.7953H370.952V66.6525L366.524 66.6525V75.5096H360.619V84.3668H356.19V93.2239H351.762V102.081H345.857V110.938H351.762V119.795L360.619 119.795V128.652H368V137.51L373.905 137.51V146.367H379.809V155.224L384.238 155.224V164.081H334.047V155.224L325.19 155.224V146.367H317.809V137.51L306 137.51V128.652H294.19V155.224V164.081H244V155.224L230.714 155.224V146.367H218.905V137.51L208.571 137.51V128.652H202.666V119.795L196.762 119.795V110.938H190.857V102.081H184.952V93.2239H179.047V84.3668H173.143V75.5096H167.238V66.6525H165.762V51.8906V43.0334H174.619V40.0811Z" fill="white"/>
<path fill-rule="evenodd" clip-rule="evenodd" d="M53.2973 0H70.4866V1.43143H74.7841V5.72876H49.0002V1.43143H53.2973V0ZM76.2164 5.73057H53.2973H53.2973H49V12.8928H49.7167V17.1899H52.5812V21.4858H61.1759V18.6213H79.0809V14.324H58.3114V14.3238H77.6486V10.0265H76.2164V5.73057ZM61.1759 18.6215H80.5139V22.9189H64.0403V25.7833H55.4457V21.486H61.1759V18.6215ZM81.9462 22.9191H64.0406V25.7835H58.311V30.0809H66.9054V30.0811H61.1754V34.3784H69.7701V31.5139H85.5272V27.2166H66.9056V27.2164H81.9462V22.9191ZM112.027 27.2166V4.29753H107.73V27.2166H107.73V12.8926H90.5404V27.2166H89.108V31.5139H109.878H131.365V31.5141H69.7703V34.3786H64.0407V38.6759H72.6354V35.8114H72.6356V38.6759H134.23H134.231H139.244V34.3786H134.231H134.23H131.365V34.3784H136.379V30.0811H132.798V30.0809H132.798H133.514H139.244V25.7835H133.514H132.798H114.176V27.2166L112.027 27.2166ZM116.325 21.486H136.379H137.095H141.393V25.7833H137.095H136.379H116.325V21.486ZM125.636 47.271V42.9736H147.122V47.271H125.636ZM125.636 42.9736H117.041V47.271H125.636V42.9736ZM83.3784 42.9736H111.311V55.8656H80.5132V51.5685H74.7837V47.2712H80.5132V47.271H69.7702V42.9736H80.5132H83.3784ZM136.379 38.6761H75.4999H75.4997H66.9052V42.9734H75.4997H75.4999H136.379V38.6761ZM143.541 47.2712H149.987V51.5671H152.852V55.8644H132.798V51.5685H132.798V55.8644H126.352V51.5685H122.771V47.2712H143.541H143.541ZM155.001 55.8662H130.649V60.1635H155.001V55.8662ZM86.9592 55.8662H111.311V60.1635H86.9592V55.8662ZM143.541 38.6761H136.379V42.9734H143.541V38.6761ZM126.352 12.8926H126.352H146.406V17.1899H143.541V21.4858H139.244V17.1899H139.244V21.4858H118.473V17.1885H120.622V12.8926H126.352ZM122.771 8.59505H142.825H148.555V12.8924H142.825H122.771V8.59505ZM124.919 4.29753H131.365V8.59485H124.919V4.29753ZM151.42 4.29753H131.366V8.59485H151.42V4.29753ZM127.068 0H149.271V4.29733H127.068V0ZM107.73 8.59505H89.1079V12.8924H107.73V8.59505ZM107.73 4.29753H85.5268V8.59485H107.73V4.29753ZM86.2435 0H110.595V4.29733H86.2435V0Z" fill="white"/>
<path fill-rule="evenodd" clip-rule="evenodd" d="M6 105.081H30V107.081H36V113.081H38V119.081H40V125.081H42V131.081H44V137.081H46V143.081H51V149.081H56V143.081H58V123.081H56V117.081H51V111.081H52V105.081H86V111.081H88V143.081H91V141.081H94V135.081H97V129.081H100V123.081H103V117.081H106V111.081H109V105.081H140V111.081H143V117.081H139V123.081H136V129.081H132V135.081H129V141.081H126V147.081H122V153.081H126V159.081H132V165.081H137V171.081H141V177.081H145V183.081H148V189.081H114V183.081H108V177.081H103V171.081H95V165.081H87V183.081V189.081H53V183.081H44V177.081H36V171.081H29V165.081H25V159.081H21V153.081H17V147.081H13V141.081H9V135.081H5V129.081H1V123.081H0V113.081V107.081H6V105.081Z" fill="white"/>
</svg>
