<svg width="105" height="75" viewBox="0 0 105 75" fill="none" xmlns="http://www.w3.org/2000/svg">
<path d="M101.99 65.9897V41.991H95.9967V65.9897H45.0029V41.991H38.9965V65.9897H36V71.996H105V65.9897H101.99Z" fill="#FDAE35"/>
<path d="M98.9924 9.00245V5.99258H95.9959V2.99609H92.9994V5.99258H81.0001V2.99609H74.9937V5.99258H62.9944V2.99609H57.0014V5.99258H47.9985V2.99609H41.9922V9.00245H45.0021V11.9989H41.9922V21.0018H45.0021V23.9983H41.9922V29.9913H69.0007V33.0011H81.0001V29.9913H95.9959V33.0011H98.9924V23.9983H95.9959V21.0018H98.9924V11.9989H95.9959V9.00245H98.9924Z" fill="#733D3B"/>
<path d="M45.0039 65.9889H95.9978V41.9902H45.0039V65.9889Z" fill="#733D3B"/>
<path d="M65.9922 53.9903H74.995V41.991H65.9922V53.9903Z" fill="#FDAE35"/>
<path d="M36 41.9911H105V38.9946H36V41.9911Z" fill="#F77622"/>
<path d="M101.988 53.9895H104.998V45H101.988V53.9895Z" fill="#F77622"/>
<path d="M36 74.9926H105V71.9961H36V74.9926Z" fill="#F77622"/>
<path d="M93.0029 35.9989V26.9961H89.993V29.9926H86.9965V26.9961H84V35.9989H93.0029Z" fill="#F77622"/>
<path d="M69.0039 53.9906H72.0004V50.9941H69.0039V53.9906Z" fill="#F77622"/>
<path d="M57.0029 35.9982V26.9954H53.993V29.9919H50.9965V26.9954H48V35.9982H57.0029Z" fill="#F77622"/>
<path d="M36 53.9905H38.9965V45.001H36V53.9905Z" fill="#F77622"/>
<path d="M65.9922 50.9938H69.0021V47.9973H65.9922V50.9938Z" fill="#C28569"/>
<path d="M62.9961 68.9997H77.9919V59.9968H62.9961V68.9997Z" fill="#C28569"/>
<path d="M72 50.9945H74.9965V47.998H72V50.9945Z" fill="#C28569"/>
<path d="M93 11.9994H98.993V9.00293H93V11.9994Z" fill="#422632"/>
<path d="M93 23.9987H98.993V21.0022H93V23.9987Z" fill="#422632"/>
<path d="M93 53.9905H95.9965V45.001H93V53.9905Z" fill="#422632"/>
<path d="M93 65.9898H95.9965V59.9968H93V65.9898Z" fill="#422632"/>
<path d="M81 50.9938H83.9965V41.991H81V50.9938Z" fill="#422632"/>
<path d="M81 65.9896H83.9965V53.9902H81V65.9896Z" fill="#422632"/>
<path d="M77.9922 11.9994H83.9985V9.00293H77.9922V11.9994Z" fill="#422632"/>
<path d="M65.9922 23.9987H83.9979V21.0022H65.9922V23.9987Z" fill="#422632"/>
<path d="M57.0039 11.9984H74.9962V9.00195H57.0039V11.9984Z" fill="#422632"/>
<path d="M81.0026 33.0021H62.9969V29.9922H60.0004V33.0021H57.0039V35.9985H83.9991V29.9922H81.0026V33.0021Z" fill="#422632"/>
<path d="M93 35.9981H98.993V29.9917H93V35.9981Z" fill="#422632"/>
<path d="M57.0039 23.9984H62.9969V21.002H57.0039V23.9984Z" fill="#422632"/>
<path d="M57.0039 56.9994H60.0004V41.9902H57.0039V56.9994Z" fill="#422632"/>
<path d="M57.0039 65.9891H60.0004V59.9961H57.0039V65.9891Z" fill="#422632"/>
<path d="M45.0039 50.993H48.0004V45H45.0039V50.993Z" fill="#422632"/>
<path d="M45.0039 65.9895H48.0004V57H45.0039V65.9895Z" fill="#422632"/>
<path d="M41.9922 11.9984H47.9985V9.00195H41.9922V11.9984Z" fill="#422632"/>
<path d="M41.9922 23.9984H47.9985V21.002H41.9922V23.9984Z" fill="#422632"/>
<path d="M41.9922 35.9985H47.9985V29.9922H41.9922V35.9985Z" fill="#422632"/>
<path d="M95.9961 5.99283H98.9926V2.99634H95.9961V5.99283Z" fill="#733D3B"/>
<path d="M81 5.99283H83.9965V2.99634H81V5.99283Z" fill="#733D3B"/>
<path d="M62.9961 5.99283H74.9954V2.99634H62.9961V5.99283Z" fill="#733D3B"/>
<path d="M72 26.9945H83.9993V23.998H72V26.9945Z" fill="#733D3B"/>
<path d="M69.0039 14.9965H81.0032V12H69.0039V14.9965Z" fill="#733D3B"/>
<path d="M57.0039 33.0021H69.0033V29.9922H57.0039V33.0021Z" fill="#733D3B"/>
<path d="M45.0039 26.9945H48.0004V23.998H45.0039V26.9945Z" fill="#733D3B"/>
<path d="M93 26.995H95.9965V23.9985H93V26.995Z" fill="#733D3B"/>
<path d="M89.9883 53.9896H92.9981V41.9902H89.9883V53.9896Z" fill="#733D3B"/>
<path d="M53.9922 50.9938H57.0021V41.991H53.9922V50.9938Z" fill="#733D3B"/>
<path d="M77.9922 59.9966H81.0021V53.9902H77.9922V59.9966Z" fill="#733D3B"/>
<path d="M89.9883 65.9891H92.9981V59.9961H89.9883V65.9891Z" fill="#733D3B"/>
<path d="M48 65.9897H50.9965V57.0002H48V65.9897Z" fill="#733D3B"/>
<path d="M59.9961 14.9965H62.9926V12H59.9961V14.9965Z" fill="#733D3B"/>
<path d="M45.0039 5.99259H48.0004V2.99609H45.0039V5.99259Z" fill="#733D3B"/>
<path d="M72 57.0005H74.9965V50.9941H72V57.0005Z" fill="#422632"/>
<path d="M65.9922 57.0003H69.0021V50.9939H65.9922V57.0003Z" fill="#422632"/>
<path d="M69.0039 65.9906H72.0004V62.9941H69.0039V65.9906Z" fill="#422632"/>
<path d="M74.9954 53.9902V57.0001H71.9989V53.9902H69.0025V57.0001H65.9926V53.9902H62.9961V59.9966H77.9919V53.9902H74.9954Z" fill="#EBD4AB"/>
<path d="M98.9932 11.9993V35.9979H41.993V11.9993H36V38.9944H105V11.9993H98.9932Z" fill="#FDAE35"/>
<path d="M86.9965 9.00285H89.993V11.9993H93.0029V0H84V11.9993H86.9965V9.00285Z" fill="#FDAE35"/>
<path d="M50.9965 9.00285H53.993V11.9993H57.0029V0H48V11.9993H50.9965V9.00285Z" fill="#FDAE35"/>
<path d="M86.9965 29.9915H89.993V26.995H93.0029V17.9922H84V26.995H86.9965V29.9915Z" fill="#FDAE35"/>
<path d="M53.993 29.9918V26.9953H57.0029V17.9924H48V29.9918H53.993Z" fill="#FDAE35"/>
<path d="M69.0039 50.9945H72.0004V47.998H69.0039V50.9945Z" fill="#FEE861"/>
<path d="M57.0029 11.9994H53.993V9.00293H50.9965V11.9994H48V17.9924H57.0029V11.9994Z" fill="#FEE861"/>
<path d="M57.0039 71.9965H62.9969V69H57.0039V71.9965Z" fill="#FDAE35"/>
<path d="M104.999 38.9945V29.9917H101.989V35.9981H95.9961V38.9945H104.999Z" fill="#FEE861"/>
<path d="M93.0029 17.9914V11.9984H89.993V9.00195H86.9965V11.9984H84V17.9914H93.0029Z" fill="#FEE861"/>
<path d="M101.989 65.9895V68.9994H95.9961V71.9959H104.999V65.9895H101.989Z" fill="#FEE861"/>
<path d="M86.9961 71.9965H93.0025V69H86.9961V71.9965Z" fill="#FEE861"/>
<path d="M81 71.996H83.9965V68.9995H81V71.996Z" fill="#FEE861"/>
<path d="M38.9961 45.0008H45.0025V41.991H38.9961V45.0008Z" fill="#D77643"/>
<path d="M95.9961 45.0008H101.989V41.991H95.9961V45.0008Z" fill="#D77643"/>
<path d="M45.0039 45.0001H65.9927V41.9902H45.0039V45.0001Z" fill="#422632"/>
<path d="M74.9961 45.0001H95.9983V41.9902H74.9961V45.0001Z" fill="#422632"/>
<path d="M59.9961 33.0021H71.9954V29.9922H59.9961V33.0021Z" fill="#422632"/>
<path d="M20.3878 12H13.5929V14.266H9.06091V12H2.26602V14.266H0V30.1218H2.26602V32.3878H4.53204V34.6539H11.3269V39.1859H13.5929V41.4519H20.3878V39.1859H22.6539V14.266H20.3878V12Z" fill="#2C73BF"/>
<path d="M13.5926 27.859H9.06052V18.7949H2.26562V30.1219H4.53164V32.3879H13.5926V39.1859H20.3875V18.7949H13.5926V27.859Z" fill="#2C73BF"/>
<path d="M13.5926 23.327H9.06052V14.2661H2.26562V25.593H4.53164V27.8591H13.5926V34.654H20.3875V14.2661H13.5926V23.327Z" fill="#FFDA40"/>
</svg>
