<svg width="414" height="413" viewBox="0 0 414 413" fill="none" xmlns="http://www.w3.org/2000/svg">
<path d="M19.4194 77.8453C51.4379 23.6724 112.338 10.4157 135.343 5.43201C213.522 -11.5624 329.247 8.87078 385.118 101.169C434.116 182.154 406.828 268.721 402.845 280.583C396.222 300.468 379.59 348.212 332.534 380.506C259.235 430.841 147.543 419.528 109.3 367.598C91.3241 343.178 105.864 331.965 84.9503 288.806C56.9652 231.045 22.2079 232.44 5.97457 186.191C-12.2506 133.962 16.4316 82.829 19.4194 77.8453Z" fill="#FFCBCB"/>
<path d="M158.649 48.2422L155.761 37.6767L143.81 38.2249C142.714 35.8826 141.42 33.6898 139.975 31.6464L146.299 21.4797L138.531 13.7549L128.473 20.2337C126.381 18.7885 124.14 17.5425 121.85 16.4461L122.248 4.48521L111.642 1.69434L106.164 12.3096C103.675 12.1103 101.085 12.1103 98.5456 12.3595L92.9187 1.84385L82.362 4.7344L82.9098 16.6953C80.5694 17.7917 78.3784 19.0875 76.3368 20.5328L66.2283 14.2034L58.51 21.978L64.9336 32.0451C63.4895 34.1383 62.2446 36.381 61.1491 38.6735L49.1982 38.2748L46.4097 48.8901L57.0161 54.3721C56.8169 56.864 56.8169 59.4555 57.0659 61.9972L46.5093 67.6288L49.3974 78.1943L61.3483 77.6461C62.4438 79.9884 63.7385 82.1812 65.1826 84.2246L58.8585 94.3913L66.6267 102.116L76.6853 95.6871C78.7768 97.1324 81.0176 98.3783 83.3082 99.4747L82.9098 111.436L93.5162 114.226L98.9937 103.611C101.484 103.811 104.073 103.811 106.612 103.561L112.239 114.127L122.796 111.236L122.248 99.2754C124.589 98.179 126.78 96.8832 128.821 95.4379L138.93 101.767L146.648 93.9926L140.224 83.9255C141.668 81.8324 142.913 79.5897 144.009 77.2972L155.96 77.6959L158.748 67.0806L148.142 61.5985C148.341 59.1067 148.341 56.5151 148.092 53.9734L158.649 48.2422ZM110.048 85.1715C95.0599 89.3079 79.5237 80.4369 75.4405 65.3861C71.3074 50.3353 80.171 34.836 95.1595 30.6995C110.148 26.563 125.684 35.434 129.767 50.4849C133.9 65.5357 125.037 81.035 110.048 85.1715Z" fill="#FFA8A8"/>
<path d="M242.754 27.8588L239.268 21.1308L231.251 23.2738C230.155 21.8783 228.96 20.5826 227.666 19.3865L230.454 11.6119L224.031 7.47541L218.155 13.3064C216.511 12.6585 214.818 12.1103 213.125 11.7116L211.631 3.53828L204.062 3.23926L201.921 11.2132C200.178 11.4624 198.485 11.8611 196.792 12.3594L191.464 6.03014L184.742 9.51873L186.883 17.5425C185.489 18.6389 184.194 19.835 182.999 21.1308L175.231 18.3399L171.148 24.7689L176.974 30.6497C176.326 32.2943 175.779 33.9887 175.38 35.6832L167.214 37.1783L166.915 44.7536L174.882 46.8966C175.131 48.6409 175.53 50.3353 176.028 52.0298L169.704 57.4122L173.189 64.1402L181.206 61.9972C182.302 63.3926 183.497 64.6884 184.792 65.8845L182.003 73.6591L188.377 77.7457L194.253 71.9148C195.896 72.5627 197.589 73.1109 199.282 73.5096L200.776 81.6828L208.345 81.9819L210.486 74.0079C212.229 73.7587 213.922 73.36 215.615 72.8617L220.993 79.191L227.715 75.7024L225.574 67.6786C226.968 66.5822 228.263 65.3861 229.458 64.0904L237.226 66.8812L241.31 60.4522L235.533 54.6213C236.181 52.9767 236.728 51.2822 237.127 49.5878L245.293 48.0926L245.592 40.5174L237.625 38.3744C237.376 36.6301 236.977 34.9356 236.479 33.2412L242.754 27.8588ZM215.266 59.9539C205.706 64.9376 193.954 61.2496 188.925 51.6809C183.945 42.1122 187.63 30.3008 197.191 25.3171C206.751 20.3334 218.503 24.0213 223.533 33.59C228.512 43.1588 224.827 54.9702 215.266 59.9539Z" fill="#FFA8A8"/>
<path d="M362.511 78.4934H29.5786C22.2089 78.4934 16.2832 84.4739 16.2832 91.7999V320.253C16.2832 327.629 22.2587 333.56 29.5786 333.56H368.736C372.67 333.56 375.807 330.37 375.807 326.483V91.7999C375.807 84.424 369.881 78.4934 362.511 78.4934Z" fill="white"/>
<path d="M354.196 113.529H37.8945C36.2512 113.529 34.8569 112.183 34.8569 110.489V100.571C34.8569 98.9267 36.2014 97.5312 37.8945 97.5312H354.146C355.789 97.5312 357.183 98.8769 357.183 100.571V110.489C357.183 112.183 355.839 113.529 354.196 113.529Z" fill="#FFA8A8"/>
<path d="M34.9067 125.241V305.9C34.9067 311.631 39.5875 316.316 45.314 316.316H346.776C352.503 316.316 357.183 311.631 357.183 305.9V125.241H34.9067Z" fill="#FFA8A8"/>
<path d="M349.863 105.555C349.863 107.698 348.12 109.392 346.029 109.392C343.888 109.392 342.195 107.648 342.195 105.555C342.195 103.412 343.938 101.718 346.029 101.718C348.12 101.718 349.863 103.412 349.863 105.555Z" fill="white"/>
<path d="M400.904 333.56H16.632C12.6483 333.56 9.41162 336.749 9.41162 340.636V342.281C9.41162 349.109 15.0883 354.69 22.0597 354.69L400.057 353.843C407.029 353.843 408.174 349.159 408.174 342.331V340.686C408.124 336.749 404.888 333.56 400.904 333.56Z" fill="white"/>
<path d="M22.0595 355.438C14.6898 355.438 8.66455 349.557 8.66455 342.281V340.636C8.66455 336.301 12.2498 332.812 16.6318 332.812H400.954C405.336 332.812 408.921 336.301 408.921 340.636V342.281C408.921 348.212 408.224 354.541 400.057 354.541L22.0595 355.438ZM16.6318 334.307C13.0466 334.307 10.1584 337.148 10.1584 340.636V342.281C10.1584 348.71 15.4865 353.943 22.0595 353.943L400.057 353.096C406.232 353.096 407.427 349.308 407.427 342.331V340.686C407.427 337.198 404.539 334.357 400.954 334.357H16.6318V334.307Z" fill="black"/>
<path d="M47.8534 276.845H249.475C252.613 276.845 255.202 274.303 255.202 271.114V138.996C255.202 135.856 252.662 133.264 249.475 133.264H47.8534C44.7163 133.264 42.127 135.806 42.127 138.996V271.164C42.127 274.303 44.7163 276.845 47.8534 276.845Z" fill="#FFCBCB"/>
<path d="M44.7163 307.295H347.174C348.618 307.295 349.764 306.149 349.764 304.704V294.089C349.764 292.643 348.618 291.497 347.174 291.497H44.7163C43.2723 291.497 42.127 292.643 42.127 294.089V304.704C42.127 306.149 43.2723 307.295 44.7163 307.295Z" fill="#FFCBCB"/>
<path d="M276.913 182.504H344.237C347.274 182.504 349.714 184.946 349.714 187.986V221.476C349.714 224.516 347.274 226.958 344.237 226.958H276.913C273.876 226.958 271.436 224.516 271.436 221.476V187.986C271.485 184.946 273.925 182.504 276.913 182.504Z" fill="#FFCBCB"/>
<path d="M276.913 232.59H344.237C347.274 232.59 349.714 235.032 349.714 238.072V271.562C349.714 274.602 347.274 277.045 344.237 277.045H276.913C273.876 277.045 271.436 274.602 271.436 271.562V238.072C271.485 235.032 273.925 232.59 276.913 232.59Z" fill="#FFCBCB"/>
<path d="M277.062 133.264H344.187C347.274 133.264 349.764 135.756 349.764 138.846V172.137C349.764 175.227 347.274 177.719 344.187 177.719H277.062C273.975 177.719 271.485 175.227 271.485 172.137V138.846C271.485 135.756 273.975 133.264 277.062 133.264Z" fill="#FFCBCB"/>
<path d="M150.98 226.858C163.053 226.858 172.84 217.018 172.84 204.88C172.84 192.742 163.053 182.902 150.98 182.902C138.907 182.902 129.12 192.742 129.12 204.88C129.12 217.018 138.907 226.858 150.98 226.858Z" fill="white"/>
<path d="M143.312 213.751V196.607C143.312 195.71 144.208 195.162 145.005 195.561L162.134 204.033C162.981 204.482 163.031 205.728 162.134 206.126L145.005 214.798C144.258 215.197 143.312 214.648 143.312 213.751Z" fill="#FF5252"/>
<path d="M368.736 334.307H29.579C21.8109 334.307 15.5366 327.978 15.5366 320.253V91.7999C15.5366 84.0253 21.8607 77.7458 29.579 77.7458H293.993C294.392 77.7458 294.74 78.0947 294.74 78.4934C294.74 78.8921 294.392 79.241 293.993 79.241H29.579C22.6574 79.241 17.0305 84.8726 17.0305 91.7999V320.253C17.0305 327.18 22.6574 332.812 29.579 332.812H368.736C369.135 332.812 369.483 333.161 369.483 333.56C369.483 334.008 369.135 334.307 368.736 334.307Z" fill="black"/>
<path d="M5.57764 356.734C9.71067 348.262 10.0592 339.74 5.57764 331.118L8.81435 327.23L121.153 330.121L118.116 358.229L8.61516 359.226L5.57764 356.734Z" fill="white"/>
<path d="M8.56518 359.973C8.41579 359.973 8.21661 359.924 8.06722 359.824L5.02969 357.332C4.78072 357.133 4.68113 356.734 4.83051 356.435C9.06313 347.714 9.06313 339.54 4.83051 331.467C4.68113 331.217 4.73092 330.869 4.9301 330.619L8.16681 326.732C8.3162 326.533 8.51538 326.483 8.76436 326.483L121.103 329.373C121.302 329.373 121.501 329.473 121.651 329.623C121.8 329.772 121.85 329.972 121.85 330.171L118.812 358.279C118.763 358.678 118.464 358.927 118.066 358.927L8.56518 359.973ZM6.47376 356.485L8.81415 358.428L117.368 357.432L120.257 330.769L9.16272 327.928L6.47376 331.168C10.557 339.291 10.557 347.813 6.47376 356.485Z" fill="black"/>
<path d="M198.585 324.091H77.9799H4.03352C2.0417 324.091 0.448242 325.686 0.448242 327.629C0.448242 329.573 2.0417 331.168 4.03352 331.168H108.554C114.281 331.168 118.912 335.703 118.912 341.285V346.966C118.912 352.548 114.281 357.083 108.554 357.083H4.03352C2.0417 357.083 0.448242 358.678 0.448242 360.621C0.448242 362.565 2.0417 364.16 4.03352 364.16H198.535C209.092 364.16 217.607 355.787 217.607 345.521V342.879C217.656 332.463 209.091 324.091 198.585 324.091Z" fill="#FF5252"/>
<path d="M97.749 339.241H74.4447C74.0463 339.241 73.6978 338.892 73.6978 338.494C73.6978 338.095 74.0463 337.746 74.4447 337.746H97.749C98.1474 337.746 98.4959 338.095 98.4959 338.494C98.4959 338.942 98.1474 339.241 97.749 339.241Z" fill="#FFCBCB"/>
<path d="M64.8837 339.241H17.3788C16.9804 339.241 16.6318 338.892 16.6318 338.494C16.6318 338.095 16.9804 337.746 17.3788 337.746H64.8837C65.2821 337.746 65.6306 338.095 65.6306 338.494C65.6306 338.942 65.2821 339.241 64.8837 339.241Z" fill="#FFCBCB"/>
<path d="M90.0303 344.424H16.8309C16.4326 344.424 16.084 344.075 16.084 343.677C16.084 343.278 16.4326 342.929 16.8309 342.929H90.0303C90.4287 342.929 90.7773 343.278 90.7773 343.677C90.7773 344.125 90.4287 344.424 90.0303 344.424Z" fill="#FFCBCB"/>
<path d="M96.4541 350.953H89.0843C88.686 350.953 88.3374 350.604 88.3374 350.206C88.3374 349.807 88.686 349.458 89.0843 349.458H96.4541C96.8524 349.458 97.201 349.807 97.201 350.206C97.201 350.604 96.8524 350.953 96.4541 350.953Z" fill="#FFCBCB"/>
<path d="M76.6355 350.953H12.2499C11.8515 350.953 11.5029 350.604 11.5029 350.206C11.5029 349.807 11.8515 349.458 12.2499 349.458H76.6355C77.0338 349.458 77.3824 349.807 77.3824 350.206C77.3824 350.604 77.0338 350.953 76.6355 350.953Z" fill="#FFCBCB"/>
<path d="M223.283 404.079H43.3721V367.698H223.234C218.702 380.008 218.553 392.118 223.283 404.079Z" fill="white"/>
<path d="M223.283 404.827H43.3719C42.9736 404.827 42.625 404.478 42.625 404.079V367.698C42.625 367.3 42.9736 366.951 43.3719 366.951H223.233C223.482 366.951 223.731 367.05 223.831 367.25C223.98 367.449 223.98 367.698 223.931 367.947C219.399 380.158 219.399 392.218 223.931 403.78C224.03 404.029 223.98 404.279 223.831 404.478C223.731 404.727 223.532 404.827 223.283 404.827ZM44.1189 403.332H222.188C218.005 392.069 218.005 380.307 222.188 368.446H44.1189V403.332Z" fill="black"/>
<path d="M62.0452 369.542H224.329C225.972 369.542 227.317 368.247 227.317 366.702C227.317 365.107 225.972 363.861 224.329 363.861H21.1631C13.893 363.861 8.01709 369.492 8.01709 376.47V396.205C8.01709 403.182 13.893 408.814 21.1631 408.814H224.329C225.972 408.814 227.317 407.518 227.317 405.973C227.317 404.378 225.972 403.132 224.329 403.132H62.0452C56.9163 403.132 52.7833 399.145 52.7833 394.261V378.513C52.7833 373.529 56.9163 369.542 62.0452 369.542Z" fill="#FFA8A8"/>
<path d="M164.674 370.29H135.643C135.245 370.29 134.896 369.941 134.896 369.542C134.896 369.143 135.245 368.794 135.643 368.794H164.674C165.072 368.794 165.421 369.143 165.421 369.542C165.421 369.941 165.122 370.29 164.674 370.29Z" fill="black"/>
<path d="M113.633 403.78H62.045C56.5177 403.78 52.0361 399.444 52.0361 394.162V378.413C52.0361 373.08 56.5177 368.794 62.045 368.794L123.443 369.093C123.841 369.093 124.19 369.442 124.19 369.841C124.19 370.24 123.841 370.589 123.443 370.589L62.045 370.29C57.3643 370.29 53.53 373.928 53.53 378.413V394.162C53.53 398.647 57.3643 402.285 62.045 402.285H113.633C114.032 402.285 114.38 402.634 114.38 403.033C114.38 403.431 114.032 403.78 113.633 403.78Z" fill="black"/>
<path d="M224.329 409.511H21.163C13.4945 409.511 7.27002 403.531 7.27002 396.155V376.37C7.27002 368.994 13.4945 363.013 21.163 363.013L125.136 362.565C125.534 362.565 125.883 362.914 125.883 363.312C125.883 363.711 125.534 364.06 125.136 364.06L21.1132 364.509C14.2912 364.509 8.71409 369.841 8.71409 376.37V396.205C8.71409 402.734 14.2912 408.066 21.1132 408.066H224.279C225.524 408.066 226.52 407.119 226.52 405.973C226.52 404.827 225.524 403.88 224.279 403.88H131.012C130.614 403.88 130.265 403.531 130.265 403.132C130.265 402.734 130.614 402.385 131.012 402.385H224.379C226.42 402.385 228.113 404.029 228.113 405.973C228.063 407.917 226.42 409.511 224.329 409.511Z" fill="black"/>
<path d="M174.981 370.589C174.583 370.589 174.234 370.24 174.234 369.841C174.234 369.442 174.583 369.094 174.981 369.094L224.378 368.795C225.623 368.795 226.619 367.848 226.619 366.701C226.619 365.555 225.623 364.608 224.378 364.608L175.728 364.16C175.33 364.16 174.981 363.811 174.981 363.412C174.981 363.013 175.33 362.665 175.728 362.665L224.378 363.113C226.42 363.113 228.113 364.758 228.113 366.701C228.113 368.695 226.42 370.29 224.378 370.29L174.981 370.589Z" fill="black"/>
<path d="M102.43 377.117H70.411C70.0126 377.117 69.6641 376.768 69.6641 376.37C69.6641 375.971 70.0126 375.622 70.411 375.622H102.43C102.828 375.622 103.176 375.971 103.176 376.37C103.176 376.768 102.878 377.117 102.43 377.117Z" fill="#FFCBCB"/>
<path d="M174.384 381.951H141.469C141.071 381.951 140.722 381.602 140.722 381.204C140.722 380.805 141.071 380.456 141.469 380.456H174.384C174.782 380.456 175.131 380.805 175.131 381.204C175.131 381.652 174.832 381.951 174.384 381.951Z" fill="#FFCBCB"/>
<path d="M105.118 381.951H83.1586C82.7602 381.951 82.4116 381.602 82.4116 381.204C82.4116 380.805 82.7602 380.456 83.1586 380.456H105.168C105.567 380.456 105.915 380.805 105.915 381.204C105.865 381.652 105.567 381.951 105.118 381.951Z" fill="#FFCBCB"/>
<path d="M72.6515 381.951H60.9994C60.601 381.951 60.2524 381.602 60.2524 381.204C60.2524 380.805 60.601 380.456 60.9994 380.456H72.6515C73.0499 380.456 73.3984 380.805 73.3984 381.204C73.3984 381.652 73.0997 381.951 72.6515 381.951Z" fill="#FFCBCB"/>
<path d="M180.558 392.118H140.174C139.776 392.118 139.427 391.769 139.427 391.371C139.427 390.972 139.776 390.623 140.174 390.623H180.558C180.957 390.623 181.305 390.972 181.305 391.371C181.305 391.769 180.957 392.118 180.558 392.118Z" fill="#FFCBCB"/>
<path d="M110.795 392.118H62.0946C61.6962 392.118 61.3477 391.769 61.3477 391.371C61.3477 390.972 61.6962 390.623 62.0946 390.623H110.795C111.193 390.623 111.542 390.972 111.542 391.371C111.542 391.769 111.193 392.118 110.795 392.118Z" fill="#FFCBCB"/>
<path d="M133.004 392.118H129.966C129.568 392.118 129.219 391.769 129.219 391.371C129.219 390.972 129.568 390.623 129.966 390.623H133.004C133.402 390.623 133.751 390.972 133.751 391.371C133.751 391.769 133.402 392.118 133.004 392.118Z" fill="#FFA8A8"/>
<path d="M124.638 390.822C125.584 389.825 131.161 372.532 131.161 372.532L142.166 380.356L130.116 396.553L124.638 390.822Z" fill="white"/>
<path d="M130.116 397.301C129.917 397.301 129.717 397.201 129.568 397.052L124.091 391.271C123.842 390.972 123.842 390.523 124.091 390.224C124.738 389.377 127.825 380.306 130.464 372.233C130.514 371.984 130.713 371.834 130.962 371.734C131.211 371.635 131.46 371.685 131.61 371.834L142.614 379.659C142.764 379.758 142.863 379.958 142.913 380.157C142.963 380.356 142.913 380.556 142.764 380.705L130.713 396.902C130.564 397.201 130.365 397.301 130.116 397.301C130.166 397.301 130.116 397.301 130.116 397.301ZM125.584 390.673L130.066 395.407L141.121 380.506L131.56 373.678C129.966 378.761 126.879 388.081 125.584 390.673Z" fill="black"/>
<path d="M144.457 412.701L137.137 412.651C132.307 412.601 127.825 410.159 125.186 406.122L117.966 394.66C115.974 391.47 117.07 387.284 120.406 385.54C123.443 383.945 126.581 382.35 127.328 382.45C128.821 382.599 129.419 389.726 129.419 389.726L135.942 389.975C135.942 389.975 139.179 403.381 141.967 404.876C144.009 405.973 145.453 407.617 146.449 409.113C147.445 410.658 146.3 412.701 144.457 412.701Z" fill="black"/>
<path d="M143.71 410.608C143.66 410.608 143.66 410.608 143.611 410.608L133.602 409.112C131.112 408.764 128.971 407.318 127.676 405.126L118.862 390.374C118.663 390.025 118.763 389.576 119.111 389.327C119.46 389.128 119.908 389.228 120.157 389.576L128.971 404.328C130.016 406.072 131.809 407.269 133.801 407.568L143.81 409.063C144.208 409.112 144.507 409.511 144.457 409.91C144.407 410.358 144.109 410.608 143.71 410.608Z" fill="white"/>
<path d="M131.361 399.494C131.012 399.494 130.713 399.295 130.664 398.946C130.564 398.547 130.813 398.148 131.211 398.049L136.788 396.554C137.187 396.454 137.585 396.703 137.685 397.102C137.784 397.501 137.535 397.899 137.137 397.999L131.56 399.494C131.51 399.494 131.46 399.494 131.361 399.494Z" fill="white"/>
<path d="M134.299 402.335C133.951 402.335 133.652 402.086 133.552 401.787C133.453 401.388 133.702 400.989 134.1 400.89L137.835 399.993C138.233 399.893 138.631 400.142 138.731 400.541C138.831 400.94 138.582 401.338 138.183 401.438L134.449 402.335C134.399 402.335 134.349 402.335 134.299 402.335Z" fill="white"/>
<path d="M162.184 387.483L174.932 400.341L181.704 397.849L169.902 381.453L162.184 387.483Z" fill="white"/>
<path d="M174.932 401.089C174.733 401.089 174.534 400.989 174.384 400.889L161.636 388.031C161.487 387.882 161.387 387.682 161.437 387.433C161.437 387.234 161.537 387.035 161.736 386.885L169.504 380.805C169.654 380.655 169.853 380.606 170.052 380.655C170.251 380.705 170.45 380.805 170.55 380.954L182.302 397.351C182.451 397.55 182.501 397.799 182.401 397.999C182.351 398.198 182.152 398.397 181.953 398.497L175.181 400.989C175.081 401.089 175.031 401.089 174.932 401.089ZM163.28 387.583L175.131 399.494L180.509 397.5L169.753 382.499L163.28 387.583Z" fill="black"/>
<path d="M170.898 398.348C170.898 398.348 170.301 403.83 171.347 408.614C171.894 411.206 174.235 413 176.824 413H208.146C210.386 413 211.382 410.209 209.689 408.764C204.112 404.079 193.854 396.953 181.256 394.859L177.72 399.793L170.898 398.348Z" fill="black"/>
<path d="M206.652 409.412H174.185C173.787 409.412 173.438 409.063 173.438 408.664C173.438 408.265 173.787 407.917 174.185 407.917H206.652C207.05 407.917 207.399 408.265 207.399 408.664C207.399 409.113 207.05 409.412 206.652 409.412Z" fill="white"/>
<path d="M188.526 403.681C188.427 403.681 188.327 403.681 188.228 403.631C187.829 403.481 187.68 403.033 187.829 402.634L189.572 398.448C189.722 398.049 190.17 397.9 190.568 398.049C190.966 398.199 191.116 398.647 190.966 399.046L189.224 403.182C189.124 403.481 188.825 403.681 188.526 403.681Z" fill="white"/>
<path d="M194.203 404.777C194.103 404.777 194.054 404.777 193.954 404.727C193.556 404.578 193.356 404.179 193.456 403.78L194.701 399.993C194.85 399.594 195.249 399.394 195.647 399.494C196.045 399.644 196.245 400.042 196.145 400.441L194.9 404.229C194.801 404.578 194.502 404.777 194.203 404.777Z" fill="white"/>
<path d="M94.6116 297.727C94.6116 297.727 152.922 290.949 170.301 305.95C187.63 320.951 142.913 385.59 142.913 385.59L128.771 375.074L142.166 329.423L88.2378 314.123L94.6116 297.727Z" fill="black"/>
<path d="M62.4935 327.43C70.9587 330.121 86.1464 333.609 107.309 333.31C113.335 333.211 118.912 336.55 121.601 341.932C127.875 354.242 141.469 376.419 163.578 390.822L174.135 385.141L147.146 324.39C144.706 318.858 140.075 314.522 134.398 312.429L80.9676 292.793C80.9676 292.793 64.3857 288.158 56.269 302.96C54.825 305.601 52.136 300.866 51.4887 303.009C49.2977 310.335 55.2233 325.137 62.4935 327.43Z" fill="black"/>
<path d="M159.396 352.547C159.097 352.547 158.848 352.398 158.698 352.099L146.499 324.638C144.108 319.306 139.627 315.12 134.149 313.076L108.554 303.657C108.156 303.507 107.957 303.109 108.106 302.71C108.256 302.311 108.654 302.112 109.052 302.262L134.647 311.681C140.473 313.824 145.303 318.309 147.843 324.04L160.043 351.501C160.192 351.899 160.043 352.298 159.645 352.497C159.595 352.547 159.495 352.547 159.396 352.547Z" fill="white"/>
<path d="M145.154 376.17C144.955 376.17 144.756 376.07 144.606 375.921C142.166 373.379 139.726 370.638 137.436 367.748C137.187 367.449 137.237 366.95 137.535 366.701C137.834 366.452 138.332 366.502 138.581 366.801C140.872 369.641 143.262 372.333 145.702 374.874C146.001 375.173 146.001 375.622 145.702 375.921C145.552 376.07 145.353 376.17 145.154 376.17Z" fill="white"/>
<path d="M138.033 368.047C137.834 368.047 137.585 367.947 137.436 367.748C136.29 366.353 135.145 364.907 134.05 363.412C133.801 363.063 133.85 362.615 134.199 362.366C134.548 362.117 134.996 362.166 135.245 362.515C136.34 363.96 137.436 365.406 138.581 366.801C138.83 367.1 138.78 367.599 138.481 367.848C138.382 367.997 138.183 368.047 138.033 368.047Z" fill="white"/>
<path d="M107.857 250.581C107.857 250.581 112.986 297.179 147.445 300.269L107.857 300.817C107.857 300.817 93.2176 271.114 92.62 259.502C92.0225 247.94 107.857 250.581 107.857 250.581Z" fill="white"/>
<path d="M107.857 301.514C107.559 301.514 107.31 301.365 107.21 301.116C106.612 299.92 92.4705 271.114 91.873 259.552C91.7236 256.512 92.6199 254.119 94.5121 252.425C99.0435 248.388 107.608 249.784 108.007 249.833C108.355 249.883 108.604 250.132 108.604 250.481C108.604 250.581 109.949 262.193 115.426 273.955C122.746 289.653 133.502 298.225 147.495 299.471C147.893 299.521 148.192 299.87 148.192 300.219C148.192 300.617 147.843 300.916 147.445 300.916L107.857 301.514ZM104.222 251.029C101.483 251.029 97.7986 251.478 95.508 253.521C93.9644 254.917 93.2174 256.91 93.3668 259.452C93.9146 270.017 106.563 296.381 108.355 300.019L140.125 299.571C129.12 296.282 120.207 287.759 114.082 274.553C109.202 264.087 107.559 253.721 107.21 251.229C106.563 251.129 105.517 251.029 104.222 251.029Z" fill="black"/>
<path d="M58.8585 220.928C65.5311 219.333 68.3197 219.333 92.6199 220.23C98.5455 220.429 105.617 227.905 106.314 233.786C104.421 239.467 95.7072 267.426 110.945 289.254C113.086 292.344 116.024 295.733 120.057 299.023C117.816 300.867 114.281 303.259 109.55 304.654C101.732 306.996 97.7488 304.455 91.4746 304.654C74.7433 305.152 68.6184 323.792 57.8626 321.449C54.9745 320.801 51.1402 318.559 47.6047 311.033C45.5631 304.754 43.7705 297.428 42.7746 289.105C40.0358 266.579 44.5174 247.84 48.501 236.078C49.5965 232.39 50.941 222.772 58.8585 220.928Z" fill="#FF5252"/>
<path d="M112.389 255.764C112.389 255.764 108.455 224.217 97.1514 221.526L99.7407 262.99L112.389 255.764Z" fill="#FF5252"/>
<path d="M38.2434 254.618C38.1438 258.356 38.1936 261.794 38.343 264.585C39.3389 282.477 41.7789 301.365 43.223 316.964C43.5217 320.253 38.2932 315.818 31.521 315.868C29.579 315.868 27.6868 316.565 26.1929 317.811C23.4541 320.054 18.6738 323.991 19.2215 323.991H44.1193C48.0531 323.991 51.2898 320.901 51.489 316.964L54.8253 247.491L38.2434 254.618Z" fill="white"/>
<path d="M44.1689 324.739H18.7233L18.5242 324.241C18.325 323.593 18.2254 323.394 25.7943 317.264C27.4376 315.918 29.529 315.171 31.5706 315.171C34.7575 315.171 37.6456 316.118 39.7371 316.815C40.8326 317.164 42.1272 317.613 42.5256 317.513C42.5256 317.463 42.5754 317.364 42.5256 317.114C42.0774 312.33 41.5297 307.247 40.9819 301.864C39.6873 289.704 38.3428 277.095 37.6456 264.686C37.4963 261.995 37.4465 258.655 37.5461 254.669V254.17L55.6716 246.346L52.2855 317.015C52.0366 321.351 48.5011 324.739 44.1689 324.739ZM20.9143 323.244H44.1191C47.6545 323.244 50.5427 320.453 50.7419 316.915L54.0284 248.638L38.9901 255.117C38.9403 258.805 38.9403 261.995 39.0897 264.536C39.7869 276.896 41.1313 289.455 42.426 301.615C42.9738 306.997 43.5215 312.031 44.0195 316.865C44.0693 317.663 43.9199 318.211 43.4717 318.56C42.6252 319.257 41.2807 318.809 39.2889 318.111C37.2971 317.463 34.5583 316.566 31.6204 316.566C29.8775 316.566 28.1347 317.214 26.7404 318.31C23.5535 320.952 21.8107 322.397 20.9143 323.244Z" fill="black"/>
<path d="M54.8749 247.392C49.6961 249.584 43.6211 252.176 38.293 254.468C38.293 254.518 38.293 254.618 38.293 254.668L54.8749 247.491V247.392Z" fill="white"/>
<path d="M37.4961 255.764L37.5459 253.92L37.994 253.721C42.5752 251.727 48.1523 249.385 54.576 246.644L55.6715 246.195L55.5719 247.94L37.4961 255.764Z" fill="black"/>
<path d="M35.355 261.545C35.355 261.545 36.4505 242.806 38.0937 235.58C41.4798 220.38 61.1989 220.18 61.1989 220.18L57.763 258.904L35.355 261.545Z" fill="#FF5252"/>
<path d="M78.1792 220.23L78.8266 210.761C79.2747 210.711 79.5735 210.711 79.6731 210.711C82.3123 210.661 83.1588 209.814 83.4078 207.671C83.5572 206.326 83.607 204.282 82.9596 201.79C82.9098 201.541 82.9098 201.242 83.0094 200.993L83.4576 199.946C83.5572 199.598 83.4078 199.249 83.1588 198.999L82.9098 198.8C82.0633 198.102 81.3164 197.205 80.7686 196.258C80.2208 195.361 79.3245 193.717 78.727 193.418C76.9841 192.57 69.963 188.883 66.0291 195.361C62.9418 200.395 67.9711 207.272 69.8136 209.565C70.2617 210.113 66.8258 220.828 66.8258 220.828L62.394 221.875C62.394 221.875 65.7801 227.905 76.1376 225.413C83.5074 223.619 82.3123 220.878 82.3123 220.878L78.1792 220.23Z" fill="white"/>
<path d="M71.3572 226.759C64.3858 226.759 61.8462 222.423 61.7467 222.224C61.6471 222.024 61.5973 221.775 61.6969 221.576C61.7965 221.376 61.9956 221.227 62.1948 221.127L66.1785 220.18C67.5727 215.745 68.967 210.911 69.0168 209.814C66.7262 206.924 62.145 200.096 65.3319 194.913C68.0707 190.378 72.6519 189.63 78.8265 192.62L79.0257 192.72C79.7228 193.069 80.3702 194.115 81.1669 195.461L81.4159 195.86C81.9636 196.807 82.6608 197.554 83.4077 198.202L83.6567 198.401C84.1546 198.8 84.4036 199.498 84.2044 200.146C84.2044 200.196 84.2044 200.196 84.1546 200.245L83.7065 201.292C83.6567 201.392 83.6567 201.491 83.7065 201.641C84.2542 203.734 84.4036 205.727 84.2044 207.821C83.9057 210.462 82.6608 211.509 79.7228 211.558C79.673 211.558 79.6232 211.558 79.5735 211.558L78.9759 219.682L82.4616 220.18C82.7106 220.23 82.9595 220.38 83.0591 220.629C83.1089 220.728 83.4077 221.526 82.9097 222.523C82.113 224.068 79.922 225.313 76.3865 226.161C74.4445 226.559 72.8013 226.759 71.3572 226.759ZM63.6887 222.273C65.0332 223.719 68.6184 226.41 75.9882 224.616C79.9718 223.669 81.1669 222.473 81.5155 221.825C81.6151 221.675 81.6151 221.576 81.6649 221.476L78.0796 220.928C77.6812 220.878 77.4322 220.529 77.4322 220.13L78.0796 210.661C78.1294 210.312 78.3784 210.013 78.7767 209.964C79.2747 209.914 79.5735 209.914 79.673 209.914C82.0134 209.864 82.4616 209.266 82.6608 207.522C82.86 205.628 82.7106 203.784 82.2126 201.89C82.113 201.441 82.113 200.993 82.3122 200.594L82.7106 199.597C82.7106 199.548 82.7106 199.498 82.6608 199.448L82.4118 199.249C81.5155 198.501 80.7187 197.604 80.0714 196.508L79.8224 196.109C79.4739 195.511 78.6771 194.165 78.3286 193.966L78.1294 193.866C76.1376 192.919 70.0127 189.929 66.5768 195.611C63.8381 200.096 68.2699 206.425 70.3115 208.967C70.6103 209.316 71.0086 209.814 67.4731 220.928C67.3736 221.177 67.1744 221.376 66.9254 221.426L63.6887 222.273Z" fill="black"/>
<path d="M68.1705 187.088C70.0627 186.69 72.2537 186.989 73.1998 186.64C74.6937 186.092 74.7435 184.297 76.7851 183.799C79.2749 183.201 80.3206 184.248 81.3165 185.743C81.4659 185.992 81.6152 186.291 81.7646 186.59C83.3581 190.826 81.3663 192.869 80.47 193.517C80.47 193.517 74.8431 196.408 73.8969 197.255C73.0006 198.052 71.9549 199.896 72.6023 202.538C72.7019 202.887 72.5525 203.236 72.2537 203.385C71.9051 203.584 71.457 203.485 71.2578 203.136C70.5109 202.089 68.9174 200.046 67.7721 200.494C66.328 201.093 66.7762 205.379 69.9631 205.877C70.9092 206.026 71.7059 207.023 71.6064 208.02C71.5566 208.668 70.9092 209.465 70.0129 209.714C69.4651 209.864 68.8676 209.615 68.3696 209.316C66.328 208.02 60.502 202.438 59.8048 197.454C58.9085 191.474 65.6309 187.637 68.1705 187.088Z" fill="black"/>
<path d="M79.5238 211.359C79.3745 211.359 77.0341 211.259 75.341 209.814C75.0423 209.565 74.9925 209.116 75.2414 208.817C75.4904 208.518 75.9386 208.468 76.2374 208.717C77.5818 209.864 79.5238 209.963 79.5238 209.963C79.9222 209.963 80.221 210.312 80.1712 210.661C80.221 211.06 79.9222 211.359 79.5238 211.359Z" fill="black"/>
<path d="M173.04 305.002H96.0061C93.8151 305.002 92.0225 303.208 92.0225 301.016V300.417H176.974V301.016C177.023 303.208 175.231 305.002 173.04 305.002Z" fill="white"/>
<path d="M173.04 305.75H96.006C93.4166 305.75 91.2754 303.657 91.2754 301.016V300.417C91.2754 300.019 91.624 299.67 92.0223 299.67H176.973C177.372 299.67 177.72 300.019 177.72 300.417V301.016C177.77 303.657 175.629 305.75 173.04 305.75ZM92.7693 301.165C92.8688 302.859 94.2631 304.255 96.006 304.255H173.04C174.782 304.255 176.177 302.909 176.276 301.165H92.7693Z" fill="black"/>
<path d="M177.023 300.517H128.423L143.859 255.016C144.806 253.571 146.399 252.724 148.142 252.724H189.223C191.066 252.724 192.311 254.518 191.663 256.113C191.414 256.76 191.165 257.358 190.966 258.006L177.023 300.517Z" fill="white"/>
<path d="M177.023 301.265H128.423C128.174 301.265 127.975 301.165 127.825 300.966C127.676 300.767 127.626 300.517 127.726 300.268L143.162 254.767C143.162 254.717 143.212 254.667 143.262 254.617C144.308 252.973 146.15 251.976 148.142 251.976H189.223C190.368 251.976 191.364 252.524 192.012 253.421C192.609 254.318 192.759 255.415 192.36 256.412L192.161 256.96C191.962 257.408 191.812 257.857 191.663 258.305L177.72 300.767C177.621 301.066 177.322 301.265 177.023 301.265ZM129.419 299.77H176.475L190.219 257.807C190.368 257.309 190.568 256.86 190.717 256.412L190.916 255.863C191.115 255.315 191.066 254.767 190.717 254.269C190.368 253.77 189.821 253.471 189.173 253.471H148.092C146.648 253.471 145.303 254.169 144.507 255.365L129.419 299.77Z" fill="black"/>
<path d="M158.947 275.997C158.35 277.941 159.246 279.885 160.939 280.383C162.632 280.881 164.425 279.735 165.023 277.791C165.62 275.848 164.724 273.904 163.031 273.406C161.338 272.907 159.545 274.104 158.947 275.997Z" fill="#FFCBCB"/>
<path d="M164.624 301.265H137.834C137.436 301.265 137.087 300.916 137.087 300.518C137.087 300.119 137.436 299.77 137.834 299.77H164.624C165.023 299.77 165.371 300.119 165.371 300.518C165.371 300.916 165.023 301.265 164.624 301.265Z" fill="white"/>
<path d="M178.268 301.265H173.537C173.139 301.265 172.791 300.916 172.791 300.518C172.791 300.119 173.139 299.77 173.537 299.77H178.268C178.666 299.77 179.015 300.119 179.015 300.518C179.015 300.916 178.666 301.265 178.268 301.265Z" fill="white"/>
<path d="M315.903 56.9138L306.143 81.8324C302.209 92.049 316.003 106.801 336.966 114.775C357.93 122.749 378.098 120.954 382.031 110.688L391.791 85.7695L315.903 56.9138Z" fill="#FF5252"/>
<path d="M361.765 120.506C354.046 120.506 345.332 118.762 336.718 115.473C321.928 109.841 310.226 100.721 306.193 91.7002C304.55 88.0123 304.301 84.5735 305.496 81.5335L315.256 56.6149C315.405 56.2162 315.853 56.0667 316.202 56.1664L392.09 85.0719C392.289 85.1217 392.439 85.2712 392.489 85.4706C392.588 85.6699 392.588 85.8693 392.489 86.0686L382.729 110.987C380.737 116.22 374.761 119.509 365.948 120.307C364.603 120.456 363.209 120.506 361.765 120.506ZM316.301 57.9107L306.84 82.1315C305.795 84.7729 306.044 87.8129 307.537 91.152C311.372 99.724 323.024 108.745 337.216 114.127C357.781 121.951 377.55 120.307 381.334 110.489L390.796 86.268L316.301 57.9107Z" fill="black"/>
<path d="M396.821 79.0415L364.255 47.6939C363.607 47.1457 362.811 46.8467 361.964 46.8467L316.65 48.5412L301.164 42.6604L298.276 50.136C298.076 50.5845 298.176 51.1825 298.624 51.5812L344.884 91.2017C345.531 91.7499 346.328 92.049 347.175 92.049L408.224 93.2949C408.822 93.2949 409.27 92.946 409.469 92.4477L412.357 84.9721L396.821 79.0415Z" fill="#FFA8A8"/>
<path d="M408.274 93.9927C408.224 93.9927 408.224 93.9927 408.274 93.9927L347.224 92.7468C346.228 92.7468 345.233 92.3481 344.486 91.7002L298.226 52.0797C297.578 51.5315 297.329 50.6344 297.678 49.837L300.566 42.3615C300.715 41.9628 301.164 41.7634 301.512 41.9129L316.849 47.7439L362.014 46.0494C363.059 46.0494 364.055 46.4481 364.802 47.096L397.269 78.3937L412.606 84.2246C412.805 84.2745 412.955 84.424 413.004 84.6233C413.104 84.8227 413.104 85.022 413.004 85.2214L410.116 92.6969C409.817 93.4943 409.12 93.9927 408.274 93.9927ZM301.612 43.6074L298.973 50.3852C298.923 50.4849 298.873 50.7839 299.122 50.9833L345.382 90.6038C345.88 91.0523 346.527 91.2516 347.175 91.3015L408.224 92.5474C408.573 92.5474 408.722 92.2982 408.722 92.1985L411.361 85.4207L396.572 79.7393C396.472 79.6894 396.373 79.6396 396.323 79.5898L363.757 48.2422C363.308 47.8435 362.661 47.5944 362.014 47.5944L316.7 49.2888C316.6 49.2888 316.501 49.2888 316.401 49.239L301.612 43.6074Z" fill="black"/>
<path d="M411.959 83.5269L365.699 43.9064C365.051 43.3582 364.255 43.0592 363.408 43.0592L302.359 41.8132C301.164 41.8132 300.566 43.3083 301.512 44.0559L347.772 83.6764C348.42 84.2246 349.216 84.5236 350.063 84.5236L411.112 85.7696C412.307 85.7696 412.905 84.2744 411.959 83.5269Z" fill="#FF5252"/>
<path d="M411.112 86.5171L350.063 85.2711C349.067 85.2711 348.071 84.8724 347.324 84.2246L301.064 44.6041C300.417 44.0559 300.168 43.1588 300.516 42.3614C300.815 41.564 301.612 41.0158 302.458 41.0656L363.508 42.3116C364.503 42.3116 365.499 42.7103 366.246 43.3581L412.506 82.9786C413.154 83.5268 413.403 84.4239 413.054 85.2213C412.706 86.0187 412.008 86.5171 411.112 86.5171ZM302.408 42.5608C302.06 42.5608 301.96 42.8099 301.911 42.9096C301.861 43.0093 301.811 43.2585 302.06 43.5077L348.32 83.1281C348.818 83.5767 349.465 83.776 350.113 83.8259L411.162 85.0718C411.51 85.0718 411.66 84.8226 411.66 84.7229C411.71 84.6233 411.759 84.3741 411.51 84.1249L365.25 44.5044C364.752 44.0559 364.105 43.8565 363.458 43.8067L302.408 42.5608Z" fill="black"/>
<path d="M383.426 107.548C382.281 107.499 381.334 108.396 381.235 109.492L378.197 141.537L386.911 141.786L385.517 109.642C385.517 108.495 384.571 107.548 383.426 107.548Z" fill="#FFA8A8"/>
<path d="M386.911 142.484L378.147 142.235C377.948 142.235 377.749 142.135 377.6 141.986C377.45 141.836 377.4 141.637 377.4 141.437L380.438 109.392C380.587 107.847 381.882 106.701 383.426 106.751C384.969 106.801 386.214 107.997 386.264 109.542L387.658 141.687C387.658 141.886 387.608 142.085 387.459 142.235C387.31 142.434 387.111 142.484 386.911 142.484ZM378.994 140.79L386.115 140.989L384.77 109.641C384.72 108.894 384.123 108.296 383.376 108.296C382.629 108.296 381.982 108.844 381.932 109.592L378.994 140.79Z" fill="black"/>
<path d="M383.027 107.997C382.579 107.997 382.281 107.648 382.281 107.249L382.579 85.6698L356.785 62.944C356.486 62.6949 356.437 62.1965 356.735 61.8975C356.984 61.5984 357.482 61.5486 357.781 61.8476L383.874 84.7727C384.023 84.9222 384.123 85.1215 384.123 85.3209L383.824 107.249C383.774 107.698 383.476 107.997 383.027 107.997Z" fill="black"/>
<path d="M394.978 180.859C394.58 180.859 394.231 180.51 394.231 180.111V176.224C394.231 175.825 394.58 175.476 394.978 175.476C395.376 175.476 395.725 175.825 395.725 176.224V180.111C395.725 180.56 395.376 180.859 394.978 180.859Z" fill="black"/>
<path d="M394.978 189.879C394.58 189.879 394.231 189.53 394.231 189.132V185.244C394.231 184.846 394.58 184.497 394.978 184.497C395.376 184.497 395.725 184.846 395.725 185.244V189.132C395.725 189.53 395.376 189.879 394.978 189.879Z" fill="black"/>
<path d="M392.388 183.45H388.504C388.106 183.45 387.757 183.101 387.757 182.703C387.757 182.304 388.106 181.955 388.504 181.955H392.388C392.787 181.955 393.135 182.304 393.135 182.703C393.135 183.101 392.836 183.45 392.388 183.45Z" fill="black"/>
<path d="M401.401 183.45H397.517C397.119 183.45 396.77 183.101 396.77 182.703C396.77 182.304 397.119 181.955 397.517 181.955H401.401C401.799 181.955 402.148 182.304 402.148 182.703C402.148 183.101 401.799 183.45 401.401 183.45Z" fill="black"/>
<path d="M61.8461 169.895C61.4477 169.895 61.0991 169.546 61.0991 169.147V165.26C61.0991 164.861 61.4477 164.512 61.8461 164.512C62.2444 164.512 62.593 164.861 62.593 165.26V169.147C62.593 169.596 62.2444 169.895 61.8461 169.895Z" fill="black"/>
<path d="M61.8461 178.915C61.4477 178.915 61.0991 178.566 61.0991 178.168V174.28C61.0991 173.882 61.4477 173.533 61.8461 173.533C62.2444 173.533 62.593 173.882 62.593 174.28V178.168C62.593 178.566 62.2444 178.915 61.8461 178.915Z" fill="black"/>
<path d="M59.2565 172.486H55.3724C54.9741 172.486 54.6255 172.137 54.6255 171.739C54.6255 171.34 54.9741 170.991 55.3724 170.991H59.2565C59.6548 170.991 60.0034 171.34 60.0034 171.739C60.0034 172.137 59.7046 172.486 59.2565 172.486Z" fill="black"/>
<path d="M68.2697 172.486H64.3856C63.9872 172.486 63.6387 172.137 63.6387 171.739C63.6387 171.34 63.9872 170.991 64.3856 170.991H68.2697C68.668 170.991 69.0166 171.34 69.0166 171.739C69.0166 172.137 68.668 172.486 68.2697 172.486Z" fill="black"/>
<path d="M95.9061 185.394C95.6571 185.394 95.4081 185.244 95.2587 185.045C95.0596 184.696 95.1592 184.248 95.5077 183.999L132.755 161.123C133.103 160.924 133.551 161.024 133.8 161.373C134 161.721 133.9 162.17 133.551 162.419L96.3044 185.294C96.1551 185.344 96.0555 185.394 95.9061 185.394Z" fill="white"/>
<path d="M117.169 158.083C116.92 158.083 116.671 157.934 116.521 157.734C116.322 157.386 116.422 156.937 116.77 156.688L136.39 144.677C136.738 144.478 137.187 144.577 137.436 144.926C137.635 145.275 137.535 145.724 137.187 145.973L117.567 157.984C117.418 158.033 117.268 158.083 117.169 158.083Z" fill="white"/>
<path d="M217.258 248.837C217.059 248.837 216.909 248.787 216.76 248.637C216.461 248.338 216.461 247.89 216.76 247.591L219.1 245.149C219.399 244.85 219.847 244.85 220.146 245.149C220.445 245.448 220.445 245.896 220.146 246.195L217.805 248.637C217.656 248.737 217.457 248.837 217.258 248.837Z" fill="black"/>
<path d="M209.041 257.408C208.842 257.408 208.693 257.358 208.543 257.209C208.245 256.91 208.245 256.461 208.543 256.162L210.884 253.72C211.183 253.421 211.631 253.421 211.93 253.72C212.228 254.019 212.228 254.468 211.93 254.767L209.589 257.209C209.44 257.358 209.241 257.408 209.041 257.408Z" fill="black"/>
<path d="M211.382 248.937C211.183 248.937 210.983 248.887 210.834 248.738L208.444 246.395C208.145 246.096 208.145 245.648 208.444 245.349C208.743 245.05 209.191 245.05 209.49 245.349L211.88 247.691C212.178 247.99 212.178 248.439 211.88 248.738C211.73 248.887 211.531 248.937 211.382 248.937Z" fill="black"/>
<path d="M219.698 257.209C219.499 257.209 219.299 257.159 219.15 257.01L216.76 254.667C216.461 254.368 216.461 253.92 216.76 253.621C217.059 253.322 217.507 253.322 217.805 253.621L220.196 255.963C220.494 256.262 220.494 256.711 220.196 257.01C220.096 257.109 219.897 257.209 219.698 257.209Z" fill="black"/>
<path d="M238.172 232.54C237.524 232.54 236.877 232.44 236.28 232.191C234.935 231.692 233.889 230.646 233.292 229.3C232.097 226.559 233.342 223.37 236.031 222.174C237.325 221.575 238.769 221.575 240.064 222.074C241.408 222.572 242.454 223.619 243.052 224.964C244.247 227.705 243.002 230.895 240.313 232.091C239.616 232.39 238.869 232.54 238.172 232.54ZM236.628 223.519C234.686 224.416 233.79 226.709 234.686 228.702C235.084 229.649 235.881 230.397 236.827 230.795C237.773 231.144 238.819 231.144 239.715 230.696C241.657 229.799 242.554 227.506 241.657 225.513C241.259 224.566 240.462 223.818 239.516 223.419C238.57 223.071 237.524 223.12 236.628 223.519Z" fill="black"/>
<path d="M253.31 32.9921C253.11 32.9921 252.911 32.9423 252.762 32.7928L250.571 30.5999C250.272 30.3009 250.272 29.8524 250.571 29.5534C250.87 29.2543 251.318 29.2543 251.616 29.5534L253.807 31.7462C254.106 32.0452 254.106 32.4938 253.807 32.7928C253.708 32.9423 253.509 32.9921 253.31 32.9921Z" fill="black"/>
<path d="M260.928 40.6171C260.729 40.6171 260.53 40.5673 260.38 40.4178L258.189 38.2249C257.891 37.9259 257.891 37.4774 258.189 37.1784C258.488 36.8793 258.936 36.8793 259.235 37.1784L261.426 39.3712C261.725 39.6702 261.725 40.1188 261.426 40.4178C261.327 40.5673 261.127 40.6171 260.928 40.6171Z" fill="black"/>
<path d="M251.168 40.6171C250.969 40.6171 250.77 40.5673 250.621 40.4178C250.322 40.1188 250.322 39.6702 250.621 39.3712L252.812 37.1784C253.11 36.8793 253.559 36.8793 253.857 37.1784C254.156 37.4774 254.156 37.9259 253.857 38.2249L251.666 40.4178C251.567 40.5673 251.368 40.6171 251.168 40.6171Z" fill="black"/>
<path d="M258.737 32.9921C258.538 32.9921 258.339 32.9423 258.189 32.7928C257.891 32.4938 257.891 32.0452 258.189 31.7462L260.38 29.5534C260.679 29.2543 261.127 29.2543 261.426 29.5534C261.725 29.8524 261.725 30.3009 261.426 30.5999L259.235 32.7928C259.136 32.9423 258.936 32.9921 258.737 32.9921Z" fill="black"/>
<path d="M241.209 405.325C240.811 405.325 240.512 405.026 240.462 404.678C240.413 404.279 240.711 403.88 241.11 403.83C256.497 402.086 271.684 398.049 286.274 391.77C286.673 391.62 287.071 391.77 287.27 392.168C287.42 392.567 287.27 392.966 286.872 393.165C272.182 399.445 256.845 403.531 241.309 405.325C241.259 405.325 241.209 405.325 241.209 405.325Z" fill="black"/>
<path d="M244.994 394.461C244.645 394.461 244.296 394.162 244.247 393.813C244.197 393.414 244.496 393.016 244.894 392.966C263.567 390.573 281.693 384.543 298.773 375.074C299.121 374.875 299.569 375.024 299.769 375.373C299.968 375.722 299.818 376.171 299.47 376.37C282.241 385.889 263.916 391.969 245.043 394.411C245.043 394.461 245.043 394.461 244.994 394.461Z" fill="black"/>
<path d="M365.499 332.214C365.499 332.214 338.759 273.606 354.096 197.604C354.096 197.604 395.526 232.34 380.587 332.214H365.499Z" fill="#FFCBCB"/>
<path d="M380.587 332.962H365.499C365.2 332.962 364.951 332.812 364.802 332.513C364.752 332.364 358.03 317.512 353.299 293.54C348.917 271.413 345.431 236.826 353.349 197.454C353.399 197.205 353.598 197.006 353.847 196.906C354.096 196.807 354.395 196.856 354.594 197.056C355.042 197.405 365.2 206.126 373.666 227.207C381.434 246.594 389.102 280.583 381.334 332.364C381.284 332.712 380.985 332.962 380.587 332.962ZM365.997 331.466H379.94C387.459 280.383 379.94 246.893 372.271 227.755C365.449 210.711 357.333 201.79 354.594 199.099C347.025 237.673 350.511 271.562 354.793 293.291C359.026 314.771 364.852 328.875 365.997 331.466Z" fill="black"/>
<path d="M372.072 326.832C372.022 326.832 372.022 326.832 372.072 326.832C371.624 326.832 371.325 326.433 371.325 326.034C373.367 288.557 356.486 208.568 356.337 207.771C356.237 207.372 356.486 206.974 356.934 206.874C357.333 206.774 357.731 207.023 357.831 207.472C357.98 208.269 374.91 288.457 372.869 326.134C372.769 326.533 372.421 326.832 372.072 326.832Z" fill="white"/>
<path d="M392.389 236.926C392.389 236.926 357.98 299.172 378.695 326.134H389.749C389.749 326.084 411.908 277.443 392.389 236.926Z" fill="white"/>
<path d="M389.749 326.832H378.695C378.446 326.832 378.247 326.732 378.097 326.533C369.333 315.17 368.985 296.531 377.052 271.164C383.027 252.375 391.642 236.677 391.741 236.527C391.891 236.278 392.14 236.128 392.438 236.128C392.737 236.128 392.986 236.278 393.086 236.527C403.244 257.658 401.999 280.932 399.161 296.78C396.073 313.924 390.546 326.234 390.496 326.334C390.297 326.682 390.048 326.832 389.749 326.832ZM379.043 325.337H389.251C390.247 322.994 394.928 311.681 397.667 296.531C400.406 281.281 401.65 258.954 392.339 238.57C390.148 242.707 383.376 256.113 378.446 271.662C373.068 288.607 368.835 311.681 379.043 325.337Z" fill="black"/>
<path d="M383.874 328.476C383.475 328.476 383.127 328.177 383.127 327.778C382.131 302.062 391.592 237.474 391.691 236.776C391.741 236.377 392.14 236.078 392.538 236.128C392.936 236.178 393.235 236.577 393.185 236.975C393.086 237.623 383.674 302.112 384.67 327.679C384.621 328.127 384.272 328.476 383.874 328.476Z" fill="black"/>
<path d="M326.659 260.1C326.659 260.1 355.988 270.117 366.595 329.423H355.042C355.092 329.423 330.991 296.879 326.659 260.1Z" fill="white"/>
<path d="M366.595 330.171H355.042C354.793 330.171 354.594 330.071 354.444 329.872C354.195 329.523 330.194 296.73 325.912 260.199C325.862 259.95 325.961 259.701 326.161 259.551C326.36 259.402 326.609 259.352 326.858 259.402C327.157 259.502 334.476 262.093 343.191 272.061C351.158 281.181 361.814 298.524 367.342 329.323C367.391 329.523 367.342 329.772 367.192 329.921C367.043 330.071 366.844 330.171 366.595 330.171ZM355.44 328.676H365.698C360.221 298.873 349.913 282.028 342.145 273.107C335.672 265.681 329.895 262.392 327.505 261.296C331.987 295.085 353.05 325.336 355.44 328.676Z" fill="black"/>
<path d="M360.32 328.476C359.972 328.476 359.623 328.227 359.573 327.828C355.191 301.415 336.319 274.802 336.12 274.553C335.871 274.204 335.97 273.755 336.269 273.506C336.618 273.257 337.066 273.356 337.315 273.655C337.514 273.905 356.586 300.817 361.017 327.529C361.067 327.928 360.818 328.327 360.42 328.377C360.37 328.476 360.37 328.476 360.32 328.476Z" fill="black"/>
<path d="M337.962 324.738H410.315L411.958 358.976C412.356 367.399 405.684 374.376 397.268 374.376H355.938C345.979 374.376 337.962 366.302 337.962 356.335V324.738Z" fill="#FFA8A8"/>
</svg>
