<svg width="365" height="364" viewBox="0 0 365 364" fill="none" xmlns="http://www.w3.org/2000/svg">
<path d="M4.22327 298.225C15.0013 324.297 40.1206 336.652 56.1776 344.522C119.482 375.606 215.648 372.045 284.847 315.416C301.036 302.182 380.837 232.758 362.229 138.714C345.732 55.5289 263.071 7.25347 193.432 0.790371C135.759 -4.52959 60.4448 16.3985 33.8737 67.136C17.1569 99.0119 37.2611 109.168 23.6237 181.405C11.7899 243.97 -8.93028 266.349 4.22327 298.225Z" fill="#CDFFFC"/>
<path d="M348.283 260.898H76.5014C68.8908 260.898 62.7319 254.743 62.7319 247.136V35.7008C62.7319 28.0945 68.8908 21.9392 76.5014 21.9392H348.283C355.893 21.9392 362.052 28.0945 362.052 35.7008V247.092C362.096 254.743 355.893 260.898 348.283 260.898Z" fill="#A0EDE8"/>
<path d="M362.142 51.3969H62.7778V35.7447C62.7778 28.1385 68.9807 21.9392 76.5913 21.9392H348.329C355.939 21.9392 362.142 28.1385 362.142 35.7447V51.3969Z" fill="#A0EDE8"/>
<path d="M328.047 238.739H96.7376C90.4468 238.739 85.3438 233.639 85.3438 227.351V83.7123C85.3438 77.4251 90.4468 72.325 96.7376 72.325H328.09C334.381 72.325 339.484 77.4251 339.484 83.7123V227.307C339.484 233.639 334.381 238.739 328.047 238.739Z" fill="#CDFFFC"/>
<path d="M318.819 38.3567C319.456 35.6627 317.786 32.9631 315.091 32.327C312.395 31.6908 309.694 33.3591 309.058 36.0531C308.421 38.747 310.09 41.4466 312.786 42.0827C315.481 42.7188 318.183 41.0506 318.819 38.3567Z" fill="white"/>
<path d="M335.264 38.3464C335.9 35.6524 334.231 32.9528 331.536 32.3167C328.84 31.6806 326.139 33.3488 325.503 36.0428C324.866 38.7367 326.535 41.4363 329.231 42.0725C331.926 42.7086 334.627 41.0404 335.264 38.3464Z" fill="white"/>
<path d="M350.339 40.7521C352.297 38.7948 352.297 35.6213 350.339 33.6639C348.38 31.7065 345.205 31.7065 343.246 33.6639C341.288 35.6213 341.288 38.7948 343.246 40.7521C345.205 42.7095 348.38 42.7095 350.339 40.7521Z" fill="white"/>
<path d="M328.047 239.398H96.7378C90.0951 239.398 84.6841 233.99 84.6841 227.351V147.728C84.6841 147.376 84.992 147.068 85.344 147.068C85.6959 147.068 86.0038 147.376 86.0038 147.728V227.308C86.0038 233.243 90.8429 238.035 96.7378 238.035H328.091C334.03 238.035 338.869 233.199 338.869 227.308V83.7124C338.869 77.7769 334.03 72.9845 328.091 72.9845H198.711C198.359 72.9845 198.051 72.6768 198.051 72.325C198.051 71.9733 198.359 71.6655 198.711 71.6655H328.091C334.733 71.6655 340.188 77.0734 340.188 83.7124V227.308C340.144 233.99 334.733 239.398 328.047 239.398Z" fill="white"/>
<path d="M348.282 261.558H240.767C240.415 261.558 240.107 261.25 240.107 260.898C240.107 260.546 240.415 260.239 240.767 260.239H348.326C355.541 260.239 361.436 254.347 361.436 247.136V35.7008C361.436 28.4903 355.541 22.5988 348.326 22.5988H198.534C198.182 22.5988 197.875 22.291 197.875 21.9393C197.875 21.5876 198.182 21.2798 198.534 21.2798H348.326C356.289 21.2798 362.756 27.7429 362.756 35.7008V247.093C362.756 255.094 356.245 261.558 348.282 261.558Z" fill="black"/>
<path d="M178.342 135.901H15.3086C10.2055 135.901 6.07031 131.768 6.07031 126.668V10.0243C6.07031 4.92413 10.2055 0.79126 15.3086 0.79126H178.342C183.445 0.79126 187.581 4.92413 187.581 10.0243V126.668C187.581 131.768 183.445 135.901 178.342 135.901Z" fill="white"/>
<path d="M170.028 17.8504H139.102C137.826 17.8504 136.771 16.7952 136.771 15.5202C136.771 14.2451 137.826 13.1899 139.102 13.1899H170.028C171.304 13.1899 172.36 14.2451 172.36 15.5202C172.36 16.7952 171.304 17.8504 170.028 17.8504Z" fill="#CDFFFC"/>
<path d="M176.671 27.743H132.371C131.095 27.743 130.04 26.6878 130.04 25.4128C130.04 24.1377 131.095 23.0825 132.371 23.0825H176.627C177.903 23.0825 178.958 24.1377 178.958 25.4128C179.002 26.7318 177.947 27.743 176.671 27.743Z" fill="#CDFFFC"/>
<path d="M176.759 46.3409H132.547C131.271 46.3409 130.215 45.2857 130.215 44.0107C130.215 42.7356 131.271 41.6804 132.547 41.6804H176.803C178.078 41.6804 179.134 42.7356 179.134 44.0107C179.09 45.3297 178.078 46.3409 176.759 46.3409Z" fill="#CDFFFC"/>
<path d="M176.627 55.3099H133.339C132.063 55.3099 131.007 54.2547 131.007 52.9796C131.007 51.7046 132.063 50.6494 133.339 50.6494H176.627C177.903 50.6494 178.958 51.7046 178.958 52.9796C178.958 54.2547 177.903 55.3099 176.627 55.3099Z" fill="#CDFFFC"/>
<path d="M176.935 64.3672H133.647C132.371 64.3672 131.315 63.312 131.315 62.037C131.315 60.762 132.371 59.7068 133.647 59.7068H176.935C178.211 59.7068 179.266 60.762 179.266 62.037C179.222 63.356 178.211 64.3672 176.935 64.3672Z" fill="#CDFFFC"/>
<path d="M176.759 73.3363H132.547C131.271 73.3363 130.215 72.281 130.215 71.006C130.215 69.731 131.271 68.6758 132.547 68.6758H176.803C178.078 68.6758 179.134 69.731 179.134 71.006C179.09 72.281 178.078 73.3363 176.759 73.3363Z" fill="#CDFFFC"/>
<path d="M176.627 82.5692H132.371C131.095 82.5692 130.04 81.514 130.04 80.2389C130.04 78.9639 131.095 77.9087 132.371 77.9087H176.627C177.903 77.9087 178.958 78.9639 178.958 80.2389C178.958 81.514 177.903 82.5692 176.627 82.5692Z" fill="#CDFFFC"/>
<path d="M148.604 37.4595H132.503C131.227 37.4595 130.171 36.4043 130.171 35.1293C130.171 33.8543 131.227 32.7991 132.503 32.7991H148.604C149.88 32.7991 150.936 33.8543 150.936 35.1293C150.892 36.4043 149.88 37.4595 148.604 37.4595Z" fill="#CDFFFC"/>
<path d="M176.891 37.4595H159.866C158.59 37.4595 157.535 36.4043 157.535 35.1293C157.535 33.8543 158.59 32.7991 159.866 32.7991H176.891C178.167 32.7991 179.223 33.8543 179.223 35.1293C179.223 36.4043 178.167 37.4595 176.891 37.4595Z" fill="#CDFFFC"/>
<path d="M61.7199 89.9117H18.124C16.8483 89.9117 15.7925 88.8565 15.7925 87.5815C15.7925 86.3064 16.8483 85.2512 18.124 85.2512H61.7199C62.9957 85.2512 64.0515 86.3064 64.0515 87.5815C64.0515 88.9004 62.9957 89.9117 61.7199 89.9117Z" fill="#CDFFFC"/>
<path d="M103.116 89.7798H69.7266C68.4508 89.7798 67.395 88.7246 67.395 87.4496C67.395 86.1746 68.4508 85.1194 69.7266 85.1194H103.116C104.392 85.1194 105.448 86.1746 105.448 87.4496C105.448 88.7246 104.392 89.7798 103.116 89.7798Z" fill="#CDFFFC"/>
<path d="M48.6985 80.283H17.9922C16.7164 80.283 15.6606 79.2278 15.6606 77.9528C15.6606 76.6778 16.7164 75.6226 17.9922 75.6226H48.7425C50.0182 75.6226 51.0741 76.6778 51.0741 77.9528C51.0301 79.2278 49.9743 80.283 48.6985 80.283Z" fill="#CDFFFC"/>
<path d="M103.248 129.262H18.7842C16.9805 129.262 15.5728 127.811 15.5728 126.052V99.3646C15.5728 97.562 17.0245 96.155 18.7842 96.155H103.248C105.052 96.155 106.46 97.6059 106.46 99.3646V126.052C106.46 127.855 105.008 129.262 103.248 129.262Z" fill="#CDFFFC"/>
<path d="M177.463 129.262H117.018C115.214 129.262 113.807 127.811 113.807 126.052V99.3646C113.807 97.562 115.258 96.155 117.018 96.155H177.419C179.222 96.155 180.63 97.6059 180.63 99.3646V126.052C180.674 127.811 179.222 129.262 177.463 129.262Z" fill="#CDFFFC"/>
<path d="M120.713 64.1913H19.0921C17.1565 64.1913 15.5728 62.6085 15.5728 60.674V16.5754C15.5728 14.6409 17.1565 13.0581 19.0921 13.0581H120.713C122.649 13.0581 124.233 14.6409 124.233 16.5754V60.674C124.233 62.6525 122.649 64.1913 120.713 64.1913Z" fill="#A0EDE8"/>
<path d="M159.118 136.56H15.3088C9.85382 136.56 5.41064 132.12 5.41064 126.668V10.0243C5.41064 4.57247 9.85382 0.131836 15.3088 0.131836H178.342C183.797 0.131836 188.241 4.57247 188.241 10.0243V95.4076C188.241 95.7593 187.933 96.0671 187.581 96.0671C187.229 96.0671 186.921 95.7593 186.921 95.4076V10.0243C186.921 5.3199 183.094 1.45084 178.342 1.45084H15.3088C10.5577 1.45084 6.7304 5.27594 6.7304 10.0243V126.668C6.7304 131.372 10.5577 135.241 15.3088 135.241H159.118C159.47 135.241 159.778 135.549 159.778 135.901C159.778 136.253 159.47 136.56 159.118 136.56Z" fill="black"/>
<path d="M329.059 238.651C328.619 236.452 328.223 234.826 327.871 233.287C325.187 221.856 322.284 212.535 320.216 206.247L314.497 185.451L244.11 198.245C244.11 198.245 241.823 213.59 237.16 238.651H329.059Z" fill="black"/>
<path d="M253.217 236.013C260.959 236.013 265.974 227.615 262.499 220.449C261.707 218.822 260.915 217.151 260.123 215.568C254.184 203.609 237.204 206.203 235.092 219.481C235.048 219.701 234.564 219.965 234.564 220.185C233.464 228.582 239.931 236.013 248.158 236.013H253.217Z" fill="black"/>
<path d="M303.983 87.6256C344.192 98.6612 349.911 112.291 349.911 141.836C349.911 167.601 323.384 181.758 323.384 181.758C323.384 181.758 336.141 224.23 328.927 228.363C321.756 232.496 311.902 234.782 300.904 230.649C278.952 222.295 244.727 212.887 234.476 220.185C234.476 220.185 250.709 151.465 236.676 124.865C236.676 124.865 202.494 115.896 232.189 95.5835C250.929 82.7892 285.419 82.5255 303.983 87.6256Z" fill="#1DBFB5"/>
<path d="M243.187 131.636C233.772 132.735 202.054 142.276 187.097 140.034C170.204 137.528 151.992 107.015 146.801 97.694C145.745 95.8034 145.393 93.6051 145.789 91.4947C146.405 88.1972 147.944 83.5367 151.464 81.5142C154.411 79.8435 159.91 76.9857 165.101 82.6134C165.101 82.6134 178.123 102.926 193.784 103.41C208.873 103.893 225.458 83.4048 272.001 85.3393L243.187 131.636Z" fill="#1DBFB5"/>
<path d="M156.655 101.959C151.992 101.959 149 96.8587 148.868 96.6388C148.692 96.3311 148.78 95.9354 149.132 95.7595C149.44 95.5836 149.836 95.6716 150.012 95.9793C150.056 96.0233 152.784 100.64 156.655 100.64C156.699 100.64 156.699 100.64 156.743 100.64C159.778 100.596 162.77 97.8259 165.717 92.3741C165.893 92.0663 166.289 91.9344 166.597 92.1103C166.905 92.2861 167.037 92.6818 166.861 92.9896C163.693 98.8811 160.306 101.915 156.743 101.959C156.699 101.959 156.699 101.959 156.655 101.959Z" fill="black"/>
<path d="M286.87 169.228C286.606 169.228 286.387 169.096 286.255 168.832C286.123 168.48 286.255 168.128 286.563 167.953C301.388 161.094 308.602 151.025 312.034 143.771C315.729 135.901 315.949 129.614 315.949 129.526C315.949 129.174 316.257 128.866 316.609 128.866C316.961 128.866 317.269 129.174 317.269 129.526C317.269 129.79 317.049 136.121 313.266 144.211C309.746 151.641 302.356 162.017 287.134 169.052C287.046 169.184 286.958 169.228 286.87 169.228Z" fill="#CDFFFC"/>
<path d="M293.469 189.936C293.118 189.936 292.81 189.628 292.81 189.277C292.81 188.925 293.118 188.617 293.469 188.617C311.682 188.397 323.736 181.627 323.824 181.583C324.132 181.407 324.528 181.495 324.704 181.846C324.88 182.154 324.792 182.55 324.44 182.726C324.352 182.77 312.034 189.716 293.469 189.936Z" fill="#CDFFFC"/>
<path d="M276.532 188.089C276.532 188.089 280.271 188.485 287.706 186.638C293.293 185.231 291.665 167.073 284.847 171.997C279.172 176.13 275.828 176.658 275.828 176.658L270.329 173.932C268.174 172.877 265.842 172.173 263.511 171.865C254.052 170.766 254.624 172.921 254.624 172.921C254.228 175.119 255.02 175.471 256.736 176.174L264.126 179.296C265.138 179.735 265.402 181.142 264.566 181.89C263.291 183.077 261.795 184 260.211 184.66C257.308 185.803 252.205 187.649 246.97 188.837C244.506 189.408 243.714 192.442 246.002 193.585L262.323 194.772C266.458 195.08 270.549 193.629 273.629 190.771L276.532 188.089Z" fill="white"/>
<path d="M263.379 195.476C262.983 195.476 262.631 195.476 262.235 195.432L245.914 194.244C245.826 194.244 245.738 194.201 245.65 194.157C244.418 193.541 243.802 192.442 243.978 191.167C244.154 189.716 245.298 188.529 246.794 188.221C252.117 187.034 257.308 185.099 259.947 184.044C261.487 183.429 262.895 182.549 264.127 181.406C264.347 181.186 264.435 180.879 264.391 180.571C264.347 180.263 264.127 180.043 263.863 179.911L256.472 176.79C254.756 176.042 253.481 175.515 253.92 172.877C253.92 172.613 254.008 172.261 254.272 171.953C255.284 170.81 258.32 170.546 263.555 171.162C265.974 171.47 268.35 172.173 270.593 173.272L275.872 175.91C276.664 175.735 279.7 174.811 284.407 171.426C286.298 170.063 287.75 170.371 288.63 170.942C291.182 172.481 292.105 177.713 291.489 181.626C291.006 184.748 289.686 186.814 287.794 187.254C281.459 188.837 277.764 188.793 276.708 188.749L274.069 191.255C271.121 193.981 267.294 195.476 263.379 195.476ZM246.134 192.925L262.323 194.113C266.238 194.42 270.197 193.013 273.145 190.287L276.048 187.606C276.18 187.474 276.356 187.43 276.576 187.43C276.62 187.43 280.316 187.781 287.53 185.979C288.85 185.627 289.862 184 290.258 181.406C290.874 177.493 289.774 173.141 288.014 172.041C287.222 171.558 286.342 171.69 285.243 172.481C279.48 176.658 276.092 177.229 275.96 177.229C275.828 177.229 275.696 177.229 275.564 177.185L270.065 174.46C267.954 173.404 265.71 172.745 263.423 172.481C256.472 171.646 255.372 172.701 255.284 172.833C255.284 172.877 255.284 172.921 255.284 173.009C254.976 174.679 255.284 174.811 257 175.559L264.391 178.68C265.094 178.988 265.578 179.604 265.71 180.351C265.842 181.098 265.578 181.89 265.05 182.373C263.687 183.605 262.147 184.572 260.475 185.231C257.22 186.506 252.249 188.309 247.146 189.452C246.046 189.716 245.43 190.551 245.342 191.299C245.21 192.002 245.518 192.574 246.134 192.925Z" fill="black"/>
<path d="M119.79 54.6504C120.142 53.5513 121.241 52.9357 122.297 53.1556C125.289 53.8151 140.73 57.2005 143.633 57.86C146.493 58.5195 146.625 61.7291 148.252 64.6748C149.66 67.2249 154.587 76.5898 159.954 83.0968C161.582 85.0753 161.802 87.8892 160.526 90.0875C159.822 91.3626 158.898 92.6376 157.799 93.385C155.027 95.2756 152.915 97.5619 147.285 84.152C146.933 83.3167 146.361 82.6132 145.613 82.1296C144.557 81.4261 142.929 80.1951 141.346 78.3045C141.346 78.3045 131.975 89.7798 129.556 66.4774C129.336 64.411 130.26 62.3886 132.019 61.3773C132.151 61.2894 132.283 61.2015 132.459 61.1135L121.197 57.5083C120.01 57.2005 119.394 55.8815 119.79 54.6504Z" fill="white"/>
<path d="M154.807 95.4956C154.543 95.4956 154.279 95.4516 153.971 95.3637C151.815 94.7482 149.66 91.4507 146.668 84.416C146.361 83.7125 145.877 83.097 145.261 82.7013C144.249 82.0418 142.797 80.9426 141.301 79.3159C140.246 80.3711 137.782 82.4375 135.187 81.6461C131.931 80.6788 129.776 75.6227 128.852 66.6095C128.632 64.587 129.424 62.6085 130.875 61.4214L120.933 58.2558C120.229 58.036 119.614 57.5084 119.262 56.8049C118.91 56.1015 118.822 55.2661 119.086 54.4747C119.57 53.0678 120.977 52.2324 122.341 52.5402C127.356 53.6393 141.038 56.673 143.677 57.2446C146.009 57.7722 146.8 59.7067 147.592 61.7732C147.944 62.6085 148.252 63.4879 148.736 64.3672C148.912 64.631 149.088 65.0267 149.308 65.4224C151.2 68.8518 155.599 76.8977 160.35 82.6573C162.11 84.8117 162.374 87.9333 161.01 90.3955C160.086 92.0222 159.118 93.2093 158.106 93.9128L157.754 94.1766C156.875 94.8361 155.907 95.4956 154.807 95.4956ZM141.345 77.6891C141.521 77.6891 141.741 77.777 141.829 77.9089C143.369 79.7116 144.953 80.9426 145.965 81.6021C146.8 82.1737 147.46 82.9651 147.856 83.8884C150.54 90.2636 152.651 93.605 154.279 94.0887C155.115 94.3525 155.863 93.8688 156.963 93.0774L157.358 92.8136C158.238 92.2421 159.074 91.1869 159.866 89.736C161.01 87.7135 160.79 85.2074 159.338 83.4487C154.543 77.6012 150.056 69.4673 148.164 65.994C147.944 65.5543 147.724 65.2026 147.592 64.9388C147.064 64.0155 146.712 63.0922 146.361 62.2128C145.525 60.0585 144.953 58.8274 143.369 58.4757C140.73 57.8601 127.092 54.8704 122.033 53.7712C121.285 53.5954 120.537 54.035 120.317 54.8264C120.185 55.2661 120.229 55.7058 120.405 56.1015C120.581 56.4972 120.933 56.761 121.285 56.8929L132.547 60.4981C132.811 60.5861 132.987 60.8059 132.987 61.0697C133.031 61.3335 132.855 61.5973 132.635 61.7292C132.503 61.8171 132.371 61.8611 132.239 61.949C130.743 62.8284 129.908 64.587 130.128 66.4336C131.227 76.9417 133.647 79.7995 135.495 80.3711C138.046 81.1185 140.73 77.9529 140.73 77.9089C140.994 77.777 141.169 77.6891 141.345 77.6891Z" fill="black"/>
<path d="M143.501 73.7322C143.369 73.7322 143.281 73.6883 143.149 73.6443C142.401 73.2046 141.037 72.2374 140.465 71.8417C137.386 69.6433 135.67 67.445 134.922 66.3458C134.395 65.5544 134.087 64.6311 134.131 63.7518C134.175 61.9931 135.362 61.5535 135.846 61.3776C137.738 60.7181 140.729 62.5207 141.081 62.6966C141.389 62.8725 141.477 63.3121 141.301 63.6199C141.125 63.9277 140.685 64.0156 140.377 63.8397C139.322 63.1802 137.298 62.3009 136.286 62.6526C135.846 62.8285 135.494 62.9164 135.45 63.7958C135.45 64.4113 135.626 65.0708 136.022 65.6424C136.726 66.6976 138.31 68.72 141.213 70.7865C141.653 71.0942 143.061 72.1055 143.809 72.5451C144.117 72.721 144.249 73.1167 144.029 73.4684C143.941 73.6004 143.721 73.7322 143.501 73.7322Z" fill="black"/>
<path d="M141.478 79.14C141.302 79.14 141.126 79.052 140.994 78.9201C138.442 76.1942 138.574 73.2924 138.618 73.1605C138.662 72.8088 138.97 72.501 139.322 72.545C139.674 72.5889 139.982 72.8967 139.938 73.2484C139.938 73.3364 139.85 75.7106 141.961 77.9968C142.225 78.2606 142.181 78.7003 141.917 78.9201C141.829 79.052 141.654 79.14 141.478 79.14Z" fill="black"/>
<path d="M289.377 86.9221L288.366 59.3989L269.053 69.5552L269.273 86.966C269.405 90.8351 272.617 92.9895 272.617 92.9895C276.576 95.9792 282.075 95.4516 286.122 92.5498L287.046 91.8903C288.586 90.7472 289.465 88.9006 289.377 86.9221Z" fill="white"/>
<path d="M278.732 95.6715C276.356 95.6715 274.069 94.968 272.177 93.5171C272.045 93.4292 268.746 91.1429 268.57 86.9661L268.35 69.5553C268.35 69.2915 268.482 69.0716 268.702 68.9837L288.014 58.8274C288.234 58.7395 288.454 58.7395 288.63 58.8274C288.806 58.9593 288.938 59.1352 288.938 59.355L289.95 86.8781C290.038 89.0765 289.07 91.1429 287.31 92.374L286.386 93.0335C284.099 94.7921 281.371 95.6715 278.732 95.6715ZM269.713 69.951L269.933 86.9221C270.065 90.3955 272.925 92.4179 272.969 92.4179C276.444 95.0559 281.679 94.8801 285.726 91.9783L286.65 91.3188C288.058 90.3075 288.806 88.6808 288.718 86.9221L287.75 60.4542L269.713 69.951Z" fill="black"/>
<path d="M260.255 27.8749C265.402 27.5671 258.935 33.019 277.984 27.3033C285.594 25.0171 281.723 34.1182 283.703 33.5466C291.005 31.3922 290.741 31.4362 294.305 32.4035C296.68 33.019 298.176 37.5036 297.736 40.8451C297.164 45.2417 293.601 46.3849 290.478 55.6618C288.278 62.1689 288.806 66.1699 286.254 67.0932C283.703 68.0604 281.767 64.4991 278.908 65.3345C275.168 66.4337 275.916 73.0726 272.265 75.8425C269.977 77.6012 264.654 78.3926 256.076 74.1278C254.668 73.4244 253.964 71.7976 254.404 70.3027C254.932 68.3242 255.592 65.8621 256.428 63.5319C260.431 52.4962 264.258 49.9901 262.851 47.1323C260.739 42.7356 252.689 45.2857 251.325 41.6804C250.049 37.9433 253.216 28.2706 260.255 27.8749Z" fill="black"/>
<path d="M278.248 46.8686L276.752 49.6825C276.048 51.0015 275.432 52.4084 274.948 53.8154C273.981 56.4973 272.177 60.9819 271.165 63.532C267.954 71.7098 258.188 62.7406 258.188 62.7406L257.528 60.4983L256.208 59.9267C255.944 59.8388 255.724 59.6629 255.548 59.4431C255.108 58.8715 255.108 58.1241 255.504 57.5965C257.484 54.6068 261.575 47.8799 263.027 41.8564C263.071 41.8564 271.473 39.6581 278.248 46.8686Z" fill="white"/>
<path d="M266.81 67.6208C262.675 67.6208 258.012 63.4 257.792 63.1802C257.704 63.0923 257.66 63.0043 257.616 62.8724L257.044 60.9379L256.032 60.4982C255.636 60.3224 255.328 60.1025 255.108 59.7948C254.536 59.0473 254.492 57.9921 255.02 57.2007C256.78 54.5627 261.003 47.7039 262.455 41.6805C262.499 41.4607 262.675 41.2408 262.939 41.1969C263.291 41.1089 271.781 38.9546 278.82 46.3849C278.996 46.6048 279.04 46.9125 278.908 47.1324L277.412 49.9462C276.752 51.2652 276.136 52.6282 275.652 53.9912C274.949 55.9257 273.805 58.8715 272.837 61.2457C272.485 62.169 272.133 63.0043 271.869 63.7078C271.077 65.7742 269.758 67.0493 268.042 67.445C267.602 67.5769 267.206 67.6208 266.81 67.6208ZM258.804 62.3448C259.639 63.0923 264.347 67.0053 267.69 66.2139C268.966 65.9061 269.934 64.9389 270.549 63.3121C270.813 62.6086 271.165 61.7733 271.517 60.85C272.441 58.4758 273.629 55.53 274.289 53.6394C274.817 52.1885 275.433 50.7816 276.136 49.4186L277.412 47.0005C271.825 41.3727 265.182 42.1641 263.555 42.4719C262.015 48.3634 258.188 54.6946 256.032 57.9921C255.812 58.3439 255.812 58.7396 256.076 59.0913C256.164 59.2232 256.34 59.3111 256.472 59.3551L257.792 59.9267C257.968 60.0146 258.1 60.1465 258.188 60.3224L258.804 62.3448Z" fill="black"/>
<path d="M276.18 56.7609C276.18 56.7609 279.7 49.946 282.383 52.2763C285.023 54.5625 280.975 61.9929 276.18 56.7609Z" fill="white"/>
<path d="M263.071 58.1239C262.279 58.1239 261.575 57.8601 261.047 57.3325C260.079 56.3652 259.639 54.6945 259.815 52.1444C259.947 50.1659 260.475 48.9788 261.575 48.4952C262.367 48.1434 263.203 48.1434 263.907 48.4512C264.522 48.715 264.962 49.1547 265.182 49.7262C266.37 52.9358 265.886 55.5738 265.006 56.9807C264.566 57.6842 264.039 58.0799 263.467 58.1678C263.335 58.1239 263.203 58.1239 263.071 58.1239ZM262.807 49.5504C262.587 49.5504 262.323 49.5943 262.059 49.7262C261.487 49.99 261.179 50.8254 261.091 52.2323C260.959 54.8703 261.487 55.9695 261.927 56.4092C262.279 56.7169 262.719 56.8488 263.291 56.8049C263.335 56.8049 263.599 56.629 263.907 56.1454C264.566 55.0022 264.874 52.8479 263.907 50.2099C263.863 50.034 263.687 49.8581 263.335 49.6823C263.203 49.5943 263.027 49.5504 262.807 49.5504Z" fill="black"/>
<path d="M279.392 51.6608C279.348 51.6608 279.348 51.6608 279.304 51.6608L263.159 49.5504C262.807 49.5064 262.543 49.1547 262.587 48.8029C262.631 48.4512 262.939 48.1874 263.335 48.2314L279.48 50.3418C279.832 50.3857 280.096 50.7375 280.052 51.0892C280.008 51.4409 279.7 51.6608 279.392 51.6608Z" fill="black"/>
<path d="M256.032 56.4092C255.944 56.4092 255.856 56.4092 255.768 56.3653C255.372 56.1894 255.02 55.5739 254.712 54.6506C254.228 53.0678 254.052 50.6936 255.064 48.847C255.416 48.1875 255.988 47.7918 256.648 47.6599C258.231 47.3521 260.035 48.759 260.211 48.8909C260.475 49.1108 260.519 49.5504 260.299 49.8142C260.079 50.078 259.639 50.122 259.375 49.9022C258.979 49.5944 257.748 48.759 256.868 48.9349C256.692 48.9789 256.428 49.0668 256.208 49.4625C254.976 51.6169 255.944 54.7385 256.384 55.1782C256.692 55.354 256.78 55.7058 256.648 56.0135C256.516 56.2773 256.296 56.4092 256.032 56.4092Z" fill="black"/>
<path d="M154.895 230.166C161.625 230.166 167.08 224.713 167.08 217.987C167.08 211.261 161.625 205.808 154.895 205.808C148.165 205.808 142.709 211.261 142.709 217.987C142.709 224.713 148.165 230.166 154.895 230.166Z" fill="#A0EDE8"/>
<path d="M194.795 230.166C201.525 230.166 206.981 224.713 206.981 217.987C206.981 211.261 201.525 205.808 194.795 205.808C188.065 205.808 182.609 211.261 182.609 217.987C182.609 224.713 188.065 230.166 194.795 230.166Z" fill="#A0EDE8"/>
<path d="M190.748 222.735V213.283C190.748 212.799 191.276 212.491 191.672 212.711L201.13 217.371C201.614 217.591 201.614 218.295 201.13 218.515L191.672 223.307C191.232 223.527 190.748 223.219 190.748 222.735Z" fill="white"/>
<path d="M234.696 230.166C241.426 230.166 246.882 224.713 246.882 217.987C246.882 211.261 241.426 205.808 234.696 205.808C227.966 205.808 222.51 211.261 222.51 217.987C222.51 224.713 227.966 230.166 234.696 230.166Z" fill="#A0EDE8"/>
<path d="M238.699 222.647C238.523 222.647 238.347 222.603 238.215 222.471L230.077 214.337C229.813 214.074 229.813 213.678 230.077 213.414C230.341 213.15 230.737 213.15 231.001 213.414L239.139 221.548C239.403 221.812 239.403 222.207 239.139 222.471C239.051 222.603 238.875 222.647 238.699 222.647Z" fill="white"/>
<path d="M230.561 222.647C230.385 222.647 230.209 222.603 230.077 222.471C229.813 222.207 229.813 221.812 230.077 221.548L238.215 213.414C238.479 213.15 238.875 213.15 239.139 213.414C239.403 213.678 239.403 214.074 239.139 214.337L231.001 222.471C230.913 222.603 230.737 222.647 230.561 222.647Z" fill="white"/>
<path d="M176.319 169.843C176.099 169.843 175.879 169.755 175.747 169.535C175.571 169.228 175.659 168.832 175.967 168.612L197.567 154.719C197.875 154.543 198.271 154.631 198.491 154.938C198.667 155.246 198.579 155.642 198.271 155.862L176.671 169.711C176.583 169.799 176.451 169.843 176.319 169.843Z" fill="white"/>
<path d="M147.636 188.265C147.416 188.265 147.196 188.177 147.064 187.958C146.888 187.65 146.976 187.254 147.284 187.034L166.861 174.46C167.169 174.284 167.564 174.372 167.784 174.68C167.96 174.987 167.872 175.383 167.564 175.603L147.988 188.177C147.9 188.221 147.768 188.265 147.636 188.265Z" fill="white"/>
<path d="M166.332 191.431C166.113 191.431 165.893 191.343 165.761 191.123C165.585 190.815 165.673 190.419 165.981 190.2L216.263 157.884C216.571 157.708 216.967 157.796 217.187 158.104C217.363 158.412 217.275 158.807 216.967 159.027L166.684 191.343C166.596 191.387 166.464 191.431 166.332 191.431Z" fill="white"/>
<path d="M106.988 282.266L45.3557 281.651C34.2258 281.651 24.6795 274.396 22.7439 263.316L12.1859 203.478C10.9101 196.355 16.3651 189.804 23.5358 189.804H63.7443L106.988 282.266Z" fill="#A0EDE8"/>
<path d="M70.2109 355.427H60.0488V281.562L70.2109 281.958V355.427Z" fill="#A0EDE8"/>
<path d="M89.0833 343.072H43.4638C36.3371 343.072 30.5742 348.831 30.5742 355.954H101.973C101.973 348.831 96.21 343.072 89.0833 343.072Z" fill="#A0EDE8"/>
<path d="M28.8149 236.673C28.5069 236.673 28.243 236.453 28.155 236.145L23.052 207.083C23.008 206.731 23.2279 206.38 23.5799 206.336C23.9318 206.292 24.2837 206.512 24.3277 206.863L29.4748 235.925C29.5188 236.277 29.2988 236.629 28.9469 236.673C28.9029 236.673 28.8589 236.673 28.8149 236.673Z" fill="#CDFFFC"/>
<path d="M86.8401 141.573C90.8873 141.221 93.7028 144.914 95.9903 150.498C97.838 155.07 97.1341 158.851 94.6266 161.358C86.5321 169.447 77.7777 192.794 65.768 199.916C56.2218 205.588 36.1615 204.533 26.9232 192.794C18.1249 181.626 16.8051 165.446 26.7473 158.148C35.6776 151.597 44.036 162.808 53.5383 156.741C62.9085 150.762 62.7326 145.749 68.2755 142.848C74.1704 139.726 75.3582 142.628 86.8401 141.573Z" fill="black"/>
<path d="M144.557 319.417C144.469 319.769 148.604 338.631 148.604 338.631L139.102 337.048L136.243 321.088L144.557 319.417Z" fill="#1DBFB5"/>
<path d="M143.545 332.431C144.117 331.948 144.953 331.464 146.009 331.42C147.593 331.332 149.044 332.344 149.704 333.794C151.332 337.444 155.687 347.644 156.919 355.954C157.359 358.899 155.115 361.274 151.684 359.339C146.009 356.173 138.134 348.919 134.043 338.235C133.559 337.004 133.735 335.597 134.527 334.542C135.143 333.663 136.023 332.607 137.035 331.728C138.003 330.893 139.41 330.849 140.422 331.684L141.302 332.431C141.918 333.003 142.886 333.003 143.545 332.431Z" fill="white"/>
<path d="M154.016 360.702C153.268 360.702 152.388 360.482 151.376 359.911C145.393 356.569 137.563 349.227 133.427 338.455C132.855 337.004 133.075 335.377 133.999 334.146C134.835 333.003 135.715 332.036 136.595 331.244C137.783 330.189 139.586 330.145 140.818 331.157L141.698 331.904C142.138 332.256 142.71 332.256 143.15 331.904C143.985 331.201 144.997 330.805 146.009 330.761C147.813 330.673 149.572 331.816 150.32 333.531C152.08 337.488 156.347 347.512 157.579 355.866C157.843 357.625 157.227 359.295 155.995 360.131C155.599 360.394 154.939 360.702 154.016 360.702ZM138.706 331.772C138.266 331.772 137.783 331.948 137.431 332.256C136.639 332.959 135.803 333.882 135.011 334.982C134.351 335.861 134.219 337.004 134.615 338.015C138.618 348.435 146.185 355.558 151.948 358.768C153.224 359.471 154.411 359.559 155.203 359.031C155.995 358.46 156.391 357.317 156.215 356.042C155.027 347.864 150.804 337.971 149.044 334.058C148.473 332.827 147.241 331.992 145.965 332.08C145.217 332.124 144.513 332.388 143.897 332.915C142.974 333.663 141.654 333.663 140.774 332.915L139.894 332.168C139.586 331.904 139.146 331.772 138.706 331.772Z" fill="black"/>
<path d="M154.763 357.404C154.015 357.404 145.877 356.921 136.111 337.663C135.935 337.356 136.067 336.96 136.419 336.784C136.727 336.608 137.123 336.74 137.299 337.092C146.933 356.173 154.675 356.129 154.763 356.129C155.159 356.129 155.423 356.393 155.467 356.745C155.467 357.097 155.203 357.404 154.851 357.448C154.807 357.404 154.807 357.404 154.763 357.404Z" fill="black"/>
<path d="M148.692 346.853C148.428 346.853 148.165 346.677 148.077 346.413C147.945 346.061 148.121 345.71 148.428 345.578L152.916 343.819C153.268 343.687 153.62 343.863 153.752 344.171C153.883 344.523 153.708 344.874 153.4 345.006L148.912 346.765C148.868 346.853 148.78 346.853 148.692 346.853Z" fill="black"/>
<path d="M147.109 343.423C146.845 343.423 146.581 343.247 146.493 342.984C146.361 342.632 146.537 342.28 146.889 342.148L152.168 340.082C152.52 339.95 152.872 340.126 153.004 340.478C153.136 340.829 152.96 341.181 152.608 341.313L147.329 343.379C147.285 343.423 147.197 343.423 147.109 343.423Z" fill="black"/>
<path d="M104.085 319.33C103.997 319.461 103.469 321.704 103.073 325.441C102.369 331.64 109.364 337.4 109.364 337.4L92.8667 335.158L93.4826 320.78L104.085 319.33Z" fill="#1DBFB5"/>
<path d="M96.6503 331.025C97.6181 330.717 97.3981 329.222 98.19 328.518C99.3778 327.463 100.873 327.463 102.281 328.211C105.845 330.013 115.567 335.157 121.682 340.829C123.837 342.852 123.617 346.105 119.746 346.809C113.367 347.952 102.721 347.336 92.867 341.62C91.7232 340.961 90.9753 339.774 90.9313 338.455C90.8874 337.4 90.9313 333.794 91.1513 332.475C91.3713 331.2 92.4711 330.277 93.7468 330.277H94.8906C95.7704 330.277 95.8144 331.288 96.6503 331.025Z" fill="white"/>
<path d="M113.983 347.908C107.692 347.908 99.9058 346.413 92.5592 342.148C91.1955 341.357 90.3596 339.994 90.3156 338.455C90.2716 337.356 90.3156 333.751 90.5356 332.344C90.7995 330.761 92.1633 329.618 93.791 329.618H94.9348C95.5946 329.618 95.9906 330.013 96.2545 330.233C96.2985 330.277 96.3865 330.365 96.4305 330.409C96.4305 330.409 96.4305 330.409 96.4745 330.409C96.6504 330.365 96.7824 330.101 96.9584 329.574C97.1343 329.046 97.3103 328.475 97.7942 328.035C99.114 326.892 100.874 326.716 102.633 327.595C106.461 329.53 116.051 334.63 122.21 340.346C123.529 341.577 124.057 343.203 123.661 344.61C123.397 345.446 122.606 346.941 119.922 347.424C118.162 347.732 116.183 347.908 113.983 347.908ZM93.747 330.937C92.7792 330.937 91.9873 331.64 91.8113 332.563C91.5914 333.838 91.5474 337.356 91.5914 338.411C91.6354 339.51 92.2513 340.477 93.1751 341.005C102.765 346.545 113.147 347.292 119.614 346.105C121.066 345.841 122.034 345.182 122.298 344.215C122.562 343.247 122.166 342.148 121.242 341.269C115.215 335.685 105.757 330.673 101.973 328.738C101.05 328.299 99.7299 327.947 98.5861 328.958C98.3661 329.134 98.2341 329.53 98.1022 329.925C97.8822 330.541 97.6623 331.332 96.7824 331.64C95.9466 331.904 95.4627 331.42 95.2427 331.156C95.0667 330.981 94.9788 330.937 94.8468 330.937H93.747C93.791 330.937 93.747 330.937 93.747 330.937Z" fill="black"/>
<path d="M113.851 345.05C109.672 345.05 103.337 343.907 94.1868 339.818C93.8349 339.686 93.7029 339.29 93.8349 338.939C93.9668 338.587 94.3628 338.455 94.7147 338.587C113.939 347.204 120.098 342.324 120.142 342.28C120.406 342.06 120.846 342.06 121.066 342.368C121.286 342.632 121.286 343.071 121.022 343.291C120.846 343.379 118.866 345.05 113.851 345.05Z" fill="black"/>
<path d="M109.232 339.115C109.144 339.115 109.012 339.071 108.924 339.027C108.616 338.851 108.484 338.455 108.66 338.147L111.036 333.927C111.212 333.619 111.608 333.487 111.916 333.663C112.224 333.839 112.356 334.234 112.18 334.542L109.804 338.763C109.716 338.983 109.452 339.115 109.232 339.115Z" fill="black"/>
<path d="M105.889 337.444C105.757 337.444 105.669 337.4 105.537 337.356C105.229 337.18 105.141 336.74 105.317 336.433L108 332.036C108.176 331.728 108.616 331.64 108.924 331.816C109.232 331.992 109.32 332.432 109.144 332.739L106.461 337.136C106.329 337.312 106.109 337.444 105.889 337.444Z" fill="black"/>
<path d="M59.3893 246.784C59.3893 246.784 117.151 244.278 123.441 250.126C132.02 258.084 146.713 324.254 146.713 324.254L132.504 328.255C132.504 328.255 111.08 273.956 105.801 273.956C100.478 273.956 50.5029 272.153 50.5029 272.153L59.3893 246.784Z" fill="black"/>
<path d="M47.9953 244.982C47.9953 244.982 40.3847 267.317 46.4556 271.406C52.5265 275.495 96.2104 275.143 94.6706 274.615C93.1749 274.088 90.7554 311.196 90.7554 325.485L104.525 326.012C104.525 326.012 126.433 268.636 124.101 262.217C119.878 250.742 87.9839 246.872 77.6018 245.334C75.4462 245.026 47.9953 244.982 47.9953 244.982Z" fill="black"/>
<path d="M116.843 294.005C116.755 294.005 116.711 294.005 116.623 293.961C116.271 293.829 116.095 293.477 116.183 293.125C116.667 291.587 117.151 290.048 117.634 288.597C121.462 276.726 124.805 266.526 123.441 262.437C120.582 253.731 98.806 250.39 91.6353 249.291C91.2834 249.247 91.0194 248.895 91.0634 248.543C91.1074 248.191 91.4593 247.928 91.8113 247.972C104.569 249.95 121.858 253.555 124.629 261.997C126.125 266.482 122.913 276.418 118.822 288.992C118.338 290.487 117.854 291.982 117.37 293.521C117.37 293.829 117.107 294.005 116.843 294.005Z" fill="#CDFFFC"/>
<path d="M54.8577 177.186C54.8577 177.186 55.0776 173.493 52.79 211.92C52.79 211.92 54.3737 241.641 54.5497 244.983C54.7257 248.324 83.8043 246.873 83.8043 246.873C87.2356 231.793 86.8837 214.514 84.4641 196.048L89.4352 195.608L89.7871 184.001C88.8633 180.571 85.08 178.109 82.5285 177.23C75.7538 174.152 63.656 175.12 54.8577 177.186Z" fill="white"/>
<path d="M70.7828 247.884C70.2989 247.884 69.771 247.884 69.2871 247.884C55.9136 247.796 54.022 246.477 53.934 245.07C53.758 241.773 52.1743 212.271 52.1743 212.007C52.1743 211.963 52.1743 211.963 52.1743 211.919C53.1421 195.784 53.67 187.078 53.934 182.418C54.066 180.088 54.1539 178.769 54.1979 178.021C54.1979 177.713 54.2419 177.494 54.2419 177.318C54.2419 177.274 54.2419 177.274 54.2419 177.23V177.142C54.3299 176.658 54.4619 176.482 54.9018 176.482C54.9018 176.482 54.9898 176.482 55.0778 176.526C63.5242 174.592 75.7099 173.449 82.8366 176.614C85.2122 177.45 89.4794 179.956 90.4912 183.869C90.4912 183.913 90.5352 184.001 90.4912 184.045L90.1392 195.652C90.1392 196.004 89.8753 196.267 89.5234 196.267L85.2122 196.663C87.8077 216.976 87.5437 233.463 84.4643 247.049C84.4203 247.357 84.1564 247.532 83.8484 247.576C83.8044 247.576 77.4696 247.884 70.7828 247.884ZM53.4501 211.919C53.4941 213.107 55.0338 241.685 55.2098 244.938C55.2977 245.07 56.2656 246.477 69.727 246.521C75.6659 246.565 81.5608 246.301 83.2765 246.213C86.268 232.716 86.4439 216.316 83.8044 196.091C83.7604 195.916 83.8484 195.74 83.9364 195.608C84.0684 195.476 84.2003 195.388 84.3763 195.344L88.7755 194.948L89.0834 184.001C88.2476 181.099 84.9922 178.725 82.2647 177.757H82.2207C75.446 174.724 63.7002 175.823 55.4297 177.669C55.3857 179.472 54.9458 186.287 53.4501 211.919Z" fill="black"/>
<path d="M92.1188 246.477L90.843 185.232C90.4031 182.374 89.3913 181.231 87.0157 179.604C86.0919 178.989 84.4642 178.285 83.1444 178.021C83.1444 178.021 82.4845 177.626 82.3086 181.363C82.2206 183.165 84.5522 203.302 84.9481 220.537C85.256 232.584 83.4524 243.136 83.5403 245.466C83.5403 245.642 91.5029 247.225 92.0308 246.697L92.1188 246.477Z" fill="#1DBFB5"/>
<path d="M72.2347 209.545C72.0147 209.545 71.7508 209.413 71.6628 209.193C71.4868 208.885 71.6188 208.49 71.9268 208.314C78.7455 204.709 79.1854 194.596 79.1854 194.508C79.1854 194.157 79.4933 193.849 79.8893 193.893C80.2412 193.893 80.5491 194.201 80.5052 194.596C80.5052 195.036 80.0212 205.588 72.5426 209.545C72.4547 209.501 72.3227 209.545 72.2347 209.545Z" fill="black"/>
<path d="M59.7849 176.702C59.7849 176.702 52.7902 175.911 48.2591 182.066C43.7719 188.177 43.244 195.168 44.0799 200.752C45.5316 210.249 51.5145 221.108 51.2065 224.054C51.0746 225.505 49.5349 235.705 43.7719 244.806C39.0208 252.325 39.2408 268.9 40.1646 269.428C46.4114 273.077 56.6615 280.463 68.8473 281.343C71.0908 281.519 72.9385 280.331 73.2464 278.529C74.5662 271.23 78.0415 250.126 78.5695 230.297C79.0094 213.15 66.7796 187.078 66.2517 184.836C64.976 179.384 59.7849 176.702 59.7849 176.702Z" fill="#1DBFB5"/>
<path d="M66.1638 222.604C71.8827 235.662 82.0888 238.739 98.8057 240.982L97.002 245.906C72.0147 249.027 67.3076 244.103 57.1895 230.869L66.1638 222.604Z" fill="#1DBFB5"/>
<path d="M90.3154 199.785C91.5911 210.556 108.484 226.56 117.546 230.078L111.475 234.65C103.645 234.914 93.4388 225.901 89.9194 222.691L90.3154 199.785Z" fill="#1DBFB5"/>
<path d="M107.208 231.441C107.428 231.001 107.824 230.649 108.308 230.473C108.66 230.341 108.968 230.209 109.32 230.034L113.719 227.703C114.555 227.308 115.743 228.231 116.579 228.539C119.174 229.374 124.541 231.397 124.101 233.287C123.617 235.31 118.998 234.342 117.371 233.947C116.975 233.859 113.587 235.09 112.531 235.178C111.036 235.31 110.728 234.914 109.98 234.518C109.628 234.342 109.276 234.254 108.88 234.254C108.264 234.254 107.692 233.991 107.296 233.507C106.856 232.979 106.812 232.276 107.12 231.66L107.208 231.441Z" fill="white"/>
<path d="M112.047 235.749C110.992 235.749 110.508 235.486 109.98 235.178C109.892 235.134 109.804 235.046 109.672 235.002C109.452 234.87 109.188 234.826 108.88 234.826C108.044 234.826 107.296 234.474 106.812 233.859C106.241 233.111 106.109 232.1 106.548 231.265L106.636 231.089C106.944 230.473 107.472 230.034 108.088 229.814C108.352 229.726 108.66 229.594 109.012 229.418L113.411 227.088C114.291 226.648 115.259 227.132 116.051 227.528C116.315 227.659 116.579 227.791 116.799 227.879C125.377 230.693 124.893 232.716 124.761 233.375C124.629 233.903 124.321 234.342 123.837 234.606C122.298 235.573 119.13 234.958 117.326 234.518C117.063 234.562 116.183 234.826 115.567 235.002C114.423 235.354 113.279 235.705 112.619 235.749C112.399 235.749 112.223 235.749 112.047 235.749ZM114.159 228.231C114.115 228.231 114.027 228.231 113.983 228.275L109.584 230.605C109.188 230.825 108.836 231.001 108.484 231.089C108.176 231.221 107.912 231.441 107.78 231.748L107.692 231.924C107.516 232.276 107.56 232.76 107.824 233.067C108.088 233.375 108.484 233.551 108.88 233.551C109.408 233.551 109.848 233.683 110.288 233.903C110.42 233.947 110.508 234.035 110.64 234.079C111.124 234.386 111.432 234.518 112.487 234.474C112.971 234.43 114.159 234.079 115.127 233.815C116.799 233.331 117.194 233.199 117.502 233.287C120.142 233.947 122.254 234.035 123.089 233.551C123.265 233.419 123.353 233.331 123.397 233.111C123.529 232.496 121.77 230.957 116.315 229.154C116.007 229.066 115.699 228.891 115.391 228.759C115.039 228.495 114.511 228.231 114.159 228.231Z" fill="black"/>
<path d="M53.758 255.095C51.9544 255.095 49.9747 254.743 47.8191 253.864C47.4672 253.732 47.3352 253.336 47.4672 252.984C47.5992 252.633 47.9951 252.501 48.347 252.633C59.477 257.117 65.1519 247.005 65.3719 246.565C65.5478 246.257 65.9437 246.126 66.2517 246.301C66.5596 246.477 66.6916 246.873 66.5156 247.181C66.4716 247.269 62.1165 255.095 53.758 255.095Z" fill="#CDFFFC"/>
<path d="M91.6791 223.703C91.3271 223.703 91.0192 223.439 91.0192 223.087L90.4033 206.38C90.4033 206.028 90.6673 205.72 91.0192 205.676C91.3711 205.676 91.6791 205.94 91.7231 206.292L92.339 222.999C92.339 223.395 92.075 223.703 91.6791 223.703C91.7231 223.703 91.6791 223.703 91.6791 223.703Z" fill="#CDFFFC"/>
<path d="M83.1886 247.489C76.8537 247.489 73.7743 246.126 69.8151 244.411C68.8032 243.971 67.7914 243.532 66.6476 243.048C63.2603 241.685 60.7967 239.575 58.6851 236.233C57.7173 234.694 56.8815 233.067 56.0896 231.485C55.3857 230.078 54.6819 228.671 53.846 227.308C53.6701 227 53.758 226.604 54.066 226.385C54.3739 226.209 54.7699 226.297 54.9898 226.604C55.8257 228.011 56.5735 229.462 57.2774 230.869C58.0692 232.408 58.8611 234.035 59.8289 235.53C61.7646 238.651 64.0521 240.586 67.1755 241.817C68.3633 242.3 69.3751 242.74 70.3869 243.18C75.534 245.422 78.9654 246.917 90.0073 245.73C90.9751 245.642 94.5824 245.686 95.3743 245.686C95.7262 245.686 96.0342 245.994 95.9902 246.389C95.9902 246.741 95.6822 247.049 95.2863 247.005C94.3185 246.961 90.8871 246.961 90.1393 247.005C87.4118 247.357 85.1682 247.489 83.1886 247.489Z" fill="#CDFFFC"/>
<path d="M78.1737 235.882C78.0857 235.882 77.9537 235.838 77.8657 235.794L73.9065 233.771L73.8185 233.683C71.267 230.825 69.3753 225.857 67.7036 220.977C67.5716 220.625 67.7916 220.273 68.0996 220.142C68.4515 220.01 68.8034 220.23 68.9354 220.537C70.5631 225.242 72.3668 229.99 74.6983 232.716L78.4376 234.651C78.7456 234.826 78.8775 235.222 78.7456 235.53C78.6576 235.75 78.3936 235.882 78.1737 235.882Z" fill="#CDFFFC"/>
<path d="M94.8026 243.268C95.0226 242.828 95.4185 242.476 95.9024 242.3C96.2544 242.169 96.5623 242.037 96.9143 241.861L101.313 239.531C102.149 239.135 103.337 240.058 104.173 240.366C106.768 241.201 112.135 243.224 111.695 245.114C111.212 247.137 106.592 246.17 104.965 245.774C104.569 245.686 101.181 246.917 100.126 247.005C98.6299 247.137 98.322 246.741 97.5741 246.345C97.2222 246.17 96.8703 246.082 96.4743 246.082C95.8584 246.082 95.2866 245.818 94.8906 245.334C94.4507 244.807 94.4067 244.103 94.7147 243.488L94.8026 243.268Z" fill="white"/>
<path d="M99.6417 247.62C98.5859 247.62 98.102 247.357 97.5741 247.049C97.4861 247.005 97.3981 246.917 97.2661 246.873C97.0462 246.741 96.7822 246.697 96.4743 246.697C95.6384 246.697 94.8906 246.345 94.4067 245.73C93.8348 244.982 93.7028 243.971 94.1427 243.136L94.2307 242.96C94.5386 242.344 95.0665 241.905 95.6824 241.685C95.9464 241.597 96.2543 241.465 96.6063 241.289L101.005 238.959C101.885 238.519 102.853 239.003 103.645 239.399C103.909 239.531 104.173 239.662 104.393 239.75C112.971 242.564 112.487 244.587 112.355 245.246C112.223 245.774 111.915 246.214 111.431 246.477C109.892 247.445 106.724 246.829 104.921 246.389C104.657 246.433 103.777 246.697 103.161 246.873C102.017 247.225 100.873 247.577 100.214 247.62C99.9936 247.62 99.8177 247.62 99.6417 247.62ZM95.4185 243.576L95.3305 243.751C95.1545 244.103 95.1985 244.587 95.4625 244.895C95.7264 245.202 96.1223 245.378 96.5183 245.378C97.0462 245.378 97.4861 245.51 97.926 245.73C98.058 245.774 98.146 245.862 98.2779 245.906C98.7618 246.214 99.0698 246.345 100.126 246.301C100.61 246.258 101.797 245.906 102.765 245.642C104.437 245.158 104.833 245.026 105.141 245.114C107.78 245.774 109.892 245.862 110.728 245.378C110.904 245.246 110.992 245.158 111.036 244.938C111.168 244.323 109.408 242.784 103.953 240.981C103.645 240.894 103.337 240.718 103.029 240.586C102.545 240.322 101.885 240.014 101.577 240.146L97.1781 242.476C96.7822 242.696 96.4303 242.828 96.0784 242.96C95.8144 243.004 95.5504 243.268 95.4185 243.576Z" fill="black"/>
<path d="M91.8991 169.227C92.515 169.14 92.9109 168.568 92.779 167.952C91.9431 164.171 92.2511 157.752 92.1191 157.928C90.7553 159.907 87.9839 157.444 84.0246 157.269C81.649 157.181 80.7252 158.588 80.3733 159.731C80.2413 160.082 79.7574 160.17 79.5374 159.863C78.9655 158.983 77.9537 158.192 76.502 159.687C74.8743 161.314 76.238 165.095 77.7338 166.37C77.3818 166.765 71.7069 172.877 67.3957 177.449C66.5159 178.373 66.6478 179.823 67.6596 180.571L71.5309 183.517C73.9505 185.363 77.2498 185.451 79.8014 183.824L80.4173 183.429C81.0331 183.033 81.1211 182.154 80.6372 181.626L79.4494 180.395C78.4816 179.252 78.6576 177.845 79.2735 176.658L81.649 172.613C82.1769 173.272 82.8808 174.02 83.5407 174.46C84.8164 175.339 86.4001 175.207 87.4999 174.152C89.0397 172.701 90.0955 171.03 90.5794 169.447L91.8991 169.227Z" fill="white"/>
<path d="M75.8861 185.539C74.2144 185.539 72.5427 185.012 71.135 183.956L67.2637 181.011C66.6478 180.527 66.2519 179.824 66.1639 179.032C66.1199 178.241 66.3839 177.493 66.9118 176.922C70.6511 172.965 75.4022 167.865 76.8539 166.326C75.9301 165.227 75.2262 163.512 75.1382 161.973C75.0942 160.786 75.4022 159.819 76.0621 159.159C76.8099 158.412 77.5578 158.06 78.3056 158.148C78.9215 158.192 79.4494 158.544 79.8894 159.115C80.3293 157.972 81.4291 156.477 84.0686 156.565C85.7403 156.653 87.236 157.093 88.4238 157.445C90.3594 158.06 91.1073 158.192 91.5912 157.489C91.7671 157.269 92.0751 157.137 92.339 157.225C92.8229 157.357 92.8229 157.576 92.8229 159.027C92.8229 161.006 92.8229 165.095 93.3948 167.733C93.4828 168.216 93.3948 168.7 93.1309 169.096C92.8669 169.491 92.427 169.755 91.9431 169.843L91.0193 169.975C90.4474 171.558 89.3476 173.141 87.8959 174.548C86.5321 175.823 84.5965 175.998 83.1007 174.943C82.7048 174.636 82.2209 174.24 81.693 173.668L79.7574 176.922C79.4494 177.581 78.9655 178.856 79.8454 179.912L80.9891 181.143C81.3851 181.538 81.561 182.066 81.4731 182.637C81.3851 183.165 81.1211 183.649 80.6372 183.956L80.0213 184.352C78.8335 185.144 77.3378 185.539 75.8861 185.539ZM78.1297 159.467C77.7338 159.467 77.3378 159.819 77.0299 160.083C76.546 160.566 76.458 161.358 76.502 161.885C76.59 163.468 77.4258 165.139 78.2177 165.798C78.3496 165.93 78.4376 166.062 78.4376 166.238C78.4376 166.414 78.3936 166.59 78.2617 166.722C77.9097 167.117 72.3228 173.141 67.8796 177.801C67.6156 178.109 67.4397 178.505 67.4837 178.9C67.5277 179.296 67.7036 179.692 68.0556 179.912L71.9268 182.857C74.1264 184.528 77.1179 184.616 79.4054 183.165L80.0213 182.769C80.1973 182.637 80.2413 182.506 80.2413 182.418C80.2413 182.33 80.2413 182.154 80.1093 182.022L78.9215 180.791C77.9097 179.56 77.8217 177.933 78.6576 176.306L81.0771 172.217C81.1651 172.041 81.3851 171.91 81.605 171.91C81.825 171.91 82.0449 171.998 82.1769 172.129C82.8808 172.965 83.4527 173.536 83.9366 173.888C84.9484 174.592 86.1802 174.504 87.06 173.624C88.5117 172.261 89.5236 170.722 89.9635 169.184C90.0515 168.92 90.2274 168.744 90.4914 168.744L91.8111 168.568C91.9871 168.524 92.0751 168.436 92.0751 168.392C92.1191 168.348 92.1631 168.216 92.1191 168.084C91.5032 165.359 91.5032 161.27 91.5032 159.203C90.5354 159.511 89.3036 159.159 88.0278 158.764C86.8401 158.412 85.5203 157.972 83.9806 157.928C82.4409 157.884 81.4291 158.544 80.9891 159.907C80.8572 160.346 80.5052 160.61 80.0653 160.698C79.6254 160.742 79.2295 160.566 78.9655 160.214C78.7896 159.907 78.4816 159.555 78.0857 159.511C78.1297 159.467 78.1297 159.467 78.1297 159.467Z" fill="black"/>
<path d="M80.8569 171.514L81.6048 172.569L80.8569 171.514Z" fill="white"/>
<path d="M81.649 173.229C81.429 173.229 81.253 173.141 81.1211 172.965L80.3732 171.91C80.1532 171.602 80.2412 171.206 80.5052 170.986C80.8131 170.767 81.2091 170.855 81.429 171.118L82.1769 172.174C82.3968 172.481 82.3088 172.877 82.0449 173.097C81.9129 173.185 81.7809 173.229 81.649 173.229Z" fill="black"/>
<path d="M118.822 245.202L132.195 205.764C132.987 204.533 134.395 203.786 135.891 203.786H171.568C173.196 203.786 174.208 205.368 173.68 206.731C173.46 207.303 173.24 207.831 173.064 208.402L161.01 245.246C160.966 247.401 159.206 249.159 157.051 249.159H91.239C89.0395 249.159 87.2798 247.401 87.2798 245.202H118.822Z" fill="#A0EDE8"/>
<path d="M157.051 249.819H91.2393C88.6877 249.819 86.6201 247.752 86.6201 245.202C86.6201 244.85 86.9281 244.543 87.28 244.543H118.382L131.624 205.544C131.624 205.5 131.668 205.456 131.712 205.412C132.636 203.961 134.219 203.126 135.979 203.126H171.656C172.624 203.126 173.548 203.566 174.076 204.401C174.604 205.148 174.736 206.16 174.384 206.995L174.208 207.479C174.032 207.874 173.9 208.27 173.768 208.622L161.714 245.422C161.582 247.84 159.515 249.819 157.051 249.819ZM87.9839 245.862C88.2918 247.356 89.6116 248.5 91.2393 248.5H157.051C158.855 248.5 160.306 247.049 160.35 245.246C160.35 245.158 160.394 245.07 160.394 244.982L172.448 208.182C172.58 207.742 172.756 207.347 172.888 206.951L173.064 206.467C173.24 206.028 173.152 205.5 172.888 205.104C172.58 204.665 172.096 204.401 171.568 204.401H135.935C134.659 204.401 133.515 205.017 132.812 206.028L119.438 245.378C119.35 245.642 119.086 245.818 118.822 245.818H87.9839V245.862Z" fill="black"/>
<path d="M145.349 223.966C144.865 225.637 145.613 227.352 147.065 227.791C148.516 228.231 150.1 227.22 150.584 225.549C151.068 223.878 150.32 222.164 148.868 221.724C147.461 221.328 145.877 222.34 145.349 223.966Z" fill="#CDFFFC"/>
<path d="M222.994 248.5H64.5799C61.6324 248.5 59.3449 251.269 59.6528 254.435L70.6068 358.064H78.5253L71.6626 260.81C71.5306 259.095 72.8064 257.645 74.3901 257.645H210.369C212.744 257.645 214.636 259.843 214.46 262.393L207.685 358.68H215.604L226.734 252.984C226.954 250.566 225.238 248.5 222.994 248.5Z" fill="white"/>
<path d="M132.503 170.239C132.371 170.239 132.195 170.195 132.063 170.063C131.799 169.843 131.755 169.403 131.975 169.14L134.174 166.546C134.394 166.282 134.834 166.238 135.098 166.458C135.362 166.677 135.406 167.117 135.186 167.381L132.987 169.975C132.855 170.151 132.679 170.239 132.503 170.239Z" fill="black"/>
<path d="M127.356 176.306C127.224 176.306 127.048 176.262 126.916 176.13C126.652 175.91 126.608 175.471 126.828 175.207L129.027 172.613C129.247 172.349 129.687 172.305 129.951 172.525C130.215 172.745 130.259 173.185 130.039 173.448L127.84 176.042C127.752 176.218 127.576 176.306 127.356 176.306Z" fill="black"/>
<path d="M129.292 170.503C129.16 170.503 128.984 170.459 128.852 170.327L126.256 168.129C125.992 167.909 125.948 167.469 126.168 167.205C126.388 166.941 126.828 166.897 127.092 167.117L129.688 169.316C129.951 169.535 129.995 169.975 129.776 170.239C129.644 170.415 129.468 170.503 129.292 170.503Z" fill="black"/>
<path d="M135.362 175.603C135.23 175.603 135.054 175.559 134.923 175.427L132.327 173.229C132.063 173.009 132.019 172.569 132.239 172.305C132.459 172.042 132.899 171.998 133.163 172.217L135.758 174.416C136.022 174.636 136.066 175.075 135.846 175.339C135.758 175.515 135.582 175.603 135.362 175.603Z" fill="black"/>
<path d="M120.406 159.687C120.054 159.687 119.702 159.643 119.394 159.555C118.426 159.291 117.634 158.632 117.194 157.752C116.226 155.95 116.886 153.663 118.646 152.696C119.482 152.212 120.494 152.125 121.417 152.388C122.385 152.652 123.177 153.312 123.617 154.191C124.585 155.994 123.925 158.28 122.165 159.247C121.637 159.511 121.021 159.687 120.406 159.687ZM119.262 153.839C118.118 154.455 117.722 155.95 118.338 157.093C118.646 157.664 119.13 158.06 119.746 158.236C120.362 158.412 120.977 158.324 121.505 158.016C122.649 157.401 123.045 155.906 122.429 154.763C122.121 154.191 121.637 153.795 121.021 153.619C120.45 153.444 119.834 153.531 119.262 153.839Z" fill="black"/>
<path d="M155.467 162.149C155.467 160.654 156.655 159.467 158.15 159.423C159.646 159.423 160.878 160.566 160.878 162.061C160.878 163.556 159.69 164.743 158.194 164.787C156.699 164.831 155.467 163.644 155.467 162.149Z" fill="#A0EDE8"/>
<path d="M293.425 4.70445C293.249 4.70445 293.073 4.66048 292.941 4.52858L291.006 2.59405C290.742 2.33025 290.742 1.93455 291.006 1.67075C291.27 1.40695 291.665 1.40695 291.929 1.67075L293.865 3.60528C294.129 3.86908 294.129 4.26478 293.865 4.52858C293.777 4.61652 293.601 4.70445 293.425 4.70445Z" fill="black"/>
<path d="M300.156 11.4313C299.98 11.4313 299.804 11.3873 299.672 11.2554L297.737 9.32086C297.473 9.05706 297.473 8.66136 297.737 8.39756C298 8.13376 298.396 8.13376 298.66 8.39756L300.596 10.3321C300.86 10.5959 300.86 10.9916 300.596 11.2554C300.464 11.3433 300.288 11.4313 300.156 11.4313Z" fill="black"/>
<path d="M291.489 11.4313C291.314 11.4313 291.138 11.3873 291.006 11.2554C290.742 10.9916 290.742 10.5959 291.006 10.3321L292.941 8.39756C293.205 8.13376 293.601 8.13376 293.865 8.39756C294.129 8.66136 294.129 9.05706 293.865 9.32086L291.929 11.2554C291.841 11.3433 291.665 11.4313 291.489 11.4313Z" fill="black"/>
<path d="M298.22 4.70445C298.044 4.70445 297.869 4.66048 297.737 4.52858C297.473 4.26478 297.473 3.86908 297.737 3.60528L299.672 1.67075C299.936 1.40695 300.332 1.40695 300.596 1.67075C300.86 1.93455 300.86 2.33025 300.596 2.59405L298.66 4.52858C298.572 4.61652 298.396 4.70445 298.22 4.70445Z" fill="black"/>
<path d="M296.549 327.596C296.329 327.596 296.153 327.508 296.021 327.332C295.801 327.024 295.845 326.628 296.153 326.409C314.189 312.691 329.279 295.852 340.936 276.33C341.112 276.023 341.508 275.935 341.86 276.111C342.168 276.286 342.256 276.682 342.08 277.034C330.29 296.687 315.113 313.658 296.945 327.464C296.813 327.552 296.681 327.596 296.549 327.596Z" fill="black"/>
<path d="M327.211 313.966C327.035 313.966 326.903 313.922 326.771 313.79C326.507 313.526 326.507 313.13 326.727 312.867C334.03 305.041 340.673 296.511 346.436 287.498C346.611 287.19 347.051 287.102 347.359 287.278C347.667 287.454 347.755 287.894 347.579 288.201C341.772 297.302 335.086 305.876 327.739 313.746C327.563 313.878 327.387 313.966 327.211 313.966Z" fill="black"/>
<path d="M182.258 334.806C184.414 330.322 184.634 325.837 182.258 321.265L183.93 319.198L239.8 320.737L238.216 335.554L183.842 336.081L182.258 334.806Z" fill="white"/>
<path d="M183.842 336.785C183.666 336.785 183.534 336.741 183.402 336.653L181.818 335.334C181.598 335.158 181.51 334.806 181.642 334.542C183.798 330.014 183.798 325.793 181.642 321.616C181.51 321.396 181.554 321.089 181.73 320.913L183.402 318.846C183.534 318.67 183.71 318.626 183.93 318.626L239.799 320.165C239.975 320.165 240.151 320.253 240.283 320.385C240.415 320.517 240.459 320.693 240.459 320.869L238.875 335.686C238.831 336.037 238.568 336.257 238.216 336.257L183.842 336.785ZM183.05 334.63L184.062 335.466L237.6 334.938L239.051 321.396L184.238 319.901L183.006 321.396C185.118 325.661 185.118 330.102 183.05 334.63Z" fill="#A0EDE8"/>
<path d="M276.18 317.615H215.252H180.762C179.75 317.615 178.958 318.451 178.958 319.462C178.958 320.473 179.75 321.308 180.762 321.308H229.813C232.716 321.308 235.048 323.683 235.048 326.584V329.574C235.048 332.476 232.716 334.85 229.813 334.85H180.762C179.75 334.85 178.958 335.686 178.958 336.697C178.958 337.708 179.75 338.543 180.762 338.543H276.18C281.503 338.543 285.815 334.191 285.815 328.783V327.376C285.815 321.968 281.503 317.615 276.18 317.615Z" fill="#A0EDE8"/>
<path d="M187.053 360.483H274.2V340.654H187.053C189.34 347.117 189.384 354.152 187.053 360.483Z" fill="white"/>
<path d="M274.157 361.142H187.053C186.833 361.142 186.613 361.054 186.525 360.878C186.393 360.702 186.393 360.483 186.437 360.263C188.68 354.195 188.68 347.293 186.437 340.873C186.349 340.654 186.393 340.434 186.525 340.258C186.657 340.082 186.833 339.994 187.053 339.994H274.201C274.552 339.994 274.86 340.302 274.86 340.654V360.483C274.816 360.834 274.553 361.142 274.157 361.142ZM187.977 359.823H273.497V341.313H187.977C189.912 347.424 189.912 353.932 187.977 359.823Z" fill="#A0EDE8"/>
<path d="M260.739 348.26H194.796C194.444 348.26 194.136 347.952 194.136 347.6C194.136 347.249 194.444 346.941 194.796 346.941H260.739C261.091 346.941 261.399 347.249 261.399 347.6C261.399 347.952 261.135 348.26 260.739 348.26Z" fill="#CDFFFC"/>
<path d="M260.74 353.799H206.586C206.234 353.799 205.926 353.492 205.926 353.14C205.926 352.788 206.234 352.48 206.586 352.48H260.784C261.135 352.48 261.443 352.788 261.443 353.14C261.399 353.492 261.136 353.799 260.74 353.799Z" fill="#CDFFFC"/>
<path d="M264.215 341.577H185.865C185.03 341.577 184.37 340.918 184.37 340.082C184.37 339.247 185.03 338.587 185.865 338.587H284.671C288.322 338.587 291.226 341.577 291.226 345.226V355.646C291.226 359.296 288.278 362.285 284.671 362.285H185.865C185.03 362.285 184.37 361.626 184.37 360.791C184.37 359.955 185.03 359.296 185.865 359.296H264.215C266.766 359.296 268.878 357.185 268.878 354.591V346.282C268.834 343.688 266.766 341.577 264.215 341.577Z" fill="#1DBFB5"/>
<path d="M228.713 326.233H188.461C188.109 326.233 187.801 325.925 187.801 325.573C187.801 325.221 188.109 324.914 188.461 324.914H228.713C229.065 324.914 229.373 325.221 229.373 325.573C229.373 325.925 229.065 326.233 228.713 326.233Z" fill="#CDFFFC"/>
</svg>
