<svg width="234" height="97" viewBox="0 0 234 97" fill="none" xmlns="http://www.w3.org/2000/svg">
<path d="M228.773 27.6311H223.973V32.4311H228.773V27.6311Z" fill="#E0FFFB"/>
<path d="M211.273 78.5061H206.473V83.3061H211.273V78.5061Z" fill="#E0FFFB"/>
<path d="M233.515 22.8872H228.715V27.6872H233.515V22.8872Z" fill="#7DD9FF"/>
<path d="M10.9797 91.5996H6.17969V96.3996H10.9797V91.5996Z" fill="#E0FFFB"/>
<path d="M15.7805 86.7998H10.9805V91.5998H15.7805V86.7998Z" fill="#E0FFFB"/>
<path d="M211.292 68.9561H206.492V73.756H211.292V68.9561Z" fill="#E0FFFB"/>
<path d="M206.464 73.7373H201.664V78.5373H206.464V73.7373Z" fill="#E0FFFB"/>
<path d="M215.8 73.7373H211V78.5373H215.8V73.7373Z" fill="#E0FFFB"/>
<path d="M211.245 73.7373H206.445V78.5373H211.245V73.7373Z" fill="#7DD9FF"/>
<path d="M6.28046 86.7998H1.48047V91.5998H6.28046V86.7998Z" fill="#E0FFFB"/>
<path d="M10.9797 82H6.17969V86.8H10.9797V82Z" fill="#E0FFFB"/>
<path d="M9.60077 39.9097H4.80078V44.7097H9.60077V39.9097Z" fill="#7DD9FF"/>
<path d="M222.011 4.7998H217.211V9.5998H222.011V4.7998Z" fill="#7DD9FF"/>
<path d="M4.79999 39.9097H0V44.7097H4.79999V39.9097Z" fill="#E0FFFB"/>
<path d="M217.21 4.7998H212.41V9.5998H217.21V4.7998Z" fill="#E0FFFB"/>
<path d="M9.60077 35.1099H4.80078V39.9099H9.60077V35.1099Z" fill="#E0FFFB"/>
<path d="M222.011 0H217.211V4.8H222.011V0Z" fill="#E0FFFB"/>
<path d="M4.79999 35.1099H0V39.9099H4.79999V35.1099Z" fill="#7DD9FF"/>
<path d="M217.21 0H212.41V4.8H217.21V0Z" fill="#7DD9FF"/>
</svg>
