<svg width="196" height="76" viewBox="0 0 196 76" fill="none" xmlns="http://www.w3.org/2000/svg">
    <path opacity="0.2" d="M189.302 9.13707C190.766 9.13707 191.95 7.95078 191.95 6.48747C191.95 5.02417 190.766 3.83789 189.302 3.83789C187.838 3.83789 186.65 5.02417 186.65 6.48747C186.65 7.95078 187.838 9.13707 189.302 9.13707Z" fill="white"/>
    <path opacity="0.7" d="M169.353 29.2972C170.817 29.2972 172.001 28.1109 172.001 26.6476C172.001 25.1843 170.817 23.998 169.353 23.998C167.889 23.998 166.702 25.1843 166.702 26.6476C166.702 28.1109 167.889 29.2972 169.353 29.2972Z" fill="white"/>
    <path opacity="0.4" d="M193.349 19.3797C194.813 19.3797 196 18.1935 196 16.7301C196 15.2668 194.813 14.0806 193.349 14.0806C191.888 14.0806 190.701 15.2668 190.701 16.7301C190.701 18.1935 191.888 19.3797 193.349 19.3797Z" fill="white"/>
    <path opacity="0.8" d="M165.189 19.3797C166.653 19.3797 167.837 18.1935 167.837 16.7301C167.837 15.2668 166.653 14.0806 165.189 14.0806C163.725 14.0806 162.538 15.2668 162.538 16.7301C162.538 18.1935 163.725 19.3797 165.189 19.3797Z" fill="white"/>
    <path opacity="0.5" d="M189.188 29.2972C190.649 29.2972 191.836 28.1109 191.836 26.6476C191.836 25.1843 190.649 23.998 189.188 23.998C187.724 23.998 186.537 25.1843 186.537 26.6476C186.537 28.1109 187.724 29.2972 189.188 29.2972Z" fill="white"/>
    <path opacity="0.8" d="M169.353 9.46258C170.817 9.46258 172.001 8.2763 172.001 6.81267C172.001 5.34936 170.817 4.16309 169.353 4.16309C167.889 4.16309 166.702 5.34936 166.702 6.81267C166.702 8.2763 167.889 9.46258 169.353 9.46258Z" fill="white"/>
    <path opacity="0.6" d="M179.269 33.4608C180.733 33.4608 181.92 32.2745 181.92 30.8112C181.92 29.3479 180.733 28.1616 179.269 28.1616C177.805 28.1616 176.621 29.3479 176.621 30.8112C176.621 32.2745 177.805 33.4608 179.269 33.4608Z" fill="white"/>
    <path d="M179.269 5.29917C180.733 5.29917 181.92 4.11289 181.92 2.64958C181.92 1.18628 180.733 0 179.269 0C177.805 0 176.621 1.18628 176.621 2.64958C176.621 4.11289 177.805 5.29917 179.269 5.29917Z" fill="white"/>
    <path d="M20.4043 42.3238C20.6578 42.3318 20.8705 42.3975 21.0015 42.5777C21.1321 42.7578 21.1649 42.9541 21.1253 43.2031L18.986 52.0759C18.9156 52.3198 18.7878 52.5225 18.5668 52.7108C18.3454 52.899 18.1131 52.9575 17.8544 52.9804L4.80664 53.0479L9.11162 35.338L23.1121 35.2939L22.2656 38.8254L11.9967 38.8554L11.1502 42.3869L20.4043 42.3238ZM9.36387 49.4354L15.9008 49.4193L16.7473 45.8878L10.2104 45.9039L9.36387 49.4354Z" fill="white"/>
    <path d="M29.7874 35.2041L44.7142 35.1475L40.4092 52.8574L25.4824 52.914L29.7874 35.2041ZM32.6368 38.7478L30.0609 49.3684L37.5241 49.3401L40.1 38.7192L32.6368 38.7478Z" fill="white"/>
    <path d="M58.4324 40.7L50.2633 52.8251L46.1484 52.8421L58.1084 35.1023L61.4572 35.0913L64.8072 52.7713L60.6924 52.7884L58.4324 40.7Z" fill="white"/>
    <path d="M76.9228 42.1013L87.1913 42.0713L84.6158 52.6919L70.6152 52.7363L74.9202 35.0264L78.6518 35.0122L76.9228 42.1013ZM81.7355 49.1437L82.582 45.6122L76.0451 45.6279L75.1985 49.1594L81.7355 49.1437Z" fill="white"/>
    <path d="M110.824 49.0358L114.279 34.8574L118.011 34.8433L113.706 52.5532L91.3174 52.6381L95.6211 34.9282L99.3533 34.914L95.8946 49.0925L101.48 49.0532L104.939 34.8748L108.671 34.8606L105.212 49.0391L110.824 49.0358Z" fill="white"/>
    <path d="M132.403 45.4116L125.865 45.4273L124.138 52.5167L120.405 52.5309L124.71 34.8209L138.709 34.7769L134.404 52.4868L130.672 52.501L132.403 45.4116ZM134.131 38.3225L127.596 38.3383L126.75 41.8698L133.285 41.854L134.131 38.3225Z" fill="white"/>
    <path d="M160.341 34.6665L156.036 52.3764L152.303 52.3906L154.031 45.3012L153.172 45.2925L146.724 52.3986L142.133 52.4044L148.581 45.2983L144.72 45.3237L146.451 38.2347L144.597 38.2598L145.444 34.7283L160.341 34.6665ZM150.176 38.2514L149.295 41.8093L154.877 41.7697L155.727 38.2382L150.176 38.2514Z" fill="white"/>
    <path d="M10.3162 75.8409L13.7743 61.6625L8.1901 61.7017L4.73163 75.8801L1 75.8943L4.45847 61.7159L2.60552 61.7409L3.45205 58.2095L18.3789 58.1528L14.0739 75.8628L10.3162 75.8409Z" fill="white"/>
    <path d="M35.5462 58.0361L34.6993 61.5676L27.2361 61.5959L26.7946 63.3749L34.2582 63.3462L33.4117 66.8777L25.9481 66.9064L24.6602 72.2168L32.1237 72.1882L31.2772 75.7197L20.082 75.7625L24.387 58.0526L35.5462 58.0361Z" fill="white"/>
    <path d="M44.544 68.6426L42.8146 75.7317L39.083 75.7459L42.5415 61.5674L40.6885 61.5925L41.5354 58.061L56.4622 58.0044L53.8863 68.6249L44.544 68.6426ZM46.2731 61.5533L45.4266 65.0848L51.0111 65.0455L51.8576 61.514L46.2731 61.5533Z" fill="white"/>
    <path d="M73.6292 57.8882L72.7827 61.4197L65.3191 61.448L64.878 63.2269L72.3412 63.1983L71.4947 66.7301L64.0311 66.7584L62.7435 72.0689L70.2068 72.0402L69.3602 75.5717L58.165 75.6145L62.47 57.9046L73.6292 57.8882Z" fill="white"/>
    <path d="M81.4248 65.8185L79.049 75.5784L75.3174 75.5926L79.6224 57.8826L84.2806 57.8559L85.9672 70.1402L93.6229 57.8382L98.2817 57.8115L93.9758 75.5215L90.2442 75.5356L92.6197 65.7757L86.5126 75.5501L82.7806 75.5643L81.4248 65.8185Z" fill="white"/>
    <path d="M115.444 57.7256L114.597 61.2571L107.133 61.2854L106.692 63.0643L114.157 63.036L113.307 66.5675L105.846 66.5958L104.559 71.9063L112.02 71.8776L111.174 75.4091L99.9805 75.4519L104.285 57.742L115.444 57.7256Z" fill="white"/>
    <path d="M131.68 57.6533L135.413 57.6392L131.108 75.3491L127.375 75.3633L129.106 68.2742L122.568 68.29L120.837 75.3793L117.108 75.3935L121.413 57.6836L125.142 57.6694L123.415 64.7585L129.953 64.7427L131.68 57.6533Z" fill="white"/>
    <path d="M149.102 68.1927L142.568 68.2084L140.837 75.2978L137.104 75.3119L141.409 57.602L155.412 57.5576L151.107 75.2675L147.375 75.2817L149.102 68.1927ZM150.798 61.1297L144.26 61.1454L143.414 64.6769L149.949 64.6612L150.798 61.1297Z" fill="white"/>
    <path d="M179.334 10.1969C179.012 10.1969 178.755 9.93754 178.755 9.61773V8.10648C178.755 7.78699 179.012 7.52734 179.334 7.52734C179.653 7.52734 179.913 7.78699 179.913 8.10648V9.61773C179.913 9.93754 179.653 10.1969 179.334 10.1969Z" fill="white"/>
    <path d="M184.408 12.2988C184.26 12.2988 184.112 12.2425 183.999 12.1289C183.774 11.9028 183.774 11.536 183.999 11.3098L185.067 10.2409C185.292 10.0147 185.659 10.0147 185.888 10.2409C186.113 10.4671 186.113 10.8339 185.888 11.0604L184.816 12.1289C184.704 12.2419 184.556 12.2988 184.408 12.2988Z" fill="white"/>
    <path d="M188.021 17.3734H186.509C186.19 17.3734 185.93 17.1138 185.93 16.794C185.93 16.4745 186.19 16.2148 186.509 16.2148H188.021C188.34 16.2148 188.6 16.4745 188.6 16.794C188.6 17.1138 188.34 17.3734 188.021 17.3734Z" fill="white"/>
    <path d="M185.476 23.5161C185.328 23.5161 185.18 23.4598 185.067 23.3462L183.999 22.2777C183.774 22.0515 183.774 21.6847 183.999 21.4582C184.224 21.232 184.591 21.232 184.816 21.4582L185.888 22.5271C186.113 22.7532 186.113 23.12 185.888 23.3462C185.772 23.4598 185.624 23.5161 185.476 23.5161Z" fill="white"/>
    <path d="M173.191 23.5161C173.043 23.5161 172.892 23.4598 172.779 23.3462C172.554 23.12 172.554 22.7532 172.779 22.5271L173.851 21.4582C174.076 21.232 174.443 21.232 174.668 21.4582C174.896 21.6847 174.896 22.0515 174.668 22.2777L173.6 23.3462C173.487 23.4598 173.339 23.5161 173.191 23.5161Z" fill="white"/>
    <path d="M172.16 17.3734H170.647C170.326 17.3734 170.068 17.1138 170.068 16.794C170.068 16.4745 170.326 16.2148 170.647 16.2148H172.16C172.478 16.2148 172.739 16.4745 172.739 16.794C172.739 17.1138 172.478 17.3734 172.16 17.3734Z" fill="white"/>
    <path d="M174.259 12.2988C174.111 12.2988 173.963 12.2425 173.851 12.1289L172.779 11.0604C172.554 10.8339 172.554 10.4671 172.779 10.2409C173.008 10.0147 173.375 10.0147 173.6 10.2409L174.668 11.3098C174.896 11.536 174.896 11.9028 174.668 12.1289C174.555 12.2419 174.407 12.2988 174.259 12.2988Z" fill="white"/>
    <path d="M181.651 23.7437V24.7089C181.651 25.4502 181.039 26.0602 180.299 26.0602H178.369C177.719 26.0602 177.018 25.566 177.018 24.485V23.7437H181.651Z" fill="white"/>
    <path d="M182.738 12.5932C181.474 11.5662 179.804 11.1647 178.176 11.5121C176.129 11.9368 174.469 13.6048 174.044 15.6511C173.61 17.7515 174.398 19.8367 176.081 21.1108C176.538 21.4506 176.853 21.9757 176.963 22.5857V22.5934C176.979 22.5857 177.001 22.5857 177.017 22.5857H181.651C181.667 22.5857 181.673 22.5857 181.689 22.5934V22.5857C181.799 21.9989 182.146 21.4583 182.677 21.0413C183.983 20.0066 184.739 18.4619 184.739 16.7939C184.739 15.1569 184.012 13.628 182.738 12.5932ZM182.23 17.18C181.914 17.18 181.651 16.9175 181.651 16.6009C181.651 15.4272 180.701 14.4774 179.527 14.4774C179.208 14.4774 178.948 14.2148 178.948 13.8982C178.948 13.5816 179.208 13.3191 179.527 13.3191C181.332 13.3191 182.809 14.794 182.809 16.6009C182.809 16.9175 182.545 17.18 182.23 17.18Z" fill="white"/>
    <path d="M176.963 22.5859H177.017C177.001 22.5859 176.979 22.5859 176.963 22.5936V22.5859Z" fill="white"/>
    <path d="M181.69 22.5859V22.5939C181.674 22.5859 181.667 22.5859 181.65 22.5859H181.69Z" fill="white"/>
    <path d="M7.73462 19.0385L8.65 13.8077H3.41923L2.50385 19.0385H7.73462ZM0.189231 21L1.81077 11.8462H8.61077L6.68846 7.92308H9.04231L10.9646 11.8462L9.69615 19.0385H12.9654L10.6508 21H0.189231ZM18.2328 21L16.4021 14.3177L12.2174 21H9.99437L15.7351 11.8462H17.9582L19.9198 19.0385H23.4244L21.1098 21H18.2328ZM25.6449 13.8208L25.3572 15.4423H29.2803L29.568 13.8208H25.6449ZM23.3041 19.0385L25.1087 17.4038H23.0557L23.6834 13.8077H22.3757L22.7287 11.8462H31.8826L30.6141 19.0385H33.8834L31.5687 21H28.2995L28.9403 17.4038H27.9334L23.971 21H21.1072L21.4603 19.0385H23.3041ZM45.0249 19.0385H50.8834L48.5687 21H43.8218L41.3895 24.9231H38.9964L41.4941 20.9085L39.598 13.8077H38.068L38.421 11.8462H41.481L43.1549 18.1885L47.078 11.8462H49.471L45.0249 19.0385ZM55.1046 21L55.68 17.7308H49.1416L50.1877 11.8462H52.1493L51.4562 15.7692H56.0331L56.7262 11.8462H58.6877L57.4193 19.0385H60.6885L58.3739 21H55.1046ZM64.9162 21L65.6092 17.0769L60.3392 21H58.3777L59.9992 11.8462H61.9608L60.81 18.3846L66.0669 14.4615L66.5377 11.8462H68.4992L67.2308 19.0385H70.5L68.1854 21H64.9162ZM76.9769 13.8077L75.7085 21H73.7469L75.0154 13.8077H72.7269L71.4585 21H68.1892L68.5423 19.0385H69.85L70.7654 13.8077H69.4577L69.8108 11.8462H82.8877L82.5346 13.8077H81.2269L80.3115 19.0385H84.8885L82.5738 21H77.9969L79.2654 13.8077H76.9769ZM90.5562 15.4423C90.4952 15.1197 90.3557 14.8277 90.1377 14.5662C89.7105 14.0605 89.1352 13.8077 88.4116 13.8077C87.688 13.8077 87.0298 14.0605 86.437 14.5662C86.1231 14.8277 85.8746 15.1197 85.6916 15.4423H90.5562ZM87.1431 21C85.879 21 84.8808 20.551 84.1485 19.6531C83.4162 18.7551 83.159 17.6741 83.377 16.41C83.6036 15.1459 84.24 14.0692 85.2862 13.18C86.3411 12.2908 87.5049 11.8462 88.7777 11.8462C90.0418 11.8462 91.04 12.2908 91.7723 13.18C92.5046 14.0692 92.7575 15.1459 92.5308 16.41C92.4698 16.7587 92.3782 17.09 92.2562 17.4038H85.3516C85.4126 17.7177 85.5564 18.0054 85.7831 18.2669C86.2016 18.7813 86.7726 19.0385 87.4962 19.0385H95.3423L93.0277 21H87.1431ZM100.61 21L98.779 14.3177L94.5944 21H92.3713L98.1121 11.8462H100.335L102.297 19.0385H105.801L103.487 21H100.61ZM111.474 15.4423C111.413 15.1197 111.274 14.8277 111.056 14.5662C110.629 14.0605 110.053 13.8077 109.33 13.8077C108.606 13.8077 107.948 14.0605 107.355 14.5662C107.041 14.8277 106.793 15.1197 106.61 15.4423H111.474ZM108.061 21C106.797 21 105.799 20.551 105.066 19.6531C104.334 18.7551 104.077 17.6741 104.295 16.41C104.522 15.1459 105.158 14.0692 106.204 13.18C107.259 12.2908 108.423 11.8462 109.696 11.8462C110.96 11.8462 111.958 12.2908 112.69 13.18C113.423 14.0692 113.675 15.1459 113.449 16.41C113.388 16.7587 113.296 17.09 113.174 17.4038H106.27C106.331 17.7177 106.474 18.0054 106.701 18.2669C107.12 18.7813 107.691 19.0385 108.414 19.0385H116.26L113.946 21H108.061ZM120.482 21L121.175 17.0769L115.905 21H113.943L115.565 11.8462H117.526L116.375 18.3846L121.632 14.4615L122.103 11.8462H124.065L122.796 19.0385H126.065L123.751 21H120.482ZM118.402 10.5385L117.33 9.23077L117.67 7.26923H119.632L119.409 8.57692H121.371L121.593 7.26923H123.555L123.215 9.23077L121.672 10.5385H118.402Z" fill="white"/>
</svg>
