<svg width="195" height="76" viewBox="0 0 195 76" fill="none" xmlns="http://www.w3.org/2000/svg">
    <path opacity="0.2" d="M188.302 9.13707C189.766 9.13707 190.95 7.95078 190.95 6.48747C190.95 5.02417 189.766 3.83789 188.302 3.83789C186.838 3.83789 185.651 5.02417 185.651 6.48747C185.651 7.95078 186.838 9.13707 188.302 9.13707Z" fill="white"/>
    <path opacity="0.7" d="M168.354 29.2972C169.818 29.2972 171.002 28.1109 171.002 26.6476C171.002 25.1843 169.818 23.998 168.354 23.998C166.89 23.998 165.703 25.1843 165.703 26.6476C165.703 28.1109 166.89 29.2972 168.354 29.2972Z" fill="white"/>
    <path opacity="0.4" d="M192.349 19.3797C193.813 19.3797 195 18.1935 195 16.7301C195 15.2668 193.813 14.0806 192.349 14.0806C190.888 14.0806 189.701 15.2668 189.701 16.7301C189.701 18.1935 190.888 19.3797 192.349 19.3797Z" fill="white"/>
    <path opacity="0.8" d="M164.19 19.3797C165.654 19.3797 166.838 18.1935 166.838 16.7301C166.838 15.2668 165.654 14.0806 164.19 14.0806C162.726 14.0806 161.539 15.2668 161.539 16.7301C161.539 18.1935 162.726 19.3797 164.19 19.3797Z" fill="white"/>
    <path opacity="0.5" d="M188.188 29.2972C189.649 29.2972 190.836 28.1109 190.836 26.6476C190.836 25.1843 189.649 23.998 188.188 23.998C186.724 23.998 185.537 25.1843 185.537 26.6476C185.537 28.1109 186.724 29.2972 188.188 29.2972Z" fill="white"/>
    <path opacity="0.8" d="M168.354 9.46258C169.818 9.46258 171.002 8.2763 171.002 6.81267C171.002 5.34936 169.818 4.16309 168.354 4.16309C166.89 4.16309 165.703 5.34936 165.703 6.81267C165.703 8.2763 166.89 9.46258 168.354 9.46258Z" fill="white"/>
    <path opacity="0.6" d="M178.27 33.4608C179.734 33.4608 180.921 32.2745 180.921 30.8112C180.921 29.3479 179.734 28.1616 178.27 28.1616C176.806 28.1616 175.622 29.3479 175.622 30.8112C175.622 32.2745 176.806 33.4608 178.27 33.4608Z" fill="white"/>
    <path d="M178.27 5.29917C179.734 5.29917 180.921 4.11289 180.921 2.64958C180.921 1.18628 179.734 0 178.27 0C176.806 0 175.622 1.18628 175.622 2.64958C175.622 4.11289 176.806 5.29917 178.27 5.29917Z" fill="white"/>
    <path d="M19.4038 42.3238C19.6573 42.3318 19.87 42.3975 20.001 42.5777C20.1316 42.7578 20.1644 42.9541 20.1248 43.2031L17.9855 52.0759C17.9151 52.3198 17.7873 52.5225 17.5663 52.7108C17.3449 52.899 17.1126 52.9575 16.854 52.9804L3.80615 53.0479L8.11113 35.338L22.1116 35.2939L21.2651 38.8254L10.9962 38.8554L10.1497 42.3869L19.4038 42.3238ZM8.36338 49.4354L14.9003 49.4193L15.7468 45.8878L9.20989 45.9039L8.36338 49.4354Z" fill="white"/>
    <path d="M28.7879 35.2041L43.7147 35.1475L39.4097 52.8574L24.4829 52.914L28.7879 35.2041ZM31.6373 38.7478L29.0614 49.3684L36.5246 49.3401L39.1005 38.7192L31.6373 38.7478Z" fill="white"/>
    <path d="M57.4324 40.7L49.2633 52.8251L45.1484 52.8421L57.1084 35.1023L60.4572 35.0913L63.8072 52.7713L59.6924 52.7884L57.4324 40.7Z" fill="white"/>
    <path d="M75.9228 42.1013L86.1913 42.0713L83.6158 52.6919L69.6152 52.7363L73.9202 35.0264L77.6518 35.0122L75.9228 42.1013ZM80.7355 49.1437L81.582 45.6122L75.0451 45.6279L74.1985 49.1594L80.7355 49.1437Z" fill="white"/>
    <path d="M109.824 49.0358L113.28 34.8574L117.012 34.8433L112.707 52.5532L90.3179 52.6381L94.6216 34.9282L98.3538 34.914L94.8951 49.0925L100.481 49.0532L103.939 34.8748L107.672 34.8606L104.213 49.0391L109.824 49.0358Z" fill="white"/>
    <path d="M131.404 45.4116L124.866 45.4273L123.138 52.5167L119.406 52.5309L123.711 34.8209L137.71 34.7769L133.405 52.4868L129.673 52.501L131.404 45.4116ZM133.131 38.3225L126.597 38.3383L125.751 41.8698L132.285 41.854L133.131 38.3225Z" fill="white"/>
    <path d="M159.341 34.6665L155.036 52.3764L151.304 52.3906L153.032 45.3012L152.172 45.2925L145.725 52.3986L141.133 52.4044L147.581 45.2983L143.72 45.3237L145.451 38.2347L143.598 38.2598L144.444 34.7283L159.341 34.6665ZM149.177 38.2514L148.295 41.8093L153.878 41.7697L154.727 38.2382L149.177 38.2514Z" fill="white"/>
    <path d="M9.31619 75.8409L12.7743 61.6625L7.1901 61.7017L3.73163 75.8801L0 75.8943L3.45847 61.7159L1.60552 61.7409L2.45205 58.2095L17.3789 58.1528L13.0739 75.8628L9.31619 75.8409Z" fill="white"/>
    <path d="M34.5466 58.0361L33.6998 61.5676L26.2366 61.5959L25.7951 63.3749L33.2587 63.3462L32.4122 66.8777L24.9486 66.9064L23.6607 72.2168L31.1242 72.1882L30.2777 75.7197L19.0825 75.7625L23.3875 58.0526L34.5466 58.0361Z" fill="white"/>
    <path d="M43.5435 68.6426L41.8141 75.7317L38.0825 75.7459L41.541 61.5674L39.688 61.5925L40.5349 58.061L55.4617 58.0044L52.8858 68.6249L43.5435 68.6426ZM45.2726 61.5533L44.4261 65.0848L50.0107 65.0455L50.8572 61.514L45.2726 61.5533Z" fill="white"/>
    <path d="M72.6292 57.8882L71.7827 61.4197L64.3191 61.448L63.878 63.2269L71.3412 63.1983L70.4947 66.7301L63.0311 66.7584L61.7435 72.0689L69.2068 72.0402L68.3602 75.5717L57.165 75.6145L61.47 57.9046L72.6292 57.8882Z" fill="white"/>
    <path d="M80.4253 65.8185L78.0495 75.5784L74.3179 75.5926L78.6228 57.8826L83.2811 57.8559L84.9677 70.1402L92.6233 57.8382L97.2822 57.8115L92.9763 75.5215L89.2447 75.5356L91.6201 65.7757L85.5131 75.5501L81.7811 75.5643L80.4253 65.8185Z" fill="white"/>
    <path d="M114.444 57.7256L113.598 61.2571L106.133 61.2854L105.693 63.0643L113.157 63.036L112.308 66.5675L104.846 66.5958L103.559 71.9063L111.021 71.8776L110.175 75.4091L98.981 75.4519L103.286 57.742L114.444 57.7256Z" fill="white"/>
    <path d="M130.68 57.6533L134.413 57.6392L130.108 75.3491L126.375 75.3633L128.106 68.2742L121.568 68.29L119.837 75.3793L116.108 75.3935L120.413 57.6836L124.142 57.6694L122.415 64.7585L128.953 64.7427L130.68 57.6533Z" fill="white"/>
    <path d="M148.103 68.1927L141.568 68.2084L139.837 75.2978L136.105 75.3119L140.41 57.602L154.412 57.5576L150.107 75.2675L146.375 75.2817L148.103 68.1927ZM149.799 61.1297L143.261 61.1454L142.414 64.6769L148.949 64.6612L149.799 61.1297Z" fill="white"/>
    <path d="M178.334 10.1969C178.013 10.1969 177.755 9.93754 177.755 9.61773V8.10648C177.755 7.78699 178.013 7.52734 178.334 7.52734C178.653 7.52734 178.914 7.78699 178.914 8.10648V9.61773C178.914 9.93754 178.653 10.1969 178.334 10.1969Z" fill="white"/>
    <path d="M183.408 12.2988C183.26 12.2988 183.112 12.2425 182.999 12.1289C182.774 11.9028 182.774 11.536 182.999 11.3098L184.068 10.2409C184.293 10.0147 184.66 10.0147 184.888 10.2409C185.113 10.4671 185.113 10.8339 184.888 11.0604L183.817 12.1289C183.704 12.2419 183.556 12.2988 183.408 12.2988Z" fill="white"/>
    <path d="M187.021 17.3734H185.508C185.19 17.3734 184.929 17.1138 184.929 16.794C184.929 16.4745 185.19 16.2148 185.508 16.2148H187.021C187.339 16.2148 187.6 16.4745 187.6 16.794C187.6 17.1138 187.339 17.3734 187.021 17.3734Z" fill="white"/>
    <path d="M184.476 23.5161C184.328 23.5161 184.18 23.4598 184.068 23.3462L182.999 22.2777C182.774 22.0515 182.774 21.6847 182.999 21.4582C183.225 21.232 183.592 21.232 183.817 21.4582L184.888 22.5271C185.113 22.7532 185.113 23.12 184.888 23.3462C184.772 23.4598 184.624 23.5161 184.476 23.5161Z" fill="white"/>
    <path d="M172.191 23.5161C172.043 23.5161 171.892 23.4598 171.779 23.3462C171.554 23.12 171.554 22.7532 171.779 22.5271L172.851 21.4582C173.076 21.232 173.443 21.232 173.668 21.4582C173.896 21.6847 173.896 22.0515 173.668 22.2777L172.6 23.3462C172.487 23.4598 172.339 23.5161 172.191 23.5161Z" fill="white"/>
    <path d="M171.159 17.3734H169.647C169.325 17.3734 169.068 17.1138 169.068 16.794C169.068 16.4745 169.325 16.2148 169.647 16.2148H171.159C171.478 16.2148 171.738 16.4745 171.738 16.794C171.738 17.1138 171.478 17.3734 171.159 17.3734Z" fill="white"/>
    <path d="M173.259 12.2988C173.111 12.2988 172.963 12.2425 172.851 12.1289L171.779 11.0604C171.554 10.8339 171.554 10.4671 171.779 10.2409C172.008 10.0147 172.375 10.0147 172.6 10.2409L173.668 11.3098C173.896 11.536 173.896 11.9028 173.668 12.1289C173.555 12.2419 173.407 12.2988 173.259 12.2988Z" fill="white"/>
    <path d="M180.65 23.7437V24.7089C180.65 25.4502 180.039 26.0602 179.299 26.0602H177.368C176.718 26.0602 176.017 25.566 176.017 24.485V23.7437H180.65Z" fill="white"/>
    <path d="M181.738 12.5932C180.474 11.5662 178.804 11.1647 177.176 11.5121C175.129 11.9368 173.469 13.6048 173.044 15.6511C172.61 17.7515 173.398 19.8367 175.081 21.1108C175.538 21.4506 175.853 21.9757 175.963 22.5857V22.5934C175.979 22.5857 176.001 22.5857 176.017 22.5857H180.651C180.667 22.5857 180.673 22.5857 180.689 22.5934V22.5857C180.799 21.9989 181.146 21.4583 181.677 21.0413C182.983 20.0066 183.739 18.4619 183.739 16.7939C183.739 15.1569 183.012 13.628 181.738 12.5932ZM181.23 17.18C180.914 17.18 180.651 16.9175 180.651 16.6009C180.651 15.4272 179.701 14.4774 178.527 14.4774C178.208 14.4774 177.948 14.2148 177.948 13.8982C177.948 13.5816 178.208 13.3191 178.527 13.3191C180.332 13.3191 181.809 14.794 181.809 16.6009C181.809 16.9175 181.545 17.18 181.23 17.18Z" fill="white"/>
    <path d="M175.962 22.5859H176.017C176.001 22.5859 175.978 22.5859 175.962 22.5936V22.5859Z" fill="white"/>
    <path d="M180.69 22.5859V22.5939C180.674 22.5859 180.667 22.5859 180.65 22.5859H180.69Z" fill="white"/>
    <path d="M3.16077 11.5942H12.6028L9.44196 23.4795H0L3.16077 11.5942ZM4.45168 13.377L2.24974 21.6967H8.15106L10.3529 13.377H4.45168Z" fill="white"/>
    <path d="M18.7741 21.697H21.7247L19.4748 23.4798H16.5242L17.3973 20.2114H13.2664L12.3934 23.4798H10.623L12.3574 16.9429H11.1771L11.6565 15.1602H14.6071L13.7341 18.4286H17.8649L18.738 15.1602H20.5083L18.7741 21.697Z" fill="white"/>
    <path d="M26.3237 23.4798L25.219 17.4064L20.8946 23.4798H18.8882L24.8197 15.1602H26.8262L28.007 21.697H31.1701L28.9203 23.4798H26.3237Z" fill="white"/>
    <path d="M33.5279 21.697C34.181 21.697 34.7958 21.4672 35.3722 21.0077C35.9573 20.5402 36.3385 19.9776 36.5159 19.32L37.1433 16.9429H34.7828C34.1298 16.9429 33.5107 17.1766 32.9257 17.6441C32.3491 18.1037 31.9723 18.6623 31.7949 19.32C31.6176 19.9776 31.6967 20.5402 32.0322 21.0077C32.3762 21.4672 32.8749 21.697 33.5279 21.697ZM35.409 23.4798L35.7136 22.3269C34.771 23.0955 33.7842 23.4798 32.7534 23.4798C31.6912 23.4798 30.8936 23.0757 30.3606 22.2675C29.8284 21.4514 29.7163 20.4688 30.0245 19.32C30.3327 18.1711 30.9678 17.1925 31.9298 16.3843C32.8925 15.5682 33.905 15.1602 34.9672 15.1602H39.3931L37.6588 21.697H40.6094L38.3596 23.4798H35.409Z" fill="white"/>
    <path d="M44.2435 23.4795L45.1905 19.914L40.1126 23.4795H38.3423L40.556 15.1599H42.3264L40.7519 21.1025L45.818 17.5369L46.4572 15.1599H48.2276L46.4934 21.6967H49.444L47.1941 23.4795H44.2435ZM43.2244 13.9713L42.3637 12.7828L42.8314 11H44.6017L44.2939 12.1885H46.0642L46.372 11H48.1425L47.6748 12.7828L46.175 13.9713H43.2244Z" fill="white"/>
    <path d="M55.3492 21.697H58.2998L56.05 23.4798H53.0994L53.9725 20.2114H49.8416L48.9686 23.4798H47.1982L48.9326 16.9429H47.7523L48.2317 15.1602H51.1823L50.3093 18.4286H54.4401L55.3132 15.1602H57.0835L55.3492 21.697Z" fill="white"/>
    <path d="M62.114 18.4401H57.3931L57.8607 16.6572H62.5816L62.114 18.4401Z" fill="white"/>
    <path d="M67.6688 23.4798L65.264 19.9142H64.6739L63.7269 23.4798H61.9565L64.1702 15.1602H65.9406L65.1534 18.1315H68.104L68.8912 15.1602H72.4319L71.9524 16.9429H70.1821L69.3949 19.9142H67.8133L69.0217 21.697H73.6482L71.3984 23.4798H67.6688Z" fill="white"/>
    <path d="M77.8005 21.697H83.0881L80.8383 23.4798H76.5539L74.0373 27.0454H71.8774L74.4607 23.3966L73.3313 16.9429H71.9503L72.4298 15.1602H75.1916L76.1825 20.9245L80.243 15.1602H82.4029L77.8005 21.697Z" fill="white"/>
    <path d="M81.659 27.0451H79.8887L83.5171 13.377H85.2874L84.8198 15.1598H91.3112L89.5769 21.6966H92.5275L90.2777 23.4794H84.3764L84.8558 21.6966H87.8066L89.0613 16.9425H84.3404L81.659 27.0451Z" fill="white"/>
    <path d="M94.4063 23.4798C93.2654 23.4798 92.4013 23.0718 91.814 22.2557C91.2266 21.4395 91.0831 20.457 91.3833 19.3081C91.6915 18.1592 92.3542 17.1806 93.3713 16.3725C94.3962 15.5642 95.483 15.1602 96.6318 15.1602C97.7727 15.1602 98.6373 15.5642 99.2253 16.3725C99.6031 16.8954 99.7937 17.4857 99.7973 18.1433H97.8853C97.8388 17.9611 97.7558 17.7907 97.6364 17.6323C97.2923 17.1727 96.7937 16.9429 96.1407 16.9429C95.4875 16.9429 94.8689 17.1727 94.2845 17.6323C93.708 18.0918 93.3308 18.6544 93.1527 19.32C92.9754 19.9776 93.0545 20.5402 93.39 21.0077C93.7341 21.4672 94.2327 21.697 94.8858 21.697H101.377L99.1273 23.4798H94.4063Z" fill="white"/>
    <path d="M101.381 21.697H104.331L104.959 19.32H102.008L101.381 21.697ZM99.1309 23.4798L101.345 15.1602H103.115L102.476 17.5371H107.197L106.102 21.697H107.282L109.016 15.1602H110.787L109.052 21.697H112.003L109.753 23.4798H99.1309Z" fill="white"/>
</svg>
