<svg width="113" height="84" viewBox="0 0 113 84" fill="none" xmlns="http://www.w3.org/2000/svg">
<path d="M91.5361 83.9821H98.5773V76.9836H91.5361V83.9821Z" fill="#606B8C"/>
<path d="M84.4961 83.9821H91.5373V76.9836H84.4961V83.9821Z" fill="#606B8C"/>
<path d="M56.3291 83.9821H63.3703V76.9836H56.3291V83.9821Z" fill="#606B8C"/>
<path d="M49.2891 83.9821H56.3303V76.9836H49.2891V83.9821Z" fill="#606B8C"/>
<path d="M21.124 83.9821H28.1652V76.9836H21.124V83.9821Z" fill="#606B8C"/>
<path d="M14.084 83.9821H21.1252V76.9836H14.084V83.9821Z" fill="#606B8C"/>
<path d="M98.5762 76.9844H105.617V69.9858H98.5762V76.9844Z" fill="#606B8C"/>
<path d="M91.5361 76.9844H98.5773V69.9858H91.5361V76.9844Z" fill="#71B741"/>
<path d="M84.4961 76.9844H91.5373V69.9858H84.4961V76.9844Z" fill="#428845"/>
<path d="M77.4521 76.9844H84.4934V69.9858H77.4521V76.9844Z" fill="#606B8C"/>
<path d="M63.3711 76.9844H70.4123V69.9858H63.3711V76.9844Z" fill="#606B8C"/>
<path d="M56.3291 76.9844H63.3703V69.9858H56.3291V76.9844Z" fill="#F8B02D"/>
<path d="M49.2891 76.9844H56.3303V69.9858H49.2891V76.9844Z" fill="#ED7022"/>
<path d="M42.2471 76.9844H49.2883V69.9858H42.2471V76.9844Z" fill="#606B8C"/>
<path d="M28.165 76.9844H35.2062V69.9858H28.165V76.9844Z" fill="#606B8C"/>
<path d="M21.124 76.9844H28.1652V69.9858H21.124V76.9844Z" fill="#79CADF"/>
<path d="M14.084 76.9844H21.1252V69.9858H14.084V76.9844Z" fill="#1E6CAC"/>
<path d="M7.04102 76.9844H14.0822V69.9858H7.04102V76.9844Z" fill="#606B8C"/>
<path d="M98.5762 69.9851H105.617V62.9866H98.5762V69.9851Z" fill="#606B8C"/>
<path d="M91.5361 69.9851H98.5773V62.9866H91.5361V69.9851Z" fill="#71B741"/>
<path d="M84.4961 69.9851H91.5373V62.9866H84.4961V69.9851Z" fill="#428845"/>
<path d="M77.4521 69.9851H84.4934V62.9866H77.4521V69.9851Z" fill="#606B8C"/>
<path d="M63.3711 69.9851H70.4123V62.9866H63.3711V69.9851Z" fill="#606B8C"/>
<path d="M56.3291 69.9851H63.3703V62.9866H56.3291V69.9851Z" fill="#F8B02D"/>
<path d="M49.2891 69.9851H56.3303V62.9866H49.2891V69.9851Z" fill="#ED7022"/>
<path d="M42.2471 69.9851H49.2883V62.9866H42.2471V69.9851Z" fill="#606B8C"/>
<path d="M28.165 69.9851H35.2062V62.9866H28.165V69.9851Z" fill="#606B8C"/>
<path d="M21.124 69.9851H28.1652V62.9866H21.124V69.9851Z" fill="#79CADF"/>
<path d="M14.084 69.9851H21.1252V62.9866H14.084V69.9851Z" fill="#1E6CAC"/>
<path d="M7.04102 69.9851H14.0822V62.9866H7.04102V69.9851Z" fill="#606B8C"/>
<path d="M98.5762 62.9874H105.617V55.9888H98.5762V62.9874Z" fill="#606B8C"/>
<path d="M91.5361 62.9874H98.5773V55.9888H91.5361V62.9874Z" fill="#71B741"/>
<path d="M84.4961 62.9874H91.5373V55.9888H84.4961V62.9874Z" fill="#428845"/>
<path d="M77.4521 62.9874H84.4934V55.9888H77.4521V62.9874Z" fill="#606B8C"/>
<path d="M63.3711 62.9874H70.4123V55.9888H63.3711V62.9874Z" fill="#606B8C"/>
<path d="M56.3291 62.9874H63.3703V55.9888H56.3291V62.9874Z" fill="#F8B02D"/>
<path d="M49.2891 62.9874H56.3303V55.9888H49.2891V62.9874Z" fill="#ED7022"/>
<path d="M42.2471 62.9874H49.2883V55.9888H42.2471V62.9874Z" fill="#606B8C"/>
<path d="M28.165 62.9874H35.2062V55.9888H28.165V62.9874Z" fill="#606B8C"/>
<path d="M21.124 62.9874H28.1652V55.9888H21.124V62.9874Z" fill="#79CADF"/>
<path d="M14.084 62.9874H21.1252V55.9888H14.084V62.9874Z" fill="#1E6CAC"/>
<path d="M7.04102 62.9874H14.0822V55.9888H7.04102V62.9874Z" fill="#606B8C"/>
<path d="M98.5762 55.9882H105.617V48.9897H98.5762V55.9882Z" fill="#606B8C"/>
<path d="M91.5361 55.9882H98.5773V48.9897H91.5361V55.9882Z" fill="#71B741"/>
<path d="M84.4961 55.9882H91.5373V48.9897H84.4961V55.9882Z" fill="#428845"/>
<path d="M77.4521 55.9882H84.4934V48.9897H77.4521V55.9882Z" fill="#606B8C"/>
<path d="M63.3711 55.9882H70.4123V48.9897H63.3711V55.9882Z" fill="#606B8C"/>
<path d="M56.3291 55.9882H63.3703V48.9897H56.3291V55.9882Z" fill="#F8B02D"/>
<path d="M49.2891 55.9882H56.3303V48.9897H49.2891V55.9882Z" fill="#ED7022"/>
<path d="M42.2471 55.9882H49.2883V48.9897H42.2471V55.9882Z" fill="#606B8C"/>
<path d="M28.165 55.9882H35.2062V48.9897H28.165V55.9882Z" fill="#606B8C"/>
<path d="M21.124 55.9882H28.1652V48.9897H21.124V55.9882Z" fill="#79CADF"/>
<path d="M14.084 55.9882H21.1252V48.9897H14.084V55.9882Z" fill="#1E6CAC"/>
<path d="M7.04102 55.9882H14.0822V48.9897H7.04102V55.9882Z" fill="#606B8C"/>
<path d="M98.5762 48.9905H105.617V41.9919H98.5762V48.9905Z" fill="#606B8C"/>
<path d="M91.5361 48.9905H98.5773V41.9919H91.5361V48.9905Z" fill="#71B741"/>
<path d="M84.4961 48.9905H91.5373V41.9919H84.4961V48.9905Z" fill="#428845"/>
<path d="M77.4521 48.9905H84.4934V41.9919H77.4521V48.9905Z" fill="#606B8C"/>
<path d="M63.3711 48.9905H70.4123V41.9919H63.3711V48.9905Z" fill="#606B8C"/>
<path d="M56.3291 48.9905H63.3703V41.9919H56.3291V48.9905Z" fill="#EEEBE7"/>
<path d="M49.2891 48.9905H56.3303V41.9919H49.2891V48.9905Z" fill="#434868"/>
<path d="M42.2471 48.9905H49.2883V41.9919H42.2471V48.9905Z" fill="#606B8C"/>
<path d="M28.165 48.9905H35.2062V41.9919H28.165V48.9905Z" fill="#606B8C"/>
<path d="M21.124 48.9905H28.1652V41.9919H21.124V48.9905Z" fill="#79CADF"/>
<path d="M14.084 48.9905H21.1252V41.9919H14.084V48.9905Z" fill="#1E6CAC"/>
<path d="M7.04102 48.9905H14.0822V41.9919H7.04102V48.9905Z" fill="#606B8C"/>
<path d="M98.5762 41.9912H105.617V34.9926H98.5762V41.9912Z" fill="#606B8C"/>
<path d="M91.5361 41.9912H98.5773V34.9926H91.5361V41.9912Z" fill="#71B741"/>
<path d="M84.4961 41.9912H91.5373V34.9926H84.4961V41.9912Z" fill="#428845"/>
<path d="M77.4521 41.9912H84.4934V34.9926H77.4521V41.9912Z" fill="#606B8C"/>
<path d="M63.3711 41.9912H70.4123V34.9926H63.3711V41.9912Z" fill="#606B8C"/>
<path d="M56.3291 41.9912H63.3703V34.9926H56.3291V41.9912Z" fill="#EEEBE7"/>
<path d="M49.2891 41.9912H56.3303V34.9926H49.2891V41.9912Z" fill="#434868"/>
<path d="M42.2471 41.9912H49.2883V34.9926H42.2471V41.9912Z" fill="#606B8C"/>
<path d="M28.165 41.9912H35.2062V34.9926H28.165V41.9912Z" fill="#606B8C"/>
<path d="M21.124 41.9912H28.1652V34.9926H21.124V41.9912Z" fill="#79CADF"/>
<path d="M14.084 41.9912H21.1252V34.9926H14.084V41.9912Z" fill="#1E6CAC"/>
<path d="M7.04102 41.9912H14.0822V34.9926H7.04102V41.9912Z" fill="#606B8C"/>
<path d="M98.5762 34.9925H105.617V27.994H98.5762V34.9925Z" fill="#606B8C"/>
<path d="M91.5361 34.9925H98.5773V27.994H91.5361V34.9925Z" fill="#EEEBE7"/>
<path d="M84.4961 34.9925H91.5373V27.994H84.4961V34.9925Z" fill="#434868"/>
<path d="M77.4521 34.9925H84.4934V27.994H77.4521V34.9925Z" fill="#606B8C"/>
<path d="M63.3711 34.9925H70.4123V27.994H63.3711V34.9925Z" fill="#606B8C"/>
<path d="M56.3291 34.9925H63.3703V27.994H56.3291V34.9925Z" fill="#EEEBE7"/>
<path d="M49.2891 34.9925H56.3303V27.994H49.2891V34.9925Z" fill="#434868"/>
<path d="M42.2471 34.9925H49.2883V27.994H42.2471V34.9925Z" fill="#606B8C"/>
<path d="M28.165 34.9925H35.2062V27.994H28.165V34.9925Z" fill="#606B8C"/>
<path d="M21.124 34.9925H28.1652V27.994H21.124V34.9925Z" fill="#EEEBE7"/>
<path d="M14.084 34.9925H21.1252V27.994H14.084V34.9925Z" fill="#434868"/>
<path d="M7.04102 34.9925H14.0822V27.994H7.04102V34.9925Z" fill="#606B8C"/>
<path d="M98.5762 27.9943H105.617V20.9957H98.5762V27.9943Z" fill="#606B8C"/>
<path d="M91.5361 27.9943H98.5773V20.9957H91.5361V27.9943Z" fill="#EEEBE7"/>
<path d="M84.4961 27.9943H91.5373V20.9957H84.4961V27.9943Z" fill="#434868"/>
<path d="M77.4521 27.9943H84.4934V20.9957H77.4521V27.9943Z" fill="#606B8C"/>
<path d="M63.3711 27.9943H70.4123V20.9957H63.3711V27.9943Z" fill="#606B8C"/>
<path d="M56.3291 27.9943H63.3703V20.9957H56.3291V27.9943Z" fill="#EEEBE7"/>
<path d="M49.2891 27.9943H56.3303V20.9957H49.2891V27.9943Z" fill="#434868"/>
<path d="M42.2471 27.9943H49.2883V20.9957H42.2471V27.9943Z" fill="#606B8C"/>
<path d="M28.165 27.9943H35.2062V20.9957H28.165V27.9943Z" fill="#606B8C"/>
<path d="M21.124 27.9943H28.1652V20.9957H21.124V27.9943Z" fill="#EEEBE7"/>
<path d="M14.084 27.9943H21.1252V20.9957H14.084V27.9943Z" fill="#434868"/>
<path d="M7.04102 27.9943H14.0822V20.9957H7.04102V27.9943Z" fill="#606B8C"/>
<path d="M105.617 20.9956H112.658V13.997H105.617V20.9956Z" fill="#606B8C"/>
<path d="M98.5762 20.9956H105.617V13.997H98.5762V20.9956Z" fill="#606B8C"/>
<path d="M91.5361 20.9956H98.5773V13.997H91.5361V20.9956Z" fill="#606B8C"/>
<path d="M84.4961 20.9956H91.5373V13.997H84.4961V20.9956Z" fill="#606B8C"/>
<path d="M77.4521 20.9956H84.4934V13.997H77.4521V20.9956Z" fill="#606B8C"/>
<path d="M70.4121 20.9956H77.4533V13.997H70.4121V20.9956Z" fill="#606B8C"/>
<path d="M63.3711 20.9956H70.4123V13.997H63.3711V20.9956Z" fill="#606B8C"/>
<path d="M56.3291 20.9956H63.3703V13.997H56.3291V20.9956Z" fill="#606B8C"/>
<path d="M49.2891 20.9956H56.3303V13.997H49.2891V20.9956Z" fill="#606B8C"/>
<path d="M42.2471 20.9956H49.2883V13.997H42.2471V20.9956Z" fill="#606B8C"/>
<path d="M35.207 20.9956H42.2482V13.997H35.207V20.9956Z" fill="#606B8C"/>
<path d="M28.165 20.9956H35.2062V13.997H28.165V20.9956Z" fill="#606B8C"/>
<path d="M21.124 20.9956H28.1652V13.997H21.124V20.9956Z" fill="#606B8C"/>
<path d="M14.084 20.9956H21.1252V13.997H14.084V20.9956Z" fill="#606B8C"/>
<path d="M7.04102 20.9956H14.0822V13.997H7.04102V20.9956Z" fill="#606B8C"/>
<path d="M0 20.9956H7.04121V13.997H0V20.9956Z" fill="#606B8C"/>
<path d="M98.5762 13.9973H105.617V6.99872H98.5762V13.9973Z" fill="#606B8C"/>
<path d="M91.5361 13.9973H98.5773V6.99872H91.5361V13.9973Z" fill="#EEEBE7"/>
<path d="M84.4961 13.9973H91.5373V6.99872H84.4961V13.9973Z" fill="#434868"/>
<path d="M77.4521 13.9973H84.4934V6.99872H77.4521V13.9973Z" fill="#606B8C"/>
<path d="M63.3711 13.9973H70.4123V6.99872H63.3711V13.9973Z" fill="#606B8C"/>
<path d="M56.3291 13.9973H63.3703V6.99872H56.3291V13.9973Z" fill="#EEEBE7"/>
<path d="M49.2891 13.9973H56.3303V6.99872H49.2891V13.9973Z" fill="#434868"/>
<path d="M42.2471 13.9973H49.2883V6.99872H42.2471V13.9973Z" fill="#606B8C"/>
<path d="M28.165 13.9973H35.2062V6.99872H28.165V13.9973Z" fill="#606B8C"/>
<path d="M21.124 13.9973H28.1652V6.99872H21.124V13.9973Z" fill="#EEEBE7"/>
<path d="M14.084 13.9973H21.1252V6.99872H14.084V13.9973Z" fill="#434868"/>
<path d="M7.04102 13.9973H14.0822V6.99872H7.04102V13.9973Z" fill="#606B8C"/>
<path d="M98.5762 6.99857H105.617V0H98.5762V6.99857Z" fill="#606B8C"/>
<path d="M91.5361 6.99857H98.5773V0H91.5361V6.99857Z" fill="#EEEBE7"/>
<path d="M84.4961 6.99857H91.5373V0H84.4961V6.99857Z" fill="#434868"/>
<path d="M77.4521 6.99857H84.4934V0H77.4521V6.99857Z" fill="#606B8C"/>
<path d="M63.3711 6.99857H70.4123V0H63.3711V6.99857Z" fill="#606B8C"/>
<path d="M56.3291 6.99857H63.3703V0H56.3291V6.99857Z" fill="#EEEBE7"/>
<path d="M49.2891 6.99857H56.3303V0H49.2891V6.99857Z" fill="#434868"/>
<path d="M42.2471 6.99857H49.2883V0H42.2471V6.99857Z" fill="#606B8C"/>
<path d="M28.165 6.99857H35.2062V0H28.165V6.99857Z" fill="#606B8C"/>
<path d="M21.124 6.99857H28.1652V0H21.124V6.99857Z" fill="#EEEBE7"/>
<path d="M14.084 6.99857H21.1252V0H14.084V6.99857Z" fill="#434868"/>
<path d="M7.04102 6.99857H14.0822V0H7.04102V6.99857Z" fill="#606B8C"/>
</svg>
