<svg width="30" height="30" viewBox="0 0 30 30" fill="none" xmlns="http://www.w3.org/2000/svg">
<path d="M22.0039 30.0002H23.9921V28.012H22.0039V30.0002Z" fill="#F8B02D"/>
<path d="M20.0156 30.0002H22.0039V28.012H20.0156V30.0002Z" fill="#F8B02D"/>
<path d="M17.9844 29.9999H20.0168V28.0117H17.9844V29.9999Z" fill="#F8B02D"/>
<path d="M15.9961 29.9999H17.9843V28.0117H15.9961V29.9999Z" fill="#F8B02D"/>
<path d="M14.0078 29.9999H15.996V28.0117H14.0078V29.9999Z" fill="#F8B02D"/>
<path d="M12.0195 29.9999H14.0078V28.0117H12.0195V29.9999Z" fill="#F8B02D"/>
<path d="M9.98438 29.9999H12.0168V28.0117H9.98438V29.9999Z" fill="#F8B02D"/>
<path d="M7.99609 29.9999H9.98432V28.0117H7.99609V29.9999Z" fill="#A62E35"/>
<path d="M6.00977 30.0002H7.99799V28.012H6.00977V30.0002Z" fill="#A62E35"/>
<path d="M23.9922 28.0117H26.0246V26.0234H23.9922V28.0117Z" fill="#F8B02D"/>
<path d="M22.0039 28.0117H23.9921V26.0234H22.0039V28.0117Z" fill="#A62E35"/>
<path d="M20.0156 28.0117H22.0039V26.0234H20.0156V28.0117Z" fill="#D97641"/>
<path d="M17.9844 28.0117H20.0168V26.0234H17.9844V28.0117Z" fill="#D97641"/>
<path d="M15.9961 28.0117H17.9843V26.0234H15.9961V28.0117Z" fill="#D97641"/>
<path d="M14.0078 28.0117H15.996V26.0234H14.0078V28.0117Z" fill="#D97641"/>
<path d="M12.0195 28.0117H14.0078V26.0234H12.0195V28.0117Z" fill="#D97641"/>
<path d="M9.98438 28.0117H12.0168V26.0234H9.98438V28.0117Z" fill="#D97641"/>
<path d="M7.99609 28.0117H9.98432V26.0234H7.99609V28.0117Z" fill="#F8B02D"/>
<path d="M6.00977 28.0117H7.99799V26.0234H6.00977V28.0117Z" fill="#A62E35"/>
<path d="M4.01953 28.0117H6.00776V26.0234H4.01953V28.0117Z" fill="#A62E35"/>
<path d="M26.0234 26.0241H28.0117V23.9917H26.0234V26.0241Z" fill="#F8B02D"/>
<path d="M23.9922 26.0241H26.0246V23.9917H23.9922V26.0241Z" fill="#A62E35"/>
<path d="M22.0039 26.0241H23.9921V23.9917H22.0039V26.0241Z" fill="#D97641"/>
<path d="M20.0156 26.0241H22.0039V23.9917H20.0156V26.0241Z" fill="#D97641"/>
<path d="M17.9844 26.0246H20.0168V23.9922H17.9844V26.0246Z" fill="#D97641"/>
<path d="M15.9961 26.0246H17.9843V23.9922H15.9961V26.0246Z" fill="#D97641"/>
<path d="M14.0078 26.0246H15.996V23.9922H14.0078V26.0246Z" fill="#D97641"/>
<path d="M12.0195 26.0246H14.0078V23.9922H12.0195V26.0246Z" fill="#D97641"/>
<path d="M9.98438 26.0246H12.0168V23.9922H9.98438V26.0246Z" fill="#D97641"/>
<path d="M7.99609 26.0246H9.98432V23.9922H7.99609V26.0246Z" fill="#D97641"/>
<path d="M6.00977 26.0241H7.99799V23.9917H6.00977V26.0241Z" fill="#F8B02D"/>
<path d="M4.01953 26.0241H6.00776V23.9917H4.01953V26.0241Z" fill="#A62E35"/>
<path d="M1.98828 26.0241H4.02069V23.9917H1.98828V26.0241Z" fill="#A62E35"/>
<path d="M28.0117 23.9914H29.9999V22.0032H28.0117V23.9914Z" fill="#F8B02D"/>
<path d="M26.0234 23.9914H28.0117V22.0032H26.0234V23.9914Z" fill="#A62E35"/>
<path d="M23.9922 23.9914H26.0246V22.0032H23.9922V23.9914Z" fill="#D97641"/>
<path d="M22.0039 23.9914H23.9921V22.0032H22.0039V23.9914Z" fill="#D97641"/>
<path d="M20.0156 23.9914H22.0039V22.0032H20.0156V23.9914Z" fill="#D97641"/>
<path d="M17.9844 23.9921H20.0168V22.0039H17.9844V23.9921Z" fill="#F8B02D"/>
<path d="M15.9961 23.9921H17.9843V22.0039H15.9961V23.9921Z" fill="#F8B02D"/>
<path d="M14.0078 23.9921H15.996V22.0039H14.0078V23.9921Z" fill="#C1472F"/>
<path d="M12.0195 23.9921H14.0078V22.0039H12.0195V23.9921Z" fill="#D97641"/>
<path d="M9.98438 23.9921H12.0168V22.0039H9.98438V23.9921Z" fill="#D97641"/>
<path d="M7.99609 23.9921H9.98432V22.0039H7.99609V23.9921Z" fill="#D97641"/>
<path d="M6.00977 23.9914H7.99799V22.0032H6.00977V23.9914Z" fill="#D97641"/>
<path d="M4.01953 23.9914H6.00776V22.0032H4.01953V23.9914Z" fill="#F8B02D"/>
<path d="M1.98828 23.9914H4.02069V22.0032H1.98828V23.9914Z" fill="#A62E35"/>
<path d="M0 23.9914H1.98823V22.0032H0V23.9914Z" fill="#A62E35"/>
<path d="M28.0117 22.0034H29.9999V20.0151H28.0117V22.0034Z" fill="#F8B02D"/>
<path d="M26.0234 22.0034H28.0117V20.0151H26.0234V22.0034Z" fill="#C1472F"/>
<path d="M23.9922 22.0034H26.0246V20.0151H23.9922V22.0034Z" fill="#D97641"/>
<path d="M22.0039 22.0034H23.9921V20.0151H22.0039V22.0034Z" fill="#D97641"/>
<path d="M20.0156 22.0034H22.0039V20.0151H20.0156V22.0034Z" fill="#D97641"/>
<path d="M17.9844 22.0039H20.0168V20.0156H17.9844V22.0039Z" fill="#F8B02D"/>
<path d="M15.9961 22.0039H17.9843V20.0156H15.9961V22.0039Z" fill="#F8B02D"/>
<path d="M14.0078 22.0039H15.996V20.0156H14.0078V22.0039Z" fill="#C1472F"/>
<path d="M12.0195 22.0039H14.0078V20.0156H12.0195V22.0039Z" fill="#D97641"/>
<path d="M9.98438 22.0039H12.0168V20.0156H9.98438V22.0039Z" fill="#D97641"/>
<path d="M7.99609 22.0039H9.98432V20.0156H7.99609V22.0039Z" fill="#D97641"/>
<path d="M6.00977 22.0034H7.99799V20.0151H6.00977V22.0034Z" fill="#D97641"/>
<path d="M4.01953 22.0034H6.00776V20.0151H4.01953V22.0034Z" fill="#F8B02D"/>
<path d="M1.98828 22.0034H4.02069V20.0151H1.98828V22.0034Z" fill="#C1472F"/>
<path d="M0 22.0034H1.98823V20.0151H0V22.0034Z" fill="#C1472F"/>
<path d="M28.0117 20.0148H29.9999V17.9824H28.0117V20.0148Z" fill="#F8B02D"/>
<path d="M26.0234 20.0148H28.0117V17.9824H26.0234V20.0148Z" fill="#C1472F"/>
<path d="M23.9922 20.0148H26.0246V17.9824H23.9922V20.0148Z" fill="#D97641"/>
<path d="M22.0039 20.0148H23.9921V17.9824H22.0039V20.0148Z" fill="#D97641"/>
<path d="M20.0156 20.0148H22.0039V17.9824H20.0156V20.0148Z" fill="#D97641"/>
<path d="M17.9844 20.0148H20.0168V17.9824H17.9844V20.0148Z" fill="#F8B02D"/>
<path d="M15.9961 20.0148H17.9843V17.9824H15.9961V20.0148Z" fill="#F8B02D"/>
<path d="M14.0078 20.0148H15.996V17.9824H14.0078V20.0148Z" fill="#C1472F"/>
<path d="M12.0195 20.0148H14.0078V17.9824H12.0195V20.0148Z" fill="#D97641"/>
<path d="M9.98438 20.0148H12.0168V17.9824H9.98438V20.0148Z" fill="#D97641"/>
<path d="M7.99609 20.0148H9.98432V17.9824H7.99609V20.0148Z" fill="#D97641"/>
<path d="M6.00977 20.0148H7.99799V17.9824H6.00977V20.0148Z" fill="#D97641"/>
<path d="M4.01953 20.0148H6.00776V17.9824H4.01953V20.0148Z" fill="#F8B02D"/>
<path d="M1.98828 20.0148H4.02069V17.9824H1.98828V20.0148Z" fill="#C1472F"/>
<path d="M0 20.0148H1.98823V17.9824H0V20.0148Z" fill="#C1472F"/>
<path d="M28.0117 17.9824H29.9999V15.9941H28.0117V17.9824Z" fill="#F8B02D"/>
<path d="M26.0234 17.9824H28.0117V15.9941H26.0234V17.9824Z" fill="#C1472F"/>
<path d="M23.9922 17.9824H26.0246V15.9941H23.9922V17.9824Z" fill="#D97641"/>
<path d="M22.0039 17.9824H23.9921V15.9941H22.0039V17.9824Z" fill="#D97641"/>
<path d="M20.0156 17.9824H22.0039V15.9941H20.0156V17.9824Z" fill="#D97641"/>
<path d="M17.9844 17.9824H20.0168V15.9941H17.9844V17.9824Z" fill="#F8B02D"/>
<path d="M15.9961 17.9824H17.9843V15.9941H15.9961V17.9824Z" fill="#F8B02D"/>
<path d="M14.0078 17.9824H15.996V15.9941H14.0078V17.9824Z" fill="#C1472F"/>
<path d="M12.0195 17.9824H14.0078V15.9941H12.0195V17.9824Z" fill="#D97641"/>
<path d="M9.98438 17.9824H12.0168V15.9941H9.98438V17.9824Z" fill="#D97641"/>
<path d="M7.99609 17.9824H9.98432V15.9941H7.99609V17.9824Z" fill="#D97641"/>
<path d="M6.00977 17.9824H7.99799V15.9941H6.00977V17.9824Z" fill="#D97641"/>
<path d="M4.01953 17.9824H6.00776V15.9941H4.01953V17.9824Z" fill="#F8B02D"/>
<path d="M1.98828 17.9824H4.02069V15.9941H1.98828V17.9824Z" fill="#C1472F"/>
<path d="M0 17.9824H1.98823V15.9941H0V17.9824Z" fill="#C1472F"/>
<path d="M28.0117 15.9941H29.9999V14.0059H28.0117V15.9941Z" fill="#FDE659"/>
<path d="M26.0234 15.9941H28.0117V14.0059H26.0234V15.9941Z" fill="#D97641"/>
<path d="M23.9922 15.9941H26.0246V14.0059H23.9922V15.9941Z" fill="#F8B02D"/>
<path d="M22.0039 15.9941H23.9921V14.0059H22.0039V15.9941Z" fill="#F8B02D"/>
<path d="M20.0156 15.9941H22.0039V14.0059H20.0156V15.9941Z" fill="#F8B02D"/>
<path d="M17.9844 15.9941H20.0168V14.0059H17.9844V15.9941Z" fill="#FDE659"/>
<path d="M15.9961 15.9941H17.9843V14.0059H15.9961V15.9941Z" fill="#FDE659"/>
<path d="M14.0078 15.9941H15.996V14.0059H14.0078V15.9941Z" fill="#C1472F"/>
<path d="M12.0195 15.9941H14.0078V14.0059H12.0195V15.9941Z" fill="#F8B02D"/>
<path d="M9.98438 15.9941H12.0168V14.0059H9.98438V15.9941Z" fill="#F8B02D"/>
<path d="M7.99609 15.9941H9.98432V14.0059H7.99609V15.9941Z" fill="#F8B02D"/>
<path d="M6.00977 15.9941H7.99799V14.0059H6.00977V15.9941Z" fill="#F8B02D"/>
<path d="M4.01953 15.9941H6.00776V14.0059H4.01953V15.9941Z" fill="#FDE659"/>
<path d="M1.98828 15.9941H4.02069V14.0059H1.98828V15.9941Z" fill="#D97641"/>
<path d="M0 15.9941H1.98823V14.0059H0V15.9941Z" fill="#D97641"/>
<path d="M28.0117 14.0058H29.9999V12.0176H28.0117V14.0058Z" fill="#FDE659"/>
<path d="M26.0234 14.0058H28.0117V12.0176H26.0234V14.0058Z" fill="#D97641"/>
<path d="M23.9922 14.0058H26.0246V12.0176H23.9922V14.0058Z" fill="#F8B02D"/>
<path d="M22.0039 14.0058H23.9921V12.0176H22.0039V14.0058Z" fill="#F8B02D"/>
<path d="M20.0156 14.0058H22.0039V12.0176H20.0156V14.0058Z" fill="#F8B02D"/>
<path d="M17.9844 14.0058H20.0168V12.0176H17.9844V14.0058Z" fill="#FDE659"/>
<path d="M15.9961 14.0058H17.9843V12.0176H15.9961V14.0058Z" fill="#FDE659"/>
<path d="M14.0078 14.0058H15.996V12.0176H14.0078V14.0058Z" fill="#FDE659"/>
<path d="M12.0195 14.0058H14.0078V12.0176H12.0195V14.0058Z" fill="#C1472F"/>
<path d="M9.98438 14.0058H12.0168V12.0176H9.98438V14.0058Z" fill="#F8B02D"/>
<path d="M7.99609 14.0058H9.98432V12.0176H7.99609V14.0058Z" fill="#F8B02D"/>
<path d="M6.00977 14.0058H7.99799V12.0176H6.00977V14.0058Z" fill="#F8B02D"/>
<path d="M4.01953 14.0058H6.00776V12.0176H4.01953V14.0058Z" fill="#FDE659"/>
<path d="M1.98828 14.0058H4.02069V12.0176H1.98828V14.0058Z" fill="#D97641"/>
<path d="M0 14.0058H1.98823V12.0176H0V14.0058Z" fill="#D97641"/>
<path d="M28.0117 12.0178H29.9999V9.98535H28.0117V12.0178Z" fill="#FDE659"/>
<path d="M26.0234 12.0178H28.0117V9.98535H26.0234V12.0178Z" fill="#D97641"/>
<path d="M23.9922 12.0178H26.0246V9.98535H23.9922V12.0178Z" fill="#F8B02D"/>
<path d="M22.0039 12.0178H23.9921V9.98535H22.0039V12.0178Z" fill="#F8B02D"/>
<path d="M20.0156 12.0178H22.0039V9.98535H20.0156V12.0178Z" fill="#F8B02D"/>
<path d="M17.9844 12.0168H20.0168V9.98438H17.9844V12.0168Z" fill="#FDE659"/>
<path d="M15.9961 12.0168H17.9843V9.98438H15.9961V12.0168Z" fill="#FDE659"/>
<path d="M14.0078 12.0168H15.996V9.98438H14.0078V12.0168Z" fill="#FDE659"/>
<path d="M12.0195 12.0168H14.0078V9.98438H12.0195V12.0168Z" fill="#C1472F"/>
<path d="M9.98438 12.0168H12.0168V9.98438H9.98438V12.0168Z" fill="#F8B02D"/>
<path d="M7.99609 12.0168H9.98432V9.98438H7.99609V12.0168Z" fill="#F8B02D"/>
<path d="M6.00977 12.0178H7.99799V9.98535H6.00977V12.0178Z" fill="#F8B02D"/>
<path d="M4.01953 12.0178H6.00776V9.98535H4.01953V12.0178Z" fill="#FDE659"/>
<path d="M1.98828 12.0178H4.02069V9.98535H1.98828V12.0178Z" fill="#D97641"/>
<path d="M0 12.0178H1.98823V9.98535H0V12.0178Z" fill="#D97641"/>
<path d="M28.0117 9.98579H29.9999V7.99756H28.0117V9.98579Z" fill="#FDE659"/>
<path d="M26.0234 9.98579H28.0117V7.99756H26.0234V9.98579Z" fill="#D97641"/>
<path d="M23.9922 9.98579H26.0246V7.99756H23.9922V9.98579Z" fill="#F8B02D"/>
<path d="M22.0039 9.98579H23.9921V7.99756H22.0039V9.98579Z" fill="#F8B02D"/>
<path d="M20.0156 9.98579H22.0039V7.99756H20.0156V9.98579Z" fill="#F8B02D"/>
<path d="M17.9844 9.98627H20.0168V7.99805H17.9844V9.98627Z" fill="#FDE659"/>
<path d="M15.9961 9.98627H17.9843V7.99805H15.9961V9.98627Z" fill="#FDE659"/>
<path d="M14.0078 9.98627H15.996V7.99805H14.0078V9.98627Z" fill="#C1472F"/>
<path d="M12.0195 9.98627H14.0078V7.99805H12.0195V9.98627Z" fill="#F8B02D"/>
<path d="M9.98438 9.98627H12.0168V7.99805H9.98438V9.98627Z" fill="#F8B02D"/>
<path d="M7.99609 9.98627H9.98432V7.99805H7.99609V9.98627Z" fill="#F8B02D"/>
<path d="M6.00977 9.98579H7.99799V7.99756H6.00977V9.98579Z" fill="#F8B02D"/>
<path d="M4.01953 9.98579H6.00776V7.99756H4.01953V9.98579Z" fill="#FDE659"/>
<path d="M1.98828 9.98579H4.02069V7.99756H1.98828V9.98579Z" fill="#D97641"/>
<path d="M0 9.98579H1.98823V7.99756H0V9.98579Z" fill="#D97641"/>
<path d="M28.0117 7.9975H29.9999V6.00928H28.0117V7.9975Z" fill="#FDE659"/>
<path d="M26.0234 7.9975H28.0117V6.00928H26.0234V7.9975Z" fill="#D97641"/>
<path d="M23.9922 7.9975H26.0246V6.00928H23.9922V7.9975Z" fill="#F8B02D"/>
<path d="M22.0039 7.9975H23.9921V6.00928H22.0039V7.9975Z" fill="#F8B02D"/>
<path d="M20.0156 7.9975H22.0039V6.00928H20.0156V7.9975Z" fill="#F8B02D"/>
<path d="M17.9844 7.99799H20.0168V6.00977H17.9844V7.99799Z" fill="#FDE659"/>
<path d="M15.9961 7.99799H17.9843V6.00977H15.9961V7.99799Z" fill="#FDE659"/>
<path d="M14.0078 7.99799H15.996V6.00977H14.0078V7.99799Z" fill="#C1472F"/>
<path d="M12.0195 7.99799H14.0078V6.00977H12.0195V7.99799Z" fill="#F8B02D"/>
<path d="M9.98438 7.99799H12.0168V6.00977H9.98438V7.99799Z" fill="#F8B02D"/>
<path d="M7.99609 7.99799H9.98432V6.00977H7.99609V7.99799Z" fill="#F8B02D"/>
<path d="M6.00977 7.9975H7.99799V6.00928H6.00977V7.9975Z" fill="#F8B02D"/>
<path d="M4.01953 7.9975H6.00776V6.00928H4.01953V7.9975Z" fill="#FDE659"/>
<path d="M1.98828 7.9975H4.02069V6.00928H1.98828V7.9975Z" fill="#D97641"/>
<path d="M0 7.9975H1.98823V6.00928H0V7.9975Z" fill="#D97641"/>
<path d="M26.0234 6.00922H28.0117V4.021H26.0234V6.00922Z" fill="#FDE659"/>
<path d="M23.9922 6.00922H26.0246V4.021H23.9922V6.00922Z" fill="#D97641"/>
<path d="M22.0039 6.00922H23.9921V4.021H22.0039V6.00922Z" fill="#F8B02D"/>
<path d="M20.0156 6.00922H22.0039V4.021H20.0156V6.00922Z" fill="#F8B02D"/>
<path d="M17.9844 6.00971H20.0168V4.02148H17.9844V6.00971Z" fill="#F8B02D"/>
<path d="M15.9961 6.00971H17.9843V4.02148H15.9961V6.00971Z" fill="#F8B02D"/>
<path d="M14.0078 6.00971H15.996V4.02148H14.0078V6.00971Z" fill="#F8B02D"/>
<path d="M12.0195 6.00971H14.0078V4.02148H12.0195V6.00971Z" fill="#F8B02D"/>
<path d="M9.98438 6.00971H12.0168V4.02148H9.98438V6.00971Z" fill="#F8B02D"/>
<path d="M7.99609 6.00971H9.98432V4.02148H7.99609V6.00971Z" fill="#F8B02D"/>
<path d="M6.00977 6.00922H7.99799V4.021H6.00977V6.00922Z" fill="#FDE659"/>
<path d="M4.01953 6.00922H6.00776V4.021H4.01953V6.00922Z" fill="#D97641"/>
<path d="M1.98828 6.00922H4.02069V4.021H1.98828V6.00922Z" fill="#D97641"/>
<path d="M23.9922 4.02069H26.0246V1.98828H23.9922V4.02069Z" fill="#FDE659"/>
<path d="M22.0039 4.02069H23.9921V1.98828H22.0039V4.02069Z" fill="#D97641"/>
<path d="M20.0156 4.02069H22.0039V1.98828H20.0156V4.02069Z" fill="#D97641"/>
<path d="M17.9844 4.02069H20.0168V1.98828H17.9844V4.02069Z" fill="#D97641"/>
<path d="M15.9961 4.02069H17.9843V1.98828H15.9961V4.02069Z" fill="#D97641"/>
<path d="M14.0078 4.02069H15.996V1.98828H14.0078V4.02069Z" fill="#D97641"/>
<path d="M12.0195 4.02069H14.0078V1.98828H12.0195V4.02069Z" fill="#D97641"/>
<path d="M9.98438 4.02069H12.0168V1.98828H9.98438V4.02069Z" fill="#D97641"/>
<path d="M7.99609 4.02069H9.98432V1.98828H7.99609V4.02069Z" fill="#FDE659"/>
<path d="M6.00977 4.02069H7.99799V1.98828H6.00977V4.02069Z" fill="#D97641"/>
<path d="M4.01953 4.02069H6.00776V1.98828H4.01953V4.02069Z" fill="#D97641"/>
<path d="M22.0039 1.98823H23.9921V0H22.0039V1.98823Z" fill="#FDE659"/>
<path d="M20.0156 1.98823H22.0039V0H20.0156V1.98823Z" fill="#FDE659"/>
<path d="M17.9844 1.98823H20.0168V0H17.9844V1.98823Z" fill="#FDE659"/>
<path d="M15.9961 1.98823H17.9843V0H15.9961V1.98823Z" fill="#FDE659"/>
<path d="M14.0078 1.98823H15.996V0H14.0078V1.98823Z" fill="#FDE659"/>
<path d="M12.0195 1.98823H14.0078V0H12.0195V1.98823Z" fill="#FDE659"/>
<path d="M9.98438 1.98823H12.0168V0H9.98438V1.98823Z" fill="#FDE659"/>
<path d="M7.99609 1.98823H9.98432V0H7.99609V1.98823Z" fill="#D97641"/>
<path d="M6.00977 1.98823H7.99799V0H6.00977V1.98823Z" fill="#D97641"/>
</svg>
