<svg width="222" height="66" viewBox="0 0 222 66" fill="none" xmlns="http://www.w3.org/2000/svg">
<g clip-path="url(#clip0)">
<path d="M224.787 -1.22681H-1.36133V68.3077H224.787V-1.22681Z" fill="#FFB85A"/>
<path d="M202.944 -42.5713L131.64 -1.98633L172.809 68.3069L244.113 27.7219L202.944 -42.5713Z" fill="#FF954D"/>
<path d="M0 0H221.572V33L0 0Z" fill="#FFD939"/>
<path d="M221.572 66H0V33L221.572 66Z" fill="#FFD939"/>
<path d="M42.2044 -1.22734L-29.1001 39.3577L12.0688 109.651L83.3733 69.0659L42.2044 -1.22734Z" fill="#FF954D"/>
<path d="M15.5673 35.3806H18.4811L19.6207 31.2329H16.6946L17.3353 28.8644H20.2676L21.8384 23.1438H24.6968L23.1259 28.8644H25.4791L27.0377 23.1438H29.896L28.3375 28.8644H31.2574L30.6168 31.2329H27.6968L26.5695 35.3806H29.4956L28.8549 37.749H25.9288L24.3888 43.415H21.5304L23.0705 37.749H20.6988L19.1464 43.415H16.2881L17.8404 37.749H14.939L15.5673 35.3806ZM23.6988 35.3806L24.8261 31.2329H22.4668L21.3271 35.3806H23.6988Z" fill="white"/>
<path d="M33.3457 22.5911H39.7955L43.5039 38.7935H43.5594L47.274 22.5911H53.7546V43.415H49.6888V26.004H49.6334L45.6231 43.415H41.3294L37.4792 26.004H37.4238V43.415H33.358V22.5911H33.3457Z" fill="white"/>
<path d="M58.2207 22.5911H62.6314V30.7894H66.8389C67.1531 30.7894 67.5596 30.8016 68.0524 30.8198C68.5453 30.838 69.075 30.9048 69.6418 31.0263C70.2085 31.1417 70.7691 31.3299 71.3359 31.585C71.9026 31.8401 72.4139 32.1984 72.8759 32.666C73.3379 33.1336 73.7075 33.7287 73.9971 34.4514C74.2866 35.1741 74.4283 36.0668 74.4283 37.1235C74.4283 38.1741 74.2866 39.0546 73.9971 39.7712C73.7075 40.4878 73.3441 41.083 72.9006 41.5506C72.457 42.0182 71.9642 42.3765 71.4221 42.6255C70.88 42.8745 70.3564 43.0627 69.8389 43.1781C69.3276 43.2935 68.8594 43.3664 68.4282 43.3846C68.0032 43.4028 67.689 43.415 67.4857 43.415H58.2207V22.5911ZM62.6314 39.8137H66.3645C66.765 39.8137 67.1839 39.7834 67.6089 39.7287C68.034 39.6741 68.4282 39.5465 68.7855 39.3583C69.1428 39.17 69.4385 38.8907 69.6664 38.5141C69.8944 38.1437 70.0114 37.6457 70.0114 37.0202C70.0114 36.3704 69.9005 35.8542 69.6726 35.4838C69.4447 35.1133 69.1551 34.8279 68.7917 34.6396C68.4282 34.4514 68.0155 34.3299 67.5658 34.2874C67.1099 34.2388 66.6541 34.2145 66.1921 34.2145H62.6314V39.8137ZM77.2866 22.5911H81.6974V43.415H77.2866V22.5911Z" fill="white"/>
<path d="M85.9976 22.5911H96.3591C97.2215 22.5911 97.9792 22.67 98.6384 22.834C99.2913 22.9919 99.8643 23.2105 100.339 23.4838C100.819 23.7571 101.22 24.0728 101.546 24.4311C101.872 24.7894 102.131 25.166 102.322 25.5546C102.513 25.9494 102.649 26.3441 102.729 26.751C102.809 27.1579 102.852 27.5465 102.852 27.9109C102.852 28.4392 102.803 28.9129 102.71 29.332C102.612 29.751 102.464 30.1336 102.261 30.4797C102.057 30.8259 101.786 31.1356 101.454 31.415C101.121 31.6943 100.727 31.9433 100.271 32.1741C100.979 32.4413 101.552 32.7631 101.983 33.1518C102.415 33.5405 102.747 33.9595 102.975 34.4028C103.203 34.8522 103.357 35.3137 103.437 35.7935C103.511 36.2733 103.554 36.7287 103.554 37.172C103.554 38.1801 103.369 39.0728 102.994 39.8502C102.618 40.6275 102.094 41.2712 101.41 41.7996C100.733 42.3218 99.9012 42.7226 98.9341 42.9959C97.9607 43.2692 96.8827 43.4089 95.6938 43.4089H85.9976V22.5911ZM90.2358 30.7894H95.6814C96.0634 30.7894 96.433 30.7469 96.7903 30.6619C97.1476 30.5769 97.4556 30.4372 97.7328 30.2429C98.0039 30.0486 98.2256 29.7996 98.3858 29.502C98.546 29.1984 98.6322 28.834 98.6322 28.4089C98.6322 27.9656 98.5583 27.6012 98.4104 27.3097C98.2626 27.0243 98.0593 26.7935 97.8006 26.6235C97.5418 26.4534 97.24 26.338 96.895 26.2712C96.55 26.2044 96.1866 26.1741 95.8047 26.1741H90.242V30.7894H90.2358ZM90.2358 39.8137H95.7369C96.2236 39.8137 96.6733 39.7591 97.086 39.6437C97.4987 39.5283 97.856 39.3583 98.1579 39.1275C98.4597 38.8967 98.6938 38.6052 98.8601 38.2469C99.0265 37.8947 99.1127 37.4757 99.1127 36.9959C99.1127 36.3947 99.0141 35.9089 98.8109 35.5445C98.6076 35.1801 98.3427 34.9008 98.0162 34.7004C97.6835 34.5 97.3139 34.3724 96.895 34.3117C96.4761 34.251 96.0572 34.2206 95.626 34.2206H90.2358V39.8137Z" fill="white"/>
<path d="M106.887 22.5911H113.336L117.045 38.7935H117.1L120.809 22.5911H127.289V43.415H123.224V26.004H123.168L119.158 43.415H114.864L111.008 26.004H110.952V43.415H106.887V22.5911Z" fill="white"/>
<path d="M131.755 22.5911H147.261V26.1741H135.994V30.7894H146.355V34.3846H135.994V39.6376H147.76V43.4028H131.755V22.5911Z" fill="white"/>
<path d="M164.688 29.4292C164.633 29.2288 164.559 29.0041 164.473 28.7429C164.386 28.4818 164.269 28.2207 164.122 27.9595C163.974 27.6923 163.789 27.4373 163.561 27.1822C163.333 26.9271 163.056 26.7024 162.723 26.502C162.391 26.3016 161.984 26.1437 161.516 26.0223C161.048 25.9008 160.493 25.8401 159.865 25.8401C159.594 25.8401 159.28 25.8705 158.916 25.9373C158.553 26.0041 158.177 26.1255 157.795 26.3138C157.413 26.496 157.031 26.7571 156.662 27.085C156.286 27.413 155.953 27.8502 155.664 28.3786C155.374 28.913 155.134 29.5567 154.955 30.3097C154.77 31.0628 154.684 31.9615 154.684 33C154.684 34.1235 154.801 35.1316 155.042 36.0182C155.282 36.9049 155.627 37.6579 156.076 38.2713C156.526 38.8846 157.068 39.3522 157.709 39.6802C158.343 40.0081 159.064 40.166 159.871 40.166C160.801 40.166 161.559 40.0263 162.144 39.7409C162.729 39.4555 163.198 39.1154 163.543 38.7085C163.894 38.3016 164.152 37.8765 164.325 37.4332C164.497 36.9899 164.633 36.6012 164.725 36.2733H169.105C168.865 37.5789 168.471 38.7085 167.91 39.668C167.356 40.6275 166.678 41.4231 165.883 42.0546C165.089 42.6862 164.196 43.1599 163.204 43.4696C162.212 43.7793 161.159 43.9372 160.037 43.9372C158.467 43.9372 157.074 43.6822 155.861 43.166C154.647 42.6498 153.631 41.915 152.799 40.9615C151.968 40.0081 151.339 38.8603 150.908 37.5121C150.477 36.164 150.261 34.664 150.261 33C150.261 31.7186 150.384 30.5526 150.637 29.5142C150.883 28.4757 151.235 27.5526 151.678 26.745C152.122 25.9373 152.645 25.2389 153.249 24.6498C153.853 24.0607 154.512 23.5749 155.226 23.1923C155.941 22.8097 156.692 22.5243 157.475 22.3421C158.257 22.1599 159.058 22.0688 159.859 22.0688C161.011 22.0688 162.027 22.1842 162.92 22.4211C163.814 22.6579 164.59 22.9737 165.261 23.3684C165.933 23.7632 166.506 24.2186 166.98 24.7288C167.454 25.2389 167.842 25.7672 168.144 26.3077C168.446 26.8482 168.674 27.3948 168.822 27.9352C168.97 28.4757 169.062 28.9737 169.099 29.4292H164.688Z" fill="white"/>
<path d="M170.583 22.5911H187.881V26.1741H181.432V43.415H177.021V26.1741H170.583V22.5911Z" fill="white"/>
<path d="M190.641 22.5911H206.146V26.1741H194.879V30.7894H205.241V34.3846H194.879V39.6376H206.645V43.4028H190.641V22.5911Z" fill="white"/>
</g>
<defs>
<clipPath id="clip0">
<rect width="221.571" height="66" fill="white"/>
</clipPath>
</defs>
</svg>
