<svg width="98" height="122" viewBox="0 0 98 122" fill="none" xmlns="http://www.w3.org/2000/svg">
<path d="M80.6875 121.781H86.4584V116.01H80.6875V121.781Z" fill="#96A2BB"/>
<path d="M74.916 121.781H80.6869V116.01H74.916V121.781Z" fill="#96A2BB"/>
<path d="M69.1445 121.781H74.9154V116.01H69.1445V121.781Z" fill="#434868"/>
<path d="M63.374 121.781H69.1449V116.01H63.374V121.781Z" fill="#434868"/>
<path d="M57.6045 121.781H63.3754V116.01H57.6045V121.781Z" fill="#434868"/>
<path d="M51.834 121.781H57.6049V116.01H51.834V121.781Z" fill="#434868"/>
<path d="M40.291 121.781H46.0619V116.01H40.291V121.781Z" fill="#96A2BB"/>
<path d="M34.625 121.781H40.291V116.01H34.625V121.781Z" fill="#96A2BB"/>
<path d="M28.8535 121.781H34.6244V116.01H28.8535V121.781Z" fill="#434868"/>
<path d="M23.082 121.781H28.8529V116.01H23.082V121.781Z" fill="#434868"/>
<path d="M17.3135 121.781H23.0844V116.01H17.3135V121.781Z" fill="#434868"/>
<path d="M11.542 121.781H17.3129V116.01H11.542V121.781Z" fill="#434868"/>
<path d="M74.916 116.011H80.6869V110.24H74.916V116.011Z" fill="#96A2BB"/>
<path d="M69.1445 116.011H74.9154V110.24H69.1445V116.011Z" fill="#96A2BB"/>
<path d="M63.374 116.011H69.1449V110.24H63.374V116.011Z" fill="#434868"/>
<path d="M57.6045 116.011H63.3754V110.24H57.6045V116.011Z" fill="#434868"/>
<path d="M34.625 116.011H40.291V110.24H34.625V116.011Z" fill="#96A2BB"/>
<path d="M28.8535 116.011H34.6244V110.24H28.8535V116.011Z" fill="#96A2BB"/>
<path d="M23.082 116.011H28.8529V110.24H23.082V116.011Z" fill="#434868"/>
<path d="M17.3135 116.011H23.0844V110.24H17.3135V116.011Z" fill="#434868"/>
<path d="M74.916 110.239H80.6869V104.573H74.916V110.239Z" fill="#96A2BB"/>
<path d="M69.1445 110.239H74.9154V104.573H69.1445V110.239Z" fill="#96A2BB"/>
<path d="M63.374 110.239H69.1449V104.573H63.374V110.239Z" fill="#434868"/>
<path d="M57.6045 110.239H63.3754V104.573H57.6045V110.239Z" fill="#434868"/>
<path d="M34.625 110.239H40.291V104.573H34.625V110.239Z" fill="#96A2BB"/>
<path d="M28.8535 110.239H34.6244V104.573H28.8535V110.239Z" fill="#96A2BB"/>
<path d="M23.082 110.239H28.8529V104.573H23.082V110.239Z" fill="#434868"/>
<path d="M17.3135 110.239H23.0844V104.573H17.3135V110.239Z" fill="#434868"/>
<path d="M92.2295 104.573H98.0004V98.8022H92.2295V104.573Z" fill="#606B8C"/>
<path d="M86.458 104.573H92.2289V98.8022H86.458V104.573Z" fill="#606B8C"/>
<path d="M80.6875 104.573H86.4584V98.8022H80.6875V104.573Z" fill="#434868"/>
<path d="M74.916 104.573H80.6869V98.8022H74.916V104.573Z" fill="#606B8C"/>
<path d="M69.1445 104.573H74.9154V98.8022H69.1445V104.573Z" fill="#606B8C"/>
<path d="M63.374 104.573H69.1449V98.8022H63.374V104.573Z" fill="#434868"/>
<path d="M57.6045 104.573H63.3754V98.8022H57.6045V104.573Z" fill="#434868"/>
<path d="M51.834 104.573H57.6049V98.8022H51.834V104.573Z" fill="#434868"/>
<path d="M46.0625 104.573H51.8334V98.8022H46.0625V104.573Z" fill="#434868"/>
<path d="M40.291 104.573H46.0619V98.8022H40.291V104.573Z" fill="#434868"/>
<path d="M34.625 104.573H40.291V98.8022H34.625V104.573Z" fill="#606B8C"/>
<path d="M28.8535 104.573H34.6244V98.8022H28.8535V104.573Z" fill="#606B8C"/>
<path d="M23.082 104.573H28.8529V98.8022H23.082V104.573Z" fill="#96A2BB"/>
<path d="M17.3135 104.573H23.0844V98.8022H17.3135V104.573Z" fill="#96A2BB"/>
<path d="M11.542 104.573H17.3129V98.8022H11.542V104.573Z" fill="#606B8C"/>
<path d="M5.77148 104.573H11.5424V98.8022H5.77148V104.573Z" fill="#434868"/>
<path d="M0 104.573H5.77088V98.8022H0V104.573Z" fill="#434868"/>
<path d="M92.2295 98.8031H98.0004V93.0322H92.2295V98.8031Z" fill="#606B8C"/>
<path d="M86.458 98.8031H92.2289V93.0322H86.458V98.8031Z" fill="#434868"/>
<path d="M80.6875 98.8031H86.4584V93.0322H80.6875V98.8031Z" fill="#434868"/>
<path d="M74.916 98.8031H80.6869V93.0322H74.916V98.8031Z" fill="#434868"/>
<path d="M69.1445 98.8031H74.9154V93.0322H69.1445V98.8031Z" fill="#434868"/>
<path d="M63.374 98.8031H69.1449V93.0322H63.374V98.8031Z" fill="#434868"/>
<path d="M57.6045 98.8031H63.3754V93.0322H57.6045V98.8031Z" fill="#434868"/>
<path d="M51.834 98.8031H57.6049V93.0322H51.834V98.8031Z" fill="#434868"/>
<path d="M46.0625 98.8031H51.8334V93.0322H46.0625V98.8031Z" fill="#434868"/>
<path d="M40.291 98.8031H46.0619V93.0322H40.291V98.8031Z" fill="#434868"/>
<path d="M34.625 98.8031H40.291V93.0322H34.625V98.8031Z" fill="#434868"/>
<path d="M28.8535 98.8031H34.6244V93.0322H28.8535V98.8031Z" fill="#434868"/>
<path d="M23.082 98.8031H28.8529V93.0322H23.082V98.8031Z" fill="#96A2BB"/>
<path d="M17.3135 98.8031H23.0844V93.0322H17.3135V98.8031Z" fill="#96A2BB"/>
<path d="M11.542 98.8031H17.3129V93.0322H11.542V98.8031Z" fill="#606B8C"/>
<path d="M5.77148 98.8031H11.5424V93.0322H5.77148V98.8031Z" fill="#434868"/>
<path d="M0 98.8031H5.77088V93.0322H0V98.8031Z" fill="#434868"/>
<path d="M92.2295 93.0319H98.0004V87.261H92.2295V93.0319Z" fill="#606B8C"/>
<path d="M86.458 93.0319H92.2289V87.261H86.458V93.0319Z" fill="#96A2BB"/>
<path d="M80.6875 93.0319H86.4584V87.261H80.6875V93.0319Z" fill="#96A2BB"/>
<path d="M74.916 93.0319H80.6869V87.261H74.916V93.0319Z" fill="#96A2BB"/>
<path d="M69.1445 93.0319H74.9154V87.261H69.1445V93.0319Z" fill="#96A2BB"/>
<path d="M63.374 93.0319H69.1449V87.261H63.374V93.0319Z" fill="#96A2BB"/>
<path d="M57.6045 93.0319H63.3754V87.261H57.6045V93.0319Z" fill="#96A2BB"/>
<path d="M51.834 93.0319H57.6049V87.261H51.834V93.0319Z" fill="#96A2BB"/>
<path d="M46.0625 93.0319H51.8334V87.261H46.0625V93.0319Z" fill="#96A2BB"/>
<path d="M40.291 93.0319H46.0619V87.261H40.291V93.0319Z" fill="#96A2BB"/>
<path d="M34.625 93.0319H40.291V87.261H34.625V93.0319Z" fill="#96A2BB"/>
<path d="M28.8535 93.0319H34.6244V87.261H28.8535V93.0319Z" fill="#434868"/>
<path d="M23.082 93.0319H28.8529V87.261H23.082V93.0319Z" fill="#96A2BB"/>
<path d="M17.3135 93.0319H23.0844V87.261H17.3135V93.0319Z" fill="#96A2BB"/>
<path d="M11.542 93.0319H17.3129V87.261H11.542V93.0319Z" fill="#606B8C"/>
<path d="M5.77148 93.0319H11.5424V87.261H5.77148V93.0319Z" fill="#434868"/>
<path d="M0 93.0319H5.77088V87.261H0V93.0319Z" fill="#434868"/>
<path d="M92.2295 87.2607H98.0004V81.4899H92.2295V87.2607Z" fill="#606B8C"/>
<path d="M86.458 87.2607H92.2289V81.4899H86.458V87.2607Z" fill="#96A2BB"/>
<path d="M80.6875 87.2607H86.4584V81.4899H80.6875V87.2607Z" fill="#434868"/>
<path d="M74.916 87.2607H80.6869V81.4899H74.916V87.2607Z" fill="#79CADF"/>
<path d="M69.1445 87.2607H74.9154V81.4899H69.1445V87.2607Z" fill="#79CADF"/>
<path d="M63.374 87.2607H69.1449V81.4899H63.374V87.2607Z" fill="#79CADF"/>
<path d="M57.6045 87.2607H63.3754V81.4899H57.6045V87.2607Z" fill="#79CADF"/>
<path d="M51.834 87.2607H57.6049V81.4899H51.834V87.2607Z" fill="#79CADF"/>
<path d="M46.0625 87.2607H51.8334V81.4899H46.0625V87.2607Z" fill="#79CADF"/>
<path d="M40.291 87.2607H46.0619V81.4899H40.291V87.2607Z" fill="#79CADF"/>
<path d="M34.625 87.2607H40.291V81.4899H34.625V87.2607Z" fill="#96A2BB"/>
<path d="M28.8535 87.2607H34.6244V81.4899H28.8535V87.2607Z" fill="#434868"/>
<path d="M23.082 87.2607H28.8529V81.4899H23.082V87.2607Z" fill="#96A2BB"/>
<path d="M17.3135 87.2607H23.0844V81.4899H17.3135V87.2607Z" fill="#96A2BB"/>
<path d="M11.542 87.2607H17.3129V81.4899H11.542V87.2607Z" fill="#606B8C"/>
<path d="M5.77148 87.2607H11.5424V81.4899H5.77148V87.2607Z" fill="#434868"/>
<path d="M0 87.2607H5.77088V81.4899H0V87.2607Z" fill="#434868"/>
<path d="M92.2295 81.4896H98.0004V75.7187H92.2295V81.4896Z" fill="#606B8C"/>
<path d="M86.458 81.4896H92.2289V75.7187H86.458V81.4896Z" fill="#96A2BB"/>
<path d="M80.6875 81.4896H86.4584V75.7187H80.6875V81.4896Z" fill="#434868"/>
<path d="M74.916 81.4896H80.6869V75.7187H74.916V81.4896Z" fill="#2298D5"/>
<path d="M69.1445 81.4896H74.9154V75.7187H69.1445V81.4896Z" fill="#2298D5"/>
<path d="M63.374 81.4896H69.1449V75.7187H63.374V81.4896Z" fill="#2298D5"/>
<path d="M57.6045 81.4896H63.3754V75.7187H57.6045V81.4896Z" fill="#2298D5"/>
<path d="M51.834 81.4896H57.6049V75.7187H51.834V81.4896Z" fill="#2298D5"/>
<path d="M46.0625 81.4896H51.8334V75.7187H46.0625V81.4896Z" fill="#2298D5"/>
<path d="M40.291 81.4896H46.0619V75.7187H40.291V81.4896Z" fill="#2298D5"/>
<path d="M34.625 81.4896H40.291V75.7187H34.625V81.4896Z" fill="#96A2BB"/>
<path d="M28.8535 81.4896H34.6244V75.7187H28.8535V81.4896Z" fill="#434868"/>
<path d="M23.082 81.4896H28.8529V75.7187H23.082V81.4896Z" fill="#96A2BB"/>
<path d="M17.3135 81.4896H23.0844V75.7187H17.3135V81.4896Z" fill="#96A2BB"/>
<path d="M11.542 81.4896H17.3129V75.7187H11.542V81.4896Z" fill="#606B8C"/>
<path d="M5.77148 81.4896H11.5424V75.7187H5.77148V81.4896Z" fill="#434868"/>
<path d="M0 81.4896H5.77088V75.7187H0V81.4896Z" fill="#434868"/>
<path d="M92.2295 75.7196H98.0004V69.9487H92.2295V75.7196Z" fill="#606B8C"/>
<path d="M86.458 75.7196H92.2289V69.9487H86.458V75.7196Z" fill="#96A2BB"/>
<path d="M80.6875 75.7196H86.4584V69.9487H80.6875V75.7196Z" fill="#434868"/>
<path d="M74.916 75.7196H80.6869V69.9487H74.916V75.7196Z" fill="#79CADF"/>
<path d="M69.1445 75.7196H74.9154V69.9487H69.1445V75.7196Z" fill="#79CADF"/>
<path d="M63.374 75.7196H69.1449V69.9487H63.374V75.7196Z" fill="#79CADF"/>
<path d="M57.6045 75.7196H63.3754V69.9487H57.6045V75.7196Z" fill="#79CADF"/>
<path d="M51.834 75.7196H57.6049V69.9487H51.834V75.7196Z" fill="#79CADF"/>
<path d="M46.0625 75.7196H51.8334V69.9487H46.0625V75.7196Z" fill="#79CADF"/>
<path d="M40.291 75.7196H46.0619V69.9487H40.291V75.7196Z" fill="#79CADF"/>
<path d="M34.625 75.7196H40.291V69.9487H34.625V75.7196Z" fill="#96A2BB"/>
<path d="M28.8535 75.7196H34.6244V69.9487H28.8535V75.7196Z" fill="#434868"/>
<path d="M23.082 75.7196H28.8529V69.9487H23.082V75.7196Z" fill="#96A2BB"/>
<path d="M17.3135 75.7196H23.0844V69.9487H17.3135V75.7196Z" fill="#96A2BB"/>
<path d="M11.542 75.7196H17.3129V69.9487H11.542V75.7196Z" fill="#606B8C"/>
<path d="M5.77148 75.7196H11.5424V69.9487H5.77148V75.7196Z" fill="#434868"/>
<path d="M0 75.7196H5.77088V69.9487H0V75.7196Z" fill="#434868"/>
<path d="M92.2295 69.9484H98.0004V64.1775H92.2295V69.9484Z" fill="#606B8C"/>
<path d="M86.458 69.9484H92.2289V64.1775H86.458V69.9484Z" fill="#96A2BB"/>
<path d="M80.6875 69.9484H86.4584V64.1775H80.6875V69.9484Z" fill="#434868"/>
<path d="M74.916 69.9484H80.6869V64.1775H74.916V69.9484Z" fill="#2298D5"/>
<path d="M69.1445 69.9484H74.9154V64.1775H69.1445V69.9484Z" fill="#2298D5"/>
<path d="M63.374 69.9484H69.1449V64.1775H63.374V69.9484Z" fill="#2298D5"/>
<path d="M57.6045 69.9484H63.3754V64.1775H57.6045V69.9484Z" fill="#2298D5"/>
<path d="M51.834 69.9484H57.6049V64.1775H51.834V69.9484Z" fill="#2298D5"/>
<path d="M46.0625 69.9484H51.8334V64.1775H46.0625V69.9484Z" fill="#2298D5"/>
<path d="M40.291 69.9484H46.0619V64.1775H40.291V69.9484Z" fill="#2298D5"/>
<path d="M34.625 69.9484H40.291V64.1775H34.625V69.9484Z" fill="#96A2BB"/>
<path d="M28.8535 69.9484H34.6244V64.1775H28.8535V69.9484Z" fill="#434868"/>
<path d="M23.082 69.9484H28.8529V64.1775H23.082V69.9484Z" fill="#96A2BB"/>
<path d="M17.3135 69.9484H23.0844V64.1775H17.3135V69.9484Z" fill="#EEEBE7"/>
<path d="M11.542 69.9484H17.3129V64.1775H11.542V69.9484Z" fill="#96A2BB"/>
<path d="M5.77148 69.9484H11.5424V64.1775H5.77148V69.9484Z" fill="#606B8C"/>
<path d="M0 69.9484H5.77088V64.1775H0V69.9484Z" fill="#434868"/>
<path d="M92.2295 64.1772H98.0004V58.4064H92.2295V64.1772Z" fill="#606B8C"/>
<path d="M86.458 64.1772H92.2289V58.4064H86.458V64.1772Z" fill="#96A2BB"/>
<path d="M80.6875 64.1772H86.4584V58.4064H80.6875V64.1772Z" fill="#434868"/>
<path d="M74.916 64.1772H80.6869V58.4064H74.916V64.1772Z" fill="#434868"/>
<path d="M69.1445 64.1772H74.9154V58.4064H69.1445V64.1772Z" fill="#434868"/>
<path d="M63.374 64.1772H69.1449V58.4064H63.374V64.1772Z" fill="#434868"/>
<path d="M57.6045 64.1772H63.3754V58.4064H57.6045V64.1772Z" fill="#434868"/>
<path d="M51.834 64.1772H57.6049V58.4064H51.834V64.1772Z" fill="#434868"/>
<path d="M46.0625 64.1772H51.8334V58.4064H46.0625V64.1772Z" fill="#434868"/>
<path d="M40.291 64.1772H46.0619V58.4064H40.291V64.1772Z" fill="#434868"/>
<path d="M34.625 64.1772H40.291V58.4064H34.625V64.1772Z" fill="#96A2BB"/>
<path d="M28.8535 64.1772H34.6244V58.4064H28.8535V64.1772Z" fill="#434868"/>
<path d="M23.082 64.1772H28.8529V58.4064H23.082V64.1772Z" fill="#96A2BB"/>
<path d="M17.3135 64.1772H23.0844V58.4064H17.3135V64.1772Z" fill="#96A2BB"/>
<path d="M11.542 64.1772H17.3129V58.4064H11.542V64.1772Z" fill="#606B8C"/>
<path d="M5.77148 64.1772H11.5424V58.4064H5.77148V64.1772Z" fill="#434868"/>
<path d="M0 64.1772H5.77088V58.4064H0V64.1772Z" fill="#434868"/>
<path d="M86.458 58.4061H92.2289V52.6352H86.458V58.4061Z" fill="#96A2BB"/>
<path d="M80.6875 58.4061H86.4584V52.6352H80.6875V58.4061Z" fill="#96A2BB"/>
<path d="M74.916 58.4061H80.6869V52.6352H74.916V58.4061Z" fill="#96A2BB"/>
<path d="M69.1445 58.4061H74.9154V52.6352H69.1445V58.4061Z" fill="#96A2BB"/>
<path d="M63.374 58.4061H69.1449V52.6352H63.374V58.4061Z" fill="#96A2BB"/>
<path d="M57.6045 58.4061H63.3754V52.6352H57.6045V58.4061Z" fill="#96A2BB"/>
<path d="M51.834 58.4061H57.6049V52.6352H51.834V58.4061Z" fill="#96A2BB"/>
<path d="M46.0625 58.4061H51.8334V52.6352H46.0625V58.4061Z" fill="#96A2BB"/>
<path d="M40.291 58.4061H46.0619V52.6352H40.291V58.4061Z" fill="#96A2BB"/>
<path d="M34.625 58.4061H40.291V52.6352H34.625V58.4061Z" fill="#96A2BB"/>
<path d="M28.8535 58.4061H34.6244V52.6352H28.8535V58.4061Z" fill="#434868"/>
<path d="M23.082 58.4061H28.8529V52.6352H23.082V58.4061Z" fill="#434868"/>
<path d="M17.3135 58.4061H23.0844V52.6352H17.3135V58.4061Z" fill="#434868"/>
<path d="M11.542 58.4061H17.3129V52.6352H11.542V58.4061Z" fill="#434868"/>
<path d="M69.1445 52.6361H74.9154V46.8652H69.1445V52.6361Z" fill="#434868"/>
<path d="M63.374 52.6361H69.1449V46.8652H63.374V52.6361Z" fill="#434868"/>
<path d="M57.6045 52.6361H63.3754V46.8652H57.6045V52.6361Z" fill="#434868"/>
<path d="M51.834 52.6361H57.6049V46.8652H51.834V52.6361Z" fill="#434868"/>
<path d="M46.0625 52.6361H51.8334V46.8652H46.0625V52.6361Z" fill="#434868"/>
<path d="M40.291 52.6361H46.0619V46.8652H40.291V52.6361Z" fill="#434868"/>
<path d="M34.625 52.6361H40.291V46.8652H34.625V52.6361Z" fill="#434868"/>
<path d="M28.8535 52.6361H34.6244V46.8652H28.8535V52.6361Z" fill="#434868"/>
<path d="M23.082 52.6361H28.8529V46.8652H23.082V52.6361Z" fill="#434868"/>
<path d="M86.458 46.8649H92.2289V41.094H86.458V46.8649Z" fill="#96A2BB"/>
<path d="M80.6875 46.8649H86.4584V41.094H80.6875V46.8649Z" fill="#96A2BB"/>
<path d="M74.916 46.8649H80.6869V41.094H74.916V46.8649Z" fill="#96A2BB"/>
<path d="M69.1445 46.8649H74.9154V41.094H69.1445V46.8649Z" fill="#96A2BB"/>
<path d="M63.374 46.8649H69.1449V41.094H63.374V46.8649Z" fill="#96A2BB"/>
<path d="M57.6045 46.8649H63.3754V41.094H57.6045V46.8649Z" fill="#96A2BB"/>
<path d="M51.834 46.8649H57.6049V41.094H51.834V46.8649Z" fill="#96A2BB"/>
<path d="M46.0625 46.8649H51.8334V41.094H46.0625V46.8649Z" fill="#96A2BB"/>
<path d="M40.291 46.8649H46.0619V41.094H40.291V46.8649Z" fill="#96A2BB"/>
<path d="M34.625 46.8649H40.291V41.094H34.625V46.8649Z" fill="#96A2BB"/>
<path d="M28.8535 46.8649H34.6244V41.094H28.8535V46.8649Z" fill="#96A2BB"/>
<path d="M23.082 46.8649H28.8529V41.094H23.082V46.8649Z" fill="#434868"/>
<path d="M17.3135 46.8649H23.0844V41.094H17.3135V46.8649Z" fill="#434868"/>
<path d="M11.542 46.8649H17.3129V41.094H11.542V46.8649Z" fill="#434868"/>
<path d="M5.77148 46.8649H11.5424V41.094H5.77148V46.8649Z" fill="#434868"/>
<path d="M0 46.8649H5.77088V41.094H0V46.8649Z" fill="#434868"/>
<path d="M86.458 41.0934H92.2289V35.4274H86.458V41.0934Z" fill="#96A2BB"/>
<path d="M80.6875 41.0934H86.4584V35.4274H80.6875V41.0934Z" fill="#96A2BB"/>
<path d="M74.916 41.0934H80.6869V35.4274H74.916V41.0934Z" fill="#96A2BB"/>
<path d="M69.1445 41.0934H74.9154V35.4274H69.1445V41.0934Z" fill="#96A2BB"/>
<path d="M63.374 41.0934H69.1449V35.4274H63.374V41.0934Z" fill="#79CADF"/>
<path d="M57.6045 41.0934H63.3754V35.4274H57.6045V41.0934Z" fill="#79CADF"/>
<path d="M51.834 41.0934H57.6049V35.4274H51.834V41.0934Z" fill="#79CADF"/>
<path d="M46.0625 41.0934H51.8334V35.4274H46.0625V41.0934Z" fill="#96A2BB"/>
<path d="M40.291 41.0934H46.0619V35.4274H40.291V41.0934Z" fill="#96A2BB"/>
<path d="M34.625 41.0934H40.291V35.4274H34.625V41.0934Z" fill="#96A2BB"/>
<path d="M28.8535 41.0934H34.6244V35.4274H28.8535V41.0934Z" fill="#96A2BB"/>
<path d="M23.082 41.0934H28.8529V35.4274H23.082V41.0934Z" fill="#434868"/>
<path d="M17.3135 41.0934H23.0844V35.4274H17.3135V41.0934Z" fill="#606B8C"/>
<path d="M11.542 41.0934H17.3129V35.4274H11.542V41.0934Z" fill="#434868"/>
<path d="M5.77148 41.0934H11.5424V35.4274H5.77148V41.0934Z" fill="#434868"/>
<path d="M0 41.0934H5.77088V35.4274H0V41.0934Z" fill="#434868"/>
<path d="M86.458 35.4283H92.2289V29.6574H86.458V35.4283Z" fill="#96A2BB"/>
<path d="M80.6875 35.4283H86.4584V29.6574H80.6875V35.4283Z" fill="#79CADF"/>
<path d="M74.916 35.4283H80.6869V29.6574H74.916V35.4283Z" fill="#79CADF"/>
<path d="M69.1445 35.4283H74.9154V29.6574H69.1445V35.4283Z" fill="#96A2BB"/>
<path d="M63.374 35.4283H69.1449V29.6574H63.374V35.4283Z" fill="#96A2BB"/>
<path d="M57.6045 35.4283H63.3754V29.6574H57.6045V35.4283Z" fill="#96A2BB"/>
<path d="M51.834 35.4283H57.6049V29.6574H51.834V35.4283Z" fill="#96A2BB"/>
<path d="M46.0625 35.4283H51.8334V29.6574H46.0625V35.4283Z" fill="#96A2BB"/>
<path d="M40.291 35.4283H46.0619V29.6574H40.291V35.4283Z" fill="#79CADF"/>
<path d="M34.625 35.4283H40.291V29.6574H34.625V35.4283Z" fill="#79CADF"/>
<path d="M28.8535 35.4283H34.6244V29.6574H28.8535V35.4283Z" fill="#96A2BB"/>
<path d="M23.082 35.4283H28.8529V29.6574H23.082V35.4283Z" fill="#434868"/>
<path d="M17.3135 35.4283H23.0844V29.6574H17.3135V35.4283Z" fill="#606B8C"/>
<path d="M11.542 35.4283H17.3129V29.6574H11.542V35.4283Z" fill="#434868"/>
<path d="M5.77148 35.4283H11.5424V29.6574H5.77148V35.4283Z" fill="#434868"/>
<path d="M0 35.4283H5.77088V29.6574H0V35.4283Z" fill="#434868"/>
<path d="M86.458 29.6571H92.2289V23.8863H86.458V29.6571Z" fill="#96A2BB"/>
<path d="M80.6875 29.6571H86.4584V23.8863H80.6875V29.6571Z" fill="#96A2BB"/>
<path d="M74.916 29.6571H80.6869V23.8863H74.916V29.6571Z" fill="#96A2BB"/>
<path d="M69.1445 29.6571H74.9154V23.8863H69.1445V29.6571Z" fill="#96A2BB"/>
<path d="M63.374 29.6571H69.1449V23.8863H63.374V29.6571Z" fill="#96A2BB"/>
<path d="M57.6045 29.6571H63.3754V23.8863H57.6045V29.6571Z" fill="#96A2BB"/>
<path d="M51.834 29.6571H57.6049V23.8863H51.834V29.6571Z" fill="#96A2BB"/>
<path d="M46.0625 29.6571H51.8334V23.8863H46.0625V29.6571Z" fill="#96A2BB"/>
<path d="M40.291 29.6571H46.0619V23.8863H40.291V29.6571Z" fill="#96A2BB"/>
<path d="M34.625 29.6571H40.291V23.8863H34.625V29.6571Z" fill="#96A2BB"/>
<path d="M28.8535 29.6571H34.6244V23.8863H28.8535V29.6571Z" fill="#96A2BB"/>
<path d="M23.082 29.6571H28.8529V23.8863H23.082V29.6571Z" fill="#434868"/>
<path d="M17.3135 29.6571H23.0844V23.8863H17.3135V29.6571Z" fill="#96A2BB"/>
<path d="M11.542 29.6571H17.3129V23.8863H11.542V29.6571Z" fill="#434868"/>
<path d="M5.77148 29.6571H11.5424V23.8863H5.77148V29.6571Z" fill="#434868"/>
<path d="M0 29.6571H5.77088V23.8863H0V29.6571Z" fill="#434868"/>
<path d="M86.458 23.886H92.2289V18.1151H86.458V23.886Z" fill="#96A2BB"/>
<path d="M80.6875 23.886H86.4584V18.1151H80.6875V23.886Z" fill="#96A2BB"/>
<path d="M74.916 23.886H80.6869V18.1151H74.916V23.886Z" fill="#96A2BB"/>
<path d="M69.1445 23.886H74.9154V18.1151H69.1445V23.886Z" fill="#96A2BB"/>
<path d="M63.374 23.886H69.1449V18.1151H63.374V23.886Z" fill="#96A2BB"/>
<path d="M57.6045 23.886H63.3754V18.1151H57.6045V23.886Z" fill="#96A2BB"/>
<path d="M51.834 23.886H57.6049V18.1151H51.834V23.886Z" fill="#96A2BB"/>
<path d="M46.0625 23.886H51.8334V18.1151H46.0625V23.886Z" fill="#96A2BB"/>
<path d="M40.291 23.886H46.0619V18.1151H40.291V23.886Z" fill="#96A2BB"/>
<path d="M34.625 23.886H40.291V18.1151H34.625V23.886Z" fill="#96A2BB"/>
<path d="M28.8535 23.886H34.6244V18.1151H28.8535V23.886Z" fill="#96A2BB"/>
<path d="M23.082 23.886H28.8529V18.1151H23.082V23.886Z" fill="#434868"/>
<path d="M17.3135 23.886H23.0844V18.1151H17.3135V23.886Z" fill="#434868"/>
<path d="M11.542 23.886H17.3129V18.1151H11.542V23.886Z" fill="#606B8C"/>
<path d="M5.77148 23.886H11.5424V18.1151H5.77148V23.886Z" fill="#434868"/>
<path d="M0 23.886H5.77088V18.1151H0V23.886Z" fill="#434868"/>
<path d="M69.1445 18.1148H74.9154V12.3439H69.1445V18.1148Z" fill="#96A2BB"/>
<path d="M11.542 18.1148H17.3129V12.3439H11.542V18.1148Z" fill="#606B8C"/>
<path d="M69.1445 12.3448H74.9154V6.57391H69.1445V12.3448Z" fill="#79CADF"/>
<path d="M11.542 12.3448H17.3129V6.57391H11.542V12.3448Z" fill="#79CADF"/>
<path d="M69.1445 6.57361H74.9154V0.802734H69.1445V6.57361Z" fill="#79CADF"/>
<path d="M11.542 6.57361H17.3129V0.802734H11.542V6.57361Z" fill="#79CADF"/>
</svg>
