<svg width="134" height="106" viewBox="0 0 134 106" fill="none" xmlns="http://www.w3.org/2000/svg">
<path d="M9.54545 53.335V58.0752H4.74026V62.8804H0V67.6207H28.6364V62.8804H33.4416V58.0752H71.6234V53.335H9.54545Z" fill="#124E89"/>
<path d="M33.4416 48.5299V43.7897H28.6364V38.9845H0V43.7897H4.74026V48.5299H9.54545V53.3351H71.6234V48.5299H33.4416Z" fill="#0B6FAE"/>
<path d="M109.806 29.4394V24.6992H105V19.894H100.26V15.1537H95.4549V10.3485H47.7276V15.1537H42.9874V19.894H38.1822V24.6992H33.4419V29.4394H28.6367V43.7901H33.4419V48.5303H38.1822V34.2446H42.9874V29.4394H47.7276V24.6992H52.5328V19.894H90.7146V24.6992H95.4549V29.4394H100.26V34.2446H105V72.4264H100.26V77.1667H95.4549V81.9719H90.7146V86.7121H52.5328V81.9719H47.7276V77.1667H42.9874V72.4264H38.1822V58.0758H33.4419V62.881H28.6367V77.1667H33.4419V81.9719H38.1822V86.7121H42.9874V91.5173H47.7276V96.2576H95.4549V91.5173H100.26V86.7121H105V81.9719H109.806V77.1667H114.546V29.4394H109.806Z" fill="#E9E5E1"/>
<path d="M90.7146 34.2446H85.9094V29.4395H57.273V34.2446H52.5327V38.9849H47.7275V48.5304H57.273V43.7901H62.0782V38.9849H81.1691V43.7901H85.9094V62.881H81.1691V67.6213H62.0782V62.881H57.273V58.0758H47.7275V67.6213H52.5327V72.4265H57.273V77.1667H85.9094V72.4265H90.7146V67.6213H95.4548V38.9849H90.7146V34.2446Z" fill="#FEAE34"/>
<path d="M128.896 24.6988V19.8936H124.091V15.1534H119.351V10.3482H114.545V5.60793H109.805V0.802734H100.26V5.60793H105V10.3482H109.805V15.1534H114.545V19.8936H119.351V24.6988H124.091V81.9716H119.351V86.7118H114.545V91.517H109.805V96.2573H105V101.062H100.26V105.803H109.805V101.062H114.545V96.2573H119.351V91.517H124.091V86.7118H128.896V81.9716H133.636V24.6988H128.896Z" fill="#A22633"/>
<path d="M47.7271 58.0754H38.1816V72.426H42.9868V77.1663H47.7271V81.9715H52.5323V86.7117H90.7141V81.9715H95.4544V77.1663H100.26V72.426H105V34.2442H100.26V29.439H95.4544V24.6987H90.7141V19.8936H52.5323V24.6987H47.7271V29.439H42.9868V34.2442H38.1816V48.5299H47.7271V38.9845H52.5323V34.2442H57.2725V29.439H85.9089V34.2442H90.7141V38.9845H95.4544V67.6208H90.7141V72.426H85.9089V77.1663H57.2725V72.426H52.5323V67.6208H47.7271V58.0754Z" fill="#E43B44"/>
<path d="M71.6231 58.0754H57.2725V62.8806H62.0777V67.6209H81.1686V62.8806H85.9088V43.7897H81.1686V38.9845H62.0777V43.7897H57.2725V48.53H71.6231V58.0754Z" fill="#E43B44"/>
<path d="M119.351 24.6988V19.8936H114.545V15.1534H109.805V10.3482H105V5.60793H100.26V0.802734H42.9869V5.60793H38.1817V10.3482H33.4415V15.1534H28.6363V19.8936H23.896V24.6988H19.0908V38.9846H28.6363V29.4391H33.4415V24.6988H38.1817V19.8936H42.9869V15.1534H47.7272V10.3482H95.4545V15.1534H100.26V19.8936H105V24.6988H109.805V29.4391H114.545V77.1664H109.805V81.9716H105V86.7118H100.26V91.517H95.4545V96.2573H47.7272V91.517H42.9869V86.7118H38.1817V81.9716H33.4415V77.1664H28.6363V67.6209H19.0908V81.9716H23.896V86.7118H28.6363V91.517H33.4415V96.2573H38.1817V101.062H42.9869V105.803H100.26V101.062H105V96.2573H109.805V91.517H114.545V86.7118H119.351V81.9716H124.091V24.6988H119.351Z" fill="#E43B44"/>
</svg>
