<svg width="76" height="48" viewBox="0 0 76 48" fill="none" xmlns="http://www.w3.org/2000/svg">
<g clip-path="url(#clip0)">
<path d="M25.3828 29.3532H50.6646V4.77051H25.3828V29.3532Z" fill="#2298D5"/>
<path d="M50.6641 47.8583H54.2835V44.2427H50.6641V47.8583Z" fill="#37374A"/>
<path d="M47.043 47.8583H50.6624V44.2427H47.043V47.8583Z" fill="#37374A"/>
<path d="M43.4258 47.8583H47.0453V44.2427H43.4258V47.8583Z" fill="#37374A"/>
<path d="M39.8047 47.8583H43.4242V44.2427H39.8047V47.8583Z" fill="#37374A"/>
<path d="M36.1953 47.8583H39.8148V44.2427H36.1953V47.8583Z" fill="#37374A"/>
<path d="M32.5664 47.8583H36.1859V44.2427H32.5664V47.8583Z" fill="#37374A"/>
<path d="M28.957 47.8583H32.5765V44.2427H28.957V47.8583Z" fill="#37374A"/>
<path d="M25.3359 47.8583H28.9554V44.2427H25.3359V47.8583Z" fill="#37374A"/>
<path d="M21.7188 47.8583H25.3382V44.2427H21.7188V47.8583Z" fill="#37374A"/>
<path d="M50.6641 44.2426H54.2835V40.627H50.6641V44.2426Z" fill="#434868"/>
<path d="M47.043 44.2426H50.6624V40.627H47.043V44.2426Z" fill="#434868"/>
<path d="M43.4258 44.2426H47.0453V40.627H43.4258V44.2426Z" fill="#434868"/>
<path d="M39.8047 44.2426H43.4242V40.627H39.8047V44.2426Z" fill="#434868"/>
<path d="M36.1953 44.2426H39.8148V40.627H36.1953V44.2426Z" fill="#434868"/>
<path d="M32.5664 44.2426H36.1859V40.627H32.5664V44.2426Z" fill="#434868"/>
<path d="M28.957 44.2426H32.5765V40.627H28.957V44.2426Z" fill="#434868"/>
<path d="M25.3359 44.2426H28.9554V40.627H25.3359V44.2426Z" fill="#434868"/>
<path d="M21.7188 44.2426H25.3382V40.627H21.7188V44.2426Z" fill="#434868"/>
<path d="M50.6641 40.6274H54.2835V37.0117H50.6641V40.6274Z" fill="#434868"/>
<path d="M47.043 40.6274H50.6624V37.0117H47.043V40.6274Z" fill="#2298D5"/>
<path d="M43.4258 40.6274H47.0453V37.0117H43.4258V40.6274Z" fill="#2298D5"/>
<path d="M39.8047 40.6274H43.4242V37.0117H39.8047V40.6274Z" fill="#2298D5"/>
<path d="M36.1953 40.6274H39.8148V37.0117H36.1953V40.6274Z" fill="#2298D5"/>
<path d="M32.5664 40.6274H36.1859V37.0117H32.5664V40.6274Z" fill="#2298D5"/>
<path d="M28.957 40.6274H32.5765V37.0117H28.957V40.6274Z" fill="#2298D5"/>
<path d="M25.3359 40.6274H28.9554V37.0117H25.3359V40.6274Z" fill="#2298D5"/>
<path d="M21.7188 40.6274H25.3382V37.0117H21.7188V40.6274Z" fill="#434868"/>
<path d="M50.6641 37.0113H54.2835V33.4048H50.6641V37.0113Z" fill="#434868"/>
<path d="M47.043 37.0113H50.6624V33.4048H47.043V37.0113Z" fill="#2298D5"/>
<path d="M43.4258 37.0113H47.0453V33.4048H43.4258V37.0113Z" fill="#2298D5"/>
<path d="M39.8047 37.0113H43.4242V33.4048H39.8047V37.0113Z" fill="#2298D5"/>
<path d="M36.1953 37.0113H39.8148V33.4048H36.1953V37.0113Z" fill="#2298D5"/>
<path d="M32.5664 37.0113H36.1859V33.4048H32.5664V37.0113Z" fill="#2298D5"/>
<path d="M28.957 37.0113H32.5765V33.4048H28.957V37.0113Z" fill="#2298D5"/>
<path d="M25.3359 37.0113H28.9554V33.4048H25.3359V37.0113Z" fill="#2298D5"/>
<path d="M21.7188 37.0113H25.3382V33.4048H21.7188V37.0113Z" fill="#434868"/>
<path d="M50.6641 33.4047H54.2835V29.7891H50.6641V33.4047Z" fill="#434868"/>
<path d="M47.043 33.4047H50.6624V29.7891H47.043V33.4047Z" fill="#2298D5"/>
<path d="M43.4258 33.4047H47.0453V29.7891H43.4258V33.4047Z" fill="#2298D5"/>
<path d="M39.8047 33.4047H43.4242V29.7891H39.8047V33.4047Z" fill="#2298D5"/>
<path d="M36.1953 33.4047H39.8148V29.7891H36.1953V33.4047Z" fill="#2298D5"/>
<path d="M32.5664 33.4047H36.1859V29.7891H32.5664V33.4047Z" fill="#2298D5"/>
<path d="M28.957 33.4047H32.5765V29.7891H28.957V33.4047Z" fill="#2298D5"/>
<path d="M25.3359 33.4047H28.9554V29.7891H25.3359V33.4047Z" fill="#2298D5"/>
<path d="M21.7188 33.4047H25.3382V29.7891H21.7188V33.4047Z" fill="#434868"/>
<path d="M68.7617 29.7895H72.3812V26.1738H68.7617V29.7895Z" fill="#CBD3E3"/>
<path d="M50.6641 29.7895H54.2835V26.1738H50.6641V29.7895Z" fill="#434868"/>
<path d="M47.043 29.7895H50.6624V26.1738H47.043V29.7895Z" fill="#2298D5"/>
<path d="M43.4258 29.7895H47.0453V26.1738H43.4258V29.7895Z" fill="#2298D5"/>
<path d="M39.8047 29.7895H43.4242V26.1738H39.8047V29.7895Z" fill="#2298D5"/>
<path d="M36.1953 29.7895H39.8148V26.1738H36.1953V29.7895Z" fill="#79CADF"/>
<path d="M32.5664 29.7895H36.1859V26.1738H32.5664V29.7895Z" fill="#2298D5"/>
<path d="M28.957 29.7895H32.5765V26.1738H28.957V29.7895Z" fill="#2298D5"/>
<path d="M25.3359 29.7895H28.9554V26.1738H25.3359V29.7895Z" fill="#2298D5"/>
<path d="M21.7188 29.7895H25.3382V26.1738H21.7188V29.7895Z" fill="#434868"/>
<path d="M3.62109 29.7895H7.24057V26.1738H3.62109V29.7895Z" fill="#CBD3E3"/>
<path d="M72.3789 26.1737H75.9984V22.5581H72.3789V26.1737Z" fill="#CBD3E3"/>
<path d="M50.6641 26.1737H54.2835V22.5581H50.6641V26.1737Z" fill="#434868"/>
<path d="M43.4258 26.1737H47.0453V22.5581H43.4258V26.1737Z" fill="#2298D5"/>
<path d="M39.8047 26.1737H43.4242V22.5581H39.8047V26.1737Z" fill="#2298D5"/>
<path d="M36.1953 26.1737H39.8148V22.5581H36.1953V26.1737Z" fill="#2298D5"/>
<path d="M32.5664 26.1737H36.1859V22.5581H32.5664V26.1737Z" fill="#2298D5"/>
<path d="M28.957 26.1737H32.5765V22.5581H28.957V26.1737Z" fill="#2298D5"/>
<path d="M25.3359 26.1737H28.9554V22.5581H25.3359V26.1737Z" fill="#2298D5"/>
<path d="M21.7188 26.1737H25.3382V22.5581H21.7188V26.1737Z" fill="#434868"/>
<path d="M0 26.1737H3.61948V22.5581H0V26.1737Z" fill="#CBD3E3"/>
<path d="M72.3789 22.558H75.9984V18.9424H72.3789V22.558Z" fill="#CBD3E3"/>
<path d="M61.5234 22.558H65.1429V18.9424H61.5234V22.558Z" fill="#CBD3E3"/>
<path d="M50.6641 22.558H54.2835V18.9424H50.6641V22.558Z" fill="#434868"/>
<path d="M43.4258 22.558H47.0453V18.9424H43.4258V22.558Z" fill="#2298D5"/>
<path d="M39.8047 22.558H43.4242V18.9424H39.8047V22.558Z" fill="#2298D5"/>
<path d="M36.1953 22.558H39.8148V18.9424H36.1953V22.558Z" fill="#F8B02D"/>
<path d="M32.5664 22.558H36.1859V18.9424H32.5664V22.558Z" fill="#2298D5"/>
<path d="M28.957 22.558H32.5765V18.9424H28.957V22.558Z" fill="#F8B02D"/>
<path d="M25.3359 22.558H28.9554V18.9424H25.3359V22.558Z" fill="#2298D5"/>
<path d="M21.7188 22.558H25.3382V18.9424H21.7188V22.558Z" fill="#434868"/>
<path d="M10.8594 22.558H14.4789V18.9424H10.8594V22.558Z" fill="#CBD3E3"/>
<path d="M0 22.558H3.61948V18.9424H0V22.558Z" fill="#CBD3E3"/>
<path d="M72.3789 18.9423H75.9984V15.3267H72.3789V18.9423Z" fill="#CBD3E3"/>
<path d="M65.1406 18.9423H68.7601V15.3267H65.1406V18.9423Z" fill="#CBD3E3"/>
<path d="M50.6641 18.9423H54.2835V15.3267H50.6641V18.9423Z" fill="#434868"/>
<path d="M47.043 18.9423H50.6624V15.3267H47.043V18.9423Z" fill="#2298D5"/>
<path d="M43.4258 18.9423H47.0453V15.3267H43.4258V18.9423Z" fill="#2298D5"/>
<path d="M39.8047 18.9423H43.4242V15.3267H39.8047V18.9423Z" fill="#2298D5"/>
<path d="M36.1953 18.9423H39.8148V15.3267H36.1953V18.9423Z" fill="#2298D5"/>
<path d="M32.5664 18.9423H36.1859V15.3267H32.5664V18.9423Z" fill="#2298D5"/>
<path d="M28.957 18.9423H32.5765V15.3267H28.957V18.9423Z" fill="#2298D5"/>
<path d="M25.3359 18.9423H28.9554V15.3267H25.3359V18.9423Z" fill="#2298D5"/>
<path d="M21.7188 18.9423H25.3382V15.3267H21.7188V18.9423Z" fill="#434868"/>
<path d="M7.23828 18.9423H10.8578V15.3267H7.23828V18.9423Z" fill="#CBD3E3"/>
<path d="M0 18.9423H3.61948V15.3267H0V18.9423Z" fill="#CBD3E3"/>
<path d="M72.3789 15.3266H75.9984V11.7109H72.3789V15.3266Z" fill="#CBD3E3"/>
<path d="M65.1406 15.3266H68.7601V11.7109H65.1406V15.3266Z" fill="#CBD3E3"/>
<path d="M50.6641 15.3266H54.2835V11.7109H50.6641V15.3266Z" fill="#434868"/>
<path d="M47.043 15.3266H50.6624V11.7109H47.043V15.3266Z" fill="#2298D5"/>
<path d="M43.4258 15.3266H47.0453V11.7109H43.4258V15.3266Z" fill="#79CADF"/>
<path d="M39.8047 15.3266H43.4242V11.7109H39.8047V15.3266Z" fill="#2298D5"/>
<path d="M36.1953 15.3266H39.8148V11.7109H36.1953V15.3266Z" fill="#F8B02D"/>
<path d="M32.5664 15.3266H36.1859V11.7109H32.5664V15.3266Z" fill="#2298D5"/>
<path d="M28.957 15.3266H32.5765V11.7109H28.957V15.3266Z" fill="#F8B02D"/>
<path d="M25.3359 15.3266H28.9554V11.7109H25.3359V15.3266Z" fill="#2298D5"/>
<path d="M21.7188 15.3266H25.3382V11.7109H21.7188V15.3266Z" fill="#434868"/>
<path d="M7.23828 15.3266H10.8578V11.7109H7.23828V15.3266Z" fill="#CBD3E3"/>
<path d="M0 15.3266H3.61948V11.7109H0V15.3266Z" fill="#CBD3E3"/>
<path d="M72.3789 11.7113H75.9984V8.0957H72.3789V11.7113Z" fill="#CBD3E3"/>
<path d="M61.5234 11.7113H65.1429V8.0957H61.5234V11.7113Z" fill="#CBD3E3"/>
<path d="M50.6641 11.7113H54.2835V8.0957H50.6641V11.7113Z" fill="#434868"/>
<path d="M47.043 11.7113H50.6624V8.0957H47.043V11.7113Z" fill="#2298D5"/>
<path d="M43.4258 11.7113H47.0453V8.0957H43.4258V11.7113Z" fill="#2298D5"/>
<path d="M39.8047 11.7113H43.4242V8.0957H39.8047V11.7113Z" fill="#2298D5"/>
<path d="M36.1953 11.7113H39.8148V8.0957H36.1953V11.7113Z" fill="#2298D5"/>
<path d="M32.5664 11.7113H36.1859V8.0957H32.5664V11.7113Z" fill="#2298D5"/>
<path d="M28.957 11.7113H32.5765V8.0957H28.957V11.7113Z" fill="#2298D5"/>
<path d="M25.3359 11.7113H28.9554V8.0957H25.3359V11.7113Z" fill="#2298D5"/>
<path d="M21.7188 11.7113H25.3382V8.0957H21.7188V11.7113Z" fill="#434868"/>
<path d="M10.8594 11.7113H14.4789V8.0957H10.8594V11.7113Z" fill="#CBD3E3"/>
<path d="M0 11.7113H3.61948V8.0957H0V11.7113Z" fill="#CBD3E3"/>
<path d="M72.3789 8.09562H75.9984V4.47998H72.3789V8.09562Z" fill="#CBD3E3"/>
<path d="M50.6641 8.09562H54.2835V4.47998H50.6641V8.09562Z" fill="#434868"/>
<path d="M47.043 8.09562H50.6624V4.47998H47.043V8.09562Z" fill="#434868"/>
<path d="M43.4258 8.09562H47.0453V4.47998H43.4258V8.09562Z" fill="#434868"/>
<path d="M39.8047 8.09562H43.4242V4.47998H39.8047V8.09562Z" fill="#434868"/>
<path d="M36.1953 8.09562H39.8148V4.47998H36.1953V8.09562Z" fill="#434868"/>
<path d="M32.5664 8.09562H36.1859V4.47998H32.5664V8.09562Z" fill="#434868"/>
<path d="M28.957 8.09562H32.5765V4.47998H28.957V8.09562Z" fill="#434868"/>
<path d="M25.3359 8.09562H28.9554V4.47998H25.3359V8.09562Z" fill="#434868"/>
<path d="M21.7188 8.09562H25.3382V4.47998H21.7188V8.09562Z" fill="#434868"/>
<path d="M0 8.09562H3.61948V4.47998H0V8.09562Z" fill="#CBD3E3"/>
<path d="M68.7617 4.4799H72.3812V0.864258H68.7617V4.4799Z" fill="#CBD3E3"/>
<path d="M3.62109 4.4799H7.24057V0.864258H3.62109V4.4799Z" fill="#CBD3E3"/>
</g>
<defs>
<clipPath id="clip0">
<rect width="76" height="47" fill="white" transform="translate(0 0.861328)"/>
</clipPath>
</defs>
</svg>
