<svg width="121" height="99" viewBox="0 0 121 99" fill="none" xmlns="http://www.w3.org/2000/svg">
<path d="M98.001 98.6287H105.584V91.0454H98.001V98.6287Z" fill="#F8B02D"/>
<path d="M90.416 98.6287H97.9993V91.0454H90.416V98.6287Z" fill="#F8B02D"/>
<path d="M82.9785 98.6287H90.416V91.0454H82.9785V98.6287Z" fill="#F8B02D"/>
<path d="M75.3945 98.6287H82.9779V91.0454H75.3945V98.6287Z" fill="#F8B02D"/>
<path d="M37.625 98.6287H45.2083V91.0454H37.625V98.6287Z" fill="#F8B02D"/>
<path d="M30.1875 98.6287H37.625V91.0454H30.1875V98.6287Z" fill="#F8B02D"/>
<path d="M22.6035 98.6287H30.1868V91.0454H22.6035V98.6287Z" fill="#F8B02D"/>
<path d="M15.0225 98.6287H22.6058V91.0454H15.0225V98.6287Z" fill="#F8B02D"/>
<path d="M105.582 91.0449H113.02V83.6074H105.582V91.0449Z" fill="#F8B02D"/>
<path d="M98.001 91.0449H105.584V83.6074H98.001V91.0449Z" fill="#264B85"/>
<path d="M90.416 91.0449H97.9993V83.6074H90.416V91.0449Z" fill="#264B85"/>
<path d="M82.9785 91.0449H90.416V83.6074H82.9785V91.0449Z" fill="#264B85"/>
<path d="M75.3945 91.0449H82.9779V83.6074H75.3945V91.0449Z" fill="#264B85"/>
<path d="M67.8135 91.0449H75.3968V83.6074H67.8135V91.0449Z" fill="#F8B02D"/>
<path d="M45.21 91.0449H52.7933V83.6074H45.21V91.0449Z" fill="#F8B02D"/>
<path d="M37.625 91.0449H45.2083V83.6074H37.625V91.0449Z" fill="#264B85"/>
<path d="M30.1875 91.0449H37.625V83.6074H30.1875V91.0449Z" fill="#264B85"/>
<path d="M22.6035 91.0449H30.1868V83.6074H22.6035V91.0449Z" fill="#264B85"/>
<path d="M15.0225 91.0449H22.6058V83.6074H15.0225V91.0449Z" fill="#264B85"/>
<path d="M7.58398 91.0449H15.0215V83.6074H7.58398V91.0449Z" fill="#F8B02D"/>
<path d="M105.582 83.6065H113.02V76.0232H105.582V83.6065Z" fill="#D97641"/>
<path d="M98.001 83.6065H105.584V76.0232H98.001V83.6065Z" fill="#264B85"/>
<path d="M90.416 83.6065H97.9993V76.0232H90.416V83.6065Z" fill="#1E6CAC"/>
<path d="M82.9785 83.6065H90.416V76.0232H82.9785V83.6065Z" fill="#1E6CAC"/>
<path d="M75.3945 83.6065H82.9779V76.0232H75.3945V83.6065Z" fill="#264B85"/>
<path d="M67.8135 83.6065H75.3968V76.0232H67.8135V83.6065Z" fill="#D97641"/>
<path d="M45.21 83.6065H52.7933V76.0232H45.21V83.6065Z" fill="#D97641"/>
<path d="M37.625 83.6065H45.2083V76.0232H37.625V83.6065Z" fill="#264B85"/>
<path d="M30.1875 83.6065H37.625V76.0232H30.1875V83.6065Z" fill="#1E6CAC"/>
<path d="M22.6035 83.6065H30.1868V76.0232H22.6035V83.6065Z" fill="#1E6CAC"/>
<path d="M15.0225 83.6065H22.6058V76.0232H15.0225V83.6065Z" fill="#264B85"/>
<path d="M7.58398 83.6065H15.0215V76.0232H7.58398V83.6065Z" fill="#D97641"/>
<path d="M105.582 76.0252H113.02V68.4419H105.582V76.0252Z" fill="#D97641"/>
<path d="M98.001 76.0252H105.584V68.4419H98.001V76.0252Z" fill="#264B85"/>
<path d="M90.416 76.0252H97.9993V68.4419H90.416V76.0252Z" fill="#2298D5"/>
<path d="M82.9785 76.0252H90.416V68.4419H82.9785V76.0252Z" fill="#1E6CAC"/>
<path d="M75.3945 76.0252H82.9779V68.4419H75.3945V76.0252Z" fill="#264B85"/>
<path d="M67.8135 76.0252H75.3968V68.4419H67.8135V76.0252Z" fill="#D97641"/>
<path d="M45.21 76.0252H52.7933V68.4419H45.21V76.0252Z" fill="#D97641"/>
<path d="M37.625 76.0252H45.2083V68.4419H37.625V76.0252Z" fill="#264B85"/>
<path d="M30.1875 76.0252H37.625V68.4419H30.1875V76.0252Z" fill="#2298D5"/>
<path d="M22.6035 76.0252H30.1868V68.4419H22.6035V76.0252Z" fill="#1E6CAC"/>
<path d="M15.0225 76.0252H22.6058V68.4419H15.0225V76.0252Z" fill="#264B85"/>
<path d="M7.58398 76.0252H15.0215V68.4419H7.58398V76.0252Z" fill="#D97641"/>
<path d="M105.582 68.4417H113.02V61.0042H105.582V68.4417Z" fill="#C1472F"/>
<path d="M98.001 68.4417H105.584V61.0042H98.001V68.4417Z" fill="#264B85"/>
<path d="M90.416 68.4417H97.9993V61.0042H90.416V68.4417Z" fill="#264B85"/>
<path d="M82.9785 68.4417H90.416V61.0042H82.9785V68.4417Z" fill="#264B85"/>
<path d="M75.3945 68.4417H82.9779V61.0042H75.3945V68.4417Z" fill="#264B85"/>
<path d="M67.8135 68.4417H75.3968V61.0042H67.8135V68.4417Z" fill="#C1472F"/>
<path d="M60.375 68.4417H67.8125V61.0042H60.375V68.4417Z" fill="#D97641"/>
<path d="M52.791 68.4417H60.3743V61.0042H52.791V68.4417Z" fill="#D97641"/>
<path d="M45.21 68.4417H52.7933V61.0042H45.21V68.4417Z" fill="#C1472F"/>
<path d="M37.625 68.4417H45.2083V61.0042H37.625V68.4417Z" fill="#264B85"/>
<path d="M30.1875 68.4417H37.625V61.0042H30.1875V68.4417Z" fill="#264B85"/>
<path d="M22.6035 68.4417H30.1868V61.0042H22.6035V68.4417Z" fill="#264B85"/>
<path d="M15.0225 68.4417H22.6058V61.0042H15.0225V68.4417Z" fill="#264B85"/>
<path d="M7.58398 68.4417H15.0215V61.0042H7.58398V68.4417Z" fill="#C1472F"/>
<path d="M113.02 61.0033H120.603V53.4199H113.02V61.0033Z" fill="#F8B02D"/>
<path d="M105.582 61.0033H113.02V53.4199H105.582V61.0033Z" fill="#F8B02D"/>
<path d="M98.001 61.0033H105.584V53.4199H98.001V61.0033Z" fill="#F8B02D"/>
<path d="M90.416 61.0033H97.9993V53.4199H90.416V61.0033Z" fill="#F8B02D"/>
<path d="M82.9785 61.0033H90.416V53.4199H82.9785V61.0033Z" fill="#F8B02D"/>
<path d="M75.3945 61.0033H82.9779V53.4199H75.3945V61.0033Z" fill="#F8B02D"/>
<path d="M67.8135 61.0033H75.3968V53.4199H67.8135V61.0033Z" fill="#F8B02D"/>
<path d="M60.375 61.0033H67.8125V53.4199H60.375V61.0033Z" fill="#F8B02D"/>
<path d="M52.791 61.0033H60.3743V53.4199H52.791V61.0033Z" fill="#F8B02D"/>
<path d="M45.21 61.0033H52.7933V53.4199H45.21V61.0033Z" fill="#F8B02D"/>
<path d="M37.625 61.0033H45.2083V53.4199H37.625V61.0033Z" fill="#F8B02D"/>
<path d="M30.1875 61.0033H37.625V53.4199H30.1875V61.0033Z" fill="#F8B02D"/>
<path d="M22.6035 61.0033H30.1868V53.4199H22.6035V61.0033Z" fill="#F8B02D"/>
<path d="M15.0225 61.0033H22.6058V53.4199H15.0225V61.0033Z" fill="#F8B02D"/>
<path d="M7.58398 61.0033H15.0215V53.4199H7.58398V61.0033Z" fill="#F8B02D"/>
<path d="M0 61.0033H7.58333V53.4199H0V61.0033Z" fill="#F8B02D"/>
<path d="M113.02 53.422H120.603V45.8386H113.02V53.422Z" fill="#FDE659"/>
<path d="M105.582 53.422H113.02V45.8386H105.582V53.422Z" fill="#FDE659"/>
<path d="M98.001 53.422H105.584V45.8386H98.001V53.422Z" fill="#FDE659"/>
<path d="M90.416 53.422H97.9993V45.8386H90.416V53.422Z" fill="#FDE659"/>
<path d="M82.9785 53.422H90.416V45.8386H82.9785V53.422Z" fill="#FDE659"/>
<path d="M75.3945 53.422H82.9779V45.8386H75.3945V53.422Z" fill="#FDE659"/>
<path d="M67.8135 53.422H75.3968V45.8386H67.8135V53.422Z" fill="#FDE659"/>
<path d="M45.21 53.422H52.7933V45.8386H45.21V53.422Z" fill="#FDE659"/>
<path d="M37.625 53.422H45.2083V45.8386H37.625V53.422Z" fill="#FDE659"/>
<path d="M30.1875 53.422H37.625V45.8386H30.1875V53.422Z" fill="#FDE659"/>
<path d="M22.6035 53.422H30.1868V45.8386H22.6035V53.422Z" fill="#FDE659"/>
<path d="M15.0225 53.422H22.6058V45.8386H15.0225V53.422Z" fill="#FDE659"/>
<path d="M7.58398 53.422H15.0215V45.8386H7.58398V53.422Z" fill="#FDE659"/>
<path d="M0 53.422H7.58333V45.8386H0V53.422Z" fill="#FDE659"/>
<path d="M105.582 45.8377H113.02V38.2544H105.582V45.8377Z" fill="#FDE659"/>
<path d="M98.001 45.8377H105.584V38.2544H98.001V45.8377Z" fill="#F8B02D"/>
<path d="M15.0225 45.8377H22.6058V38.2544H15.0225V45.8377Z" fill="#F8B02D"/>
<path d="M7.58398 45.8377H15.0215V38.2544H7.58398V45.8377Z" fill="#FDE659"/>
<path d="M105.582 38.2539H113.02V30.8164H105.582V38.2539Z" fill="#FDE659"/>
<path d="M98.001 38.2539H105.584V30.8164H98.001V38.2539Z" fill="#F8B02D"/>
<path d="M15.0225 38.2539H22.6058V30.8164H15.0225V38.2539Z" fill="#F8B02D"/>
<path d="M7.58398 38.2539H15.0215V30.8164H7.58398V38.2539Z" fill="#FDE659"/>
<path d="M105.582 30.8155H113.02V23.2322H105.582V30.8155Z" fill="#FDE659"/>
<path d="M98.001 30.8155H105.584V23.2322H98.001V30.8155Z" fill="#F8B02D"/>
<path d="M15.0225 30.8155H22.6058V23.2322H15.0225V30.8155Z" fill="#F8B02D"/>
<path d="M7.58398 30.8155H15.0215V23.2322H7.58398V30.8155Z" fill="#FDE659"/>
<path d="M105.582 23.2342H113.02V15.6509H105.582V23.2342Z" fill="#FDE659"/>
<path d="M98.001 23.2342H105.584V15.6509H98.001V23.2342Z" fill="#F8B02D"/>
<path d="M15.0225 23.2342H22.6058V15.6509H15.0225V23.2342Z" fill="#F8B02D"/>
<path d="M7.58398 23.2342H15.0215V15.6509H7.58398V23.2342Z" fill="#FDE659"/>
<path d="M105.582 15.6506H113.02V8.21313H105.582V15.6506Z" fill="#FDE659"/>
<path d="M98.001 15.6506H105.584V8.21313H98.001V15.6506Z" fill="#F8B02D"/>
<path d="M15.0225 15.6506H22.6058V8.21313H15.0225V15.6506Z" fill="#F8B02D"/>
<path d="M7.58398 15.6506H15.0215V8.21313H7.58398V15.6506Z" fill="#FDE659"/>
<path d="M98.001 8.21224H105.584V0.628906H98.001V8.21224Z" fill="#FDE659"/>
<path d="M90.416 8.21224H97.9993V0.628906H90.416V8.21224Z" fill="#F8B02D"/>
<path d="M22.6035 8.21224H30.1868V0.628906H22.6035V8.21224Z" fill="#F8B02D"/>
<path d="M15.0225 8.21224H22.6058V0.628906H15.0225V8.21224Z" fill="#FDE659"/>
</svg>
