<svg width="141" height="129" viewBox="0 0 141 129" fill="none" xmlns="http://www.w3.org/2000/svg">
<path d="M34.7158 67.6039H78.2571V24.0627H34.7158V67.6039Z" fill="#2F2C33"/>
<path d="M83.3018 128.601H89.702V122.2H83.3018V128.601Z" fill="#EBBE9C"/>
<path d="M76.9004 128.601H83.3007V122.2H76.9004V128.601Z" fill="#E7AC73"/>
<path d="M70.499 128.601H76.8993V122.2H70.499V128.601Z" fill="#EBBE9C"/>
<path d="M64.1006 128.601H70.5009V122.2H64.1006V128.601Z" fill="#E7AC73"/>
<path d="M57.6992 128.601H64.0995V122.2H57.6992V128.601Z" fill="#EBBE9C"/>
<path d="M51.2998 128.601H57.7001V122.2H51.2998V128.601Z" fill="#BF7150"/>
<path d="M44.8994 128.601H51.2997V122.2H44.8994V128.601Z" fill="#BF7150"/>
<path d="M38.498 128.601H44.8983V122.2H38.498V128.601Z" fill="#BF7150"/>
<path d="M83.3018 122.201H89.702V115.8H83.3018V122.201Z" fill="#E7AC73"/>
<path d="M76.9004 122.201H83.3007V115.8H76.9004V122.201Z" fill="#EBBE9C"/>
<path d="M70.499 122.201H76.8993V115.8H70.499V122.201Z" fill="#E7AC73"/>
<path d="M64.1006 122.201H70.5009V115.8H64.1006V122.201Z" fill="#EBBE9C"/>
<path d="M57.6992 122.201H64.0995V115.8H57.6992V122.201Z" fill="#E7AC73"/>
<path d="M51.2998 122.201H57.7001V115.8H51.2998V122.201Z" fill="#BF7150"/>
<path d="M44.8994 122.201H51.2997V115.8H44.8994V122.201Z" fill="#BF7150"/>
<path d="M38.498 122.201H44.8983V115.8H38.498V122.201Z" fill="#BF7150"/>
<path d="M25.5996 122.201H31.9999V115.8H25.5996V122.201Z" fill="#EEEBE7"/>
<path d="M19.2012 122.201H25.6014V115.8H19.2012V122.201Z" fill="#EEEBE7"/>
<path d="M12.7998 122.201H19.2001V115.8H12.7998V122.201Z" fill="#EEEBE7"/>
<path d="M6.40137 122.201H12.8016V115.8H6.40137V122.201Z" fill="#EEEBE7"/>
<path d="M0 122.201H6.40028V115.8H0V122.201Z" fill="#EEEBE7"/>
<path d="M134.599 115.801H140.999V109.4H134.599V115.801Z" fill="#EEEBE7"/>
<path d="M128.2 115.801H134.6V109.4H128.2V115.801Z" fill="#EEEBE7"/>
<path d="M121.799 115.801H128.199V109.4H121.799V115.801Z" fill="#EEEBE7"/>
<path d="M115.397 115.801H121.798V109.4H115.397V115.801Z" fill="#EEEBE7"/>
<path d="M108.999 115.801H115.399V109.4H108.999V115.801Z" fill="#EEEBE7"/>
<path d="M102.598 115.801H108.998V109.4H102.598V115.801Z" fill="#EEEBE7"/>
<path d="M83.3018 115.801H89.702V109.4H83.3018V115.801Z" fill="#EBBE9C"/>
<path d="M76.9004 115.801H83.3007V109.4H76.9004V115.801Z" fill="#E7AC73"/>
<path d="M70.499 115.801H76.8993V109.4H70.499V115.801Z" fill="#EBBE9C"/>
<path d="M64.1006 115.801H70.5009V109.4H64.1006V115.801Z" fill="#E7AC73"/>
<path d="M57.6992 115.801H64.0995V109.4H57.6992V115.801Z" fill="#EBBE9C"/>
<path d="M51.2998 115.801H57.7001V109.4H51.2998V115.801Z" fill="#BF7150"/>
<path d="M44.8994 115.801H51.2997V109.4H44.8994V115.801Z" fill="#BF7150"/>
<path d="M38.498 115.801H44.8983V109.4H38.498V115.801Z" fill="#BF7150"/>
<path d="M19.2012 115.801H25.6014V109.4H19.2012V115.801Z" fill="#EEEBE7"/>
<path d="M12.7998 115.801H19.2001V109.4H12.7998V115.801Z" fill="#EEEBE7"/>
<path d="M6.40137 115.801H12.8016V109.4H6.40137V115.801Z" fill="#EEEBE7"/>
<path d="M0 115.801H6.40028V109.4H0V115.801Z" fill="#EEEBE7"/>
<path d="M128.2 109.399H134.6V102.999H128.2V109.399Z" fill="#EEEBE7"/>
<path d="M121.799 109.399H128.199V102.999H121.799V109.399Z" fill="#EEEBE7"/>
<path d="M115.397 109.399H121.798V102.999H115.397V109.399Z" fill="#EEEBE7"/>
<path d="M108.999 109.399H115.399V102.999H108.999V109.399Z" fill="#EEEBE7"/>
<path d="M102.598 109.399H108.998V102.999H102.598V109.399Z" fill="#EEEBE7"/>
<path d="M76.9004 109.399H83.3007V102.999H76.9004V109.399Z" fill="#E7AC73"/>
<path d="M64.1006 109.399H70.5009V102.999H64.1006V109.399Z" fill="#C8886A"/>
<path d="M57.6992 109.399H64.0995V102.999H57.6992V109.399Z" fill="#E7AC73"/>
<path d="M44.8994 109.399H51.2997V102.999H44.8994V109.399Z" fill="#C8886A"/>
<path d="M12.7998 109.399H19.2001V102.999H12.7998V109.399Z" fill="#EEEBE7"/>
<path d="M6.40137 109.399H12.8016V102.999H6.40137V109.399Z" fill="#EEEBE7"/>
<path d="M128.2 103H134.6V96.5027H128.2V103Z" fill="#EEEBE7"/>
<path d="M121.799 103H128.199V96.5027H121.799V103Z" fill="#EEEBE7"/>
<path d="M115.397 103H121.798V96.5027H115.397V103Z" fill="#EEEBE7"/>
<path d="M108.999 103H115.399V96.5027H108.999V103Z" fill="#EEEBE7"/>
<path d="M102.598 103H108.998V96.5027H102.598V103Z" fill="#EEEBE7"/>
<path d="M76.9004 103H83.3007V96.5027H76.9004V103Z" fill="#E7AC73"/>
<path d="M64.1006 103H70.5009V96.5027H64.1006V103Z" fill="#C8886A"/>
<path d="M57.6992 103H64.0995V96.5027H57.6992V103Z" fill="#E7AC73"/>
<path d="M44.8994 103H51.2997V96.5027H44.8994V103Z" fill="#C8886A"/>
<path d="M121.799 96.5031H128.199V90.1028H121.799V96.5031Z" fill="#EEEBE7"/>
<path d="M115.397 96.5031H121.798V90.1028H115.397V96.5031Z" fill="#EEEBE7"/>
<path d="M108.999 96.5031H115.399V90.1028H108.999V96.5031Z" fill="#EEEBE7"/>
<path d="M83.3018 96.5031H89.702V90.1028H83.3018V96.5031Z" fill="#DF3640"/>
<path d="M76.9004 96.5031H83.3007V90.1028H76.9004V96.5031Z" fill="#DF3640"/>
<path d="M70.499 96.5031H76.8993V90.1028H70.499V96.5031Z" fill="#DF3640"/>
<path d="M64.1006 96.5031H70.5009V90.1028H64.1006V96.5031Z" fill="#DF3640"/>
<path d="M57.6992 96.5031H64.0995V90.1028H57.6992V96.5031Z" fill="#A62E35"/>
<path d="M51.2998 96.5031H57.7001V90.1028H51.2998V96.5031Z" fill="#A62E35"/>
<path d="M44.8994 96.5031H51.2997V90.1028H44.8994V96.5031Z" fill="#A62E35"/>
<path d="M38.498 96.5031H44.8983V90.1028H38.498V96.5031Z" fill="#A62E35"/>
<path d="M89.7002 90.1018H96.1005V83.7015H89.7002V90.1018Z" fill="#DF3640"/>
<path d="M83.3018 90.1018H89.702V83.7015H83.3018V90.1018Z" fill="#DF3640"/>
<path d="M76.9004 90.1018H83.3007V83.7015H76.9004V90.1018Z" fill="#DF3640"/>
<path d="M70.499 90.1018H76.8993V83.7015H70.499V90.1018Z" fill="#DF3640"/>
<path d="M64.1006 90.1018H70.5009V83.7015H64.1006V90.1018Z" fill="#DF3640"/>
<path d="M57.6992 90.1018H64.0995V83.7015H57.6992V90.1018Z" fill="#A62E35"/>
<path d="M51.2998 90.1018H57.7001V83.7015H51.2998V90.1018Z" fill="#A62E35"/>
<path d="M44.8994 90.1018H51.2997V83.7015H44.8994V90.1018Z" fill="#A62E35"/>
<path d="M38.498 90.1018H44.8983V83.7015H38.498V90.1018Z" fill="#A62E35"/>
<path d="M32.001 90.1018H38.4982V83.7015H32.001V90.1018Z" fill="#A62E35"/>
<path d="M96.1016 83.7018H102.599V77.3015H96.1016V83.7018Z" fill="#DF3640"/>
<path d="M89.7002 83.7018H96.1005V77.3015H89.7002V83.7018Z" fill="#DF3640"/>
<path d="M83.3018 83.7018H89.702V77.3015H83.3018V83.7018Z" fill="#DF3640"/>
<path d="M76.9004 83.7018H83.3007V77.3015H76.9004V83.7018Z" fill="#DF3640"/>
<path d="M70.499 83.7018H76.8993V77.3015H70.499V83.7018Z" fill="#DF3640"/>
<path d="M64.1006 83.7018H70.5009V77.3015H64.1006V83.7018Z" fill="#ED737C"/>
<path d="M57.6992 83.7018H64.0995V77.3015H57.6992V83.7018Z" fill="#DF3640"/>
<path d="M51.2998 83.7018H57.7001V77.3015H51.2998V83.7018Z" fill="#A62E35"/>
<path d="M44.8994 83.7018H51.2997V77.3015H44.8994V83.7018Z" fill="#A62E35"/>
<path d="M38.498 83.7018H44.8983V77.3015H38.498V83.7018Z" fill="#A62E35"/>
<path d="M32.001 83.7018H38.4982V77.3015H32.001V83.7018Z" fill="#A62E35"/>
<path d="M25.5996 83.7018H31.9999V77.3015H25.5996V83.7018Z" fill="#A62E35"/>
<path d="M102.598 77.3018H108.998V70.9015H102.598V77.3018Z" fill="#DF3640"/>
<path d="M96.1016 77.3018H102.599V70.9015H96.1016V77.3018Z" fill="#DF3640"/>
<path d="M89.7002 77.3018H96.1005V70.9015H89.7002V77.3018Z" fill="#ED737C"/>
<path d="M83.3018 77.3018H89.702V70.9015H83.3018V77.3018Z" fill="#DF3640"/>
<path d="M76.9004 77.3018H83.3007V70.9015H76.9004V77.3018Z" fill="#DF3640"/>
<path d="M70.499 77.3018H76.8993V70.9015H70.499V77.3018Z" fill="#ED737C"/>
<path d="M64.1006 77.3018H70.5009V70.9015H64.1006V77.3018Z" fill="#ED737C"/>
<path d="M57.6992 77.3018H64.0995V70.9015H57.6992V77.3018Z" fill="#DF3640"/>
<path d="M51.2998 77.3018H57.7001V70.9015H51.2998V77.3018Z" fill="#DF3640"/>
<path d="M44.8994 77.3018H51.2997V70.9015H44.8994V77.3018Z" fill="#A62E35"/>
<path d="M38.498 77.3018H44.8983V70.9015H38.498V77.3018Z" fill="#A62E35"/>
<path d="M32.001 77.3018H38.4982V70.9015H32.001V77.3018Z" fill="#DF3640"/>
<path d="M25.5996 77.3018H31.9999V70.9015H25.5996V77.3018Z" fill="#A62E35"/>
<path d="M19.2012 77.3018H25.6014V70.9015H19.2012V77.3018Z" fill="#A62E35"/>
<path d="M108.999 70.9018H115.399V64.5016H108.999V70.9018Z" fill="#DF3640"/>
<path d="M102.598 70.9018H108.998V64.5016H102.598V70.9018Z" fill="#DF3640"/>
<path d="M96.1016 70.9018H102.599V64.5016H96.1016V70.9018Z" fill="#ED737C"/>
<path d="M89.7002 70.9018H96.1005V64.5016H89.7002V70.9018Z" fill="#ED737C"/>
<path d="M83.3018 70.9018H89.702V64.5016H83.3018V70.9018Z" fill="#DF3640"/>
<path d="M76.9004 70.9018H83.3007V64.5016H76.9004V70.9018Z" fill="#DF3640"/>
<path d="M70.499 70.9018H76.8993V64.5016H70.499V70.9018Z" fill="#ED737C"/>
<path d="M64.1006 70.9018H70.5009V64.5016H64.1006V70.9018Z" fill="#ED737C"/>
<path d="M57.6992 70.9018H64.0995V64.5016H57.6992V70.9018Z" fill="#DF3640"/>
<path d="M51.2998 70.9018H57.7001V64.5016H51.2998V70.9018Z" fill="#DF3640"/>
<path d="M44.8994 70.9018H51.2997V64.5016H44.8994V70.9018Z" fill="#A62E35"/>
<path d="M38.498 70.9018H44.8983V64.5016H38.498V70.9018Z" fill="#A62E35"/>
<path d="M32.001 70.9018H38.4982V64.5016H32.001V70.9018Z" fill="#DF3640"/>
<path d="M25.5996 70.9018H31.9999V64.5016H25.5996V70.9018Z" fill="#DF3640"/>
<path d="M19.2012 70.9018H25.6014V64.5016H19.2012V70.9018Z" fill="#A62E35"/>
<path d="M12.7998 70.9018H19.2001V64.5016H12.7998V70.9018Z" fill="#A62E35"/>
<path d="M108.999 64.5005H115.399V58.1003H108.999V64.5005Z" fill="#DF3640"/>
<path d="M102.598 64.5005H108.998V58.1003H102.598V64.5005Z" fill="#DF3640"/>
<path d="M96.1016 64.5005H102.599V58.1003H96.1016V64.5005Z" fill="#ED737C"/>
<path d="M89.7002 64.5005H96.1005V58.1003H89.7002V64.5005Z" fill="#ED737C"/>
<path d="M83.3018 64.5005H89.702V58.1003H83.3018V64.5005Z" fill="#DF3640"/>
<path d="M76.9004 64.5005H83.3007V58.1003H76.9004V64.5005Z" fill="#DF3640"/>
<path d="M70.499 64.5005H76.8993V58.1003H70.499V64.5005Z" fill="#ED737C"/>
<path d="M64.1006 64.5005H70.5009V58.1003H64.1006V64.5005Z" fill="#ED737C"/>
<path d="M57.6992 64.5005H64.0995V58.1003H57.6992V64.5005Z" fill="#DF3640"/>
<path d="M51.2998 64.5005H57.7001V58.1003H51.2998V64.5005Z" fill="#DF3640"/>
<path d="M44.8994 64.5005H51.2997V58.1003H44.8994V64.5005Z" fill="#A62E35"/>
<path d="M38.498 64.5005H44.8983V58.1003H38.498V64.5005Z" fill="#A62E35"/>
<path d="M32.001 64.5005H38.4982V58.1003H32.001V64.5005Z" fill="#DF3640"/>
<path d="M25.5996 64.5005H31.9999V58.1003H25.5996V64.5005Z" fill="#DF3640"/>
<path d="M19.2012 64.5005H25.6014V58.1003H19.2012V64.5005Z" fill="#A62E35"/>
<path d="M12.7998 64.5005H19.2001V58.1003H12.7998V64.5005Z" fill="#A62E35"/>
<path d="M108.999 58.1006H115.399V51.7003H108.999V58.1006Z" fill="#DF3640"/>
<path d="M102.598 58.1006H108.998V51.7003H102.598V58.1006Z" fill="#DF3640"/>
<path d="M96.1016 58.1006H102.599V51.7003H96.1016V58.1006Z" fill="#ED737C"/>
<path d="M89.7002 58.1006H96.1005V51.7003H89.7002V58.1006Z" fill="#ED737C"/>
<path d="M83.3018 58.1006H89.702V51.7003H83.3018V58.1006Z" fill="#DF3640"/>
<path d="M76.9004 58.1006H83.3007V51.7003H76.9004V58.1006Z" fill="#DF3640"/>
<path d="M70.499 58.1006H76.8993V51.7003H70.499V58.1006Z" fill="#ED737C"/>
<path d="M64.1006 58.1006H70.5009V51.7003H64.1006V58.1006Z" fill="#ED737C"/>
<path d="M57.6992 58.1006H64.0995V51.7003H57.6992V58.1006Z" fill="#DF3640"/>
<path d="M51.2998 58.1006H57.7001V51.7003H51.2998V58.1006Z" fill="#DF3640"/>
<path d="M44.8994 58.1006H51.2997V51.7003H44.8994V58.1006Z" fill="#A62E35"/>
<path d="M38.498 58.1006H44.8983V51.7003H38.498V58.1006Z" fill="#A62E35"/>
<path d="M32.001 58.1006H38.4982V51.7003H32.001V58.1006Z" fill="#DF3640"/>
<path d="M25.5996 58.1006H31.9999V51.7003H25.5996V58.1006Z" fill="#DF3640"/>
<path d="M19.2012 58.1006H25.6014V51.7003H19.2012V58.1006Z" fill="#A62E35"/>
<path d="M12.7998 58.1006H19.2001V51.7003H12.7998V58.1006Z" fill="#A62E35"/>
<path d="M108.999 51.7006H115.399V45.3003H108.999V51.7006Z" fill="#DF3640"/>
<path d="M102.598 51.7006H108.998V45.3003H102.598V51.7006Z" fill="#DF3640"/>
<path d="M96.1016 51.7006H102.599V45.3003H96.1016V51.7006Z" fill="#ED737C"/>
<path d="M89.7002 51.7006H96.1005V45.3003H89.7002V51.7006Z" fill="#ED737C"/>
<path d="M83.3018 51.7006H89.702V45.3003H83.3018V51.7006Z" fill="#DF3640"/>
<path d="M76.9004 51.7006H83.3007V45.3003H76.9004V51.7006Z" fill="#DF3640"/>
<path d="M70.499 51.7006H76.8993V45.3003H70.499V51.7006Z" fill="#ED737C"/>
<path d="M64.1006 51.7006H70.5009V45.3003H64.1006V51.7006Z" fill="#ED737C"/>
<path d="M57.6992 51.7006H64.0995V45.3003H57.6992V51.7006Z" fill="#DF3640"/>
<path d="M51.2998 51.7006H57.7001V45.3003H51.2998V51.7006Z" fill="#DF3640"/>
<path d="M44.8994 51.7006H51.2997V45.3003H44.8994V51.7006Z" fill="#A62E35"/>
<path d="M38.498 51.7006H44.8983V45.3003H38.498V51.7006Z" fill="#A62E35"/>
<path d="M32.001 51.7006H38.4982V45.3003H32.001V51.7006Z" fill="#DF3640"/>
<path d="M25.5996 51.7006H31.9999V45.3003H25.5996V51.7006Z" fill="#DF3640"/>
<path d="M19.2012 51.7006H25.6014V45.3003H19.2012V51.7006Z" fill="#A62E35"/>
<path d="M12.7998 51.7006H19.2001V45.3003H12.7998V51.7006Z" fill="#A62E35"/>
<path d="M108.999 45.3006H115.399V38.9003H108.999V45.3006Z" fill="#DF3640"/>
<path d="M102.598 45.3006H108.998V38.9003H102.598V45.3006Z" fill="#DF3640"/>
<path d="M96.1016 45.3006H102.599V38.9003H96.1016V45.3006Z" fill="#ED737C"/>
<path d="M89.7002 45.3006H96.1005V38.9003H89.7002V45.3006Z" fill="#ED737C"/>
<path d="M83.3018 45.3006H89.702V38.9003H83.3018V45.3006Z" fill="#DF3640"/>
<path d="M76.9004 45.3006H83.3007V38.9003H76.9004V45.3006Z" fill="#DF3640"/>
<path d="M70.499 45.3006H76.8993V38.9003H70.499V45.3006Z" fill="#ED737C"/>
<path d="M64.1006 45.3006H70.5009V38.9003H64.1006V45.3006Z" fill="#ED737C"/>
<path d="M57.6992 45.3006H64.0995V38.9003H57.6992V45.3006Z" fill="#DF3640"/>
<path d="M51.2998 45.3006H57.7001V38.9003H51.2998V45.3006Z" fill="#DF3640"/>
<path d="M44.8994 45.3006H51.2997V38.9003H44.8994V45.3006Z" fill="#A62E35"/>
<path d="M38.498 45.3006H44.8983V38.9003H38.498V45.3006Z" fill="#A62E35"/>
<path d="M32.001 45.3006H38.4982V38.9003H32.001V45.3006Z" fill="#DF3640"/>
<path d="M25.5996 45.3006H31.9999V38.9003H25.5996V45.3006Z" fill="#DF3640"/>
<path d="M19.2012 45.3006H25.6014V38.9003H19.2012V45.3006Z" fill="#A62E35"/>
<path d="M12.7998 45.3006H19.2001V38.9003H12.7998V45.3006Z" fill="#A62E35"/>
<path d="M108.999 38.8998H115.399V32.4026H108.999V38.8998Z" fill="#DF3640"/>
<path d="M102.598 38.8998H108.998V32.4026H102.598V38.8998Z" fill="#DF3640"/>
<path d="M96.1016 38.8998H102.599V32.4026H96.1016V38.8998Z" fill="#ED737C"/>
<path d="M89.7002 38.8998H96.1005V32.4026H89.7002V38.8998Z" fill="#ED737C"/>
<path d="M83.3018 38.8998H89.702V32.4026H83.3018V38.8998Z" fill="#DF3640"/>
<path d="M76.9004 38.8998H83.3007V32.4026H76.9004V38.8998Z" fill="#DF3640"/>
<path d="M70.499 38.8998H76.8993V32.4026H70.499V38.8998Z" fill="#ED737C"/>
<path d="M64.1006 38.8998H70.5009V32.4026H64.1006V38.8998Z" fill="#ED737C"/>
<path d="M57.6992 38.8998H64.0995V32.4026H57.6992V38.8998Z" fill="#DF3640"/>
<path d="M51.2998 38.8998H57.7001V32.4026H51.2998V38.8998Z" fill="#DF3640"/>
<path d="M44.8994 38.8998H51.2997V32.4026H44.8994V38.8998Z" fill="#A62E35"/>
<path d="M38.498 38.8998H44.8983V32.4026H38.498V38.8998Z" fill="#A62E35"/>
<path d="M32.001 38.8998H38.4982V32.4026H32.001V38.8998Z" fill="#DF3640"/>
<path d="M25.5996 38.8998H31.9999V32.4026H25.5996V38.8998Z" fill="#DF3640"/>
<path d="M19.2012 38.8998H25.6014V32.4026H19.2012V38.8998Z" fill="#A62E35"/>
<path d="M12.7998 38.8998H19.2001V32.4026H12.7998V38.8998Z" fill="#A62E35"/>
<path d="M108.999 32.4029H115.399V26.0026H108.999V32.4029Z" fill="#DF3640"/>
<path d="M102.598 32.4029H108.998V26.0026H102.598V32.4029Z" fill="#DF3640"/>
<path d="M96.1016 32.4029H102.599V26.0026H96.1016V32.4029Z" fill="#ED737C"/>
<path d="M89.7002 32.4029H96.1005V26.0026H89.7002V32.4029Z" fill="#ED737C"/>
<path d="M83.3018 32.4029H89.702V26.0026H83.3018V32.4029Z" fill="#DF3640"/>
<path d="M76.9004 32.4029H83.3007V26.0026H76.9004V32.4029Z" fill="#DF3640"/>
<path d="M70.499 32.4029H76.8993V26.0026H70.499V32.4029Z" fill="#ED737C"/>
<path d="M64.1006 32.4029H70.5009V26.0026H64.1006V32.4029Z" fill="#ED737C"/>
<path d="M57.6992 32.4029H64.0995V26.0026H57.6992V32.4029Z" fill="#DF3640"/>
<path d="M51.2998 32.4029H57.7001V26.0026H51.2998V32.4029Z" fill="#DF3640"/>
<path d="M44.8994 32.4029H51.2997V26.0026H44.8994V32.4029Z" fill="#A62E35"/>
<path d="M38.498 32.4029H44.8983V26.0026H38.498V32.4029Z" fill="#A62E35"/>
<path d="M32.001 32.4029H38.4982V26.0026H32.001V32.4029Z" fill="#DF3640"/>
<path d="M25.5996 32.4029H31.9999V26.0026H25.5996V32.4029Z" fill="#DF3640"/>
<path d="M19.2012 32.4029H25.6014V26.0026H19.2012V32.4029Z" fill="#A62E35"/>
<path d="M12.7998 32.4029H19.2001V26.0026H12.7998V32.4029Z" fill="#A62E35"/>
<path d="M102.598 26.0029H108.998V19.6026H102.598V26.0029Z" fill="#DF3640"/>
<path d="M96.1016 26.0029H102.599V19.6026H96.1016V26.0029Z" fill="#DF3640"/>
<path d="M89.7002 26.0029H96.1005V19.6026H89.7002V26.0029Z" fill="#ED737C"/>
<path d="M83.3018 26.0029H89.702V19.6026H83.3018V26.0029Z" fill="#DF3640"/>
<path d="M76.9004 26.0029H83.3007V19.6026H76.9004V26.0029Z" fill="#DF3640"/>
<path d="M70.499 26.0029H76.8993V19.6026H70.499V26.0029Z" fill="#ED737C"/>
<path d="M64.1006 26.0029H70.5009V19.6026H64.1006V26.0029Z" fill="#ED737C"/>
<path d="M57.6992 26.0029H64.0995V19.6026H57.6992V26.0029Z" fill="#DF3640"/>
<path d="M51.2998 26.0029H57.7001V19.6026H51.2998V26.0029Z" fill="#DF3640"/>
<path d="M44.8994 26.0029H51.2997V19.6026H44.8994V26.0029Z" fill="#A62E35"/>
<path d="M38.498 26.0029H44.8983V19.6026H38.498V26.0029Z" fill="#A62E35"/>
<path d="M32.001 26.0029H38.4982V19.6026H32.001V26.0029Z" fill="#DF3640"/>
<path d="M25.5996 26.0029H31.9999V19.6026H25.5996V26.0029Z" fill="#A62E35"/>
<path d="M19.2012 26.0029H25.6014V19.6026H19.2012V26.0029Z" fill="#A62E35"/>
<path d="M96.1016 19.6016H102.599V13.2013H96.1016V19.6016Z" fill="#DF3640"/>
<path d="M89.7002 19.6016H96.1005V13.2013H89.7002V19.6016Z" fill="#DF3640"/>
<path d="M83.3018 19.6016H89.702V13.2013H83.3018V19.6016Z" fill="#DF3640"/>
<path d="M76.9004 19.6016H83.3007V13.2013H76.9004V19.6016Z" fill="#DF3640"/>
<path d="M70.499 19.6016H76.8993V13.2013H70.499V19.6016Z" fill="#DF3640"/>
<path d="M64.1006 19.6016H70.5009V13.2013H64.1006V19.6016Z" fill="#ED737C"/>
<path d="M57.6992 19.6016H64.0995V13.2013H57.6992V19.6016Z" fill="#DF3640"/>
<path d="M51.2998 19.6016H57.7001V13.2013H51.2998V19.6016Z" fill="#A62E35"/>
<path d="M44.8994 19.6016H51.2997V13.2013H44.8994V19.6016Z" fill="#A62E35"/>
<path d="M38.498 19.6016H44.8983V13.2013H38.498V19.6016Z" fill="#A62E35"/>
<path d="M32.001 19.6016H38.4982V13.2013H32.001V19.6016Z" fill="#A62E35"/>
<path d="M25.5996 19.6016H31.9999V13.2013H25.5996V19.6016Z" fill="#A62E35"/>
<path d="M89.7002 13.2016H96.1005V6.80133H89.7002V13.2016Z" fill="#DF3640"/>
<path d="M83.3018 13.2016H89.702V6.80133H83.3018V13.2016Z" fill="#DF3640"/>
<path d="M76.9004 13.2016H83.3007V6.80133H76.9004V13.2016Z" fill="#DF3640"/>
<path d="M70.499 13.2016H76.8993V6.80133H70.499V13.2016Z" fill="#DF3640"/>
<path d="M64.1006 13.2016H70.5009V6.80133H64.1006V13.2016Z" fill="#DF3640"/>
<path d="M57.6992 13.2016H64.0995V6.80133H57.6992V13.2016Z" fill="#A62E35"/>
<path d="M51.2998 13.2016H57.7001V6.80133H51.2998V13.2016Z" fill="#A62E35"/>
<path d="M44.8994 13.2016H51.2997V6.80133H44.8994V13.2016Z" fill="#A62E35"/>
<path d="M38.498 13.2016H44.8983V6.80133H38.498V13.2016Z" fill="#A62E35"/>
<path d="M32.001 13.2016H38.4982V6.80133H32.001V13.2016Z" fill="#A62E35"/>
<path d="M83.3018 6.80164H89.702V0.401367H83.3018V6.80164Z" fill="#DF3640"/>
<path d="M76.9004 6.80164H83.3007V0.401367H76.9004V6.80164Z" fill="#DF3640"/>
<path d="M70.499 6.80164H76.8993V0.401367H70.499V6.80164Z" fill="#DF3640"/>
<path d="M64.1006 6.80164H70.5009V0.401367H64.1006V6.80164Z" fill="#DF3640"/>
<path d="M57.6992 6.80164H64.0995V0.401367H57.6992V6.80164Z" fill="#A62E35"/>
<path d="M51.2998 6.80164H57.7001V0.401367H51.2998V6.80164Z" fill="#A62E35"/>
<path d="M44.8994 6.80164H51.2997V0.401367H44.8994V6.80164Z" fill="#A62E35"/>
<path d="M38.498 6.80164H44.8983V0.401367H38.498V6.80164Z" fill="#A62E35"/>
</svg>
