<svg width="168" height="168" viewBox="0 0 168 168" fill="none" xmlns="http://www.w3.org/2000/svg">
<path d="M109.541 0.714355C156.181 0.714355 167.286 11.8191 167.286 58.4591V109.541C167.286 156.181 156.181 167.286 109.541 167.286H58.4591C11.8191 167.286 0.714355 156.181 0.714355 109.541V58.4591C0.714355 11.8191 11.8191 0.714355 58.4591 0.714355H109.541ZM44.0925 52.7679H31.9467C28.4765 52.7679 27.7824 54.4015 27.7824 56.2029C27.7824 59.42 31.9001 75.3759 46.9551 96.4787C56.9917 110.89 71.1326 118.702 84.0003 118.702C91.7208 118.702 92.6759 116.967 92.6759 113.979V103.086C92.6759 99.6161 93.4073 98.9236 95.8521 98.9236C97.6535 98.9236 100.742 99.8243 107.948 106.773C116.183 115.008 117.541 118.702 122.173 118.702H134.319C137.789 118.702 139.524 116.967 138.523 113.543C137.428 110.13 133.496 105.179 128.279 99.3096C125.448 95.964 121.201 92.3612 119.915 90.5594C118.113 88.2435 118.628 87.2139 119.915 85.1552L120.131 84.8488C121.961 82.2475 134.823 63.8041 136.257 57.2326C137.028 54.659 136.257 52.7679 132.584 52.7679H120.438C117.349 52.7679 115.926 54.4015 115.154 56.2029C115.154 56.2029 108.977 71.2582 100.227 81.0375C97.3962 83.8683 96.1094 84.769 94.5652 84.769C93.7933 84.769 92.6757 83.8683 92.6757 81.295V57.2326C92.6757 54.1443 91.7794 52.7679 89.2056 52.7679H70.1193C68.1894 52.7679 67.0288 54.2013 67.0288 55.5597C67.0288 58.4873 71.4035 59.1625 71.8544 67.3979V85.284C71.8544 89.2054 71.1463 89.9164 69.6021 89.9164C65.4846 89.9164 55.4688 74.7939 49.5285 57.4898C48.3643 54.1265 47.1967 52.7679 44.0925 52.7679Z" fill="white"/>
</svg>
