<svg width="327" height="302" viewBox="0 0 327 302" fill="none" xmlns="http://www.w3.org/2000/svg">
<path d="M137.199 199.728H182.647V233.819H188.326V194.046H137.199V199.728Z" fill="#2C588E"/>
<path d="M159.923 216.773H165.604V211.092H159.923V216.773Z" fill="#2E9BD6"/>
<path d="M165.602 199.727V211.091H176.964V216.773H165.602V222.454H171.285V228.136H165.602V222.454H159.923V228.136H154.24V222.454H159.923V216.773H148.561V211.091H159.923V199.727H137.199V233.818H182.647V199.727H165.602Z" fill="#2E9BD6"/>
<path d="M154.241 290.636H165.603V284.955H154.241V290.636Z" fill="#626F8D"/>
<path d="M182.645 284.954V267.909H176.962V279.273H171.283V284.954H182.645Z" fill="#626F8D"/>
<path d="M137.199 284.954H142.88V267.909H137.199V284.954Z" fill="#626F8D"/>
<path d="M165.602 279.273H171.283V273.591H165.602V279.273Z" fill="#626F8D"/>
<path d="M148.56 279.273H154.241V273.591H148.56V279.273Z" fill="#626F8D"/>
<path d="M165.602 267.909H171.283V262.227H165.602V267.909Z" fill="#626F8D"/>
<path d="M148.56 267.909H154.241V262.227H148.56V267.909Z" fill="#626F8D"/>
<path d="M120.152 250.863H114.473V245.182H108.79V239.5H103.111V250.863H108.79V256.545H120.152V250.863Z" fill="#626F8D"/>
<path d="M216.733 245.182H211.05V250.863H205.371V256.545H216.733V250.863H222.412V239.5H216.733V245.182Z" fill="#626F8D"/>
<path d="M194.009 239.5V245.182H188.326V250.863H137.199V245.182H131.515V239.5H120.153V245.182H125.836V250.863H131.515V256.545H194.009V250.863H199.688V245.182H205.371V239.5H194.009Z" fill="#626F8D"/>
<path d="M120.154 194.046H131.516V188.364H103.113V194.046H114.475V211.092H103.113V205.409H97.4297V222.455H114.475V239.501H120.154V194.046Z" fill="#626F8D"/>
<path d="M222.41 211.092H211.048V194.046H222.41V188.364H194.007V194.046H205.369V239.501H211.048V222.455H228.093V205.409H222.41V211.092Z" fill="#626F8D"/>
<path d="M199.688 177.001H205.369V159.955H199.688V177.001Z" fill="#626F8D"/>
<path d="M188.325 177.001H194.006V159.955H188.325V177.001Z" fill="#626F8D"/>
<path d="M131.514 177.001H137.195V159.955H131.514V177.001Z" fill="#626F8D"/>
<path d="M120.153 177.001H125.834V159.955H120.153V177.001Z" fill="#626F8D"/>
<path d="M165.602 228.136H171.283V222.454H165.602V228.136Z" fill="#6CCBDE"/>
<path d="M154.241 228.136H159.922V222.454H154.241V228.136Z" fill="#6CCBDE"/>
<path d="M159.923 222.455H165.604V216.773H159.923V222.455Z" fill="#6CCBDE"/>
<path d="M165.602 216.773H176.964V211.092H165.602V216.773Z" fill="#6CCBDE"/>
<path d="M148.56 216.773H159.921V211.092H148.56V216.773Z" fill="#6CCBDE"/>
<path d="M159.923 211.091H165.604V199.727H159.923V211.091Z" fill="#6CCBDE"/>
<path d="M182.648 239.5H188.327V233.818H176.965V245.182H182.648V239.5Z" fill="#EDF1F1"/>
<path d="M176.965 194.046H188.327V177H176.965V194.046Z" fill="#EDF1F1"/>
<path d="M211.049 211.092H222.411V194.046H211.049V211.092Z" fill="#C1CCDB"/>
<path d="M103.111 211.092H114.473V194.046H103.111V211.092Z" fill="#C1CCDB"/>
<path d="M131.515 245.182H137.199V250.864H188.326V245.182H194.009V188.364H211.05V165.637H205.371V177.001H188.326V239.5H182.647V245.182H176.964V233.818H137.199V194.046H176.964V177.001H120.153V165.637H114.475V188.364H131.515V245.182Z" fill="#C1CCDB"/>
<path d="M182.646 171.318H188.327V159.955H182.646V171.318Z" fill="#C1CCDB"/>
<path d="M194.007 171.318H199.688V159.955H194.007V171.318Z" fill="#C1CCDB"/>
<path d="M137.199 171.318H142.88V159.955H137.199V171.318Z" fill="#C1CCDB"/>
<path d="M125.835 171.318H131.516V159.955H125.835V171.318Z" fill="#C1CCDB"/>
<path d="M222.411 154.273H211.049V159.955H216.732V165.637H222.411V171.318H228.094V159.955H222.411V154.273Z" fill="#C1CCDB"/>
<path d="M148.56 171.318H176.965V154.273H148.56V171.318Z" fill="#C1CCDB"/>
<path d="M108.79 159.955H114.471V154.273H108.79V159.955Z" fill="#C1CCDB"/>
<path d="M154.241 279.273H165.603V273.591H154.241V279.273Z" fill="#8F9EB6"/>
<path d="M154.241 267.909H165.603V262.227H154.241V267.909Z" fill="#8F9EB6"/>
<path d="M114.473 245.182V222.454H103.111V239.5H108.79V245.182H114.473Z" fill="#8F9EB6"/>
<path d="M194.007 239.501H205.369V194.046H194.007V239.501Z" fill="#8F9EB6"/>
<path d="M120.153 239.501H131.515V194.046H120.153V239.501Z" fill="#8F9EB6"/>
<path d="M211.049 222.454V245.182H216.732V239.5H222.411V222.454H211.049Z" fill="#8F9EB6"/>
<path d="M114.475 188.364V165.637H120.154V154.273H114.475V159.955H108.792V154.273H103.113V159.955H97.4297V188.364H114.475Z" fill="#8F9EB6"/>
<path d="M194.007 177.001H199.688V171.319H194.007V177.001Z" fill="#8F9EB6"/>
<path d="M125.835 177.001H131.516V171.319H125.835V177.001Z" fill="#8F9EB6"/>
<path d="M222.412 165.637H216.733V159.955H211.05V154.273H205.371V165.637H211.05V188.364H228.095V171.318H222.412V165.637Z" fill="#8F9EB6"/>
<path d="M148.561 159.955H142.878V171.318H137.199V177.001H188.326V171.318H182.647V159.955H176.964V171.318H148.561V159.955Z" fill="#8F9EB6"/>
<path d="M165.601 284.954V290.636H154.239V284.954H165.601ZM142.877 279.273V284.954H148.56V302H171.285V279.273H142.877H142.877Z" fill="#464F6D"/>
<path d="M148.56 273.591H171.284V267.909H148.56V273.591Z" fill="#464F6D"/>
<path d="M176.965 267.909H182.646V256.545H176.965V267.909Z" fill="#464F6D"/>
<path d="M137.199 267.909H142.88V256.545H137.199V267.909Z" fill="#464F6D"/>
<path d="M194.014 120.182H199.695V114.501H194.014V120.182Z" fill="#2C588E"/>
<path d="M148.564 114.501V97.4551H137.202V108.819H142.881V114.501H148.564Z" fill="#2C588E"/>
<path d="M194.012 97.4551H182.65V114.501H188.329V108.819H194.012V97.4551Z" fill="#2C588E"/>
<path d="M125.839 91.7718H199.69V114.501H205.373V86.0923H125.839V91.7718Z" fill="#2C588E"/>
<path d="M137.202 57.6813H154.243V52.0018H142.881V46.3179H137.202V57.6813Z" fill="#2E9BD6"/>
<path d="M211.055 63.3656H205.376V52.0018H199.692V63.3656H194.014V74.729H199.692V69.0448H211.055V74.729H216.738V46.3179H211.055V63.3656Z" fill="#2E9BD6"/>
<path d="M188.33 52.0018H176.968V57.6813H194.013V46.3179H188.33V52.0018Z" fill="#2E9BD6"/>
<path d="M114.479 74.729H120.157V69.0448H131.519V74.729H137.203V63.3656H131.519V52.0018H125.84V63.3656H120.157V46.3179H114.479V74.729Z" fill="#2E9BD6"/>
<path d="M205.374 46.3183H211.055V40.6362H205.374V46.3183Z" fill="#2975B0"/>
<path d="M194.014 46.3183H199.695V40.6362H194.014V46.3183Z" fill="#2E9BD6"/>
<path d="M171.289 40.6384V34.9541H159.926V40.6384H148.564V46.3179H159.926V63.3656H142.881V74.7291H148.564V69.0448H159.926V74.7291H171.289V69.0448H182.651V74.7291H188.329V63.3656H171.289V46.3179H182.651V40.6384H171.289Z" fill="#2E9BD6"/>
<path d="M131.521 46.3183H137.201V40.6362H131.521V46.3183Z" fill="#2E9BD6"/>
<path d="M120.156 46.3183H125.837V40.6362H120.156V46.3183Z" fill="#2C588E"/>
<path d="M199.692 40.6383H205.373V34.9565H199.692V40.6383Z" fill="#2975B0"/>
<path d="M125.839 40.6383H131.52V34.9565H125.839V40.6383Z" fill="#2C588E"/>
<path d="M171.29 29.2749V34.9541H182.652V40.6384H188.331V34.9541L194.014 34.9563V29.2771L171.29 29.2749Z" fill="#2C588E"/>
<path d="M171.288 34.9541V29.2749H137.199V34.9541H142.88V40.6384H148.564V34.9541H171.288Z" fill="#2C588E"/>
<path d="M142.88 114.501V108.819H137.201V97.4554H148.563V114.501H142.879L142.88 114.501ZM188.328 91.7718V97.455H194.011V108.818H188.328V114.5H182.649V97.4547H171.287V91.7715H125.839V114.5H131.518V120.182H194.011V114.5H199.69V91.7715H188.328L188.328 91.7718Z" fill="#2E9BD6"/>
<path d="M199.692 74.729H211.055V69.0469H199.692V74.729Z" fill="#2975B0"/>
<path d="M171.29 74.729H182.652V69.0469H171.29V74.729Z" fill="#2E9BD6"/>
<path d="M148.565 74.729H159.927V69.0469H148.565V74.729Z" fill="#2E9BD6"/>
<path d="M120.156 74.729H131.518V69.0469H120.156V74.729Z" fill="#2C588E"/>
<path d="M176.969 57.6813V52.0018H182.652V46.3179H171.29V63.3656H188.331V74.729H194.014V57.6813H176.969Z" fill="#2E9BD6"/>
<path d="M148.565 57.682V63.3662H159.927V52.0024H154.244V57.682H148.565Z" fill="#2E9BD6"/>
<path d="M131.521 63.3663H137.204V74.7297H142.882V57.682H137.204V52.0024H131.521V63.3663Z" fill="#2E9BD6"/>
<path d="M205.374 63.3662H211.055V52.0024H205.374V63.3662Z" fill="#2E9BD6"/>
<path d="M205.376 40.6387H199.692V46.3182H194.014V57.6817H199.692V52.0021H205.376V40.6387Z" fill="#2E9BD6"/>
<path d="M182.65 46.3183H194.012V40.6362H182.65V46.3183Z" fill="#2E9BD6"/>
<path d="M142.882 40.6384V34.9541H131.521V40.6384H137.204V46.3179H142.882V52.0018H154.245V46.3179H148.566V40.6384H142.882Z" fill="#2E9BD6"/>
<path d="M125.839 46.3182H120.156V63.3659H125.839V52.0021H131.518V40.6387H125.839V46.3182Z" fill="#2E9BD6"/>
<path d="M194.014 40.6383H199.695V34.9565H194.014V40.6383Z" fill="#2E9BD6"/>
<path d="M171.29 40.6383H182.652V34.9565H171.29V40.6383Z" fill="#2E9BD6"/>
<path d="M148.565 40.6383H159.927V34.9565H148.565V40.6383Z" fill="#2E9BD6"/>
<path d="M114.479 131.546V137.228H148.565V142.91H176.968V137.228H216.737V131.546H114.479Z" fill="#626F8D"/>
<path d="M171.29 97.4552H188.333V91.7734H171.29V97.4552Z" fill="#6CCBDE"/>
<path d="M194.014 63.3652H199.695V57.6831H194.014V63.3652Z" fill="#2E9BD6"/>
<path d="M142.881 63.3652H148.562V57.6831H142.881V63.3652Z" fill="#2E9BD6"/>
<path d="M205.374 52.002H211.055V46.3203H205.374V52.002Z" fill="#6CCBDE"/>
<path d="M182.65 52.002H188.331V46.3203H182.65V52.002Z" fill="#2E9BD6"/>
<path d="M154.244 52.002H159.925V46.3203H154.244V52.002Z" fill="#2E9BD6"/>
<path d="M131.521 52.002H137.201V46.3203H131.521V52.002Z" fill="#2E9BD6"/>
<path d="M188.328 40.6383H194.009V34.9565H188.328V40.6383Z" fill="#6CCBDE"/>
<path d="M182.65 131.546H199.694V120.183H182.65V131.546Z" fill="#EDF1F1"/>
<path d="M182.65 86.092H199.694V74.7285H182.65V86.092Z" fill="#EDF1F1"/>
<path d="M222.417 74.7285H199.692V86.092H205.376V114.5H199.692V131.545H222.417V74.7285Z" fill="#C1CCDB"/>
<path d="M182.651 120.182H131.52V114.5H125.841V86.092H182.651V74.7285H108.796V131.545H182.651V120.182Z" fill="#C1CCDB"/>
<path d="M97.4326 103.137H103.114V57.6826H97.4326V103.137Z" fill="#C1CCDB"/>
<path d="M228.098 103.137H233.779V57.6826H228.098V103.137Z" fill="#C1CCDB"/>
<path d="M108.795 120.182V86.0923H103.116V103.137H97.4326V114.501H103.116V120.182H108.795Z" fill="#8F9EB6"/>
<path d="M228.1 86.0923H222.416V120.182H228.1V114.501H233.778V103.137H228.1V86.0923Z" fill="#8F9EB6"/>
<path d="M216.736 46.3179H211.053V74.729H216.736V46.3179Z" fill="#2975B0"/>
<path d="M120.162 46.3179H114.479V74.729H120.162V46.3179Z" fill="#2C588E"/>
<path d="M182.65 74.7296H188.331V69.0479H182.65V74.7296Z" fill="#6CCBDE"/>
<path d="M131.521 46.318H137.201V40.6362H131.521V46.318Z" fill="#6CCBDE"/>
<path d="M125.839 63.3652H131.52V57.6831H125.839V63.3652Z" fill="#6CCBDE"/>
<path d="M171.286 63.3652H182.648V57.6831H171.286V63.3652Z" fill="#2975B0"/>
<path d="M159.923 63.3652H171.285V57.6831H159.923V63.3652Z" fill="#2975B0"/>
<path d="M148.562 63.3652H159.924V57.6831H148.562V63.3652Z" fill="#2C588E"/>
<path d="M165.604 57.6811H176.967V51.999H165.604V57.6811Z" fill="#2975B0"/>
<path d="M154.244 57.6811H165.606V51.999H154.244V57.6811Z" fill="#2C588E"/>
<path d="M159.923 51.999H171.285V46.3169H159.923V51.999Z" fill="#2C588E"/>
<path d="M148.565 69.0474H154.246V63.3657H148.565V69.0474Z" fill="#2C588E"/>
<path d="M148.565 74.7296H154.246V69.0479H148.565V74.7296Z" fill="#2C588E"/>
<path d="M176.968 69.0474H182.649V63.3657H176.968V69.0474Z" fill="#2975B0"/>
<path d="M176.968 74.7296H182.649V69.0479H176.968V74.7296Z" fill="#2975B0"/>
<path d="M165.607 74.7296H171.288V69.0479H165.607V74.7296Z" fill="#2975B0"/>
<path d="M159.926 74.7296H165.607V69.0479H159.926V74.7296Z" fill="#2975B0"/>
<path d="M137.205 57.6816H142.886V51.9995H137.205V57.6816Z" fill="#2975B0"/>
<path d="M131.521 52.002H137.201V46.3203H131.521V52.002Z" fill="#2C588E"/>
<path d="M182.65 52.002H188.331V46.3203H182.65V52.002Z" fill="#2975B0"/>
<path d="M188.328 63.3652H194.009V57.6831H188.328V63.3652Z" fill="#2C588E"/>
<path d="M194.011 57.6842H199.692V52.0024H194.011V57.6842Z" fill="#2C588E"/>
<path d="M137.199 69.0474H142.88V63.3657H137.199V69.0474Z" fill="#2C588E"/>
<path d="M154.244 69.0474H159.925V63.3657H154.244V69.0474Z" fill="#6CCBDE"/>
<path d="M159.926 69.0474H165.607V63.3657H159.926V69.0474Z" fill="#6CCBDE"/>
<path d="M165.607 69.0474H171.288V63.3657H165.607V69.0474Z" fill="#2E9BD6"/>
<path d="M165.607 63.3648H171.288V57.6831H165.607V63.3648Z" fill="#6CCBDE"/>
<path d="M159.923 63.3652H165.604V57.6831H159.923V63.3652Z" fill="#6CCBDE"/>
<path d="M171.29 69.0474H176.971V63.3657H171.29V69.0474Z" fill="#6CCBDE"/>
<path d="M171.29 74.7275H176.971V69.0454H171.29V74.7275Z" fill="#6CCBDE"/>
<path d="M154.244 74.7296H159.925V69.0479H154.244V74.7296Z" fill="#6CCBDE"/>
<path d="M125.839 57.6842H131.52V52.0024H125.839V57.6842Z" fill="#2975B0"/>
<path d="M50.9834 45.4741H56.6465V51.1399H50.9834V45.4741Z" fill="#2E9BD6"/>
<path d="M22.6611 45.4741H28.3243V51.1399H22.6611V45.4741Z" fill="#2E9BD6"/>
<path d="M28.3262 51.1401H33.9911V56.8059H28.3262V51.1401Z" fill="#2E9BD6"/>
<path d="M33.9912 56.8062H39.6565V62.4701H33.9912V56.8062Z" fill="#2E9BD6"/>
<path d="M39.6562 62.4702H45.3194V68.136H39.6562V62.4702Z" fill="#2E9BD6"/>
<path d="M0 62.4702H5.66534V68.136H0V62.4702Z" fill="#2E9BD6"/>
<path d="M45.3213 68.1357H50.9863V73.7997H45.3213V68.1357Z" fill="#2E9BD6"/>
<path d="M5.67188 68.1357H11.3372V73.7997H5.67188V68.1357Z" fill="#2E9BD6"/>
<path d="M11.3369 73.7998H17.0001V79.4656H11.3369V73.7998Z" fill="#2E9BD6"/>
<path d="M56.6426 79.4659H50.9834V73.8002H56.6426V51.1401H62.3075V85.1298H56.6426V79.4659Z" fill="#2E9BD6"/>
<path d="M16.9951 79.4658H22.6605V85.1297H16.9951V79.4658Z" fill="#2E9BD6"/>
<path d="M62.3105 85.1294H67.9737V90.7951H62.3105V85.1294Z" fill="#2E9BD6"/>
<path d="M22.6611 85.1294H28.3243V90.7951H22.6611V85.1294Z" fill="#2E9BD6"/>
<path d="M67.9756 90.7954H73.6406V96.4615H67.9756V90.7954Z" fill="#2E9BD6"/>
<path d="M0 90.7954H5.66534V96.4615H0V90.7954Z" fill="#2E9BD6"/>
<path d="M5.67188 96.4614H11.3372V102.125H5.67188V96.4614Z" fill="#2E9BD6"/>
<path d="M28.3262 90.7954H33.9911V107.792H28.3262V90.7954Z" fill="#2E9BD6"/>
<path d="M11.3369 102.126H17.0001V107.792H11.3369V102.126Z" fill="#2E9BD6"/>
<path d="M33.9912 107.791H39.6565V113.455H33.9912V107.791Z" fill="#2E9BD6"/>
<path d="M16.9951 107.791H28.3236V113.455H16.9951V107.791Z" fill="#2E9BD6"/>
<path d="M39.6562 113.455H45.3194V119.121H39.6562V113.455Z" fill="#2E9BD6"/>
<path d="M45.3213 119.121H50.9863V124.785H45.3213V119.121Z" fill="#2E9BD6"/>
<path d="M50.9834 130.451V124.785H73.6375V96.4614H79.3024V124.785H84.9671V130.451H50.9834Z" fill="#2E9BD6"/>
<path d="M73.6455 119.121H79.3087V124.785H73.6455V119.121Z" fill="#2E9BD6"/>
<path d="M79.3037 124.784H84.9691V130.451H79.3037V124.784Z" fill="#2E9BD6"/>
<path d="M84.9697 130.451H90.6351V136.117H84.9697V130.451Z" fill="#2E9BD6"/>
<path d="M90.6348 136.116H96.2979V141.78H90.6348V136.116Z" fill="#2E9BD6"/>
<path d="M96.2998 141.781H101.965V147.446H96.2998V141.781Z" fill="#2E9BD6"/>
<path d="M79.3105 90.7793H84.9762V96.4454H79.3105V90.7793Z" fill="#2E9BD6"/>
<path d="M4.17773 130.566H9.84271V136.23H4.17773V130.566Z" fill="#2E9BD6"/>
<path d="M9.84277 136.23H15.5059V141.896H9.84277V136.23Z" fill="#2E9BD6"/>
<path d="M15.5078 141.896H21.1728V147.56H15.5078V141.896Z" fill="#2E9BD6"/>
<path d="M21.1729 153.226V147.559H43.8266H49.4919H55.1565V153.226H21.1729Z" fill="#2E9BD6"/>
<path d="M55.1572 153.226H60.8226V158.892H55.1572V153.226Z" fill="#2E9BD6"/>
<path d="M62.3154 56.8042H67.9808V62.4699H62.3154V56.8042Z" fill="#2E9BD6"/>
<path d="M79.2949 191.394H84.9581V185.728H79.2949V191.394Z" fill="#2E9BD6"/>
<path d="M50.9688 191.394H56.6319V185.728H50.9688V191.394Z" fill="#2E9BD6"/>
<path d="M56.6338 185.728H62.2988V180.062H56.6338V185.728Z" fill="#2E9BD6"/>
<path d="M62.2988 180.062H67.9638V174.398H62.2988V180.062Z" fill="#2E9BD6"/>
<path d="M67.9639 174.398H73.627V168.732H67.9639V174.398Z" fill="#2E9BD6"/>
<path d="M73.6299 168.732H79.2949V163.068H73.6299V168.732Z" fill="#2E9BD6"/>
<path d="M276.011 48.7432H270.376V54.3809H276.011V48.7432Z" fill="#2E9BD6"/>
<path d="M304.193 48.7432H298.558V54.3809H304.193V48.7432Z" fill="#2E9BD6"/>
<path d="M298.557 54.3809H292.92V60.0186H298.557V54.3809Z" fill="#2E9BD6"/>
<path d="M292.921 60.0186H287.284V65.6541H292.921V60.0186Z" fill="#2E9BD6"/>
<path d="M287.284 65.6543H281.649V71.292H287.284V65.6543Z" fill="#2E9BD6"/>
<path d="M326.742 65.6543H321.105V71.292H326.742V65.6543Z" fill="#2E9BD6"/>
<path d="M281.648 71.2915H276.011V76.9274H281.648V71.2915Z" fill="#2E9BD6"/>
<path d="M321.097 71.2915H315.46V76.9274H321.097V71.2915Z" fill="#2E9BD6"/>
<path d="M315.463 76.9272H309.828V82.565H315.463V76.9272Z" fill="#2E9BD6"/>
<path d="M270.38 82.5652H276.011V76.9279H270.38V54.3809H264.743V88.2012H270.38V82.5652Z" fill="#2E9BD6"/>
<path d="M309.83 82.5649H304.193V88.2005H309.83V82.5649Z" fill="#2E9BD6"/>
<path d="M264.743 88.2012H259.108V93.8386H264.743V88.2012Z" fill="#2E9BD6"/>
<path d="M304.193 88.2012H298.558V93.8386H304.193V88.2012Z" fill="#2E9BD6"/>
<path d="M259.107 93.8389H253.47V99.4766H259.107V93.8389Z" fill="#2E9BD6"/>
<path d="M326.742 93.8389H321.105V99.4766H326.742V93.8389Z" fill="#2E9BD6"/>
<path d="M321.097 99.4766H315.46V105.113H321.097V99.4766Z" fill="#2E9BD6"/>
<path d="M298.557 93.8389H292.92V110.75H298.557V93.8389Z" fill="#2E9BD6"/>
<path d="M315.463 105.111H309.828V110.749H315.463V105.111Z" fill="#2E9BD6"/>
<path d="M292.921 110.749H287.284V116.385H292.921V110.749Z" fill="#2E9BD6"/>
<path d="M309.829 110.749H298.558V116.385H309.829V110.749Z" fill="#2E9BD6"/>
<path d="M287.284 116.385H281.649V122.023H287.284V116.385Z" fill="#2E9BD6"/>
<path d="M281.648 122.023H276.011V127.659H281.648V122.023Z" fill="#2E9BD6"/>
<path d="M276.011 133.297V127.659H253.47V99.4766H247.833V127.659H242.196V133.297H276.011Z" fill="#2E9BD6"/>
<path d="M230.984 137.362H236.622V143H230.984V137.362Z" fill="#2E9BD6"/>
<path d="M236.622 143H242.259V148.638H236.622V143Z" fill="#2E9BD6"/>
<path d="M289.778 134.544H295.413V140.18H289.778V134.544Z" fill="#2E9BD6"/>
<path d="M286.959 182.503H292.596V188.141H286.959V182.503Z" fill="#2E9BD6"/>
<path d="M259.101 210.689H253.466V205.051H259.101V210.689Z" fill="#2E9BD6"/>
<path d="M270.374 193.777H264.739V188.139H270.374V193.777Z" fill="#2E9BD6"/>
<path d="M264.739 188.14H259.102V182.504H264.739V188.14Z" fill="#2E9BD6"/>
<path d="M253.471 176.867H259.102V182.504H253.471V205.051H247.834V171.231H253.471V176.867Z" fill="#2E9BD6"/>
<path d="M247.834 171.231H242.199V165.593H247.834V171.231Z" fill="#2E9BD6"/>
<path d="M242.197 165.593H236.56V159.955H242.197V165.593Z" fill="#2E9BD6"/>
<path d="M56.5745 233.781H50.9121V228.118H56.5745V233.781Z" fill="#F7850F"/>
<path d="M56.5745 228.119H50.9121V222.455H56.5745V228.119Z" fill="#FBA719"/>
<path d="M56.5745 222.455H50.9121V216.792H56.5745V222.455Z" fill="#FFEB89"/>
<path d="M50.9124 228.119H45.25V222.455H50.9124V228.119Z" fill="#FFEB89"/>
<path d="M62.2353 228.119H56.5732V222.455H62.2353V228.119Z" fill="#F7850F"/>
<path d="M259.193 250.993H264.918V262.442H270.641V250.993H282.088V245.268H270.641V239.544H264.918V245.268H259.193V250.993Z" fill="#FEE761"/>
<path d="M287.812 273.89H293.537V268.165H287.812V273.89Z" fill="#FEAE34"/>
<path d="M264.919 273.89H270.642V262.441H264.919V273.89Z" fill="#FEAE34"/>
<path d="M282.087 268.165H287.812V262.441H282.087V268.165Z" fill="#FEAE34"/>
<path d="M247.746 268.165H253.471V262.441H247.746V268.165Z" fill="#FEAE34"/>
<path d="M276.365 262.442H282.088V256.716H276.365V262.442Z" fill="#FEAE34"/>
<path d="M253.472 262.442H259.194V256.716H253.472V262.442Z" fill="#FEAE34"/>
<path d="M270.641 256.717H276.366V250.994H270.641V256.717Z" fill="#FEAE34"/>
<path d="M259.193 256.717H264.918V250.994H259.193V256.717Z" fill="#FEAE34"/>
<path d="M282.087 250.993H293.536V245.268H282.087V250.993Z" fill="#FEAE34"/>
<path d="M247.746 250.993H259.193V245.268H247.746V250.993Z" fill="#FEAE34"/>
<path d="M270.641 245.268H276.366V239.544H270.641V245.268Z" fill="#FEAE34"/>
<path d="M259.193 245.268H264.918V239.544H259.193V245.268Z" fill="#FEAE34"/>
<path d="M276.365 239.545H282.088V233.819H276.365V239.545Z" fill="#FEAE34"/>
<path d="M253.472 239.545H259.194V233.819H253.472V239.545Z" fill="#FEAE34"/>
<path d="M282.087 233.818H287.812V228.093H282.087V233.818Z" fill="#FEAE34"/>
<path d="M264.919 239.544H270.642V228.093H264.919V239.544Z" fill="#FEAE34"/>
<path d="M247.746 233.818H253.471V228.093H247.746V233.818Z" fill="#FEAE34"/>
<path d="M90.9844 34.3485H96.7071V28.625H90.9844V34.3485Z" fill="#626F8D"/>
<path d="M56.6436 22.8988H62.3685V17.1753H56.6436V22.8988Z" fill="#8F9EB6"/>
<path d="M68.0869 34.3488H85.2592V28.623H68.0869V34.3488Z" fill="#626F8D"/>
<path d="M85.2598 28.6235H90.9843V11.4512H85.2598V28.6235Z" fill="#626F8D"/>
<path d="M62.3691 28.6235H68.0915V11.4512H62.3691V28.6235Z" fill="#8F9EB6"/>
<path d="M68.0869 11.4514H85.2592V5.72607H68.0869V11.4514Z" fill="#626F8D"/>
<path d="M90.9844 11.4514H96.7071V5.72607H90.9844V11.4514Z" fill="#626F8D"/>
<path d="M56.6436 34.3487H62.3685V28.623H56.6436V34.3487Z" fill="#8F9EB6"/>
<path d="M73.8154 5.72352H79.5404V0H73.8154V5.72352Z" fill="#8F9EB6"/>
<path d="M90.9844 22.3817H96.7093V16.6582H90.9844V22.3817Z" fill="#626F8D"/>
<path d="M73.8086 40.0721H79.5332V34.3486H73.8086V40.0721Z" fill="#8F9EB6"/>
<path d="M56.6436 11.4514H62.3685V5.72607H56.6436V11.4514Z" fill="#8F9EB6"/>
<path d="M79.5371 17.1769H85.2599V11.4512H79.5371V17.1769Z" fill="#C1CCDB"/>
<path d="M73.8154 17.1769H79.5378V11.4512H73.8154V17.1769Z" fill="#C1CCDB"/>
<path d="M68.0869 17.1769H73.8097V11.4512H68.0869V17.1769Z" fill="#C1CCDB"/>
<path d="M68.0869 22.9029H73.8097V17.1772H68.0869V22.9029Z" fill="#C1CCDB"/>
<path d="M68.0869 28.628H73.8097V22.9023H68.0869V28.628Z" fill="#C1CCDB"/>
<path d="M79.5371 22.9029H85.2599V17.1772H79.5371V22.9029Z" fill="#8F9EB6"/>
<path d="M79.5371 28.6233H85.2599V22.8979H79.5371V28.6233Z" fill="#8F9EB6"/>
<path d="M73.8154 28.6233H79.5378V22.8979H73.8154V28.6233Z" fill="#8F9EB6"/>
<path d="M247.835 40.6015H242.173V34.938H247.835V40.6015Z" fill="#F7850F"/>
<path d="M247.835 34.9382H242.173V29.2754H247.835V34.9382Z" fill="#FBA719"/>
<path d="M247.835 29.275H242.173V23.6118H247.835V29.275Z" fill="#FFEB89"/>
<path d="M242.173 34.9382H236.511V29.2754H242.173V34.9382Z" fill="#FFEB89"/>
<path d="M253.496 34.9382H247.834V29.2754H253.496V34.9382Z" fill="#F7850F"/>
</svg>
