<svg width="13" height="17" viewBox="0 0 13 17" fill="none" xmlns="http://www.w3.org/2000/svg">
<rect x="3.5127" y="5.67165" width="1.75675" height="1.75675" fill="#9D9FA1"/>
<rect x="1.75684" y="2.15814" width="1.75675" height="1.75675" fill="#9D9FA1"/>
<rect y="14.4554" width="12.2605" height="1.75675" fill="#9D9FA1"/>
<rect y="0.401367" width="12.2605" height="1.75675" fill="#9D9FA1"/>
<rect x="1.75684" y="3.91489" width="1.75675" height="1.75675" fill="#9D9FA1"/>
<rect x="8.68945" y="2.15814" width="1.75675" height="1.75675" fill="#9D9FA1"/>
<rect x="8.68945" y="3.91489" width="1.75675" height="1.75675" fill="#9D9FA1"/>
<rect x="5.27051" y="7.4284" width="1.75675" height="1.75675" fill="#9D9FA1"/>
<rect x="7.02734" y="2.15814" width="1.75675" height="1.75675" fill="#9D9FA1"/>
<rect x="3.5127" y="12.6987" width="1.75675" height="1.75675" fill="#9D9FA1"/>
<rect x="6.93262" y="5.67165" width="1.75675" height="1.75675" fill="#9D9FA1"/>
<rect width="1.75675" height="1.75675" transform="matrix(1 0 0 -1 3.5127 10.9419)" fill="#9D9FA1"/>
<rect width="1.75675" height="1.75675" transform="matrix(1 0 0 -1 1.75684 12.6986)" fill="#9D9FA1"/>
<rect width="1.75675" height="1.75675" transform="matrix(1 0 0 -1 1.75684 14.4554)" fill="#9D9FA1"/>
<rect width="1.75675" height="1.75675" transform="matrix(1 0 0 -1 8.78418 12.6986)" fill="#9D9FA1"/>
<rect width="1.75675" height="1.75675" transform="matrix(1 0 0 -1 8.78418 14.4554)" fill="#9D9FA1"/>
<rect width="1.75675" height="1.75675" transform="matrix(1 0 0 -1 7.02734 10.9419)" fill="#9D9FA1"/>
</svg>
