<svg width="20" height="29" viewBox="0 0 20 29" fill="none" xmlns="http://www.w3.org/2000/svg">
<path d="M17.7778 0H11.1111H2.22222V2.23077H0V6.69231V11.1538H2.22222V13.3846H6.66667V15.6154H4.44444V20.0769V22.3077V26.7692H6.66667V29H13.3333V26.7692H15.5556V22.3077V20.0769H17.7778V17.8462V15.6154H20V11.1538V6.69231V2.23077H17.7778V0Z" fill="#2C73BF"/>
<path d="M2.22266 6.69238V11.1539H11.1115V15.6155H8.88932V20.077H6.6671V26.7693H13.3338V20.077H15.556V15.6155H17.7782V11.1539V6.69238H11.1115H2.22266Z" fill="#2C73BF"/>
<path d="M2.22266 2.23071V6.69225H11.1115V11.1538H8.88932V15.6153H6.6671V22.3076H13.3338V15.6153H15.556V11.1538H17.7782V6.69225V2.23071H11.1115H2.22266Z" fill="#FFDA40"/>
</svg>
