<svg width="23" height="30" viewBox="0 0 23 30" fill="none" xmlns="http://www.w3.org/2000/svg">
<path d="M20.3887 2.2658H18.1229V0H4.53161V2.2658H2.2658V4.53161H0V24.9203H2.2658V27.1861H4.53161V29.4519H18.1229V27.1861H20.3887V24.9203H22.6545V4.53161H20.3887V2.2658Z" fill="#2C73BF"/>
<path d="M13.5917 20.3888V22.6546H9.06011V20.3888H13.5917ZM18.1233 6.79749H4.5285V9.0633H2.2627V24.9204H4.5285V27.1862H18.1233V24.9204H20.3891V18.123H18.1233V15.8572H9.06011V11.3256H13.5917V13.5914H20.3891V9.05975H18.1233V6.79395V6.79749Z" fill="#2C73BF"/>
<path d="M13.5917 15.8572V18.123H9.06011V15.8572H13.5917ZM18.1233 2.26234H4.5285V4.52814H2.2627V20.3852H4.5285V22.651H18.1233V20.3852H20.3891V13.5878H18.1233V11.322H9.06011V6.7904H13.5917V9.0562H20.3891V4.52459H18.1233V2.25879V2.26234Z" fill="#FFDA40"/>
</svg>
