<svg width="173" height="49" viewBox="0 0 173 49" fill="none" xmlns="http://www.w3.org/2000/svg">
<path d="M39.5576 48.751H35.0014V44.3467H39.5576V48.751Z" fill="#606B8C"/>
<path d="M43.9609 48.752H39.5566V44.3477H43.9609V48.752Z" fill="#606B8C"/>
<path d="M48.3662 48.751H43.9619V44.3467H48.3662V48.751Z" fill="#606B8C"/>
<path d="M52.7705 48.751H48.3662V44.3467H52.7705V48.751Z" fill="#606B8C"/>
<path d="M57.1748 48.751H52.7705V44.3467H57.1748V48.751Z" fill="#606B8C"/>
<path d="M61.7305 48.751H57.1743V44.3467H61.7305V48.751Z" fill="#606B8C"/>
<path d="M66.1367 48.752H61.7324V44.3477H66.1367V48.752Z" fill="#606B8C"/>
<path d="M70.5391 48.751H66.1348V44.3467H70.5391V48.751Z" fill="#606B8C"/>
<path d="M74.9414 48.752H70.5371V44.3477H74.9414V48.752Z" fill="#606B8C"/>
<path d="M79.3477 48.751H74.9434V44.3467H79.3477V48.751Z" fill="#606B8C"/>
<path d="M83.9033 48.751H79.3471V44.3467H83.9033V48.751Z" fill="#606B8C"/>
<path d="M88.3086 48.752H83.9043V44.3477H88.3086V48.752Z" fill="#606B8C"/>
<path d="M92.7119 48.751H88.3076V44.3467H92.7119V48.751Z" fill="#606B8C"/>
<path d="M97.1172 48.752H92.7129V44.3477H97.1172V48.752Z" fill="#606B8C"/>
<path d="M101.521 48.751H97.1162V44.3467H101.521V48.751Z" fill="#606B8C"/>
<path d="M106.074 48.752H101.518V44.3477H106.074V48.752Z" fill="#606B8C"/>
<path d="M110.479 48.751H106.075V44.3467H110.479V48.751Z" fill="#606B8C"/>
<path d="M114.883 48.752H110.479V44.3477H114.883V48.752Z" fill="#606B8C"/>
<path d="M119.288 48.751H114.884V44.3467H119.288V48.751Z" fill="#606B8C"/>
<path d="M123.691 48.752H119.287V44.3477H123.691V48.752Z" fill="#606B8C"/>
<path d="M128.254 48.752H123.85V44.3477H128.254V48.752Z" fill="#606B8C"/>
<path d="M132.656 48.751H128.252V44.3467H132.656V48.751Z" fill="#606B8C"/>
<path d="M137.059 48.752H132.654V44.3477H137.059V48.752Z" fill="#606B8C"/>
<path d="M141.465 48.751H137.061V44.3467H141.465V48.751Z" fill="#606B8C"/>
<path d="M146.021 48.751H141.464V44.3467H146.021V48.751Z" fill="#606B8C"/>
<path d="M150.425 48.751H146.02V44.3467H150.425V48.751Z" fill="#606B8C"/>
<path d="M154.829 48.751H150.425V44.3467H154.829V48.751Z" fill="#606B8C"/>
<path d="M159.234 48.752H154.83V44.3477H159.234V48.752Z" fill="#606B8C"/>
<path d="M163.638 48.751H159.233V44.3467H163.638V48.751Z" fill="#606B8C"/>
<path d="M168.191 48.752H163.635V44.3477H168.191V48.752Z" fill="#606B8C"/>
<path d="M172.598 48.751H168.193V44.3467H172.598V48.751Z" fill="#606B8C"/>
<path d="M57.1748 44.3467H52.7705V39.9424H57.1748V44.3467Z" fill="#A62E35"/>
<path d="M61.7305 44.3467H57.1743V39.9424H61.7305V44.3467Z" fill="#434868"/>
<path d="M66.1367 44.3477H61.7324V39.9434H66.1367V44.3477Z" fill="#CBD3E3"/>
<path d="M70.5391 44.3467H66.1348V39.9424H70.5391V44.3467Z" fill="#96A2BB"/>
<path d="M74.9414 44.3477H70.5371V39.9434H74.9414V44.3477Z" fill="#434868"/>
<path d="M79.3477 44.3467H74.9434V39.9424H79.3477V44.3467Z" fill="#37374A"/>
<path d="M83.9033 44.3467H79.3471V39.9424H83.9033V44.3467Z" fill="#A62E35"/>
<path d="M88.3086 44.3477H83.9043V39.9434H88.3086V44.3477Z" fill="#A62E35"/>
<path d="M92.7119 44.3467H88.3076V39.9424H92.7119V44.3467Z" fill="#A62E35"/>
<path d="M97.1172 44.3477H92.7129V39.9434H97.1172V44.3477Z" fill="#A62E35"/>
<path d="M101.521 44.3467H97.1162V39.9424H101.521V44.3467Z" fill="#434868"/>
<path d="M106.074 44.3477H101.518V39.9434H106.074V44.3477Z" fill="#CBD3E3"/>
<path d="M110.479 44.3467H106.075V39.9424H110.479V44.3467Z" fill="#96A2BB"/>
<path d="M114.883 44.3477H110.479V39.9434H114.883V44.3477Z" fill="#434868"/>
<path d="M119.288 44.3467H114.884V39.9424H119.288V44.3467Z" fill="#37374A"/>
<path d="M123.691 44.3477H119.287V39.9434H123.691V44.3477Z" fill="#37374A"/>
<path d="M128.254 44.3477H123.85V39.9434H128.254V44.3477Z" fill="#606B8C"/>
<path d="M132.656 44.3467H128.252V39.9424H132.656V44.3467Z" fill="#CBD3E3"/>
<path d="M137.059 44.3477H132.654V39.9434H137.059V44.3477Z" fill="#96A2BB"/>
<path d="M141.465 44.3467H137.061V39.9424H141.465V44.3467Z" fill="#96A2BB"/>
<path d="M146.021 44.3467H141.464V39.9424H146.021V44.3467Z" fill="#96A2BB"/>
<path d="M150.425 44.3467H146.02V39.9424H150.425V44.3467Z" fill="#96A2BB"/>
<path d="M154.829 44.3467H150.425V39.9424H154.829V44.3467Z" fill="#96A2BB"/>
<path d="M159.234 44.3477H154.83V39.9434H159.234V44.3477Z" fill="#96A2BB"/>
<path d="M163.638 44.3467H159.233V39.9424H163.638V44.3467Z" fill="#96A2BB"/>
<path d="M52.7705 39.9426H48.3662V35.5383H52.7705V39.9426Z" fill="#A62E35"/>
<path d="M57.1748 39.9426H52.7705V35.5383H57.1748V39.9426Z" fill="#A62E35"/>
<path d="M61.7305 39.9426H57.1743V35.5383H61.7305V39.9426Z" fill="#434868"/>
<path d="M66.1367 39.9434H61.7324V35.5391H66.1367V39.9434Z" fill="#96A2BB"/>
<path d="M70.5391 39.9426H66.1348V35.5383H70.5391V39.9426Z" fill="#606B8C"/>
<path d="M74.9414 39.9434H70.5371V35.5391H74.9414V39.9434Z" fill="#434868"/>
<path d="M79.3477 39.9426H74.9434V35.5383H79.3477V39.9426Z" fill="#A62E35"/>
<path d="M83.9033 39.9426H79.3471V35.5383H83.9033V39.9426Z" fill="#A62E35"/>
<path d="M88.3086 39.9434H83.9043V35.5391H88.3086V39.9434Z" fill="#A62E35"/>
<path d="M92.7119 39.9426H88.3076V35.5383H92.7119V39.9426Z" fill="#A62E35"/>
<path d="M97.1172 39.9434H92.7129V35.5391H97.1172V39.9434Z" fill="#A62E35"/>
<path d="M101.521 39.9426H97.1162V35.5383H101.521V39.9426Z" fill="#434868"/>
<path d="M106.074 39.9434H101.518V35.5391H106.074V39.9434Z" fill="#96A2BB"/>
<path d="M110.479 39.9426H106.075V35.5383H110.479V39.9426Z" fill="#606B8C"/>
<path d="M114.883 39.9434H110.479V35.5391H114.883V39.9434Z" fill="#434868"/>
<path d="M119.288 39.9426H114.884V35.5383H119.288V39.9426Z" fill="#A62E35"/>
<path d="M123.691 39.9434H119.287V35.5391H123.691V39.9434Z" fill="#A62E35"/>
<path d="M128.254 39.9434H123.85V35.5391H128.254V39.9434Z" fill="#606B8C"/>
<path d="M132.656 39.9426H128.252V35.5383H132.656V39.9426Z" fill="#CBD3E3"/>
<path d="M137.059 39.9434H132.654V35.5391H137.059V39.9434Z" fill="#EEEBE7"/>
<path d="M141.465 39.9426H137.061V35.5383H141.465V39.9426Z" fill="#EEEBE7"/>
<path d="M146.021 39.9426H141.464V35.5383H146.021V39.9426Z" fill="#CBD3E3"/>
<path d="M150.425 39.9426H146.02V35.5383H150.425V39.9426Z" fill="#CBD3E3"/>
<path d="M154.829 39.9426H150.425V35.5383H154.829V39.9426Z" fill="#CBD3E3"/>
<path d="M159.234 39.9434H154.83V35.5391H159.234V39.9434Z" fill="#CBD3E3"/>
<path d="M163.638 39.9426H159.233V35.5383H163.638V39.9426Z" fill="#CBD3E3"/>
<path d="M48.3662 35.5381H43.9619V30.9819H48.3662V35.5381Z" fill="#A62E35"/>
<path d="M52.7705 35.5381H48.3662V30.9819H52.7705V35.5381Z" fill="#A62E35"/>
<path d="M57.1748 35.5381H52.7705V30.9819H57.1748V35.5381Z" fill="#A62E35"/>
<path d="M61.7305 35.5381H57.1743V30.9819H61.7305V35.5381Z" fill="#434868"/>
<path d="M66.1367 35.5386H61.7324V30.9824H66.1367V35.5386Z" fill="#96A2BB"/>
<path d="M70.5391 35.5381H66.1348V30.9819H70.5391V35.5381Z" fill="#606B8C"/>
<path d="M74.9414 35.5386H70.5371V30.9824H74.9414V35.5386Z" fill="#434868"/>
<path d="M79.3477 35.5381H74.9434V30.9819H79.3477V35.5381Z" fill="#A62E35"/>
<path d="M83.9033 35.5381H79.3471V30.9819H83.9033V35.5381Z" fill="#A62E35"/>
<path d="M88.3086 35.5386H83.9043V30.9824H88.3086V35.5386Z" fill="#A62E35"/>
<path d="M92.7119 35.5381H88.3076V30.9819H92.7119V35.5381Z" fill="#A62E35"/>
<path d="M97.1172 35.5386H92.7129V30.9824H97.1172V35.5386Z" fill="#A62E35"/>
<path d="M101.521 35.5381H97.1162V30.9819H101.521V35.5381Z" fill="#434868"/>
<path d="M106.074 35.5386H101.518V30.9824H106.074V35.5386Z" fill="#96A2BB"/>
<path d="M110.479 35.5381H106.075V30.9819H110.479V35.5381Z" fill="#606B8C"/>
<path d="M114.883 35.5386H110.479V30.9824H114.883V35.5386Z" fill="#434868"/>
<path d="M119.288 35.5381H114.884V30.9819H119.288V35.5381Z" fill="#A62E35"/>
<path d="M123.691 35.5386H119.287V30.9824H123.691V35.5386Z" fill="#A62E35"/>
<path d="M128.254 35.5386H123.85V30.9824H128.254V35.5386Z" fill="#A62E35"/>
<path d="M132.656 35.5381H128.252V30.9819H132.656V35.5381Z" fill="#DF3640"/>
<path d="M137.059 35.5386H132.654V30.9824H137.059V35.5386Z" fill="#DF3640"/>
<path d="M141.465 35.5381H137.061V30.9819H141.465V35.5381Z" fill="#DF3640"/>
<path d="M146.021 35.5381H141.464V30.9819H146.021V35.5381Z" fill="#DF3640"/>
<path d="M150.425 35.5381H146.02V30.9819H150.425V35.5381Z" fill="#DF3640"/>
<path d="M154.829 35.5381H150.425V30.9819H154.829V35.5381Z" fill="#C1472F"/>
<path d="M159.234 35.5386H154.83V30.9824H159.234V35.5386Z" fill="#DF3640"/>
<path d="M48.3662 30.9819H43.9619V26.5776H48.3662V30.9819Z" fill="#A62E35"/>
<path d="M52.7705 30.9819H48.3662V26.5776H52.7705V30.9819Z" fill="#A62E35"/>
<path d="M57.1748 30.9819H52.7705V26.5776H57.1748V30.9819Z" fill="#A62E35"/>
<path d="M61.7305 30.9819H57.1743V26.5776H61.7305V30.9819Z" fill="#A62E35"/>
<path d="M66.1367 30.9824H61.7324V26.5781H66.1367V30.9824Z" fill="#434868"/>
<path d="M70.5391 30.9819H66.1348V26.5776H70.5391V30.9819Z" fill="#434868"/>
<path d="M74.9414 30.9824H70.5371V26.5781H74.9414V30.9824Z" fill="#A62E35"/>
<path d="M79.3477 30.9819H74.9434V26.5776H79.3477V30.9819Z" fill="#A62E35"/>
<path d="M83.9033 30.9819H79.3471V26.5776H83.9033V30.9819Z" fill="#A62E35"/>
<path d="M88.3086 30.9824H83.9043V26.5781H88.3086V30.9824Z" fill="#A62E35"/>
<path d="M92.7119 30.9819H88.3076V26.5776H92.7119V30.9819Z" fill="#A62E35"/>
<path d="M97.1172 30.9824H92.7129V26.5781H97.1172V30.9824Z" fill="#A62E35"/>
<path d="M101.521 30.9819H97.1162V26.5776H101.521V30.9819Z" fill="#A62E35"/>
<path d="M106.074 30.9824H101.518V26.5781H106.074V30.9824Z" fill="#434868"/>
<path d="M110.479 30.9819H106.075V26.5776H110.479V30.9819Z" fill="#434868"/>
<path d="M114.883 30.9824H110.479V26.5781H114.883V30.9824Z" fill="#A62E35"/>
<path d="M119.288 30.9819H114.884V26.5776H119.288V30.9819Z" fill="#C1472F"/>
<path d="M123.691 30.9824H119.287V26.5781H123.691V30.9824Z" fill="#A62E35"/>
<path d="M128.254 30.9824H123.85V26.5781H128.254V30.9824Z" fill="#A62E35"/>
<path d="M132.656 30.9819H128.252V26.5776H132.656V30.9819Z" fill="#ED7022"/>
<path d="M137.059 30.9824H132.654V26.5781H137.059V30.9824Z" fill="#DF3640"/>
<path d="M141.465 30.9819H137.061V26.5776H141.465V30.9819Z" fill="#ED7022"/>
<path d="M146.021 30.9819H141.464V26.5776H146.021V30.9819Z" fill="#ED7022"/>
<path d="M150.425 30.9819H146.02V26.5776H150.425V30.9819Z" fill="#ED7022"/>
<path d="M154.829 30.9819H150.425V26.5776H154.829V30.9819Z" fill="#DF3640"/>
<path d="M159.234 30.9824H154.83V26.5781H159.234V30.9824Z" fill="#ED7022"/>
<path d="M48.3662 26.5779H43.9619V22.1736H48.3662V26.5779Z" fill="#A62E35"/>
<path d="M52.7705 26.5779H48.3662V22.1736H52.7705V26.5779Z" fill="#A62E35"/>
<path d="M57.1748 26.5779H52.7705V22.1736H57.1748V26.5779Z" fill="#A62E35"/>
<path d="M61.7305 26.5779H57.1743V22.1736H61.7305V26.5779Z" fill="#A62E35"/>
<path d="M66.1367 26.5781H61.7324V22.1738H66.1367V26.5781Z" fill="#A62E35"/>
<path d="M70.5391 26.5779H66.1348V22.1736H70.5391V26.5779Z" fill="#A62E35"/>
<path d="M74.9414 26.5781H70.5371V22.1738H74.9414V26.5781Z" fill="#A62E35"/>
<path d="M79.3477 26.5779H74.9434V22.1736H79.3477V26.5779Z" fill="#C1472F"/>
<path d="M83.9033 26.5779H79.3471V22.1736H83.9033V26.5779Z" fill="#C1472F"/>
<path d="M88.3086 26.5781H83.9043V22.1738H88.3086V26.5781Z" fill="#A62E35"/>
<path d="M92.7119 26.5779H88.3076V22.1736H92.7119V26.5779Z" fill="#A62E35"/>
<path d="M97.1172 26.5781H92.7129V22.1738H97.1172V26.5781Z" fill="#A62E35"/>
<path d="M101.521 26.5779H97.1162V22.1736H101.521V26.5779Z" fill="#A62E35"/>
<path d="M106.074 26.5781H101.518V22.1738H106.074V26.5781Z" fill="#C1472F"/>
<path d="M110.479 26.5779H106.075V22.1736H110.479V26.5779Z" fill="#C1472F"/>
<path d="M114.883 26.5781H110.479V22.1738H114.883V26.5781Z" fill="#C1472F"/>
<path d="M119.288 26.5779H114.884V22.1736H119.288V26.5779Z" fill="#A62E35"/>
<path d="M123.691 26.5781H119.287V22.1738H123.691V26.5781Z" fill="#A62E35"/>
<path d="M128.254 26.5781H123.85V22.1738H128.254V26.5781Z" fill="#A62E35"/>
<path d="M132.656 26.5779H128.252V22.1736H132.656V26.5779Z" fill="#F8B02D"/>
<path d="M137.059 26.5781H132.654V22.1738H137.059V26.5781Z" fill="#ED7022"/>
<path d="M141.465 26.5779H137.061V22.1736H141.465V26.5779Z" fill="#ED7022"/>
<path d="M146.021 26.5779H141.464V22.1736H146.021V26.5779Z" fill="#ED7022"/>
<path d="M150.425 26.5779H146.02V22.1736H150.425V26.5779Z" fill="#DF3640"/>
<path d="M154.829 26.5779H150.425V22.1736H154.829V26.5779Z" fill="#C1472F"/>
<path d="M159.234 26.5781H154.83V22.1738H159.234V26.5781Z" fill="#F8B02D"/>
<path d="M48.3662 22.1733H43.9619V17.769H48.3662V22.1733Z" fill="#C1472F"/>
<path d="M52.7705 22.1733H48.3662V17.769H52.7705V22.1733Z" fill="#A62E35"/>
<path d="M57.1748 22.1733H52.7705V17.769H57.1748V22.1733Z" fill="#A62E35"/>
<path d="M61.7305 22.1733H57.1743V17.769H61.7305V22.1733Z" fill="#C1472F"/>
<path d="M66.1367 22.1738H61.7324V17.7695H66.1367V22.1738Z" fill="#C1472F"/>
<path d="M70.5391 22.1733H66.1348V17.769H70.5391V22.1733Z" fill="#C1472F"/>
<path d="M74.9414 22.1738H70.5371V17.7695H74.9414V22.1738Z" fill="#C1472F"/>
<path d="M79.3477 22.1733H74.9434V17.769H79.3477V22.1733Z" fill="#A62E35"/>
<path d="M83.9033 22.1733H79.3471V17.769H83.9033V22.1733Z" fill="#A62E35"/>
<path d="M88.3086 22.1738H83.9043V17.7695H88.3086V22.1738Z" fill="#A62E35"/>
<path d="M92.7119 22.1733H88.3076V17.769H92.7119V22.1733Z" fill="#A62E35"/>
<path d="M97.1172 22.1738H92.7129V17.7695H97.1172V22.1738Z" fill="#A62E35"/>
<path d="M101.521 22.1733H97.1162V17.769H101.521V22.1733Z" fill="#A62E35"/>
<path d="M106.074 22.1738H101.518V17.7695H106.074V22.1738Z" fill="#A62E35"/>
<path d="M110.479 22.1733H106.075V17.769H110.479V22.1733Z" fill="#A62E35"/>
<path d="M114.883 22.1738H110.479V17.7695H114.883V22.1738Z" fill="#A62E35"/>
<path d="M119.288 22.1733H114.884V17.769H119.288V22.1733Z" fill="#A62E35"/>
<path d="M123.691 22.1738H119.287V17.7695H123.691V22.1738Z" fill="#A62E35"/>
<path d="M128.254 22.1738H123.85V17.7695H128.254V22.1738Z" fill="#DF3640"/>
<path d="M132.656 22.1733H128.252V17.769H132.656V22.1733Z" fill="#ED7022"/>
<path d="M137.059 22.1738H132.654V17.7695H137.059V22.1738Z" fill="#ED7022"/>
<path d="M141.465 22.1733H137.061V17.769H141.465V22.1733Z" fill="#ED7022"/>
<path d="M146.021 22.1733H141.464V17.769H146.021V22.1733Z" fill="#DF3640"/>
<path d="M150.425 22.1733H146.02V17.769H150.425V22.1733Z" fill="#C1472F"/>
<path d="M154.829 22.1733H150.425V17.769H154.829V22.1733Z" fill="#DF3640"/>
<path d="M52.7705 17.7691H48.3662V13.3647H52.7705V17.7691Z" fill="#C1472F"/>
<path d="M57.1748 17.7691H52.7705V13.3647H57.1748V17.7691Z" fill="#A62E35"/>
<path d="M61.7305 17.7691H57.1743V13.3647H61.7305V17.7691Z" fill="#434868"/>
<path d="M66.1367 17.7695H61.7324V13.3652H66.1367V17.7695Z" fill="#434868"/>
<path d="M70.5391 17.7691H66.1348V13.3647H70.5391V17.7691Z" fill="#434868"/>
<path d="M74.9414 17.7695H70.5371V13.3652H74.9414V17.7695Z" fill="#A62E35"/>
<path d="M79.3477 17.7691H74.9434V13.3647H79.3477V17.7691Z" fill="#434868"/>
<path d="M83.9033 17.7691H79.3471V13.3647H83.9033V17.7691Z" fill="#434868"/>
<path d="M88.3086 17.7695H83.9043V13.3652H88.3086V17.7695Z" fill="#C1472F"/>
<path d="M92.7119 17.7691H88.3076V13.3647H92.7119V17.7691Z" fill="#C1472F"/>
<path d="M97.1172 17.7695H92.7129V13.3652H97.1172V17.7695Z" fill="#A62E35"/>
<path d="M101.521 17.7691H97.1162V13.3647H101.521V17.7691Z" fill="#606B8C"/>
<path d="M106.074 17.7695H101.518V13.3652H106.074V17.7695Z" fill="#96A2BB"/>
<path d="M110.479 17.7691H106.075V13.3647H110.479V17.7691Z" fill="#96A2BB"/>
<path d="M114.883 17.7695H110.479V13.3652H114.883V17.7695Z" fill="#CBD3E3"/>
<path d="M119.288 17.7691H114.884V13.3647H119.288V17.7691Z" fill="#CBD3E3"/>
<path d="M123.691 17.7695H119.287V13.3652H123.691V17.7695Z" fill="#CBD3E3"/>
<path d="M128.254 17.7695H123.85V13.3652H128.254V17.7695Z" fill="#96A2BB"/>
<path d="M61.7305 13.3648H57.1743V8.80859H61.7305V13.3648Z" fill="#A62E35"/>
<path d="M66.1367 13.3648H61.7324V8.80859H66.1367V13.3648Z" fill="#434868"/>
<path d="M70.5391 13.3648H66.1348V8.80859H70.5391V13.3648Z" fill="#434868"/>
<path d="M74.9414 13.3648H70.5371V8.80859H74.9414V13.3648Z" fill="#A62E35"/>
<path d="M79.3477 13.3648H74.9434V8.80859H79.3477V13.3648Z" fill="#434868"/>
<path d="M83.9033 13.3648H79.3471V8.80859H83.9033V13.3648Z" fill="#434868"/>
<path d="M88.3086 13.3648H83.9043V8.80859H88.3086V13.3648Z" fill="#434868"/>
<path d="M92.7119 13.3648H88.3076V8.80859H92.7119V13.3648Z" fill="#A62E35"/>
<path d="M97.1172 13.3648H92.7129V8.80859H97.1172V13.3648Z" fill="#606B8C"/>
<path d="M101.521 13.3648H97.1162V8.80859H101.521V13.3648Z" fill="#96A2BB"/>
<path d="M106.074 13.3648H101.518V8.80859H106.074V13.3648Z" fill="#CBD3E3"/>
<path d="M110.479 13.3648H106.075V8.80859H110.479V13.3648Z" fill="#CBD3E3"/>
<path d="M114.883 13.3648H110.479V8.80859H114.883V13.3648Z" fill="#CBD3E3"/>
<path d="M119.288 13.3648H114.884V8.80859H119.288V13.3648Z" fill="#96A2BB"/>
<path d="M123.691 13.3648H119.287V8.80859H123.691V13.3648Z" fill="#96A2BB"/>
<path d="M66.1367 8.8086H61.7324V4.4043H66.1367V8.8086Z" fill="#A62E35"/>
<path d="M70.5391 8.8086H66.1348V4.4043H70.5391V8.8086Z" fill="#434868"/>
<path d="M74.9414 8.8086H70.5371V4.4043H74.9414V8.8086Z" fill="#C1472F"/>
<path d="M79.3477 8.8086H74.9434V4.4043H79.3477V8.8086Z" fill="#434868"/>
<path d="M83.9033 8.8086H79.3471V4.4043H83.9033V8.8086Z" fill="#434868"/>
<path d="M88.3086 8.8086H83.9043V4.4043H88.3086V8.8086Z" fill="#A62E35"/>
<path d="M92.7119 8.8086H88.3076V4.4043H92.7119V8.8086Z" fill="#606B8C"/>
<path d="M97.1172 8.8086H92.7129V4.4043H97.1172V8.8086Z" fill="#96A2BB"/>
<path d="M101.521 8.8086H97.1162V4.4043H101.521V8.8086Z" fill="#CBD3E3"/>
<path d="M106.074 8.8086H101.518V4.4043H106.074V8.8086Z" fill="#EEEBE7"/>
<path d="M110.479 8.8086H106.075V4.4043H110.479V8.8086Z" fill="#EEEBE7"/>
<path d="M114.883 8.8086H110.479V4.4043H114.883V8.8086Z" fill="#CBD3E3"/>
<path d="M119.288 8.8086H114.884V4.4043H119.288V8.8086Z" fill="#CBD3E3"/>
<path d="M70.5391 4.4043H66.1348V0H70.5391V4.4043Z" fill="#A62E35"/>
<path d="M74.9414 4.4043H70.5371V0H74.9414V4.4043Z" fill="#A62E35"/>
<path d="M79.3477 4.4043H74.9434V0H79.3477V4.4043Z" fill="#A62E35"/>
<path d="M83.9033 4.4043H79.3471V0H83.9033V4.4043Z" fill="#A62E35"/>
<path d="M88.3086 4.4043H83.9043V0H88.3086V4.4043Z" fill="#C1472F"/>
<path d="M92.7119 4.4043H88.3076V0H92.7119V4.4043Z" fill="#ED7022"/>
<path d="M97.1172 4.4043H92.7129V0H97.1172V4.4043Z" fill="#ED7022"/>
<path d="M101.521 4.4043H97.1162V0H101.521V4.4043Z" fill="#ED7022"/>
<path d="M106.074 4.4043H101.518V0H106.074V4.4043Z" fill="#ED7022"/>
<path d="M110.479 4.4043H106.075V0H110.479V4.4043Z" fill="#ED7022"/>
<path d="M114.883 4.4043H110.479V0H114.883V4.4043Z" fill="#ED7022"/>
<path d="M20.3905 2.26462H18.1259V0H4.53221V2.26462H2.26462V4.53221H0V13.5936H2.26462V15.8583H0V24.9227H2.26462V27.1873H4.53221V29.4519H18.1259V27.1873H20.3905V24.9227H22.6551V4.53221H20.3905V2.26462Z" fill="#2C73BF"/>
<path d="M18.1259 6.79688H4.53224V9.06149H2.26465V13.5937H9.06147V11.3291H13.5937V13.5937H11.3291V15.8583H9.06147V20.3905H13.5937V22.6551H9.06147V20.3905H2.26465V24.9227H4.53224V27.1873H18.1259V24.9227H20.3905V18.1259H15.8583V15.8583H20.3905V9.06149H18.1259V6.79688Z" fill="#2C73BF"/>
<path d="M18.1259 2.26465H4.53224V4.53224H2.26465V9.06147H9.06147V6.79685H13.5937V9.06147H11.3291V11.3291H9.06147V15.8583H13.5937V18.1259H9.06147V15.8583H2.26465V20.3905H4.53224V22.6551H18.1259V20.3905H20.3905V13.5937H15.8583V11.3291H20.3905V4.53224H18.1259V2.26465Z" fill="#FFDA40"/>
</svg>
