<svg width="23" height="30" viewBox="0 0 23 30" fill="none" xmlns="http://www.w3.org/2000/svg">
<path d="M20.3905 2.26462H18.1259V0H4.53221V2.26462H2.26462V4.53221H0V13.5936H2.26462V15.8583H0V24.9227H2.26462V27.1873H4.53221V29.4519H18.1259V27.1873H20.3905V24.9227H22.6551V4.53221H20.3905V2.26462Z" fill="#2C73BF"/>
<path d="M18.1259 6.79688H4.53224V9.06149H2.26465V13.5937H9.06147V11.3291H13.5937V13.5937H11.3291V15.8583H9.06147V20.3905H13.5937V22.6551H9.06147V20.3905H2.26465V24.9227H4.53224V27.1873H18.1259V24.9227H20.3905V18.1259H15.8583V15.8583H20.3905V9.06149H18.1259V6.79688Z" fill="#2C73BF"/>
<path d="M18.1259 2.26465H4.53224V4.53224H2.26465V9.06147H9.06147V6.79685H13.5937V9.06147H11.3291V11.3291H9.06147V15.8583H13.5937V18.1259H9.06147V15.8583H2.26465V20.3905H4.53224V22.6551H18.1259V20.3905H20.3905V13.5937H15.8583V11.3291H20.3905V4.53224H18.1259V2.26465Z" fill="#FFDA40"/>
</svg>
