<svg width="23" height="30" viewBox="0 0 23 30" fill="none" xmlns="http://www.w3.org/2000/svg">
<path d="M20.3904 2.26468H18.1257V0H4.53213V2.26468H2.26468V4.53213H0V13.5936H2.26468V15.8583H0V27.1872H2.26468V29.4519H20.3904V27.1872H22.6551V4.53213H20.3904V2.26468Z" fill="#2C73BF"/>
<path d="M18.1267 6.79688H4.53308V9.06155H2.26562V13.5937H9.06243V11.329H13.5946V13.5937H11.3299V15.8584H6.79776V18.1258H4.53308V20.3905H2.26562V27.1873H20.3914V22.6552H11.3299V20.3905H15.8592V18.1258H20.3914V9.06155H18.1267V6.79688Z" fill="#2C73BF"/>
<path d="M18.1267 2.26465H4.53308V4.5321H2.26562V9.06146H9.06243V6.79678H13.5946V9.06146H11.3299V11.3289H6.79776V13.5936H4.53308V15.8583H2.26562V22.6551H20.3914V18.1257H11.3299V15.8583H15.8592V13.5936H20.3914V4.5321H18.1267V2.26465Z" fill="#FFDA40"/>
</svg>
