<svg width="156" height="96" viewBox="0 0 156 96" fill="none" xmlns="http://www.w3.org/2000/svg">
<path d="M23.6537 88.7402H17.7402V94.6537H23.6537V88.7402Z" fill="#D07F64"/>
<path d="M29.5678 88.7402H23.6543V94.6537H29.5678V88.7402Z" fill="#D07F64"/>
<path d="M35.4809 88.7402H29.5674V94.6537H35.4809V88.7402Z" fill="#E98E73"/>
<path d="M41.394 88.7402H35.4805V94.6537H41.394V88.7402Z" fill="#E98E73"/>
<path d="M17.7406 88.7402H11.8271V94.6537H17.7406V88.7402Z" fill="#AC7058"/>
<path d="M23.6537 82.8262H17.7402V88.7397H23.6537V82.8262Z" fill="#AC7058"/>
<path d="M29.5678 82.8262H23.6543V88.7397H29.5678V82.8262Z" fill="#AC7058"/>
<path d="M35.4809 82.8262H29.5674V88.7397H35.4809V82.8262Z" fill="#AC7058"/>
<path d="M41.394 82.8262H35.4805V88.7397H41.394V82.8262Z" fill="#AC7058"/>
<path d="M17.7406 82.8262H11.8271V88.7397H17.7406V82.8262Z" fill="#AC7058"/>
<path d="M23.6537 76.9128H17.7402V82.8263H23.6537V76.9128Z" fill="#AC7058"/>
<path d="M29.5678 76.9128H23.6543V82.8263H29.5678V76.9128Z" fill="#D18062"/>
<path d="M35.4809 76.9128H29.5674V82.8263H35.4809V76.9128Z" fill="#D18062"/>
<path d="M41.394 76.9128H35.4805V82.8263H41.394V76.9128Z" fill="#D18062"/>
<path d="M17.7406 76.9128H11.8271V82.8263H17.7406V76.9128Z" fill="#AC7058"/>
<path d="M47.308 76.9128H41.3945V82.8263H47.308V76.9128Z" fill="#D18062"/>
<path d="M53.2592 76.9128H47.3457V82.8263H53.2592V76.9128Z" fill="#D18062"/>
<path d="M23.6537 70.9998H17.7402V76.9132H23.6537V70.9998Z" fill="#D48066"/>
<path d="M29.5678 70.9998H23.6543V76.9132H29.5678V70.9998Z" fill="#D48066"/>
<path d="M35.4809 70.9998H29.5674V76.9132H35.4809V70.9998Z" fill="#D48066"/>
<path d="M41.394 70.9998H35.4805V76.9132H41.394V70.9998Z" fill="#68393F"/>
<path d="M17.7406 70.9998H11.8271V76.9132H17.7406V70.9998Z" fill="#AC7058"/>
<path d="M47.308 70.9998H41.3945V76.9132H47.308V70.9998Z" fill="#68393F"/>
<path d="M53.2592 70.9998H47.3457V76.9132H53.2592V70.9998Z" fill="#D48066"/>
<path d="M59.1723 70.9998H53.2588V76.9132H59.1723V70.9998Z" fill="#D48066"/>
<path d="M23.6537 65.0852H17.7402V70.9987H23.6537V65.0852Z" fill="#D48066"/>
<path d="M29.5678 65.0852H23.6543V70.9987H29.5678V65.0852Z" fill="#D48066"/>
<path d="M35.4809 65.0852H29.5674V70.9987H35.4809V65.0852Z" fill="#68393F"/>
<path d="M41.394 65.0852H35.4805V70.9987H41.394V65.0852Z" fill="#D48066"/>
<path d="M17.7406 65.0852H11.8271V70.9987H17.7406V65.0852Z" fill="#AC7058"/>
<path d="M47.308 65.0852H41.3945V70.9987H47.308V65.0852Z" fill="#D48066"/>
<path d="M53.2592 65.0852H47.3457V70.9987H53.2592V65.0852Z" fill="#D48066"/>
<path d="M59.1723 65.0852H53.2588V70.9987H59.1723V65.0852Z" fill="#D48066"/>
<path d="M23.6537 59.1726H17.7402V65.0861H23.6537V59.1726Z" fill="#D48066"/>
<path d="M29.5678 59.1726H23.6543V65.0861H29.5678V59.1726Z" fill="#EF8D70"/>
<path d="M35.4809 59.1726H29.5674V65.0861H35.4809V59.1726Z" fill="#EF8D70"/>
<path d="M41.394 59.1726H35.4805V65.0861H41.394V59.1726Z" fill="#D48066"/>
<path d="M17.7406 59.1726H11.8271V65.0861H17.7406V59.1726Z" fill="#AC7058"/>
<path d="M47.308 59.1726H41.3945V65.0861H47.308V59.1726Z" fill="#D48066"/>
<path d="M53.2592 59.1726H47.3457V65.0861H53.2592V59.1726Z" fill="#EF8D70"/>
<path d="M59.1723 59.1726H53.2588V65.0861H59.1723V59.1726Z" fill="#EF8D70"/>
<path d="M11.8276 59.1726H5.91406V65.0861H11.8276V59.1726Z" fill="#AC7058"/>
<path d="M5.91349 59.1726H0V65.0861H5.91349V59.1726Z" fill="#AC7058"/>
<path d="M23.6537 53.259H17.7402V59.1725H23.6537V53.259Z" fill="#D48066"/>
<path d="M29.5678 53.259H23.6543V59.1725H29.5678V53.259Z" fill="#D48066"/>
<path d="M35.4809 53.259H29.5674V59.1725H35.4809V53.259Z" fill="#362535"/>
<path d="M41.394 53.259H35.4805V59.1725H41.394V53.259Z" fill="#D48066"/>
<path d="M17.7406 53.259H11.8271V59.1725H17.7406V53.259Z" fill="#AC7058"/>
<path d="M47.308 53.259H41.3945V59.1725H47.308V53.259Z" fill="#D48066"/>
<path d="M53.2592 53.259H47.3457V59.1725H53.2592V53.259Z" fill="#362535"/>
<path d="M59.1723 53.259H53.2588V59.1725H59.1723V53.259Z" fill="#D48066"/>
<path d="M11.8276 53.259H5.91406V59.1725H11.8276V53.259Z" fill="#D57E60"/>
<path d="M5.91349 53.259H0V59.1725H5.91349V53.259Z" fill="#AC7058"/>
<path d="M23.6537 47.3462H17.7402V53.2597H23.6537V47.3462Z" fill="#D48066"/>
<path d="M29.5678 47.3462H23.6543V53.2597H29.5678V47.3462Z" fill="#D48066"/>
<path d="M35.4809 47.3462H29.5674V53.2597H35.4809V47.3462Z" fill="#362535"/>
<path d="M41.394 47.3462H35.4805V53.2597H41.394V47.3462Z" fill="#D48066"/>
<path d="M17.7406 47.3462H11.8271V53.2597H17.7406V47.3462Z" fill="#AC7058"/>
<path d="M47.308 47.3462H41.3945V53.2597H47.308V47.3462Z" fill="#D48066"/>
<path d="M53.2592 47.3462H47.3457V53.2597H53.2592V47.3462Z" fill="#362535"/>
<path d="M59.1723 47.3462H53.2588V53.2597H59.1723V47.3462Z" fill="#D48066"/>
<path d="M11.8276 47.3462H5.91406V53.2597H11.8276V47.3462Z" fill="#E98B6F"/>
<path d="M5.91349 47.3462H0V53.2597H5.91349V47.3462Z" fill="#E98B6F"/>
<path d="M23.6537 41.3948H17.7402V47.3083H23.6537V41.3948Z" fill="#954338"/>
<path d="M29.5678 41.3948H23.6543V47.3083H29.5678V41.3948Z" fill="#954338"/>
<path d="M35.4809 41.3948H29.5674V47.3083H35.4809V41.3948Z" fill="#954338"/>
<path d="M41.394 41.3948H35.4805V47.3083H41.394V41.3948Z" fill="#D48066"/>
<path d="M17.7406 41.3948H11.8271V47.3083H17.7406V41.3948Z" fill="#AC7058"/>
<path d="M47.308 41.3948H41.3945V47.3083H47.308V41.3948Z" fill="#D48066"/>
<path d="M53.2592 41.3948H47.3457V47.3083H53.2592V41.3948Z" fill="#954338"/>
<path d="M59.1723 41.3948H53.2588V47.3083H59.1723V41.3948Z" fill="#954338"/>
<path d="M11.8276 41.3948H5.91406V47.3083H11.8276V41.3948Z" fill="#792439"/>
<path d="M5.91349 41.3948H0V47.3083H5.91349V41.3948Z" fill="#792439"/>
<path d="M23.6537 35.4812H17.7402V41.3947H23.6537V35.4812Z" fill="#AF6C59"/>
<path d="M29.5678 35.4812H23.6543V41.3947H29.5678V35.4812Z" fill="#AF6C59"/>
<path d="M35.4809 35.4812H29.5674V41.3947H35.4809V35.4812Z" fill="#AF6C59"/>
<path d="M41.394 35.4812H35.4805V41.3947H41.394V35.4812Z" fill="#AF6C59"/>
<path d="M17.7406 35.4812H11.8271V41.3947H17.7406V35.4812Z" fill="#792439"/>
<path d="M47.308 35.4812H41.3945V41.3947H47.308V35.4812Z" fill="#AF6C59"/>
<path d="M53.2592 35.4812H47.3457V41.3947H53.2592V35.4812Z" fill="#AF6C59"/>
<path d="M59.1723 35.4812H53.2588V41.3947H59.1723V35.4812Z" fill="#AF6C59"/>
<path d="M11.8276 35.4812H5.91406V41.3947H11.8276V35.4812Z" fill="#792439"/>
<path d="M5.91349 35.4812H0V41.3947H5.91349V35.4812Z" fill="#792439"/>
<path d="M23.6537 29.5667H17.7402V35.4801H23.6537V29.5667Z" fill="#792439"/>
<path d="M29.5678 29.5667H23.6543V35.4801H29.5678V29.5667Z" fill="#792439"/>
<path d="M35.4809 29.5667H29.5674V35.4801H35.4809V29.5667Z" fill="#792439"/>
<path d="M41.394 29.5667H35.4805V35.4801H41.394V29.5667Z" fill="#792439"/>
<path d="M17.7406 29.5667H11.8271V35.4801H17.7406V29.5667Z" fill="#792439"/>
<path d="M47.308 29.5667H41.3945V35.4801H47.308V29.5667Z" fill="#792439"/>
<path d="M53.2592 29.5667H47.3457V35.4801H53.2592V29.5667Z" fill="#792439"/>
<path d="M59.1723 29.5667H53.2588V35.4801H59.1723V29.5667Z" fill="#792439"/>
<path d="M11.8276 29.5667H5.91406V35.4801H11.8276V29.5667Z" fill="#792439"/>
<path d="M5.91349 29.5667H0V35.4801H5.91349V29.5667Z" fill="#792439"/>
<path d="M23.6537 23.6541H17.7402V29.5675H23.6537V23.6541Z" fill="#8C313A"/>
<path d="M29.5678 23.6541H23.6543V29.5675H29.5678V23.6541Z" fill="#8C313A"/>
<path d="M35.4809 23.6541H29.5674V29.5675H35.4809V23.6541Z" fill="#8C313A"/>
<path d="M41.394 23.6541H35.4805V29.5675H41.394V23.6541Z" fill="#DF7251"/>
<path d="M17.7406 23.6541H11.8271V29.5675H17.7406V23.6541Z" fill="#792439"/>
<path d="M47.308 23.6541H41.3945V29.5675H47.308V23.6541Z" fill="#893238"/>
<path d="M53.2592 23.6541H47.3457V29.5675H53.2592V23.6541Z" fill="#893238"/>
<path d="M59.1723 23.6541H53.2588V29.5675H59.1723V23.6541Z" fill="#792439"/>
<path d="M11.8276 23.6541H5.91406V29.5675H11.8276V23.6541Z" fill="#792439"/>
<path d="M23.6537 17.7405H17.7402V23.654H23.6537V17.7405Z" fill="#873134"/>
<path d="M29.5678 17.7405H23.6543V23.654H29.5678V17.7405Z" fill="#DF7251"/>
<path d="M35.4809 17.7405H29.5674V23.654H35.4809V17.7405Z" fill="#DF7251"/>
<path d="M41.394 17.7405H35.4805V23.654H41.394V17.7405Z" fill="#893238"/>
<path d="M17.7406 17.7405H11.8271V23.654H17.7406V17.7405Z" fill="#873134"/>
<path d="M47.308 17.7405H41.3945V23.654H47.308V17.7405Z" fill="#893238"/>
<path d="M53.2592 17.7405H47.3457V23.654H53.2592V17.7405Z" fill="#893238"/>
<path d="M59.1723 17.7405H53.2588V23.654H59.1723V17.7405Z" fill="#893238"/>
<path d="M11.8276 17.7405H5.91406V23.654H11.8276V17.7405Z" fill="#792439"/>
<path d="M65.0863 23.6541H59.1729V29.5675H65.0863V23.6541Z" fill="#792439"/>
<path d="M65.0863 17.7405H59.1729V23.654H65.0863V17.7405Z" fill="#792439"/>
<path d="M23.6537 11.8271H17.7402V17.7406H23.6537V11.8271Z" fill="#DF7251"/>
<path d="M29.5678 11.8271H23.6543V17.7406H29.5678V11.8271Z" fill="#873134"/>
<path d="M35.4809 11.8271H29.5674V17.7406H35.4809V11.8271Z" fill="#873134"/>
<path d="M41.394 11.8271H35.4805V17.7406H41.394V11.8271Z" fill="#873134"/>
<path d="M17.7406 11.8271H11.8271V17.7406H17.7406V11.8271Z" fill="#DF7251"/>
<path d="M47.308 11.8271H41.3945V17.7406H47.308V11.8271Z" fill="#893238"/>
<path d="M53.2592 11.8271H47.3457V17.7406H53.2592V11.8271Z" fill="#893238"/>
<path d="M59.1723 11.8271H53.2588V17.7406H59.1723V11.8271Z" fill="#893238"/>
<path d="M65.0863 11.8271H59.1729V17.7406H65.0863V11.8271Z" fill="#893238"/>
<path d="M53.2592 5.91357H47.3457V11.8271H53.2592V5.91357Z" fill="#792439"/>
<path d="M59.1723 5.91357H53.2588V11.8271H59.1723V5.91357Z" fill="#893238"/>
<path d="M65.0863 5.91357H59.1729V11.8271H65.0863V5.91357Z" fill="#D67650"/>
<path d="M53.2592 0H47.3457V5.91349H53.2592V0Z" fill="#893238"/>
<path d="M59.1723 0H53.2588V5.91349H59.1723V0Z" fill="#D67650"/>
<path d="M47.308 0H41.3945V5.91349H47.308V0Z" fill="#893238"/>
<path d="M131.432 88.7402H137.346V94.6537H131.432V88.7402Z" fill="#D07F64"/>
<path d="M125.518 88.7402H131.432V94.6537H125.518V88.7402Z" fill="#D07F64"/>
<path d="M119.605 88.7402H125.519V94.6537H119.605V88.7402Z" fill="#E98E73"/>
<path d="M113.692 88.7402H119.605V94.6537H113.692V88.7402Z" fill="#E98E73"/>
<path d="M137.345 88.7402H143.259V94.6537H137.345V88.7402Z" fill="#AC7058"/>
<path d="M131.432 82.8262H137.346V88.7397H131.432V82.8262Z" fill="#AC7058"/>
<path d="M125.518 82.8262H131.432V88.7397H125.518V82.8262Z" fill="#AC7058"/>
<path d="M119.605 82.8262H125.519V88.7397H119.605V82.8262Z" fill="#AC7058"/>
<path d="M113.692 82.8262H119.605V88.7397H113.692V82.8262Z" fill="#AC7058"/>
<path d="M137.345 82.8262H143.259V88.7397H137.345V82.8262Z" fill="#AC7058"/>
<path d="M131.432 76.9128H137.346V82.8263H131.432V76.9128Z" fill="#AC7058"/>
<path d="M125.518 76.9128H131.432V82.8263H125.518V76.9128Z" fill="#D18062"/>
<path d="M119.605 76.9128H125.519V82.8263H119.605V76.9128Z" fill="#D18062"/>
<path d="M113.692 76.9128H119.605V82.8263H113.692V76.9128Z" fill="#D18062"/>
<path d="M137.345 76.9128H143.259V82.8263H137.345V76.9128Z" fill="#AC7058"/>
<path d="M107.778 76.9128H113.691V82.8263H107.778V76.9128Z" fill="#D18062"/>
<path d="M101.827 76.9128H107.74V82.8263H101.827V76.9128Z" fill="#D18062"/>
<path d="M131.432 70.9998H137.346V76.9132H131.432V70.9998Z" fill="#D48066"/>
<path d="M125.518 70.9998H131.432V76.9132H125.518V70.9998Z" fill="#D48066"/>
<path d="M119.605 70.9998H125.519V76.9132H119.605V70.9998Z" fill="#D48066"/>
<path d="M113.692 70.9998H119.605V76.9132H113.692V70.9998Z" fill="#68393F"/>
<path d="M137.345 70.9998H143.259V76.9132H137.345V70.9998Z" fill="#AC7058"/>
<path d="M107.778 70.9998H113.691V76.9132H107.778V70.9998Z" fill="#68393F"/>
<path d="M101.827 70.9998H107.74V76.9132H101.827V70.9998Z" fill="#D48066"/>
<path d="M95.9137 70.9998H101.827V76.9132H95.9137V70.9998Z" fill="#D48066"/>
<path d="M131.432 65.0852H137.346V70.9987H131.432V65.0852Z" fill="#D48066"/>
<path d="M125.518 65.0852H131.432V70.9987H125.518V65.0852Z" fill="#D48066"/>
<path d="M119.605 65.0852H125.519V70.9987H119.605V65.0852Z" fill="#68393F"/>
<path d="M113.692 65.0852H119.605V70.9987H113.692V65.0852Z" fill="#D48066"/>
<path d="M137.345 65.0852H143.259V70.9987H137.345V65.0852Z" fill="#AC7058"/>
<path d="M107.778 65.0852H113.691V70.9987H107.778V65.0852Z" fill="#D48066"/>
<path d="M101.827 65.0852H107.74V70.9987H101.827V65.0852Z" fill="#D48066"/>
<path d="M95.9137 65.0852H101.827V70.9987H95.9137V65.0852Z" fill="#D48066"/>
<path d="M131.432 59.1726H137.346V65.0861H131.432V59.1726Z" fill="#D48066"/>
<path d="M125.518 59.1726H131.432V65.0861H125.518V59.1726Z" fill="#EF8D70"/>
<path d="M119.605 59.1726H125.519V65.0861H119.605V59.1726Z" fill="#EF8D70"/>
<path d="M113.692 59.1726H119.605V65.0861H113.692V59.1726Z" fill="#D48066"/>
<path d="M137.345 59.1726H143.259V65.0861H137.345V59.1726Z" fill="#AC7058"/>
<path d="M107.778 59.1726H113.691V65.0861H107.778V59.1726Z" fill="#D48066"/>
<path d="M101.827 59.1726H107.74V65.0861H101.827V59.1726Z" fill="#EF8D70"/>
<path d="M95.9137 59.1726H101.827V65.0861H95.9137V59.1726Z" fill="#EF8D70"/>
<path d="M143.258 59.1726H149.172V65.0861H143.258V59.1726Z" fill="#AC7058"/>
<path d="M149.172 59.1726H155.086V65.0861H149.172V59.1726Z" fill="#AC7058"/>
<path d="M131.432 53.259H137.346V59.1725H131.432V53.259Z" fill="#D48066"/>
<path d="M125.518 53.259H131.432V59.1725H125.518V53.259Z" fill="#D48066"/>
<path d="M119.605 53.259H125.519V59.1725H119.605V53.259Z" fill="#362535"/>
<path d="M113.692 53.259H119.605V59.1725H113.692V53.259Z" fill="#D48066"/>
<path d="M137.345 53.259H143.259V59.1725H137.345V53.259Z" fill="#AC7058"/>
<path d="M107.778 53.259H113.691V59.1725H107.778V53.259Z" fill="#D48066"/>
<path d="M101.827 53.259H107.74V59.1725H101.827V53.259Z" fill="#362535"/>
<path d="M95.9137 53.259H101.827V59.1725H95.9137V53.259Z" fill="#D48066"/>
<path d="M143.258 53.259H149.172V59.1725H143.258V53.259Z" fill="#D57E60"/>
<path d="M149.172 53.259H155.086V59.1725H149.172V53.259Z" fill="#AC7058"/>
<path d="M131.432 47.3462H137.346V53.2597H131.432V47.3462Z" fill="#D48066"/>
<path d="M125.518 47.3462H131.432V53.2597H125.518V47.3462Z" fill="#D48066"/>
<path d="M119.605 47.3462H125.519V53.2597H119.605V47.3462Z" fill="#362535"/>
<path d="M113.692 47.3462H119.605V53.2597H113.692V47.3462Z" fill="#D48066"/>
<path d="M137.345 47.3462H143.259V53.2597H137.345V47.3462Z" fill="#AC7058"/>
<path d="M107.778 47.3462H113.691V53.2597H107.778V47.3462Z" fill="#D48066"/>
<path d="M101.827 47.3462H107.74V53.2597H101.827V47.3462Z" fill="#362535"/>
<path d="M95.9137 47.3462H101.827V53.2597H95.9137V47.3462Z" fill="#D48066"/>
<path d="M143.258 47.3462H149.172V53.2597H143.258V47.3462Z" fill="#E98B6F"/>
<path d="M149.172 47.3462H155.086V53.2597H149.172V47.3462Z" fill="#E98B6F"/>
<path d="M131.432 41.3948H137.346V47.3083H131.432V41.3948Z" fill="#954338"/>
<path d="M125.518 41.3948H131.432V47.3083H125.518V41.3948Z" fill="#954338"/>
<path d="M119.605 41.3948H125.519V47.3083H119.605V41.3948Z" fill="#954338"/>
<path d="M113.692 41.3948H119.605V47.3083H113.692V41.3948Z" fill="#D48066"/>
<path d="M137.345 41.3948H143.259V47.3083H137.345V41.3948Z" fill="#AC7058"/>
<path d="M107.778 41.3948H113.691V47.3083H107.778V41.3948Z" fill="#D48066"/>
<path d="M101.827 41.3948H107.74V47.3083H101.827V41.3948Z" fill="#954338"/>
<path d="M95.9137 41.3948H101.827V47.3083H95.9137V41.3948Z" fill="#954338"/>
<path d="M143.258 41.3948H149.172V47.3083H143.258V41.3948Z" fill="#F8B02D"/>
<path d="M149.172 41.3948H155.086V47.3083H149.172V41.3948Z" fill="#F8B02D"/>
<path d="M131.432 35.4812H137.346V41.3947H131.432V35.4812Z" fill="#AF6C59"/>
<path d="M125.518 35.4812H131.432V41.3947H125.518V35.4812Z" fill="#AF6C59"/>
<path d="M119.605 35.4812H125.519V41.3947H119.605V35.4812Z" fill="#AF6C59"/>
<path d="M113.692 35.4812H119.605V41.3947H113.692V35.4812Z" fill="#AF6C59"/>
<path d="M137.345 35.4812H143.259V41.3947H137.345V35.4812Z" fill="#F8B02D"/>
<path d="M107.778 35.4812H113.691V41.3947H107.778V35.4812Z" fill="#AF6C59"/>
<path d="M101.827 35.4812H107.74V41.3947H101.827V35.4812Z" fill="#AF6C59"/>
<path d="M95.9137 35.4812H101.827V41.3947H95.9137V35.4812Z" fill="#AF6C59"/>
<path d="M143.258 35.4812H149.172V41.3947H143.258V35.4812Z" fill="#F8B02D"/>
<path d="M149.172 35.4812H155.086V41.3947H149.172V35.4812Z" fill="#F8B02D"/>
<path d="M131.432 29.5667H137.346V35.4801H131.432V29.5667Z" fill="#F8B02D"/>
<path d="M125.518 29.5667H131.432V35.4801H125.518V29.5667Z" fill="#F8B02D"/>
<path d="M119.605 29.5667H125.519V35.4801H119.605V29.5667Z" fill="#F8B02D"/>
<path d="M113.692 29.5667H119.605V35.4801H113.692V29.5667Z" fill="#F8B02D"/>
<path d="M137.345 29.5667H143.259V35.4801H137.345V29.5667Z" fill="#F8B02D"/>
<path d="M107.778 29.5667H113.691V35.4801H107.778V29.5667Z" fill="#F8B02D"/>
<path d="M101.827 29.5667H107.74V35.4801H101.827V29.5667Z" fill="#F8B02D"/>
<path d="M95.9137 29.5667H101.827V35.4801H95.9137V29.5667Z" fill="#F8B02D"/>
<path d="M143.258 29.5667H149.172V35.4801H143.258V29.5667Z" fill="#F8B02D"/>
<path d="M149.172 29.5667H155.086V35.4801H149.172V29.5667Z" fill="#F8B02D"/>
<path d="M131.432 23.6541H137.346V29.5675H131.432V23.6541Z" fill="#FFDB9A"/>
<path d="M125.518 23.6541H131.432V29.5675H125.518V23.6541Z" fill="#FFDB9A"/>
<path d="M119.605 23.6541H125.519V29.5675H119.605V23.6541Z" fill="#FFDB9A"/>
<path d="M113.692 23.6541H119.605V29.5675H113.692V23.6541Z" fill="#FFEDCD"/>
<path d="M137.345 23.6541H143.259V29.5675H137.345V23.6541Z" fill="#F8B02D"/>
<path d="M107.778 23.6541H113.691V29.5675H107.778V23.6541Z" fill="#D97641"/>
<path d="M101.827 23.6541H107.74V29.5675H101.827V23.6541Z" fill="#D97641"/>
<path d="M95.9137 23.6541H101.827V29.5675H95.9137V23.6541Z" fill="#F8B02D"/>
<path d="M143.258 23.6541H149.172V29.5675H143.258V23.6541Z" fill="#F8B02D"/>
<path d="M131.432 17.7405H137.346V23.654H131.432V17.7405Z" fill="#FEC969"/>
<path d="M125.518 17.7405H131.432V23.654H125.518V17.7405Z" fill="#FFEDCD"/>
<path d="M119.605 17.7405H125.519V23.654H119.605V17.7405Z" fill="#FFEDCD"/>
<path d="M113.692 17.7405H119.605V23.654H113.692V17.7405Z" fill="#D97641"/>
<path d="M137.345 17.7405H143.259V23.654H137.345V17.7405Z" fill="#FEC969"/>
<path d="M107.778 17.7405H113.691V23.654H107.778V17.7405Z" fill="#D97641"/>
<path d="M101.827 17.7405H107.74V23.654H101.827V17.7405Z" fill="#D97641"/>
<path d="M95.9137 17.7405H101.827V23.654H95.9137V17.7405Z" fill="#D97641"/>
<path d="M143.258 17.7405H149.172V23.654H143.258V17.7405Z" fill="#F8B02D"/>
<path d="M89.9996 23.6541H95.9131V29.5675H89.9996V23.6541Z" fill="#F8B02D"/>
<path d="M89.9996 17.7405H95.9131V23.654H89.9996V17.7405Z" fill="#F8B02D"/>
<path d="M131.432 11.8271H137.346V17.7406H131.432V11.8271Z" fill="#DF7251"/>
<path d="M125.518 11.8271H131.432V17.7406H125.518V11.8271Z" fill="#FEC969"/>
<path d="M119.605 11.8271H125.519V17.7406H119.605V11.8271Z" fill="#FEC969"/>
<path d="M113.692 11.8271H119.605V17.7406H113.692V11.8271Z" fill="#FEC969"/>
<path d="M137.345 11.8271H143.259V17.7406H137.345V11.8271Z" fill="#DF7251"/>
<path d="M107.778 11.8271H113.691V17.7406H107.778V11.8271Z" fill="#D97641"/>
<path d="M101.827 11.8271H107.74V17.7406H101.827V11.8271Z" fill="#D97641"/>
<path d="M95.9137 11.8271H101.827V17.7406H95.9137V11.8271Z" fill="#D97641"/>
<path d="M89.9996 11.8271H95.9131V17.7406H89.9996V11.8271Z" fill="#D97641"/>
<path d="M101.827 5.91357H107.74V11.8271H101.827V5.91357Z" fill="#F8B02D"/>
<path d="M95.9137 5.91357H101.827V11.8271H95.9137V5.91357Z" fill="#D97641"/>
<path d="M89.9996 5.91357H95.9131V11.8271H89.9996V5.91357Z" fill="#FEC969"/>
<path d="M101.827 0H107.74V5.91349H101.827V0Z" fill="#D97641"/>
<path d="M95.9137 0H101.827V5.91349H95.9137V0Z" fill="#FEC969"/>
<path d="M107.778 0H113.691V5.91349H107.778V0Z" fill="#D97641"/>
<path d="M85.3904 68.2647H83.1257V66H69.5321V68.2647H67.2647V70.5321H65V79.5936H67.2647V81.8583H65V93.1872H67.2647V95.4519H85.3904V93.1872H87.6551V70.5321H85.3904V68.2647Z" fill="#2C73BF"/>
<path d="M83.1267 72.7969H69.5331V75.0616H67.2656V79.5937H74.0624V77.329H78.5946V79.5937H76.3299V81.8584H71.7978V84.1258H69.5331V86.3905H67.2656V93.1873H85.3914V88.6552H76.3299V86.3905H80.8592V84.1258H85.3914V75.0616H83.1267V72.7969Z" fill="#2C73BF"/>
<path d="M83.1267 68.2646H69.5331V70.5321H67.2656V75.0615H74.0624V72.7968H78.5946V75.0615H76.3299V77.3289H71.7978V79.5936H69.5331V81.8583H67.2656V88.6551H85.3914V84.1257H76.3299V81.8583H80.8592V79.5936H85.3914V70.5321H83.1267V68.2646Z" fill="#FFDA40"/>
</svg>
