<svg width="205" height="84" viewBox="0 0 205 84" fill="none" xmlns="http://www.w3.org/2000/svg">
<path d="M14.9016 19.239H10.1016V24.039H14.9016V19.239Z" fill="#AA70CF"/>
<path d="M185.402 69.614H180.602V74.414H185.402V69.614Z" fill="#AA70CF"/>
<path d="M19.6984 28.739H14.8984V33.539H19.6984V28.739Z" fill="#AA70CF"/>
<path d="M190.198 79.114H185.398V83.914H190.198V79.114Z" fill="#AA70CF"/>
<path d="M19.6984 23.9387H14.8984V28.7387H19.6984V23.9387Z" fill="#AA70CF"/>
<path d="M190.198 74.3137H185.398V79.1137H190.198V74.3137Z" fill="#AA70CF"/>
<path d="M19.6984 19.239H14.8984V24.039H19.6984V19.239Z" fill="#E0FFFB"/>
<path d="M190.198 69.614H185.398V74.414H190.198V69.614Z" fill="#E0FFFB"/>
<path d="M179.198 24.739H174.398V29.539H179.198V24.739Z" fill="#E0FFFB"/>
<path d="M33.9992 14.439H29.1992V19.239H33.9992V14.439Z" fill="#AA70CF"/>
<path d="M204.499 64.814H199.699V69.614H204.499V64.814Z" fill="#AA70CF"/>
<path d="M29.1984 14.4387H24.3984V19.2387H29.1984V14.4387Z" fill="#AA70CF"/>
<path d="M199.698 64.8137H194.898V69.6137H199.698V64.8137Z" fill="#AA70CF"/>
<path d="M195.101 69.5139H190.301V74.3139H195.101V69.5139Z" fill="#AA70CF"/>
<path d="M24.4992 14.439H19.6992V19.239H24.4992V14.439Z" fill="#E0FFFB"/>
<path d="M194.999 64.814H190.199V69.614H194.999V64.814Z" fill="#E0FFFB"/>
<path d="M183.999 19.939H179.199V24.739H183.999V19.939Z" fill="#E0FFFB"/>
<path d="M19.6984 14.4387H14.8984V19.2387H19.6984V14.4387Z" fill="#E0FFFB"/>
<path d="M111.8 37.9387H107V42.7387H111.8V37.9387Z" fill="#E0FFFB"/>
<path d="M190.198 64.8137H185.398V69.6137H190.198V64.8137Z" fill="#E0FFFB"/>
<path d="M14.9992 14.439H10.1992V19.239H14.9992V14.439Z" fill="#E0FFFB"/>
<path d="M185.499 64.814H180.699V69.614H185.499V64.814Z" fill="#E0FFFB"/>
<path d="M174.499 19.939H169.699V24.739H174.499V19.939Z" fill="#E0FFFB"/>
<path d="M10.1008 14.439H5.30078V19.239H10.1008V14.439Z" fill="#AA70CF"/>
<path d="M180.601 64.814H175.801V69.614H180.601V64.814Z" fill="#AA70CF"/>
<path d="M5.30002 14.439H0.5V19.239H5.30002V14.439Z" fill="#AA70CF"/>
<path d="M175.8 64.814H171V69.614H175.8V64.814Z" fill="#AA70CF"/>
<path d="M24.4992 9.63892H19.6992V14.4389H24.4992V9.63892Z" fill="#AA70CF"/>
<path d="M194.999 60.0139H190.199V64.8139H194.999V60.0139Z" fill="#AA70CF"/>
<path d="M24.4992 19.239H19.6992V24.039H24.4992V19.239Z" fill="#AA70CF"/>
<path d="M14.9016 9.63892H10.1016V14.4389H14.9016V9.63892Z" fill="#AA70CF"/>
<path d="M185.402 60.0139H180.602V64.8139H185.402V60.0139Z" fill="#AA70CF"/>
<path d="M19.6984 9.63892H14.8984V14.4389H19.6984V9.63892Z" fill="#E0FFFB"/>
<path d="M190.198 60.0139H185.398V64.8139H190.198V60.0139Z" fill="#E0FFFB"/>
<path d="M179.198 15.1389H174.398V19.9389H179.198V15.1389Z" fill="#E0FFFB"/>
<path d="M19.6984 4.83911H14.8984V9.63913H19.6984V4.83911Z" fill="#AA70CF"/>
<path d="M190.198 55.2141H185.398V60.0141H190.198V55.2141Z" fill="#AA70CF"/>
<path d="M19.6984 0.138916H14.8984V4.9389H19.6984V0.138916Z" fill="#AA70CF"/>
<path d="M190.198 50.5139H185.398V55.3139H190.198V50.5139Z" fill="#AA70CF"/>
</svg>
