<svg width="20" height="12" viewBox="0 0 20 12" fill="none" xmlns="http://www.w3.org/2000/svg">
<path fill-rule="evenodd" clip-rule="evenodd" d="M19.5417 0.956992C19.68 0.501992 19.5417 0.166992 18.8792 0.166992H16.6917C16.135 0.166992 15.8783 0.456159 15.7392 0.775326C15.7392 0.775326 14.6267 3.43866 13.0508 5.16866C12.5408 5.67033 12.3092 5.82949 12.0308 5.82949C11.8917 5.82949 11.6825 5.67033 11.6825 5.21449V0.956992C11.6825 0.410326 11.5292 0.166992 11.0658 0.166992H7.62583C7.27833 0.166992 7.06917 0.420326 7.06917 0.661159C7.06917 1.17866 7.8575 1.29866 7.93833 2.75533V5.92033C7.93833 6.61449 7.81083 6.74033 7.5325 6.74033C6.79083 6.74033 4.98667 4.06449 3.91583 1.00283C3.70833 0.406992 3.49833 0.166992 2.93917 0.166992H0.75C0.125 0.166992 0 0.456159 0 0.775326C0 1.34366 0.741667 4.16699 3.45417 7.90116C5.2625 10.4512 7.80833 11.8337 10.1275 11.8337C11.5183 11.8337 11.69 11.527 11.69 10.9978V9.07033C11.69 8.45616 11.8217 8.33366 12.2625 8.33366C12.5875 8.33366 13.1433 8.49366 14.4417 9.72283C15.925 11.1803 16.1692 11.8337 17.0042 11.8337H19.1917C19.8167 11.8337 20.13 11.527 19.95 10.9203C19.7517 10.317 19.0433 9.44116 18.1042 8.40199C17.5942 7.81033 16.8292 7.17283 16.5967 6.85366C16.2725 6.44449 16.365 6.26199 16.5967 5.89783C16.5967 5.89783 19.2633 2.20949 19.5408 0.956992H19.5417Z" fill="#4A76A8"/>
</svg>
