<svg width="20" height="20" viewBox="0 0 20 20" fill="none" xmlns="http://www.w3.org/2000/svg">
<g clip-path="url(#clip0)">
<path d="M0 9.58333C0 5.06571 0 2.80689 1.40345 1.40345C2.80689 0 5.06571 0 9.58333 0H10.4167C14.9343 0 17.1931 0 18.5965 1.40345C20 2.80689 20 5.06571 20 9.58333V10.4167C20 14.9343 20 17.1931 18.5965 18.5965C17.1931 20 14.9343 20 10.4167 20H9.58333C5.06571 20 2.80689 20 1.40345 18.5965C0 17.1931 0 14.9343 0 10.4167L0 9.58333Z" fill="#2787F5"/>
<path fill-rule="evenodd" clip-rule="evenodd" d="M5.41778 6.25H3.95911C3.54234 6.25 3.45898 6.44617 3.45898 6.66242C3.45898 7.04871 3.95351 8.9645 5.76157 11.4983C6.96694 13.2287 8.66519 14.1667 10.2106 14.1667C11.1378 14.1667 11.2525 13.9583 11.2525 13.5995V12.2917C11.2525 11.875 11.3403 11.7918 11.6339 11.7918C11.8503 11.7918 12.2212 11.9 13.0866 12.7343C14.0756 13.7231 14.2387 14.1667 14.7949 14.1667H16.2536C16.6704 14.1667 16.8788 13.9583 16.7586 13.5472C16.627 13.1375 16.1548 12.5429 15.5282 11.8382C15.1882 11.4365 14.6783 11.0039 14.5237 10.7876C14.3074 10.5095 14.3692 10.3859 14.5237 10.1387C14.5237 10.1387 16.3009 7.63579 16.4864 6.78608C16.5791 6.47704 16.4864 6.25 16.0452 6.25H14.5866C14.2157 6.25 14.0447 6.44617 13.9519 6.66242C13.9519 6.66242 13.2102 8.47008 12.1594 9.64429C11.8194 9.98417 11.6648 10.0923 11.4794 10.0923C11.3867 10.0923 11.2524 9.98417 11.2524 9.67521V6.78608C11.2524 6.41525 11.1448 6.25 10.8357 6.25H8.54348C8.31173 6.25 8.17232 6.42208 8.17232 6.58521C8.17232 6.93671 8.69773 7.01779 8.7519 8.00658V10.1542C8.7519 10.625 8.66682 10.7104 8.4814 10.7104C7.9869 10.7104 6.78403 8.89462 6.07061 6.81696C5.93082 6.41313 5.79057 6.25 5.41778 6.25Z" fill="white"/>
</g>
<defs>
<clipPath id="clip0">
<rect width="20" height="20" fill="white"/>
</clipPath>
</defs>
</svg>
