<svg width="27" height="24" viewBox="0 0 27 24" fill="none" xmlns="http://www.w3.org/2000/svg">
<path d="M26.712 22.08C26.712 22.704 26.492 23.18 26.052 23.508C25.612 23.836 25.072 24 24.432 24H2.28C1.64 24 1.1 23.832 0.66 23.496C0.22 23.16 0 22.688 0 22.08C0 21.6 0.144 21.112 0.432 20.616L11.496 1.32C12.024 0.44 12.648 0 13.368 0C14.088 0 14.696 0.44 15.192 1.32L26.28 20.64C26.568 21.152 26.712 21.632 26.712 22.08ZM15.024 9.816V6.312H11.688V9.816C11.688 10.04 11.704 10.252 11.736 10.452C11.768 10.652 11.812 10.876 11.868 11.124C11.924 11.372 11.968 11.584 12 11.76L12.624 15.648H14.04L14.688 11.76C14.72 11.6 14.768 11.392 14.832 11.136C14.896 10.88 14.944 10.652 14.976 10.452C15.008 10.252 15.024 10.04 15.024 9.816ZM15.024 19.104C15.024 18.64 14.86 18.248 14.532 17.928C14.204 17.608 13.808 17.448 13.344 17.448C12.896 17.448 12.508 17.608 12.18 17.928C11.852 18.248 11.688 18.64 11.688 19.104C11.688 19.568 11.852 19.964 12.18 20.292C12.508 20.62 12.896 20.784 13.344 20.784C13.808 20.784 14.204 20.62 14.532 20.292C14.86 19.964 15.024 19.568 15.024 19.104Z" fill="#FF7271"/>
</svg>
